<svg width="16" height="16" xmlns="http://www.w3.org/2000/svg">
    <g fill="none" fill-rule="evenodd">
        <path d="M0 0h16v16H0z"/>
        <path d="M8 0c4.411 0 8 3.589 8 8s-3.589 8-8 8-8-3.589-8-8 3.589-8 8-8zm0 1.455A6.553 6.553 0 0 0 1.455 8 6.553 6.553 0 0 0 8 14.545 6.553 6.553 0 0 0 14.545 8 6.553 6.553 0 0 0 8 1.455zm3 3.717A.727.727 0 0 1 12.028 6.2L7.4 10.828a.727.727 0 0 1-.514.213l-.115-.009a.727.727 0 0 1-.4-.204l-2.4-2.4A.727.727 0 1 1 5.002 7.4l1.885 1.886z" fill="#07BC40" fill-rule="nonzero"/>
    </g>
</svg>
