<svg width="135" height="97" xmlns="http://www.w3.org/2000/svg">
    <path d="M16.093 57.659a2.37 2.37 0 0 0-1.157 3.1l5.309 11.426c.26.569.736 1.012 1.322 1.23.256.094.528.142.801.142.342.003.68-.07.99-.212l40.11-18.784-3.634 38.086a2.37 2.37 0 0 0 .778 1.988A10.282 10.282 0 0 0 66.842 97a7.53 7.53 0 0 0 1.863-.236c3.256-.852 5.78-3.76 7.503-8.73L91.99 41.173l31.26-14.62c9.202-4.306 13.944-13.035 10.76-19.848a11.945 11.945 0 0 0-9.226-6.458 21.817 21.817 0 0 0-12.881 1.988L75.829 19.195 37.044 3.984c-4.885-1.845-8.753-1.797-11.466.167a9.658 9.658 0 0 0-3.516 7.64 2.37 2.37 0 0 0 1.014 1.87l26.117 18.001-14.957 7.097-25.08-6.388a2.358 2.358 0 0 0-2.619 1.136L.286 44.79a2.365 2.365 0 0 0 1.227 3.336l18.568 7.689-3.988 1.844zm10.804-47.05a4.05 4.05 0 0 1 1.417-2.556c1.345-.97 3.799-.828 7.078.402l34.54 13.508-15.76 7.38-27.275-18.735zM5.665 44.766l4.105-7.31 24.135 6.009c.52.132 1.07.082 1.558-.141L113.91 6.586a17.204 17.204 0 0 1 10.074-1.609 7.388 7.388 0 0 1 5.757 3.738c1.98 4.259-1.912 10.48-8.495 13.555l-27.18 12.776 1.653-4.899a2.398 2.398 0 1 0-4.553-1.513L71.747 86.567c-1.156 3.29-2.595 5.253-4.2 5.678a3.984 3.984 0 0 1-2.878-.543l4.719-49.68a2.37 2.37 0 1 0-4.719-.449l-.73 7.594-40.487 18.925-3.325-7.097 6.652-3.122a2.366 2.366 0 0 0 0-4.33L5.665 44.768z" fill="#FFF" fill-rule="nonzero" opacity=".04"/>
</svg>
