<?xml version="1.0" encoding="UTF-8"?>
<svg width="40px" height="40px" viewBox="0 0 40 40" version="1.1" xmlns="http://www.w3.org/2000/svg" xmlns:xlink="http://www.w3.org/1999/xlink">
    <title>dashboard_empty</title>
    <g id="Home-Dashboard_Light" stroke="none" stroke-width="1" fill="none" fill-rule="evenodd">
        <g id="Dashboard/Lightmode/Listing_1.1" transform="translate(-801.000000, -391.000000)">
            <g id="Group-6" transform="translate(233.000000, 152.000000)">
                <g transform="translate(476.000000, 239.000000)" id="dashboard_empty">
                    <g transform="translate(92.000000, 0.000000)">
                        <rect id="Rectangle" x="0" y="0" width="40" height="40"></rect>
                        <path d="M7.29268293,31.7073171 C7.84496768,31.7073171 8.29268293,32.1550323 8.29268293,32.7073171 L8.29268293,38.5121951 C8.29268293,39.0644799 7.84496768,39.5121951 7.29268293,39.5121951 L1.48780488,39.5121951 C0.935520128,39.5121951 0.487804878,39.0644799 0.487804878,38.5121951 L0.487804878,32.7073171 C0.487804878,32.1550323 0.935520128,31.7073171 1.48780488,31.7073171 L7.29268293,31.7073171 Z M6.792,33.207 L1.987,33.207 L1.987,38.012 L6.792,38.012 L6.792,33.207 Z M38.5121951,34.8597561 C38.9264087,34.8597561 39.2621951,35.1955425 39.2621951,35.6097561 C39.2621951,35.9894519 38.9800412,36.3032471 38.6139657,36.3529095 L38.5121951,36.3597561 L15.097561,36.3597561 C14.6833474,36.3597561 14.347561,36.0239697 14.347561,35.6097561 C14.347561,35.2300603 14.6297149,34.9162651 14.9957904,34.8666027 L15.097561,34.8597561 L38.5121951,34.8597561 Z M7.29268293,16.097561 C7.84496768,16.097561 8.29268293,16.5452762 8.29268293,17.097561 L8.29268293,22.902439 C8.29268293,23.4547238 7.84496768,23.902439 7.29268293,23.902439 L1.48780488,23.902439 C0.935520128,23.902439 0.487804878,23.4547238 0.487804878,22.902439 L0.487804878,17.097561 C0.487804878,16.5452762 0.935520128,16.097561 1.48780488,16.097561 L7.29268293,16.097561 Z M6.792,17.597 L1.987,17.597 L1.987,22.402 L6.792,22.402 L6.792,17.597 Z M38.5121951,19.25 C38.9264087,19.25 39.2621951,19.5857864 39.2621951,20 C39.2621951,20.3796958 38.9800412,20.693491 38.6139657,20.7431534 L38.5121951,20.75 L15.097561,20.75 C14.6833474,20.75 14.347561,20.4142136 14.347561,20 C14.347561,19.6203042 14.6297149,19.306509 14.9957904,19.2568466 L15.097561,19.25 L38.5121951,19.25 Z M7.29268293,0.487804878 C7.84496768,0.487804878 8.29268293,0.935520128 8.29268293,1.48780488 L8.29268293,7.29268293 C8.29268293,7.84496768 7.84496768,8.29268293 7.29268293,8.29268293 L1.48780488,8.29268293 C0.935520128,8.29268293 0.487804878,7.84496768 0.487804878,7.29268293 L0.487804878,1.48780488 C0.487804878,0.935520128 0.935520128,0.487804878 1.48780488,0.487804878 L7.29268293,0.487804878 Z M6.792,1.987 L1.987,1.987 L1.987,6.792 L6.792,6.792 L6.792,1.987 Z M38.5121951,3.6402439 C38.9264087,3.6402439 39.2621951,3.97603034 39.2621951,4.3902439 C39.2621951,4.76993967 38.9800412,5.08373486 38.6139657,5.13339729 L38.5121951,5.1402439 L15.097561,5.1402439 C14.6833474,5.1402439 14.347561,4.80445746 14.347561,4.3902439 C14.347561,4.01054814 14.6297149,3.69675294 14.9957904,3.64709052 L15.097561,3.6402439 L38.5121951,3.6402439 Z" id="Combined-Shape" fill="#5F6368" fill-rule="nonzero"></path>
                    </g>
                </g>
            </g>
        </g>
    </g>
</svg>