<svg xmlns="http://www.w3.org/2000/svg" width="32" height="32" viewBox="0 0 32 32">
    <g fill="none" fill-rule="evenodd">
        <g fill-rule="nonzero">
            <g>
                <g>
                    <path fill="#3B5998" d="M15.963 0c8.816 0 15.962 7.147 15.962 15.963 0 8.816-7.146 15.962-15.962 15.962C7.146 31.925 0 24.78 0 15.963 0 7.147 7.146 0 15.963 0z" transform="translate(-138 -300) translate(128 300) translate(10)"/>
                    <path fill="#FFF" d="M17.906 10.99h2.057V7.95h-2.418v.011c-2.93.104-3.53 1.751-3.584 3.481h-.006v1.518H11.96v2.976h1.995v7.977h3.007v-7.977h2.464l.475-2.976h-2.938v-.917c0-.585.39-1.054.943-1.054z" transform="translate(-138 -300) translate(128 300) translate(10)"/>
                </g>
            </g>
        </g>
    </g>
</svg>
