<svg xmlns="http://www.w3.org/2000/svg" width="16" height="16" viewBox="0 0 16 16">
    <g fill="none" fill-rule="evenodd">
        <g>
            <g>
                <g>
                    <g>
                        <path d="M0 0H16V16H0z" transform="translate(-1300 -79) translate(32 72) translate(1268 6) translate(0 1)"/>
                        <path fill="#9799AC" fill-rule="nonzero" d="M10.777 7.986l2.829 2.829-4.36 4.36c-.045.044-.1.075-.16.089l-3.083.727c-.026.006-.052.009-.077.009-.087 0-.173-.035-.236-.097-.081-.082-.115-.2-.089-.312l.727-3.084c.014-.061.045-.116.089-.16l4.36-4.361zM11.167 0c.827 0 1.5.673 1.5 1.5v3.167c0 .368-.299.666-.667.666-.368 0-.667-.298-.667-.666V4H7v2h2.713c.368 0 .667.299.667.667 0 .368-.299.666-.667.666H7V10c0 .368-.299.667-.667.667h-5v1.666c0 .184.15.334.334.334H4.56c.368 0 .667.298.667.666 0 .368-.299.667-.667.667H1.667C.748 14 0 13.252 0 12.333V1.5C0 .673.673 0 1.5 0zm1.614 5.983c.504-.504 1.382-.504 1.886 0l.942.943c.252.252.391.587.391.943s-.139.691-.39.943l-1.297 1.296-2.828-2.829zm-7.114 1.35H1.333v2h4.334v-2zm0-3.333H1.333v2h4.334V4z" transform="translate(-1300 -79) translate(32 72) translate(1268 6) translate(0 1)"/>
                    </g>
                </g>
            </g>
        </g>
    </g>
</svg>
