<svg xmlns="http://www.w3.org/2000/svg" width="16" height="16" viewBox="0 0 16 16">
    <g fill="none" fill-rule="evenodd">
        <g fill="#9799AC" fill-rule="nonzero">
            <g>
                <g>
                    <g>
                        <g>
                            <path d="M15.219 2.012L13.988.782C13.488.28 12.81 0 12.103 0H1.833C.821 0 0 .82 0 1.833v12.334C0 15.179.82 16 1.833 16h12.334C15.179 16 16 15.18 16 14.167V3.897c0-.707-.28-1.385-.781-1.885zM2.667 4.167V2.5c0-.276.224-.5.5-.5h7c.276 0 .5.224.5.5v1.667c0 .276-.224.5-.5.5h-7c-.276 0-.5-.224-.5-.5zM8 13.333c-1.657 0-3-1.343-3-3 0-1.656 1.343-3 3-3s3 1.344 3 3c0 1.657-1.343 3-3 3z" transform="translate(-424 -647) translate(56 403) translate(0 209) translate(0 22) translate(368 13)"/>
                        </g>
                    </g>
                </g>
            </g>
        </g>
    </g>
</svg>
