<svg xmlns="http://www.w3.org/2000/svg" width="18" height="18" viewBox="0 0 18 18">
    <g fill="none" fill-rule="evenodd">
        <g>
            <g>
                <path fill="#D8D8D8" d="M0 0H18V18H0z" opacity=".1" transform="translate(-910 -491) translate(910 491)"/>
                <path fill="#9799AD" fill-rule="nonzero" d="M9.448 13.5c.142 0 .213-.071.213-.213V9.832c0-.057.029-.086.085-.086h3.54c.143 0 .214-.07.214-.213v-.896c0-.142-.071-.213-.213-.213h-3.54c-.057 0-.086-.028-.086-.085V4.713c0-.142-.071-.213-.213-.213h-.896c-.142 0-.213.071-.213.213V8.34c0 .057-.029.085-.085.085h-3.54c-.143 0-.214.071-.214.213v.896c0 .142.071.213.213.213h3.54c.057 0 .086.029.086.086v3.455c0 .142.071.213.213.213h.896z" transform="translate(-910 -491) translate(910 491)"/>
            </g>
        </g>
    </g>
</svg>
