<svg xmlns="http://www.w3.org/2000/svg" width="24" height="24" viewBox="0 0 24 24">
    <g fill="none" fill-rule="evenodd">
        <g>
            <g>
                <g>
                    <g>
                        <path d="M0 0H24V24H0z" transform="translate(-568 -392) translate(496 114) translate(48 254) translate(24 24)"/>
                        <g fill="#9799AC" fill-rule="nonzero">
                            <path d="M21.423 0H2.57C1.15 0 0 1.15 0 2.57v18.853c0 1.42 1.15 2.57 2.57 2.57h18.853c1.42 0 2.57-1.15 2.57-2.57V2.57c0-1.42-1.15-2.571-2.57-2.571zM11.14 3.428h8.569c.473 0 .857.383.857.857 0 .473-.384.856-.857.856h-8.57c-.473 0-.856-.383-.856-.856 0-.474.383-.857.857-.857zm0 3.427h8.569c.473 0 .857.384.857.857s-.384.857-.857.857h-8.57c-.473 0-.856-.384-.856-.857s.383-.857.857-.857zM5.998 3.428c1.42 0 2.571 1.15 2.571 2.57S7.42 8.57 6 8.57 3.427 7.42 3.427 6s1.15-2.571 2.57-2.571zM22.28 21.423c0 .473-.383.857-.856.857H2.57c-.474 0-.857-.384-.857-.857v-9.426h20.565v9.426z" transform="translate(-568 -392) translate(496 114) translate(48 254) translate(24 24)"/>
                        </g>
                    </g>
                </g>
            </g>
        </g>
    </g>
</svg>
