<svg xmlns="http://www.w3.org/2000/svg" width="48" height="48" viewBox="0 0 48 48">
    <g fill="none" fill-rule="evenodd">
        <g fill="#FFAB00" fill-rule="nonzero">
            <g>
                <g>
                    <path d="M24 0c13.265 0 24 10.734 24 24 0 13.265-10.734 24-24 24C10.735 48 0 37.266 0 24 0 10.735 10.734 0 24 0zm0 2C11.84 2 2 11.84 2 24s9.84 22 22 22 22-9.84 22-22S36.16 2 24 2zm0 28.203c1.398 0 2.531 1.133 2.531 2.53 0 1.399-1.133 2.532-2.531 2.532-1.398 0-2.531-1.133-2.531-2.531 0-1.398 1.133-2.532 2.531-2.532zm0-18.12c1.036 0 1.875.839 1.875 1.874v12.075c0 1.035-.84 1.875-1.875 1.875-1.036 0-1.875-.84-1.875-1.875V13.957c0-1.035.84-1.875 1.875-1.875z" transform="translate(-696.000000, -317.000000) translate(521.000000, 293.000000) translate(175.000000, 24.000000)"/>
                </g>
            </g>
        </g>
    </g>
</svg>
