<svg xmlns="http://www.w3.org/2000/svg" width="16" height="16" viewBox="0 0 16 16">
    <g fill="none">
        <path fill="#FBBD00" d="M3.75 8c0-.793.218-1.535.598-2.171V3.132H1.65C.58 4.522 0 6.216 0 8c0 1.784.58 3.478 1.65 4.868h2.698v-2.697C3.968 9.535 3.75 8.793 3.75 8z"/>
        <path fill="#0F9D58" d="M8 12.25l-1.875 1.875L8 16c1.784 0 3.478-.58 4.868-1.65v-2.695h-2.694c-.641.38-1.387.595-2.174.595z"/>
        <path fill="#31AA52" d="M4.348 10.171L1.65 12.868c.212.276.442.54.692.789C3.854 15.167 5.863 16 8 16v-3.75c-1.55 0-2.91-.835-3.652-2.079z"/>
        <path fill="#3C79E6" d="M16 8c0-.487-.044-.974-.131-1.45l-.07-.384H8v3.75h3.795c-.368.734-.935 1.332-1.621 1.74l2.694 2.693c.275-.212.54-.442.789-.692C15.167 12.146 16 10.137 16 8z"/>
        <path fill="#CF2D48" d="M11.005 4.995l.332.331 2.651-2.651-.331-.332C12.146.833 10.137 0 8 0L6.125 1.875 8 3.75c1.135 0 2.202.442 3.005 1.245z"/>
        <path fill="#EB4132" d="M8 3.75V0C5.863 0 3.854.832 2.343 2.343c-.25.25-.48.513-.692.789l2.697 2.697C5.09 4.585 6.449 3.75 8 3.75z"/>
    </g>
</svg>
