<svg xmlns="http://www.w3.org/2000/svg" width="16" height="16" viewBox="0 0 16 16">
    <g fill="none" fill-rule="evenodd">
        <g>
            <g>
                <g>
                    <path d="M0 0H16V16H0z" transform="translate(-640 -133) translate(271 132) translate(369 1)"/>
                    <path fill="#9799AC" fill-rule="nonzero" d="M7.997 0C3.582 0 0 3.577 0 7.993c0 4.42 3.582 8.002 7.997 8.002 4.418 0 7.997-3.582 7.997-8.002C15.994 3.577 12.415 0 7.997 0zm.57 12.443c-.186.165-.4.248-.645.248-.252 0-.472-.081-.66-.245-.188-.163-.282-.391-.282-.685 0-.26.091-.48.273-.657.182-.178.405-.267.67-.267.26 0 .479.09.657.267.178.178.267.397.267.657 0 .29-.094.517-.28.682zm2.316-5.742c-.142.265-.312.493-.509.685-.196.193-.548.516-1.057.97-.14.129-.253.242-.338.339-.084.097-.147.186-.189.266-.041.081-.073.162-.096.242-.022.08-.056.223-.102.425-.079.43-.325.645-.738.645-.215 0-.396-.07-.543-.21-.146-.141-.22-.35-.22-.627 0-.347.054-.648.162-.902.107-.255.25-.478.427-.67.178-.192.418-.42.72-.685.264-.232.456-.406.573-.524.118-.118.217-.25.298-.394.08-.145.12-.302.12-.471 0-.33-.122-.61-.368-.837-.246-.227-.564-.341-.952-.341-.455 0-.79.115-1.005.344-.215.23-.396.567-.545 1.014-.141.467-.408.7-.8.7-.232 0-.427-.081-.586-.244-.16-.163-.239-.34-.239-.53 0-.393.126-.791.378-1.194.253-.403.62-.737 1.104-1.001.484-.265 1.048-.398 1.693-.398.6 0 1.128.111 1.587.333.459.22.813.521 1.064.902.25.38.375.793.375 1.24 0 .35-.071.659-.214.923z" transform="translate(-640 -133) translate(271 132) translate(369 1)"/>
                </g>
            </g>
        </g>
    </g>
</svg>
