<svg xmlns="http://www.w3.org/2000/svg" width="46" height="46" viewBox="-15 -15 46 46">
    <g fill="none" fill-rule="evenodd">
        <g fill="#9799AC" fill-rule="nonzero">
            <g>
                <g>
                    <path d="M14 0c1.103 0 2 .897 2 2v12c0 1.103-.897 2-2 2H2c-1.103 0-2-.897-2-2V2C0 .897.897 0 2 0zm0 1.333H2c-.368 0-.667.299-.667.667v8H5c.552 0 1 .448 1 1v3.667h8c.368 0 .667-.299.667-.667V2c0-.368-.299-.667-.667-.667zm-1.333 1.334c.17 0 .34.065.47.195.262.26.262.682 0 .943l-2.861 2.862 1.529 1.528c.19.191.247.478.144.727-.102.25-.346.411-.616.411h-4c-.368 0-.666-.298-.666-.666v-4c0-.27.161-.514.41-.616.084-.035.17-.051.256-.051.174 0 .344.068.472.195l1.528 1.529 2.862-2.862c.13-.13.3-.195.472-.195z" transform="translate(-1301 -99) translate(99 84) translate(1202 15)"/>
                </g>
            </g>
        </g>
    </g>
</svg>
