<svg width="16" height="16" viewBox="0 0 16 16" xmlns="http://www.w3.org/2000/svg">
    <g fill="none" fill-rule="evenodd">
        <path d="M0 0h16v16H0z"/>
        <path d="M6.172 1a.69.69 0 0 1 .53.247l.059.083.164.266h6.147c.78 0 1.43.566 1.561 1.308l.019.141.005.137v.821l.028.004c.655.113 1.174.63 1.29 1.283l.02.143.005.136v8.354c0 .828-.638 1.51-1.448 1.58l-.137.005H1.585c-.828 0-1.51-.638-1.58-1.448L0 13.923V2.585c0-.828.638-1.51 1.448-1.58L1.585 1h4.587zm-.386 1.38h-4.2a.206.206 0 0 0-.199.15l-.007.055v11.338c0 .094.064.174.15.198l.055.007h12.83a.206.206 0 0 0 .198-.15l.007-.055V5.57a.206.206 0 0 0-.15-.198l-.055-.007H8a.69.69 0 0 1-.529-.247l-.06-.083L5.787 2.38zM9.29 7.592l.068.058 2.054 2.099.007.006.012.014.02.025.03.041.006.011.013.024a.496.496 0 0 1 .034.084l.005.02.005.018a.478.478 0 0 1 .011.106v.02l-.003.033v.005l-.002.012-.003.02-.004.02a.5.5 0 0 1-.008.031l-.003.01a.496.496 0 0 1-.074.146l-.009.011-.026.03a.495.495 0 0 1-.018.02l-.003.001-.004.005-2.054 1.936a.5.5 0 0 1-.746-.66l.06-.068 1.137-1.072H4.116a.5.5 0 0 1-.09-.992l.09-.008h5.749L8.643 8.35a.5.5 0 0 1 .646-.758zm3.783-4.615H7.77l.617 1.006h4.891v-.801a.206.206 0 0 0-.15-.198l-.055-.007z" fill="#5F6368" fill-rule="nonzero"/>
    </g>
</svg>
