<svg xmlns="http://www.w3.org/2000/svg" width="16" height="16" viewBox="0 0 16 16">
    <g fill="none" fill-rule="evenodd">
        <g fill="#9799AC" fill-rule="nonzero">
            <g>
                <g>
                    <path d="M0 9.774c0 1.636 2.978 2.962 6.654 2.962.477 0 .942-.022 1.391-.065.106.795.4 1.53.834 2.162-.648.106-1.387.168-2.225.168-3.581 0-6.5-1.259-6.648-2.837l-.005-.125V9.774zm0-3C0 8.41 2.979 9.736 6.655 9.736c.68 0 1.337-.045 1.956-.13-.38.694-.6 1.49-.61 2.335-.416.04-.864.06-1.346.06-3.581 0-6.5-1.259-6.648-2.837l-.005-.125V6.774zm13.308-3V6.04c0 .147-.145.527-.538.967-1.442.065-2.724.74-3.595 1.774-.717.138-1.553.22-2.52.22C3.072 9 .153 7.743.005 6.165l-.005-.125V3.774C0 5.41 2.978 6.736 6.654 6.736c3.675 0 6.654-1.326 6.654-2.962zM6.654 0c3.675 0 6.654 1.326 6.654 2.962 0 1.636-2.979 2.962-6.654 2.962S0 4.598 0 2.962C0 1.326 2.98 0 6.654 0zM12.872 15.97c1.604-.18 2.888-1.461 3.071-3.065.24-2.096-1.39-3.88-3.432-3.903v-.94c0-.053-.065-.08-.109-.048l-1.936 1.422c-.033.025-.033.072 0 .096l1.936 1.422c.044.033.11.004.11-.047v-.939c1.435.023 2.584 1.244 2.486 2.704-.083 1.256-1.107 2.274-2.362 2.354-1.331.085-2.463-.865-2.665-2.122-.038-.234-.242-.403-.477-.403-.292 0-.52.26-.475.548.284 1.791 1.938 3.135 3.853 2.921z" transform="translate(-56 -745) translate(56 702) translate(0 43)"/>
                </g>
            </g>
        </g>
    </g>
</svg>
