<svg width="18" height="18" viewBox="0 0 18 18" fill="none" xmlns="http://www.w3.org/2000/svg">
<g id="pic">
<g id="Group">
<g id="Group_2">
<path id="Vector" fill-rule="evenodd" clip-rule="evenodd" d="M3.406 3.33789H15.438C15.8289 3.33789 16.1457 3.65477 16.1457 4.04565V13.9543C16.1457 14.3452 15.8289 14.6621 15.438 14.6621H3.406C3.01512 14.6621 2.69824 14.3452 2.69824 13.9543V4.04565C2.69824 3.65477 3.01512 3.33789 3.406 3.33789Z" stroke="#344054" stroke-width="2" stroke-linecap="round" stroke-linejoin="round"/>
<path id="Vector_2" d="M6.06012 6.8761C6.35328 6.8761 6.59094 6.63844 6.59094 6.34528C6.59094 6.05211 6.35328 5.81445 6.06012 5.81445C5.76695 5.81445 5.5293 6.05211 5.5293 6.34528C5.5293 6.63844 5.76695 6.8761 6.06012 6.8761Z" stroke="#344054" stroke-width="2" stroke-linecap="round" stroke-linejoin="round"/>
<path id="Vector_3" d="M6.23706 8.99914L8.00646 10.4147L10.1297 7.9375L16.1457 12.538V13.9535C16.1457 14.3444 15.8289 14.6612 15.438 14.6612H3.406C3.01512 14.6612 2.69824 14.3444 2.69824 13.9535V12.538L6.23706 8.99914Z" fill="white" stroke="#344054" stroke-width="2" stroke-linejoin="round"/>
</g>
</g>
</g>
</svg>
