<svg xmlns="http://www.w3.org/2000/svg" width="32" height="32" viewBox="0 0 32 32">
    <g fill="none" fill-rule="evenodd">
        <g fill-rule="nonzero">
            <g>
                <g transform="translate(-285 -300) translate(128 300) translate(157)">
                    <circle cx="15.886" cy="15.886" r="15.886" fill="#007AB9"/>
                    <path fill="#F1F2F2" d="M25.378 17.164v6.55h-3.797v-6.11c0-1.535-.549-2.583-1.923-2.583-1.05 0-1.673.705-1.948 1.388-.1.245-.126.584-.126.926v6.378h-3.797s.05-10.349 0-11.42h3.797v1.618c-.007.013-.018.025-.025.038h.025v-.038c.505-.776 1.405-1.886 3.423-1.886 2.498 0 4.371 1.632 4.371 5.14zM9.814 6.788c-1.299 0-2.149.852-2.149 1.973 0 1.096.825 1.973 2.1 1.973h.024c1.324 0 2.148-.877 2.148-1.973-.025-1.12-.824-1.973-2.123-1.973zM7.891 23.714h3.796V12.293H7.891v11.42z"/>
                </g>
            </g>
        </g>
    </g>
</svg>
