<svg width="17" height="17" viewBox="0 0 17 17" fill="none" xmlns="http://www.w3.org/2000/svg">
<path fill-rule="evenodd" clip-rule="evenodd" d="M8.93926 2.43144C9.69367 1.70281 10.7041 1.29963 11.7529 1.30874C12.8017 1.31786 13.8049 1.73853 14.5465 2.48017C15.2882 3.2218 15.7088 4.22505 15.718 5.27384C15.7271 6.32262 15.3239 7.33303 14.5953 8.08744L14.5871 8.0957L12.5872 10.0956C12.1817 10.5013 11.6937 10.815 11.1563 11.0154C10.6189 11.2159 10.0447 11.2985 9.47255 11.2575C8.90043 11.2165 8.34382 11.053 7.84047 10.778C7.33711 10.503 6.89879 10.1229 6.55523 9.66362C6.33469 9.36879 6.39492 8.95099 6.68975 8.73046C6.98458 8.50992 7.40238 8.57015 7.62291 8.86498C7.85195 9.17118 8.14417 9.42455 8.47974 9.60788C8.81531 9.79122 9.18638 9.90024 9.56779 9.92756C9.9492 9.95487 10.332 9.89984 10.6903 9.7662C11.0486 9.63255 11.3739 9.42342 11.6442 9.15298L11.6443 9.1529L13.64 7.15722C14.1234 6.65471 14.3907 5.98279 14.3847 5.28542C14.3786 4.58623 14.0982 3.9174 13.6037 3.42298C13.1093 2.92855 12.4405 2.6481 11.7413 2.64203C11.0436 2.63597 10.3714 2.90357 9.86883 3.38732L8.72576 4.52374C8.46466 4.78333 8.04255 4.7821 7.78296 4.52099C7.52337 4.25989 7.5246 3.83778 7.78571 3.57819L8.93238 2.43819L8.93926 2.43144Z" fill="black"/>
<path fill-rule="evenodd" clip-rule="evenodd" d="M5.68827 6.18C6.22568 5.97953 6.79991 5.89698 7.37203 5.93795C7.94414 5.97893 8.50075 6.14246 9.00411 6.41747C9.50746 6.69247 9.94579 7.07252 10.2893 7.53182C10.5099 7.82665 10.4497 8.24445 10.1548 8.46498C9.85999 8.68552 9.4422 8.62529 9.22166 8.33046C8.99262 8.02426 8.7004 7.77089 8.36483 7.58756C8.02927 7.40422 7.65819 7.2952 7.27678 7.26788C6.89537 7.24057 6.51255 7.2956 6.15428 7.42924C5.79601 7.56289 5.47067 7.77202 5.20033 8.04246L3.20457 10.0382C2.72121 10.5407 2.45384 11.2127 2.4599 11.91C2.46598 12.6092 2.74643 13.278 3.24085 13.7725C3.73527 14.2669 4.4041 14.5473 5.10329 14.5534C5.80066 14.5595 6.47257 14.2921 6.97508 13.8088L8.11077 12.6731C8.37112 12.4127 8.79323 12.4127 9.05358 12.6731C9.31393 12.9334 9.31393 13.3555 9.05358 13.6159L7.91358 14.7559L7.90531 14.764C7.1509 15.4926 6.14049 15.8958 5.09171 15.8867C4.04292 15.8776 3.03967 15.4569 2.29804 14.7153C1.55641 13.9736 1.13573 12.9704 1.12662 11.9216C1.1175 10.8728 1.52068 9.86241 2.24931 9.108L2.25743 9.09974L4.25735 7.09982C4.25732 7.09985 4.25738 7.09979 4.25735 7.09982C4.66284 6.69421 5.1509 6.38045 5.68827 6.18Z" fill="black"/>
</svg>
