<svg xmlns="http://www.w3.org/2000/svg" width="110" height="110" viewBox="0 0 110 110">
    <g fill="none" fill-rule="evenodd" opacity=".04">
        <g fill="#FFF" fill-rule="nonzero">
            <g>
                <g>
                    <path d="M59.221 8.649C75.72.116 92.971-.353 101.788.129c4.37.239 7.845 3.713 8.083 8.083.481 8.816.013 26.069-8.52 42.567-4.35 8.41-11.725 17.304-20.235 24.403l-.316.259-1.244 16.109c-.205 2.651-1.594 5.013-3.813 6.48l-16.622 10.99c-.983.65-2.11.98-3.245.98-.808 0-1.62-.168-2.387-.507-1.844-.816-3.13-2.493-3.438-4.485L47.95 91.436c-.264.048-.527.096-.791.14-.462.077-.926.115-1.388.115-2.24 0-4.427-.892-6.046-2.51L20.82 70.275c-1.952-1.952-2.848-4.731-2.396-7.434.044-.264.092-.527.14-.791L4.992 59.949C3 59.64 1.322 58.355.507 56.51c-.816-1.844-.64-3.95.473-5.632l10.99-16.623c1.467-2.218 3.829-3.607 6.48-3.812l16.11-1.245.258-.315c7.099-8.51 15.993-15.885 24.403-20.235zM31.02 93.552c1.291-1.292 3.386-1.292 4.678 0 1.292 1.292 1.292 3.387 0 4.679l-10.8 10.8c-.647.646-1.494.969-2.34.969-.846 0-1.693-.323-2.339-.969-1.292-1.292-1.292-3.386 0-4.678zm-9.92-9.195c1.255-1.254 3.289-1.254 4.543 0 1.254 1.255 1.254 3.288 0 4.542l-20.16 20.16c-.627.628-1.45.941-2.271.941-.822 0-1.644-.313-2.271-.94-1.255-1.255-1.255-3.288 0-4.543zm52.84-3.798c-6.333 4.24-12.98 7.404-19.7 9.38l2.048 13.227 15.9-10.513c.548-.362.892-.945.942-1.6zm-62.17-6.257c1.291-1.292 3.386-1.292 4.678 0 1.292 1.292 1.292 3.387 0 4.679l-10.8 10.8c-.647.646-1.493.969-2.34.969-.847 0-1.693-.323-2.339-.969-1.292-1.292-1.292-3.386 0-4.678zm15.527-19.971c-1.08 3.014-1.954 6.213-2.516 9.574-.11.653.114 1.33.596 1.813l18.905 18.905c.482.482 1.159.704 1.813.596 2.706-.453 5.948-1.226 9.568-2.523zm74.14-47.766c-8.161-.445-24.113-.023-39.254 7.809-7.676 3.97-15.846 10.763-22.415 18.639-3.147 3.772-6.78 8.835-9.758 14.916l32.06 32.06c4.658-2.273 9.711-5.414 14.918-9.757 7.875-6.569 14.668-14.739 18.638-22.414 7.832-15.141 8.255-31.094 7.81-39.255-.06-1.08-.918-1.94-1.999-1.998zM29.441 36.059l-10.494.81c-.655.051-1.238.394-1.6.942L6.834 53.712l13.226 2.049c1.976-6.72 5.14-13.368 9.38-19.702zm34.841-13.032c6.254-6.258 16.431-6.258 22.686 0 3.03 3.03 4.699 7.061 4.699 11.348 0 4.287-1.669 8.317-4.699 11.349-3.127 3.128-7.236 4.692-11.343 4.693-4.109 0-8.215-1.564-11.343-4.693-3.03-3.032-4.699-7.062-4.699-11.349s1.669-8.317 4.699-11.348zm11.343 1.723c-2.465 0-4.93.939-6.806 2.816-1.818 1.819-2.82 4.237-2.82 6.81 0 2.571 1.002 4.99 2.82 6.808 3.753 3.754 9.859 3.755 13.612 0 1.818-1.819 2.819-4.237 2.819-6.81 0-2.571-1.001-4.99-2.82-6.808-1.876-1.877-4.34-2.816-6.805-2.816z" transform="translate(-735.000000, -734.000000) translate(338.000000, 136.000000) translate(24.000000, 456.000000) translate(373.000000, 142.000000)"/>
                </g>
            </g>
        </g>
    </g>
</svg>
