<svg xmlns="http://www.w3.org/2000/svg" width="125" height="119" viewBox="0 0 125 119">
    <g fill="none" fill-rule="evenodd" opacity=".04">
        <g fill="#FFF" fill-rule="nonzero">
            <g>
                <g>
                    <path d="M62.517 0C45.59 0 31.785 13.667 31.51 30.57l-.004.514v4.285l-1.467.406c-3.19.883-6.366 2.105-9.391 3.574l-.86.426-.427.218-.847.445c-.28.15-.56.303-.837.458l-.826.47c-.274.158-.546.318-.815.48l-.803.49-.397.25-.784.507-.77.516-.756.525c-.25.176-.496.354-.74.533l-.725.542C4.49 50.209 0 56.164 0 61.393c0 .736.266 1.45.748 2.005 3.757 4.325 11.419 8.754 20.95 12.026 3.506 1.204 7.25 2.246 11.195 3.118l1.081.234 2.414.51-10.392 23.48-.878.267c-2.325.705-3.948 2.863-3.948 5.339 0 3.081 2.49 5.577 5.56 5.577 3.07 0 5.561-2.496 5.561-5.577 0-.67-.118-1.324-.346-1.94l-.105-.262-.342-.8 11.101-25.085 1.479.189c3.76.479 7.604.81 11.502.988l1.464.06 1.929.068v27.08l-.665.596c-1.174 1.053-1.856 2.547-1.856 4.157 0 3.081 2.49 5.577 5.56 5.577 3.071 0 5.561-2.496 5.561-5.577 0-1.515-.603-2.928-1.653-3.967l-.203-.19-.664-.597V81.61l1.942-.056c3.54-.102 7.009-.324 10.4-.666l1.448-.154 1.36-.151 13.14 25.124-.287.818c-.207.592-.314 1.213-.314 1.848 0 3.08 2.491 5.577 5.56 5.577 3.071 0 5.561-2.496 5.561-5.577 0-2.534-1.699-4.722-4.085-5.377l-.226-.057-.897-.207-12.064-23.065 2.63-.515c1.84-.359 3.637-.754 5.389-1.184 1.631-.401 2.63-2.054 2.23-3.693-.4-1.636-2.046-2.636-3.676-2.235-9.388 2.307-19.704 3.475-30.666 3.477-15.361-.002-28.336-2.262-38.833-5.866-6.937-2.382-12.524-5.293-16.084-8.15l-.327-.267-1.178-.979.637-1.392c1.297-2.835 4.494-6.263 9.015-9.474 5.385-3.825 12.04-6.908 17.545-8.136l.546-.117.504-.102.49.152c9.2 2.865 18.507 4.316 27.686 4.316 8.852 0 17.82-1.349 26.696-4.013l.986-.302.493-.153.506.104c5.532 1.14 12.442 4.362 18.075 8.417 4.37 3.144 7.403 6.346 8.818 9.023l.136.266.704 1.42-1.223 1.01c-.915.754-2 1.535-3.268 2.333-1.423.898-1.852 2.784-.956 4.211.894 1.426 2.769 1.854 4.19.959 2.833-1.787 5.053-3.603 6.595-5.378.483-.557.749-1.269.749-2.006 0-5.626-4.96-11.587-12.2-16.797-5.386-3.876-11.544-6.955-17.199-8.631l-.626-.18-1.469-.412.022-4.288C93.528 13.944 79.614 0 62.517 0zm-.504 58.34c-1.678 0-3.04 1.366-3.04 3.053 0 1.686 1.362 3.051 3.04 3.051s3.04-1.365 3.04-3.051c0-1.687-1.362-3.052-3.04-3.052zm17.893-1.514c-1.678 0-3.04 1.365-3.04 3.05 0 1.688 1.362 3.053 3.04 3.053s3.04-1.365 3.04-3.052c0-1.686-1.362-3.051-3.04-3.051zm-35.787 0c-1.678 0-3.04 1.365-3.04 3.05 0 1.688 1.362 3.053 3.04 3.053 1.679 0 3.041-1.365 3.041-3.052 0-1.686-1.362-3.051-3.04-3.051zm-17.137-3.032c-1.678 0-3.04 1.366-3.04 3.052 0 1.687 1.362 3.052 3.04 3.052s3.04-1.366 3.04-3.052-1.362-3.052-3.04-3.052zm70.061 0c-1.678 0-3.04 1.366-3.04 3.052s1.362 3.052 3.04 3.052c1.679 0 3.041-1.365 3.041-3.052 0-1.686-1.362-3.052-3.04-3.052zM62.517 6.104c13.607 0 24.705 10.977 24.926 24.552l.003.412-.022 4.597-1.45.41c-7.817 2.206-15.697 3.322-23.474 3.322-7.445 0-14.987-1.024-22.479-3.048l-.977-.27-1.457-.41v-4.585c0-13.775 11.18-24.98 24.93-24.98z" transform="translate(-1090.000000, -547.000000) translate(186.000000, 62.000000) translate(546.000000, 352.000000) translate(358.000000, 133.000000)"/>
                </g>
            </g>
        </g>
    </g>
</svg>
