<svg xmlns="http://www.w3.org/2000/svg" width="63" height="58" viewBox="0 0 63 58">
    <g fill="none" fill-rule="evenodd">
        <g fill="#9799AC" fill-rule="nonzero">
            <g>
                <path d="M31.511 0c4.417 0 8.366 2.291 10.537 6.115l19.315 33.45c2.192 3.793 2.18 8.35-.025 12.158-2.217 3.83-6.177 6.126-10.574 6.126h-38.58c-4.376 0-8.314-2.265-10.51-6.036-2.218-3.805-2.233-8.385-.04-12.224L20.972 6.11C23.153 2.293 27.106 0 31.511 0zm0 3c-3.329 0-6.288 1.717-7.939 4.603L4.236 41.083c-1.66 2.904-1.648 6.341.03 9.22 1.66 2.85 4.61 4.546 7.918 4.546h38.58c3.324 0 6.296-1.723 7.978-4.63 1.669-2.88 1.677-6.291.023-9.154l-19.32-33.46C37.802 4.714 34.85 3 31.51 3zM31.5 40.044c1.69 0 3.083 1.393 3.01 3.157.073 1.603-1.394 3.01-3.01 3.01-1.678 0-3.084-1.407-3.084-3.084s1.406-3.083 3.084-3.083zm-.765-21.647c1.468-.345 2.936.358 3.565 1.74.21.493.283.986.283 1.541-.074 1.542-.21 3.084-.283 4.626-.136 2.38-.284 4.76-.42 7.14-.074.778-.074 1.48-.074 2.246-.061 1.27-1.048 2.244-2.306 2.244s-2.233-.912-2.307-2.17c-.21-3.713-.419-7.351-.629-11.064l-.21-2.935c0-1.616.913-2.948 2.381-3.368z" transform="translate(-1025 -304) translate(1025 304)"/>
            </g>
        </g>
    </g>
</svg>
