<svg width="435" height="187" xmlns="http://www.w3.org/2000/svg" xmlns:xlink="http://www.w3.org/1999/xlink">
    <defs>
        <path id="a" d="m265.885 52.36 6.024 3.33.39.216-.387.22-5.975 3.419-.248-.434 5.148-2.946-5.042.038-63.045.456v69.503H75v-.5h127.25V56.164l.248-.002 63.294-.46 5.04-.036-5.19-2.87z"/>
    </defs>
    <g fill="none" fill-rule="evenodd">
        <g fill="#5F6368" fill-rule="nonzero">
            <path d="M288.956 55.912c.093 0 .154-.047.182-.14l2.982-9.464c.019-.056.014-.103-.014-.14-.028-.037-.07-.056-.126-.056h-1.358c-.103 0-.168.047-.196.14l-2.086 7.308c-.01.028-.023.042-.042.042-.019 0-.033-.014-.042-.042l-2.1-7.308c-.028-.093-.093-.14-.196-.14h-1.386c-.103 0-.154.047-.154.14l.014.056 2.94 9.464c.028.093.089.14.182.14h1.4zm6.256.112c.868 0 1.53-.252 1.988-.756.019-.019.037-.026.056-.021.019.005.028.021.028.049v.448c0 .047.016.086.049.119a.162.162 0 0 0 .119.049h1.288a.162.162 0 0 0 .119-.049.162.162 0 0 0 .049-.119v-4.718c0-.457-.121-.866-.364-1.225-.243-.36-.588-.642-1.036-.847-.448-.205-.966-.308-1.554-.308-.812 0-1.486.182-2.023.546-.537.364-.842.83-.917 1.4-.01.037.002.068.035.091.033.023.072.04.119.049l1.358.168c.103.019.168-.028.196-.14a.822.822 0 0 1 .413-.525c.22-.126.506-.189.861-.189.43 0 .751.1.966.301.215.2.322.483.322.847v.336c0 .047-.023.07-.07.07h-1.498c-.924 0-1.64.203-2.149.609-.509.406-.763.973-.763 1.701 0 .7.226 1.227.679 1.582.453.355 1.029.532 1.729.532zm.406-1.288c-.345 0-.628-.082-.847-.245-.22-.163-.329-.394-.329-.693 0-.345.142-.611.427-.798.285-.187.674-.28 1.169-.28h1.176c.047 0 .07.023.07.07v.658c0 .373-.163.681-.49.924-.327.243-.719.364-1.176.364zm6.97 1.176a.162.162 0 0 0 .119-.049.162.162 0 0 0 .049-.119V46.28a.162.162 0 0 0-.049-.119.162.162 0 0 0-.119-.049H301.3a.162.162 0 0 0-.119.049.162.162 0 0 0-.049.119v9.464c0 .047.016.086.049.119a.162.162 0 0 0 .119.049h1.288zm4.912.098c.765 0 1.34-.247 1.722-.742.019-.028.037-.037.056-.028.019.01.028.028.028.056v.448c0 .047.016.086.049.119a.162.162 0 0 0 .119.049h1.274a.162.162 0 0 0 .119-.049.162.162 0 0 0 .049-.119v-6.818a.162.162 0 0 0-.049-.119.162.162 0 0 0-.119-.049h-1.274a.162.162 0 0 0-.119.049.162.162 0 0 0-.049.119v4.256c0 .439-.126.789-.378 1.05s-.588.392-1.008.392c-.41 0-.73-.13-.959-.392-.229-.261-.343-.611-.343-1.05v-4.256a.162.162 0 0 0-.049-.119.162.162 0 0 0-.119-.049h-1.288a.162.162 0 0 0-.119.049.162.162 0 0 0-.049.119v4.718c0 .756.24 1.34.721 1.75.48.41 1.076.616 1.785.616zm8.874.028c.588 0 1.122-.112 1.603-.336a2.86 2.86 0 0 0 1.155-.952c.056-.084.042-.159-.042-.224l-.868-.714a.134.134 0 0 0-.098-.042c-.056 0-.103.028-.14.084-.373.523-.877.784-1.512.784-.868-.01-1.414-.35-1.638-1.022-.056-.112-.098-.322-.126-.63 0-.047.023-.07.07-.07h4.382c.112 0 .168-.056.168-.168l.014-.434c0-.29-.019-.55-.056-.784-.233-1.923-1.27-2.884-3.108-2.884-.728 0-1.351.189-1.869.567-.518.378-.87.894-1.057 1.547-.112.336-.168.775-.168 1.316 0 .896.107 1.596.322 2.1a2.82 2.82 0 0 0 1.113 1.372c.509.327 1.127.49 1.855.49zm1.246-4.326h-2.842c-.056 0-.075-.023-.056-.07a2.43 2.43 0 0 1 .112-.616c.093-.308.254-.548.483-.721.229-.173.516-.259.861-.259.373 0 .684.093.931.28.247.187.413.448.497.784.037.121.065.299.084.532 0 .047-.023.07-.07.07zM432.179 66.974l-.485.875a3.482 3.482 0 0 0-1.694-.437v-1c.772 0 1.518.195 2.179.562zm2.321 5.815h-1l-.002-1.993 1-.033.002.14v1.886zm0 6h-1v-2h1v2zm0 6h-1v-2h1v2zm0 6h-1v-2h1v2zm-1.132 6.107-.748-.663c.393-.443.668-.978.797-1.558l.976.217a4.488 4.488 0 0 1-1.025 2.004zm-6.122 1.516v-1h2v1h-2zm-6 0v-1h2v1h-2zm-6 0v-1h2v1h-2zm-6 0v-1h2v1h-2zm-6 0v-1h2v1h-2zm-6 0v-1h2v1h-2zm-6 0v-1h2v1h-2zm-6 0v-1h2v1h-2zm-6 0v-1h2v1h-2zm-6 0v-1h2v1h-2zm-6 0v-1h2v1h-2zm-6 0v-1h2v1h-2zm-6 0v-1h2v1h-2zm-6 0v-1h2v1h-2zm-6 0v-1h2v1h-2zm-6 0v-1h2v1h-2zm-6 0v-1h2v1h-2zm-6 0v-1h2v1h-2zm-6 0v-1h2v1h-2zm-6 0v-1h2v1h-2zm-6 0v-1h2v1h-2zm-6 0v-1h2v1h-2zm-6 0v-1h2v1h-2zm-6 0v-1h2v1h-2zm-5.454-2.904.934-.354c.21.553.56 1.045 1.011 1.428l-.646.763a4.508 4.508 0 0 1-1.3-1.837zm-.292-6.227h1v2h-1v-2zm0-6h1v2h-1v-2zm0-6h1v2h-1v-2zm0-6h1v2h-1v-2zm3.948-4.835.121.992a3.478 3.478 0 0 0-1.627.642l-.588-.808a4.478 4.478 0 0 1 2.094-.826zm6.06-.034v1h-2v-1h2zm6 0v1h-2v-1h2zm6 0v1h-2v-1h2zm6 0v1h-2v-1h2zm6 0v1h-2v-1h2zm6 0v1h-2v-1h2zm6 0v1h-2v-1h2zm6 0v1h-2v-1h2zm6 0v1h-2v-1h2zm6 0v1h-2v-1h2zm6 0v1h-2v-1h2zm6 0v1h-2v-1h2zm6 0v1h-2v-1h2zm6 0v1h-2v-1h2zm6 0v1h-2v-1h2zm6 0v1h-2v-1h2zm6 0v1h-2v-1h2zm6 0v1h-2v-1h2zm6 0v1h-2v-1h2zm6 0v1h-2v-1h2zm6 0v1h-2v-1h2zm6 0v1h-2v-1h2zm6 0v1h-2v-1h2zm4.492 0v1h-.492v-1H430zM299.684 87.008c.856 0 1.538-.24 2.046-.72.508-.48.762-1.148.762-2.004v-1.548c0-.08-.04-.12-.12-.12h-2.544c-.08 0-.12.04-.12.12v.504c0 .08.04.12.12.12h1.764c.032 0 .048.016.048.048V84.5c0 .536-.174.964-.522 1.284-.348.32-.814.48-1.398.48-.6 0-1.084-.172-1.452-.516-.368-.344-.552-.796-.552-1.356v-3.36c0-.56.18-1.012.54-1.356.36-.344.836-.516 1.428-.516s1.066.168 1.422.504c.356.336.534.772.534 1.308v.144c0 .08.04.12.12.12h.612c.08 0 .12-.04.12-.12v-.156a2.51 2.51 0 0 0-.348-1.314 2.364 2.364 0 0 0-.99-.906c-.428-.216-.918-.324-1.47-.324-.56 0-1.052.11-1.476.33-.424.22-.754.53-.99.93s-.354.86-.354 1.38v3.312c0 .52.118.98.354 1.38.236.4.566.71.99.93.424.22.916.33 1.476.33zm5.535-.096c.08 0 .12-.04.12-.12v-3.54c0-.448.136-.818.408-1.11a1.43 1.43 0 0 1 1.032-.462l.156-.012c.176 0 .332.028.468.084.08.032.132.008.156-.072l.132-.588c.016-.072-.008-.124-.072-.156a1.416 1.416 0 0 0-.684-.156c-.344 0-.646.082-.906.246a1.91 1.91 0 0 0-.642.69c-.008.016-.018.022-.03.018s-.018-.018-.018-.042v-.732c0-.08-.04-.12-.12-.12h-.612c-.08 0-.12.04-.12.12v5.832c0 .08.04.12.12.12h.612zm6.064.096c.576 0 1.07-.148 1.482-.444.412-.296.694-.704.846-1.224.112-.336.168-.828.168-1.476 0-.64-.056-1.132-.168-1.476a2.224 2.224 0 0 0-.846-1.2c-.412-.296-.902-.444-1.47-.444-.592 0-1.096.148-1.512.444-.416.296-.7.7-.852 1.212-.112.36-.168.848-.168 1.464s.056 1.108.168 1.476c.16.52.448.928.864 1.224.416.296.912.444 1.488.444zm0-.744c-.4 0-.738-.106-1.014-.318a1.492 1.492 0 0 1-.546-.858c-.064-.28-.096-.684-.096-1.212 0-.528.032-.932.096-1.212.096-.36.28-.646.552-.858.272-.212.604-.318.996-.318s.726.106 1.002.318c.276.212.462.498.558.858.064.28.096.684.096 1.212 0 .52-.036.924-.108 1.212-.096.36-.28.646-.552.858-.272.212-.6.318-.984.318zm6.411.732c.728 0 1.26-.248 1.596-.744.008-.016.02-.02.036-.012.016.008.024.02.024.036v.516c0 .08.04.12.12.12h.612c.08 0 .12-.04.12-.12V80.96c0-.08-.04-.12-.12-.12h-.612c-.08 0-.12.04-.12.12v3.804c0 .448-.134.808-.402 1.08s-.63.408-1.086.408c-.44 0-.788-.134-1.044-.402s-.384-.63-.384-1.086V80.96c0-.08-.04-.12-.12-.12h-.612c-.08 0-.12.04-.12.12v4.056c0 .416.094.772.282 1.068.188.296.444.522.768.678.324.156.678.234 1.062.234zm5.404 2.244c.08 0 .12-.04.12-.12V86.3c0-.016.006-.026.018-.03.012-.004.026.002.042.018.176.232.396.41.66.534.264.124.552.186.864.186.576 0 1.054-.146 1.434-.438.38-.292.642-.694.786-1.206.104-.352.156-.848.156-1.488 0-.632-.06-1.14-.18-1.524a2.196 2.196 0 0 0-.786-1.176c-.38-.288-.85-.432-1.41-.432-.32 0-.61.064-.87.192s-.478.308-.654.54c-.016.016-.03.022-.042.018-.012-.004-.018-.014-.018-.03v-.504c0-.08-.04-.12-.12-.12h-.612c-.08 0-.12.04-.12.12v8.16c0 .08.04.12.12.12h.612zm1.608-2.976c-.304 0-.566-.082-.786-.246a1.358 1.358 0 0 1-.474-.654 2.028 2.028 0 0 1-.168-.582 6.64 6.64 0 0 1-.048-.906c0-.384.016-.684.048-.9.032-.216.084-.404.156-.564.104-.28.264-.504.48-.672.216-.168.484-.252.804-.252.336 0 .626.084.87.252.244.168.414.396.51.684.08.168.136.358.168.57.032.212.048.506.048.882 0 .392-.022.698-.066.918-.044.22-.11.418-.198.594a1.35 1.35 0 0 1-.51.636 1.45 1.45 0 0 1-.834.24zm10.135.648c.752 0 1.358-.2 1.818-.6.46-.4.69-.96.69-1.68 0-.488-.112-.904-.336-1.248-.224-.344-.552-.604-.984-.78-.04-.024-.04-.048 0-.072.392-.16.694-.394.906-.702.212-.308.318-.682.318-1.122 0-.696-.222-1.236-.666-1.62-.444-.384-1.054-.576-1.83-.576h-2.82c-.08 0-.12.04-.12.12v8.16c0 .08.04.12.12.12h2.904zm-.084-4.68h-2.04c-.032 0-.048-.016-.048-.048v-2.88c0-.032.016-.048.048-.048h2.04c.504 0 .906.138 1.206.414.3.276.45.646.45 1.11 0 .44-.15.792-.45 1.056-.3.264-.702.396-1.206.396zm.084 3.924h-2.124c-.032 0-.048-.016-.048-.048V83c0-.032.016-.048.048-.048h2.076c.52 0 .934.146 1.242.438.308.292.462.682.462 1.17 0 .488-.15.876-.45 1.164-.3.288-.702.432-1.206.432zm4.227 3.156c.456 0 .81-.05 1.062-.15.252-.1.462-.278.63-.534.168-.256.348-.652.54-1.188l2.22-6.468c.024-.088-.008-.132-.096-.132h-.624c-.072 0-.12.032-.144.096l-1.536 4.848c-.008.016-.02.024-.036.024-.016 0-.028-.008-.036-.024l-1.56-4.848c-.024-.064-.072-.096-.144-.096h-.636c-.072 0-.108.028-.108.084l.012.048 2.028 5.904c.016.016.016.04 0 .072-.144.464-.278.81-.402 1.038-.124.228-.272.384-.444.468-.172.084-.414.13-.726.138h-.048c-.08 0-.12.04-.12.12v.48c0 .08.028.12.084.12h.084zm11.119-2.304c.944 0 1.692-.218 2.244-.654.552-.436.828-1.03.828-1.782 0-.504-.13-.914-.39-1.23a2.666 2.666 0 0 0-.876-.714c-.324-.16-.77-.344-1.338-.552-.512-.184-.89-.33-1.134-.438-.244-.108-.428-.23-.552-.366a.72.72 0 0 1-.186-.504c0-.28.106-.5.318-.66.212-.16.506-.24.882-.24.48 0 .858.118 1.134.354.276.236.414.522.414.858v.096c0 .04.014.074.042.102a.139.139 0 0 0 .102.042h1.38c.04 0 .074-.014.102-.042a.139.139 0 0 0 .042-.102v-.18c0-.512-.134-.962-.402-1.35a2.65 2.65 0 0 0-1.116-.906c-.476-.216-1.018-.324-1.626-.324-.576 0-1.084.096-1.524.288-.44.192-.784.468-1.032.828-.248.36-.372.78-.372 1.26 0 .488.126.898.378 1.23.252.332.564.594.936.786.372.192.826.38 1.362.564.48.176.83.314 1.05.414.22.1.394.216.522.348a.671.671 0 0 1 .192.486.847.847 0 0 1-.312.666c-.208.18-.524.27-.948.27-.504 0-.904-.11-1.2-.33-.296-.22-.444-.49-.444-.81v-.18a.139.139 0 0 0-.042-.102.139.139 0 0 0-.102-.042h-1.368a.139.139 0 0 0-.102.042.139.139 0 0 0-.042.102v.264c0 .504.13.946.39 1.326.26.38.63.672 1.11.876.48.204 1.04.306 1.68.306zm6.015 0c.744 0 1.284-.22 1.62-.66.016-.024.032-.032.048-.024s.024.024.024.048v.396c0 .04.014.074.042.102a.139.139 0 0 0 .102.042h1.404c.04 0 .074-.014.102-.042a.139.139 0 0 0 .042-.102V82.7c0-.384-.114-.732-.342-1.044-.228-.312-.546-.558-.954-.738a3.416 3.416 0 0 0-1.392-.27c-.48 0-.914.076-1.302.228-.388.152-.7.364-.936.636-.236.272-.37.576-.402.912-.008.056.036.092.132.108l1.452.192c.08.008.132-.032.156-.12a.616.616 0 0 1 .318-.372c.164-.088.37-.132.618-.132.32 0 .56.074.72.222.16.148.24.354.24.618v.264c0 .04-.02.06-.06.06h-1.224c-.8 0-1.416.17-1.848.51-.432.34-.648.818-.648 1.434 0 .592.192 1.04.576 1.344.384.304.888.456 1.512.456zm.456-1.26c-.256 0-.46-.062-.612-.186a.623.623 0 0 1-.228-.51c0-.248.102-.44.306-.576.204-.136.486-.204.846-.204h.864c.04 0 .06.02.06.06v.432c0 .288-.12.524-.36.708-.24.184-.532.276-.876.276zm5.836 1.164c.04 0 .074-.014.102-.042a.139.139 0 0 0 .042-.102v-8.112a.139.139 0 0 0-.042-.102.139.139 0 0 0-.102-.042h-1.404a.139.139 0 0 0-.102.042.139.139 0 0 0-.042.102v8.112c0 .04.014.074.042.102a.139.139 0 0 0 .102.042h1.404zm4.443.096c.496 0 .952-.09 1.368-.27.416-.18.756-.434 1.02-.762.032-.048.048-.08.048-.096 0-.032-.02-.068-.06-.108l-.864-.852c-.032-.032-.06-.048-.084-.048-.04 0-.076.024-.108.072-.296.408-.7.616-1.212.624-.64 0-1.064-.224-1.272-.672a2.149 2.149 0 0 1-.132-.48c-.016-.04 0-.06.048-.06h3.708c.096 0 .148-.048.156-.144.016-.376 0-.716-.048-1.02-.104-.776-.398-1.396-.882-1.86-.484-.464-1.126-.696-1.926-.696-.632 0-1.178.168-1.638.504-.46.336-.782.788-.966 1.356-.12.336-.18.724-.18 1.164 0 .648.084 1.172.252 1.572.208.56.55.996 1.026 1.308.476.312 1.058.468 1.746.468zm.828-3.756h-2.076c-.04 0-.06-.02-.06-.06.024-.152.052-.28.084-.384.16-.472.492-.708.996-.708.264 0 .486.066.666.198.18.132.306.318.378.558 0-.008.02.104.06.336.016.04 0 .06-.048.06zm8.635 3.756c.616 0 1.158-.116 1.626-.348.468-.232.832-.56 1.092-.984.26-.424.39-.912.39-1.464a.108.108 0 0 0-.042-.084.151.151 0 0 0-.102-.036l-1.404-.06c-.096 0-.144.044-.144.132 0 .416-.13.752-.39 1.008s-.602.384-1.026.384c-.432 0-.778-.128-1.038-.384s-.39-.592-.39-1.008v-2.892c0-.424.13-.764.39-1.02s.606-.384 1.038-.384c.424 0 .766.128 1.026.384s.39.596.39 1.02c0 .088.04.132.12.132h.024l1.404-.084c.096-.016.144-.06.144-.132 0-.552-.13-1.038-.39-1.458a2.581 2.581 0 0 0-1.092-.972c-.468-.228-1.01-.342-1.626-.342-.624 0-1.172.12-1.644.36a2.59 2.59 0 0 0-1.092 1.02c-.256.44-.384.948-.384 1.524v2.772c0 .576.128 1.084.384 1.524.256.44.62.782 1.092 1.026.472.244 1.02.366 1.644.366zm5.955-.096c.04 0 .074-.014.102-.042a.139.139 0 0 0 .042-.102V83.18c0-.32.09-.58.27-.78.18-.2.418-.3.714-.3s.534.1.714.3c.18.2.27.46.27.78v3.588c0 .04.014.074.042.102a.139.139 0 0 0 .102.042h1.404c.04 0 .074-.014.102-.042a.139.139 0 0 0 .042-.102v-3.936c0-.672-.196-1.204-.588-1.596-.392-.392-.908-.588-1.548-.588-.648 0-1.136.232-1.464.696-.008.016-.02.02-.036.012-.016-.008-.024-.024-.024-.048v-2.652a.139.139 0 0 0-.042-.102.139.139 0 0 0-.102-.042h-1.404a.139.139 0 0 0-.102.042.139.139 0 0 0-.042.102v8.112c0 .04.014.074.042.102a.139.139 0 0 0 .102.042h1.404zm6.952.096c.744 0 1.284-.22 1.62-.66.016-.024.032-.032.048-.024s.024.024.024.048v.396c0 .04.014.074.042.102a.139.139 0 0 0 .102.042h1.404c.04 0 .074-.014.102-.042a.139.139 0 0 0 .042-.102V82.7c0-.384-.114-.732-.342-1.044-.228-.312-.546-.558-.954-.738a3.416 3.416 0 0 0-1.392-.27c-.48 0-.914.076-1.302.228-.388.152-.7.364-.936.636-.236.272-.37.576-.402.912-.008.056.036.092.132.108l1.452.192c.08.008.132-.032.156-.12a.616.616 0 0 1 .318-.372c.164-.088.37-.132.618-.132.32 0 .56.074.72.222.16.148.24.354.24.618v.264c0 .04-.02.06-.06.06h-1.224c-.8 0-1.416.17-1.848.51-.432.34-.648.818-.648 1.434 0 .592.192 1.04.576 1.344.384.304.888.456 1.512.456zm.456-1.26c-.256 0-.46-.062-.612-.186a.623.623 0 0 1-.228-.51c0-.248.102-.44.306-.576.204-.136.486-.204.846-.204h.864c.04 0 .06.02.06.06v.432c0 .288-.12.524-.36.708-.24.184-.532.276-.876.276zm5.835 1.164c.04 0 .074-.014.102-.042a.139.139 0 0 0 .042-.102V83.18c0-.32.09-.58.27-.78.18-.2.418-.3.714-.3s.534.1.714.3c.18.2.27.46.27.78v3.588c0 .04.014.074.042.102a.139.139 0 0 0 .102.042h1.404c.04 0 .074-.014.102-.042a.139.139 0 0 0 .042-.102v-3.936c0-.672-.196-1.204-.588-1.596-.392-.392-.908-.588-1.548-.588-.648 0-1.136.232-1.464.696-.008.016-.02.02-.036.012-.016-.008-.024-.024-.024-.048v-.42a.139.139 0 0 0-.042-.102.139.139 0 0 0-.102-.042h-1.404a.139.139 0 0 0-.102.042.139.139 0 0 0-.042.102v5.88c0 .04.014.074.042.102a.139.139 0 0 0 .102.042h1.404zm6.736 0c.04 0 .074-.014.102-.042a.139.139 0 0 0 .042-.102V83.18c0-.32.09-.58.27-.78.18-.2.418-.3.714-.3s.534.1.714.3c.18.2.27.46.27.78v3.588c0 .04.014.074.042.102a.139.139 0 0 0 .102.042h1.404c.04 0 .074-.014.102-.042a.139.139 0 0 0 .042-.102v-3.936c0-.672-.196-1.204-.588-1.596-.392-.392-.908-.588-1.548-.588-.648 0-1.136.232-1.464.696-.008.016-.02.02-.036.012-.016-.008-.024-.024-.024-.048v-.42a.139.139 0 0 0-.042-.102.139.139 0 0 0-.102-.042h-1.404a.139.139 0 0 0-.102.042.139.139 0 0 0-.042.102v5.88c0 .04.014.074.042.102a.139.139 0 0 0 .102.042h1.404zm8.043.096c.496 0 .952-.09 1.368-.27.416-.18.756-.434 1.02-.762.032-.048.048-.08.048-.096 0-.032-.02-.068-.06-.108l-.864-.852c-.032-.032-.06-.048-.084-.048-.04 0-.076.024-.108.072-.296.408-.7.616-1.212.624-.64 0-1.064-.224-1.272-.672a2.149 2.149 0 0 1-.132-.48c-.016-.04 0-.06.048-.06h3.708c.096 0 .148-.048.156-.144.016-.376 0-.716-.048-1.02-.104-.776-.398-1.396-.882-1.86-.484-.464-1.126-.696-1.926-.696-.632 0-1.178.168-1.638.504-.46.336-.782.788-.966 1.356-.12.336-.18.724-.18 1.164 0 .648.084 1.172.252 1.572.208.56.55.996 1.026 1.308.476.312 1.058.468 1.746.468zm.828-3.756h-2.076c-.04 0-.06-.02-.06-.06.024-.152.052-.28.084-.384.16-.472.492-.708.996-.708.264 0 .486.066.666.198.18.132.306.318.378.558 0-.008.02.104.06.336.016.04 0 .06-.048.06zm4.552 3.66c.04 0 .074-.014.102-.042a.139.139 0 0 0 .042-.102v-8.112a.139.139 0 0 0-.042-.102.139.139 0 0 0-.102-.042h-1.404a.139.139 0 0 0-.102.042.139.139 0 0 0-.042.102v8.112c0 .04.014.074.042.102a.139.139 0 0 0 .102.042h1.404z"/>
            <path d="M321.765 87.812v-.6H296v.6h25.765zm2.052-.6v.6h15.906v-.6h-15.906zm20.206.6v-.6h-2.045v.6h2.045z"/>
        </g>
        <g fill-rule="nonzero" fill="#5F6368">
            <use xlink:href="#a"/>
            <use xlink:href="#a"/>
        </g>
        <path d="M4.186 10.024c1.073 0 1.92-.247 2.541-.742.62-.495.931-1.162.931-2.002 0-.55-.142-1.01-.427-1.379a3.057 3.057 0 0 0-1.022-.861 15.76 15.76 0 0 0-1.589-.686 15.24 15.24 0 0 1-1.386-.553c-.299-.145-.523-.306-.672-.483-.15-.177-.224-.406-.224-.686 0-.392.142-.695.427-.91.285-.215.684-.322 1.197-.322.635 0 1.132.152 1.491.455.36.303.539.674.539 1.113v.154c0 .047.016.086.049.119a.162.162 0 0 0 .119.049h1.26a.162.162 0 0 0 .119-.049.162.162 0 0 0 .049-.119v-.238c0-.57-.15-1.071-.448-1.505C6.841.945 6.424.607 5.887.364 5.35.121 4.732 0 4.032 0c-.999 0-1.797.238-2.394.714C1.041 1.19.742 1.839.742 2.66c0 .55.138 1.01.413 1.379.275.369.618.66 1.029.875.41.215.947.443 1.61.686.588.224 1.029.41 1.323.56.294.15.52.315.679.497a.977.977 0 0 1 .238.665c0 .383-.145.695-.434.938-.29.243-.719.364-1.288.364-.663 0-1.185-.142-1.568-.427-.383-.285-.574-.642-.574-1.071V6.86a.162.162 0 0 0-.049-.119.162.162 0 0 0-.119-.049H.756a.162.162 0 0 0-.119.049.162.162 0 0 0-.049.119v.35c0 .57.147 1.064.441 1.484.294.42.712.747 1.253.98.541.233 1.176.35 1.904.35zm7.474 0c.868 0 1.53-.252 1.988-.756.019-.019.037-.026.056-.021.019.005.028.021.028.049v.448c0 .047.016.086.049.119a.162.162 0 0 0 .119.049h1.288a.162.162 0 0 0 .119-.049.162.162 0 0 0 .049-.119V5.026c0-.457-.121-.866-.364-1.225-.243-.36-.588-.642-1.036-.847-.448-.205-.966-.308-1.554-.308-.812 0-1.486.182-2.023.546-.537.364-.842.83-.917 1.4-.01.037.002.068.035.091.033.023.072.04.119.049l1.358.168c.103.019.168-.028.196-.14a.822.822 0 0 1 .413-.525c.22-.126.506-.189.861-.189.43 0 .751.1.966.301.215.2.322.483.322.847v.336c0 .047-.023.07-.07.07h-1.498c-.924 0-1.64.203-2.149.609-.509.406-.763.973-.763 1.701 0 .7.226 1.227.679 1.582.453.355 1.029.532 1.729.532zm.406-1.288c-.345 0-.628-.082-.847-.245-.22-.163-.329-.394-.329-.693 0-.345.142-.611.427-.798.285-.187.674-.28 1.169-.28h1.176c.047 0 .07.023.07.07v.658c0 .373-.163.681-.49.924-.327.243-.719.364-1.176.364zm6.97 1.176a.162.162 0 0 0 .119-.049.162.162 0 0 0 .049-.119V.28a.162.162 0 0 0-.049-.119.162.162 0 0 0-.119-.049h-1.288a.162.162 0 0 0-.119.049.162.162 0 0 0-.049.119v9.464c0 .047.016.086.049.119a.162.162 0 0 0 .119.049h1.288zm5.612.126c.588 0 1.122-.112 1.603-.336a2.86 2.86 0 0 0 1.155-.952c.056-.084.042-.159-.042-.224l-.868-.714a.134.134 0 0 0-.098-.042c-.056 0-.103.028-.14.084-.373.523-.877.784-1.512.784-.868-.01-1.414-.35-1.638-1.022-.056-.112-.098-.322-.126-.63 0-.047.023-.07.07-.07h4.382c.112 0 .168-.056.168-.168l.014-.434c0-.29-.019-.55-.056-.784-.233-1.923-1.27-2.884-3.108-2.884-.728 0-1.351.189-1.869.567-.518.378-.87.894-1.057 1.547-.112.336-.168.775-.168 1.316 0 .896.107 1.596.322 2.1a2.82 2.82 0 0 0 1.113 1.372c.509.327 1.127.49 1.855.49zm1.246-4.326h-2.842c-.056 0-.075-.023-.056-.07a2.43 2.43 0 0 1 .112-.616c.093-.308.254-.548.483-.721.229-.173.516-.259.861-.259.373 0 .684.093.931.28.247.187.413.448.497.784.037.121.065.299.084.532 0 .047-.023.07-.07.07zm10.188 4.312c.728 0 1.363-.175 1.904-.525.541-.35.9-.824 1.078-1.421.019-.065.042-.173.07-.322.01-.056-.002-.1-.035-.133a.227.227 0 0 0-.119-.063l-1.26-.196c-.103-.019-.168.028-.196.14 0 .019-.005.033-.014.042a.156.156 0 0 1-.014.07c-.075.308-.24.553-.497.735a1.544 1.544 0 0 1-.917.273c-.364 0-.667-.096-.91-.287a1.474 1.474 0 0 1-.504-.777c-.084-.317-.126-.733-.126-1.246 0-.532.047-.947.14-1.246.084-.317.25-.567.497-.749.247-.182.548-.273.903-.273.345 0 .644.084.896.252.252.168.42.383.504.644.019.056.037.121.056.196.01.028.014.065.014.112.028.093.084.14.168.14h.028l1.26-.182c.103-.019.154-.075.154-.168v-.028a2.568 2.568 0 0 0-.098-.448c-.177-.55-.537-1.008-1.078-1.372-.541-.364-1.176-.546-1.904-.546-.719 0-1.342.18-1.869.539-.527.36-.889.847-1.085 1.463-.15.43-.224.98-.224 1.652 0 .7.075 1.26.224 1.68.205.625.57 1.122 1.092 1.491.523.369 1.143.553 1.862.553zm6.508-.112a.162.162 0 0 0 .119-.049.162.162 0 0 0 .049-.119v-4.27c0-.43.124-.775.371-1.036s.572-.392.973-.392.723.133.966.399.364.614.364 1.043v4.256c0 .047.016.086.049.119a.162.162 0 0 0 .119.049h1.288a.162.162 0 0 0 .119-.049.162.162 0 0 0 .049-.119V5.152c0-.775-.226-1.386-.679-1.834-.453-.448-1.057-.672-1.813-.672-.775 0-1.353.252-1.736.756-.01.028-.023.037-.042.028-.019-.01-.028-.028-.028-.056V.28a.162.162 0 0 0-.049-.119.162.162 0 0 0-.119-.049h-1.288a.162.162 0 0 0-.119.049.162.162 0 0 0-.049.119v9.464c0 .047.016.086.049.119a.162.162 0 0 0 .119.049h1.288zm8.748.112c.868 0 1.53-.252 1.988-.756.019-.019.037-.026.056-.021.019.005.028.021.028.049v.448c0 .047.016.086.049.119a.162.162 0 0 0 .119.049h1.288a.162.162 0 0 0 .119-.049.162.162 0 0 0 .049-.119V5.026c0-.457-.121-.866-.364-1.225-.243-.36-.588-.642-1.036-.847-.448-.205-.966-.308-1.554-.308-.812 0-1.486.182-2.023.546-.537.364-.842.83-.917 1.4-.01.037.002.068.035.091.033.023.072.04.119.049l1.358.168c.103.019.168-.028.196-.14a.822.822 0 0 1 .413-.525c.22-.126.506-.189.861-.189.43 0 .751.1.966.301.215.2.322.483.322.847v.336c0 .047-.023.07-.07.07h-1.498c-.924 0-1.64.203-2.149.609-.509.406-.763.973-.763 1.701 0 .7.226 1.227.679 1.582.453.355 1.029.532 1.729.532zm.406-1.288c-.345 0-.628-.082-.847-.245-.22-.163-.329-.394-.329-.693 0-.345.142-.611.427-.798.285-.187.674-.28 1.169-.28h1.176c.047 0 .07.023.07.07v.658c0 .373-.163.681-.49.924-.327.243-.719.364-1.176.364zm6.97 1.176a.162.162 0 0 0 .119-.049.162.162 0 0 0 .049-.119v-4.27c0-.43.124-.775.371-1.036s.572-.392.973-.392.723.133.966.399.364.614.364 1.043v4.256c0 .047.016.086.049.119a.162.162 0 0 0 .119.049h1.288a.162.162 0 0 0 .119-.049.162.162 0 0 0 .049-.119V5.152c0-.775-.226-1.386-.679-1.834-.453-.448-1.057-.672-1.813-.672-.775 0-1.353.252-1.736.756-.01.028-.023.037-.042.028-.019-.01-.028-.028-.028-.056v-.448a.162.162 0 0 0-.049-.119.162.162 0 0 0-.119-.049h-1.288a.162.162 0 0 0-.119.049.162.162 0 0 0-.049.119v6.818c0 .047.016.086.049.119a.162.162 0 0 0 .119.049h1.288zm8.216 0a.162.162 0 0 0 .119-.049.162.162 0 0 0 .049-.119v-4.27c0-.43.124-.775.371-1.036s.572-.392.973-.392.723.133.966.399.364.614.364 1.043v4.256c0 .047.016.086.049.119a.162.162 0 0 0 .119.049h1.288a.162.162 0 0 0 .119-.049.162.162 0 0 0 .049-.119V5.152c0-.775-.226-1.386-.679-1.834-.453-.448-1.057-.672-1.813-.672-.775 0-1.353.252-1.736.756-.01.028-.023.037-.042.028-.019-.01-.028-.028-.028-.056v-.448a.162.162 0 0 0-.049-.119.162.162 0 0 0-.119-.049h-1.288a.162.162 0 0 0-.119.049.162.162 0 0 0-.049.119v6.818c0 .047.016.086.049.119a.162.162 0 0 0 .119.049h1.288zm9.826.126c.588 0 1.122-.112 1.603-.336a2.86 2.86 0 0 0 1.155-.952c.056-.084.042-.159-.042-.224l-.868-.714a.134.134 0 0 0-.098-.042c-.056 0-.103.028-.14.084-.373.523-.877.784-1.512.784-.868-.01-1.414-.35-1.638-1.022-.056-.112-.098-.322-.126-.63 0-.047.023-.07.07-.07h4.382c.112 0 .168-.056.168-.168l.014-.434c0-.29-.019-.55-.056-.784-.233-1.923-1.27-2.884-3.108-2.884-.728 0-1.351.189-1.869.567-.518.378-.87.894-1.057 1.547-.112.336-.168.775-.168 1.316 0 .896.107 1.596.322 2.1a2.82 2.82 0 0 0 1.113 1.372c.509.327 1.127.49 1.855.49zm1.246-4.326H75.16c-.056 0-.075-.023-.056-.07a2.43 2.43 0 0 1 .112-.616c.093-.308.254-.548.483-.721.229-.173.516-.259.861-.259.373 0 .684.093.931.28.247.187.413.448.497.784.037.121.065.299.084.532 0 .047-.023.07-.07.07zm5.262 4.2a.162.162 0 0 0 .119-.049.162.162 0 0 0 .049-.119V.28a.162.162 0 0 0-.049-.119.162.162 0 0 0-.119-.049h-1.288a.162.162 0 0 0-.119.049.162.162 0 0 0-.049.119v9.464c0 .047.016.086.049.119a.162.162 0 0 0 .119.049h1.288z" fill="#5F6368" fill-rule="nonzero"/>
        <g transform="translate(0 20.912)">
            <rect fill="#57F" fill-rule="nonzero" width="164" height="40" rx="4"/>
            <path d="M20.144 25.112c1.027 0 1.83-.233 2.408-.7.579-.467.868-1.092.868-1.876 0-.504-.128-.931-.385-1.281a3.28 3.28 0 0 0-1.008-.889 13.572 13.572 0 0 0-1.645-.784 17.988 17.988 0 0 1-1.491-.637c-.322-.163-.57-.355-.742-.574-.173-.22-.259-.497-.259-.833 0-.513.177-.905.532-1.176.355-.27.863-.406 1.526-.406.756 0 1.346.173 1.771.518.425.345.637.789.637 1.33v.252c0 .093.047.14.14.14h.7c.093 0 .14-.047.14-.14v-.308c0-.803-.299-1.447-.896-1.932-.597-.485-1.414-.728-2.45-.728-.952 0-1.701.217-2.247.651-.546.434-.819 1.043-.819 1.827 0 .504.119.922.357 1.253.238.331.55.602.938.812.387.21.931.455 1.631.735.653.27 1.16.509 1.519.714.36.205.625.425.798.658.173.233.259.513.259.84 0 .504-.187.908-.56 1.211-.373.303-.92.455-1.638.455-.793 0-1.414-.166-1.862-.497-.448-.331-.672-.768-.672-1.309v-.378c0-.093-.047-.14-.14-.14h-.686c-.093 0-.14.047-.14.14v.434c0 .793.306 1.428.917 1.904s1.444.714 2.499.714zM26.35 25c.093 0 .14-.047.14-.14v-4.452c0-.513.159-.929.476-1.246.317-.317.733-.476 1.246-.476.495 0 .898.163 1.211.49.313.327.469.747.469 1.26v4.424c0 .093.047.14.14.14h.714c.093 0 .14-.047.14-.14v-4.62c0-.737-.222-1.325-.665-1.764-.443-.439-1.038-.658-1.785-.658-.85 0-1.48.29-1.89.868-.01.019-.021.023-.035.014a.047.047 0 0 1-.021-.042V15.34c0-.093-.047-.14-.14-.14h-.714c-.093 0-.14.047-.14.14v9.52c0 .093.047.14.14.14h.714zm9.496.112c.672 0 1.248-.173 1.729-.518.48-.345.81-.821.987-1.428.13-.392.196-.966.196-1.722 0-.747-.065-1.32-.196-1.722a2.595 2.595 0 0 0-.987-1.4c-.48-.345-1.052-.518-1.715-.518-.69 0-1.279.173-1.764.518a2.583 2.583 0 0 0-.994 1.414c-.13.42-.196.99-.196 1.708 0 .719.065 1.293.196 1.722.187.607.523 1.083 1.008 1.428s1.064.518 1.736.518zm0-.868c-.467 0-.861-.124-1.183-.371a1.741 1.741 0 0 1-.637-1.001c-.075-.327-.112-.798-.112-1.414 0-.616.037-1.087.112-1.414.112-.42.327-.754.644-1.001.317-.247.705-.371 1.162-.371.457 0 .847.124 1.169.371.322.247.539.581.651 1.001.075.327.112.798.112 1.414 0 .607-.042 1.078-.126 1.414-.112.42-.327.754-.644 1.001-.317.247-.7.371-1.148.371zM42.92 25c.075 0 .126-.037.154-.112l1.484-5.236c.01-.019.021-.028.035-.028.014 0 .026.01.035.028l1.526 5.236c.028.075.08.112.154.112h.742c.075 0 .126-.037.154-.112l2.016-6.804c.01-.047.002-.084-.021-.112-.023-.028-.058-.042-.105-.042l-.728-.014c-.084 0-.135.042-.154.126l-1.526 5.502c-.01.019-.023.028-.042.028-.019 0-.033-.01-.042-.028l-1.526-5.516c-.019-.075-.07-.112-.154-.112h-.672c-.084 0-.135.042-.154.126l-1.512 5.516c-.01.019-.021.028-.035.028-.014 0-.026-.01-.035-.028l-1.484-5.516c-.019-.084-.07-.126-.154-.126h-.728c-.093 0-.14.037-.14.112l.014.042 1.988 6.818c.028.075.08.112.154.112h.756zm11.32 0c.084 0 .14-.037.168-.112l.56-1.764c.01-.028.028-.042.056-.042h4.186c.028 0 .047.014.056.042l.56 1.764c.028.075.084.112.168.112h.756c.084 0 .126-.033.126-.098l-.014-.056-3.108-9.534c-.028-.075-.084-.112-.168-.112h-.952c-.084 0-.14.037-.168.112l-3.094 9.534c-.028.103.01.154.112.154h.756zm4.676-2.73h-3.612a.067.067 0 0 1-.049-.021c-.014-.014-.016-.03-.007-.049l1.82-5.712c.01-.019.023-.028.042-.028.019 0 .033.01.042.028l1.82 5.712c.01.019.007.035-.007.049a.067.067 0 0 1-.049.021zM63.54 25c.093 0 .14-.047.14-.14v-9.52c0-.093-.047-.14-.14-.14h-.714c-.093 0-.14.047-.14.14v9.52c0 .093.047.14.14.14h.714zm3.42 0c.093 0 .14-.047.14-.14v-9.52c0-.093-.047-.14-.14-.14h-.714c-.093 0-.14.047-.14.14v9.52c0 .093.047.14.14.14h.714z" fill="#FFF" fill-rule="nonzero"/>
            <path d="M132 12h16v16h-16z"/>
            <path d="M134.646 17.646a.5.5 0 0 1 .638-.057l.07.057L140 22.293l4.646-4.647a.5.5 0 0 1 .638-.057l.07.057a.5.5 0 0 1 .057.638l-.057.07L140 23.707l-5.354-5.353a.5.5 0 0 1 0-.708z" fill="#FFF" fill-rule="nonzero"/>
        </g>
        <path d="M0 64.912h164v118a4 4 0 0 1-4 4H4a4 4 0 0 1-4-4v-118z" fill="#A0B6FF" opacity=".2"/>
        <path fill="#57F" fill-rule="nonzero" d="m146.927 81.746-.93-.834-5.781 6.455-3.355-3.189-.861.906 4.288 4.077z"/>
        <path d="M20.144 90.024c1.027 0 1.83-.233 2.408-.7.579-.467.868-1.092.868-1.876 0-.504-.128-.931-.385-1.281a3.28 3.28 0 0 0-1.008-.889 13.572 13.572 0 0 0-1.645-.784 17.988 17.988 0 0 1-1.491-.637c-.322-.163-.57-.355-.742-.574-.173-.22-.259-.497-.259-.833 0-.513.177-.905.532-1.176.355-.27.863-.406 1.526-.406.756 0 1.346.173 1.771.518.425.345.637.789.637 1.33v.252c0 .093.047.14.14.14h.7c.093 0 .14-.047.14-.14v-.308c0-.803-.299-1.447-.896-1.932-.597-.485-1.414-.728-2.45-.728-.952 0-1.701.217-2.247.651-.546.434-.819 1.043-.819 1.827 0 .504.119.922.357 1.253.238.331.55.602.938.812.387.21.931.455 1.631.735.653.27 1.16.509 1.519.714.36.205.625.425.798.658.173.233.259.513.259.84 0 .504-.187.908-.56 1.211-.373.303-.92.455-1.638.455-.793 0-1.414-.166-1.862-.497-.448-.331-.672-.768-.672-1.309v-.378c0-.093-.047-.14-.14-.14h-.686c-.093 0-.14.047-.14.14v.434c0 .793.306 1.428.917 1.904s1.444.714 2.499.714zm6.206-.112c.093 0 .14-.047.14-.14V85.32c0-.513.159-.929.476-1.246.317-.317.733-.476 1.246-.476.495 0 .898.163 1.211.49.313.327.469.747.469 1.26v4.424c0 .093.047.14.14.14h.714c.093 0 .14-.047.14-.14v-4.62c0-.737-.222-1.325-.665-1.764-.443-.439-1.038-.658-1.785-.658-.85 0-1.48.29-1.89.868-.01.019-.021.023-.035.014a.047.047 0 0 1-.021-.042v-3.318c0-.093-.047-.14-.14-.14h-.714c-.093 0-.14.047-.14.14v9.52c0 .093.047.14.14.14h.714zm9.496.112c.672 0 1.248-.173 1.729-.518.48-.345.81-.821.987-1.428.13-.392.196-.966.196-1.722 0-.747-.065-1.32-.196-1.722a2.595 2.595 0 0 0-.987-1.4c-.48-.345-1.052-.518-1.715-.518-.69 0-1.279.173-1.764.518a2.583 2.583 0 0 0-.994 1.414c-.13.42-.196.99-.196 1.708 0 .719.065 1.293.196 1.722.187.607.523 1.083 1.008 1.428s1.064.518 1.736.518zm0-.868c-.467 0-.861-.124-1.183-.371a1.741 1.741 0 0 1-.637-1.001c-.075-.327-.112-.798-.112-1.414 0-.616.037-1.087.112-1.414.112-.42.327-.754.644-1.001.317-.247.705-.371 1.162-.371.457 0 .847.124 1.169.371.322.247.539.581.651 1.001.075.327.112.798.112 1.414 0 .607-.042 1.078-.126 1.414-.112.42-.327.754-.644 1.001-.317.247-.7.371-1.148.371zm7.074.756c.075 0 .126-.037.154-.112l1.484-5.236c.01-.019.021-.028.035-.028.014 0 .026.01.035.028l1.526 5.236c.028.075.08.112.154.112h.742c.075 0 .126-.037.154-.112l2.016-6.804c.01-.047.002-.084-.021-.112-.023-.028-.058-.042-.105-.042l-.728-.014c-.084 0-.135.042-.154.126l-1.526 5.502c-.01.019-.023.028-.042.028-.019 0-.033-.01-.042-.028l-1.526-5.516c-.019-.075-.07-.112-.154-.112h-.672c-.084 0-.135.042-.154.126l-1.512 5.516c-.01.019-.021.028-.035.028-.014 0-.026-.01-.035-.028l-1.484-5.516c-.019-.084-.07-.126-.154-.126h-.728c-.093 0-.14.037-.14.112l.014.042L42.01 89.8c.028.075.08.112.154.112h.756zm11.32 0c.084 0 .14-.037.168-.112l.56-1.764c.01-.028.028-.042.056-.042h4.186c.028 0 .047.014.056.042l.56 1.764c.028.075.084.112.168.112h.756c.084 0 .126-.033.126-.098l-.014-.056-3.108-9.534c-.028-.075-.084-.112-.168-.112h-.952c-.084 0-.14.037-.168.112l-3.094 9.534c-.028.103.01.154.112.154h.756zm4.676-2.73h-3.612a.067.067 0 0 1-.049-.021c-.014-.014-.016-.03-.007-.049l1.82-5.712c.01-.019.023-.028.042-.028.019 0 .033.01.042.028l1.82 5.712c.01.019.007.035-.007.049a.067.067 0 0 1-.049.021zm4.624 2.73c.093 0 .14-.047.14-.14v-9.52c0-.093-.047-.14-.14-.14h-.714c-.093 0-.14.047-.14.14v9.52c0 .093.047.14.14.14h.714zm3.42 0c.093 0 .14-.047.14-.14v-9.52c0-.093-.047-.14-.14-.14h-.714c-.093 0-.14.047-.14.14v9.52c0 .093.047.14.14.14h.714zM20.34 130.024c.663 0 1.248-.135 1.757-.406.509-.27.9-.651 1.176-1.141.275-.49.413-1.057.413-1.701v-3.528c0-.644-.138-1.211-.413-1.701a2.857 2.857 0 0 0-1.176-1.141c-.509-.27-1.094-.406-1.757-.406-.663 0-1.246.135-1.75.406-.504.27-.894.651-1.169 1.141s-.413 1.057-.413 1.701v3.528c0 .644.138 1.211.413 1.701.275.49.665.87 1.169 1.141.504.27 1.087.406 1.75.406zm0-.854c-.7 0-1.265-.215-1.694-.644-.43-.43-.644-.999-.644-1.708v-3.584c0-.71.215-1.281.644-1.715.43-.434.994-.651 1.694-.651.71 0 1.279.217 1.708.651.43.434.644 1.006.644 1.715v3.584c0 .71-.215 1.279-.644 1.708-.43.43-.999.644-1.708.644zm6.962.742c.093 0 .14-.047.14-.14v-6.062c0-.037.019-.056.056-.056h3.598c.037 0 .056.019.056.056v6.062c0 .093.047.14.14.14h.714c.093 0 .14-.047.14-.14v-6.062c0-.037.019-.056.056-.056h1.624c.093 0 .14-.047.14-.14v-.546c0-.093-.047-.14-.14-.14h-1.624c-.037 0-.056-.019-.056-.056v-.42c0-.513.089-.891.266-1.134.177-.243.513-.369 1.008-.378h.406c.093 0 .14-.047.14-.14v-.448c0-.093-.047-.14-.14-.14h-.406c-.84-.01-1.428.161-1.764.511-.336.35-.504.903-.504 1.659v.49c0 .037-.019.056-.056.056h-3.598c-.037 0-.056-.019-.056-.056v-.42c0-.513.089-.891.266-1.134.177-.243.513-.369 1.008-.378h.406c.093 0 .14-.047.14-.14v-.448c0-.093-.047-.14-.14-.14h-.406c-.84-.01-1.426.161-1.757.511-.331.35-.497.903-.497 1.659v.49c0 .037-.019.056-.056.056h-.882c-.093 0-.14.047-.14.14v.546c0 .093.047.14.14.14h.882c.037 0 .056.019.056.056v6.062c0 .093.047.14.14.14h.7zm9.212 0c.093 0 .14-.047.14-.14v-9.52c0-.093-.047-.14-.14-.14H35.8c-.093 0-.14.047-.14.14v9.52c0 .093.047.14.14.14h.714zm3.252-8.372a.76.76 0 0 0 .56-.224.76.76 0 0 0 .224-.56.754.754 0 0 0-.784-.784.754.754 0 0 0-.784.784c0 .224.075.41.224.56a.76.76 0 0 0 .56.224zm.322 8.358c.093 0 .14-.047.14-.14v-6.804c0-.093-.047-.14-.14-.14h-.714c-.093 0-.14.047-.14.14v6.804c0 .093.047.14.14.14h.714zm3.63.014c.093 0 .14-.047.14-.14v-4.452c0-.513.159-.929.476-1.246.317-.317.733-.476 1.246-.476.495 0 .898.163 1.211.49.313.327.469.747.469 1.26v4.424c0 .093.047.14.14.14h.714c.093 0 .14-.047.14-.14v-4.62c0-.737-.222-1.325-.665-1.764-.443-.439-1.038-.658-1.785-.658-.85 0-1.48.29-1.89.868-.01.019-.021.023-.035.014a.047.047 0 0 1-.021-.042v-.602c0-.093-.047-.14-.14-.14h-.714c-.093 0-.14.047-.14.14v6.804c0 .093.047.14.14.14h.714zm9.468.126c.607 0 1.143-.128 1.61-.385a2.52 2.52 0 0 0 1.05-1.057c.037-.084.019-.15-.056-.196l-.546-.322c-.075-.047-.14-.028-.196.056a1.83 1.83 0 0 1-.7.756 1.99 1.99 0 0 1-1.036.266c-.523 0-.952-.121-1.288-.364a1.674 1.674 0 0 1-.658-.994c-.037-.15-.065-.48-.084-.994 0-.037.019-.056.056-.056h4.522c.093 0 .14-.047.14-.14v-.448a7.12 7.12 0 0 0-.056-.98c-.112-.784-.397-1.39-.854-1.82-.457-.43-1.11-.644-1.96-.644-.681 0-1.262.182-1.743.546-.48.364-.8.85-.959 1.456a3.055 3.055 0 0 0-.105.665c-.014.247-.021.567-.021.959 0 .84.084 1.484.252 1.932.196.55.518.98.966 1.288.448.308 1.003.467 1.666.476zm1.778-4.13h-3.626c-.037 0-.056-.019-.056-.056.019-.439.056-.756.112-.952.093-.401.292-.721.595-.959s.684-.357 1.141-.357c.476 0 .87.124 1.183.371.313.247.52.581.623 1.001.037.177.065.476.084.896 0 .037-.019.056-.056.056zM20.34 170.024c.663 0 1.248-.135 1.757-.406.509-.27.9-.651 1.176-1.141.275-.49.413-1.057.413-1.701v-3.528c0-.644-.138-1.211-.413-1.701a2.857 2.857 0 0 0-1.176-1.141c-.509-.27-1.094-.406-1.757-.406-.663 0-1.246.135-1.75.406-.504.27-.894.651-1.169 1.141s-.413 1.057-.413 1.701v3.528c0 .644.138 1.211.413 1.701.275.49.665.87 1.169 1.141.504.27 1.087.406 1.75.406zm0-.854c-.7 0-1.265-.215-1.694-.644-.43-.43-.644-.999-.644-1.708v-3.584c0-.71.215-1.281.644-1.715.43-.434.994-.651 1.694-.651.71 0 1.279.217 1.708.651.43.434.644 1.006.644 1.715v3.584c0 .71-.215 1.279-.644 1.708-.43.43-.999.644-1.708.644zm6.542.742c.093 0 .14-.047.14-.14v-4.452c0-.513.159-.929.476-1.246.317-.317.733-.476 1.246-.476.495 0 .898.163 1.211.49.313.327.469.747.469 1.26v4.424c0 .093.047.14.14.14h.714c.093 0 .14-.047.14-.14v-4.62c0-.737-.222-1.325-.665-1.764-.443-.439-1.038-.658-1.785-.658-.85 0-1.48.29-1.89.868-.01.019-.021.023-.035.014a.047.047 0 0 1-.021-.042v-.602c0-.093-.047-.14-.14-.14h-.714c-.093 0-.14.047-.14.14v6.804c0 .093.047.14.14.14h.714zm7.746 0c.093 0 .14-.047.14-.14v-9.52c0-.093-.047-.14-.14-.14h-.714c-.093 0-.14.047-.14.14v9.52c0 .093.047.14.14.14h.714zm3.238-8.372a.76.76 0 0 0 .56-.224.76.76 0 0 0 .224-.56.754.754 0 0 0-.784-.784.754.754 0 0 0-.784.784c0 .224.075.41.224.56a.76.76 0 0 0 .56.224zm.322 8.358c.093 0 .14-.047.14-.14v-6.804c0-.093-.047-.14-.14-.14h-.714c-.093 0-.14.047-.14.14v6.804c0 .093.047.14.14.14h.714zm3.63.014c.093 0 .14-.047.14-.14v-4.452c0-.513.159-.929.476-1.246.317-.317.733-.476 1.246-.476.495 0 .898.163 1.211.49.313.327.469.747.469 1.26v4.424c0 .093.047.14.14.14h.714c.093 0 .14-.047.14-.14v-4.62c0-.737-.222-1.325-.665-1.764-.443-.439-1.038-.658-1.785-.658-.85 0-1.48.29-1.89.868-.01.019-.021.023-.035.014a.047.047 0 0 1-.021-.042v-.602c0-.093-.047-.14-.14-.14h-.714c-.093 0-.14.047-.14.14v6.804c0 .093.047.14.14.14h.714zm9.468.126c.607 0 1.143-.128 1.61-.385a2.52 2.52 0 0 0 1.05-1.057c.037-.084.019-.15-.056-.196l-.546-.322c-.075-.047-.14-.028-.196.056a1.83 1.83 0 0 1-.7.756 1.99 1.99 0 0 1-1.036.266c-.523 0-.952-.121-1.288-.364a1.674 1.674 0 0 1-.658-.994c-.037-.15-.065-.48-.084-.994 0-.037.019-.056.056-.056h4.522c.093 0 .14-.047.14-.14v-.448a7.12 7.12 0 0 0-.056-.98c-.112-.784-.397-1.39-.854-1.82-.457-.43-1.11-.644-1.96-.644-.681 0-1.262.182-1.743.546-.48.364-.8.85-.959 1.456a3.055 3.055 0 0 0-.105.665c-.014.247-.021.567-.021.959 0 .84.084 1.484.252 1.932.196.55.518.98.966 1.288.448.308 1.003.467 1.666.476zm1.778-4.13h-3.626c-.037 0-.056-.019-.056-.056.019-.439.056-.756.112-.952.093-.401.292-.721.595-.959s.684-.357 1.141-.357c.476 0 .87.124 1.183.371.313.247.52.581.623 1.001.037.177.065.476.084.896 0 .037-.019.056-.056.056z" fill="#000" fill-rule="nonzero"/>
    </g>
</svg>
