<svg width="395" height="97" xmlns="http://www.w3.org/2000/svg" xmlns:xlink="http://www.w3.org/1999/xlink">
    <defs>
        <path id="a" d="m225.9 29.337 6.01 3.355.388.217-.387.22-5.989 3.394-.246-.435 5.158-2.925-5.043.017-148.29.482-.002-.5 148.29-.482 5.044-.016-5.178-2.89z"/>
    </defs>
    <g fill-rule="nonzero" fill="none">
        <g fill="#5F6368">
            <path d="M248.956 32.912c.093 0 .154-.047.182-.14l2.982-9.464c.019-.056.014-.103-.014-.14-.028-.037-.07-.056-.126-.056h-1.358c-.103 0-.168.047-.196.14l-2.086 7.308c-.01.028-.023.042-.042.042-.019 0-.033-.014-.042-.042l-2.1-7.308c-.028-.093-.093-.14-.196-.14h-1.386c-.103 0-.154.047-.154.14l.014.056 2.94 9.464c.028.093.089.14.182.14h1.4zm6.256.112c.868 0 1.53-.252 1.988-.756.019-.019.037-.026.056-.021.019.005.028.021.028.049v.448c0 .047.016.086.049.119a.162.162 0 0 0 .119.049h1.288a.162.162 0 0 0 .119-.049.162.162 0 0 0 .049-.119v-4.718c0-.457-.121-.866-.364-1.225-.243-.36-.588-.642-1.036-.847-.448-.205-.966-.308-1.554-.308-.812 0-1.486.182-2.023.546-.537.364-.842.83-.917 1.4-.01.037.002.068.035.091.033.023.072.04.119.049l1.358.168c.103.019.168-.028.196-.14a.822.822 0 0 1 .413-.525c.22-.126.506-.189.861-.189.43 0 .751.1.966.301.215.2.322.483.322.847v.336c0 .047-.023.07-.07.07h-1.498c-.924 0-1.64.203-2.149.609-.509.406-.763.973-.763 1.701 0 .7.226 1.227.679 1.582.453.355 1.029.532 1.729.532zm.406-1.288c-.345 0-.628-.082-.847-.245-.22-.163-.329-.394-.329-.693 0-.345.142-.611.427-.798.285-.187.674-.28 1.169-.28h1.176c.047 0 .07.023.07.07v.658c0 .373-.163.681-.49.924-.327.243-.719.364-1.176.364zm6.97 1.176a.162.162 0 0 0 .119-.049.162.162 0 0 0 .049-.119V23.28a.162.162 0 0 0-.049-.119.162.162 0 0 0-.119-.049H261.3a.162.162 0 0 0-.119.049.162.162 0 0 0-.049.119v9.464c0 .047.016.086.049.119a.162.162 0 0 0 .119.049h1.288zm4.912.098c.765 0 1.34-.247 1.722-.742.019-.028.037-.037.056-.028.019.01.028.028.028.056v.448c0 .047.016.086.049.119a.162.162 0 0 0 .119.049h1.274a.162.162 0 0 0 .119-.049.162.162 0 0 0 .049-.119v-6.818a.162.162 0 0 0-.049-.119.162.162 0 0 0-.119-.049h-1.274a.162.162 0 0 0-.119.049.162.162 0 0 0-.049.119v4.256c0 .439-.126.789-.378 1.05s-.588.392-1.008.392c-.41 0-.73-.13-.959-.392-.229-.261-.343-.611-.343-1.05v-4.256a.162.162 0 0 0-.049-.119.162.162 0 0 0-.119-.049h-1.288a.162.162 0 0 0-.119.049.162.162 0 0 0-.049.119v4.718c0 .756.24 1.34.721 1.75.48.41 1.076.616 1.785.616zm8.874.028c.588 0 1.122-.112 1.603-.336a2.86 2.86 0 0 0 1.155-.952c.056-.084.042-.159-.042-.224l-.868-.714a.134.134 0 0 0-.098-.042c-.056 0-.103.028-.14.084-.373.523-.877.784-1.512.784-.868-.01-1.414-.35-1.638-1.022-.056-.112-.098-.322-.126-.63 0-.047.023-.07.07-.07h4.382c.112 0 .168-.056.168-.168l.014-.434c0-.29-.019-.55-.056-.784-.233-1.923-1.27-2.884-3.108-2.884-.728 0-1.351.189-1.869.567-.518.378-.87.894-1.057 1.547-.112.336-.168.775-.168 1.316 0 .896.107 1.596.322 2.1a2.82 2.82 0 0 0 1.113 1.372c.509.327 1.127.49 1.855.49zm1.246-4.326h-2.842c-.056 0-.075-.023-.056-.07a2.43 2.43 0 0 1 .112-.616c.093-.308.254-.548.483-.721.229-.173.516-.259.861-.259.373 0 .684.093.931.28.247.187.413.448.497.784.037.121.065.299.084.532 0 .047-.023.07-.07.07zM392.179 43.974l-.485.875a3.482 3.482 0 0 0-1.694-.437v-1c.772 0 1.518.195 2.179.562zm2.321 5.815h-1l-.002-1.993 1-.033.002.14v1.886zm0 6h-1v-2h1v2zm0 6h-1v-2h1v2zm0 6h-1v-2h1v2zm-1.132 6.107-.748-.663c.393-.443.668-.978.797-1.558l.976.217a4.488 4.488 0 0 1-1.025 2.004zm-6.122 1.516v-1h2v1h-2zm-6 0v-1h2v1h-2zm-6 0v-1h2v1h-2zm-6 0v-1h2v1h-2zm-6 0v-1h2v1h-2zm-6 0v-1h2v1h-2zm-6 0v-1h2v1h-2zm-6 0v-1h2v1h-2zm-6 0v-1h2v1h-2zm-6 0v-1h2v1h-2zm-6 0v-1h2v1h-2zm-6 0v-1h2v1h-2zm-6 0v-1h2v1h-2zm-6 0v-1h2v1h-2zm-6 0v-1h2v1h-2zm-6 0v-1h2v1h-2zm-6 0v-1h2v1h-2zm-6 0v-1h2v1h-2zm-6 0v-1h2v1h-2zm-6 0v-1h2v1h-2zm-6 0v-1h2v1h-2zm-6 0v-1h2v1h-2zm-6 0v-1h2v1h-2zm-6 0v-1h2v1h-2zm-5.454-2.904.934-.354c.21.553.56 1.045 1.011 1.428l-.646.763a4.508 4.508 0 0 1-1.3-1.837zm-.292-6.227h1v2h-1v-2zm0-6h1v2h-1v-2zm0-6h1v2h-1v-2zm0-6h1v2h-1v-2zm3.948-4.835.121.992a3.478 3.478 0 0 0-1.627.642l-.588-.808a4.478 4.478 0 0 1 2.094-.826zm6.06-.034v1h-2v-1h2zm6 0v1h-2v-1h2zm6 0v1h-2v-1h2zm6 0v1h-2v-1h2zm6 0v1h-2v-1h2zm6 0v1h-2v-1h2zm6 0v1h-2v-1h2zm6 0v1h-2v-1h2zm6 0v1h-2v-1h2zm6 0v1h-2v-1h2zm6 0v1h-2v-1h2zm6 0v1h-2v-1h2zm6 0v1h-2v-1h2zm6 0v1h-2v-1h2zm6 0v1h-2v-1h2zm6 0v1h-2v-1h2zm6 0v1h-2v-1h2zm6 0v1h-2v-1h2zm6 0v1h-2v-1h2zm6 0v1h-2v-1h2zm6 0v1h-2v-1h2zm6 0v1h-2v-1h2zm6 0v1h-2v-1h2zm4.492 0v1h-.492v-1H390zM259.684 64.008c.856 0 1.538-.24 2.046-.72.508-.48.762-1.148.762-2.004v-1.548c0-.08-.04-.12-.12-.12h-2.544c-.08 0-.12.04-.12.12v.504c0 .08.04.12.12.12h1.764c.032 0 .048.016.048.048V61.5c0 .536-.174.964-.522 1.284-.348.32-.814.48-1.398.48-.6 0-1.084-.172-1.452-.516-.368-.344-.552-.796-.552-1.356v-3.36c0-.56.18-1.012.54-1.356.36-.344.836-.516 1.428-.516s1.066.168 1.422.504c.356.336.534.772.534 1.308v.144c0 .08.04.12.12.12h.612c.08 0 .12-.04.12-.12v-.156a2.51 2.51 0 0 0-.348-1.314 2.364 2.364 0 0 0-.99-.906c-.428-.216-.918-.324-1.47-.324-.56 0-1.052.11-1.476.33-.424.22-.754.53-.99.93s-.354.86-.354 1.38v3.312c0 .52.118.98.354 1.38.236.4.566.71.99.93.424.22.916.33 1.476.33zm5.535-.096c.08 0 .12-.04.12-.12v-3.54c0-.448.136-.818.408-1.11a1.43 1.43 0 0 1 1.032-.462l.156-.012c.176 0 .332.028.468.084.08.032.132.008.156-.072l.132-.588c.016-.072-.008-.124-.072-.156a1.416 1.416 0 0 0-.684-.156c-.344 0-.646.082-.906.246a1.91 1.91 0 0 0-.642.69c-.008.016-.018.022-.03.018s-.018-.018-.018-.042v-.732c0-.08-.04-.12-.12-.12h-.612c-.08 0-.12.04-.12.12v5.832c0 .08.04.12.12.12h.612zm6.064.096c.576 0 1.07-.148 1.482-.444.412-.296.694-.704.846-1.224.112-.336.168-.828.168-1.476 0-.64-.056-1.132-.168-1.476a2.224 2.224 0 0 0-.846-1.2c-.412-.296-.902-.444-1.47-.444-.592 0-1.096.148-1.512.444-.416.296-.7.7-.852 1.212-.112.36-.168.848-.168 1.464s.056 1.108.168 1.476c.16.52.448.928.864 1.224.416.296.912.444 1.488.444zm0-.744c-.4 0-.738-.106-1.014-.318a1.492 1.492 0 0 1-.546-.858c-.064-.28-.096-.684-.096-1.212 0-.528.032-.932.096-1.212.096-.36.28-.646.552-.858.272-.212.604-.318.996-.318s.726.106 1.002.318c.276.212.462.498.558.858.064.28.096.684.096 1.212 0 .52-.036.924-.108 1.212-.096.36-.28.646-.552.858-.272.212-.6.318-.984.318zm6.411.732c.728 0 1.26-.248 1.596-.744.008-.016.02-.02.036-.012.016.008.024.02.024.036v.516c0 .08.04.12.12.12h.612c.08 0 .12-.04.12-.12V57.96c0-.08-.04-.12-.12-.12h-.612c-.08 0-.12.04-.12.12v3.804c0 .448-.134.808-.402 1.08s-.63.408-1.086.408c-.44 0-.788-.134-1.044-.402s-.384-.63-.384-1.086V57.96c0-.08-.04-.12-.12-.12h-.612c-.08 0-.12.04-.12.12v4.056c0 .416.094.772.282 1.068.188.296.444.522.768.678.324.156.678.234 1.062.234zm5.404 2.244c.08 0 .12-.04.12-.12V63.3c0-.016.006-.026.018-.03.012-.004.026.002.042.018.176.232.396.41.66.534.264.124.552.186.864.186.576 0 1.054-.146 1.434-.438.38-.292.642-.694.786-1.206.104-.352.156-.848.156-1.488 0-.632-.06-1.14-.18-1.524a2.196 2.196 0 0 0-.786-1.176c-.38-.288-.85-.432-1.41-.432-.32 0-.61.064-.87.192s-.478.308-.654.54c-.016.016-.03.022-.042.018-.012-.004-.018-.014-.018-.03v-.504c0-.08-.04-.12-.12-.12h-.612c-.08 0-.12.04-.12.12v8.16c0 .08.04.12.12.12h.612zm1.608-2.976c-.304 0-.566-.082-.786-.246a1.358 1.358 0 0 1-.474-.654 2.028 2.028 0 0 1-.168-.582 6.64 6.64 0 0 1-.048-.906c0-.384.016-.684.048-.9.032-.216.084-.404.156-.564.104-.28.264-.504.48-.672.216-.168.484-.252.804-.252.336 0 .626.084.87.252.244.168.414.396.51.684.08.168.136.358.168.57.032.212.048.506.048.882 0 .392-.022.698-.066.918-.044.22-.11.418-.198.594a1.35 1.35 0 0 1-.51.636 1.45 1.45 0 0 1-.834.24zm10.135.648c.752 0 1.358-.2 1.818-.6.46-.4.69-.96.69-1.68 0-.488-.112-.904-.336-1.248-.224-.344-.552-.604-.984-.78-.04-.024-.04-.048 0-.072.392-.16.694-.394.906-.702.212-.308.318-.682.318-1.122 0-.696-.222-1.236-.666-1.62-.444-.384-1.054-.576-1.83-.576h-2.82c-.08 0-.12.04-.12.12v8.16c0 .08.04.12.12.12h2.904zm-.084-4.68h-2.04c-.032 0-.048-.016-.048-.048v-2.88c0-.032.016-.048.048-.048h2.04c.504 0 .906.138 1.206.414.3.276.45.646.45 1.11 0 .44-.15.792-.45 1.056-.3.264-.702.396-1.206.396zm.084 3.924h-2.124c-.032 0-.048-.016-.048-.048V60c0-.032.016-.048.048-.048h2.076c.52 0 .934.146 1.242.438.308.292.462.682.462 1.17 0 .488-.15.876-.45 1.164-.3.288-.702.432-1.206.432zm4.227 3.156c.456 0 .81-.05 1.062-.15.252-.1.462-.278.63-.534.168-.256.348-.652.54-1.188l2.22-6.468c.024-.088-.008-.132-.096-.132h-.624c-.072 0-.12.032-.144.096l-1.536 4.848c-.008.016-.02.024-.036.024-.016 0-.028-.008-.036-.024l-1.56-4.848c-.024-.064-.072-.096-.144-.096h-.636c-.072 0-.108.028-.108.084l.012.048 2.028 5.904c.016.016.016.04 0 .072-.144.464-.278.81-.402 1.038-.124.228-.272.384-.444.468-.172.084-.414.13-.726.138h-.048c-.08 0-.12.04-.12.12v.48c0 .08.028.12.084.12h.084zm11.119-2.304c.944 0 1.692-.218 2.244-.654.552-.436.828-1.03.828-1.782 0-.504-.13-.914-.39-1.23a2.666 2.666 0 0 0-.876-.714c-.324-.16-.77-.344-1.338-.552-.512-.184-.89-.33-1.134-.438-.244-.108-.428-.23-.552-.366a.72.72 0 0 1-.186-.504c0-.28.106-.5.318-.66.212-.16.506-.24.882-.24.48 0 .858.118 1.134.354.276.236.414.522.414.858v.096c0 .04.014.074.042.102a.139.139 0 0 0 .102.042h1.38c.04 0 .074-.014.102-.042a.139.139 0 0 0 .042-.102v-.18c0-.512-.134-.962-.402-1.35a2.65 2.65 0 0 0-1.116-.906c-.476-.216-1.018-.324-1.626-.324-.576 0-1.084.096-1.524.288-.44.192-.784.468-1.032.828-.248.36-.372.78-.372 1.26 0 .488.126.898.378 1.23.252.332.564.594.936.786.372.192.826.38 1.362.564.48.176.83.314 1.05.414.22.1.394.216.522.348a.671.671 0 0 1 .192.486.847.847 0 0 1-.312.666c-.208.18-.524.27-.948.27-.504 0-.904-.11-1.2-.33-.296-.22-.444-.49-.444-.81v-.18a.139.139 0 0 0-.042-.102.139.139 0 0 0-.102-.042h-1.368a.139.139 0 0 0-.102.042.139.139 0 0 0-.042.102v.264c0 .504.13.946.39 1.326.26.38.63.672 1.11.876.48.204 1.04.306 1.68.306zm6.015 0c.744 0 1.284-.22 1.62-.66.016-.024.032-.032.048-.024s.024.024.024.048v.396c0 .04.014.074.042.102a.139.139 0 0 0 .102.042h1.404c.04 0 .074-.014.102-.042a.139.139 0 0 0 .042-.102V59.7c0-.384-.114-.732-.342-1.044-.228-.312-.546-.558-.954-.738a3.416 3.416 0 0 0-1.392-.27c-.48 0-.914.076-1.302.228-.388.152-.7.364-.936.636-.236.272-.37.576-.402.912-.008.056.036.092.132.108l1.452.192c.08.008.132-.032.156-.12a.616.616 0 0 1 .318-.372c.164-.088.37-.132.618-.132.32 0 .56.074.72.222.16.148.24.354.24.618v.264c0 .04-.02.06-.06.06h-1.224c-.8 0-1.416.17-1.848.51-.432.34-.648.818-.648 1.434 0 .592.192 1.04.576 1.344.384.304.888.456 1.512.456zm.456-1.26c-.256 0-.46-.062-.612-.186a.623.623 0 0 1-.228-.51c0-.248.102-.44.306-.576.204-.136.486-.204.846-.204h.864c.04 0 .06.02.06.06v.432c0 .288-.12.524-.36.708-.24.184-.532.276-.876.276zm5.836 1.164c.04 0 .074-.014.102-.042a.139.139 0 0 0 .042-.102v-8.112a.139.139 0 0 0-.042-.102.139.139 0 0 0-.102-.042h-1.404a.139.139 0 0 0-.102.042.139.139 0 0 0-.042.102v8.112c0 .04.014.074.042.102a.139.139 0 0 0 .102.042h1.404zm4.443.096c.496 0 .952-.09 1.368-.27.416-.18.756-.434 1.02-.762.032-.048.048-.08.048-.096 0-.032-.02-.068-.06-.108l-.864-.852c-.032-.032-.06-.048-.084-.048-.04 0-.076.024-.108.072-.296.408-.7.616-1.212.624-.64 0-1.064-.224-1.272-.672a2.149 2.149 0 0 1-.132-.48c-.016-.04 0-.06.048-.06h3.708c.096 0 .148-.048.156-.144.016-.376 0-.716-.048-1.02-.104-.776-.398-1.396-.882-1.86-.484-.464-1.126-.696-1.926-.696-.632 0-1.178.168-1.638.504-.46.336-.782.788-.966 1.356-.12.336-.18.724-.18 1.164 0 .648.084 1.172.252 1.572.208.56.55.996 1.026 1.308.476.312 1.058.468 1.746.468zm.828-3.756h-2.076c-.04 0-.06-.02-.06-.06.024-.152.052-.28.084-.384.16-.472.492-.708.996-.708.264 0 .486.066.666.198.18.132.306.318.378.558 0-.008.02.104.06.336.016.04 0 .06-.048.06zm8.635 3.756c.616 0 1.158-.116 1.626-.348.468-.232.832-.56 1.092-.984.26-.424.39-.912.39-1.464a.108.108 0 0 0-.042-.084.151.151 0 0 0-.102-.036l-1.404-.06c-.096 0-.144.044-.144.132 0 .416-.13.752-.39 1.008s-.602.384-1.026.384c-.432 0-.778-.128-1.038-.384s-.39-.592-.39-1.008v-2.892c0-.424.13-.764.39-1.02s.606-.384 1.038-.384c.424 0 .766.128 1.026.384s.39.596.39 1.02c0 .088.04.132.12.132h.024l1.404-.084c.096-.016.144-.06.144-.132 0-.552-.13-1.038-.39-1.458a2.581 2.581 0 0 0-1.092-.972c-.468-.228-1.01-.342-1.626-.342-.624 0-1.172.12-1.644.36a2.59 2.59 0 0 0-1.092 1.02c-.256.44-.384.948-.384 1.524v2.772c0 .576.128 1.084.384 1.524.256.44.62.782 1.092 1.026.472.244 1.02.366 1.644.366zm5.955-.096c.04 0 .074-.014.102-.042a.139.139 0 0 0 .042-.102V60.18c0-.32.09-.58.27-.78.18-.2.418-.3.714-.3s.534.1.714.3c.18.2.27.46.27.78v3.588c0 .04.014.074.042.102a.139.139 0 0 0 .102.042h1.404c.04 0 .074-.014.102-.042a.139.139 0 0 0 .042-.102v-3.936c0-.672-.196-1.204-.588-1.596-.392-.392-.908-.588-1.548-.588-.648 0-1.136.232-1.464.696-.008.016-.02.02-.036.012-.016-.008-.024-.024-.024-.048v-2.652a.139.139 0 0 0-.042-.102.139.139 0 0 0-.102-.042h-1.404a.139.139 0 0 0-.102.042.139.139 0 0 0-.042.102v8.112c0 .04.014.074.042.102a.139.139 0 0 0 .102.042h1.404zm6.952.096c.744 0 1.284-.22 1.62-.66.016-.024.032-.032.048-.024s.024.024.024.048v.396c0 .04.014.074.042.102a.139.139 0 0 0 .102.042h1.404c.04 0 .074-.014.102-.042a.139.139 0 0 0 .042-.102V59.7c0-.384-.114-.732-.342-1.044-.228-.312-.546-.558-.954-.738a3.416 3.416 0 0 0-1.392-.27c-.48 0-.914.076-1.302.228-.388.152-.7.364-.936.636-.236.272-.37.576-.402.912-.008.056.036.092.132.108l1.452.192c.08.008.132-.032.156-.12a.616.616 0 0 1 .318-.372c.164-.088.37-.132.618-.132.32 0 .56.074.72.222.16.148.24.354.24.618v.264c0 .04-.02.06-.06.06h-1.224c-.8 0-1.416.17-1.848.51-.432.34-.648.818-.648 1.434 0 .592.192 1.04.576 1.344.384.304.888.456 1.512.456zm.456-1.26c-.256 0-.46-.062-.612-.186a.623.623 0 0 1-.228-.51c0-.248.102-.44.306-.576.204-.136.486-.204.846-.204h.864c.04 0 .06.02.06.06v.432c0 .288-.12.524-.36.708-.24.184-.532.276-.876.276zm5.835 1.164c.04 0 .074-.014.102-.042a.139.139 0 0 0 .042-.102V60.18c0-.32.09-.58.27-.78.18-.2.418-.3.714-.3s.534.1.714.3c.18.2.27.46.27.78v3.588c0 .04.014.074.042.102a.139.139 0 0 0 .102.042h1.404c.04 0 .074-.014.102-.042a.139.139 0 0 0 .042-.102v-3.936c0-.672-.196-1.204-.588-1.596-.392-.392-.908-.588-1.548-.588-.648 0-1.136.232-1.464.696-.008.016-.02.02-.036.012-.016-.008-.024-.024-.024-.048v-.42a.139.139 0 0 0-.042-.102.139.139 0 0 0-.102-.042h-1.404a.139.139 0 0 0-.102.042.139.139 0 0 0-.042.102v5.88c0 .04.014.074.042.102a.139.139 0 0 0 .102.042h1.404zm6.736 0c.04 0 .074-.014.102-.042a.139.139 0 0 0 .042-.102V60.18c0-.32.09-.58.27-.78.18-.2.418-.3.714-.3s.534.1.714.3c.18.2.27.46.27.78v3.588c0 .04.014.074.042.102a.139.139 0 0 0 .102.042h1.404c.04 0 .074-.014.102-.042a.139.139 0 0 0 .042-.102v-3.936c0-.672-.196-1.204-.588-1.596-.392-.392-.908-.588-1.548-.588-.648 0-1.136.232-1.464.696-.008.016-.02.02-.036.012-.016-.008-.024-.024-.024-.048v-.42a.139.139 0 0 0-.042-.102.139.139 0 0 0-.102-.042h-1.404a.139.139 0 0 0-.102.042.139.139 0 0 0-.042.102v5.88c0 .04.014.074.042.102a.139.139 0 0 0 .102.042h1.404zm8.043.096c.496 0 .952-.09 1.368-.27.416-.18.756-.434 1.02-.762.032-.048.048-.08.048-.096 0-.032-.02-.068-.06-.108l-.864-.852c-.032-.032-.06-.048-.084-.048-.04 0-.076.024-.108.072-.296.408-.7.616-1.212.624-.64 0-1.064-.224-1.272-.672a2.149 2.149 0 0 1-.132-.48c-.016-.04 0-.06.048-.06h3.708c.096 0 .148-.048.156-.144.016-.376 0-.716-.048-1.02-.104-.776-.398-1.396-.882-1.86-.484-.464-1.126-.696-1.926-.696-.632 0-1.178.168-1.638.504-.46.336-.782.788-.966 1.356-.12.336-.18.724-.18 1.164 0 .648.084 1.172.252 1.572.208.56.55.996 1.026 1.308.476.312 1.058.468 1.746.468zm.828-3.756h-2.076c-.04 0-.06-.02-.06-.06.024-.152.052-.28.084-.384.16-.472.492-.708.996-.708.264 0 .486.066.666.198.18.132.306.318.378.558 0-.008.02.104.06.336.016.04 0 .06-.048.06zm4.552 3.66c.04 0 .074-.014.102-.042a.139.139 0 0 0 .042-.102v-8.112a.139.139 0 0 0-.042-.102.139.139 0 0 0-.102-.042h-1.404a.139.139 0 0 0-.102.042.139.139 0 0 0-.042.102v8.112c0 .04.014.074.042.102a.139.139 0 0 0 .102.042h1.404z"/>
            <path d="M281.765 64.812v-.6H256v.6h25.765zm2.052-.6v.6h15.906v-.6h-15.906zm20.206.6v-.6h-2.045v.6h2.045z"/>
        </g>
        <g fill="#5F6368">
            <use xlink:href="#a"/>
            <use xlink:href="#a"/>
        </g>
        <path d="M4.186 10.024c1.073 0 1.92-.247 2.541-.742.62-.495.931-1.162.931-2.002 0-.55-.142-1.01-.427-1.379a3.057 3.057 0 0 0-1.022-.861 15.76 15.76 0 0 0-1.589-.686 15.24 15.24 0 0 1-1.386-.553c-.299-.145-.523-.306-.672-.483-.15-.177-.224-.406-.224-.686 0-.392.142-.695.427-.91.285-.215.684-.322 1.197-.322.635 0 1.132.152 1.491.455.36.303.539.674.539 1.113v.154c0 .047.016.086.049.119a.162.162 0 0 0 .119.049h1.26a.162.162 0 0 0 .119-.049.162.162 0 0 0 .049-.119v-.238c0-.57-.15-1.071-.448-1.505C6.841.945 6.424.607 5.887.364 5.35.121 4.732 0 4.032 0c-.999 0-1.797.238-2.394.714C1.041 1.19.742 1.839.742 2.66c0 .55.138 1.01.413 1.379.275.369.618.66 1.029.875.41.215.947.443 1.61.686.588.224 1.029.41 1.323.56.294.15.52.315.679.497a.977.977 0 0 1 .238.665c0 .383-.145.695-.434.938-.29.243-.719.364-1.288.364-.663 0-1.185-.142-1.568-.427-.383-.285-.574-.642-.574-1.071V6.86a.162.162 0 0 0-.049-.119.162.162 0 0 0-.119-.049H.756a.162.162 0 0 0-.119.049.162.162 0 0 0-.049.119v.35c0 .57.147 1.064.441 1.484.294.42.712.747 1.253.98.541.233 1.176.35 1.904.35zm7.474 0c.868 0 1.53-.252 1.988-.756.019-.019.037-.026.056-.021.019.005.028.021.028.049v.448c0 .047.016.086.049.119a.162.162 0 0 0 .119.049h1.288a.162.162 0 0 0 .119-.049.162.162 0 0 0 .049-.119V5.026c0-.457-.121-.866-.364-1.225-.243-.36-.588-.642-1.036-.847-.448-.205-.966-.308-1.554-.308-.812 0-1.486.182-2.023.546-.537.364-.842.83-.917 1.4-.01.037.002.068.035.091.033.023.072.04.119.049l1.358.168c.103.019.168-.028.196-.14a.822.822 0 0 1 .413-.525c.22-.126.506-.189.861-.189.43 0 .751.1.966.301.215.2.322.483.322.847v.336c0 .047-.023.07-.07.07h-1.498c-.924 0-1.64.203-2.149.609-.509.406-.763.973-.763 1.701 0 .7.226 1.227.679 1.582.453.355 1.029.532 1.729.532zm.406-1.288c-.345 0-.628-.082-.847-.245-.22-.163-.329-.394-.329-.693 0-.345.142-.611.427-.798.285-.187.674-.28 1.169-.28h1.176c.047 0 .07.023.07.07v.658c0 .373-.163.681-.49.924-.327.243-.719.364-1.176.364zm6.97 1.176a.162.162 0 0 0 .119-.049.162.162 0 0 0 .049-.119V.28a.162.162 0 0 0-.049-.119.162.162 0 0 0-.119-.049h-1.288a.162.162 0 0 0-.119.049.162.162 0 0 0-.049.119v9.464c0 .047.016.086.049.119a.162.162 0 0 0 .119.049h1.288zm5.612.126c.588 0 1.122-.112 1.603-.336a2.86 2.86 0 0 0 1.155-.952c.056-.084.042-.159-.042-.224l-.868-.714a.134.134 0 0 0-.098-.042c-.056 0-.103.028-.14.084-.373.523-.877.784-1.512.784-.868-.01-1.414-.35-1.638-1.022-.056-.112-.098-.322-.126-.63 0-.047.023-.07.07-.07h4.382c.112 0 .168-.056.168-.168l.014-.434c0-.29-.019-.55-.056-.784-.233-1.923-1.27-2.884-3.108-2.884-.728 0-1.351.189-1.869.567-.518.378-.87.894-1.057 1.547-.112.336-.168.775-.168 1.316 0 .896.107 1.596.322 2.1a2.82 2.82 0 0 0 1.113 1.372c.509.327 1.127.49 1.855.49zm1.246-4.326h-2.842c-.056 0-.075-.023-.056-.07a2.43 2.43 0 0 1 .112-.616c.093-.308.254-.548.483-.721.229-.173.516-.259.861-.259.373 0 .684.093.931.28.247.187.413.448.497.784.037.121.065.299.084.532 0 .047-.023.07-.07.07zm10.188 4.312c.728 0 1.363-.175 1.904-.525.541-.35.9-.824 1.078-1.421.019-.065.042-.173.07-.322.01-.056-.002-.1-.035-.133a.227.227 0 0 0-.119-.063l-1.26-.196c-.103-.019-.168.028-.196.14 0 .019-.005.033-.014.042a.156.156 0 0 1-.014.07c-.075.308-.24.553-.497.735a1.544 1.544 0 0 1-.917.273c-.364 0-.667-.096-.91-.287a1.474 1.474 0 0 1-.504-.777c-.084-.317-.126-.733-.126-1.246 0-.532.047-.947.14-1.246.084-.317.25-.567.497-.749.247-.182.548-.273.903-.273.345 0 .644.084.896.252.252.168.42.383.504.644.019.056.037.121.056.196.01.028.014.065.014.112.028.093.084.14.168.14h.028l1.26-.182c.103-.019.154-.075.154-.168v-.028a2.568 2.568 0 0 0-.098-.448c-.177-.55-.537-1.008-1.078-1.372-.541-.364-1.176-.546-1.904-.546-.719 0-1.342.18-1.869.539-.527.36-.889.847-1.085 1.463-.15.43-.224.98-.224 1.652 0 .7.075 1.26.224 1.68.205.625.57 1.122 1.092 1.491.523.369 1.143.553 1.862.553zm6.508-.112a.162.162 0 0 0 .119-.049.162.162 0 0 0 .049-.119v-4.27c0-.43.124-.775.371-1.036s.572-.392.973-.392.723.133.966.399.364.614.364 1.043v4.256c0 .047.016.086.049.119a.162.162 0 0 0 .119.049h1.288a.162.162 0 0 0 .119-.049.162.162 0 0 0 .049-.119V5.152c0-.775-.226-1.386-.679-1.834-.453-.448-1.057-.672-1.813-.672-.775 0-1.353.252-1.736.756-.01.028-.023.037-.042.028-.019-.01-.028-.028-.028-.056V.28a.162.162 0 0 0-.049-.119.162.162 0 0 0-.119-.049h-1.288a.162.162 0 0 0-.119.049.162.162 0 0 0-.049.119v9.464c0 .047.016.086.049.119a.162.162 0 0 0 .119.049h1.288zm8.748.112c.868 0 1.53-.252 1.988-.756.019-.019.037-.026.056-.021.019.005.028.021.028.049v.448c0 .047.016.086.049.119a.162.162 0 0 0 .119.049h1.288a.162.162 0 0 0 .119-.049.162.162 0 0 0 .049-.119V5.026c0-.457-.121-.866-.364-1.225-.243-.36-.588-.642-1.036-.847-.448-.205-.966-.308-1.554-.308-.812 0-1.486.182-2.023.546-.537.364-.842.83-.917 1.4-.01.037.002.068.035.091.033.023.072.04.119.049l1.358.168c.103.019.168-.028.196-.14a.822.822 0 0 1 .413-.525c.22-.126.506-.189.861-.189.43 0 .751.1.966.301.215.2.322.483.322.847v.336c0 .047-.023.07-.07.07h-1.498c-.924 0-1.64.203-2.149.609-.509.406-.763.973-.763 1.701 0 .7.226 1.227.679 1.582.453.355 1.029.532 1.729.532zm.406-1.288c-.345 0-.628-.082-.847-.245-.22-.163-.329-.394-.329-.693 0-.345.142-.611.427-.798.285-.187.674-.28 1.169-.28h1.176c.047 0 .07.023.07.07v.658c0 .373-.163.681-.49.924-.327.243-.719.364-1.176.364zm6.97 1.176a.162.162 0 0 0 .119-.049.162.162 0 0 0 .049-.119v-4.27c0-.43.124-.775.371-1.036s.572-.392.973-.392.723.133.966.399.364.614.364 1.043v4.256c0 .047.016.086.049.119a.162.162 0 0 0 .119.049h1.288a.162.162 0 0 0 .119-.049.162.162 0 0 0 .049-.119V5.152c0-.775-.226-1.386-.679-1.834-.453-.448-1.057-.672-1.813-.672-.775 0-1.353.252-1.736.756-.01.028-.023.037-.042.028-.019-.01-.028-.028-.028-.056v-.448a.162.162 0 0 0-.049-.119.162.162 0 0 0-.119-.049h-1.288a.162.162 0 0 0-.119.049.162.162 0 0 0-.049.119v6.818c0 .047.016.086.049.119a.162.162 0 0 0 .119.049h1.288zm8.216 0a.162.162 0 0 0 .119-.049.162.162 0 0 0 .049-.119v-4.27c0-.43.124-.775.371-1.036s.572-.392.973-.392.723.133.966.399.364.614.364 1.043v4.256c0 .047.016.086.049.119a.162.162 0 0 0 .119.049h1.288a.162.162 0 0 0 .119-.049.162.162 0 0 0 .049-.119V5.152c0-.775-.226-1.386-.679-1.834-.453-.448-1.057-.672-1.813-.672-.775 0-1.353.252-1.736.756-.01.028-.023.037-.042.028-.019-.01-.028-.028-.028-.056v-.448a.162.162 0 0 0-.049-.119.162.162 0 0 0-.119-.049h-1.288a.162.162 0 0 0-.119.049.162.162 0 0 0-.049.119v6.818c0 .047.016.086.049.119a.162.162 0 0 0 .119.049h1.288zm9.826.126c.588 0 1.122-.112 1.603-.336a2.86 2.86 0 0 0 1.155-.952c.056-.084.042-.159-.042-.224l-.868-.714a.134.134 0 0 0-.098-.042c-.056 0-.103.028-.14.084-.373.523-.877.784-1.512.784-.868-.01-1.414-.35-1.638-1.022-.056-.112-.098-.322-.126-.63 0-.047.023-.07.07-.07h4.382c.112 0 .168-.056.168-.168l.014-.434c0-.29-.019-.55-.056-.784-.233-1.923-1.27-2.884-3.108-2.884-.728 0-1.351.189-1.869.567-.518.378-.87.894-1.057 1.547-.112.336-.168.775-.168 1.316 0 .896.107 1.596.322 2.1a2.82 2.82 0 0 0 1.113 1.372c.509.327 1.127.49 1.855.49zm1.246-4.326H75.16c-.056 0-.075-.023-.056-.07a2.43 2.43 0 0 1 .112-.616c.093-.308.254-.548.483-.721.229-.173.516-.259.861-.259.373 0 .684.093.931.28.247.187.413.448.497.784.037.121.065.299.084.532 0 .047-.023.07-.07.07zm5.262 4.2a.162.162 0 0 0 .119-.049.162.162 0 0 0 .049-.119V.28a.162.162 0 0 0-.049-.119.162.162 0 0 0-.119-.049h-1.288a.162.162 0 0 0-.119.049.162.162 0 0 0-.049.119v9.464c0 .047.016.086.049.119a.162.162 0 0 0 .119.049h1.288zM28.125 66.008c.568 0 1.07-.116 1.506-.348a2.45 2.45 0 0 0 1.008-.978c.236-.42.354-.906.354-1.458V60.2c0-.552-.118-1.038-.354-1.458a2.45 2.45 0 0 0-1.008-.978c-.436-.232-.938-.348-1.506-.348-.568 0-1.068.116-1.5.348a2.458 2.458 0 0 0-1.002.978c-.236.42-.354.906-.354 1.458v3.024c0 .552.118 1.038.354 1.458.236.42.57.746 1.002.978.432.232.932.348 1.5.348zm0-.732c-.6 0-1.084-.184-1.452-.552-.368-.368-.552-.856-.552-1.464v-3.072c0-.608.184-1.098.552-1.47.368-.372.852-.558 1.452-.558.608 0 1.096.186 1.464.558.368.372.552.862.552 1.47v3.072c0 .608-.184 1.096-.552 1.464-.368.368-.856.552-1.464.552zm5.968.636c.08 0 .12-.04.12-.12v-5.196c0-.032.016-.048.048-.048h3.084c.032 0 .048.016.048.048v5.196c0 .08.04.12.12.12h.612c.08 0 .12-.04.12-.12v-5.196c0-.032.016-.048.048-.048h1.392c.08 0 .12-.04.12-.12v-.468c0-.08-.04-.12-.12-.12h-1.392c-.032 0-.048-.016-.048-.048v-.36c0-.44.076-.764.228-.972.152-.208.44-.316.864-.324h.348c.08 0 .12-.04.12-.12v-.384c0-.08-.04-.12-.12-.12h-.348c-.72-.008-1.224.138-1.512.438-.288.3-.432.774-.432 1.422v.42c0 .032-.016.048-.048.048H34.26c-.032 0-.048-.016-.048-.048v-.36c0-.44.076-.764.228-.972.152-.208.44-.316.864-.324h.348c.08 0 .12-.04.12-.12v-.384c0-.08-.04-.12-.12-.12h-.348c-.72-.008-1.222.138-1.506.438-.284.3-.426.774-.426 1.422v.42c0 .032-.016.048-.048.048h-.756c-.08 0-.12.04-.12.12v.468c0 .08.04.12.12.12h.756c.032 0 .048.016.048.048v5.196c0 .08.04.12.12.12h.6zm7.896 0c.08 0 .12-.04.12-.12v-8.16c0-.08-.04-.12-.12-.12h-.612c-.08 0-.12.04-.12.12v8.16c0 .08.04.12.12.12h.612zm2.787-7.176a.651.651 0 0 0 .48-.192.651.651 0 0 0 .192-.48.646.646 0 0 0-.672-.672.646.646 0 0 0-.672.672c0 .192.064.352.192.48a.651.651 0 0 0 .48.192zm.276 7.164c.08 0 .12-.04.12-.12v-5.832c0-.08-.04-.12-.12-.12h-.612c-.08 0-.12.04-.12.12v5.832c0 .08.04.12.12.12h.612zm3.112.012c.08 0 .12-.04.12-.12v-3.816c0-.44.136-.796.408-1.068.272-.272.628-.408 1.068-.408.424 0 .77.14 1.038.42.268.28.402.64.402 1.08v3.792c0 .08.04.12.12.12h.612c.08 0 .12-.04.12-.12v-3.96c0-.632-.19-1.136-.57-1.512-.38-.376-.89-.564-1.53-.564-.728 0-1.268.248-1.62.744-.008.016-.018.02-.03.012a.04.04 0 0 1-.018-.036v-.516c0-.08-.04-.12-.12-.12h-.612c-.08 0-.12.04-.12.12v5.832c0 .08.04.12.12.12h.612zm8.115.108c.52 0 .98-.11 1.38-.33.4-.22.7-.522.9-.906.032-.072.016-.128-.048-.168l-.468-.276c-.064-.04-.12-.024-.168.048-.144.28-.344.496-.6.648a1.706 1.706 0 0 1-.888.228c-.448 0-.816-.104-1.104-.312a1.435 1.435 0 0 1-.564-.852c-.032-.128-.056-.412-.072-.852 0-.032.016-.048.048-.048h3.876c.08 0 .12-.04.12-.12v-.384c0-.336-.016-.616-.048-.84-.096-.672-.34-1.192-.732-1.56-.392-.368-.952-.552-1.68-.552-.584 0-1.082.156-1.494.468a2.223 2.223 0 0 0-.822 1.248 2.618 2.618 0 0 0-.09.57c-.012.212-.018.486-.018.822 0 .72.072 1.272.216 1.656.168.472.444.84.828 1.104.384.264.86.4 1.428.408zm1.524-3.54h-3.108c-.032 0-.048-.016-.048-.048.016-.376.048-.648.096-.816.08-.344.25-.618.51-.822.26-.204.586-.306.978-.306.408 0 .746.106 1.014.318.268.212.446.498.534.858.032.152.056.408.072.768 0 .032-.016.048-.048.048z" fill="#5F6368"/>
        <path d="M14.125 68.912H1.875A1.877 1.877 0 0 1 0 67.037v-12.25c0-1.034.841-1.875 1.875-1.875h12.25c1.034 0 1.875.841 1.875 1.875v12.25a1.877 1.877 0 0 1-1.875 1.875z" fill="#57F"/>
        <path fill="#FFF" d="m13.466 57.641-.932-.833-5.78 6.455-3.355-3.19-.86.907 4.287 4.076z"/>
        <g>
            <path d="M27.592 38.008c.88 0 1.568-.2 2.064-.6.496-.4.744-.936.744-1.608 0-.432-.11-.798-.33-1.098a2.81 2.81 0 0 0-.864-.762 11.633 11.633 0 0 0-1.41-.672 15.418 15.418 0 0 1-1.278-.546 1.867 1.867 0 0 1-.636-.492c-.148-.188-.222-.426-.222-.714 0-.44.152-.776.456-1.008.304-.232.74-.348 1.308-.348.648 0 1.154.148 1.518.444.364.296.546.676.546 1.14v.216c0 .08.04.12.12.12h.6c.08 0 .12-.04.12-.12v-.264c0-.688-.256-1.24-.768-1.656-.512-.416-1.212-.624-2.1-.624-.816 0-1.458.186-1.926.558-.468.372-.702.894-.702 1.566 0 .432.102.79.306 1.074.204.284.472.516.804.696.332.18.798.39 1.398.63.56.232.994.436 1.302.612.308.176.536.364.684.564.148.2.222.44.222.72 0 .432-.16.778-.48 1.038-.32.26-.788.39-1.404.39-.68 0-1.212-.142-1.596-.426-.384-.284-.576-.658-.576-1.122v-.324c0-.08-.04-.12-.12-.12h-.588c-.08 0-.12.04-.12.12v.372c0 .68.262 1.224.786 1.632.524.408 1.238.612 2.142.612zm5.32-.096c.08 0 .12-.04.12-.12v-3.816c0-.44.136-.796.408-1.068.272-.272.628-.408 1.068-.408.424 0 .77.14 1.038.42.268.28.402.64.402 1.08v3.792c0 .08.04.12.12.12h.612c.08 0 .12-.04.12-.12v-3.96c0-.632-.19-1.136-.57-1.512-.38-.376-.89-.564-1.53-.564-.728 0-1.268.248-1.62.744-.008.016-.018.02-.03.012a.04.04 0 0 1-.018-.036v-2.844c0-.08-.04-.12-.12-.12H32.3c-.08 0-.12.04-.12.12v8.16c0 .08.04.12.12.12h.612zm8.14.096c.575 0 1.07-.148 1.481-.444.412-.296.694-.704.846-1.224.112-.336.168-.828.168-1.476 0-.64-.056-1.132-.168-1.476a2.224 2.224 0 0 0-.846-1.2c-.412-.296-.902-.444-1.47-.444-.592 0-1.096.148-1.512.444-.416.296-.7.7-.852 1.212-.112.36-.168.848-.168 1.464s.056 1.108.168 1.476c.16.52.448.928.864 1.224.416.296.912.444 1.488.444zm0-.744c-.4 0-.739-.106-1.015-.318a1.492 1.492 0 0 1-.546-.858c-.064-.28-.096-.684-.096-1.212 0-.528.032-.932.096-1.212.096-.36.28-.646.552-.858.272-.212.604-.318.996-.318s.726.106 1.002.318c.276.212.462.498.558.858.064.28.096.684.096 1.212 0 .52-.036.924-.108 1.212-.096.36-.28.646-.552.858-.272.212-.6.318-.984.318zm6.063.648c.064 0 .108-.032.132-.096l1.272-4.488c.008-.016.018-.024.03-.024s.022.008.03.024l1.308 4.488c.024.064.068.096.132.096h.636c.064 0 .108-.032.132-.096l1.728-5.832c.008-.04.002-.072-.018-.096-.02-.024-.05-.036-.09-.036l-.624-.012c-.072 0-.116.036-.132.108l-1.308 4.716c-.008.016-.02.024-.036.024-.016 0-.028-.008-.036-.024l-1.308-4.728c-.016-.064-.06-.096-.132-.096h-.576c-.072 0-.116.036-.132.108l-1.296 4.728c-.008.016-.018.024-.03.024s-.022-.008-.03-.024l-1.272-4.728c-.016-.072-.06-.108-.132-.108h-.624c-.08 0-.12.032-.12.096l.012.036 1.704 5.844c.024.064.068.096.132.096h.648zm9.702 0c.072 0 .12-.032.144-.096l.48-1.512c.008-.024.024-.036.048-.036h3.588c.024 0 .04.012.048.036l.48 1.512c.024.064.072.096.144.096h.648c.072 0 .108-.028.108-.084l-.012-.048-2.664-8.172c-.024-.064-.072-.096-.144-.096h-.816c-.072 0-.12.032-.144.096l-2.652 8.172c-.024.088.008.132.096.132h.648zm4.008-2.34H57.73a.058.058 0 0 1-.042-.018c-.012-.012-.014-.026-.006-.042l1.56-4.896c.008-.016.02-.024.036-.024.016 0 .028.008.036.024l1.56 4.896c.008.016.006.03-.006.042a.058.058 0 0 1-.042.018zm3.964 2.34c.08 0 .12-.04.12-.12v-8.16c0-.08-.04-.12-.12-.12h-.612c-.08 0-.12.04-.12.12v8.16c0 .08.04.12.12.12h.612zm2.931 0c.08 0 .12-.04.12-.12v-8.16c0-.08-.04-.12-.12-.12h-.612c-.08 0-.12.04-.12.12v8.16c0 .08.04.12.12.12h.612z" fill="#5F6368"/>
            <path d="M14.125 40.912H1.875A1.877 1.877 0 0 1 0 39.037v-12.25c0-1.034.841-1.875 1.875-1.875h12.25c1.034 0 1.875.841 1.875 1.875v12.25a1.877 1.877 0 0 1-1.875 1.875z" fill="#57F"/>
            <path fill="#FFF" d="m13.466 29.641-.932-.833-5.78 6.455-3.355-3.19-.86.907 4.287 4.076z"/>
        </g>
        <g fill="#5F6368">
            <path d="M27.94 94.008c.568 0 1.07-.116 1.506-.348a2.45 2.45 0 0 0 1.008-.978c.236-.42.354-.906.354-1.458V88.2c0-.552-.118-1.038-.354-1.458a2.45 2.45 0 0 0-1.008-.978c-.436-.232-.938-.348-1.506-.348-.568 0-1.068.116-1.5.348a2.458 2.458 0 0 0-1.002.978c-.236.42-.354.906-.354 1.458v3.024c0 .552.118 1.038.354 1.458.236.42.57.746 1.002.978.432.232.932.348 1.5.348zm0-.732c-.6 0-1.084-.184-1.452-.552-.368-.368-.552-.856-.552-1.464v-3.072c0-.608.184-1.098.552-1.47.368-.372.852-.558 1.452-.558.608 0 1.096.186 1.464.558.368.372.552.862.552 1.47v3.072c0 .608-.184 1.096-.552 1.464-.368.368-.856.552-1.464.552zm5.607.636c.08 0 .12-.04.12-.12v-3.816c0-.44.136-.796.408-1.068.272-.272.628-.408 1.068-.408.424 0 .77.14 1.038.42.268.28.402.64.402 1.08v3.792c0 .08.04.12.12.12h.612c.08 0 .12-.04.12-.12v-3.96c0-.632-.19-1.136-.57-1.512-.38-.376-.89-.564-1.53-.564-.728 0-1.268.248-1.62.744-.008.016-.018.02-.03.012a.04.04 0 0 1-.018-.036v-.516c0-.08-.04-.12-.12-.12h-.612c-.08 0-.12.04-.12.12v5.832c0 .08.04.12.12.12h.612zm6.64 0c.08 0 .12-.04.12-.12v-8.16c0-.08-.04-.12-.12-.12h-.612c-.08 0-.12.04-.12.12v8.16c0 .08.04.12.12.12h.612zm2.775-7.176a.651.651 0 0 0 .48-.192.651.651 0 0 0 .192-.48.646.646 0 0 0-.672-.672.646.646 0 0 0-.672.672c0 .192.064.352.192.48a.651.651 0 0 0 .48.192zm.276 7.164c.08 0 .12-.04.12-.12v-5.832c0-.08-.04-.12-.12-.12h-.612c-.08 0-.12.04-.12.12v5.832c0 .08.04.12.12.12h.612zm3.111.012c.08 0 .12-.04.12-.12v-3.816c0-.44.136-.796.408-1.068.272-.272.628-.408 1.068-.408.424 0 .77.14 1.038.42.268.28.402.64.402 1.08v3.792c0 .08.04.12.12.12h.612c.08 0 .12-.04.12-.12v-3.96c0-.632-.19-1.136-.57-1.512-.38-.376-.89-.564-1.53-.564-.728 0-1.268.248-1.62.744-.008.016-.018.02-.03.012a.04.04 0 0 1-.018-.036v-.516c0-.08-.04-.12-.12-.12h-.612c-.08 0-.12.04-.12.12v5.832c0 .08.04.12.12.12h.612zm8.116.108c.52 0 .98-.11 1.38-.33.4-.22.7-.522.9-.906.032-.072.016-.128-.048-.168l-.468-.276c-.064-.04-.12-.024-.168.048-.144.28-.344.496-.6.648a1.706 1.706 0 0 1-.888.228c-.448 0-.816-.104-1.104-.312a1.435 1.435 0 0 1-.564-.852c-.032-.128-.056-.412-.072-.852 0-.032.016-.048.048-.048h3.876c.08 0 .12-.04.12-.12v-.384c0-.336-.016-.616-.048-.84-.096-.672-.34-1.192-.732-1.56-.392-.368-.952-.552-1.68-.552-.584 0-1.082.156-1.494.468a2.223 2.223 0 0 0-.822 1.248 2.618 2.618 0 0 0-.09.57c-.012.212-.018.486-.018.822 0 .72.072 1.272.216 1.656.168.472.444.84.828 1.104.384.264.86.4 1.428.408zm1.524-3.54H52.88c-.032 0-.048-.016-.048-.048.016-.376.048-.648.096-.816.08-.344.25-.618.51-.822.26-.204.586-.306.978-.306.408 0 .746.106 1.014.318.268.212.446.498.534.858.032.152.056.408.072.768 0 .032-.016.048-.048.048z"/>
            <path d="M14.125 96.912H1.875A1.877 1.877 0 0 1 0 95.037v-12.25c0-1.034.841-1.875 1.875-1.875h12.25c1.034 0 1.875.841 1.875 1.875v12.25a1.877 1.877 0 0 1-1.875 1.875zm-12.25-14.75a.626.626 0 0 0-.625.625v12.25c0 .345.28.625.625.625h12.25c.345 0 .625-.28.625-.625v-12.25a.626.626 0 0 0-.625-.625H1.875z" opacity=".4"/>
        </g>
    </g>
</svg>
