<svg width="26" height="26" viewBox="0 0 26 26" xmlns="http://www.w3.org/2000/svg" xmlns:xlink="http://www.w3.org/1999/xlink">
    <defs>
        <rect id="a" x="0" y="0" width="24" height="24" rx="4"/>
    </defs>
    <g transform="translate(1 1)" fill="none" fill-rule="evenodd">
        <mask id="b" fill="#fff">
            <use xlink:href="#a"/>
        </mask>
        <use stroke="#F2F2F7" fill="#FFF" xlink:href="#a"/>
        <g mask="url(#b)" fill-rule="nonzero">
            <path d="M17.96 7.751 14.21 4H6.605A.605.605 0 0 0 6 4.605v10.73h11.96V7.751z" fill="#EFF3F5"/>
            <path d="M14.211 7.146c0 .334.27.605.605.605h3.146L14.211 4v3.146z" fill="#DBDFE0"/>
            <path d="M6.003 15.332v4.063c0 .334.271.605.605.605h10.75c.333 0 .604-.27.604-.605v-4.063H6.003zM8.913 14.646a.85.85 0 0 1-.548-.215c-.286-.239-.308-.503-.28-.683.139-.81 1.644-1.55 2.52-1.915.475-1.19.888-2.592 1.143-3.644-.51-1.093-.69-1.865-.532-2.302a.617.617 0 0 1 .466-.41l.031-.006.032.003a.68.68 0 0 1 .431.283c.237.322.29.841.158 1.547-.038.202-.1.491-.183.838.466.97 1.121 2.04 1.657 2.784a5.204 5.204 0 0 1 1.231-.047c.671.069.813.362.838.532.038.249-.145.507-.457.64-.431.182-1.137.135-1.71-.608l-.075-.101a13.672 13.672 0 0 0-2.731.784c-.589 1.443-1.165 2.27-1.717 2.47a.753.753 0 0 1-.274.05zm1.48-2.303c-1.25.564-1.87 1.122-1.927 1.471-.012.076-.012.192.148.325.148.122.29.154.447.097.438-.157.904-.913 1.333-1.893zm3.686-1.061c.425.5.904.542 1.193.416.152-.063.237-.17.227-.23-.01-.063-.151-.17-.497-.205a4.636 4.636 0 0 0-.923.019zm-2.066-2.564a31.12 31.12 0 0 1-.76 2.495c-.053.148-.103.29-.157.428a14.868 14.868 0 0 1 2.293-.646 20.825 20.825 0 0 1-1.376-2.277zm-.284-2.85a.228.228 0 0 0-.148.154c-.11.302.035.872.315 1.547.025-.12.047-.23.066-.331.145-.784.007-1.121-.091-1.25a.352.352 0 0 0-.142-.12z" fill="#F1786B"/>
            <path d="M14.828 17.424h-.72v-.734h.72a.246.246 0 0 0 0-.492h-.963a.246.246 0 0 0-.246.246v2.444a.246.246 0 0 0 .491 0v-.976h.721c.136 0 .246-.11.246-.246a.248.248 0 0 0-.249-.242zM9.631 16.202h-.497a.246.246 0 0 0-.246.245v2.444a.246.246 0 0 0 .492 0v-.976h.251a.858.858 0 0 0 0-1.713zm0 1.222H9.38v-.734h.251c.202 0 .366.164.366.365a.368.368 0 0 1-.366.369zM11.742 16.202h-.643a.246.246 0 0 0-.245.245v2.444c0 .136.11.246.245.246h.643a1.467 1.467 0 1 0 0-2.935zm0 2.44h-.397v-1.955h.397a.977.977 0 0 1 0 1.956z" fill="#EFF3F5"/>
        </g>
    </g>
</svg>
