<svg width="32" height="32" xmlns="http://www.w3.org/2000/svg">
    <g fill-rule="nonzero" fill="none">
        <path d="M16 0C7.165 0 0 7.165 0 16s7.165 16 16 16 16-7.165 16-16S24.835 0 16 0z" fill="#000"/>
        <path d="M24.027 12.242v2.167a7.542 7.542 0 0 1-4.626-1.572l.015 6.668a5.586 5.586 0 0 1-1.675 3.975 5.702 5.702 0 0 1-3.186 1.593c-.282.042-.57.063-.86.063a5.721 5.721 0 0 1-4.046-1.656 5.59 5.59 0 0 1-1.665-4.355 5.597 5.597 0 0 1 1.412-3.376 5.72 5.72 0 0 1 4.299-1.923c.29 0 .578.022.86.064V16.92a2.703 2.703 0 0 0-3.558 2.603 2.7 2.7 0 0 0 1.32 2.275 2.689 2.689 0 0 0 2.238.246 2.7 2.7 0 0 0 1.855-2.562l.004-4.466V6.864h2.983a4.615 4.615 0 0 0 4.62 4.575h.01v.803z" fill="#FFF"/>
    </g>
</svg>
