<svg width="32" height="32" xmlns="http://www.w3.org/2000/svg">
    <g fill="none" fill-rule="evenodd">
        <path d="M31.956 12.859c-.13-2.97-.68-4.885-1.604-6.608a11.111 11.111 0 0 0-4.63-4.624C23.734.568 21.487.001 17.653.001h-2.786a25.405 25.405 0 0 0-3.788.244c-1.649.187-3.248.682-4.714 1.46a11.301 11.301 0 0 0-4.704 4.697C.578 8.43 0 10.71 0 14.604v2.835c0 3.894.578 6.18 1.662 8.204a11.301 11.301 0 0 0 4.704 4.697C8.394 31.423 10.681 32 14.583 32h2.834c3.9 0 6.189-.577 8.217-1.66a11.3 11.3 0 0 0 4.704-4.697C31.422 23.618 32 21.335 32 17.44v-2.835c0-.618-.015-1.198-.044-1.745z" fill="#FFF"/>
        <path d="M25.755 30.29c-2.192 1.173-4.584 1.653-8.256 1.653h-2.985c-3.67 0-6.06-.48-8.255-1.653a11.034 11.034 0 0 1-4.606-4.62C.48 23.49 0 21.11 0 17.429v-2.99c0-3.672.48-6.063 1.653-8.255A11.017 11.017 0 0 1 5.86 1.8c-4.457 5.71-4.506 16.08-.149 21.877.719 1.068.018 2.92-1.067 4-.172.173-.103.273.151.3 1.54.168 3.475-.271 4.843-.938 5.558 3.08 14.04 3.136 19.721.195a11.034 11.034 0 0 1-3.605 3.056z" fill="#0068FF" fill-rule="nonzero"/>
        <path d="M12.966 17.792v-.738H8.322l4.1-5.148c.059-.074.177-.21.23-.27l.028-.031a1.63 1.63 0 0 0 .286-1.01V10.4H6.592v1.367h4.418L6.64 17.18a1.233 1.233 0 0 0-.238.806v.353h6.015a.548.548 0 0 0 .549-.548zm9.021.538V10.4H20.62v7.475c.002.25.205.454.455.455h.912zm-5.575-6.174c.66 0 1.303.21 1.836.601v-.427h1.278v6h-.73a.548.548 0 0 1-.548-.538 3.115 3.115 0 1 1-1.836-5.631v-.005zM14.58 15.27a1.832 1.832 0 1 1 3.663 0 1.832 1.832 0 0 1-3.663 0zm11.45-3.153a3.138 3.138 0 1 1 .004 6.276 3.138 3.138 0 0 1-.005-6.276zm-1.845 3.138a1.844 1.844 0 1 1 3.688 0 1.844 1.844 0 0 1-3.688 0z" fill="#0068FF"/>
    </g>
</svg>
