<svg width="534" height="253" xmlns="http://www.w3.org/2000/svg" xmlns:xlink="http://www.w3.org/1999/xlink">
    <defs>
        <path id="a" d="m258.18 55.827 20.926 21.923h79.315l-5.169-2.907.246-.436 6 3.375.387.218-.387.218-6 3.375-.246-.436 5.169-2.907H279l-.18-.077-21-22z"/>
        <path id="b" d="m295.525 175.825 22.58 22.925h40.316l-5.169-2.907.246-.436 6 3.375.387.218-.387.218-6 3.375-.246-.436 5.169-2.907H318l-.178-.075-22.653-23z"/>
    </defs>
    <g fill-rule="nonzero" fill="none">
        <path d="M54 0v253H0V0h54zm55 0v253H55V0h54z" fill="#57F"/>
        <path d="M208 0v95h-98V0h98zm99 0v95h-98V0h98z" fill="#738FFF"/>
        <path d="M140.367 96v157H110V96h30.367zM172 96v157h-31V96h31z" fill="#98ABF6"/>
        <path d="M241 96v68h-68V96h68zm66 0v68h-65V96h65z" fill="#6B87F9"/>
        <path d="M207 165v88h-34v-88h34zm34 0v88h-33v-88h33z" fill="#B4C1F2"/>
        <path d="M275 165v61h-33v-61h33zm32 0v61h-31v-61h31z" fill="#C2CEFF"/>
        <path d="M275 227v26h-33v-26h33zm32 0v26h-31v-26h31z" fill="#E1E6FC"/>
        <path d="M268.274 238.888c.486 0 .859.123 1.12.368.262.245.424.592.488 1.04.022.15.032.336.032.56v.256l-.005.035c-.01.03-.035.045-.075.045h-2.584l-.017.004c-.01.004-.015.014-.015.028.011.293.027.483.048.568.059.24.184.43.376.568.192.139.438.208.736.208.224 0 .422-.05.592-.152.171-.101.304-.245.4-.432.032-.048.07-.059.112-.032l.312.184.026.022c.02.024.022.054.006.09a1.44 1.44 0 0 1-.6.604c-.266.147-.573.22-.92.22-.378-.005-.696-.096-.952-.272a1.459 1.459 0 0 1-.552-.736c-.096-.256-.144-.624-.144-1.104 0-.224.004-.407.012-.548.008-.141.028-.268.06-.38.091-.347.274-.624.548-.832.275-.208.607-.312.996-.312zm32.857 0c.486 0 .86.123 1.12.368.262.245.424.592.488 1.04.022.15.032.336.032.56v.256l-.005.035c-.01.03-.035.045-.075.045h-2.584l-.017.004c-.01.004-.015.014-.015.028.011.293.027.483.048.568.06.24.184.43.376.568.192.139.438.208.736.208.224 0 .422-.05.592-.152.171-.101.304-.245.4-.432.032-.048.07-.059.112-.032l.312.184.026.022c.02.024.022.054.006.09a1.44 1.44 0 0 1-.6.604c-.266.147-.573.22-.92.22-.378-.005-.696-.096-.952-.272a1.459 1.459 0 0 1-.552-.736c-.096-.256-.144-.624-.144-1.104 0-.224.004-.407.012-.548.008-.141.028-.268.06-.38.091-.347.274-.624.548-.832.275-.208.607-.312.996-.312zm-51.651-1.552c.379 0 .713.077 1.004.232.29.155.515.372.672.652.157.28.236.604.236.972v2.016l-.007.18a1.879 1.879 0 0 1-.229.792c-.157.28-.381.497-.672.652-.29.155-.625.232-1.004.232s-.712-.077-1-.232a1.639 1.639 0 0 1-.668-.652 1.95 1.95 0 0 1-.236-.972v-2.016l.007-.18c.021-.295.098-.559.229-.792.157-.28.38-.497.668-.652a2.081 2.081 0 0 1 1-.232zm32 0c.379 0 .713.077 1.004.232.29.155.515.372.672.652.157.28.236.604.236.972v2.016l-.007.18a1.879 1.879 0 0 1-.229.792c-.157.28-.381.497-.672.652-.29.155-.625.232-1.004.232s-.712-.077-1-.232a1.639 1.639 0 0 1-.668-.652 1.95 1.95 0 0 1-.236-.972v-2.016l.007-.18c.021-.295.098-.559.229-.792.157-.28.38-.497.668-.652a2.081 2.081 0 0 1 1-.232zm9.47.064.036.005c.03.01.045.035.045.075v5.44l-.005.035c-.01.03-.035.045-.075.045h-.408l-.035-.005c-.03-.01-.045-.035-.045-.075v-5.44l.005-.035c.01-.03.035-.045.075-.045h.408zm-27.09 1.496c.426 0 .766.125 1.02.376.253.25.38.587.38 1.008v2.64l-.006.035c-.01.03-.035.045-.075.045h-.408l-.035-.005c-.03-.01-.045-.035-.045-.075v-2.528l-.007-.142a.96.96 0 0 0-.26-.578.915.915 0 0 0-.693-.28c-.293 0-.53.09-.712.272-.18.181-.272.419-.272.712v2.544l-.005.035c-.01.03-.035.045-.075.045h-.408l-.035-.005c-.03-.01-.045-.035-.045-.075v-3.888l.005-.035c.01-.03.035-.045.075-.045h.408l.035.005c.03.01.045.035.045.075v.344l.003.014.01.01c.007.005.014.003.02-.008.234-.33.594-.496 1.08-.496zm-9.221 0c.427 0 .767.125 1.02.376.253.25.38.587.38 1.008v2.64l-.005.035c-.01.03-.035.045-.075.045h-.408l-.035-.005c-.03-.01-.045-.035-.045-.075v-2.528l-.008-.142a.96.96 0 0 0-.26-.578.915.915 0 0 0-.692-.28c-.293 0-.53.09-.712.272-.181.181-.272.419-.272.712v2.544l-.005.035c-.01.03-.035.045-.075.045h-.408l-.035-.005c-.03-.01-.045-.035-.045-.075v-3.888l.005-.035c.01-.03.035-.045.075-.045h.408l.035.005c.03.01.045.035.045.075v.344l.003.014.009.01c.008.005.015.003.02-.008.235-.33.595-.496 1.08-.496zm3.463-1.496.035.005c.03.01.045.035.045.075v5.44l-.005.035c-.01.03-.035.045-.075.045h-.408l-.035-.005c-.03-.01-.045-.035-.045-.075v-5.44l.005-.035c.01-.03.035-.045.075-.045h.408zm38.615 1.496c.426 0 .766.125 1.02.376.253.25.38.587.38 1.008v2.64l-.005.035c-.01.03-.035.045-.075.045h-.408l-.035-.005c-.03-.01-.045-.035-.045-.075v-2.528l-.008-.142a.96.96 0 0 0-.26-.578.915.915 0 0 0-.692-.28c-.294 0-.531.09-.712.272-.182.181-.272.419-.272.712v2.544l-.005.035c-.01.03-.035.045-.075.045h-.408l-.035-.005c-.03-.01-.045-.035-.045-.075v-3.888l.005-.035c.01-.03.035-.045.075-.045h.408l.035.005c.03.01.045.035.045.075v.344l.003.014.009.01c.008.005.014.003.02-.008.234-.33.594-.496 1.08-.496zm-9.99-1.496.035.005c.03.01.045.035.045.075v.256l-.005.035c-.01.03-.035.045-.075.045h-.232l-.134.008c-.21.023-.358.092-.442.208-.101.139-.152.355-.152.648v.24l.003.018c.005.01.015.014.029.014h2.056l.018-.004c.01-.004.014-.014.014-.028v-.28l.006-.178c.023-.342.117-.599.282-.77.192-.2.528-.297 1.008-.292h.232l.035.005c.03.01.045.035.045.075v.256l-.005.035c-.01.03-.035.045-.075.045h-.232l-.134.008c-.21.023-.358.092-.442.208-.101.139-.152.355-.152.648v.24l.003.018c.005.01.015.014.029.014h.928l.035.005c.03.01.045.035.045.075v.312l-.005.035c-.01.03-.035.045-.075.045h-.928l-.018.004c-.01.004-.014.014-.014.028v3.464l-.005.035c-.01.03-.035.045-.075.045h-.408l-.035-.005c-.03-.01-.045-.035-.045-.075v-3.464l-.004-.018c-.004-.01-.014-.014-.028-.014h-2.056l-.018.004c-.01.004-.014.014-.014.028v3.464l-.005.035c-.01.03-.035.045-.075.045h-.4l-.035-.005c-.03-.01-.045-.035-.045-.075v-3.464l-.004-.018c-.004-.01-.014-.014-.028-.014h-.504l-.035-.005c-.03-.01-.045-.035-.045-.075v-.312l.005-.035c.01-.03.035-.045.075-.045h.504l.018-.004c.01-.004.014-.014.014-.028v-.28l.006-.178c.023-.342.116-.599.278-.77.19-.2.524-.297 1.004-.292h.232zm6.495 1.544.035.005c.03.01.045.035.045.075v3.888l-.005.035c-.01.03-.035.045-.075.045h-.408l-.035-.005c-.03-.01-.045-.035-.045-.075v-3.888l.005-.035c.01-.03.035-.045.075-.045h.408zm-32.857 0 .035.005c.03.01.045.035.045.075v3.888l-.005.035c-.01.03-.035.045-.075.045h-.408l-.035-.005c-.03-.01-.045-.035-.045-.075v-3.888l.005-.035c.01-.03.035-.045.075-.045h.408zm21.115-1.112c-.4 0-.723.124-.968.372s-.368.575-.368.98v2.048l.008.169c.03.328.15.597.36.807.245.245.568.368.968.368.405 0 .73-.123.976-.368.245-.245.368-.57.368-.976v-2.048l-.008-.169a1.28 1.28 0 0 0-.36-.811c-.245-.248-.57-.372-.976-.372zm-32 0c-.4 0-.723.124-.968.372s-.368.575-.368.98v2.048l.008.169c.03.328.15.597.36.807.245.245.568.368.968.368.405 0 .73-.123.976-.368.245-.245.368-.57.368-.976v-2.048l-.008-.169a1.28 1.28 0 0 0-.36-.811c-.245-.248-.57-.372-.976-.372zm18.794 1.552c-.261 0-.478.068-.652.204a.945.945 0 0 0-.34.548 2.59 2.59 0 0 0-.064.544c0 .021.011.032.032.032h2.072c.022 0 .032-.01.032-.032-.01-.24-.026-.41-.048-.512a1.01 1.01 0 0 0-.356-.572c-.178-.141-.404-.212-.676-.212zm32.857 0c-.26 0-.478.068-.652.204a.945.945 0 0 0-.34.548 2.59 2.59 0 0 0-.064.544c0 .021.011.032.032.032h2.072c.022 0 .032-.01.032-.032-.01-.24-.026-.41-.048-.512a1.01 1.01 0 0 0-.356-.572c-.178-.141-.404-.212-.676-.212zm-8.093-2.064a.43.43 0 0 1 .448.448.434.434 0 0 1-.448.448.434.434 0 0 1-.448-.448.43.43 0 0 1 .448-.448zm-32.857 0a.43.43 0 0 1 .448.448.434.434 0 0 1-.448.448.434.434 0 0 1-.448-.448.43.43 0 0 1 .448-.448zm-60.907-29.432c.486 0 .859.123 1.12.368.262.245.424.592.488 1.04.022.15.032.336.032.56v.256l-.005.035c-.01.03-.035.045-.075.045h-2.584l-.017.004c-.01.004-.015.014-.015.028.011.293.027.483.048.568.059.24.184.43.376.568.192.139.438.208.736.208.224 0 .422-.05.592-.152.171-.101.304-.245.4-.432.032-.048.07-.059.112-.032l.312.184.026.022c.02.024.022.054.006.09a1.44 1.44 0 0 1-.6.604c-.266.147-.573.22-.92.22-.378-.005-.696-.096-.952-.272a1.459 1.459 0 0 1-.552-.736c-.096-.256-.144-.624-.144-1.104 0-.224.004-.407.012-.548.008-.141.028-.268.06-.38.091-.347.274-.624.548-.832.275-.208.607-.312.996-.312zm34.857 0c.486 0 .86.123 1.12.368.262.245.424.592.488 1.04.022.15.032.336.032.56v.256l-.005.035c-.01.03-.035.045-.075.045h-2.584l-.017.004c-.01.004-.015.014-.015.028.011.293.027.483.048.568.06.24.184.43.376.568.192.139.438.208.736.208.224 0 .422-.05.592-.152.171-.101.304-.245.4-.432.032-.048.07-.059.112-.032l.312.184.026.022c.02.024.022.054.006.09a1.44 1.44 0 0 1-.6.604c-.266.147-.573.22-.92.22-.378-.005-.696-.096-.952-.272a1.459 1.459 0 0 1-.552-.736c-.096-.256-.144-.624-.144-1.104 0-.224.004-.407.012-.548.008-.141.028-.268.06-.38.091-.347.274-.624.548-.832.275-.208.607-.312.996-.312zm-19.651-1.552c.379 0 .713.077 1.004.232.29.155.515.372.672.652.157.28.236.604.236.972v2.016l-.007.18a1.879 1.879 0 0 1-.229.792c-.157.28-.381.497-.672.652-.29.155-.625.232-1.004.232s-.712-.077-1-.232a1.639 1.639 0 0 1-.668-.652 1.95 1.95 0 0 1-.236-.972v-2.016l.007-.18c.021-.295.098-.559.229-.792.157-.28.38-.497.668-.652a2.081 2.081 0 0 1 1-.232zm-34 0c.379 0 .713.077 1.004.232.29.155.515.372.672.652.157.28.236.604.236.972v2.016l-.007.18a1.879 1.879 0 0 1-.229.792c-.157.28-.381.497-.672.652-.29.155-.625.232-1.004.232s-.712-.077-1-.232a1.639 1.639 0 0 1-.668-.652 1.95 1.95 0 0 1-.236-.972v-2.016l.007-.18c.021-.295.098-.559.229-.792.157-.28.38-.497.668-.652a2.081 2.081 0 0 1 1-.232zm5.159 1.56c.427 0 .767.125 1.02.376.253.25.38.587.38 1.008v2.64l-.005.035c-.01.03-.035.045-.075.045h-.408l-.035-.005c-.03-.01-.045-.035-.045-.075v-2.528l-.008-.142a.96.96 0 0 0-.26-.578.915.915 0 0 0-.692-.28c-.293 0-.53.09-.712.272-.181.181-.272.419-.272.712v2.544l-.005.035c-.01.03-.035.045-.075.045h-.408l-.035-.005c-.03-.01-.045-.035-.045-.075v-3.888l.005-.035c.01-.03.035-.045.075-.045h.408l.035.005c.03.01.045.035.045.075v.344l.003.014.009.01c.008.005.015.003.02-.008.235-.33.595-.496 1.08-.496zm44.078 0c.426 0 .766.125 1.02.376.253.25.38.587.38 1.008v2.64l-.005.035c-.01.03-.035.045-.075.045h-.408l-.035-.005c-.03-.01-.045-.035-.045-.075v-2.528l-.008-.142a.96.96 0 0 0-.26-.578.915.915 0 0 0-.692-.28c-.294 0-.531.09-.712.272-.182.181-.272.419-.272.712v2.544l-.005.035c-.01.03-.035.045-.075.045h-.408l-.035-.005c-.03-.01-.045-.035-.045-.075v-3.888l.005-.035c.01-.03.035-.045.075-.045h.408l.035.005c.03.01.045.035.045.075v.344l.003.014.009.01c.008.005.014.003.02-.008.234-.33.594-.496 1.08-.496zm-40.615-1.496.035.005c.03.01.045.035.045.075v5.44l-.005.035c-.01.03-.035.045-.075.045h-.408l-.035-.005c-.03-.01-.045-.035-.045-.075v-5.44l.005-.035c.01-.03.035-.045.075-.045h.408zm5.757 1.496c.427 0 .767.125 1.02.376.254.25.38.587.38 1.008v2.64l-.005.035c-.01.03-.035.045-.075.045h-.408l-.035-.005c-.03-.01-.045-.035-.045-.075v-2.528l-.007-.142a.96.96 0 0 0-.26-.578.915.915 0 0 0-.693-.28c-.293 0-.53.09-.712.272-.18.181-.272.419-.272.712v2.544l-.005.035c-.01.03-.035.045-.075.045h-.408l-.035-.005c-.03-.01-.045-.035-.045-.075v-3.888l.005-.035c.01-.03.035-.045.075-.045h.408l.035.005c.03.01.045.035.045.075v.344l.003.014.01.01c.007.005.014.003.02-.008.234-.33.594-.496 1.08-.496zm24.868-1.496.035.005c.03.01.045.035.045.075v.256l-.005.035c-.01.03-.035.045-.075.045h-.232l-.134.008c-.21.023-.358.092-.442.208-.101.139-.152.355-.152.648v.24l.003.018c.005.01.015.014.029.014h2.056l.018-.004c.01-.004.014-.014.014-.028v-.28l.006-.178c.023-.342.117-.599.282-.77.192-.2.528-.297 1.008-.292h.232l.035.005c.03.01.045.035.045.075v.256l-.005.035c-.01.03-.035.045-.075.045h-.232l-.134.008c-.21.023-.358.092-.442.208-.101.139-.152.355-.152.648v.24l.003.018c.005.01.015.014.029.014h.928l.035.005c.03.01.045.035.045.075v.312l-.005.035c-.01.03-.035.045-.075.045h-.928l-.018.004c-.01.004-.014.014-.014.028v3.464l-.005.035c-.01.03-.035.045-.075.045h-.408l-.035-.005c-.03-.01-.045-.035-.045-.075v-3.464l-.004-.018c-.004-.01-.014-.014-.028-.014h-2.056l-.018.004c-.01.004-.014.014-.014.028v3.464l-.005.035c-.01.03-.035.045-.075.045h-.4l-.035-.005c-.03-.01-.045-.035-.045-.075v-3.464l-.004-.018c-.004-.01-.014-.014-.028-.014h-.504l-.035-.005c-.03-.01-.045-.035-.045-.075v-.312l.005-.035c.01-.03.035-.045.075-.045h.504l.018-.004c.01-.004.014-.014.014-.028v-.28l.006-.178c.023-.342.116-.599.278-.77.19-.2.524-.297 1.004-.292h.232zm4.224 0 .035.005c.03.01.045.035.045.075v5.44l-.005.035c-.01.03-.035.045-.075.045h-.408l-.035-.005c-.03-.01-.045-.035-.045-.075v-5.44l.005-.035c.01-.03.035-.045.075-.045h.408zm-32.586 1.544.035.005c.03.01.045.035.045.075v3.888l-.005.035c-.01.03-.035.045-.075.045h-.408l-.035-.005c-.03-.01-.045-.035-.045-.075v-3.888l.005-.035c.01-.03.035-.045.075-.045h.408zm34.857 0 .035.005c.03.01.045.035.045.075v3.888l-.005.035c-.01.03-.035.045-.075.045h-.408l-.035-.005c-.03-.01-.045-.035-.045-.075v-3.888l.005-.035c.01-.03.035-.045.075-.045h.408zm-11.742-1.112c-.4 0-.723.124-.968.372s-.368.575-.368.98v2.048l.008.169c.03.328.15.597.36.807.245.245.568.368.968.368.405 0 .73-.123.976-.368.245-.245.368-.57.368-.976v-2.048l-.008-.169a1.28 1.28 0 0 0-.36-.811c-.245-.248-.57-.372-.976-.372zm-34 0c-.4 0-.723.124-.968.372s-.368.575-.368.98v2.048l.008.169c.03.328.15.597.36.807.245.245.568.368.968.368.405 0 .73-.123.976-.368.245-.245.368-.57.368-.976v-2.048l-.008-.169a1.28 1.28 0 0 0-.36-.811c-.245-.248-.57-.372-.976-.372zm53.651 1.552c-.26 0-.478.068-.652.204a.945.945 0 0 0-.34.548 2.59 2.59 0 0 0-.064.544c0 .021.011.032.032.032h2.072c.022 0 .032-.01.032-.032-.01-.24-.026-.41-.048-.512a1.01 1.01 0 0 0-.356-.572c-.178-.141-.404-.212-.676-.212zm-34.857 0c-.261 0-.478.068-.652.204a.945.945 0 0 0-.34.548 2.59 2.59 0 0 0-.064.544c0 .021.011.032.032.032h2.072c.022 0 .032-.01.032-.032-.01-.24-.026-.41-.048-.512a1.01 1.01 0 0 0-.356-.572c-.178-.141-.404-.212-.676-.212zm26.764-2.064a.43.43 0 0 1 .448.448.434.434 0 0 1-.448.448.434.434 0 0 1-.448-.448.43.43 0 0 1 .448-.448zm-34.857 0a.43.43 0 0 1 .448.448.434.434 0 0 1-.448.448.434.434 0 0 1-.448-.448.43.43 0 0 1 .448-.448zm109.95-11.432c.486 0 .86.123 1.12.368.262.245.424.592.488 1.04.022.15.032.336.032.56v.256l-.005.035c-.01.03-.035.045-.075.045h-2.584l-.017.004c-.01.004-.015.014-.015.028.011.293.027.483.048.568.06.24.184.43.376.568.192.139.438.208.736.208.224 0 .422-.05.592-.152.171-.101.304-.245.4-.432.032-.048.07-.059.112-.032l.312.184.026.022c.02.024.022.054.006.09a1.44 1.44 0 0 1-.6.604c-.266.147-.573.22-.92.22-.378-.005-.696-.096-.952-.272a1.459 1.459 0 0 1-.552-.736c-.096-.256-.144-.624-.144-1.104 0-.224.004-.407.012-.548.008-.141.028-.268.06-.38.091-.347.274-.624.548-.832.275-.208.607-.312.996-.312zm-32.857 0c.486 0 .859.123 1.12.368.262.245.424.592.488 1.04.022.15.032.336.032.56v.256l-.005.035c-.01.03-.035.045-.075.045h-2.584l-.017.004c-.01.004-.015.014-.015.028.011.293.027.483.048.568.059.24.184.43.376.568.192.139.438.208.736.208.224 0 .422-.05.592-.152.171-.101.304-.245.4-.432.032-.048.07-.059.112-.032l.312.184.026.022c.02.024.022.054.006.09a1.44 1.44 0 0 1-.6.604c-.266.147-.573.22-.92.22-.378-.005-.696-.096-.952-.272a1.459 1.459 0 0 1-.552-.736c-.096-.256-.144-.624-.144-1.104 0-.224.004-.407.012-.548.008-.141.028-.268.06-.38.091-.347.274-.624.548-.832.275-.208.607-.312.996-.312zm13.206-1.552c.379 0 .713.077 1.004.232.29.155.515.372.672.652.157.28.236.604.236.972v2.016l-.007.18a1.879 1.879 0 0 1-.229.792c-.157.28-.381.497-.672.652-.29.155-.625.232-1.004.232s-.712-.077-1-.232a1.639 1.639 0 0 1-.668-.652 1.95 1.95 0 0 1-.236-.972v-2.016l.007-.18c.021-.295.098-.559.229-.792.157-.28.38-.497.668-.652a2.081 2.081 0 0 1 1-.232zm-32 0c.379 0 .713.077 1.004.232.29.155.515.372.672.652.157.28.236.604.236.972v2.016l-.007.18a1.879 1.879 0 0 1-.229.792c-.157.28-.381.497-.672.652-.29.155-.625.232-1.004.232s-.712-.077-1-.232a1.639 1.639 0 0 1-.668-.652 1.95 1.95 0 0 1-.236-.972v-2.016l.007-.18c.021-.295.098-.559.229-.792.157-.28.38-.497.668-.652a2.081 2.081 0 0 1 1-.232zm14.38 1.56c.426 0 .766.125 1.02.376.253.25.38.587.38 1.008v2.64l-.006.035c-.01.03-.035.045-.075.045h-.408l-.035-.005c-.03-.01-.045-.035-.045-.075v-2.528l-.007-.142a.96.96 0 0 0-.26-.578.915.915 0 0 0-.693-.28c-.293 0-.53.09-.712.272-.18.181-.272.419-.272.712v2.544l-.005.035c-.01.03-.035.045-.075.045h-.408l-.035-.005c-.03-.01-.045-.035-.045-.075v-3.888l.005-.035c.01-.03.035-.045.075-.045h.408l.035.005c.03.01.045.035.045.075v.344l.003.014.01.01c.007.005.014.003.02-.008.234-.33.594-.496 1.08-.496zm-9.221 0c.427 0 .767.125 1.02.376.253.25.38.587.38 1.008v2.64l-.005.035c-.01.03-.035.045-.075.045h-.408l-.035-.005c-.03-.01-.045-.035-.045-.075v-2.528l-.008-.142a.96.96 0 0 0-.26-.578.915.915 0 0 0-.692-.28c-.293 0-.53.09-.712.272-.181.181-.272.419-.272.712v2.544l-.005.035c-.01.03-.035.045-.075.045h-.408l-.035-.005c-.03-.01-.045-.035-.045-.075v-3.888l.005-.035c.01-.03.035-.045.075-.045h.408l.035.005c.03.01.045.035.045.075v.344l.003.014.009.01c.008.005.015.003.02-.008.235-.33.595-.496 1.08-.496zm42.078 0c.426 0 .766.125 1.02.376.253.25.38.587.38 1.008v2.64l-.005.035c-.01.03-.035.045-.075.045h-.408l-.035-.005c-.03-.01-.045-.035-.045-.075v-2.528l-.008-.142a.96.96 0 0 0-.26-.578.915.915 0 0 0-.692-.28c-.294 0-.531.09-.712.272-.182.181-.272.419-.272.712v2.544l-.005.035c-.01.03-.035.045-.075.045h-.408l-.035-.005c-.03-.01-.045-.035-.045-.075v-3.888l.005-.035c.01-.03.035-.045.075-.045h.408l.035.005c.03.01.045.035.045.075v.344l.003.014.009.01c.008.005.014.003.02-.008.234-.33.594-.496 1.08-.496zm-5.766-1.496.035.005c.03.01.045.035.045.075v5.44l-.005.035c-.01.03-.035.045-.075.045h-.408l-.035-.005c-.03-.01-.045-.035-.045-.075v-5.44l.005-.035c.01-.03.035-.045.075-.045h.408zm-4.224 0 .035.005c.03.01.045.035.045.075v.256l-.005.035c-.01.03-.035.045-.075.045h-.232l-.134.008c-.21.023-.358.092-.442.208-.101.139-.152.355-.152.648v.24l.003.018c.005.01.015.014.029.014h2.056l.018-.004c.01-.004.014-.014.014-.028v-.28l.006-.178c.023-.342.117-.599.282-.77.192-.2.528-.297 1.008-.292h.232l.035.005c.03.01.045.035.045.075v.256l-.005.035c-.01.03-.035.045-.075.045h-.232l-.134.008c-.21.023-.358.092-.442.208-.101.139-.152.355-.152.648v.24l.003.018c.005.01.015.014.029.014h.928l.035.005c.03.01.045.035.045.075v.312l-.005.035c-.01.03-.035.045-.075.045h-.928l-.018.004c-.01.004-.014.014-.014.028v3.464l-.005.035c-.01.03-.035.045-.075.045h-.408l-.035-.005c-.03-.01-.045-.035-.045-.075v-3.464l-.004-.018c-.004-.01-.014-.014-.028-.014h-2.056l-.018.004c-.01.004-.014.014-.014.028v3.464l-.005.035c-.01.03-.035.045-.075.045h-.4l-.035-.005c-.03-.01-.045-.035-.045-.075v-3.464l-.004-.018c-.004-.01-.014-.014-.028-.014h-.504l-.035-.005c-.03-.01-.045-.035-.045-.075v-.312l.005-.035c.01-.03.035-.045.075-.045h.504l.018-.004c.01-.004.014-.014.014-.028v-.28l.006-.178c.023-.342.116-.599.278-.77.19-.2.524-.297 1.004-.292h.232zm-28.625 0 .035.005c.03.01.045.035.045.075v5.44l-.005.035c-.01.03-.035.045-.075.045h-.408l-.035-.005c-.03-.01-.045-.035-.045-.075v-5.44l.005-.035c.01-.03.035-.045.075-.045h.408zm2.263 1.544.035.005c.03.01.045.035.045.075v3.888l-.005.035c-.01.03-.035.045-.075.045h-.408l-.035-.005c-.03-.01-.045-.035-.045-.075v-3.888l.005-.035c.01-.03.035-.045.075-.045h.408zm32.857 0 .035.005c.03.01.045.035.045.075v3.888l-.005.035c-.01.03-.035.045-.075.045h-.408l-.035-.005c-.03-.01-.045-.035-.045-.075v-3.888l.005-.035c.01-.03.035-.045.075-.045h.408zm-43.742-1.112c-.4 0-.723.124-.968.372s-.368.575-.368.98v2.048l.008.169c.03.328.15.597.36.807.245.245.568.368.968.368.405 0 .73-.123.976-.368.245-.245.368-.57.368-.976v-2.048l-.008-.169a1.28 1.28 0 0 0-.36-.811c-.245-.248-.57-.372-.976-.372zm32 0c-.4 0-.723.124-.968.372s-.368.575-.368.98v2.048l.008.169c.03.328.15.597.36.807.245.245.568.368.968.368.405 0 .73-.123.976-.368.245-.245.368-.57.368-.976v-2.048l-.008-.169a1.28 1.28 0 0 0-.36-.811c-.245-.248-.57-.372-.976-.372zm19.651 1.552c-.26 0-.478.068-.652.204a.945.945 0 0 0-.34.548 2.59 2.59 0 0 0-.064.544c0 .021.011.032.032.032h2.072c.022 0 .032-.01.032-.032-.01-.24-.026-.41-.048-.512a1.01 1.01 0 0 0-.356-.572c-.178-.141-.404-.212-.676-.212zm-32.857 0c-.261 0-.478.068-.652.204a.945.945 0 0 0-.34.548 2.59 2.59 0 0 0-.064.544c0 .021.011.032.032.032h2.072c.022 0 .032-.01.032-.032-.01-.24-.026-.41-.048-.512a1.01 1.01 0 0 0-.356-.572c-.178-.141-.404-.212-.676-.212zm24.764-2.064a.43.43 0 0 1 .448.448.434.434 0 0 1-.448.448.434.434 0 0 1-.448-.448.43.43 0 0 1 .448-.448zm-32.857 0a.43.43 0 0 1 .448.448.434.434 0 0 1-.448.448.434.434 0 0 1-.448-.448.43.43 0 0 1 .448-.448zm-125.907-19.432c.486 0 .859.123 1.12.368.262.245.424.592.488 1.04.022.15.032.336.032.56v.256l-.005.035c-.01.03-.035.045-.075.045h-2.584l-.017.004c-.01.004-.015.014-.015.028.011.293.027.483.048.568.059.24.184.43.376.568.192.139.438.208.736.208.224 0 .422-.05.592-.152.171-.101.304-.245.4-.432.032-.048.07-.059.112-.032l.312.184.026.022c.02.024.022.054.006.09a1.44 1.44 0 0 1-.6.604c-.266.147-.573.22-.92.22-.378-.005-.696-.096-.952-.272a1.459 1.459 0 0 1-.552-.736c-.096-.256-.144-.624-.144-1.104 0-.224.004-.407.012-.548.008-.141.028-.268.06-.38.091-.347.274-.624.548-.832.275-.208.607-.312.996-.312zm32.857 0c.486 0 .86.123 1.12.368.262.245.424.592.488 1.04.022.15.032.336.032.56v.256l-.005.035c-.01.03-.035.045-.075.045h-2.584l-.017.004c-.01.004-.015.014-.015.028.011.293.027.483.048.568.06.24.184.43.376.568.192.139.438.208.736.208.224 0 .422-.05.592-.152.171-.101.304-.245.4-.432.032-.048.07-.059.112-.032l.312.184.026.022c.02.024.022.054.006.09a1.44 1.44 0 0 1-.6.604c-.266.147-.573.22-.92.22-.378-.005-.696-.096-.952-.272a1.459 1.459 0 0 1-.552-.736c-.096-.256-.144-.624-.144-1.104 0-.224.004-.407.012-.548.008-.141.028-.268.06-.38.091-.347.274-.624.548-.832.275-.208.607-.312.996-.312zm-19.651-1.552c.379 0 .713.077 1.004.232.29.155.515.372.672.652.157.28.236.604.236.972v2.016l-.007.18a1.879 1.879 0 0 1-.229.792c-.157.28-.381.497-.672.652-.29.155-.625.232-1.004.232s-.712-.077-1-.232a1.639 1.639 0 0 1-.668-.652 1.95 1.95 0 0 1-.236-.972v-2.016l.007-.18c.021-.295.098-.559.229-.792.157-.28.38-.497.668-.652a2.081 2.081 0 0 1 1-.232zm-32 0c.379 0 .713.077 1.004.232.29.155.515.372.672.652.157.28.236.604.236.972v2.016l-.007.18a1.879 1.879 0 0 1-.229.792c-.157.28-.381.497-.672.652-.29.155-.625.232-1.004.232s-.712-.077-1-.232a1.639 1.639 0 0 1-.668-.652 1.95 1.95 0 0 1-.236-.972v-2.016l.007-.18c.021-.295.098-.559.229-.792.157-.28.38-.497.668-.652a2.081 2.081 0 0 1 1-.232zm47.237 1.56c.426 0 .766.125 1.02.376.253.25.38.587.38 1.008v2.64l-.005.035c-.01.03-.035.045-.075.045h-.408l-.035-.005c-.03-.01-.045-.035-.045-.075v-2.528l-.008-.142a.96.96 0 0 0-.26-.578.915.915 0 0 0-.692-.28c-.294 0-.531.09-.712.272-.182.181-.272.419-.272.712v2.544l-.005.035c-.01.03-.035.045-.075.045h-.408l-.035-.005c-.03-.01-.045-.035-.045-.075v-3.888l.005-.035c.01-.03.035-.045.075-.045h.408l.035.005c.03.01.045.035.045.075v.344l.003.014.009.01c.008.005.014.003.02-.008.234-.33.594-.496 1.08-.496zm-32.858 0c.427 0 .767.125 1.02.376.254.25.38.587.38 1.008v2.64l-.005.035c-.01.03-.035.045-.075.045h-.408l-.035-.005c-.03-.01-.045-.035-.045-.075v-2.528l-.007-.142a.96.96 0 0 0-.26-.578.915.915 0 0 0-.693-.28c-.293 0-.53.09-.712.272-.18.181-.272.419-.272.712v2.544l-.005.035c-.01.03-.035.045-.075.045h-.408l-.035-.005c-.03-.01-.045-.035-.045-.075v-3.888l.005-.035c.01-.03.035-.045.075-.045h.408l.035.005c.03.01.045.035.045.075v.344l.003.014.01.01c.007.005.014.003.02-.008.234-.33.594-.496 1.08-.496zm-9.22 0c.427 0 .767.125 1.02.376.253.25.38.587.38 1.008v2.64l-.005.035c-.01.03-.035.045-.075.045h-.408l-.035-.005c-.03-.01-.045-.035-.045-.075v-2.528l-.008-.142a.96.96 0 0 0-.26-.578.915.915 0 0 0-.692-.28c-.293 0-.53.09-.712.272-.181.181-.272.419-.272.712v2.544l-.005.035c-.01.03-.035.045-.075.045h-.408l-.035-.005c-.03-.01-.045-.035-.045-.075v-3.888l.005-.035c.01-.03.035-.045.075-.045h.408l.035.005c.03.01.045.035.045.075v.344l.003.014.009.01c.008.005.015.003.02-.008.235-.33.595-.496 1.08-.496zm3.463-1.496.035.005c.03.01.045.035.045.075v5.44l-.005.035c-.01.03-.035.045-.075.045h-.408l-.035-.005c-.03-.01-.045-.035-.045-.075v-5.44l.005-.035c.01-.03.035-.045.075-.045h.408zm32.849 0 .035.005c.03.01.045.035.045.075v5.44l-.005.035c-.01.03-.035.045-.075.045h-.408l-.035-.005c-.03-.01-.045-.035-.045-.075v-5.44l.005-.035c.01-.03.035-.045.075-.045h.408zm-4.224 0 .035.005c.03.01.045.035.045.075v.256l-.005.035c-.01.03-.035.045-.075.045h-.232l-.134.008c-.21.023-.358.092-.442.208-.101.139-.152.355-.152.648v.24l.003.018c.005.01.015.014.029.014h2.056l.018-.004c.01-.004.014-.014.014-.028v-.28l.006-.178c.023-.342.117-.599.282-.77.192-.2.528-.297 1.008-.292h.232l.035.005c.03.01.045.035.045.075v.256l-.005.035c-.01.03-.035.045-.075.045h-.232l-.134.008c-.21.023-.358.092-.442.208-.101.139-.152.355-.152.648v.24l.003.018c.005.01.015.014.029.014h.928l.035.005c.03.01.045.035.045.075v.312l-.005.035c-.01.03-.035.045-.075.045h-.928l-.018.004c-.01.004-.014.014-.014.028v3.464l-.005.035c-.01.03-.035.045-.075.045h-.408l-.035-.005c-.03-.01-.045-.035-.045-.075v-3.464l-.004-.018c-.004-.01-.014-.014-.028-.014h-2.056l-.018.004c-.01.004-.014.014-.014.028v3.464l-.005.035c-.01.03-.035.045-.075.045h-.4l-.035-.005c-.03-.01-.045-.035-.045-.075v-3.464l-.004-.018c-.004-.01-.014-.014-.028-.014h-.504l-.035-.005c-.03-.01-.045-.035-.045-.075v-.312l.005-.035c.01-.03.035-.045.075-.045h.504l.018-.004c.01-.004.014-.014.014-.028v-.28l.006-.178c.023-.342.116-.599.278-.77.19-.2.524-.297 1.004-.292h.232zm-26.362 1.544.035.005c.03.01.045.035.045.075v3.888l-.005.035c-.01.03-.035.045-.075.045h-.408l-.035-.005c-.03-.01-.045-.035-.045-.075v-3.888l.005-.035c.01-.03.035-.045.075-.045h.408zm32.857 0 .035.005c.03.01.045.035.045.075v3.888l-.005.035c-.01.03-.035.045-.075.045h-.408l-.035-.005c-.03-.01-.045-.035-.045-.075v-3.888l.005-.035c.01-.03.035-.045.075-.045h.408zm-11.742-1.112c-.4 0-.723.124-.968.372s-.368.575-.368.98v2.048l.008.169c.03.328.15.597.36.807.245.245.568.368.968.368.405 0 .73-.123.976-.368.245-.245.368-.57.368-.976v-2.048l-.008-.169a1.28 1.28 0 0 0-.36-.811c-.245-.248-.57-.372-.976-.372zm-32 0c-.4 0-.723.124-.968.372s-.368.575-.368.98v2.048l.008.169c.03.328.15.597.36.807.245.245.568.368.968.368.405 0 .73-.123.976-.368.245-.245.368-.57.368-.976v-2.048l-.008-.169a1.28 1.28 0 0 0-.36-.811c-.245-.248-.57-.372-.976-.372zm18.794 1.552c-.261 0-.478.068-.652.204a.945.945 0 0 0-.34.548 2.59 2.59 0 0 0-.064.544c0 .021.011.032.032.032h2.072c.022 0 .032-.01.032-.032-.01-.24-.026-.41-.048-.512a1.01 1.01 0 0 0-.356-.572c-.178-.141-.404-.212-.676-.212zm32.857 0c-.26 0-.478.068-.652.204a.945.945 0 0 0-.34.548 2.59 2.59 0 0 0-.064.544c0 .021.011.032.032.032h2.072c.022 0 .032-.01.032-.032-.01-.24-.026-.41-.048-.512a1.01 1.01 0 0 0-.356-.572c-.178-.141-.404-.212-.676-.212zm-40.95-2.064a.43.43 0 0 1 .448.448.434.434 0 0 1-.448.448.434.434 0 0 1-.448-.448.43.43 0 0 1 .448-.448zm32.857 0a.43.43 0 0 1 .448.448.434.434 0 0 1-.448.448.434.434 0 0 1-.448-.448.43.43 0 0 1 .448-.448zm125.093-43.432c.486 0 .86.123 1.12.368.262.245.424.592.488 1.04.022.15.032.336.032.56v.256l-.005.035c-.01.03-.035.045-.075.045h-2.584l-.017.004c-.01.004-.015.014-.015.028.011.293.027.483.048.568.06.24.184.43.376.568.192.139.438.208.736.208.224 0 .422-.05.592-.152.171-.101.304-.245.4-.432.032-.048.07-.059.112-.032l.312.184.026.022c.02.024.022.054.006.09a1.44 1.44 0 0 1-.6.604c-.266.147-.573.22-.92.22-.378-.005-.696-.096-.952-.272a1.459 1.459 0 0 1-.552-.736c-.096-.256-.144-.624-.144-1.104 0-.224.004-.407.012-.548.008-.141.028-.268.06-.38.091-.347.274-.624.548-.832.275-.208.607-.312.996-.312zm-67.857 0c.486 0 .859.123 1.12.368.262.245.424.592.488 1.04.022.15.032.336.032.56v.256l-.005.035c-.01.03-.035.045-.075.045h-2.584l-.017.004c-.01.004-.015.014-.015.028.011.293.027.483.048.568.059.24.184.43.376.568.192.139.438.208.736.208.224 0 .422-.05.592-.152.171-.101.304-.245.4-.432.032-.048.07-.059.112-.032l.312.184.026.022c.02.024.022.054.006.09a1.44 1.44 0 0 1-.6.604c-.266.147-.573.22-.92.22-.378-.005-.696-.096-.952-.272a1.459 1.459 0 0 1-.552-.736c-.096-.256-.144-.624-.144-1.104 0-.224.004-.407.012-.548.008-.141.028-.268.06-.38.091-.347.274-.624.548-.832.275-.208.607-.312.996-.312zm-18.794-1.552c.379 0 .713.077 1.004.232.29.155.515.372.672.652.157.28.236.604.236.972v2.016l-.007.18a1.879 1.879 0 0 1-.229.792c-.157.28-.381.497-.672.652-.29.155-.625.232-1.004.232s-.712-.077-1-.232a1.639 1.639 0 0 1-.668-.652 1.95 1.95 0 0 1-.236-.972v-2.016l.007-.18c.021-.295.098-.559.229-.792.157-.28.38-.497.668-.652a2.081 2.081 0 0 1 1-.232zm67 0c.379 0 .713.077 1.004.232.29.155.515.372.672.652.157.28.236.604.236.972v2.016l-.007.18a1.879 1.879 0 0 1-.229.792c-.157.28-.381.497-.672.652-.29.155-.625.232-1.004.232s-.712-.077-1-.232a1.639 1.639 0 0 1-.668-.652 1.95 1.95 0 0 1-.236-.972v-2.016l.007-.18c.021-.295.098-.559.229-.792.157-.28.38-.497.668-.652a2.081 2.081 0 0 1 1-.232zm-58.378.064.035.005c.03.01.045.035.045.075v5.44l-.005.035c-.01.03-.035.045-.075.045h-.408l-.035-.005c-.03-.01-.045-.035-.045-.075v-5.44l.005-.035c.01-.03.035-.045.075-.045h.408zm5.757 1.496c.427 0 .767.125 1.02.376.254.25.38.587.38 1.008v2.64l-.005.035c-.01.03-.035.045-.075.045h-.408l-.035-.005c-.03-.01-.045-.035-.045-.075v-2.528l-.007-.142a.96.96 0 0 0-.26-.578.915.915 0 0 0-.693-.28c-.293 0-.53.09-.712.272-.18.181-.272.419-.272.712v2.544l-.005.035c-.01.03-.035.045-.075.045h-.408l-.035-.005c-.03-.01-.045-.035-.045-.075v-3.888l.005-.035c.01-.03.035-.045.075-.045h.408l.035.005c.03.01.045.035.045.075v.344l.003.014.01.01c.007.005.014.003.02-.008.234-.33.594-.496 1.08-.496zm-9.22 0c.427 0 .767.125 1.02.376.253.25.38.587.38 1.008v2.64l-.005.035c-.01.03-.035.045-.075.045h-.408l-.035-.005c-.03-.01-.045-.035-.045-.075v-2.528l-.008-.142a.96.96 0 0 0-.26-.578.915.915 0 0 0-.692-.28c-.293 0-.53.09-.712.272-.181.181-.272.419-.272.712v2.544l-.005.035c-.01.03-.035.045-.075.045h-.408l-.035-.005c-.03-.01-.045-.035-.045-.075v-3.888l.005-.035c.01-.03.035-.045.075-.045h.408l.035.005c.03.01.045.035.045.075v.344l.003.014.009.01c.008.005.015.003.02-.008.235-.33.595-.496 1.08-.496zm77.078 0c.426 0 .766.125 1.02.376.253.25.38.587.38 1.008v2.64l-.005.035c-.01.03-.035.045-.075.045h-.408l-.035-.005c-.03-.01-.045-.035-.045-.075v-2.528l-.008-.142a.96.96 0 0 0-.26-.578.915.915 0 0 0-.692-.28c-.294 0-.531.09-.712.272-.182.181-.272.419-.272.712v2.544l-.005.035c-.01.03-.035.045-.075.045h-.408l-.035-.005c-.03-.01-.045-.035-.045-.075v-3.888l.005-.035c.01-.03.035-.045.075-.045h.408l.035.005c.03.01.045.035.045.075v.344l.003.014.009.01c.008.005.014.003.02-.008.234-.33.594-.496 1.08-.496zm-9.99-1.496.035.005c.03.01.045.035.045.075v.256l-.005.035c-.01.03-.035.045-.075.045h-.232l-.134.008c-.21.023-.358.092-.442.208-.101.139-.152.355-.152.648v.24l.003.018c.005.01.015.014.029.014h2.056l.018-.004c.01-.004.014-.014.014-.028v-.28l.006-.178c.023-.342.117-.599.282-.77.192-.2.528-.297 1.008-.292h.232l.035.005c.03.01.045.035.045.075v.256l-.005.035c-.01.03-.035.045-.075.045h-.232l-.134.008c-.21.023-.358.092-.442.208-.101.139-.152.355-.152.648v.24l.003.018c.005.01.015.014.029.014h.928l.035.005c.03.01.045.035.045.075v.312l-.005.035c-.01.03-.035.045-.075.045h-.928l-.018.004c-.01.004-.014.014-.014.028v3.464l-.005.035c-.01.03-.035.045-.075.045h-.408l-.035-.005c-.03-.01-.045-.035-.045-.075v-3.464l-.004-.018c-.004-.01-.014-.014-.028-.014h-2.056l-.018.004c-.01.004-.014.014-.014.028v3.464l-.005.035c-.01.03-.035.045-.075.045h-.4l-.035-.005c-.03-.01-.045-.035-.045-.075v-3.464l-.004-.018c-.004-.01-.014-.014-.028-.014h-.504l-.035-.005c-.03-.01-.045-.035-.045-.075v-.312l.005-.035c.01-.03.035-.045.075-.045h.504l.018-.004c.01-.004.014-.014.014-.028v-.28l.006-.178c.023-.342.116-.599.278-.77.19-.2.524-.297 1.004-.292h.232zm4.224 0 .035.005c.03.01.045.035.045.075v5.44l-.005.035c-.01.03-.035.045-.075.045h-.408l-.035-.005c-.03-.01-.045-.035-.045-.075v-5.44l.005-.035c.01-.03.035-.045.075-.045h.408zm2.27 1.544.036.005c.03.01.045.035.045.075v3.888l-.005.035c-.01.03-.035.045-.075.045h-.408l-.035-.005c-.03-.01-.045-.035-.045-.075v-3.888l.005-.035c.01-.03.035-.045.075-.045h.408zm-67.856 0 .035.005c.03.01.045.035.045.075v3.888l-.005.035c-.01.03-.035.045-.075.045h-.408l-.035-.005c-.03-.01-.045-.035-.045-.075v-3.888l.005-.035c.01-.03.035-.045.075-.045h.408zm56.115-1.112c-.4 0-.723.124-.968.372s-.368.575-.368.98v2.048l.008.169c.03.328.15.597.36.807.245.245.568.368.968.368.405 0 .73-.123.976-.368.245-.245.368-.57.368-.976v-2.048l-.008-.169a1.28 1.28 0 0 0-.36-.811c-.245-.248-.57-.372-.976-.372zm-67 0c-.4 0-.723.124-.968.372s-.368.575-.368.98v2.048l.008.169c.03.328.15.597.36.807.245.245.568.368.968.368.405 0 .73-.123.976-.368.245-.245.368-.57.368-.976v-2.048l-.008-.169a1.28 1.28 0 0 0-.36-.811c-.245-.248-.57-.372-.976-.372zm-100.283-2c.728 0 1.288.184 1.68.552.392.368.636.888.732 1.56.032.224.048.504.048.84v.384l-.005.043c-.012.051-.05.077-.115.077h-3.876l-.027.005c-.014.007-.02.022-.02.043.015.44.04.724.071.852.088.36.276.644.564.852.288.208.656.312 1.104.312.336 0 .632-.076.888-.228.256-.152.456-.368.6-.648.048-.072.104-.088.168-.048l.468.276.04.033c.03.036.032.081.008.135-.2.384-.5.686-.9.906-.4.22-.86.33-1.38.33-.568-.008-1.044-.144-1.428-.408a2.188 2.188 0 0 1-.828-1.104c-.144-.384-.216-.936-.216-1.656 0-.336.006-.61.018-.822.012-.212.042-.402.09-.57.136-.52.41-.936.822-1.248.412-.312.91-.468 1.494-.468zm-56.286 0c.728 0 1.288.184 1.68.552.392.368.636.888.732 1.56.032.224.048.504.048.84v.384l-.004.043c-.013.051-.052.077-.116.077h-3.876l-.026.005c-.014.007-.022.022-.022.043.016.44.04.724.072.852.088.36.276.644.564.852.288.208.656.312 1.104.312.336 0 .632-.076.888-.228.256-.152.456-.368.6-.648.048-.072.104-.088.168-.048l.468.276.04.033c.03.036.032.081.008.135-.2.384-.5.686-.9.906-.4.22-.86.33-1.38.33-.568-.008-1.044-.144-1.428-.408a2.188 2.188 0 0 1-.828-1.104c-.144-.384-.216-.936-.216-1.656 0-.336.006-.61.018-.822.012-.212.042-.402.09-.57.136-.52.41-.936.822-1.248.412-.312.91-.468 1.494-.468zm26.809-2.328c.568 0 1.07.116 1.506.348a2.45 2.45 0 0 1 1.008.978c.236.42.354.906.354 1.458v3.024l-.007.233a2.832 2.832 0 0 1-.347 1.225 2.45 2.45 0 0 1-1.008.978c-.436.232-.938.348-1.506.348-.568 0-1.068-.116-1.5-.348a2.458 2.458 0 0 1-1.002-.978c-.236-.42-.354-.906-.354-1.458v-3.024l.007-.233c.03-.457.145-.865.347-1.225.236-.42.57-.746 1.002-.978.432-.232.932-.348 1.5-.348zm-55 0c.568 0 1.07.116 1.506.348a2.45 2.45 0 0 1 1.008.978c.236.42.354.906.354 1.458v3.024l-.007.233a2.832 2.832 0 0 1-.347 1.225 2.45 2.45 0 0 1-1.008.978c-.436.232-.938.348-1.506.348-.568 0-1.068-.116-1.5-.348a2.458 2.458 0 0 1-1.002-.978c-.236-.42-.354-.906-.354-1.458v-3.024l.007-.233c.03-.457.145-.865.347-1.225.236-.42.57-.746 1.002-.978.432-.232.932-.348 1.5-.348zm62.87.096.043.005c.052.013.077.051.077.115v.384l-.005.043c-.012.051-.05.077-.115.077h-.348l-.152.008c-.342.029-.579.134-.712.316-.152.208-.228.532-.228.972v.36l.006.027c.007.014.021.021.042.021h3.084l.027-.005c.014-.007.021-.022.021-.043v-.42l.006-.21c.028-.541.17-.945.426-1.212.288-.3.792-.446 1.512-.438h.348l.043.005c.052.013.077.051.077.115v.384l-.005.043c-.012.051-.05.077-.115.077h-.348l-.152.008c-.342.029-.579.134-.712.316-.152.208-.228.532-.228.972v.36l.006.027c.007.014.021.021.042.021h1.392l.043.005c.052.013.077.051.077.115v.468l-.005.043c-.012.051-.05.077-.115.077H78.23l-.026.005c-.015.007-.022.022-.022.043v5.196l-.005.043c-.012.051-.05.077-.115.077h-.612l-.043-.005c-.051-.013-.077-.051-.077-.115v-5.196l-.005-.027c-.007-.014-.021-.021-.043-.021h-3.084l-.026.005c-.015.007-.022.022-.022.043v5.196l-.005.043c-.012.051-.05.077-.115.077h-.6l-.043-.005c-.051-.013-.077-.051-.077-.115v-5.196l-.005-.027c-.007-.014-.021-.021-.043-.021h-.756l-.043-.005c-.051-.013-.077-.051-.077-.115v-.468l.005-.043c.013-.051.051-.077.115-.077h.756l.027-.005c.014-.007.021-.022.021-.043v-.42l.006-.21c.028-.541.168-.945.42-1.212.284-.3.786-.446 1.506-.438h.348zm-49.937 0 .043.005c.051.013.077.051.077.115v8.16l-.005.043c-.013.051-.051.077-.115.077h-.612l-.044-.005c-.05-.013-.076-.051-.076-.115v-8.16l.004-.043c.013-.051.052-.077.116-.077h.612zm64.922 2.244c.64 0 1.15.188 1.53.564.38.376.57.88.57 1.512v3.96l-.005.043c-.013.051-.051.077-.115.077h-.612l-.043-.005c-.052-.013-.077-.051-.077-.115v-3.792l-.006-.161a1.452 1.452 0 0 0-.396-.919c-.268-.28-.614-.42-1.038-.42-.44 0-.796.136-1.068.408-.272.272-.408.628-.408 1.068v3.816l-.005.043c-.013.051-.051.077-.115.077h-.612l-.043-.005c-.052-.013-.077-.051-.077-.115v-5.832l.005-.043c.012-.051.05-.077.115-.077h.612l.043.005c.051.013.077.051.077.115v.516l.004.021.014.015c.012.008.022.004.03-.012.352-.496.892-.744 1.62-.744zm-8.649-2.244.043.005c.052.013.077.051.077.115v8.16l-.005.043c-.012.051-.05.077-.115.077h-.612l-.043-.005c-.051-.013-.077-.051-.077-.115v-8.16l.005-.043c.013-.051.051-.077.115-.077h.612zm-61.468 2.244c.64 0 1.15.188 1.53.564.38.376.57.88.57 1.512v3.96l-.005.043c-.012.051-.05.077-.115.077h-.612l-.043-.005c-.051-.013-.077-.051-.077-.115v-3.792l-.006-.161a1.452 1.452 0 0 0-.396-.919c-.268-.28-.614-.42-1.038-.42-.44 0-.796.136-1.068.408-.272.272-.408.628-.408 1.068v3.816l-.005.043c-.012.051-.05.077-.115.077h-.612l-.043-.005c-.051-.013-.077-.051-.077-.115v-5.832l.005-.043c.013-.051.051-.077.115-.077h.612l.043.005c.052.013.077.051.077.115v.516l.005.021.013.015c.012.008.022.004.03-.012.352-.496.892-.744 1.62-.744zm13.831 0c.64 0 1.15.188 1.53.564.38.376.57.88.57 1.512v3.96l-.005.043c-.012.051-.05.077-.115.077h-.612l-.043-.005c-.051-.013-.077-.051-.077-.115v-3.792l-.006-.161a1.452 1.452 0 0 0-.396-.919c-.268-.28-.614-.42-1.038-.42-.44 0-.796.136-1.068.408-.272.272-.408.628-.408 1.068v3.816l-.005.043c-.012.051-.05.077-.115.077h-.612l-.043-.005c-.051-.013-.077-.051-.077-.115v-5.832l.005-.043c.013-.051.051-.077.115-.077h.612l.043.005c.052.013.077.051.077.115v.516l.005.021.013.015c.012.008.022.004.03-.012.352-.496.892-.744 1.62-.744zm51.044.072.043.005c.051.013.077.051.077.115v5.832l-.005.043c-.013.051-.051.077-.115.077h-.612l-.044-.005c-.05-.013-.076-.051-.076-.115v-5.832l.004-.043c.013-.051.052-.077.116-.077h.612zm-56.286 0 .043.005c.051.013.077.051.077.115v5.832l-.005.043c-.013.051-.051.077-.115.077h-.612l-.043-.005c-.052-.013-.077-.051-.077-.115v-5.832l.005-.043c.012-.051.05-.077.115-.077h.612zm38.673-1.668c-.6 0-1.084.186-1.452.558-.368.372-.552.862-.552 1.47v3.072l.007.198c.036.517.218.939.545 1.266.368.368.852.552 1.452.552.608 0 1.096-.184 1.464-.552.368-.368.552-.856.552-1.464v-3.072l-.007-.198c-.036-.517-.218-.941-.545-1.272-.368-.372-.856-.558-1.464-.558zm-55 0c-.6 0-1.084.186-1.452.558-.368.372-.552.862-.552 1.47v3.072l.007.198c.036.517.218.939.545 1.266.368.368.852.552 1.452.552.608 0 1.096-.184 1.464-.552.368-.368.552-.856.552-1.464v-3.072l-.007-.198c-.036-.517-.218-.941-.545-1.272-.368-.372-.856-.558-1.464-.558zm271.411 5.136c-.26 0-.478.068-.652.204a.945.945 0 0 0-.34.548 2.59 2.59 0 0 0-.064.544c0 .021.011.032.032.032h2.072c.022 0 .032-.01.032-.032-.01-.24-.026-.41-.048-.512a1.01 1.01 0 0 0-.356-.572c-.178-.141-.404-.212-.676-.212zm-67.857 0c-.261 0-.478.068-.652.204a.945.945 0 0 0-.34.548 2.59 2.59 0 0 0-.064.544c0 .021.011.032.032.032h2.072c.022 0 .032-.01.032-.032-.01-.24-.026-.41-.048-.512a1.01 1.01 0 0 0-.356-.572c-.178-.141-.404-.212-.676-.212zm-175.363-2.808c-.392 0-.718.102-.978.306-.26.204-.43.478-.51.822-.048.168-.08.44-.096.816 0 .032.016.048.048.048h3.108c.032 0 .048-.016.048-.048a5.394 5.394 0 0 0-.072-.768 1.516 1.516 0 0 0-.534-.858c-.268-.212-.606-.318-1.014-.318zm56.286 0c-.392 0-.718.102-.978.306-.26.204-.43.478-.51.822-.048.168-.08.44-.096.816 0 .032.016.048.048.048h3.108c.032 0 .048-.016.048-.048a5.394 5.394 0 0 0-.072-.768 1.516 1.516 0 0 0-.534-.858c-.268-.212-.606-.318-1.014-.318zm178.84.744a.43.43 0 0 1 .448.448.434.434 0 0 1-.447.448.434.434 0 0 1-.448-.448.43.43 0 0 1 .448-.448zm-67.856 0a.43.43 0 0 1 .448.448.434.434 0 0 1-.448.448.434.434 0 0 1-.448-.448.43.43 0 0 1 .448-.448zm-123.124-3.84a.646.646 0 0 1 .672.672.651.651 0 0 1-.192.48.651.651 0 0 1-.48.192.651.651 0 0 1-.48-.192.651.651 0 0 1-.192-.48.646.646 0 0 1 .672-.672zm-56.286 0a.646.646 0 0 1 .672.672.651.651 0 0 1-.192.48.651.651 0 0 1-.48.192.651.651 0 0 1-.48-.192.651.651 0 0 1-.192-.48.646.646 0 0 1 .672-.672zm144.14-76.648c.728 0 1.288.184 1.68.552.392.368.636.888.732 1.56.032.224.048.504.048.84v.384l-.004.043c-.013.051-.052.077-.116.077h-3.876l-.026.005c-.014.007-.022.022-.022.043.016.44.04.724.072.852.088.36.276.644.564.852.288.208.656.312 1.104.312.336 0 .632-.076.888-.228.256-.152.456-.368.6-.648.048-.072.104-.088.168-.048l.468.276.04.033c.03.036.032.081.008.135-.2.384-.5.686-.9.906-.4.22-.86.33-1.38.33-.568-.008-1.044-.144-1.428-.408a2.188 2.188 0 0 1-.828-1.104c-.144-.384-.216-.936-.216-1.656 0-.336.006-.61.018-.822.012-.212.042-.402.09-.57.136-.52.41-.936.822-1.248.412-.312.91-.468 1.494-.468zm100.286 0c.728 0 1.288.184 1.68.552.392.368.636.888.732 1.56.032.224.048.504.048.84v.384l-.005.043c-.012.051-.05.077-.115.077h-3.876l-.027.005c-.014.007-.02.022-.02.043.015.44.04.724.071.852.088.36.276.644.564.852.288.208.656.312 1.104.312.336 0 .632-.076.888-.228.256-.152.456-.368.6-.648.048-.072.104-.088.168-.048l.468.276.04.033c.03.036.032.081.008.135-.2.384-.5.686-.9.906-.4.22-.86.33-1.38.33-.568-.008-1.044-.144-1.428-.408a2.188 2.188 0 0 1-.828-1.104c-.144-.384-.216-.936-.216-1.656 0-.336.006-.61.018-.822.012-.212.042-.402.09-.57.136-.52.41-.936.822-1.248.412-.312.91-.468 1.494-.468zm-29.477-2.328c.568 0 1.07.116 1.506.348a2.45 2.45 0 0 1 1.008.978c.236.42.354.906.354 1.458v3.024l-.007.233a2.832 2.832 0 0 1-.347 1.225 2.45 2.45 0 0 1-1.008.978c-.436.232-.938.348-1.506.348-.568 0-1.068-.116-1.5-.348a2.458 2.458 0 0 1-1.002-.978c-.236-.42-.354-.906-.354-1.458v-3.024l.007-.233c.03-.457.145-.865.347-1.225.236-.42.57-.746 1.002-.978.432-.232.932-.348 1.5-.348zm-99 0c.568 0 1.07.116 1.506.348a2.45 2.45 0 0 1 1.008.978c.236.42.354.906.354 1.458v3.024l-.007.233a2.832 2.832 0 0 1-.347 1.225 2.45 2.45 0 0 1-1.008.978c-.436.232-.938.348-1.506.348-.568 0-1.068-.116-1.5-.348a2.458 2.458 0 0 1-1.002-.978c-.236-.42-.354-.906-.354-1.458v-3.024l.007-.233c.03-.457.145-.865.347-1.225.236-.42.57-.746 1.002-.978.432-.232.932-.348 1.5-.348zm12.933.096.043.005c.051.013.077.051.077.115v8.16l-.005.043c-.013.051-.051.077-.115.077h-.612l-.044-.005c-.05-.013-.076-.051-.076-.115v-8.16l.004-.043c.013-.051.052-.077.116-.077h.612zm100.273 0 .043.005c.052.013.077.051.077.115v8.16l-.005.043c-.012.051-.05.077-.115.077h-.612l-.043-.005c-.051-.013-.077-.051-.077-.115v-8.16l.005-.043c.013-.051.051-.077.115-.077h.612zm-91.637 2.244c.64 0 1.15.188 1.53.564.38.376.57.88.57 1.512v3.96l-.005.043c-.012.051-.05.077-.115.077h-.612l-.043-.005c-.051-.013-.077-.051-.077-.115v-3.792l-.006-.161a1.452 1.452 0 0 0-.396-.919c-.268-.28-.614-.42-1.038-.42-.44 0-.796.136-1.068.408-.272.272-.408.628-.408 1.068v3.816l-.005.043c-.012.051-.05.077-.115.077h-.612l-.043-.005c-.051-.013-.077-.051-.077-.115v-5.832l.005-.043c.013-.051.051-.077.115-.077h.612l.043.005c.052.013.077.051.077.115v.516l.005.021.013.015c.012.008.022.004.03-.012.352-.496.892-.744 1.62-.744zM251.59 44.6l.043.005c.052.013.077.051.077.115v.384l-.005.043c-.012.051-.05.077-.115.077h-.348l-.152.008c-.342.029-.579.134-.712.316-.152.208-.228.532-.228.972v.36l.006.027c.007.014.021.021.042.021h3.084l.027-.005c.014-.007.021-.022.021-.043v-.42l.006-.21c.028-.541.17-.945.426-1.212.288-.3.792-.446 1.512-.438h.348l.043.005c.052.013.077.051.077.115v.384l-.005.043c-.012.051-.05.077-.115.077h-.348l-.152.008c-.342.029-.579.134-.712.316-.152.208-.228.532-.228.972v.36l.006.027c.007.014.021.021.042.021h1.392l.043.005c.052.013.077.051.077.115v.468l-.005.043c-.012.051-.05.077-.115.077h-1.392l-.026.005c-.015.007-.022.022-.022.043v5.196l-.005.043c-.012.051-.05.077-.115.077h-.612l-.043-.005c-.051-.013-.077-.051-.077-.115v-5.196l-.005-.027c-.007-.014-.021-.021-.043-.021h-3.084l-.026.005c-.015.007-.022.022-.022.043v5.196l-.005.043c-.012.051-.05.077-.115.077h-.6l-.043-.005c-.051-.013-.077-.051-.077-.115v-5.196l-.005-.027c-.007-.014-.021-.021-.043-.021h-.756l-.043-.005c-.051-.013-.077-.051-.077-.115v-.468l.005-.043c.013-.051.051-.077.115-.077h.756l.027-.005c.014-.007.021-.022.021-.043v-.42l.006-.21c.028-.541.168-.945.42-1.212.284-.3.786-.446 1.506-.438h.348zm-99.132 2.244c.64 0 1.15.188 1.53.564.38.376.57.88.57 1.512v3.96l-.005.043c-.012.051-.05.077-.115.077h-.612l-.043-.005c-.051-.013-.077-.051-.077-.115v-3.792l-.006-.161a1.452 1.452 0 0 0-.396-.919c-.268-.28-.614-.42-1.038-.42-.44 0-.796.136-1.068.408-.272.272-.408.628-.408 1.068v3.816l-.005.043c-.012.051-.05.077-.115.077h-.612l-.043-.005c-.051-.013-.077-.051-.077-.115v-5.832l.005-.043c.013-.051.051-.077.115-.077h.612l.043.005c.052.013.077.051.077.115v.516l.005.021.013.015c.012.008.022.004.03-.012.352-.496.892-.744 1.62-.744zm114.117 0c.64 0 1.15.188 1.53.564.38.376.57.88.57 1.512v3.96l-.005.043c-.013.051-.051.077-.115.077h-.612l-.043-.005c-.052-.013-.077-.051-.077-.115v-3.792l-.006-.161a1.452 1.452 0 0 0-.396-.919c-.268-.28-.614-.42-1.038-.42-.44 0-.796.136-1.068.408-.272.272-.408.628-.408 1.068v3.816l-.005.043c-.013.051-.051.077-.115.077h-.612l-.043-.005c-.052-.013-.077-.051-.077-.115v-5.832l.005-.043c.012-.051.05-.077.115-.077h.612l.043.005c.051.013.077.051.077.115v.516l.004.021.014.015c.012.008.022.004.03-.012.352-.496.892-.744 1.62-.744zm-105.528.072.043.005c.051.013.077.051.077.115v5.832l-.005.043c-.013.051-.051.077-.115.077h-.612l-.043-.005c-.052-.013-.077-.051-.077-.115v-5.832l.005-.043c.012-.051.05-.077.115-.077h.612zm100.286 0 .043.005c.051.013.077.051.077.115v5.832l-.005.043c-.013.051-.051.077-.115.077h-.612l-.044-.005c-.05-.013-.076-.051-.076-.115v-5.832l.004-.043c.013-.051.052-.077.116-.077h.612zM144.72 45.248c-.6 0-1.084.186-1.452.558-.368.372-.552.862-.552 1.47v3.072l.007.198c.036.517.218.939.545 1.266.368.368.852.552 1.452.552.608 0 1.096-.184 1.464-.552.368-.368.552-.856.552-1.464v-3.072l-.007-.198c-.036-.517-.218-.941-.545-1.272-.368-.372-.856-.558-1.464-.558zm99 0c-.6 0-1.084.186-1.452.558-.368.372-.552.862-.552 1.47v3.072l.007.198c.036.517.218.939.545 1.266.368.368.852.552 1.452.552.608 0 1.096-.184 1.464-.552.368-.368.552-.856.552-1.464v-3.072l-.007-.198c-.036-.517-.218-.941-.545-1.272-.368-.372-.856-.558-1.464-.558zm-70.809 2.328c-.392 0-.718.102-.978.306-.26.204-.43.478-.51.822-.048.168-.08.44-.096.816 0 .032.016.048.048.048h3.108c.032 0 .048-.016.048-.048a5.394 5.394 0 0 0-.072-.768 1.516 1.516 0 0 0-.534-.858c-.268-.212-.606-.318-1.014-.318zm100.286 0c-.392 0-.718.102-.978.306-.26.204-.43.478-.51.822-.048.168-.08.44-.096.816 0 .032.016.048.048.048h3.108c.032 0 .048-.016.048-.048a5.394 5.394 0 0 0-.072-.768 1.516 1.516 0 0 0-.534-.858c-.268-.212-.606-.318-1.014-.318zm-12.14-3.096a.646.646 0 0 1 .672.672.651.651 0 0 1-.192.48.651.651 0 0 1-.48.192.651.651 0 0 1-.48-.192.651.651 0 0 1-.192-.48.646.646 0 0 1 .672-.672zm-100.286 0a.646.646 0 0 1 .672.672.651.651 0 0 1-.192.48.651.651 0 0 1-.48.192.651.651 0 0 1-.48-.192.651.651 0 0 1-.192-.48.646.646 0 0 1 .672-.672z" fill="#FFF"/>
        <g fill="#5F6368">
            <use xlink:href="#a"/>
            <use xlink:href="#a"/>
        </g>
        <g fill="#5F6368">
            <use xlink:href="#b"/>
            <use xlink:href="#b"/>
        </g>
        <g fill="#5F6368">
            <path d="M366.406 45a.162.162 0 0 0 .119-.049.162.162 0 0 0 .049-.119v-1.064a.162.162 0 0 0-.049-.119.162.162 0 0 0-.119-.049h-4.69c-.047 0-.07-.023-.07-.07v-8.162a.162.162 0 0 0-.049-.119.162.162 0 0 0-.119-.049h-1.288a.162.162 0 0 0-.119.049.162.162 0 0 0-.049.119v9.464c0 .047.016.086.049.119a.162.162 0 0 0 .119.049h6.216zm5.178.126c.588 0 1.122-.112 1.603-.336a2.86 2.86 0 0 0 1.155-.952c.056-.084.042-.159-.042-.224l-.868-.714a.134.134 0 0 0-.098-.042c-.056 0-.103.028-.14.084-.373.523-.877.784-1.512.784-.868-.01-1.414-.35-1.638-1.022-.056-.112-.098-.322-.126-.63 0-.047.023-.07.07-.07h4.382c.112 0 .168-.056.168-.168l.014-.434c0-.29-.019-.55-.056-.784-.233-1.923-1.27-2.884-3.108-2.884-.728 0-1.351.189-1.869.567-.518.378-.87.894-1.057 1.547-.112.336-.168.775-.168 1.316 0 .896.107 1.596.322 2.1a2.82 2.82 0 0 0 1.113 1.372c.509.327 1.127.49 1.855.49zm1.246-4.326h-2.842c-.056 0-.075-.023-.056-.07a2.43 2.43 0 0 1 .112-.616c.093-.308.254-.548.483-.721.229-.173.516-.259.861-.259.373 0 .684.093.931.28.247.187.413.448.497.784.037.121.065.299.084.532 0 .047-.023.07-.07.07zm6.186 6.972c1.083 0 1.958-.25 2.625-.749.667-.5 1.001-1.332 1.001-2.499v-6.51a.162.162 0 0 0-.049-.119.162.162 0 0 0-.119-.049h-1.288a.162.162 0 0 0-.119.049.162.162 0 0 0-.049.119v.336c0 .028-.01.047-.028.056-.019.01-.037 0-.056-.028-.41-.43-.985-.644-1.722-.644-.616 0-1.153.17-1.61.511-.457.34-.78.796-.966 1.365-.15.41-.224 1.003-.224 1.778 0 .69.06 1.255.182 1.694.196.635.546 1.106 1.05 1.414.504.308 1.06.462 1.666.462.7 0 1.241-.205 1.624-.616.019-.019.037-.026.056-.021.019.005.028.021.028.049v.112c0 .653-.166 1.118-.497 1.393-.331.275-.847.413-1.547.413-.215 0-.457-.014-.728-.042-.13 0-.196.051-.196.154l-.042 1.148c0 .112.051.173.154.182.28.028.565.042.854.042zm.574-4.144a1.41 1.41 0 0 1-.889-.287 1.458 1.458 0 0 1-.511-.735c-.093-.233-.14-.64-.14-1.218 0-.56.056-.97.168-1.232.103-.308.27-.555.504-.742.233-.187.518-.28.854-.28.355 0 .646.093.875.28.229.187.38.434.455.742.047.15.077.301.091.455.014.154.021.408.021.763 0 .364-.007.628-.021.791-.014.163-.04.315-.077.455a1.345 1.345 0 0 1-.448.728c-.224.187-.518.28-.882.28zm8.454 1.498c.588 0 1.122-.112 1.603-.336a2.86 2.86 0 0 0 1.155-.952c.056-.084.042-.159-.042-.224l-.868-.714a.134.134 0 0 0-.098-.042c-.056 0-.103.028-.14.084-.373.523-.877.784-1.512.784-.868-.01-1.414-.35-1.638-1.022-.056-.112-.098-.322-.126-.63 0-.047.023-.07.07-.07h4.382c.112 0 .168-.056.168-.168l.014-.434c0-.29-.019-.55-.056-.784-.233-1.923-1.27-2.884-3.108-2.884-.728 0-1.351.189-1.869.567-.518.378-.87.894-1.057 1.547-.112.336-.168.775-.168 1.316 0 .896.107 1.596.322 2.1a2.82 2.82 0 0 0 1.113 1.372c.509.327 1.127.49 1.855.49zm1.246-4.326h-2.842c-.056 0-.075-.023-.056-.07a2.43 2.43 0 0 1 .112-.616c.093-.308.254-.548.483-.721.229-.173.516-.259.861-.259.373 0 .684.093.931.28.247.187.413.448.497.784.037.121.065.299.084.532 0 .047-.023.07-.07.07zm5.262 4.2a.162.162 0 0 0 .119-.049.162.162 0 0 0 .049-.119v-4.27c0-.43.124-.775.371-1.036s.572-.392.973-.392.723.133.966.399.364.614.364 1.043v4.256c0 .047.016.086.049.119a.162.162 0 0 0 .119.049h1.288a.162.162 0 0 0 .119-.049.162.162 0 0 0 .049-.119V40.24c0-.775-.226-1.386-.679-1.834-.453-.448-1.057-.672-1.813-.672-.775 0-1.353.252-1.736.756-.01.028-.023.037-.042.028-.019-.01-.028-.028-.028-.056v-.448a.162.162 0 0 0-.049-.119.162.162 0 0 0-.119-.049h-1.288a.162.162 0 0 0-.119.049.162.162 0 0 0-.049.119v6.818c0 .047.016.086.049.119a.162.162 0 0 0 .119.049h1.288zm9.448.112c.663 0 1.2-.243 1.61-.728.019-.028.037-.037.056-.028.019.01.028.028.028.056v.42c0 .047.016.086.049.119a.162.162 0 0 0 .119.049h1.288a.162.162 0 0 0 .119-.049.162.162 0 0 0 .049-.119v-9.464a.162.162 0 0 0-.049-.119.162.162 0 0 0-.119-.049h-1.288a.162.162 0 0 0-.119.049.162.162 0 0 0-.049.119v3.038c0 .028-.01.044-.028.049-.019.005-.037-.002-.056-.021-.41-.467-.938-.7-1.582-.7-.69 0-1.265.173-1.722.518-.457.345-.789.826-.994 1.442-.159.476-.238 1.045-.238 1.708 0 .644.084 1.227.252 1.75.205.616.537 1.097.994 1.442.457.345 1.017.518 1.68.518zm.252-1.4c-.532 0-.929-.224-1.19-.672-.224-.42-.336-.957-.336-1.61 0-.728.14-1.297.42-1.708.27-.392.644-.588 1.12-.588.457 0 .812.205 1.064.616.233.383.35.938.35 1.666 0 .7-.107 1.241-.322 1.624-.261.448-.63.672-1.106.672zM530.179 56.062l-.485.875A3.482 3.482 0 0 0 528 56.5v-1c.772 0 1.518.195 2.179.562zm2.321 5.815h-1l-.002-1.993 1-.033.002.14v1.886zm0 6h-1v-2h1v2zm0 6h-1v-2h1v2zm0 6h-1v-2h1v2zm0 6h-1v-2h1v2zm0 6h-1v-2h1v2zm0 6h-1v-2h1v2zm0 6h-1v-2h1v2zm0 6h-1v-2h1v2zm0 6h-1v-2h1v2zm-.495 6.176-.89-.457c.252-.49.385-1.032.385-1.596v-.123h1V120c0 .723-.171 1.423-.495 2.053zm-5.76 2.447v-1h1.772c.072 0 .144-.003.215-.008l.066.998c-.092.006-.184.01-.279.01h-1.773zm-6 0v-1h2v1h-2zm-6 0v-1h2v1h-2zm-6 0v-1h2v1h-2zm-6 0v-1h2v1h-2zm-6 0v-1h2v1h-2zm-6 0v-1h2v1h-2zm-6 0v-1h2v1h-2zm-6 0v-1h2v1h-2zm-6 0v-1h2v1h-2zm-6 0v-1h2v1h-2zm-6 0v-1h2v1h-2zm-6 0v-1h2v1h-2zm-6 0v-1h2v1h-2zm-6 0v-1h2v1h-2zm-6 0v-1h2v1h-2zm-6 0v-1h2v1h-2zm-6 0v-1h2v1h-2zm-6 0v-1h2v1h-2zm-6 0v-1h2v1h-2zm-6 0v-1h2v1h-2zm-6 0v-1h2v1h-2zm-6 0v-1h2v1h-2zm-6 0v-1h2v1h-2zm-6 0v-1h2v1h-2zm-6 0v-1h2v1h-2zm-6 0v-1h2v1h-2zm-6 0v-1h2v1h-2zm-5.453-2.904.934-.354c.21.553.56 1.045 1.011 1.428l-.646.763a4.508 4.508 0 0 1-1.3-1.837zm-.292-6.227h1v2h-1v-2zm0-6h1v2h-1v-2zm0-6h1v2h-1v-2zm0-6h1v2h-1v-2zm0-6h1v2h-1v-2zm0-6h1v2h-1v-2zm0-6h1v2h-1v-2zm0-6h1v2h-1v-2zm0-6h1v2h-1v-2zm0-6h1v2h-1v-2zm2.766-5.523.386.923a3.512 3.512 0 0 0-1.395 1.057l-.784-.622a4.512 4.512 0 0 1 1.793-1.358zm6.242-.346v1h-2v-1h2zm6 0v1h-2v-1h2zm6 0v1h-2v-1h2zm6 0v1h-2v-1h2zm6 0v1h-2v-1h2zm6 0v1h-2v-1h2zm6 0v1h-2v-1h2zm6 0v1h-2v-1h2zm6 0v1h-2v-1h2zm6 0v1h-2v-1h2zm6 0v1h-2v-1h2zm6 0v1h-2v-1h2zm6 0v1h-2v-1h2zm6 0v1h-2v-1h2zm6 0v1h-2v-1h2zm6 0v1h-2v-1h2zm6 0v1h-2v-1h2zm6 0v1h-2v-1h2zm6 0v1h-2v-1h2zm6 0v1h-2v-1h2zm6 0v1h-2v-1h2zm6 0v1h-2v-1h2zm6 0v1h-2v-1h2zm6 0v1h-2v-1h2zm6 0v1h-2v-1h2zm6 0v1h-2v-1h2zm6 0v1h-2v-1h2zm4.492 0v1h-.492v-1H528zM372.684 76.096c.856 0 1.538-.24 2.046-.72.508-.48.762-1.148.762-2.004v-1.548c0-.08-.04-.12-.12-.12h-2.544c-.08 0-.12.04-.12.12v.504c0 .08.04.12.12.12h1.764c.032 0 .048.016.048.048v1.092c0 .536-.174.964-.522 1.284-.348.32-.814.48-1.398.48-.6 0-1.084-.172-1.452-.516-.368-.344-.552-.796-.552-1.356v-3.36c0-.56.18-1.012.54-1.356.36-.344.836-.516 1.428-.516s1.066.168 1.422.504c.356.336.534.772.534 1.308v.144c0 .08.04.12.12.12h.612c.08 0 .12-.04.12-.12v-.156a2.51 2.51 0 0 0-.348-1.314 2.364 2.364 0 0 0-.99-.906c-.428-.216-.918-.324-1.47-.324-.56 0-1.052.11-1.476.33-.424.22-.754.53-.99.93s-.354.86-.354 1.38v3.312c0 .52.118.98.354 1.38.236.4.566.71.99.93.424.22.916.33 1.476.33zm5.535-.096c.08 0 .12-.04.12-.12v-3.54c0-.448.136-.818.408-1.11a1.43 1.43 0 0 1 1.032-.462l.156-.012c.176 0 .332.028.468.084.08.032.132.008.156-.072l.132-.588c.016-.072-.008-.124-.072-.156a1.416 1.416 0 0 0-.684-.156c-.344 0-.646.082-.906.246a1.91 1.91 0 0 0-.642.69c-.008.016-.018.022-.03.018s-.018-.018-.018-.042v-.732c0-.08-.04-.12-.12-.12h-.612c-.08 0-.12.04-.12.12v5.832c0 .08.04.12.12.12h.612zm6.064.096c.576 0 1.07-.148 1.482-.444.412-.296.694-.704.846-1.224.112-.336.168-.828.168-1.476 0-.64-.056-1.132-.168-1.476a2.224 2.224 0 0 0-.846-1.2c-.412-.296-.902-.444-1.47-.444-.592 0-1.096.148-1.512.444-.416.296-.7.7-.852 1.212-.112.36-.168.848-.168 1.464s.056 1.108.168 1.476c.16.52.448.928.864 1.224.416.296.912.444 1.488.444zm0-.744c-.4 0-.738-.106-1.014-.318a1.492 1.492 0 0 1-.546-.858c-.064-.28-.096-.684-.096-1.212 0-.528.032-.932.096-1.212.096-.36.28-.646.552-.858.272-.212.604-.318.996-.318s.726.106 1.002.318c.276.212.462.498.558.858.064.28.096.684.096 1.212 0 .52-.036.924-.108 1.212-.096.36-.28.646-.552.858-.272.212-.6.318-.984.318zm6.411.732c.728 0 1.26-.248 1.596-.744.008-.016.02-.02.036-.012.016.008.024.02.024.036v.516c0 .08.04.12.12.12h.612c.08 0 .12-.04.12-.12v-5.832c0-.08-.04-.12-.12-.12h-.612c-.08 0-.12.04-.12.12v3.804c0 .448-.134.808-.402 1.08s-.63.408-1.086.408c-.44 0-.788-.134-1.044-.402s-.384-.63-.384-1.086v-3.804c0-.08-.04-.12-.12-.12h-.612c-.08 0-.12.04-.12.12v4.056c0 .416.094.772.282 1.068.188.296.444.522.768.678.324.156.678.234 1.062.234zm5.404 2.244c.08 0 .12-.04.12-.12v-2.82c0-.016.006-.026.018-.03.012-.004.026.002.042.018.176.232.396.41.66.534.264.124.552.186.864.186.576 0 1.054-.146 1.434-.438.38-.292.642-.694.786-1.206.104-.352.156-.848.156-1.488 0-.632-.06-1.14-.18-1.524a2.196 2.196 0 0 0-.786-1.176c-.38-.288-.85-.432-1.41-.432-.32 0-.61.064-.87.192s-.478.308-.654.54c-.016.016-.03.022-.042.018-.012-.004-.018-.014-.018-.03v-.504c0-.08-.04-.12-.12-.12h-.612c-.08 0-.12.04-.12.12v8.16c0 .08.04.12.12.12h.612zm1.608-2.976c-.304 0-.566-.082-.786-.246a1.358 1.358 0 0 1-.474-.654 2.028 2.028 0 0 1-.168-.582 6.64 6.64 0 0 1-.048-.906c0-.384.016-.684.048-.9.032-.216.084-.404.156-.564.104-.28.264-.504.48-.672.216-.168.484-.252.804-.252.336 0 .626.084.87.252.244.168.414.396.51.684.08.168.136.358.168.57.032.212.048.506.048.882 0 .392-.022.698-.066.918-.044.22-.11.418-.198.594a1.35 1.35 0 0 1-.51.636 1.45 1.45 0 0 1-.834.24zM407.84 76c.752 0 1.358-.2 1.818-.6.46-.4.69-.96.69-1.68 0-.488-.112-.904-.336-1.248-.224-.344-.552-.604-.984-.78-.04-.024-.04-.048 0-.072.392-.16.694-.394.906-.702.212-.308.318-.682.318-1.122 0-.696-.222-1.236-.666-1.62-.444-.384-1.054-.576-1.83-.576h-2.82c-.08 0-.12.04-.12.12v8.16c0 .08.04.12.12.12h2.904zm-.084-4.68h-2.04c-.032 0-.048-.016-.048-.048v-2.88c0-.032.016-.048.048-.048h2.04c.504 0 .906.138 1.206.414.3.276.45.646.45 1.11 0 .44-.15.792-.45 1.056-.3.264-.702.396-1.206.396zm.084 3.924h-2.124c-.032 0-.048-.016-.048-.048v-3.108c0-.032.016-.048.048-.048h2.076c.52 0 .934.146 1.242.438.308.292.462.682.462 1.17 0 .488-.15.876-.45 1.164-.3.288-.702.432-1.206.432zm4.227 3.156c.456 0 .81-.05 1.062-.15.252-.1.462-.278.63-.534.168-.256.348-.652.54-1.188l2.22-6.468c.024-.088-.008-.132-.096-.132h-.624c-.072 0-.12.032-.144.096l-1.536 4.848c-.008.016-.02.024-.036.024-.016 0-.028-.008-.036-.024l-1.56-4.848c-.024-.064-.072-.096-.144-.096h-.636c-.072 0-.108.028-.108.084l.012.048 2.028 5.904c.016.016.016.04 0 .072-.144.464-.278.81-.402 1.038-.124.228-.272.384-.444.468-.172.084-.414.13-.726.138h-.048c-.08 0-.12.04-.12.12v.48c0 .08.028.12.084.12h.084zm9.63-2.4c.04 0 .075-.014.103-.042a.139.139 0 0 0 .042-.102v-3.408c0-.04.02-.06.06-.06h1.44c.032 0 .056.016.072.048l1.584 3.456a.17.17 0 0 0 .168.108h1.152c.088 0 .132-.032.132-.096a.184.184 0 0 0-.024-.072l-1.692-3.492a.051.051 0 0 1 0-.048c.008-.016.02-.024.036-.024.504-.152.898-.422 1.182-.81.284-.388.426-.858.426-1.41 0-.48-.104-.906-.312-1.278-.208-.372-.5-.66-.876-.864a2.674 2.674 0 0 0-1.296-.306h-3.3a.139.139 0 0 0-.102.042.139.139 0 0 0-.042.102v8.112c0 .04.014.074.042.102a.139.139 0 0 0 .102.042h1.104zm2.005-4.692h-1.8c-.04 0-.06-.02-.06-.06V68.86c0-.04.02-.06.06-.06h1.8c.384 0 .694.116.93.348.236.232.354.536.354.912s-.118.678-.354.906c-.236.228-.546.342-.93.342zm6.747 4.8c.504 0 .962-.096 1.374-.288.412-.192.742-.464.99-.816.048-.072.036-.136-.036-.192l-.744-.612a.115.115 0 0 0-.084-.036c-.048 0-.088.024-.12.072-.32.448-.752.672-1.296.672-.744-.008-1.212-.3-1.404-.876-.048-.096-.084-.276-.108-.54 0-.04.02-.06.06-.06h3.756c.096 0 .144-.048.144-.144l.012-.372c0-.248-.016-.472-.048-.672-.2-1.648-1.088-2.472-2.664-2.472-.624 0-1.158.162-1.602.486a2.407 2.407 0 0 0-.906 1.326c-.096.288-.144.664-.144 1.128 0 .768.092 1.368.276 1.8.2.504.518.896.954 1.176.436.28.966.42 1.59.42zm1.068-3.708h-2.436c-.048 0-.064-.02-.048-.06.016-.216.048-.392.096-.528.08-.264.218-.47.414-.618.196-.148.442-.222.738-.222.32 0 .586.08.798.24.212.16.354.384.426.672.032.104.056.256.072.456 0 .04-.02.06-.06.06zm4.96 5.976c.928 0 1.678-.214 2.25-.642.572-.428.858-1.142.858-2.142v-5.58a.139.139 0 0 0-.042-.102.139.139 0 0 0-.102-.042h-1.104a.139.139 0 0 0-.102.042.139.139 0 0 0-.042.102v.288c0 .024-.008.04-.024.048s-.032 0-.048-.024c-.352-.368-.844-.552-1.476-.552-.528 0-.988.146-1.38.438a2.32 2.32 0 0 0-.828 1.17c-.128.352-.192.86-.192 1.524 0 .592.052 1.076.156 1.452.168.544.468.948.9 1.212s.908.396 1.428.396c.6 0 1.064-.176 1.392-.528.016-.016.032-.022.048-.018s.024.018.024.042v.096c0 .56-.142.958-.426 1.194-.284.236-.726.354-1.326.354-.184 0-.392-.012-.624-.036-.112 0-.168.044-.168.132l-.036.984c0 .096.044.148.132.156.24.024.484.036.732.036zm.492-3.552c-.296 0-.55-.082-.762-.246a1.25 1.25 0 0 1-.438-.63c-.08-.2-.12-.548-.12-1.044 0-.48.048-.832.144-1.056.088-.264.232-.476.432-.636.2-.16.444-.24.732-.24.304 0 .554.08.75.24.196.16.326.372.39.636.04.128.066.258.078.39.012.132.018.35.018.654 0 .312-.006.538-.018.678-.012.14-.034.27-.066.39a1.153 1.153 0 0 1-.384.624c-.192.16-.444.24-.756.24zm5.02-5.796c.247 0 .451-.08.611-.24.16-.16.24-.364.24-.612a.829.829 0 0 0-.24-.612.829.829 0 0 0-.612-.24.829.829 0 0 0-.612.24.829.829 0 0 0-.24.612c0 .248.08.452.24.612.16.16.364.24.612.24zm.527 6.972c.04 0 .074-.014.102-.042a.139.139 0 0 0 .042-.102V70a.139.139 0 0 0-.042-.102.139.139 0 0 0-.102-.042h-1.104a.139.139 0 0 0-.102.042.139.139 0 0 0-.042.102v5.856c0 .04.014.074.042.102a.139.139 0 0 0 .102.042h1.104zm4.516.096c.616 0 1.148-.162 1.596-.486.448-.324.764-.77.948-1.338a4.31 4.31 0 0 0 .204-1.368c0-.528-.072-.984-.216-1.368-.184-.552-.498-.984-.942-1.296-.444-.312-.97-.468-1.578-.468-.64 0-1.188.156-1.644.468-.456.312-.776.748-.96 1.308-.128.4-.192.856-.192 1.368 0 .48.068.936.204 1.368.184.568.502 1.012.954 1.332.452.32.994.48 1.626.48zm0-1.2c-.312 0-.578-.084-.798-.252a1.322 1.322 0 0 1-.462-.708c-.08-.28-.12-.616-.12-1.008s.04-.728.12-1.008c.096-.304.252-.538.468-.702.216-.164.472-.246.768-.246.312 0 .576.082.792.246.216.164.368.398.456.702.08.24.12.576.12 1.008 0 .408-.04.744-.12 1.008-.096.304-.25.54-.462.708a1.19 1.19 0 0 1-.762.252zM452.52 76c.04 0 .074-.014.102-.042a.139.139 0 0 0 .042-.102v-3.66c0-.368.106-.664.318-.888.212-.224.49-.336.834-.336s.62.114.828.342c.208.228.312.526.312.894v3.648c0 .04.014.074.042.102a.139.139 0 0 0 .102.042h1.104c.04 0 .074-.014.102-.042a.139.139 0 0 0 .042-.102V71.92c0-.664-.194-1.188-.582-1.572-.388-.384-.906-.576-1.554-.576-.664 0-1.16.216-1.488.648-.008.024-.02.032-.036.024-.016-.008-.024-.024-.024-.048v-.384a.139.139 0 0 0-.042-.102.139.139 0 0 0-.102-.042h-1.104a.139.139 0 0 0-.102.042.139.139 0 0 0-.042.102v5.844c0 .04.014.074.042.102a.139.139 0 0 0 .102.042h1.104z"/>
            <path d="M394.765 76.9v-.6H369v.6h25.765zm2.052-.6v.6h15.906v-.6h-15.906zm20.206.6v-.6h-2.045v.6h2.045z"/>
            <g>
                <path d="M372.684 102.096c.856 0 1.538-.24 2.046-.72.508-.48.762-1.148.762-2.004v-1.548c0-.08-.04-.12-.12-.12h-2.544c-.08 0-.12.04-.12.12v.504c0 .08.04.12.12.12h1.764c.032 0 .048.016.048.048v1.092c0 .536-.174.964-.522 1.284-.348.32-.814.48-1.398.48-.6 0-1.084-.172-1.452-.516-.368-.344-.552-.796-.552-1.356v-3.36c0-.56.18-1.012.54-1.356.36-.344.836-.516 1.428-.516s1.066.168 1.422.504c.356.336.534.772.534 1.308v.144c0 .08.04.12.12.12h.612c.08 0 .12-.04.12-.12v-.156a2.51 2.51 0 0 0-.348-1.314 2.364 2.364 0 0 0-.99-.906c-.428-.216-.918-.324-1.47-.324-.56 0-1.052.11-1.476.33-.424.22-.754.53-.99.93s-.354.86-.354 1.38v3.312c0 .52.118.98.354 1.38.236.4.566.71.99.93.424.22.916.33 1.476.33zm5.535-.096c.08 0 .12-.04.12-.12v-3.54c0-.448.136-.818.408-1.11a1.43 1.43 0 0 1 1.032-.462l.156-.012c.176 0 .332.028.468.084.08.032.132.008.156-.072l.132-.588c.016-.072-.008-.124-.072-.156a1.416 1.416 0 0 0-.684-.156c-.344 0-.646.082-.906.246a1.91 1.91 0 0 0-.642.69c-.008.016-.018.022-.03.018s-.018-.018-.018-.042v-.732c0-.08-.04-.12-.12-.12h-.612c-.08 0-.12.04-.12.12v5.832c0 .08.04.12.12.12h.612zm6.064.096c.576 0 1.07-.148 1.482-.444.412-.296.694-.704.846-1.224.112-.336.168-.828.168-1.476 0-.64-.056-1.132-.168-1.476a2.224 2.224 0 0 0-.846-1.2c-.412-.296-.902-.444-1.47-.444-.592 0-1.096.148-1.512.444-.416.296-.7.7-.852 1.212-.112.36-.168.848-.168 1.464s.056 1.108.168 1.476c.16.52.448.928.864 1.224.416.296.912.444 1.488.444zm0-.744c-.4 0-.738-.106-1.014-.318a1.492 1.492 0 0 1-.546-.858c-.064-.28-.096-.684-.096-1.212 0-.528.032-.932.096-1.212.096-.36.28-.646.552-.858.272-.212.604-.318.996-.318s.726.106 1.002.318c.276.212.462.498.558.858.064.28.096.684.096 1.212 0 .52-.036.924-.108 1.212-.096.36-.28.646-.552.858-.272.212-.6.318-.984.318zm6.411.732c.728 0 1.26-.248 1.596-.744.008-.016.02-.02.036-.012.016.008.024.02.024.036v.516c0 .08.04.12.12.12h.612c.08 0 .12-.04.12-.12v-5.832c0-.08-.04-.12-.12-.12h-.612c-.08 0-.12.04-.12.12v3.804c0 .448-.134.808-.402 1.08s-.63.408-1.086.408c-.44 0-.788-.134-1.044-.402s-.384-.63-.384-1.086v-3.804c0-.08-.04-.12-.12-.12h-.612c-.08 0-.12.04-.12.12v4.056c0 .416.094.772.282 1.068.188.296.444.522.768.678.324.156.678.234 1.062.234zm5.404 2.244c.08 0 .12-.04.12-.12v-2.82c0-.016.006-.026.018-.03.012-.004.026.002.042.018.176.232.396.41.66.534.264.124.552.186.864.186.576 0 1.054-.146 1.434-.438.38-.292.642-.694.786-1.206.104-.352.156-.848.156-1.488 0-.632-.06-1.14-.18-1.524a2.196 2.196 0 0 0-.786-1.176c-.38-.288-.85-.432-1.41-.432-.32 0-.61.064-.87.192s-.478.308-.654.54c-.016.016-.03.022-.042.018-.012-.004-.018-.014-.018-.03v-.504c0-.08-.04-.12-.12-.12h-.612c-.08 0-.12.04-.12.12v8.16c0 .08.04.12.12.12h.612zm1.608-2.976c-.304 0-.566-.082-.786-.246a1.358 1.358 0 0 1-.474-.654 2.028 2.028 0 0 1-.168-.582 6.64 6.64 0 0 1-.048-.906c0-.384.016-.684.048-.9.032-.216.084-.404.156-.564.104-.28.264-.504.48-.672.216-.168.484-.252.804-.252.336 0 .626.084.87.252.244.168.414.396.51.684.08.168.136.358.168.57.032.212.048.506.048.882 0 .392-.022.698-.066.918-.044.22-.11.418-.198.594a1.35 1.35 0 0 1-.51.636 1.45 1.45 0 0 1-.834.24zm10.135.648c.752 0 1.358-.2 1.818-.6.46-.4.69-.96.69-1.68 0-.488-.112-.904-.336-1.248-.224-.344-.552-.604-.984-.78-.04-.024-.04-.048 0-.072.392-.16.694-.394.906-.702.212-.308.318-.682.318-1.122 0-.696-.222-1.236-.666-1.62-.444-.384-1.054-.576-1.83-.576h-2.82c-.08 0-.12.04-.12.12v8.16c0 .08.04.12.12.12h2.904zm-.084-4.68h-2.04c-.032 0-.048-.016-.048-.048v-2.88c0-.032.016-.048.048-.048h2.04c.504 0 .906.138 1.206.414.3.276.45.646.45 1.11 0 .44-.15.792-.45 1.056-.3.264-.702.396-1.206.396zm.084 3.924h-2.124c-.032 0-.048-.016-.048-.048v-3.108c0-.032.016-.048.048-.048h2.076c.52 0 .934.146 1.242.438.308.292.462.682.462 1.17 0 .488-.15.876-.45 1.164-.3.288-.702.432-1.206.432zm4.227 3.156c.456 0 .81-.05 1.062-.15.252-.1.462-.278.63-.534.168-.256.348-.652.54-1.188l2.22-6.468c.024-.088-.008-.132-.096-.132h-.624c-.072 0-.12.032-.144.096l-1.536 4.848c-.008.016-.02.024-.036.024-.016 0-.028-.008-.036-.024l-1.56-4.848c-.024-.064-.072-.096-.144-.096h-.636c-.072 0-.108.028-.108.084l.012.048 2.028 5.904c.016.016.016.04 0 .072-.144.464-.278.81-.402 1.038-.124.228-.272.384-.444.468-.172.084-.414.13-.726.138h-.048c-.08 0-.12.04-.12.12v.48c0 .08.028.12.084.12h.084zm11.095-2.304c.92 0 1.646-.212 2.178-.636.532-.424.798-.996.798-1.716 0-.472-.122-.866-.366-1.182a2.62 2.62 0 0 0-.876-.738c-.34-.176-.794-.372-1.362-.588-.536-.192-.932-.35-1.188-.474-.256-.124-.448-.262-.576-.414-.128-.152-.192-.348-.192-.588 0-.336.122-.596.366-.78.244-.184.586-.276 1.026-.276.544 0 .97.13 1.278.39.308.26.462.578.462.954v.132c0 .04.014.074.042.102a.139.139 0 0 0 .102.042h1.08c.04 0 .074-.014.102-.042a.139.139 0 0 0 .042-.102v-.204a2.22 2.22 0 0 0-.384-1.29 2.535 2.535 0 0 0-1.074-.87c-.46-.208-.99-.312-1.59-.312-.856 0-1.54.204-2.052.612-.512.408-.768.964-.768 1.668 0 .472.118.866.354 1.182.236.316.53.566.882.75.352.184.812.38 1.38.588.504.192.882.352 1.134.48.252.128.446.27.582.426a.837.837 0 0 1 .204.57c0 .328-.124.596-.372.804-.248.208-.616.312-1.104.312-.568 0-1.016-.122-1.344-.366-.328-.244-.492-.55-.492-.918v-.228a.139.139 0 0 0-.042-.102.139.139 0 0 0-.102-.042h-1.068a.139.139 0 0 0-.102.042.139.139 0 0 0-.042.102v.3c0 .488.126.912.378 1.272s.61.64 1.074.84c.464.2 1.008.3 1.632.3zm6.063 0c.744 0 1.312-.216 1.704-.648.016-.016.032-.022.048-.018s.024.018.024.042v.384c0 .04.014.074.042.102a.139.139 0 0 0 .102.042h1.104c.04 0 .074-.014.102-.042a.139.139 0 0 0 .042-.102v-4.044c0-.392-.104-.742-.312-1.05a2.09 2.09 0 0 0-.888-.726c-.384-.176-.828-.264-1.332-.264-.696 0-1.274.156-1.734.468-.46.312-.722.712-.786 1.2-.008.032.002.058.03.078.028.02.062.034.102.042l1.164.144c.088.016.144-.024.168-.12a.705.705 0 0 1 .354-.45c.188-.108.434-.162.738-.162.368 0 .644.086.828.258.184.172.276.414.276.726v.288c0 .04-.02.06-.06.06h-1.284c-.792 0-1.406.174-1.842.522-.436.348-.654.834-.654 1.458 0 .6.194 1.052.582 1.356.388.304.882.456 1.482.456zm.348-1.104c-.296 0-.538-.07-.726-.21-.188-.14-.282-.338-.282-.594a.77.77 0 0 1 .366-.684c.244-.16.578-.24 1.002-.24h1.008c.04 0 .06.02.06.06v.564c0 .32-.14.584-.42.792-.28.208-.616.312-1.008.312zm5.632 1.008c.04 0 .074-.014.102-.042a.139.139 0 0 0 .042-.102v-8.112a.139.139 0 0 0-.042-.102.139.139 0 0 0-.102-.042h-1.104a.139.139 0 0 0-.102.042.139.139 0 0 0-.042.102v8.112c0 .04.014.074.042.102a.139.139 0 0 0 .102.042h1.104zm4.467.108c.504 0 .962-.096 1.374-.288.412-.192.742-.464.99-.816.048-.072.036-.136-.036-.192l-.744-.612a.115.115 0 0 0-.084-.036c-.048 0-.088.024-.12.072-.32.448-.752.672-1.296.672-.744-.008-1.212-.3-1.404-.876-.048-.096-.084-.276-.108-.54 0-.04.02-.06.06-.06h3.756c.096 0 .144-.048.144-.144l.012-.372c0-.248-.016-.472-.048-.672-.2-1.648-1.088-2.472-2.664-2.472-.624 0-1.158.162-1.602.486a2.407 2.407 0 0 0-.906 1.326c-.096.288-.144.664-.144 1.128 0 .768.092 1.368.276 1.8.2.504.518.896.954 1.176.436.28.966.42 1.59.42zm1.068-3.708h-2.436c-.048 0-.064-.02-.048-.06.016-.216.048-.392.096-.528.08-.264.218-.47.414-.618.196-.148.442-.222.738-.222.32 0 .586.08.798.24.212.16.354.384.426.672.032.104.056.256.072.456 0 .04-.02.06-.06.06zm5.104 3.672c.744 0 1.34-.162 1.788-.486.448-.324.672-.77.672-1.338 0-.376-.1-.682-.3-.918-.2-.236-.444-.42-.732-.552a8.499 8.499 0 0 0-1.068-.39l-.264-.072c-.44-.12-.754-.23-.942-.33-.188-.1-.282-.246-.282-.438 0-.208.098-.37.294-.486.196-.116.45-.174.762-.174.352 0 .63.07.834.21.204.14.306.314.306.522 0 .04.014.074.042.102a.139.139 0 0 0 .102.042h1.02c.04 0 .074-.014.102-.042a.139.139 0 0 0 .042-.102c0-.352-.1-.666-.3-.942-.2-.276-.484-.492-.852-.648-.368-.156-.796-.234-1.284-.234-.72 0-1.3.166-1.74.498-.44.332-.66.778-.66 1.338 0 .368.096.67.288.906.192.236.428.422.708.558.28.136.624.264 1.032.384l.456.144c.368.104.634.202.798.294.164.092.246.23.246.414 0 .2-.1.366-.3.498-.2.132-.46.198-.78.198-.336 0-.614-.074-.834-.222-.22-.148-.33-.322-.33-.522v-.024a.139.139 0 0 0-.042-.102.139.139 0 0 0-.102-.042h-1.056a.139.139 0 0 0-.102.042.139.139 0 0 0-.042.102v.108c0 .32.104.61.312.87.208.26.502.464.882.612.38.148.822.222 1.326.222zm9.318.024c.592 0 1.116-.112 1.572-.336a2.472 2.472 0 0 0 1.056-.954c.248-.412.372-.89.372-1.434a.108.108 0 0 0-.042-.084.151.151 0 0 0-.102-.036l-1.104-.048c-.096 0-.144.044-.144.132 0 .472-.146.85-.438 1.134-.292.284-.682.426-1.17.426-.488 0-.88-.144-1.176-.432-.296-.288-.444-.664-.444-1.128v-3.06c0-.472.148-.852.444-1.14.296-.288.688-.432 1.176-.432s.878.144 1.17.432c.292.288.438.668.438 1.14 0 .088.048.132.144.132l1.104-.06c.04 0 .074-.014.102-.042a.139.139 0 0 0 .042-.102c0-.536-.124-1.008-.372-1.416a2.484 2.484 0 0 0-1.056-.948c-.456-.224-.98-.336-1.572-.336-.6 0-1.128.116-1.584.348-.456.232-.808.56-1.056.984-.248.424-.372.916-.372 1.476v2.964c0 .56.124 1.052.372 1.476.248.424.6.754 1.056.99.456.236.984.354 1.584.354zm5.776-.096c.04 0 .074-.014.102-.042a.139.139 0 0 0 .042-.102v-3.66c0-.368.106-.664.318-.888.212-.224.49-.336.834-.336s.62.114.828.342c.208.228.312.526.312.894v3.648c0 .04.014.074.042.102a.139.139 0 0 0 .102.042h1.104c.04 0 .074-.014.102-.042a.139.139 0 0 0 .042-.102V97.92c0-.664-.194-1.188-.582-1.572-.388-.384-.906-.576-1.554-.576-.664 0-1.16.216-1.488.648-.008.024-.02.032-.036.024-.016-.008-.024-.024-.024-.048v-2.652a.139.139 0 0 0-.042-.102.139.139 0 0 0-.102-.042h-1.104a.139.139 0 0 0-.102.042.139.139 0 0 0-.042.102v8.112c0 .04.014.074.042.102a.139.139 0 0 0 .102.042h1.104zm7.155.096c.744 0 1.312-.216 1.704-.648.016-.016.032-.022.048-.018s.024.018.024.042v.384c0 .04.014.074.042.102a.139.139 0 0 0 .102.042h1.104c.04 0 .074-.014.102-.042a.139.139 0 0 0 .042-.102v-4.044c0-.392-.104-.742-.312-1.05a2.09 2.09 0 0 0-.888-.726c-.384-.176-.828-.264-1.332-.264-.696 0-1.274.156-1.734.468-.46.312-.722.712-.786 1.2-.008.032.002.058.03.078.028.02.062.034.102.042l1.164.144c.088.016.144-.024.168-.12a.705.705 0 0 1 .354-.45c.188-.108.434-.162.738-.162.368 0 .644.086.828.258.184.172.276.414.276.726v.288c0 .04-.02.06-.06.06h-1.284c-.792 0-1.406.174-1.842.522-.436.348-.654.834-.654 1.458 0 .6.194 1.052.582 1.356.388.304.882.456 1.482.456zm.348-1.104c-.296 0-.538-.07-.726-.21-.188-.14-.282-.338-.282-.594a.77.77 0 0 1 .366-.684c.244-.16.578-.24 1.002-.24h1.008c.04 0 .06.02.06.06v.564c0 .32-.14.584-.42.792-.28.208-.616.312-1.008.312zm5.632 1.008c.04 0 .074-.014.102-.042a.139.139 0 0 0 .042-.102v-3.66c0-.368.106-.664.318-.888.212-.224.49-.336.834-.336s.62.114.828.342c.208.228.312.526.312.894v3.648c0 .04.014.074.042.102a.139.139 0 0 0 .102.042h1.104c.04 0 .074-.014.102-.042a.139.139 0 0 0 .042-.102V97.92c0-.664-.194-1.188-.582-1.572-.388-.384-.906-.576-1.554-.576-.664 0-1.16.216-1.488.648-.008.024-.02.032-.036.024-.016-.008-.024-.024-.024-.048v-.384a.139.139 0 0 0-.042-.102.139.139 0 0 0-.102-.042h-1.104a.139.139 0 0 0-.102.042.139.139 0 0 0-.042.102v5.844c0 .04.014.074.042.102a.139.139 0 0 0 .102.042h1.104zm6.7 0c.04 0 .073-.014.101-.042a.139.139 0 0 0 .042-.102v-3.66c0-.368.106-.664.318-.888.212-.224.49-.336.834-.336s.62.114.828.342c.208.228.312.526.312.894v3.648c0 .04.014.074.042.102a.139.139 0 0 0 .102.042h1.104c.04 0 .074-.014.102-.042a.139.139 0 0 0 .042-.102V97.92c0-.664-.194-1.188-.582-1.572-.388-.384-.906-.576-1.554-.576-.664 0-1.16.216-1.488.648-.008.024-.02.032-.036.024-.016-.008-.024-.024-.024-.048v-.384a.139.139 0 0 0-.042-.102.139.139 0 0 0-.102-.042h-1.104a.139.139 0 0 0-.102.042.139.139 0 0 0-.042.102v5.844c0 .04.014.074.042.102a.139.139 0 0 0 .102.042h1.104zm8.079.108c.504 0 .962-.096 1.374-.288.412-.192.742-.464.99-.816.048-.072.036-.136-.036-.192l-.744-.612a.115.115 0 0 0-.084-.036c-.048 0-.088.024-.12.072-.32.448-.752.672-1.296.672-.744-.008-1.212-.3-1.404-.876-.048-.096-.084-.276-.108-.54 0-.04.02-.06.06-.06h3.756c.096 0 .144-.048.144-.144l.012-.372c0-.248-.016-.472-.048-.672-.2-1.648-1.088-2.472-2.664-2.472-.624 0-1.158.162-1.602.486a2.407 2.407 0 0 0-.906 1.326c-.096.288-.144.664-.144 1.128 0 .768.092 1.368.276 1.8.2.504.518.896.954 1.176.436.28.966.42 1.59.42zm1.068-3.708h-2.436c-.048 0-.064-.02-.048-.06.016-.216.048-.392.096-.528.08-.264.218-.47.414-.618.196-.148.442-.222.738-.222.32 0 .586.08.798.24.212.16.354.384.426.672.032.104.056.256.072.456 0 .04-.02.06-.06.06zm4.167 3.6c.04 0 .074-.014.102-.042a.139.139 0 0 0 .042-.102v-8.112a.139.139 0 0 0-.042-.102.139.139 0 0 0-.102-.042h-1.104a.139.139 0 0 0-.102.042.139.139 0 0 0-.042.102v8.112c0 .04.014.074.042.102a.139.139 0 0 0 .102.042h1.104z"/>
                <path d="M394.765 102.9v-.6H369v.6h25.765zm2.052-.6v.6h15.906v-.6h-15.906zm20.206.6v-.6h-2.045v.6h2.045z"/>
            </g>
        </g>
        <g fill="#5F6368">
            <path d="M363.956 173c.093 0 .154-.047.182-.14l2.982-9.464c.019-.056.014-.103-.014-.14-.028-.037-.07-.056-.126-.056h-1.358c-.103 0-.168.047-.196.14l-2.086 7.308c-.01.028-.023.042-.042.042-.019 0-.033-.014-.042-.042l-2.1-7.308c-.028-.093-.093-.14-.196-.14h-1.386c-.103 0-.154.047-.154.14l.014.056 2.94 9.464c.028.093.089.14.182.14h1.4zm6.256.112c.868 0 1.53-.252 1.988-.756.019-.019.037-.026.056-.021.019.005.028.021.028.049v.448c0 .047.016.086.049.119a.162.162 0 0 0 .119.049h1.288a.162.162 0 0 0 .119-.049.162.162 0 0 0 .049-.119v-4.718c0-.457-.121-.866-.364-1.225-.243-.36-.588-.642-1.036-.847-.448-.205-.966-.308-1.554-.308-.812 0-1.486.182-2.023.546-.537.364-.842.83-.917 1.4-.01.037.002.068.035.091.033.023.072.04.119.049l1.358.168c.103.019.168-.028.196-.14a.822.822 0 0 1 .413-.525c.22-.126.506-.189.861-.189.43 0 .751.1.966.301.215.2.322.483.322.847v.336c0 .047-.023.07-.07.07h-1.498c-.924 0-1.64.203-2.149.609-.509.406-.763.973-.763 1.701 0 .7.226 1.227.679 1.582.453.355 1.029.532 1.729.532zm.406-1.288c-.345 0-.628-.082-.847-.245-.22-.163-.329-.394-.329-.693 0-.345.142-.611.427-.798.285-.187.674-.28 1.169-.28h1.176c.047 0 .07.023.07.07v.658c0 .373-.163.681-.49.924-.327.243-.719.364-1.176.364zm6.97 1.176a.162.162 0 0 0 .119-.049.162.162 0 0 0 .049-.119v-9.464a.162.162 0 0 0-.049-.119.162.162 0 0 0-.119-.049H376.3a.162.162 0 0 0-.119.049.162.162 0 0 0-.049.119v9.464c0 .047.016.086.049.119a.162.162 0 0 0 .119.049h1.288zm4.912.098c.765 0 1.34-.247 1.722-.742.019-.028.037-.037.056-.028.019.01.028.028.028.056v.448c0 .047.016.086.049.119a.162.162 0 0 0 .119.049h1.274a.162.162 0 0 0 .119-.049.162.162 0 0 0 .049-.119v-6.818a.162.162 0 0 0-.049-.119.162.162 0 0 0-.119-.049h-1.274a.162.162 0 0 0-.119.049.162.162 0 0 0-.049.119v4.256c0 .439-.126.789-.378 1.05s-.588.392-1.008.392c-.41 0-.73-.13-.959-.392-.229-.261-.343-.611-.343-1.05v-4.256a.162.162 0 0 0-.049-.119.162.162 0 0 0-.119-.049h-1.288a.162.162 0 0 0-.119.049.162.162 0 0 0-.049.119v4.718c0 .756.24 1.34.721 1.75.48.41 1.076.616 1.785.616zm8.874.028c.588 0 1.122-.112 1.603-.336a2.86 2.86 0 0 0 1.155-.952c.056-.084.042-.159-.042-.224l-.868-.714a.134.134 0 0 0-.098-.042c-.056 0-.103.028-.14.084-.373.523-.877.784-1.512.784-.868-.01-1.414-.35-1.638-1.022-.056-.112-.098-.322-.126-.63 0-.047.023-.07.07-.07h4.382c.112 0 .168-.056.168-.168l.014-.434c0-.29-.019-.55-.056-.784-.233-1.923-1.27-2.884-3.108-2.884-.728 0-1.351.189-1.869.567-.518.378-.87.894-1.057 1.547-.112.336-.168.775-.168 1.316 0 .896.107 1.596.322 2.1a2.82 2.82 0 0 0 1.113 1.372c.509.327 1.127.49 1.855.49zm1.246-4.326h-2.842c-.056 0-.075-.023-.056-.07a2.43 2.43 0 0 1 .112-.616c.093-.308.254-.548.483-.721.229-.173.516-.259.861-.259.373 0 .684.093.931.28.247.187.413.448.497.784.037.121.065.299.084.532 0 .047-.023.07-.07.07zM531.179 184.062l-.485.875A3.482 3.482 0 0 0 529 184.5v-1c.772 0 1.518.195 2.179.562zm2.321 5.815h-1l-.002-1.993 1-.033.002.14v1.886zm0 6h-1v-2h1v2zm0 6h-1v-2h1v2zm0 6h-1v-2h1v2zm-1.989 5.858-.558-.83c.49-.33.892-.782 1.163-1.309l.89.457a4.518 4.518 0 0 1-1.495 1.682zm-6.265.765v-1h2v1h-2zm-6 0v-1h2v1h-2zm-6 0v-1h2v1h-2zm-6 0v-1h2v1h-2zm-6 0v-1h2v1h-2zm-6 0v-1h2v1h-2zm-6 0v-1h2v1h-2zm-6 0v-1h2v1h-2zm-6 0v-1h2v1h-2zm-6 0v-1h2v1h-2zm-6 0v-1h2v1h-2zm-6 0v-1h2v1h-2zm-6 0v-1h2v1h-2zm-6 0v-1h2v1h-2zm-6 0v-1h2v1h-2zm-6 0v-1h2v1h-2zm-6 0v-1h2v1h-2zm-6 0v-1h2v1h-2zm-6 0v-1h2v1h-2zm-6 0v-1h2v1h-2zm-6 0v-1h2v1h-2zm-6 0v-1h2v1h-2zm-6 0v-1h2v1h-2zm-6 0v-1h2v1h-2zm-6 0v-1h2v1h-2zm-6 0v-1h2v1h-2zm-6 0v-1h2v1h-2zm-6 0v-1h2v1h-2zm-4.718-3.993.994-.111c.067.593.283 1.152.626 1.633l-.815.58a4.478 4.478 0 0 1-.805-2.102zm-.028-6.138h1v2h-1v-2zm0-6h1v2h-1v-2zm0-6h1v2h-1v-2zm.373-6.166.917.4c-.19.436-.29.91-.29 1.397v.369h-1V188c0-.626.128-1.235.373-1.797zm5.635-2.703v1h-1.54a3.534 3.534 0 0 0-.43.03l-.13-.991a4.55 4.55 0 0 1 .555-.039h1.545zm6 0v1h-2v-1h2zm6 0v1h-2v-1h2zm6 0v1h-2v-1h2zm6 0v1h-2v-1h2zm6 0v1h-2v-1h2zm6 0v1h-2v-1h2zm6 0v1h-2v-1h2zm6 0v1h-2v-1h2zm6 0v1h-2v-1h2zm6 0v1h-2v-1h2zm6 0v1h-2v-1h2zm6 0v1h-2v-1h2zm6 0v1h-2v-1h2zm6 0v1h-2v-1h2zm6 0v1h-2v-1h2zm6 0v1h-2v-1h2zm6 0v1h-2v-1h2zm6 0v1h-2v-1h2zm6 0v1h-2v-1h2zm6 0v1h-2v-1h2zm6 0v1h-2v-1h2zm6 0v1h-2v-1h2zm6 0v1h-2v-1h2zm6 0v1h-2v-1h2zm6 0v1h-2v-1h2zm6 0v1h-2v-1h2zm6 0v1h-2v-1h2zM370.176 204c.072 0 .12-.032.144-.096l.48-1.512c.008-.024.024-.036.048-.036h3.588c.024 0 .04.012.048.036l.48 1.512c.024.064.072.096.144.096h.648c.072 0 .108-.028.108-.084l-.012-.048-2.664-8.172c-.024-.064-.072-.096-.144-.096h-.816c-.072 0-.12.032-.144.096l-2.652 8.172c-.024.088.008.132.096.132h.648zm4.008-2.34h-3.096a.058.058 0 0 1-.042-.018c-.012-.012-.014-.026-.006-.042l1.56-4.896c.008-.016.02-.024.036-.024.016 0 .028.008.036.024l1.56 4.896c.008.016.006.03-.006.042a.058.058 0 0 1-.042.018zm4.671 4.728c.904 0 1.614-.208 2.13-.624.516-.416.774-1.072.774-1.968v-5.748c0-.08-.04-.12-.12-.12h-.612c-.08 0-.12.04-.12.12v.468a.04.04 0 0 1-.018.036c-.012.008-.026.004-.042-.012-.368-.472-.908-.708-1.62-.708-.528 0-.98.146-1.356.438a2.24 2.24 0 0 0-.78 1.158 2.78 2.78 0 0 0-.126.648c-.02.24-.03.536-.03.888 0 .648.048 1.136.144 1.464.136.512.406.908.81 1.188.404.28.866.42 1.386.42.68 0 1.204-.24 1.572-.72.016-.016.03-.022.042-.018.012.004.018.014.018.03v.444c0 .632-.168 1.094-.504 1.386-.336.292-.876.438-1.62.438l-.324-.012a.09.09 0 0 0-.084.018c-.024.02-.036.05-.036.09l-.024.552c0 .08.04.124.12.132.096.008.236.012.42.012zm.552-3.072c-.384 0-.71-.11-.978-.33a1.502 1.502 0 0 1-.522-.834c-.08-.224-.12-.628-.12-1.212 0-.544.04-.944.12-1.2.104-.344.286-.624.546-.84.26-.216.578-.324.954-.324.384 0 .702.11.954.33.252.22.41.498.474.834.032.12.052.25.06.39s.012.414.012.822c0 .336-.004.592-.012.768a3.011 3.011 0 0 1-.048.444 1.404 1.404 0 0 1-.474.828c-.252.216-.574.324-.966.324zm6.04 3.072c.904 0 1.614-.208 2.13-.624.516-.416.774-1.072.774-1.968v-5.748c0-.08-.04-.12-.12-.12h-.612c-.08 0-.12.04-.12.12v.468a.04.04 0 0 1-.018.036c-.012.008-.026.004-.042-.012-.368-.472-.908-.708-1.62-.708-.528 0-.98.146-1.356.438a2.24 2.24 0 0 0-.78 1.158 2.78 2.78 0 0 0-.126.648c-.02.24-.03.536-.03.888 0 .648.048 1.136.144 1.464.136.512.406.908.81 1.188.404.28.866.42 1.386.42.68 0 1.204-.24 1.572-.72.016-.016.03-.022.042-.018.012.004.018.014.018.03v.444c0 .632-.168 1.094-.504 1.386-.336.292-.876.438-1.62.438l-.324-.012a.09.09 0 0 0-.084.018c-.024.02-.036.05-.036.09l-.024.552c0 .08.04.124.12.132.096.008.236.012.42.012zm.552-3.072c-.384 0-.71-.11-.978-.33a1.502 1.502 0 0 1-.522-.834c-.08-.224-.12-.628-.12-1.212 0-.544.04-.944.12-1.2.104-.344.286-.624.546-.84.26-.216.578-.324.954-.324.384 0 .702.11.954.33.252.22.41.498.474.834.032.12.052.25.06.39s.012.414.012.822v.192c-.002.243-.006.435-.012.576a3.011 3.011 0 0 1-.048.444 1.404 1.404 0 0 1-.474.828c-.252.216-.574.324-.966.324zm5.08.684c.08 0 .12-.04.12-.12v-3.54c0-.448.135-.818.407-1.11a1.43 1.43 0 0 1 1.032-.462l.156-.012c.176 0 .332.028.468.084.08.032.132.008.156-.072l.132-.588c.016-.072-.008-.124-.072-.156a1.416 1.416 0 0 0-.684-.156c-.344 0-.646.082-.906.246a1.91 1.91 0 0 0-.642.69c-.008.016-.018.022-.03.018s-.018-.018-.018-.042v-.732c0-.08-.04-.12-.12-.12h-.612c-.08 0-.12.04-.12.12v5.832c0 .08.04.12.12.12h.612zm6.039.108c.52 0 .98-.11 1.38-.33.4-.22.7-.522.9-.906.032-.072.016-.128-.048-.168l-.468-.276c-.064-.04-.12-.024-.168.048-.144.28-.344.496-.6.648a1.706 1.706 0 0 1-.888.228c-.448 0-.816-.104-1.104-.312a1.435 1.435 0 0 1-.564-.852c-.032-.128-.056-.412-.072-.852 0-.032.016-.048.048-.048h3.876c.08 0 .12-.04.12-.12v-.384c0-.336-.016-.616-.048-.84-.096-.672-.34-1.192-.732-1.56-.392-.368-.952-.552-1.68-.552-.584 0-1.082.156-1.494.468a2.223 2.223 0 0 0-.822 1.248 2.618 2.618 0 0 0-.09.57c-.012.212-.018.486-.018.822 0 .72.072 1.272.216 1.656.168.472.444.84.828 1.104.384.264.86.4 1.428.408zm1.524-3.54h-3.108c-.032 0-.048-.016-.048-.048.016-.376.048-.648.096-.816.08-.344.25-.618.51-.822.26-.204.586-.306.978-.306.408 0 .746.106 1.014.318.268.212.446.498.534.858.032.152.056.408.072.768 0 .032-.016.048-.048.048zm4.443 5.82c.904 0 1.614-.208 2.13-.624.516-.416.774-1.072.774-1.968v-5.748c0-.08-.04-.12-.12-.12h-.612c-.08 0-.12.04-.12.12v.468a.04.04 0 0 1-.018.036c-.012.008-.026.004-.042-.012-.368-.472-.908-.708-1.62-.708-.528 0-.98.146-1.356.438a2.24 2.24 0 0 0-.78 1.158 2.78 2.78 0 0 0-.126.648c-.02.24-.03.536-.03.888 0 .648.048 1.136.144 1.464.136.512.406.908.81 1.188.404.28.866.42 1.386.42.68 0 1.204-.24 1.572-.72.016-.016.03-.022.042-.018.012.004.018.014.018.03v.444c0 .632-.168 1.094-.504 1.386-.336.292-.876.438-1.62.438l-.324-.012a.09.09 0 0 0-.084.018c-.024.02-.036.05-.036.09l-.024.552c0 .08.04.124.12.132.096.008.236.012.42.012zm.552-3.072c-.384 0-.71-.11-.978-.33a1.502 1.502 0 0 1-.522-.834c-.08-.224-.12-.628-.12-1.212 0-.544.04-.944.12-1.2.104-.344.286-.624.546-.84.26-.216.578-.324.954-.324.384 0 .702.11.954.33.252.22.41.498.474.834.032.12.052.25.06.39s.012.414.012.822c0 .336-.004.592-.012.768a3.011 3.011 0 0 1-.048.444 1.404 1.404 0 0 1-.474.828c-.252.216-.574.324-.966.324zm5.944.78c.392 0 .748-.062 1.068-.186.32-.124.58-.306.78-.546.016-.016.03-.02.042-.012a.04.04 0 0 1 .018.036v.492c0 .08.04.12.12.12h.612c.08 0 .12-.04.12-.12v-4.032c0-.608-.196-1.096-.588-1.464-.392-.368-.948-.552-1.668-.552-.624 0-1.144.14-1.56.42-.416.28-.656.644-.72 1.092-.016.048.02.08.108.096l.648.084c.072.008.12-.028.144-.108a.93.93 0 0 1 .444-.618c.24-.148.552-.222.936-.222.48 0 .834.118 1.062.354.228.236.342.558.342.966v.456c0 .032-.016.048-.048.048h-1.392c-.776 0-1.382.174-1.818.522-.436.348-.654.822-.654 1.422 0 .592.192 1.032.576 1.32.384.288.86.432 1.428.432zm.168-.732c-.392 0-.71-.09-.954-.27-.244-.18-.366-.446-.366-.798 0-.384.16-.684.48-.9.32-.216.744-.324 1.272-.324h1.26c.032 0 .048.016.048.048v.936c0 .4-.172.718-.516.954-.344.236-.752.354-1.224.354zm6.615.648c.2 0 .348-.004.444-.012.08 0 .12-.04.12-.12v-.492c0-.08-.04-.12-.12-.12h-.3c-.368 0-.638-.078-.81-.234-.172-.156-.258-.426-.258-.81v-3.54c0-.032.016-.048.048-.048h1.356c.08 0 .12-.04.12-.12v-.468c0-.08-.04-.12-.12-.12h-1.356c-.032 0-.048-.016-.048-.048v-1.392c0-.08-.04-.12-.12-.12h-.588c-.08 0-.12.04-.12.12v1.392c0 .032-.016.048-.048.048h-.732c-.08 0-.12.04-.12.12v.468c0 .08.04.12.12.12h.732c.032 0 .048.016.048.048v3.804c0 .584.148.984.444 1.2.296.216.732.324 1.308.324zm2.991-7.188a.651.651 0 0 0 .48-.192.651.651 0 0 0 .192-.48.646.646 0 0 0-.672-.672.646.646 0 0 0-.672.672c0 .192.064.352.192.48a.651.651 0 0 0 .48.192zm.276 7.164c.08 0 .12-.04.12-.12v-5.832c0-.08-.04-.12-.12-.12h-.612c-.08 0-.12.04-.12.12v5.832c0 .08.04.12.12.12h.612zm4.696.108c.576 0 1.07-.148 1.482-.444.412-.296.694-.704.846-1.224.112-.336.168-.828.168-1.476 0-.64-.056-1.132-.168-1.476a2.224 2.224 0 0 0-.846-1.2c-.412-.296-.902-.444-1.47-.444-.592 0-1.096.148-1.512.444-.416.296-.7.7-.852 1.212-.112.36-.168.848-.168 1.464s.056 1.108.168 1.476c.16.52.448.928.864 1.224.416.296.912.444 1.488.444zm0-.744c-.4 0-.738-.106-1.014-.318a1.492 1.492 0 0 1-.546-.858c-.064-.28-.096-.684-.096-1.212 0-.528.032-.932.096-1.212.096-.36.28-.646.552-.858.272-.212.604-.318.996-.318s.726.106 1.002.318c.276.212.462.498.558.858.064.28.096.684.096 1.212 0 .52-.036.924-.108 1.212-.096.36-.28.646-.552.858-.272.212-.6.318-.984.318zm5.127.648c.08 0 .12-.04.12-.12v-3.816c0-.44.136-.796.408-1.068.272-.272.628-.408 1.068-.408.424 0 .77.14 1.038.42.268.28.402.64.402 1.08v3.792c0 .08.04.12.12.12h.612c.08 0 .12-.04.12-.12v-3.96c0-.632-.19-1.136-.57-1.512-.38-.376-.89-.564-1.53-.564-.728 0-1.268.248-1.62.744-.008.016-.018.02-.03.012a.04.04 0 0 1-.018-.036v-.516c0-.08-.04-.12-.12-.12h-.612c-.08 0-.12.04-.12.12v5.832c0 .08.04.12.12.12h.612zm11.071.096c.88 0 1.568-.2 2.064-.6.496-.4.744-.936.744-1.608 0-.432-.11-.798-.33-1.098a2.81 2.81 0 0 0-.864-.762 11.633 11.633 0 0 0-1.41-.672 15.418 15.418 0 0 1-1.278-.546 1.867 1.867 0 0 1-.636-.492c-.148-.188-.222-.426-.222-.714 0-.44.152-.776.456-1.008.304-.232.74-.348 1.308-.348.648 0 1.154.148 1.518.444.364.296.546.676.546 1.14v.216c0 .08.04.12.12.12h.6c.08 0 .12-.04.12-.12v-.264c0-.688-.256-1.24-.768-1.656-.512-.416-1.212-.624-2.1-.624-.816 0-1.458.186-1.926.558-.468.372-.702.894-.702 1.566 0 .432.102.79.306 1.074.204.284.472.516.804.696.332.18.798.39 1.398.63.56.232.994.436 1.302.612.308.176.536.364.684.564.148.2.222.44.222.72 0 .432-.16.778-.48 1.038-.32.26-.788.39-1.404.39-.68 0-1.212-.142-1.596-.426-.384-.284-.576-.658-.576-1.122v-.324c0-.08-.04-.12-.12-.12h-.588c-.08 0-.12.04-.12.12v.372c0 .68.262 1.224.786 1.632.524.408 1.238.612 2.142.612zm6.604-.012c.728 0 1.26-.248 1.596-.744.008-.016.02-.02.036-.012.016.008.024.02.024.036v.516c0 .08.04.12.12.12h.612c.08 0 .12-.04.12-.12v-5.832c0-.08-.04-.12-.12-.12h-.612c-.08 0-.12.04-.12.12v3.804c0 .448-.134.808-.402 1.08s-.63.408-1.086.408c-.44 0-.788-.134-1.044-.402s-.384-.63-.384-1.086v-3.804c0-.08-.04-.12-.12-.12h-.612c-.08 0-.12.04-.12.12v4.056c0 .416.094.772.282 1.068.188.296.444.522.768.678.324.156.678.234 1.062.234zm5.319-.084c.08 0 .12-.04.12-.12v-3.876c0-.432.126-.776.378-1.032s.59-.384 1.014-.384c.416 0 .748.13.996.39s.372.61.372 1.05v3.852c0 .08.04.12.12.12h.612c.08 0 .12-.04.12-.12v-3.876c0-.432.13-.776.39-1.032s.602-.384 1.026-.384c.408 0 .738.13.99.39s.378.61.378 1.05v3.852c0 .08.04.12.12.12h.6c.08 0 .12-.04.12-.12v-4.02c0-.624-.174-1.116-.522-1.476-.348-.36-.822-.54-1.422-.54a2.36 2.36 0 0 0-1.092.246c-.32.164-.568.41-.744.738-.024.04-.044.04-.06 0a1.615 1.615 0 0 0-.672-.732c-.296-.168-.652-.252-1.068-.252-.336 0-.642.058-.918.174-.276.116-.502.29-.678.522-.016.016-.03.022-.042.018-.012-.004-.018-.014-.018-.03v-.48c0-.08-.04-.12-.12-.12h-.612c-.08 0-.12.04-.12.12v5.832c0 .08.04.12.12.12h.612zm14.959 0c.04 0 .074-.014.102-.042a.139.139 0 0 0 .042-.102v-6.984c0-.04.02-.06.06-.06h2.208c.04 0 .074-.014.102-.042a.139.139 0 0 0 .042-.102v-.924a.139.139 0 0 0-.042-.102.139.139 0 0 0-.102-.042h-5.844a.139.139 0 0 0-.102.042.139.139 0 0 0-.042.102v.924c0 .04.014.074.042.102a.139.139 0 0 0 .102.042h2.124c.04 0 .06.02.06.06v6.984c0 .04.014.074.042.102a.139.139 0 0 0 .102.042h1.104zm5.535.096c.616 0 1.148-.162 1.596-.486.448-.324.764-.77.948-1.338a4.31 4.31 0 0 0 .204-1.368c0-.528-.072-.984-.216-1.368-.184-.552-.498-.984-.942-1.296-.444-.312-.97-.468-1.578-.468-.64 0-1.188.156-1.644.468-.456.312-.776.748-.96 1.308-.128.4-.192.856-.192 1.368 0 .48.068.936.204 1.368.184.568.502 1.012.954 1.332.452.32.994.48 1.626.48zm0-1.2c-.312 0-.578-.084-.798-.252a1.322 1.322 0 0 1-.462-.708c-.08-.28-.12-.616-.12-1.008s.04-.728.12-1.008c.096-.304.252-.538.468-.702.216-.164.472-.246.768-.246.312 0 .576.082.792.246.216.164.368.398.456.702.08.24.12.576.12 1.008 0 .408-.04.744-.12 1.008-.096.304-.25.54-.462.708a1.19 1.19 0 0 1-.762.252zm6.496 1.128.624-.012c.096-.016.144-.068.144-.156v-.9a.139.139 0 0 0-.042-.102.139.139 0 0 0-.102-.042h-.36c-.288 0-.498-.068-.63-.204-.132-.136-.198-.356-.198-.66v-2.892c0-.04.02-.06.06-.06h1.224c.04 0 .074-.014.102-.042a.139.139 0 0 0 .042-.102v-.84a.139.139 0 0 0-.042-.102.139.139 0 0 0-.102-.042h-1.224c-.04 0-.06-.02-.06-.06v-1.404a.139.139 0 0 0-.042-.102.139.139 0 0 0-.102-.042h-1.044a.139.139 0 0 0-.102.042.139.139 0 0 0-.042.102v1.404c0 .04-.02.06-.06.06h-.684a.139.139 0 0 0-.102.042.139.139 0 0 0-.042.102v.84c0 .04.014.074.042.102a.139.139 0 0 0 .102.042h.684c.04 0 .06.02.06.06v3.42c.008.6.168 1.008.48 1.224.312.216.784.324 1.416.324zm3.975.072c.744 0 1.312-.216 1.704-.648.016-.016.032-.022.048-.018s.024.018.024.042v.384c0 .04.014.074.042.102a.139.139 0 0 0 .102.042h1.104c.04 0 .074-.014.102-.042a.139.139 0 0 0 .042-.102v-4.044c0-.392-.104-.742-.312-1.05a2.09 2.09 0 0 0-.888-.726c-.384-.176-.828-.264-1.332-.264-.696 0-1.274.156-1.734.468-.46.312-.722.712-.786 1.2-.008.032.002.058.03.078.028.02.062.034.102.042l1.164.144c.088.016.144-.024.168-.12a.705.705 0 0 1 .354-.45c.188-.108.434-.162.738-.162.368 0 .644.086.828.258.184.172.276.414.276.726v.288c0 .04-.02.06-.06.06h-1.284c-.792 0-1.406.174-1.842.522-.436.348-.654.834-.654 1.458 0 .6.194 1.052.582 1.356.388.304.882.456 1.482.456zm.348-1.104c-.296 0-.538-.07-.726-.21-.188-.14-.282-.338-.282-.594a.77.77 0 0 1 .366-.684c.244-.16.578-.24 1.002-.24h1.008c.04 0 .06.02.06.06v.564c0 .32-.14.584-.42.792-.28.208-.616.312-1.008.312zm5.632 1.008c.04 0 .074-.014.102-.042a.139.139 0 0 0 .042-.102v-8.112a.139.139 0 0 0-.042-.102.139.139 0 0 0-.102-.042h-1.104a.139.139 0 0 0-.102.042.139.139 0 0 0-.042.102v8.112c0 .04.014.074.042.102a.139.139 0 0 0 .102.042h1.104zm5.67 0c.04 0 .074-.014.102-.042a.139.139 0 0 0 .042-.102v-3.228c0-.04.02-.06.06-.06h1.92c.52 0 .978-.102 1.374-.306a2.19 2.19 0 0 0 .918-.87c.216-.376.324-.808.324-1.296 0-.496-.106-.934-.318-1.314a2.207 2.207 0 0 0-.894-.882c-.384-.208-.828-.312-1.332-.312h-3.3a.139.139 0 0 0-.102.042.139.139 0 0 0-.042.102v8.124c0 .04.014.074.042.102a.139.139 0 0 0 .102.042h1.104zm1.992-4.56h-1.788c-.04 0-.06-.02-.06-.06v-2.532c0-.04.02-.06.06-.06h1.788c.408 0 .736.124.984.372s.372.572.372.972c0 .392-.124.708-.372.948s-.576.36-.984.36zm5.26 4.56c.04 0 .074-.014.102-.042a.139.139 0 0 0 .042-.102v-3.396c0-.352.112-.638.336-.858a1.24 1.24 0 0 1 .84-.354c.056-.008.136-.012.24-.012.16 0 .3.02.42.06.104.04.16.012.168-.084l.204-1.08c.016-.088-.008-.148-.072-.18a1.39 1.39 0 0 0-.672-.156c-.6 0-1.068.26-1.404.78-.016.024-.03.034-.042.03-.012-.004-.018-.022-.018-.054v-.54a.139.139 0 0 0-.042-.102.139.139 0 0 0-.102-.042h-1.104a.139.139 0 0 0-.102.042.139.139 0 0 0-.042.102v5.844c0 .04.014.074.042.102a.139.139 0 0 0 .102.042h1.104zm5.92.096c.615 0 1.147-.162 1.595-.486.448-.324.764-.77.948-1.338a4.31 4.31 0 0 0 .204-1.368c0-.528-.072-.984-.216-1.368-.184-.552-.498-.984-.942-1.296-.444-.312-.97-.468-1.578-.468-.64 0-1.188.156-1.644.468-.456.312-.776.748-.96 1.308-.128.4-.192.856-.192 1.368 0 .48.068.936.204 1.368.184.568.502 1.012.954 1.332.452.32.994.48 1.626.48zm0-1.2c-.313 0-.579-.084-.799-.252a1.322 1.322 0 0 1-.462-.708c-.08-.28-.12-.616-.12-1.008s.04-.728.12-1.008c.096-.304.252-.538.468-.702.216-.164.472-.246.768-.246.312 0 .576.082.792.246.216.164.368.398.456.702.08.24.12.576.12 1.008 0 .408-.04.744-.12 1.008-.096.304-.25.54-.462.708a1.19 1.19 0 0 1-.762.252zm9.543-5.868c.248 0 .452-.08.612-.24.16-.16.24-.364.24-.612a.829.829 0 0 0-.24-.612.829.829 0 0 0-.612-.24.829.829 0 0 0-.612.24.829.829 0 0 0-.24.612c0 .248.08.452.24.612.16.16.364.24.612.24zM514.274 204c.04 0 .074-.014.102-.042a.139.139 0 0 0 .042-.102v-4.704c0-.04.02-.06.06-.06h1.188c.04 0 .074-.014.102-.042a.139.139 0 0 0 .042-.102V198a.139.139 0 0 0-.042-.102.139.139 0 0 0-.102-.042h-1.188c-.04 0-.06-.02-.06-.06v-.12c0-.36.066-.608.198-.744s.37-.204.714-.204h.312c.04 0 .074-.014.102-.042a.139.139 0 0 0 .042-.102v-.84a.139.139 0 0 0-.042-.102.139.139 0 0 0-.102-.042h-.42c-.568-.008-1.008.048-1.32.168-.312.12-.536.322-.672.606s-.204.686-.204 1.206v.216c0 .04-.02.06-.06.06h-.744a.139.139 0 0 0-.102.042.139.139 0 0 0-.042.102v.948c0 .04.014.074.042.102a.139.139 0 0 0 .102.042h.744c.04 0 .06.02.06.06v4.704c0 .04.014.074.042.102a.139.139 0 0 0 .102.042h1.104zm4.032 0c.04 0 .074-.014.102-.042a.139.139 0 0 0 .042-.102V198a.139.139 0 0 0-.042-.102.139.139 0 0 0-.102-.042h-1.104a.139.139 0 0 0-.102.042.139.139 0 0 0-.042.102v5.856c0 .04.014.074.042.102a.139.139 0 0 0 .102.042h1.104zm4.3.024.623-.012c.096-.016.144-.068.144-.156v-.9a.139.139 0 0 0-.042-.102.139.139 0 0 0-.102-.042h-.36c-.288 0-.498-.068-.63-.204-.132-.136-.198-.356-.198-.66v-2.892c0-.04.02-.06.06-.06h1.224c.04 0 .074-.014.102-.042a.139.139 0 0 0 .042-.102v-.84a.139.139 0 0 0-.042-.102.139.139 0 0 0-.102-.042h-1.224c-.04 0-.06-.02-.06-.06v-1.404a.139.139 0 0 0-.042-.102.139.139 0 0 0-.102-.042h-1.044a.139.139 0 0 0-.102.042.139.139 0 0 0-.042.102v1.404c0 .04-.02.06-.06.06h-.684a.139.139 0 0 0-.102.042.139.139 0 0 0-.042.102v.84c0 .04.014.074.042.102a.139.139 0 0 0 .102.042h.684c.04 0 .06.02.06.06v3.42c.008.6.168 1.008.48 1.224.312.216.784.324 1.416.324z"/>
            <path d="M380.028 204.9v-.6H369v.6h11.028zm6.591 0v-.6h-4.291v.6h4.291zm17.639 0v-.6H388.92v.6h15.338zm30.164 0v-.6h-27.864v.6h27.864zm2.551-.6v.6h23.898v-.6h-23.898z"/>
        </g>
    </g>
</svg>
