<svg width="515" height="179" xmlns="http://www.w3.org/2000/svg" xmlns:xlink="http://www.w3.org/1999/xlink">
    <defs>
        <path id="a" d="m359.499 37.374 6.033 3.315.39.214-.386.222-5.966 3.434-.25-.433 5.14-2.959-5.039.05-45.08.445-.004-.5 45.08-.445 5.037-.049-5.196-2.856z"/>
        <path id="b" d="m365.685 79.398-.136.423-2.1 6.556-.476-.153 1.809-5.648-3.68 3.419-46.592 43.26-.17.066H101v-.5h213.241l46.52-43.193 3.68-3.418-5.765 1.387-.117-.486 6.694-1.61z"/>
    </defs>
    <g fill="none" fill-rule="evenodd">
        <path d="M8.197 9.912c.094 0 .14-.047.14-.14V5.376c0-.037.02-.056.056-.056h2.646c.028 0 .047.014.056.042l2.142 4.452c.028.065.084.098.168.098h.462c.075 0 .112-.033.112-.098a.156.156 0 0 0-.014-.07l-2.142-4.41c-.018-.028-.004-.051.042-.07.616-.112 1.106-.394 1.47-.847.364-.453.546-1.01.546-1.673 0-.784-.24-1.419-.72-1.904-.481-.485-1.114-.728-1.898-.728H7.735c-.093 0-.14.047-.14.14v9.52c0 .093.047.14.14.14h.462zm2.996-5.208h-2.8c-.037 0-.056-.019-.056-.056V.826c0-.037.02-.056.056-.056h2.8c.58 0 1.048.182 1.407.546.36.364.54.84.54 1.428 0 .579-.18 1.05-.54 1.414-.359.364-.828.546-1.407.546zm7.908 5.32c.598 0 1.118-.135 1.561-.406.444-.27.768-.635.973-1.092.038-.075.014-.135-.07-.182l-.364-.182c-.074-.037-.135-.014-.182.07a2.06 2.06 0 0 1-.735.833c-.312.2-.688.301-1.127.301-.55 0-1.005-.133-1.365-.399a1.79 1.79 0 0 1-.693-1.085c-.046-.196-.07-.593-.07-1.19 0-.037.02-.056.056-.056h4.564c.094 0 .14-.047.14-.14 0-.355-.004-.651-.014-.889a5.407 5.407 0 0 0-.056-.623c-.112-.7-.396-1.248-.854-1.645-.457-.397-1.068-.595-1.834-.595-.672 0-1.239.177-1.7.532a2.505 2.505 0 0 0-.918 1.414c-.046.196-.077.41-.09.644-.015.233-.022.579-.022 1.036 0 .439.014.803.042 1.092.028.29.08.55.154.784.168.55.481.985.938 1.302.458.317 1.013.476 1.666.476zm1.89-4.018h-3.906c-.037 0-.056-.019-.056-.056.02-.55.052-.915.098-1.092.094-.439.308-.791.644-1.057.336-.266.756-.399 1.26-.399s.93.138 1.274.413c.346.275.57.637.672 1.085.047.233.07.583.07 1.05 0 .037-.018.056-.056.056zm5.724 3.906c.084 0 .14-.037.168-.112l2.31-6.776c.028-.103-.009-.154-.112-.154l-.518-.014c-.084 0-.14.037-.168.112l-1.904 5.796c-.009.019-.023.028-.042.028-.018 0-.032-.01-.042-.028l-1.904-5.796c-.028-.075-.084-.112-.168-.112h-.532c-.084 0-.126.033-.126.098l.014.056 2.324 6.79c.028.075.084.112.168.112h.532zm7.194.112c.598 0 1.118-.135 1.561-.406.444-.27.768-.635.973-1.092.038-.075.014-.135-.07-.182l-.364-.182c-.074-.037-.135-.014-.182.07a2.06 2.06 0 0 1-.735.833c-.312.2-.688.301-1.127.301-.55 0-1.005-.133-1.365-.399a1.79 1.79 0 0 1-.693-1.085c-.046-.196-.07-.593-.07-1.19 0-.037.02-.056.056-.056h4.564c.094 0 .14-.047.14-.14 0-.355-.004-.651-.014-.889a5.407 5.407 0 0 0-.056-.623c-.112-.7-.396-1.248-.854-1.645-.457-.397-1.068-.595-1.834-.595-.672 0-1.239.177-1.7.532a2.505 2.505 0 0 0-.918 1.414c-.046.196-.077.41-.09.644-.015.233-.022.579-.022 1.036 0 .439.014.803.042 1.092.028.29.08.55.154.784.168.55.481.985.938 1.302.458.317 1.013.476 1.666.476zm1.89-4.018h-3.906c-.037 0-.056-.019-.056-.056.02-.55.052-.915.098-1.092.094-.439.308-.791.644-1.057.336-.266.756-.399 1.26-.399s.93.138 1.274.413c.346.275.57.637.672 1.085.047.233.07.583.07 1.05 0 .037-.018.056-.056.056zm4.156 3.906c.094 0 .14-.047.14-.14V5.264c0-.55.173-.996.518-1.337.346-.34.798-.511 1.358-.511.542 0 .98.175 1.316.525.336.35.504.8.504 1.351v4.48c0 .093.047.14.14.14h.462c.094 0 .14-.047.14-.14v-4.62c0-.719-.221-1.297-.665-1.736-.443-.439-1.024-.658-1.743-.658-.438 0-.826.082-1.162.245a2.019 2.019 0 0 0-.812.707c-.009.019-.02.026-.035.021-.014-.005-.02-.021-.02-.049v-.686c0-.093-.047-.14-.14-.14h-.463c-.093 0-.14.047-.14.14v6.776c0 .093.047.14.14.14h.462zm9.812.098c.448 0 .838-.08 1.17-.238.33-.159.594-.392.79-.7.01-.028.024-.04.042-.035.02.005.028.021.028.049v.686c0 .093.047.14.14.14h.448c.094 0 .14-.047.14-.14V2.996c0-.093-.046-.14-.14-.14h-.448c-.093 0-.14.047-.14.14v4.508c0 .55-.172.996-.518 1.337-.345.34-.802.511-1.372.511-.55 0-.991-.168-1.323-.504-.33-.336-.497-.784-.497-1.344V2.996c0-.093-.046-.14-.14-.14H47.5c-.093 0-.14.047-.14.14V7.7c0 .719.23 1.283.686 1.694.458.41 1.032.616 1.722.616zm8.37.014c.598 0 1.118-.135 1.561-.406.444-.27.768-.635.973-1.092.038-.075.014-.135-.07-.182l-.364-.182c-.074-.037-.135-.014-.182.07a2.06 2.06 0 0 1-.735.833c-.312.2-.688.301-1.127.301-.55 0-1.005-.133-1.365-.399a1.79 1.79 0 0 1-.693-1.085c-.046-.196-.07-.593-.07-1.19 0-.037.02-.056.056-.056h4.564c.094 0 .14-.047.14-.14 0-.355-.004-.651-.014-.889a5.407 5.407 0 0 0-.056-.623c-.112-.7-.396-1.248-.854-1.645-.457-.397-1.068-.595-1.834-.595-.672 0-1.239.177-1.7.532a2.505 2.505 0 0 0-.918 1.414c-.046.196-.077.41-.09.644-.015.233-.022.579-.022 1.036 0 .439.014.803.042 1.092.028.29.08.55.154.784.168.55.481.985.938 1.302.458.317 1.013.476 1.666.476zm1.89-4.018h-3.906c-.037 0-.056-.019-.056-.056.02-.55.052-.915.098-1.092.094-.439.308-.791.644-1.057.336-.266.756-.399 1.26-.399s.93.138 1.274.413c.346.275.57.637.672 1.085.047.233.07.583.07 1.05 0 .037-.018.056-.056.056zm7.668 3.906c.094 0 .14-.047.14-.14V5.46c0-.037.02-.056.056-.056h2.912c.803 0 1.45-.243 1.94-.728s.734-1.125.734-1.918c0-.803-.242-1.449-.728-1.939-.485-.49-1.124-.735-1.918-.735h-3.598c-.093 0-.14.047-.14.14v9.548c0 .093.047.14.14.14h.462zm3.08-5.138h-2.884c-.037 0-.056-.019-.056-.056V.812c0-.037.02-.056.056-.056h2.884c.588 0 1.062.184 1.421.553.36.369.54.856.54 1.463 0 .597-.18 1.08-.54 1.449-.359.369-.833.553-1.42.553zm7.432 5.25c.598 0 1.118-.135 1.561-.406.444-.27.768-.635.973-1.092.038-.075.014-.135-.07-.182l-.364-.182c-.074-.037-.135-.014-.182.07a2.06 2.06 0 0 1-.735.833c-.312.2-.688.301-1.127.301-.55 0-1.005-.133-1.365-.399a1.79 1.79 0 0 1-.693-1.085c-.046-.196-.07-.593-.07-1.19 0-.037.02-.056.056-.056h4.564c.094 0 .14-.047.14-.14 0-.355-.004-.651-.014-.889a5.407 5.407 0 0 0-.056-.623c-.112-.7-.396-1.248-.854-1.645-.457-.397-1.068-.595-1.834-.595-.672 0-1.239.177-1.7.532a2.505 2.505 0 0 0-.918 1.414c-.046.196-.077.41-.09.644-.015.233-.022.579-.022 1.036 0 .439.014.803.042 1.092.028.29.08.55.154.784.168.55.481.985.938 1.302.458.317 1.013.476 1.666.476zm1.89-4.018h-3.906c-.037 0-.056-.019-.056-.056.02-.55.052-.915.098-1.092.094-.439.308-.791.644-1.057.336-.266.756-.399 1.26-.399s.93.138 1.274.413c.346.275.57.637.672 1.085.047.233.07.583.07 1.05 0 .037-.018.056-.056.056zm4.156 3.906c.094 0 .14-.047.14-.14V5.6c0-.56.17-1.034.511-1.421.341-.387.773-.586 1.295-.595.28-.01.514.023.7.098.094.037.154.01.182-.084l.126-.448c.02-.093-.009-.154-.084-.182a1.8 1.8 0 0 0-.812-.168c-.42 0-.786.103-1.099.308-.312.205-.567.49-.763.854-.009.028-.02.04-.035.035-.014-.005-.02-.021-.02-.049v-.952c0-.093-.047-.14-.14-.14h-.463c-.093 0-.14.047-.14.14v6.776c0 .093.047.14.14.14h.462zm11.518.126c.626 0 1.181-.126 1.666-.378a2.74 2.74 0 0 0 1.127-1.057c.266-.453.4-.973.4-1.561 0-.084-.047-.126-.14-.126l-.463-.028c-.093 0-.14.042-.14.126v.028c0 .7-.224 1.265-.672 1.694-.448.43-1.04.644-1.778.644-.737 0-1.332-.215-1.785-.644-.452-.43-.679-.994-.679-1.694v-4.06c0-.7.224-1.262.672-1.687.448-.425 1.046-.637 1.792-.637.738 0 1.33.212 1.778.637.448.425.672.987.672 1.687v.042c0 .093.047.14.14.14l.462-.028c.038 0 .07-.014.098-.042a.151.151 0 0 0 .042-.112v-.014c0-.588-.133-1.106-.399-1.554A2.708 2.708 0 0 0 97.437.371C96.952.124 96.397 0 95.771 0c-.634 0-1.194.126-1.68.378a2.74 2.74 0 0 0-1.127 1.057c-.266.453-.399.978-.399 1.575V7c0 .597.133 1.127.4 1.589.265.462.641.819 1.126 1.071.486.252 1.046.378 1.68.378zm8.552-.014c.663 0 1.23-.173 1.701-.518a2.48 2.48 0 0 0 .945-1.386c.056-.215.094-.453.112-.714.02-.261.028-.607.028-1.036 0-.41-.009-.749-.028-1.015a3.964 3.964 0 0 0-.112-.721 2.478 2.478 0 0 0-.945-1.372c-.47-.345-1.033-.518-1.687-.518-.672 0-1.239.17-1.7.511-.463.34-.778.8-.946 1.379-.102.364-.154.943-.154 1.736s.052 1.377.154 1.75c.168.579.486 1.04.952 1.386.467.345 1.027.518 1.68.518zm0-.658c-.504 0-.928-.135-1.274-.406a1.856 1.856 0 0 1-.672-1.092c-.065-.29-.098-.784-.098-1.484s.033-1.195.098-1.484c.103-.457.327-.821.672-1.092.346-.27.77-.406 1.274-.406s.931.135 1.281.406c.35.27.577.635.68 1.092.055.243.083.737.083 1.484 0 .737-.032 1.232-.098 1.484-.102.448-.329.81-.679 1.085-.35.275-.772.413-1.267.413zm7.894.644c.448 0 .838-.08 1.17-.238.33-.159.594-.392.79-.7.01-.028.024-.04.042-.035.02.005.028.021.028.049v.686c0 .093.047.14.14.14h.448c.094 0 .14-.047.14-.14V2.996c0-.093-.046-.14-.14-.14h-.448c-.093 0-.14.047-.14.14v4.508c0 .55-.172.996-.518 1.337-.345.34-.802.511-1.372.511-.55 0-.991-.168-1.323-.504-.33-.336-.497-.784-.497-1.344V2.996c0-.093-.046-.14-.14-.14h-.448c-.093 0-.14.047-.14.14V7.7c0 .719.23 1.283.686 1.694.458.41 1.032.616 1.722.616zm6.396-.098c.094 0 .14-.047.14-.14V5.264c0-.55.173-.996.518-1.337.346-.34.798-.511 1.358-.511.542 0 .98.175 1.316.525.336.35.504.8.504 1.351v4.48c0 .093.047.14.14.14h.462c.094 0 .14-.047.14-.14v-4.62c0-.719-.221-1.297-.665-1.736-.443-.439-1.024-.658-1.743-.658-.438 0-.826.082-1.162.245a2.019 2.019 0 0 0-.812.707c-.009.019-.02.026-.035.021-.014-.005-.02-.021-.02-.049v-.686c0-.093-.047-.14-.14-.14h-.463c-.093 0-.14.047-.14.14v6.776c0 .093.047.14.14.14h.462zm9.882.014.42-.014c.094 0 .14-.047.14-.14v-.378c0-.093-.046-.14-.14-.14h-.322c-.476 0-.82-.096-1.036-.287-.214-.191-.322-.525-.322-1.001V3.542c0-.037.02-.056.056-.056h1.638c.094 0 .14-.047.14-.14v-.35c0-.093-.046-.14-.14-.14h-1.638c-.037 0-.056-.019-.056-.056V1.204c0-.093-.046-.14-.14-.14h-.448c-.093 0-.14.047-.14.14V2.8c0 .037-.018.056-.056.056h-.84c-.093 0-.14.047-.14.14v.35c0 .093.047.14.14.14h.84c.038 0 .056.019.056.056v4.62c.01.672.18 1.134.511 1.386.332.252.824.378 1.477.378zm3.862-.014c.094 0 .14-.047.14-.14V5.6c0-.56.17-1.034.511-1.421.341-.387.773-.586 1.295-.595.28-.01.514.023.7.098.094.037.154.01.182-.084l.126-.448c.02-.093-.009-.154-.084-.182a1.8 1.8 0 0 0-.812-.168c-.42 0-.786.103-1.099.308-.312.205-.567.49-.763.854-.009.028-.02.04-.035.035-.014-.005-.02-.021-.02-.049v-.952c0-.093-.047-.14-.14-.14h-.463c-.093 0-.14.047-.14.14v6.776c0 .093.047.14.14.14h.462zm5.192 2.8c.458 0 .815-.051 1.071-.154.257-.103.479-.299.665-.588.187-.29.388-.737.602-1.344l2.646-7.616c.028-.103-.009-.154-.112-.154h-.476c-.084 0-.14.037-.168.112l-1.932 5.936c-.009.019-.023.028-.042.028-.018 0-.032-.01-.042-.028l-1.988-5.936c-.028-.075-.084-.112-.168-.112h-.476c-.084 0-.126.033-.126.098l.014.056 2.394 6.86c.02.019.02.047 0 .084-.196.607-.366 1.055-.51 1.344-.145.29-.318.488-.519.595-.2.107-.478.166-.833.175h-.056c-.093 0-.14.047-.14.14v.364c0 .093.033.14.098.14h.098z" fill="#5F6368" fill-rule="nonzero"/>
        <g transform="translate(186.84 31.912)">
            <rect fill="#5F6368" opacity=".05" width="127" height="18" rx="4"/>
            <path fill="#597FFF" opacity=".7" d="M4 4h10v10H4z"/>
            <path d="M23.176 14c.072 0 .12-.032.144-.096l.48-1.512c.008-.024.024-.036.048-.036h3.588c.024 0 .04.012.048.036l.48 1.512c.024.064.072.096.144.096h.648c.072 0 .108-.028.108-.084l-.012-.048-2.664-8.172c-.024-.064-.072-.096-.144-.096h-.816c-.072 0-.12.032-.144.096l-2.652 8.172c-.024.088.008.132.096.132h.648zm4.008-2.34h-3.096a.058.058 0 0 1-.042-.018c-.012-.012-.014-.026-.006-.042l1.56-4.896c.008-.016.02-.024.036-.024.016 0 .028.008.036.024l1.56 4.896c.008.016.006.03-.006.042a.058.058 0 0 1-.042.018zM32.33 14c.064 0 .108-.032.132-.096l1.272-4.488c.008-.016.018-.024.03-.024s.022.008.03.024l1.308 4.488c.024.064.068.096.132.096h.636c.064 0 .108-.032.132-.096l1.728-5.832c.008-.04.002-.072-.018-.096-.02-.024-.05-.036-.09-.036l-.624-.012c-.072 0-.116.036-.132.108l-1.308 4.716c-.008.016-.02.024-.036.024-.016 0-.028-.008-.036-.024l-1.308-4.728c-.016-.064-.06-.096-.132-.096h-.576c-.072 0-.116.036-.132.108l-1.296 4.728c-.008.016-.018.024-.03.024s-.022-.008-.03-.024L30.71 8.036c-.016-.072-.06-.108-.132-.108h-.624c-.08 0-.12.032-.12.096l.012.036 1.704 5.844c.024.064.068.096.132.096h.648zm8.723.096c.392 0 .748-.062 1.068-.186.32-.124.58-.306.78-.546.016-.016.03-.02.042-.012a.04.04 0 0 1 .018.036v.492c0 .08.04.12.12.12h.612c.08 0 .12-.04.12-.12V9.848c0-.608-.196-1.096-.588-1.464-.392-.368-.948-.552-1.668-.552-.624 0-1.144.14-1.56.42-.416.28-.656.644-.72 1.092-.016.048.02.08.108.096l.648.084c.072.008.12-.028.144-.108a.93.93 0 0 1 .444-.618c.24-.148.552-.222.936-.222.48 0 .834.118 1.062.354.228.236.342.558.342.966v.456c0 .032-.016.048-.048.048H41.52c-.776 0-1.382.174-1.818.522-.436.348-.654.822-.654 1.422 0 .592.192 1.032.576 1.32.384.288.86.432 1.428.432zm.168-.732c-.392 0-.71-.09-.954-.27-.244-.18-.366-.446-.366-.798 0-.384.16-.684.48-.9.32-.216.744-.324 1.272-.324h1.26c.032 0 .048.016.048.048v.936c0 .4-.172.718-.516.954-.344.236-.752.354-1.224.354zm5.458-6.54a.651.651 0 0 0 .48-.192.651.651 0 0 0 .192-.48.646.646 0 0 0-.672-.672.646.646 0 0 0-.672.672c0 .192.064.352.192.48a.651.651 0 0 0 .48.192zm.276 7.164c.08 0 .12-.04.12-.12V8.036c0-.08-.04-.12-.12-.12h-.612c-.08 0-.12.04-.12.12v5.832c0 .08.04.12.12.12h.612zm4.846.024c.2 0 .348-.004.444-.012.08 0 .12-.04.12-.12v-.492c0-.08-.04-.12-.12-.12h-.3c-.368 0-.638-.078-.81-.234-.172-.156-.258-.426-.258-.81v-3.54c0-.032.016-.048.048-.048h1.356c.08 0 .12-.04.12-.12v-.468c0-.08-.04-.12-.12-.12h-1.356c-.032 0-.048-.016-.048-.048V6.488c0-.08-.04-.12-.12-.12h-.588c-.08 0-.12.04-.12.12V7.88c0 .032-.016.048-.048.048h-.732c-.08 0-.12.04-.12.12v.468c0 .08.04.12.12.12h.732c.032 0 .048.016.048.048v3.804c0 .584.148.984.444 1.2.296.216.732.324 1.308.324zm3.334-7.188a.651.651 0 0 0 .48-.192.651.651 0 0 0 .192-.48.646.646 0 0 0-.672-.672.646.646 0 0 0-.672.672c0 .192.064.352.192.48a.651.651 0 0 0 .48.192zm.276 7.164c.08 0 .12-.04.12-.12V8.036c0-.08-.04-.12-.12-.12H54.8c-.08 0-.12.04-.12.12v5.832c0 .08.04.12.12.12h.612zm3.455.012c.08 0 .12-.04.12-.12v-3.816c0-.44.136-.796.408-1.068.272-.272.628-.408 1.068-.408.424 0 .77.14 1.038.42.268.28.402.64.402 1.08v3.792c0 .08.04.12.12.12h.612c.08 0 .12-.04.12-.12V9.92c0-.632-.19-1.136-.57-1.512-.38-.376-.89-.564-1.53-.564-.728 0-1.268.248-1.62.744-.008.016-.018.02-.03.012a.04.04 0 0 1-.018-.036v-.516c0-.08-.04-.12-.12-.12h-.612c-.08 0-.12.04-.12.12v5.832c0 .08.04.12.12.12h.612zm7.942 2.388c.904 0 1.614-.208 2.13-.624.516-.416.774-1.072.774-1.968V8.048c0-.08-.04-.12-.12-.12h-.612c-.08 0-.12.04-.12.12v.468a.04.04 0 0 1-.018.036c-.012.008-.026.004-.042-.012-.368-.472-.908-.708-1.62-.708-.528 0-.98.146-1.356.438a2.24 2.24 0 0 0-.78 1.158 2.78 2.78 0 0 0-.126.648c-.02.24-.03.536-.03.888 0 .648.048 1.136.144 1.464.136.512.406.908.81 1.188.404.28.866.42 1.386.42.68 0 1.204-.24 1.572-.72.016-.016.03-.022.042-.018.012.004.018.014.018.03v.444c0 .632-.168 1.094-.504 1.386-.336.292-.876.438-1.62.438l-.324-.012a.09.09 0 0 0-.084.018c-.024.02-.036.05-.036.09l-.024.552c0 .08.04.124.12.132.096.008.236.012.42.012zm.552-3.072c-.384 0-.71-.11-.978-.33a1.502 1.502 0 0 1-.522-.834c-.08-.224-.12-.628-.12-1.212 0-.544.04-.944.12-1.2.104-.344.286-.624.546-.84.26-.216.578-.324.954-.324.384 0 .702.11.954.33.252.22.41.498.474.834.032.12.052.25.06.39s.012.414.012.822c0 .336-.004.592-.012.768a3.011 3.011 0 0 1-.048.444 1.404 1.404 0 0 1-.474.828c-.252.216-.574.324-.966.324zm8.42.684c.08 0 .12-.04.12-.12v-3.576c0-.032.017-.048.049-.048h2.34c.712 0 1.286-.212 1.722-.636.436-.424.654-.984.654-1.68 0-.704-.214-1.272-.642-1.704-.428-.432-.994-.648-1.698-.648h-3.156c-.08 0-.12.04-.12.12v8.172c0 .08.04.12.12.12h.612zm2.449-4.452h-2.28c-.032 0-.048-.016-.048-.048V6.38c0-.032.016-.048.048-.048h2.28c.472 0 .856.148 1.152.444.296.296.444.688.444 1.176 0 .48-.148.866-.444 1.158-.296.292-.68.438-1.152.438zm5.914 4.548c.392 0 .748-.062 1.068-.186.32-.124.58-.306.78-.546.016-.016.03-.02.042-.012a.04.04 0 0 1 .018.036v.492c0 .08.04.12.12.12h.612c.08 0 .12-.04.12-.12V9.848c0-.608-.196-1.096-.588-1.464-.392-.368-.948-.552-1.668-.552-.624 0-1.144.14-1.56.42-.416.28-.656.644-.72 1.092-.016.048.02.08.108.096l.648.084c.072.008.12-.028.144-.108a.93.93 0 0 1 .444-.618c.24-.148.552-.222.936-.222.48 0 .834.118 1.062.354.228.236.342.558.342.966v.456c0 .032-.016.048-.048.048H84.61c-.776 0-1.382.174-1.818.522-.436.348-.654.822-.654 1.422 0 .592.192 1.032.576 1.32.384.288.86.432 1.428.432zm.168-.732c-.392 0-.71-.09-.954-.27-.244-.18-.366-.446-.366-.798 0-.384.16-.684.48-.9.32-.216.744-.324 1.272-.324h1.26c.032 0 .048.016.048.048v.936c0 .4-.172.718-.516.954-.344.236-.752.354-1.224.354zm4.618 3.036c.456 0 .81-.05 1.062-.15.252-.1.462-.278.63-.534.168-.256.348-.652.54-1.188l2.22-6.468c.024-.088-.008-.132-.096-.132h-.624c-.072 0-.12.032-.144.096l-1.536 4.848c-.008.016-.02.024-.036.024-.016 0-.028-.008-.036-.024l-1.56-4.848c-.024-.064-.072-.096-.144-.096h-.636c-.072 0-.108.028-.108.084l.012.048 2.028 5.904c.016.016.016.04 0 .072-.144.464-.278.81-.402 1.038-.124.228-.272.384-.444.468-.172.084-.414.13-.726.138h-.048c-.08 0-.12.04-.12.12v.48c0 .08.028.12.084.12h.084zM95.9 14c.08 0 .12-.04.12-.12v-3.876c0-.432.126-.776.378-1.032s.59-.384 1.014-.384c.416 0 .748.13.996.39s.372.61.372 1.05v3.852c0 .08.04.12.12.12h.612c.08 0 .12-.04.12-.12v-3.876c0-.432.13-.776.39-1.032s.602-.384 1.026-.384c.408 0 .738.13.99.39s.378.61.378 1.05v3.852c0 .08.04.12.12.12h.6c.08 0 .12-.04.12-.12V9.86c0-.624-.174-1.116-.522-1.476-.348-.36-.822-.54-1.422-.54a2.36 2.36 0 0 0-1.092.246c-.32.164-.568.41-.744.738-.024.04-.044.04-.06 0a1.615 1.615 0 0 0-.672-.732c-.296-.168-.652-.252-1.068-.252-.336 0-.642.058-.918.174-.276.116-.502.29-.678.522-.016.016-.03.022-.042.018-.012-.004-.018-.014-.018-.03v-.48c0-.08-.04-.12-.12-.12h-.612c-.08 0-.12.04-.12.12v5.832c0 .08.04.12.12.12h.612zm11.915.108c.52 0 .98-.11 1.38-.33.4-.22.7-.522.9-.906.032-.072.016-.128-.048-.168l-.468-.276c-.064-.04-.12-.024-.168.048-.144.28-.344.496-.6.648a1.706 1.706 0 0 1-.888.228c-.448 0-.816-.104-1.104-.312a1.435 1.435 0 0 1-.564-.852c-.032-.128-.056-.412-.072-.852 0-.032.016-.048.048-.048h3.876c.08 0 .12-.04.12-.12v-.384c0-.336-.016-.616-.048-.84-.096-.672-.34-1.192-.732-1.56-.392-.368-.952-.552-1.68-.552-.584 0-1.082.156-1.494.468a2.223 2.223 0 0 0-.822 1.248 2.618 2.618 0 0 0-.09.57c-.012.212-.018.486-.018.822 0 .72.072 1.272.216 1.656.168.472.444.84.828 1.104.384.264.86.4 1.428.408zm1.524-3.54h-3.108c-.032 0-.048-.016-.048-.048.016-.376.048-.648.096-.816.08-.344.25-.618.51-.822.26-.204.586-.306.978-.306.408 0 .746.106 1.014.318.268.212.446.498.534.858.032.152.056.408.072.768 0 .032-.016.048-.048.048zM113.164 14c.08 0 .12-.04.12-.12v-3.816c0-.44.136-.796.408-1.068.272-.272.628-.408 1.068-.408.424 0 .77.14 1.038.42.268.28.402.64.402 1.08v3.792c0 .08.04.12.12.12h.612c.08 0 .12-.04.12-.12V9.92c0-.632-.19-1.136-.57-1.512-.38-.376-.89-.564-1.53-.564-.728 0-1.268.248-1.62.744-.008.016-.018.02-.03.012a.04.04 0 0 1-.018-.036v-.516c0-.08-.04-.12-.12-.12h-.612c-.08 0-.12.04-.12.12v5.832c0 .08.04.12.12.12h.612zm8.374.012c.2 0 .348-.004.444-.012.08 0 .12-.04.12-.12v-.492c0-.08-.04-.12-.12-.12h-.3c-.368 0-.638-.078-.81-.234-.172-.156-.258-.426-.258-.81v-3.54c0-.032.016-.048.048-.048h1.356c.08 0 .12-.04.12-.12v-.468c0-.08-.04-.12-.12-.12h-1.356c-.032 0-.048-.016-.048-.048V6.488c0-.08-.04-.12-.12-.12h-.588c-.08 0-.12.04-.12.12V7.88c0 .032-.016.048-.048.048h-.732c-.08 0-.12.04-.12.12v.468c0 .08.04.12.12.12h.732c.032 0 .048.016.048.048v3.804c0 .584.148.984.444 1.2.296.216.732.324 1.308.324z" fill="#5F6368" fill-rule="nonzero"/>
            <path fill="#86A2FF" opacity=".7" d="M4 30h10v10H4z"/>
            <path d="M23.776 40c.08 0 .12-.04.12-.12v-3.576c0-.032.016-.048.048-.048h2.34c.712 0 1.286-.212 1.722-.636.436-.424.654-.984.654-1.68 0-.704-.214-1.272-.642-1.704-.428-.432-.994-.648-1.698-.648h-3.156c-.08 0-.12.04-.12.12v8.172c0 .08.04.12.12.12h.612zm2.448-4.452h-2.28c-.032 0-.048-.016-.048-.048v-3.12c0-.032.016-.048.048-.048h2.28c.472 0 .856.148 1.152.444.296.296.444.688.444 1.176 0 .48-.148.866-.444 1.158-.296.292-.68.438-1.152.438zm5.914 4.548c.392 0 .748-.062 1.068-.186.32-.124.58-.306.78-.546.016-.016.03-.02.042-.012a.04.04 0 0 1 .018.036v.492c0 .08.04.12.12.12h.612c.08 0 .12-.04.12-.12v-4.032c0-.608-.196-1.096-.588-1.464-.392-.368-.948-.552-1.668-.552-.624 0-1.144.14-1.56.42-.416.28-.656.644-.72 1.092-.016.048.02.08.108.096l.648.084c.072.008.12-.028.144-.108a.93.93 0 0 1 .444-.618c.24-.148.552-.222.936-.222.48 0 .834.118 1.062.354.228.236.342.558.342.966v.456c0 .032-.016.048-.048.048h-1.392c-.776 0-1.382.174-1.818.522-.436.348-.654.822-.654 1.422 0 .592.192 1.032.576 1.32.384.288.86.432 1.428.432zm.168-.732c-.392 0-.71-.09-.954-.27-.244-.18-.366-.446-.366-.798 0-.384.16-.684.48-.9.32-.216.744-.324 1.272-.324h1.26c.032 0 .048.016.048.048v.936c0 .4-.172.718-.516.954-.344.236-.752.354-1.224.354zm4.619 3.036c.456 0 .81-.05 1.062-.15.252-.1.462-.278.63-.534.168-.256.348-.652.54-1.188l2.22-6.468c.024-.088-.008-.132-.096-.132h-.624c-.072 0-.12.032-.144.096l-1.536 4.848c-.008.016-.02.024-.036.024-.016 0-.028-.008-.036-.024l-1.56-4.848c-.024-.064-.072-.096-.144-.096h-.636c-.072 0-.108.028-.108.084l.012.048 2.028 5.904c.016.016.016.04 0 .072-.144.464-.278.81-.402 1.038-.124.228-.272.384-.444.468-.172.084-.414.13-.726.138h-.048c-.08 0-.12.04-.12.12v.48c0 .08.028.12.084.12h.084zm6.97-2.4c.08 0 .12-.04.12-.12v-3.876c0-.432.126-.776.378-1.032s.59-.384 1.014-.384c.416 0 .748.13.996.39s.372.61.372 1.05v3.852c0 .08.04.12.12.12h.612c.08 0 .12-.04.12-.12v-3.876c0-.432.13-.776.39-1.032s.602-.384 1.026-.384c.408 0 .738.13.99.39s.378.61.378 1.05v3.852c0 .08.04.12.12.12h.6c.08 0 .12-.04.12-.12v-4.02c0-.624-.174-1.116-.522-1.476-.348-.36-.822-.54-1.422-.54a2.36 2.36 0 0 0-1.092.246c-.32.164-.568.41-.744.738-.024.04-.044.04-.06 0a1.615 1.615 0 0 0-.672-.732c-.296-.168-.652-.252-1.068-.252-.336 0-.642.058-.918.174-.276.116-.502.29-.678.522-.016.016-.03.022-.042.018-.012-.004-.018-.014-.018-.03v-.48c0-.08-.04-.12-.12-.12h-.612c-.08 0-.12.04-.12.12v5.832c0 .08.04.12.12.12h.612zm11.914.108c.52 0 .98-.11 1.38-.33.4-.22.7-.522.9-.906.032-.072.016-.128-.048-.168l-.468-.276c-.064-.04-.12-.024-.168.048-.144.28-.344.496-.6.648a1.706 1.706 0 0 1-.888.228c-.448 0-.816-.104-1.104-.312a1.435 1.435 0 0 1-.564-.852c-.032-.128-.056-.412-.072-.852 0-.032.016-.048.048-.048h3.876c.08 0 .12-.04.12-.12v-.384c0-.336-.016-.616-.048-.84-.096-.672-.34-1.192-.732-1.56-.392-.368-.952-.552-1.68-.552-.584 0-1.082.156-1.494.468a2.223 2.223 0 0 0-.822 1.248 2.618 2.618 0 0 0-.09.57c-.012.212-.018.486-.018.822 0 .72.072 1.272.216 1.656.168.472.444.84.828 1.104.384.264.86.4 1.428.408zm1.524-3.54h-3.108c-.032 0-.048-.016-.048-.048.016-.376.048-.648.096-.816.08-.344.25-.618.51-.822.26-.204.586-.306.978-.306.408 0 .746.106 1.014.318.268.212.446.498.534.858.032.152.056.408.072.768 0 .032-.016.048-.048.048zM61.16 40c.08 0 .12-.04.12-.12v-3.816c0-.44.136-.796.408-1.068.272-.272.628-.408 1.068-.408.424 0 .77.14 1.038.42.268.28.402.64.402 1.08v3.792c0 .08.04.12.12.12h.612c.08 0 .12-.04.12-.12v-3.96c0-.632-.19-1.136-.57-1.512-.38-.376-.89-.564-1.53-.564-.728 0-1.268.248-1.62.744-.008.016-.018.02-.03.012a.04.04 0 0 1-.018-.036v-.516c0-.08-.04-.12-.12-.12h-.612c-.08 0-.12.04-.12.12v5.832c0 .08.04.12.12.12h.612zm8.375.012c.2 0 .348-.004.444-.012.08 0 .12-.04.12-.12v-.492c0-.08-.04-.12-.12-.12h-.3c-.368 0-.638-.078-.81-.234-.172-.156-.258-.426-.258-.81v-3.54c0-.032.016-.048.048-.048h1.356c.08 0 .12-.04.12-.12v-.468c0-.08-.04-.12-.12-.12h-1.356c-.032 0-.048-.016-.048-.048v-1.392c0-.08-.04-.12-.12-.12h-.588c-.08 0-.12.04-.12.12v1.392c0 .032-.016.048-.048.048h-.732c-.08 0-.12.04-.12.12v.468c0 .08.04.12.12.12h.732c.032 0 .048.016.048.048v3.804c0 .584.148.984.444 1.2.296.216.732.324 1.308.324zM76.106 40c.08 0 .12-.04.12-.12v-3.672c0-.032.016-.048.048-.048h2.04c.024 0 .04.012.048.036l1.764 3.72c.024.056.072.084.144.084h.636c.064 0 .096-.028.096-.084a.134.134 0 0 0-.012-.06l-1.8-3.696c-.016-.024-.008-.044.024-.06.52-.112.932-.364 1.236-.756.304-.392.456-.868.456-1.428 0-.688-.212-1.246-.636-1.674-.424-.428-.98-.642-1.668-.642h-3.108c-.08 0-.12.04-.12.12v8.16c0 .08.04.12.12.12h.612zm2.4-4.524h-2.232c-.032 0-.048-.016-.048-.048v-3.036c0-.032.016-.048.048-.048h2.232c.464 0 .84.146 1.128.438.288.292.432.67.432 1.134 0 .464-.144.84-.432 1.128-.288.288-.664.432-1.128.432zm6.815 4.632c.52 0 .98-.11 1.38-.33.4-.22.7-.522.9-.906.032-.072.016-.128-.048-.168l-.468-.276c-.064-.04-.12-.024-.168.048-.144.28-.344.496-.6.648a1.706 1.706 0 0 1-.888.228c-.448 0-.816-.104-1.104-.312a1.435 1.435 0 0 1-.564-.852c-.032-.128-.056-.412-.072-.852 0-.032.016-.048.048-.048h3.876c.08 0 .12-.04.12-.12v-.384c0-.336-.016-.616-.048-.84-.096-.672-.34-1.192-.732-1.56-.392-.368-.952-.552-1.68-.552-.584 0-1.082.156-1.494.468a2.223 2.223 0 0 0-.822 1.248 2.618 2.618 0 0 0-.09.57c-.012.212-.018.486-.018.822 0 .72.072 1.272.216 1.656.168.472.444.84.828 1.104.384.264.86.4 1.428.408zm1.524-3.54h-3.108c-.032 0-.048-.016-.048-.048.016-.376.048-.648.096-.816.08-.344.25-.618.51-.822.26-.204.586-.306.978-.306.408 0 .746.106 1.014.318.268.212.446.498.534.858.032.152.056.408.072.768 0 .032-.016.048-.048.048zm5.386 3.528c.584 0 1.092-.144 1.524-.432.432-.288.708-.664.828-1.128l.048-.24c.008-.072-.028-.116-.108-.132l-.588-.096c-.088-.016-.136.016-.144.096l-.012.048v.048c-.072.32-.25.582-.534.786a1.692 1.692 0 0 1-1.014.306c-.4 0-.734-.106-1.002-.318a1.46 1.46 0 0 1-.522-.858c-.072-.288-.108-.696-.108-1.224 0-.504.036-.908.108-1.212.08-.352.254-.634.522-.846.268-.212.602-.318 1.002-.318s.74.106 1.02.318c.28.212.456.47.528.774l.036.18c.016.072.052.108.108.108h.024l.6-.084c.072-.016.108-.052.108-.108v-.024a2.025 2.025 0 0 0-.072-.36c-.128-.44-.406-.808-.834-1.104-.428-.296-.934-.444-1.518-.444-.576 0-1.072.15-1.488.45-.416.3-.696.698-.84 1.194-.104.4-.156.888-.156 1.464 0 .64.052 1.136.156 1.488.152.512.434.918.846 1.218.412.3.906.45 1.482.45zm6.718.012c.52 0 .98-.11 1.38-.33.4-.22.7-.522.9-.906.032-.072.016-.128-.048-.168l-.468-.276c-.064-.04-.12-.024-.168.048-.144.28-.344.496-.6.648a1.706 1.706 0 0 1-.888.228c-.448 0-.816-.104-1.104-.312a1.435 1.435 0 0 1-.564-.852c-.032-.128-.056-.412-.072-.852 0-.032.016-.048.048-.048h3.876c.08 0 .12-.04.12-.12v-.384c0-.336-.016-.616-.048-.84-.096-.672-.34-1.192-.732-1.56-.392-.368-.952-.552-1.68-.552-.584 0-1.082.156-1.494.468a2.223 2.223 0 0 0-.822 1.248 2.618 2.618 0 0 0-.09.57c-.012.212-.018.486-.018.822 0 .72.072 1.272.216 1.656.168.472.444.84.828 1.104.384.264.86.4 1.428.408zm1.524-3.54h-3.108c-.032 0-.048-.016-.048-.048.016-.376.048-.648.096-.816.08-.344.25-.618.51-.822.26-.204.586-.306.978-.306.408 0 .746.106 1.014.318.268.212.446.498.534.858.032.152.056.408.072.768 0 .032-.016.048-.048.048zm3.67-3.744a.651.651 0 0 0 .48-.192.651.651 0 0 0 .192-.48.646.646 0 0 0-.672-.672.646.646 0 0 0-.672.672c0 .192.064.352.192.48a.651.651 0 0 0 .48.192zm.276 7.164c.08 0 .12-.04.12-.12v-5.832c0-.08-.04-.12-.12-.12h-.612c-.08 0-.12.04-.12.12v5.832c0 .08.04.12.12.12h.612zm4.967.012c.072 0 .12-.032.144-.096l1.968-5.832c.024-.088-.008-.132-.096-.132l-.684-.012c-.072 0-.12.032-.144.096l-1.5 4.704c-.008.016-.02.024-.036.024-.016 0-.028-.008-.036-.024l-1.5-4.704c-.024-.064-.072-.096-.144-.096h-.684c-.072 0-.108.028-.108.084l.012.048 1.968 5.844c.024.064.072.096.144.096h.696zm6.058.108c.52 0 .98-.11 1.38-.33.4-.22.7-.522.9-.906.032-.072.016-.128-.048-.168l-.468-.276c-.064-.04-.12-.024-.168.048-.144.28-.344.496-.6.648a1.706 1.706 0 0 1-.888.228c-.448 0-.816-.104-1.104-.312a1.435 1.435 0 0 1-.564-.852c-.032-.128-.056-.412-.072-.852 0-.032.016-.048.048-.048h3.876c.08 0 .12-.04.12-.12v-.384c0-.336-.016-.616-.048-.84-.096-.672-.34-1.192-.732-1.56-.392-.368-.952-.552-1.68-.552-.584 0-1.082.156-1.494.468a2.223 2.223 0 0 0-.822 1.248 2.618 2.618 0 0 0-.09.57c-.012.212-.018.486-.018.822 0 .72.072 1.272.216 1.656.168.472.444.84.828 1.104.384.264.86.4 1.428.408zm1.524-3.54h-3.108c-.032 0-.048-.016-.048-.048.016-.376.048-.648.096-.816.08-.344.25-.618.51-.822.26-.204.586-.306.978-.306.408 0 .746.106 1.014.318.268.212.446.498.534.858.032.152.056.408.072.768 0 .032-.016.048-.048.048zm5.278 3.528c.32 0 .61-.064.87-.192s.478-.308.654-.54c.016-.016.03-.022.042-.018.012.004.018.014.018.03v.504c0 .08.04.12.12.12h.612c.08 0 .12-.04.12-.12v-8.16c0-.08-.04-.12-.12-.12h-.612c-.08 0-.12.04-.12.12v2.82c0 .016-.006.026-.018.03-.012.004-.026-.002-.042-.018a1.75 1.75 0 0 0-.66-.534 2.007 2.007 0 0 0-.864-.186c-.568 0-1.044.146-1.428.438-.384.292-.648.694-.792 1.206-.096.328-.144.824-.144 1.488 0 .656.056 1.164.168 1.524.144.496.406.888.786 1.176.38.288.85.432 1.41.432zm.084-.744c-.336 0-.626-.084-.87-.252a1.31 1.31 0 0 1-.51-.684 2.021 2.021 0 0 1-.168-.57 6.252 6.252 0 0 1-.048-.882c0-.392.022-.698.066-.918.044-.22.114-.418.21-.594.104-.264.272-.476.504-.636.232-.16.508-.24.828-.24.304 0 .566.082.786.246.22.164.378.382.474.654.08.168.136.362.168.582.032.22.048.522.048.906s-.016.684-.048.9a2.138 2.138 0 0 1-.156.564c-.104.28-.264.504-.48.672-.216.168-.484.252-.804.252z" fill="#5F6368" fill-rule="nonzero"/>
            <g>
                <path fill="#B3C4FF" opacity=".7" d="M4 56h10v10H4z"/>
                <path fill="#C8D5FF" opacity=".7" d="M4 82h10v10H4z"/>
                <path d="M25.552 66.096c.88 0 1.568-.2 2.064-.6.496-.4.744-.936.744-1.608 0-.432-.11-.798-.33-1.098a2.81 2.81 0 0 0-.864-.762 11.633 11.633 0 0 0-1.41-.672 15.418 15.418 0 0 1-1.278-.546 1.867 1.867 0 0 1-.636-.492c-.148-.188-.222-.426-.222-.714 0-.44.152-.776.456-1.008.304-.232.74-.348 1.308-.348.648 0 1.154.148 1.518.444.364.296.546.676.546 1.14v.216c0 .08.04.12.12.12h.6c.08 0 .12-.04.12-.12v-.264c0-.688-.256-1.24-.768-1.656-.512-.416-1.212-.624-2.1-.624-.816 0-1.458.186-1.926.558-.468.372-.702.894-.702 1.566 0 .432.102.79.306 1.074.204.284.472.516.804.696.332.18.798.39 1.398.63.56.232.994.436 1.302.612.308.176.536.364.684.564.148.2.222.44.222.72 0 .432-.16.778-.48 1.038-.32.26-.788.39-1.404.39-.68 0-1.212-.142-1.596-.426-.384-.284-.576-.658-.576-1.122v-.324c0-.08-.04-.12-.12-.12h-.588c-.08 0-.12.04-.12.12v.372c0 .68.262 1.224.786 1.632.524.408 1.238.612 2.142.612zM31.214 66c.08 0 .12-.04.12-.12v-3.816c0-.44.136-.796.408-1.068.272-.272.628-.408 1.068-.408.424 0 .77.14 1.038.42.268.28.402.64.402 1.08v3.792c0 .08.04.12.12.12h.612c.08 0 .12-.04.12-.12v-3.96c0-.632-.19-1.136-.57-1.512-.38-.376-.89-.564-1.53-.564-.728 0-1.268.248-1.62.744-.008.016-.018.02-.03.012a.04.04 0 0 1-.018-.036V57.72c0-.08-.04-.12-.12-.12h-.612c-.08 0-.12.04-.12.12v8.16c0 .08.04.12.12.12h.612zm6.827-7.176a.651.651 0 0 0 .48-.192.651.651 0 0 0 .192-.48.646.646 0 0 0-.672-.672.646.646 0 0 0-.672.672c0 .192.064.352.192.48a.651.651 0 0 0 .48.192zm.276 7.164c.08 0 .12-.04.12-.12v-5.832c0-.08-.04-.12-.12-.12h-.612c-.08 0-.12.04-.12.12v5.832c0 .08.04.12.12.12h.612zm3.538 2.34c.08 0 .12-.04.12-.12v-2.82c0-.016.006-.026.018-.03.012-.004.026.002.042.018.176.232.396.41.66.534.264.124.552.186.864.186.576 0 1.054-.146 1.434-.438.38-.292.642-.694.786-1.206.104-.352.156-.848.156-1.488 0-.632-.06-1.14-.18-1.524a2.196 2.196 0 0 0-.786-1.176c-.38-.288-.85-.432-1.41-.432-.32 0-.61.064-.87.192s-.478.308-.654.54c-.016.016-.03.022-.042.018-.012-.004-.018-.014-.018-.03v-.504c0-.08-.04-.12-.12-.12h-.612c-.08 0-.12.04-.12.12v8.16c0 .08.04.12.12.12h.612zm1.608-2.976c-.304 0-.566-.082-.786-.246a1.358 1.358 0 0 1-.474-.654 2.028 2.028 0 0 1-.168-.582 6.64 6.64 0 0 1-.048-.906c0-.384.016-.684.048-.9.032-.216.084-.404.156-.564.104-.28.264-.504.48-.672.216-.168.484-.252.804-.252.336 0 .626.084.87.252.244.168.414.396.51.684.08.168.136.358.168.57.032.212.048.506.048.882 0 .392-.022.698-.066.918-.044.22-.11.418-.198.594a1.35 1.35 0 0 1-.51.636 1.45 1.45 0 0 1-.834.24zm5.53 2.976c.08 0 .12-.04.12-.12v-2.82c0-.016.006-.026.018-.03.012-.004.026.002.042.018.176.232.396.41.66.534.264.124.552.186.864.186.576 0 1.054-.146 1.434-.438.38-.292.642-.694.786-1.206.104-.352.156-.848.156-1.488 0-.632-.06-1.14-.18-1.524a2.196 2.196 0 0 0-.786-1.176c-.38-.288-.85-.432-1.41-.432-.32 0-.61.064-.87.192s-.478.308-.654.54c-.016.016-.03.022-.042.018-.012-.004-.018-.014-.018-.03v-.504c0-.08-.04-.12-.12-.12h-.612c-.08 0-.12.04-.12.12v8.16c0 .08.04.12.12.12h.612zm1.608-2.976c-.304 0-.566-.082-.786-.246a1.358 1.358 0 0 1-.474-.654 2.028 2.028 0 0 1-.168-.582 6.64 6.64 0 0 1-.048-.906c0-.384.016-.684.048-.9.032-.216.084-.404.156-.564.104-.28.264-.504.48-.672.216-.168.484-.252.804-.252.336 0 .626.084.87.252.244.168.414.396.51.684.08.168.136.358.168.57.032.212.048.506.048.882 0 .392-.022.698-.066.918-.044.22-.11.418-.198.594a1.35 1.35 0 0 1-.51.636 1.45 1.45 0 0 1-.834.24zm6.922.756c.52 0 .98-.11 1.38-.33.4-.22.7-.522.9-.906.032-.072.016-.128-.048-.168l-.468-.276c-.064-.04-.12-.024-.168.048-.144.28-.344.496-.6.648a1.706 1.706 0 0 1-.888.228c-.448 0-.816-.104-1.104-.312a1.435 1.435 0 0 1-.564-.852c-.032-.128-.056-.412-.072-.852 0-.032.016-.048.048-.048h3.876c.08 0 .12-.04.12-.12v-.384c0-.336-.016-.616-.048-.84-.096-.672-.34-1.192-.732-1.56-.392-.368-.952-.552-1.68-.552-.584 0-1.082.156-1.494.468a2.223 2.223 0 0 0-.822 1.248 2.618 2.618 0 0 0-.09.57c-.012.212-.018.486-.018.822 0 .72.072 1.272.216 1.656.168.472.444.84.828 1.104.384.264.86.4 1.428.408zm1.524-3.54H55.94c-.032 0-.048-.016-.048-.048.016-.376.048-.648.096-.816.08-.344.25-.618.51-.822.26-.204.586-.306.978-.306.408 0 .746.106 1.014.318.268.212.446.498.534.858.032.152.056.408.072.768 0 .032-.016.048-.048.048zm5.279 3.528c.32 0 .61-.064.87-.192s.478-.308.654-.54c.016-.016.03-.022.042-.018.012.004.018.014.018.03v.504c0 .08.04.12.12.12h.612c.08 0 .12-.04.12-.12v-8.16c0-.08-.04-.12-.12-.12h-.612c-.08 0-.12.04-.12.12v2.82c0 .016-.006.026-.018.03-.012.004-.026-.002-.042-.018a1.75 1.75 0 0 0-.66-.534 2.007 2.007 0 0 0-.864-.186c-.568 0-1.044.146-1.428.438-.384.292-.648.694-.792 1.206-.096.328-.144.824-.144 1.488 0 .656.056 1.164.168 1.524.144.496.406.888.786 1.176.38.288.85.432 1.41.432zm.084-.744c-.336 0-.626-.084-.87-.252a1.31 1.31 0 0 1-.51-.684 2.021 2.021 0 0 1-.168-.57 6.252 6.252 0 0 1-.048-.882c0-.392.022-.698.066-.918.044-.22.114-.418.21-.594.104-.264.272-.476.504-.636.232-.16.508-.24.828-.24.304 0 .566.082.786.246.22.164.378.382.474.654.08.168.136.362.168.582.032.22.048.522.048.906s-.016.684-.048.9a2.138 2.138 0 0 1-.156.564c-.104.28-.264.504-.48.672-.216.168-.484.252-.804.252zM25.684 92.108c.56 0 1.052-.108 1.476-.324.424-.216.754-.522.99-.918s.354-.854.354-1.374c0-.072-.04-.108-.12-.108l-.612-.036c-.08 0-.12.036-.12.108v.024c0 .568-.18 1.022-.54 1.362-.36.34-.836.51-1.428.51s-1.068-.172-1.428-.516c-.36-.344-.54-.796-.54-1.356v-3.36c0-.56.18-1.012.54-1.356.36-.344.836-.516 1.428-.516s1.068.17 1.428.51c.36.34.54.794.54 1.362v.036c0 .072.04.108.12.108l.612-.036c.032 0 .06-.012.084-.036a.13.13 0 0 0 .036-.096c0-.512-.118-.964-.354-1.356a2.4 2.4 0 0 0-.99-.912c-.424-.216-.916-.324-1.476-.324-.56 0-1.052.11-1.476.33-.424.22-.754.53-.99.93s-.354.86-.354 1.38v3.3c0 .528.118.994.354 1.398.236.404.566.716.99.936.424.22.916.33 1.476.33zm7.378-.012c.576 0 1.07-.148 1.482-.444.412-.296.694-.704.846-1.224.112-.336.168-.828.168-1.476 0-.64-.056-1.132-.168-1.476a2.224 2.224 0 0 0-.846-1.2c-.412-.296-.902-.444-1.47-.444-.592 0-1.096.148-1.512.444-.416.296-.7.7-.852 1.212-.112.36-.168.848-.168 1.464s.056 1.108.168 1.476c.16.52.448.928.864 1.224.416.296.912.444 1.488.444zm0-.744c-.4 0-.738-.106-1.014-.318a1.492 1.492 0 0 1-.546-.858c-.064-.28-.096-.684-.096-1.212 0-.528.032-.932.096-1.212.096-.36.28-.646.552-.858.272-.212.604-.318.996-.318s.726.106 1.002.318c.276.212.462.498.558.858.064.28.096.684.096 1.212 0 .52-.036.924-.108 1.212-.096.36-.28.646-.552.858-.272.212-.6.318-.984.318zm5.47.648c.08 0 .12-.04.12-.12v-3.876c0-.432.127-.776.379-1.032s.59-.384 1.014-.384c.416 0 .748.13.996.39s.372.61.372 1.05v3.852c0 .08.04.12.12.12h.612c.08 0 .12-.04.12-.12v-3.876c0-.432.13-.776.39-1.032s.602-.384 1.026-.384c.408 0 .738.13.99.39s.378.61.378 1.05v3.852c0 .08.04.12.12.12h.6c.08 0 .12-.04.12-.12v-4.02c0-.624-.174-1.116-.522-1.476-.348-.36-.822-.54-1.422-.54a2.36 2.36 0 0 0-1.092.246c-.32.164-.568.41-.744.738-.024.04-.044.04-.06 0a1.615 1.615 0 0 0-.672-.732c-.296-.168-.652-.252-1.068-.252-.336 0-.642.058-.918.174-.276.116-.502.29-.678.522-.016.016-.03.022-.042.018-.012-.004-.018-.014-.018-.03v-.48c0-.08-.04-.12-.12-.12h-.612c-.08 0-.12.04-.12.12v5.832c0 .08.04.12.12.12h.612zm10.523 2.328c.08 0 .12-.04.12-.12v-2.82c0-.016.006-.026.018-.03.012-.004.026.002.042.018.176.232.396.41.66.534.264.124.552.186.864.186.576 0 1.054-.146 1.434-.438.38-.292.642-.694.786-1.206.104-.352.156-.848.156-1.488 0-.632-.06-1.14-.18-1.524a2.196 2.196 0 0 0-.786-1.176c-.38-.288-.85-.432-1.41-.432-.32 0-.61.064-.87.192s-.478.308-.654.54c-.016.016-.03.022-.042.018-.012-.004-.018-.014-.018-.03v-.504c0-.08-.04-.12-.12-.12h-.612c-.08 0-.12.04-.12.12v8.16c0 .08.04.12.12.12h.612zm1.608-2.976c-.304 0-.566-.082-.786-.246a1.358 1.358 0 0 1-.474-.654 2.028 2.028 0 0 1-.168-.582 6.64 6.64 0 0 1-.048-.906c0-.384.016-.684.048-.9.032-.216.084-.404.156-.564.104-.28.264-.504.48-.672.216-.168.484-.252.804-.252.336 0 .626.084.87.252.244.168.414.396.51.684.08.168.136.358.168.57.032.212.048.506.048.882 0 .392-.022.698-.066.918-.044.22-.11.418-.198.594a1.35 1.35 0 0 1-.51.636 1.45 1.45 0 0 1-.834.24zm5.446.648c.08 0 .12-.04.12-.12v-8.16c0-.08-.04-.12-.12-.12h-.612c-.08 0-.12.04-.12.12v8.16c0 .08.04.12.12.12h.612zm4.834.108c.52 0 .98-.11 1.38-.33.4-.22.7-.522.9-.906.032-.072.016-.128-.048-.168l-.468-.276c-.064-.04-.12-.024-.168.048-.144.28-.344.496-.6.648a1.706 1.706 0 0 1-.888.228c-.448 0-.816-.104-1.104-.312a1.435 1.435 0 0 1-.564-.852c-.032-.128-.056-.412-.072-.852 0-.032.016-.048.048-.048h3.876c.08 0 .12-.04.12-.12v-.384c0-.336-.016-.616-.048-.84-.096-.672-.34-1.192-.732-1.56-.392-.368-.952-.552-1.68-.552-.584 0-1.082.156-1.494.468a2.223 2.223 0 0 0-.822 1.248 2.618 2.618 0 0 0-.09.57c-.012.212-.018.486-.018.822 0 .72.072 1.272.216 1.656.168.472.444.84.828 1.104.384.264.86.4 1.428.408zm1.524-3.54H59.36c-.032 0-.048-.016-.048-.048.016-.376.048-.648.096-.816.08-.344.25-.618.51-.822.26-.204.586-.306.978-.306.408 0 .746.106 1.014.318.268.212.446.498.534.858.032.152.056.408.072.768 0 .032-.016.048-.048.048zm5.135 3.444c.2 0 .348-.004.444-.012.08 0 .12-.04.12-.12v-.492c0-.08-.04-.12-.12-.12h-.3c-.368 0-.638-.078-.81-.234-.172-.156-.258-.426-.258-.81v-3.54c0-.032.016-.048.048-.048h1.356c.08 0 .12-.04.12-.12v-.468c0-.08-.04-.12-.12-.12h-1.356c-.032 0-.048-.016-.048-.048v-1.392c0-.08-.04-.12-.12-.12h-.588c-.08 0-.12.04-.12.12v1.392c0 .032-.016.048-.048.048h-.732c-.08 0-.12.04-.12.12v.468c0 .08.04.12.12.12h.732c.032 0 .048.016.048.048v3.804c0 .584.148.984.444 1.2.296.216.732.324 1.308.324zm4.87.096c.52 0 .98-.11 1.38-.33.4-.22.7-.522.9-.906.032-.072.016-.128-.048-.168l-.468-.276c-.064-.04-.12-.024-.168.048-.144.28-.344.496-.6.648a1.706 1.706 0 0 1-.888.228c-.448 0-.816-.104-1.104-.312a1.435 1.435 0 0 1-.564-.852c-.032-.128-.056-.412-.072-.852 0-.032.016-.048.048-.048h3.876c.08 0 .12-.04.12-.12v-.384c0-.336-.016-.616-.048-.84-.096-.672-.34-1.192-.732-1.56-.392-.368-.952-.552-1.68-.552-.584 0-1.082.156-1.494.468a2.223 2.223 0 0 0-.822 1.248 2.618 2.618 0 0 0-.09.57c-.012.212-.018.486-.018.822 0 .72.072 1.272.216 1.656.168.472.444.84.828 1.104.384.264.86.4 1.428.408zm1.524-3.54h-3.108c-.032 0-.048-.016-.048-.048.016-.376.048-.648.096-.816.08-.344.25-.618.51-.822.26-.204.586-.306.978-.306.408 0 .746.106 1.014.318.268.212.446.498.534.858.032.152.056.408.072.768 0 .032-.016.048-.048.048zm5.278 3.528c.32 0 .61-.064.87-.192s.478-.308.654-.54c.016-.016.03-.022.042-.018.012.004.018.014.018.03v.504c0 .08.04.12.12.12h.612c.08 0 .12-.04.12-.12v-8.16c0-.08-.04-.12-.12-.12h-.612c-.08 0-.12.04-.12.12v2.82c0 .016-.006.026-.018.03-.012.004-.026-.002-.042-.018a1.75 1.75 0 0 0-.66-.534 2.007 2.007 0 0 0-.864-.186c-.568 0-1.044.146-1.428.438-.384.292-.648.694-.792 1.206-.096.328-.144.824-.144 1.488 0 .656.056 1.164.168 1.524.144.496.406.888.786 1.176.38.288.85.432 1.41.432zm.084-.744c-.336 0-.626-.084-.87-.252a1.31 1.31 0 0 1-.51-.684 2.021 2.021 0 0 1-.168-.57 6.252 6.252 0 0 1-.048-.882c0-.392.022-.698.066-.918.044-.22.114-.418.21-.594.104-.264.272-.476.504-.636.232-.16.508-.24.828-.24.304 0 .566.082.786.246.22.164.378.382.474.654.08.168.136.362.168.582.032.22.048.522.048.906s-.016.684-.048.9a2.138 2.138 0 0 1-.156.564c-.104.28-.264.504-.48.672-.216.168-.484.252-.804.252z" fill="#5F6368" fill-rule="nonzero"/>
            </g>
        </g>
        <path d="M381.247 44.912c.04 0 .074-.014.102-.042a.139.139 0 0 0 .042-.102v-1.164a.139.139 0 0 0-.042-.102.139.139 0 0 0-.102-.042h-3.924c-.04 0-.06-.02-.06-.06v-6.744a.139.139 0 0 0-.042-.102.139.139 0 0 0-.102-.042h-1.404a.139.139 0 0 0-.102.042.139.139 0 0 0-.042.102v8.112c0 .04.014.074.042.102a.139.139 0 0 0 .102.042h5.532zm4.487.096c.496 0 .952-.09 1.368-.27.416-.18.756-.434 1.02-.762.032-.048.048-.08.048-.096 0-.032-.02-.068-.06-.108l-.864-.852c-.032-.032-.06-.048-.084-.048-.04 0-.076.024-.108.072-.296.408-.7.616-1.212.624-.64 0-1.064-.224-1.272-.672a2.149 2.149 0 0 1-.132-.48c-.016-.04 0-.06.048-.06h3.708c.096 0 .148-.048.156-.144.016-.376 0-.716-.048-1.02-.104-.776-.398-1.396-.882-1.86-.484-.464-1.126-.696-1.926-.696-.632 0-1.178.168-1.638.504-.46.336-.782.788-.966 1.356-.12.336-.18.724-.18 1.164 0 .648.084 1.172.252 1.572.208.56.55.996 1.026 1.308.476.312 1.058.468 1.746.468zm.828-3.756h-2.076c-.04 0-.06-.02-.06-.06.024-.152.052-.28.084-.384.16-.472.492-.708.996-.708.264 0 .486.066.666.198.18.132.306.318.378.558 0-.008.02.104.06.336.016.04 0 .06-.048.06zm5.566 6.024c.952 0 1.73-.224 2.334-.672.604-.448.906-1.196.906-2.244v-5.472a.139.139 0 0 0-.042-.102.139.139 0 0 0-.102-.042h-1.404a.139.139 0 0 0-.102.042.139.139 0 0 0-.042.102v.288c0 .024-.008.038-.024.042-.016.004-.032-.002-.048-.018-.328-.368-.8-.552-1.416-.552-.528 0-.992.148-1.392.444-.4.296-.684.688-.852 1.176-.144.392-.216.9-.216 1.524 0 .584.06 1.06.18 1.428.184.56.494.966.93 1.218.436.252.914.378 1.434.378.584 0 1.028-.164 1.332-.492.016-.016.032-.022.048-.018s.024.018.024.042c0 .496-.138.856-.414 1.08-.276.224-.67.336-1.182.336-.24 0-.504-.024-.792-.072-.112-.016-.168.028-.168.132l-.048 1.236c0 .096.04.148.12.156.344.04.656.06.936.06zm.468-3.804a1.038 1.038 0 0 1-1.02-.72c-.096-.192-.144-.512-.144-.96 0-.408.056-.732.168-.972.08-.216.204-.39.372-.522a.96.96 0 0 1 .612-.198c.248 0 .456.066.624.198.168.132.288.306.36.522.04.12.068.248.084.384s.024.328.024.576c0 .416-.032.744-.096.984-.064.208-.18.378-.348.51a.998.998 0 0 1-.636.198zm7.39 1.536c.496 0 .952-.09 1.368-.27.416-.18.756-.434 1.02-.762.032-.048.048-.08.048-.096 0-.032-.02-.068-.06-.108l-.864-.852c-.032-.032-.06-.048-.084-.048-.04 0-.076.024-.108.072-.296.408-.7.616-1.212.624-.64 0-1.064-.224-1.272-.672a2.149 2.149 0 0 1-.132-.48c-.016-.04 0-.06.048-.06h3.708c.096 0 .148-.048.156-.144.016-.376 0-.716-.048-1.02-.104-.776-.398-1.396-.882-1.86-.484-.464-1.126-.696-1.926-.696-.632 0-1.178.168-1.638.504-.46.336-.782.788-.966 1.356-.12.336-.18.724-.18 1.164 0 .648.084 1.172.252 1.572.208.56.55.996 1.026 1.308.476.312 1.058.468 1.746.468zm.828-3.756h-2.076c-.04 0-.06-.02-.06-.06.024-.152.052-.28.084-.384.16-.472.492-.708.996-.708.264 0 .486.066.666.198.18.132.306.318.378.558 0-.008.02.104.06.336.016.04 0 .06-.048.06zm4.895 3.66c.04 0 .074-.014.102-.042a.139.139 0 0 0 .042-.102V41.18c0-.32.09-.58.27-.78.18-.2.418-.3.714-.3s.534.1.714.3c.18.2.27.46.27.78v3.588c0 .04.014.074.042.102a.139.139 0 0 0 .102.042h1.404c.04 0 .074-.014.102-.042a.139.139 0 0 0 .042-.102v-3.936c0-.672-.196-1.204-.588-1.596-.392-.392-.908-.588-1.548-.588-.648 0-1.136.232-1.464.696-.008.016-.02.02-.036.012-.016-.008-.024-.024-.024-.048v-.42a.139.139 0 0 0-.042-.102.139.139 0 0 0-.102-.042h-1.404a.139.139 0 0 0-.102.042.139.139 0 0 0-.042.102v5.88c0 .04.014.074.042.102a.139.139 0 0 0 .102.042h1.404zm7.87.096c.584 0 1.044-.22 1.38-.66.016-.016.032-.022.048-.018s.024.018.024.042v.396c0 .04.014.074.042.102a.139.139 0 0 0 .102.042h1.404c.04 0 .074-.014.102-.042a.139.139 0 0 0 .042-.102v-8.112a.139.139 0 0 0-.042-.102.139.139 0 0 0-.102-.042h-1.404a.139.139 0 0 0-.102.042.139.139 0 0 0-.042.102v2.568c0 .024-.008.04-.024.048s-.032 0-.048-.024c-.32-.4-.768-.6-1.344-.6-.584 0-1.074.15-1.47.45a2.58 2.58 0 0 0-.87 1.218c-.144.424-.216.92-.216 1.488 0 .552.068 1.036.204 1.452.176.544.466.972.87 1.284.404.312.886.468 1.446.468zm.36-1.452c-.392 0-.688-.172-.888-.516-.168-.32-.252-.72-.252-1.2 0-.536.1-.96.3-1.272.192-.312.476-.468.852-.468.352 0 .62.156.804.468.176.304.264.724.264 1.26 0 .512-.08.916-.24 1.212-.2.344-.48.516-.84.516z" fill="#5F6368" fill-rule="nonzero"/>
        <g fill="#5F6368" fill-rule="nonzero">
            <path d="m512.747 54.95-.291.524a2.089 2.089 0 0 0-1.017-.262v-.6c.464 0 .911.117 1.308.337zm1.392 3.488h-.6v-1.196l.599-.02.001 1.216zm0 3.6h-.6v-1.2h.6v1.2zm0 3.6h-.6v-1.2h.6v1.2zm0 3.6h-.6v-1.2h.6v1.2zm0 3.6h-.6v-1.2h.6v1.2zm0 3.6h-.6v-1.2h.6v1.2zm0 3.6h-.6v-1.2h.6v1.2zm-1.193 3.515-.335-.498c.295-.198.536-.47.698-.785l.534.274a2.711 2.711 0 0 1-.897 1.009zm-3.759.459v-.6h1.2v.6h-1.2zm-3.6 0v-.6h1.2v.6h-1.2zm-3.6 0v-.6h1.2v.6h-1.2zm-3.6 0v-.6h1.2v.6h-1.2zm-3.6 0v-.6h1.2v.6h-1.2zm-3.6 0v-.6h1.2v.6h-1.2zm-3.6 0v-.6h1.2v.6h-1.2zm-3.6 0v-.6h1.2v.6h-1.2zm-3.6 0v-.6h1.2v.6h-1.2zm-3.6 0v-.6h1.2v.6h-1.2zm-3.6 0v-.6h1.2v.6h-1.2zm-3.6 0v-.6h1.2v.6h-1.2zm-3.6 0v-.6h1.2v.6h-1.2zm-3.6 0v-.6h1.2v.6h-1.2zm-3.6 0v-.6h1.2v.6h-1.2zm-3.6 0v-.6h1.2v.6h-1.2zm-3.6 0v-.6h1.2v.6h-1.2zm-3.6 0v-.6h1.2v.6h-1.2zm-3.6 0v-.6h1.2v.6h-1.2zm-3.6 0v-.6h1.2v.6h-1.2zm-3.6 0v-.6h1.2v.6h-1.2zm-3.6 0v-.6h1.2v.6h-1.2zm-3.6 0v-.6h1.2v.6h-1.2zm-3.6 0v-.6h1.2v.6h-1.2zm-3.6 0v-.6h1.2v.6h-1.2zm-3.6 0v-.6h1.2v.6h-1.2zm-3.6 0v-.6h1.2v.6h-1.2zm-3.6 0v-.6h1.2v.6h-1.2zm-3.6 0v-.6h1.2v.6h-1.2zm-3.6 0v-.6h1.2v.6h-1.2zm-3.6 0v-.6h1.2v.6h-1.2zm-3.6 0v-.6h1.2v.6h-1.2zm-3.6 0v-.6h1.2v.6h-1.2zm-3.6 0v-.6h1.2v.6h-1.2zm-3.6 0v-.6h1.2v.6h-1.2zm-3.6 0v-.6h1.2v.6h-1.2zm-3.6 0v-.6h1.2v.6h-1.2zm-3.706-.366.302-.519c.305.178.65.277 1.01.285l-.012.6a2.687 2.687 0 0 1-1.3-.366zm-1.342-3.513h.6v1.2l-.6.005v-1.205zm0-3.6h.6v1.2h-.6v-1.2zm0-3.6h.6v1.2h-.6v-1.2zm0-3.6h.6v1.2h-.6v-1.2zm0-3.6h.6v1.2h-.6v-1.2zm0-3.6h.6v1.2h-.6v-1.2zm0-3.6h.6v1.2h-.6v-1.2zm1.245-3.495.323.505c-.299.192-.545.457-.715.77l-.527-.287c.217-.401.534-.742.919-.988zm3.76-.426v.6h-1.2v-.6h1.2zm3.6 0v.6h-1.2v-.6h1.2zm3.6 0v.6h-1.2v-.6h1.2zm3.6 0v.6h-1.2v-.6h1.2zm3.6 0v.6h-1.2v-.6h1.2zm3.6 0v.6h-1.2v-.6h1.2zm3.6 0v.6h-1.2v-.6h1.2zm3.6 0v.6h-1.2v-.6h1.2zm3.6 0v.6h-1.2v-.6h1.2zm3.6 0v.6h-1.2v-.6h1.2zm3.6 0v.6h-1.2v-.6h1.2zm3.6 0v.6h-1.2v-.6h1.2zm3.6 0v.6h-1.2v-.6h1.2zm3.6 0v.6h-1.2v-.6h1.2zm3.6 0v.6h-1.2v-.6h1.2zm3.6 0v.6h-1.2v-.6h1.2zm3.6 0v.6h-1.2v-.6h1.2zm3.6 0v.6h-1.2v-.6h1.2zm3.6 0v.6h-1.2v-.6h1.2zm3.6 0v.6h-1.2v-.6h1.2zm3.6 0v.6h-1.2v-.6h1.2zm3.6 0v.6h-1.2v-.6h1.2zm3.6 0v.6h-1.2v-.6h1.2zm3.6 0v.6h-1.2v-.6h1.2zm3.6 0v.6h-1.2v-.6h1.2zm3.6 0v.6h-1.2v-.6h1.2zm3.6 0v.6h-1.2v-.6h1.2zm3.6 0v.6h-1.2v-.6h1.2zm3.6 0v.6h-1.2v-.6h1.2zm3.6 0v.6h-1.2v-.6h1.2zm3.6 0v.6h-1.2v-.6h1.2zm3.6 0v.6h-1.2v-.6h1.2zm3.6 0v.6h-1.2v-.6h1.2zm3.6 0v.6h-1.2v-.6h1.2zm3.6 0v.6h-1.2v-.6h1.2zm3.6 0v.6h-1.2v-.6h1.2zm3.6 0v.6h-1.2v-.6h1.2zM388.523 74.008c.856 0 1.538-.24 2.046-.72.508-.48.762-1.148.762-2.004v-1.548c0-.08-.04-.12-.12-.12h-2.544c-.08 0-.12.04-.12.12v.504c0 .08.04.12.12.12h1.764c.032 0 .048.016.048.048V71.5c0 .536-.174.964-.522 1.284-.348.32-.814.48-1.398.48-.6 0-1.084-.172-1.452-.516-.368-.344-.552-.796-.552-1.356v-3.36c0-.56.18-1.012.54-1.356.36-.344.836-.516 1.428-.516s1.066.168 1.422.504c.356.336.534.772.534 1.308v.144c0 .08.04.12.12.12h.612c.08 0 .12-.04.12-.12v-.156a2.51 2.51 0 0 0-.348-1.314 2.364 2.364 0 0 0-.99-.906c-.428-.216-.918-.324-1.47-.324-.56 0-1.052.11-1.476.33-.424.22-.754.53-.99.93s-.354.86-.354 1.38v3.312c0 .52.118.98.354 1.38.236.4.566.71.99.93.424.22.916.33 1.476.33zm5.564-.096c.08 0 .12-.04.12-.12v-3.54c0-.448.136-.818.408-1.11a1.43 1.43 0 0 1 1.032-.462l.156-.012c.176 0 .332.028.468.084.08.032.132.008.156-.072l.132-.588c.016-.072-.008-.124-.072-.156a1.416 1.416 0 0 0-.684-.156c-.344 0-.646.082-.906.246a1.91 1.91 0 0 0-.642.69c-.008.016-.018.022-.03.018s-.018-.018-.018-.042v-.732c0-.08-.04-.12-.12-.12h-.612c-.08 0-.12.04-.12.12v5.832c0 .08.04.12.12.12h.612zm6.092.096c.576 0 1.07-.148 1.482-.444.412-.296.694-.704.846-1.224.112-.336.168-.828.168-1.476 0-.64-.056-1.132-.168-1.476a2.224 2.224 0 0 0-.846-1.2c-.412-.296-.902-.444-1.47-.444-.592 0-1.096.148-1.512.444-.416.296-.7.7-.852 1.212-.112.36-.168.848-.168 1.464s.056 1.108.168 1.476c.16.52.448.928.864 1.224.416.296.912.444 1.488.444zm0-.744c-.4 0-.738-.106-1.014-.318a1.492 1.492 0 0 1-.546-.858c-.064-.28-.096-.684-.096-1.212 0-.528.032-.932.096-1.212.096-.36.28-.646.552-.858.272-.212.604-.318.996-.318s.726.106 1.002.318c.276.212.462.498.558.858.064.28.096.684.096 1.212 0 .52-.036.924-.108 1.212-.096.36-.28.646-.552.858-.272.212-.6.318-.984.318zm6.44.732c.728 0 1.26-.248 1.596-.744.008-.016.02-.02.036-.012.016.008.024.02.024.036v.516c0 .08.04.12.12.12h.612c.08 0 .12-.04.12-.12V67.96c0-.08-.04-.12-.12-.12h-.612c-.08 0-.12.04-.12.12v3.804c0 .448-.134.808-.402 1.08s-.63.408-1.086.408c-.44 0-.788-.134-1.044-.402s-.384-.63-.384-1.086V67.96c0-.08-.04-.12-.12-.12h-.612c-.08 0-.12.04-.12.12v4.056c0 .416.094.772.282 1.068.188.296.444.522.768.678.324.156.678.234 1.062.234zm5.432 2.244c.08 0 .12-.04.12-.12V73.3c0-.016.006-.026.018-.03.012-.004.026.002.042.018.176.232.396.41.66.534.264.124.552.186.864.186.576 0 1.054-.146 1.434-.438.38-.292.642-.694.786-1.206.104-.352.156-.848.156-1.488 0-.632-.06-1.14-.18-1.524a2.196 2.196 0 0 0-.786-1.176c-.38-.288-.85-.432-1.41-.432-.32 0-.61.064-.87.192s-.478.308-.654.54c-.016.016-.03.022-.042.018-.012-.004-.018-.014-.018-.03v-.504c0-.08-.04-.12-.12-.12h-.612c-.08 0-.12.04-.12.12v8.16c0 .08.04.12.12.12h.612zm1.608-2.976c-.304 0-.566-.082-.786-.246a1.358 1.358 0 0 1-.474-.654 2.028 2.028 0 0 1-.168-.582 6.64 6.64 0 0 1-.048-.906c0-.384.016-.684.048-.9.032-.216.084-.404.156-.564.104-.28.264-.504.48-.672.216-.168.484-.252.804-.252.336 0 .626.084.87.252.244.168.414.396.51.684.08.168.136.358.168.57.032.212.048.506.048.882 0 .392-.022.698-.066.918-.044.22-.11.418-.198.594a1.35 1.35 0 0 1-.51.636 1.45 1.45 0 0 1-.834.24zm10.192.648c.752 0 1.358-.2 1.818-.6.46-.4.69-.96.69-1.68 0-.488-.112-.904-.336-1.248-.224-.344-.552-.604-.984-.78-.04-.024-.04-.048 0-.072.392-.16.694-.394.906-.702.212-.308.318-.682.318-1.122 0-.696-.222-1.236-.666-1.62-.444-.384-1.054-.576-1.83-.576h-2.82c-.08 0-.12.04-.12.12v8.16c0 .08.04.12.12.12h2.904zm-.084-4.68h-2.04c-.032 0-.048-.016-.048-.048v-2.88c0-.032.016-.048.048-.048h2.04c.504 0 .906.138 1.206.414.3.276.45.646.45 1.11 0 .44-.15.792-.45 1.056-.3.264-.702.396-1.206.396zm.084 3.924h-2.124c-.032 0-.048-.016-.048-.048V70c0-.032.016-.048.048-.048h2.076c.52 0 .934.146 1.242.438.308.292.462.682.462 1.17 0 .488-.15.876-.45 1.164-.3.288-.702.432-1.206.432zm4.256 3.156c.456 0 .81-.05 1.062-.15.252-.1.462-.278.63-.534.168-.256.348-.652.54-1.188l2.22-6.468c.024-.088-.008-.132-.096-.132h-.624c-.072 0-.12.032-.144.096l-1.536 4.848c-.008.016-.02.024-.036.024-.016 0-.028-.008-.036-.024l-1.56-4.848c-.024-.064-.072-.096-.144-.096h-.636c-.072 0-.108.028-.108.084l.012.048 2.028 5.904c.016.016.016.04 0 .072-.144.464-.278.81-.402 1.038-.124.228-.272.384-.444.468-.172.084-.414.13-.726.138h-.048c-.08 0-.12.04-.12.12v.48c0 .08.028.12.084.12h.084zm11.284-2.268c.632 0 1.186-.126 1.662-.378s.846-.61 1.11-1.074c.264-.464.396-.996.396-1.596v-2.568c0-.592-.132-1.116-.396-1.572a2.731 2.731 0 0 0-1.11-1.062c-.476-.252-1.03-.378-1.662-.378-.624 0-1.174.126-1.65.378a2.731 2.731 0 0 0-1.11 1.062c-.264.456-.396.98-.396 1.572v2.568c0 .6.132 1.13.396 1.59.264.46.634.818 1.11 1.074.476.256 1.026.384 1.65.384zm0-1.452c-.44 0-.794-.14-1.062-.42-.268-.28-.402-.652-.402-1.116v-2.64c0-.464.134-.838.402-1.122.268-.284.622-.426 1.062-.426.448 0 .806.142 1.074.426.268.284.402.658.402 1.122v2.64c0 .464-.136.836-.408 1.116-.272.28-.628.42-1.068.42zm6.104 1.32c.04 0 .074-.014.102-.042a.139.139 0 0 0 .042-.102v-3.276c0-.312.1-.562.3-.75.2-.188.444-.294.732-.318.112-.016.2-.024.264-.024.16 0 .3.02.42.06.104.04.16.012.168-.084l.252-1.368c.016-.088-.008-.148-.072-.18-.168-.112-.396-.168-.684-.168-.552 0-.992.24-1.32.72-.008.016-.02.02-.036.012-.016-.008-.024-.024-.024-.048v-.456a.139.139 0 0 0-.042-.102.139.139 0 0 0-.102-.042h-1.404a.139.139 0 0 0-.102.042.139.139 0 0 0-.042.102v5.88c0 .04.014.074.042.102a.139.139 0 0 0 .102.042h1.404zm5.468.096c.584 0 1.044-.22 1.38-.66.016-.016.032-.022.048-.018s.024.018.024.042v.396c0 .04.014.074.042.102a.139.139 0 0 0 .102.042h1.404c.04 0 .074-.014.102-.042a.139.139 0 0 0 .042-.102v-8.112a.139.139 0 0 0-.042-.102.139.139 0 0 0-.102-.042h-1.404a.139.139 0 0 0-.102.042.139.139 0 0 0-.042.102v2.568c0 .024-.008.04-.024.048s-.032 0-.048-.024c-.32-.4-.768-.6-1.344-.6-.584 0-1.074.15-1.47.45a2.58 2.58 0 0 0-.87 1.218c-.144.424-.216.92-.216 1.488 0 .552.068 1.036.204 1.452.176.544.466.972.87 1.284.404.312.886.468 1.446.468zm.36-1.452c-.392 0-.688-.172-.888-.516-.168-.32-.252-.72-.252-1.2 0-.536.1-.96.3-1.272.192-.312.476-.468.852-.468.352 0 .62.156.804.468.176.304.264.724.264 1.26 0 .512-.08.916-.24 1.212-.2.344-.48.516-.84.516zm7.148 1.452c.496 0 .952-.09 1.368-.27.416-.18.756-.434 1.02-.762.032-.048.048-.08.048-.096 0-.032-.02-.068-.06-.108l-.864-.852c-.032-.032-.06-.048-.084-.048-.04 0-.076.024-.108.072-.296.408-.7.616-1.212.624-.64 0-1.064-.224-1.272-.672a2.149 2.149 0 0 1-.132-.48c-.016-.04 0-.06.048-.06h3.708c.096 0 .148-.048.156-.144.016-.376 0-.716-.048-1.02-.104-.776-.398-1.396-.882-1.86-.484-.464-1.126-.696-1.926-.696-.632 0-1.178.168-1.638.504-.46.336-.782.788-.966 1.356-.12.336-.18.724-.18 1.164 0 .648.084 1.172.252 1.572.208.56.55.996 1.026 1.308.476.312 1.058.468 1.746.468zm.828-3.756h-2.076c-.04 0-.06-.02-.06-.06.024-.152.052-.28.084-.384.16-.472.492-.708.996-.708.264 0 .486.066.666.198.18.132.306.318.378.558 0-.008.02.104.06.336.016.04 0 .06-.048.06zm4.58 3.66c.04 0 .074-.014.102-.042a.139.139 0 0 0 .042-.102v-3.276c0-.312.1-.562.3-.75.2-.188.444-.294.732-.318.112-.016.2-.024.264-.024.16 0 .3.02.42.06.104.04.16.012.168-.084l.252-1.368c.016-.088-.008-.148-.072-.18-.168-.112-.396-.168-.684-.168-.552 0-.992.24-1.32.72-.008.016-.02.02-.036.012-.016-.008-.024-.024-.024-.048v-.456a.139.139 0 0 0-.042-.102.139.139 0 0 0-.102-.042h-1.404a.139.139 0 0 0-.102.042.139.139 0 0 0-.042.102v5.88c0 .04.014.074.042.102a.139.139 0 0 0 .102.042h1.404zm8.836.096c.944 0 1.692-.218 2.244-.654.552-.436.828-1.03.828-1.782 0-.504-.13-.914-.39-1.23a2.666 2.666 0 0 0-.876-.714c-.324-.16-.77-.344-1.338-.552-.512-.184-.89-.33-1.134-.438-.244-.108-.428-.23-.552-.366a.72.72 0 0 1-.186-.504c0-.28.106-.5.318-.66.212-.16.506-.24.882-.24.48 0 .858.118 1.134.354.276.236.414.522.414.858v.096c0 .04.014.074.042.102a.139.139 0 0 0 .102.042h1.38c.04 0 .074-.014.102-.042a.139.139 0 0 0 .042-.102v-.18c0-.512-.134-.962-.402-1.35a2.65 2.65 0 0 0-1.116-.906c-.476-.216-1.018-.324-1.626-.324-.576 0-1.084.096-1.524.288-.44.192-.784.468-1.032.828-.248.36-.372.78-.372 1.26 0 .488.126.898.378 1.23.252.332.564.594.936.786.372.192.826.38 1.362.564.48.176.83.314 1.05.414.22.1.394.216.522.348a.671.671 0 0 1 .192.486.847.847 0 0 1-.312.666c-.208.18-.524.27-.948.27-.504 0-.904-.11-1.2-.33-.296-.22-.444-.49-.444-.81v-.18a.139.139 0 0 0-.042-.102.139.139 0 0 0-.102-.042h-1.368a.139.139 0 0 0-.102.042.139.139 0 0 0-.042.102v.264c0 .504.13.946.39 1.326.26.38.63.672 1.11.876.48.204 1.04.306 1.68.306zm6.896-.06c.144 0 .384-.008.72-.024.096-.016.144-.068.144-.156v-1.14a.139.139 0 0 0-.042-.102.139.139 0 0 0-.102-.042h-.396c-.24 0-.414-.064-.522-.192-.108-.128-.162-.324-.162-.588V69.16c0-.04.02-.06.06-.06h1.152c.04 0 .074-.014.102-.042a.139.139 0 0 0 .042-.102v-1.068a.139.139 0 0 0-.042-.102.139.139 0 0 0-.102-.042h-1.152c-.04 0-.06-.02-.06-.06v-1.428a.139.139 0 0 0-.042-.102.139.139 0 0 0-.102-.042h-1.344a.139.139 0 0 0-.102.042.139.139 0 0 0-.042.102v1.428c0 .04-.02.06-.06.06h-.684a.139.139 0 0 0-.102.042.139.139 0 0 0-.042.102v1.068c0 .04.014.074.042.102a.139.139 0 0 0 .102.042h.684c.04 0 .06.02.06.06v3.216c.008.608.176 1.022.504 1.242.328.22.824.33 1.488.33zm3.98.06c.744 0 1.284-.22 1.62-.66.016-.024.032-.032.048-.024s.024.024.024.048v.396c0 .04.014.074.042.102a.139.139 0 0 0 .102.042h1.404c.04 0 .074-.014.102-.042a.139.139 0 0 0 .042-.102V69.7c0-.384-.114-.732-.342-1.044-.228-.312-.546-.558-.954-.738a3.416 3.416 0 0 0-1.392-.27c-.48 0-.914.076-1.302.228-.388.152-.7.364-.936.636-.236.272-.37.576-.402.912-.008.056.036.092.132.108l1.452.192c.08.008.132-.032.156-.12a.616.616 0 0 1 .318-.372c.164-.088.37-.132.618-.132.32 0 .56.074.72.222.16.148.24.354.24.618v.264c0 .04-.02.06-.06.06H484c-.8 0-1.416.17-1.848.51-.432.34-.648.818-.648 1.434 0 .592.192 1.04.576 1.344.384.304.888.456 1.512.456zm.456-1.26c-.256 0-.46-.062-.612-.186a.623.623 0 0 1-.228-.51c0-.248.102-.44.306-.576.204-.136.486-.204.846-.204h.864c.04 0 .06.02.06.06v.432c0 .288-.12.524-.36.708-.24.184-.532.276-.876.276zm6.728 1.2c.144 0 .384-.008.72-.024.096-.016.144-.068.144-.156v-1.14a.139.139 0 0 0-.042-.102.139.139 0 0 0-.102-.042h-.396c-.24 0-.414-.064-.522-.192-.108-.128-.162-.324-.162-.588V69.16c0-.04.02-.06.06-.06h1.152c.04 0 .074-.014.102-.042a.139.139 0 0 0 .042-.102v-1.068a.139.139 0 0 0-.042-.102.139.139 0 0 0-.102-.042h-1.152c-.04 0-.06-.02-.06-.06v-1.428a.139.139 0 0 0-.042-.102.139.139 0 0 0-.102-.042h-1.344a.139.139 0 0 0-.102.042.139.139 0 0 0-.042.102v1.428c0 .04-.02.06-.06.06h-.684a.139.139 0 0 0-.102.042.139.139 0 0 0-.042.102v1.068c0 .04.014.074.042.102a.139.139 0 0 0 .102.042h.684c.04 0 .06.02.06.06v3.216c.008.608.176 1.022.504 1.242.328.22.824.33 1.488.33zm4.256.048c.672 0 1.168-.216 1.488-.648.016-.024.032-.034.048-.03.016.004.024.018.024.042v.408c0 .04.014.074.042.102a.139.139 0 0 0 .102.042h1.404c.04 0 .074-.014.102-.042a.139.139 0 0 0 .042-.102v-5.88a.139.139 0 0 0-.042-.102.139.139 0 0 0-.102-.042h-1.404a.139.139 0 0 0-.102.042.139.139 0 0 0-.042.102v3.78c-.04.264-.148.478-.324.642a.947.947 0 0 1-.672.246c-.304 0-.542-.1-.714-.3-.172-.2-.258-.46-.258-.78v-3.588a.139.139 0 0 0-.042-.102.139.139 0 0 0-.102-.042h-1.392a.139.139 0 0 0-.102.042.139.139 0 0 0-.042.102v4.008c0 .664.196 1.18.588 1.548.392.368.892.552 1.5.552zm7.16 0c.792 0 1.422-.166 1.89-.498.468-.332.702-.794.702-1.386 0-.504-.164-.888-.492-1.152-.328-.264-.776-.48-1.344-.648a6.488 6.488 0 0 0-.36-.102 14.723 14.723 0 0 1-.3-.078c-.384-.088-.658-.172-.822-.252-.164-.08-.246-.2-.246-.36 0-.168.084-.3.252-.396.168-.096.384-.144.648-.144.296 0 .534.06.714.18.18.12.27.268.27.444 0 .04.014.074.042.102a.139.139 0 0 0 .102.042h1.284c.04 0 .074-.014.102-.042a.139.139 0 0 0 .042-.102c0-.376-.106-.712-.318-1.008a2.065 2.065 0 0 0-.894-.69c-.384-.164-.832-.246-1.344-.246-.76 0-1.37.174-1.83.522-.46.348-.69.818-.69 1.41 0 .48.152.848.456 1.104.304.256.712.472 1.224.648.216.088.512.18.888.276.328.08.564.156.708.228.144.072.216.18.216.324 0 .16-.084.294-.252.402-.168.108-.388.162-.66.162-.296 0-.542-.062-.738-.186-.196-.124-.294-.274-.294-.45v-.012a.139.139 0 0 0-.042-.102.139.139 0 0 0-.102-.042h-1.332a.139.139 0 0 0-.102.042.139.139 0 0 0-.042.102v.12c0 .344.11.652.33.924.22.272.53.484.93.636.4.152.868.228 1.404.228z"/>
            <path d="M410.72 74.812v-.6h-25.88v.6h25.88zm18.042 0v-.6h-15.99v.6h15.99zm4.33 0v-.6h-2.075v.6h2.074zm2.58-.6v.6h68.711v-.6h-68.712z"/>
        </g>
        <g fill="#5F6368" fill-rule="nonzero">
            <path d="m512.747 126.95-.291.524a2.089 2.089 0 0 0-1.017-.262v-.6c.464 0 .911.117 1.308.337zm1.392 3.488h-.6v-1.196l.599-.02.001 1.216zm0 3.6h-.6v-1.2h.6v1.2zm0 3.6h-.6v-1.2h.6v1.2zm0 3.6h-.6v-1.2h.6v1.2zm0 3.6h-.6v-1.2h.6v1.2zm0 3.6h-.6v-1.2h.6v1.2zm0 3.6h-.6v-1.2h.6v1.2zm-1.193 3.515-.335-.498c.295-.198.536-.47.698-.785l.534.274a2.711 2.711 0 0 1-.897 1.009zm-3.759.459v-.6h1.2v.6h-1.2zm-3.6 0v-.6h1.2v.6h-1.2zm-3.6 0v-.6h1.2v.6h-1.2zm-3.6 0v-.6h1.2v.6h-1.2zm-3.6 0v-.6h1.2v.6h-1.2zm-3.6 0v-.6h1.2v.6h-1.2zm-3.6 0v-.6h1.2v.6h-1.2zm-3.6 0v-.6h1.2v.6h-1.2zm-3.6 0v-.6h1.2v.6h-1.2zm-3.6 0v-.6h1.2v.6h-1.2zm-3.6 0v-.6h1.2v.6h-1.2zm-3.6 0v-.6h1.2v.6h-1.2zm-3.6 0v-.6h1.2v.6h-1.2zm-3.6 0v-.6h1.2v.6h-1.2zm-3.6 0v-.6h1.2v.6h-1.2zm-3.6 0v-.6h1.2v.6h-1.2zm-3.6 0v-.6h1.2v.6h-1.2zm-3.6 0v-.6h1.2v.6h-1.2zm-3.6 0v-.6h1.2v.6h-1.2zm-3.6 0v-.6h1.2v.6h-1.2zm-3.6 0v-.6h1.2v.6h-1.2zm-3.6 0v-.6h1.2v.6h-1.2zm-3.6 0v-.6h1.2v.6h-1.2zm-3.6 0v-.6h1.2v.6h-1.2zm-3.6 0v-.6h1.2v.6h-1.2zm-3.6 0v-.6h1.2v.6h-1.2zm-3.6 0v-.6h1.2v.6h-1.2zm-3.6 0v-.6h1.2v.6h-1.2zm-3.6 0v-.6h1.2v.6h-1.2zm-3.6 0v-.6h1.2v.6h-1.2zm-3.6 0v-.6h1.2v.6h-1.2zm-3.6 0v-.6h1.2v.6h-1.2zm-3.6 0v-.6h1.2v.6h-1.2zm-3.6 0v-.6h1.2v.6h-1.2zm-3.6 0v-.6h1.2v.6h-1.2zm-3.6 0v-.6h1.2v.6h-1.2zm-3.6 0v-.6h1.2v.6h-1.2zm-3.706-.366.302-.519c.305.178.65.277 1.01.285l-.012.6a2.687 2.687 0 0 1-1.3-.366zm-1.342-3.513h.6v1.2l-.6.005v-1.205zm0-3.6h.6v1.2h-.6v-1.2zm0-3.6h.6v1.2h-.6v-1.2zm0-3.6h.6v1.2h-.6v-1.2zm0-3.6h.6v1.2h-.6v-1.2zm0-3.6h.6v1.2h-.6v-1.2zm0-3.6h.6v1.2h-.6v-1.2zm1.245-3.495.323.505c-.299.192-.545.457-.715.77l-.527-.287c.217-.401.534-.742.919-.988zm3.76-.426v.6h-1.2v-.6h1.2zm3.6 0v.6h-1.2v-.6h1.2zm3.6 0v.6h-1.2v-.6h1.2zm3.6 0v.6h-1.2v-.6h1.2zm3.6 0v.6h-1.2v-.6h1.2zm3.6 0v.6h-1.2v-.6h1.2zm3.6 0v.6h-1.2v-.6h1.2zm3.6 0v.6h-1.2v-.6h1.2zm3.6 0v.6h-1.2v-.6h1.2zm3.6 0v.6h-1.2v-.6h1.2zm3.6 0v.6h-1.2v-.6h1.2zm3.6 0v.6h-1.2v-.6h1.2zm3.6 0v.6h-1.2v-.6h1.2zm3.6 0v.6h-1.2v-.6h1.2zm3.6 0v.6h-1.2v-.6h1.2zm3.6 0v.6h-1.2v-.6h1.2zm3.6 0v.6h-1.2v-.6h1.2zm3.6 0v.6h-1.2v-.6h1.2zm3.6 0v.6h-1.2v-.6h1.2zm3.6 0v.6h-1.2v-.6h1.2zm3.6 0v.6h-1.2v-.6h1.2zm3.6 0v.6h-1.2v-.6h1.2zm3.6 0v.6h-1.2v-.6h1.2zm3.6 0v.6h-1.2v-.6h1.2zm3.6 0v.6h-1.2v-.6h1.2zm3.6 0v.6h-1.2v-.6h1.2zm3.6 0v.6h-1.2v-.6h1.2zm3.6 0v.6h-1.2v-.6h1.2zm3.6 0v.6h-1.2v-.6h1.2zm3.6 0v.6h-1.2v-.6h1.2zm3.6 0v.6h-1.2v-.6h1.2zm3.6 0v.6h-1.2v-.6h1.2zm3.6 0v.6h-1.2v-.6h1.2zm3.6 0v.6h-1.2v-.6h1.2zm3.6 0v.6h-1.2v-.6h1.2zm3.6 0v.6h-1.2v-.6h1.2zm3.6 0v.6h-1.2v-.6h1.2zM388.523 146.02c.56 0 1.052-.108 1.476-.324.424-.216.754-.522.99-.918s.354-.854.354-1.374c0-.072-.04-.108-.12-.108l-.612-.036c-.08 0-.12.036-.12.108v.024c0 .568-.18 1.022-.54 1.362-.36.34-.836.51-1.428.51s-1.068-.172-1.428-.516c-.36-.344-.54-.796-.54-1.356v-3.36c0-.56.18-1.012.54-1.356.36-.344.836-.516 1.428-.516s1.068.17 1.428.51c.36.34.54.794.54 1.362v.036c0 .072.04.108.12.108l.612-.036c.032 0 .06-.012.084-.036a.13.13 0 0 0 .036-.096c0-.512-.118-.964-.354-1.356a2.4 2.4 0 0 0-.99-.912c-.424-.216-.916-.324-1.476-.324-.56 0-1.052.11-1.476.33-.424.22-.754.53-.99.93s-.354.86-.354 1.38v3.3c0 .528.118.994.354 1.398.236.404.566.716.99.936.424.22.916.33 1.476.33zm7.064-.012c.576 0 1.07-.148 1.482-.444.412-.296.694-.704.846-1.224.112-.336.168-.828.168-1.476 0-.64-.056-1.132-.168-1.476a2.224 2.224 0 0 0-.846-1.2c-.412-.296-.902-.444-1.47-.444-.592 0-1.096.148-1.512.444-.416.296-.7.7-.852 1.212-.112.36-.168.848-.168 1.464s.056 1.108.168 1.476c.16.52.448.928.864 1.224.416.296.912.444 1.488.444zm0-.744c-.4 0-.738-.106-1.014-.318a1.492 1.492 0 0 1-.546-.858c-.064-.28-.096-.684-.096-1.212 0-.528.032-.932.096-1.212.096-.36.28-.646.552-.858.272-.212.604-.318.996-.318s.726.106 1.002.318c.276.212.462.498.558.858.064.28.096.684.096 1.212 0 .52-.036.924-.108 1.212-.096.36-.28.646-.552.858-.272.212-.6.318-.984.318zm6.44.732c.728 0 1.26-.248 1.596-.744.008-.016.02-.02.036-.012.016.008.024.02.024.036v.516c0 .08.04.12.12.12h.612c.08 0 .12-.04.12-.12v-5.832c0-.08-.04-.12-.12-.12h-.612c-.08 0-.12.04-.12.12v3.804c0 .448-.134.808-.402 1.08s-.63.408-1.086.408c-.44 0-.788-.134-1.044-.402s-.384-.63-.384-1.086v-3.804c0-.08-.04-.12-.12-.12h-.612c-.08 0-.12.04-.12.12v4.056c0 .416.094.772.282 1.068.188.296.444.522.768.678.324.156.678.234 1.062.234zm5.348-.084c.08 0 .12-.04.12-.12v-3.816c0-.44.136-.796.408-1.068.272-.272.628-.408 1.068-.408.424 0 .77.14 1.038.42.268.28.402.64.402 1.08v3.792c0 .08.04.12.12.12h.612c.08 0 .12-.04.12-.12v-3.96c0-.632-.19-1.136-.57-1.512-.38-.376-.89-.564-1.53-.564-.728 0-1.268.248-1.62.744-.008.016-.018.02-.03.012a.04.04 0 0 1-.018-.036v-.516c0-.08-.04-.12-.12-.12h-.612c-.08 0-.12.04-.12.12v5.832c0 .08.04.12.12.12h.612zm8.06.012c.2 0 .348-.004.444-.012.08 0 .12-.04.12-.12v-.492c0-.08-.04-.12-.12-.12h-.3c-.368 0-.638-.078-.81-.234-.172-.156-.258-.426-.258-.81v-3.54c0-.032.016-.048.048-.048h1.356c.08 0 .12-.04.12-.12v-.468c0-.08-.04-.12-.12-.12h-1.356c-.032 0-.048-.016-.048-.048V138.4c0-.08-.04-.12-.12-.12h-.588c-.08 0-.12.04-.12.12v1.392c0 .032-.016.048-.048.048h-.732c-.08 0-.12.04-.12.12v.468c0 .08.04.12.12.12h.732c.032 0 .048.016.048.048v3.804c0 .584.148.984.444 1.2.296.216.732.324 1.308.324zm7.972.084c.568 0 1.068-.112 1.5-.336a2.425 2.425 0 0 0 1.002-.942c.236-.404.354-.874.354-1.41v-5.688c0-.08-.04-.12-.12-.12h-.612c-.08 0-.12.04-.12.12v5.712c0 .568-.184 1.03-.552 1.386-.368.356-.852.534-1.452.534s-1.084-.178-1.452-.534c-.368-.356-.552-.818-.552-1.386v-5.712c0-.08-.04-.12-.12-.12h-.612c-.08 0-.12.04-.12.12v5.688c0 .536.12 1.006.36 1.41.24.404.576.718 1.008.942.432.224.928.336 1.488.336zm5.78-.096c.08 0 .12-.04.12-.12v-3.816c0-.44.136-.796.408-1.068.272-.272.628-.408 1.068-.408.424 0 .77.14 1.038.42.268.28.402.64.402 1.08v3.792c0 .08.04.12.12.12h.612c.08 0 .12-.04.12-.12v-3.96c0-.632-.19-1.136-.57-1.512-.38-.376-.89-.564-1.53-.564-.728 0-1.268.248-1.62.744-.008.016-.018.02-.03.012a.04.04 0 0 1-.018-.036v-.516c0-.08-.04-.12-.12-.12h-.612c-.08 0-.12.04-.12.12v5.832c0 .08.04.12.12.12h.612zm6.512-7.176a.651.651 0 0 0 .48-.192.651.651 0 0 0 .192-.48.646.646 0 0 0-.672-.672.646.646 0 0 0-.672.672c0 .192.064.352.192.48a.651.651 0 0 0 .48.192zm.276 7.164c.08 0 .12-.04.12-.12v-5.832c0-.08-.04-.12-.12-.12h-.612c-.08 0-.12.04-.12.12v5.832c0 .08.04.12.12.12h.612zm6.908 2.34c.08 0 .12-.04.12-.12v-8.16c0-.08-.04-.12-.12-.12h-.612c-.08 0-.12.04-.12.12v.504c0 .016-.006.026-.018.03-.012.004-.026-.002-.042-.018a1.819 1.819 0 0 0-.654-.54 1.943 1.943 0 0 0-.87-.192c-.56 0-1.03.144-1.41.432-.38.288-.642.68-.786 1.176-.112.36-.168.868-.168 1.524 0 .664.048 1.16.144 1.488.144.512.408.914.792 1.206.384.292.86.438 1.428.438.312 0 .6-.062.864-.186a1.75 1.75 0 0 0 .66-.534c.016-.016.03-.022.042-.018.012.004.018.014.018.03v2.82c0 .08.04.12.12.12h.612zm-2.22-2.976c-.32 0-.596-.08-.828-.24-.232-.16-.4-.372-.504-.636a2.088 2.088 0 0 1-.21-.594 4.939 4.939 0 0 1-.066-.918c0-.376.016-.67.048-.882.032-.212.088-.402.168-.57a1.31 1.31 0 0 1 .51-.684c.244-.168.534-.252.87-.252.32 0 .588.084.804.252.216.168.376.392.48.672.072.16.124.348.156.564.032.216.048.516.048.9s-.016.686-.048.906c-.032.22-.088.414-.168.582-.096.272-.254.49-.474.654-.22.164-.482.246-.786.246zm6.56.732c.728 0 1.26-.248 1.596-.744.008-.016.02-.02.036-.012.016.008.024.02.024.036v.516c0 .08.04.12.12.12h.612c.08 0 .12-.04.12-.12v-5.832c0-.08-.04-.12-.12-.12H449c-.08 0-.12.04-.12.12v3.804c0 .448-.134.808-.402 1.08s-.63.408-1.086.408c-.44 0-.788-.134-1.044-.402s-.384-.63-.384-1.086v-3.804c0-.08-.04-.12-.12-.12h-.612c-.08 0-.12.04-.12.12v4.056c0 .416.094.772.282 1.068.188.296.444.522.768.678.324.156.678.234 1.062.234zm6.908.024c.52 0 .98-.11 1.38-.33.4-.22.7-.522.9-.906.032-.072.016-.128-.048-.168l-.468-.276c-.064-.04-.12-.024-.168.048-.144.28-.344.496-.6.648a1.706 1.706 0 0 1-.888.228c-.448 0-.816-.104-1.104-.312a1.435 1.435 0 0 1-.564-.852c-.032-.128-.056-.412-.072-.852 0-.032.016-.048.048-.048h3.876c.08 0 .12-.04.12-.12v-.384c0-.336-.016-.616-.048-.84-.096-.672-.34-1.192-.732-1.56-.392-.368-.952-.552-1.68-.552-.584 0-1.082.156-1.494.468a2.223 2.223 0 0 0-.822 1.248 2.618 2.618 0 0 0-.09.57c-.012.212-.018.486-.018.822 0 .72.072 1.272.216 1.656.168.472.444.84.828 1.104.384.264.86.4 1.428.408zm1.524-3.54h-3.108c-.032 0-.048-.016-.048-.048.016-.376.048-.648.096-.816.08-.344.25-.618.51-.822.26-.204.586-.306.978-.306.408 0 .746.106 1.014.318.268.212.446.498.534.858.032.152.056.408.072.768 0 .032-.016.048-.048.048zm8.14 3.564c.632 0 1.186-.126 1.662-.378s.846-.61 1.11-1.074c.264-.464.396-.996.396-1.596v-2.568c0-.592-.132-1.116-.396-1.572a2.731 2.731 0 0 0-1.11-1.062c-.476-.252-1.03-.378-1.662-.378-.624 0-1.174.126-1.65.378a2.731 2.731 0 0 0-1.11 1.062c-.264.456-.396.98-.396 1.572v2.568c0 .6.132 1.13.396 1.59.264.46.634.818 1.11 1.074.476.256 1.026.384 1.65.384zm0-1.452c-.44 0-.794-.14-1.062-.42-.268-.28-.402-.652-.402-1.116v-2.64c0-.464.134-.838.402-1.122.268-.284.622-.426 1.062-.426.448 0 .806.142 1.074.426.268.284.402.658.402 1.122v2.64c0 .464-.136.836-.408 1.116-.272.28-.628.42-1.068.42zm6.104 1.32c.04 0 .074-.014.102-.042a.139.139 0 0 0 .042-.102v-3.276c0-.312.1-.562.3-.75.2-.188.444-.294.732-.318.112-.016.2-.024.264-.024.16 0 .3.02.42.06.104.04.16.012.168-.084l.252-1.368c.016-.088-.008-.148-.072-.18-.168-.112-.396-.168-.684-.168-.552 0-.992.24-1.32.72-.008.016-.02.02-.036.012-.016-.008-.024-.024-.024-.048v-.456a.139.139 0 0 0-.042-.102.139.139 0 0 0-.102-.042h-1.404a.139.139 0 0 0-.102.042.139.139 0 0 0-.042.102v5.88c0 .04.014.074.042.102a.139.139 0 0 0 .102.042h1.404zm5.468.096c.584 0 1.044-.22 1.38-.66.016-.016.032-.022.048-.018s.024.018.024.042v.396c0 .04.014.074.042.102a.139.139 0 0 0 .102.042h1.404c.04 0 .074-.014.102-.042a.139.139 0 0 0 .042-.102v-8.112a.139.139 0 0 0-.042-.102.139.139 0 0 0-.102-.042h-1.404a.139.139 0 0 0-.102.042.139.139 0 0 0-.042.102v2.568c0 .024-.008.04-.024.048s-.032 0-.048-.024c-.32-.4-.768-.6-1.344-.6-.584 0-1.074.15-1.47.45a2.58 2.58 0 0 0-.87 1.218c-.144.424-.216.92-.216 1.488 0 .552.068 1.036.204 1.452.176.544.466.972.87 1.284.404.312.886.468 1.446.468zm.36-1.452c-.392 0-.688-.172-.888-.516-.168-.32-.252-.72-.252-1.2 0-.536.1-.96.3-1.272.192-.312.476-.468.852-.468.352 0 .62.156.804.468.176.304.264.724.264 1.26 0 .512-.08.916-.24 1.212-.2.344-.48.516-.84.516zm7.148 1.452c.496 0 .952-.09 1.368-.27.416-.18.756-.434 1.02-.762.032-.048.048-.08.048-.096 0-.032-.02-.068-.06-.108l-.864-.852c-.032-.032-.06-.048-.084-.048-.04 0-.076.024-.108.072-.296.408-.7.616-1.212.624-.64 0-1.064-.224-1.272-.672a2.149 2.149 0 0 1-.132-.48c-.016-.04 0-.06.048-.06h3.708c.096 0 .148-.048.156-.144.016-.376 0-.716-.048-1.02-.104-.776-.398-1.396-.882-1.86-.484-.464-1.126-.696-1.926-.696-.632 0-1.178.168-1.638.504-.46.336-.782.788-.966 1.356-.12.336-.18.724-.18 1.164 0 .648.084 1.172.252 1.572.208.56.55.996 1.026 1.308.476.312 1.058.468 1.746.468zm.828-3.756h-2.076c-.04 0-.06-.02-.06-.06.024-.152.052-.28.084-.384.16-.472.492-.708.996-.708.264 0 .486.066.666.198.18.132.306.318.378.558 0-.008.02.104.06.336.016.04 0 .06-.048.06zm4.58 3.66c.04 0 .074-.014.102-.042a.139.139 0 0 0 .042-.102v-3.276c0-.312.1-.562.3-.75.2-.188.444-.294.732-.318.112-.016.2-.024.264-.024.16 0 .3.02.42.06.104.04.16.012.168-.084l.252-1.368c.016-.088-.008-.148-.072-.18-.168-.112-.396-.168-.684-.168-.552 0-.992.24-1.32.72-.008.016-.02.02-.036.012-.016-.008-.024-.024-.024-.048v-.456a.139.139 0 0 0-.042-.102.139.139 0 0 0-.102-.042h-1.404a.139.139 0 0 0-.102.042.139.139 0 0 0-.042.102v5.88c0 .04.014.074.042.102a.139.139 0 0 0 .102.042h1.404zm4.904 0c.04 0 .074-.014.102-.042a.139.139 0 0 0 .042-.102v-8.112a.139.139 0 0 0-.042-.102.139.139 0 0 0-.102-.042h-1.404a.139.139 0 0 0-.102.042.139.139 0 0 0-.042.102v8.112c0 .04.014.074.042.102a.139.139 0 0 0 .102.042h1.404zm4.952 0c.6 0 1.126-.106 1.578-.318.452-.212.802-.51 1.05-.894a2.4 2.4 0 0 0 .372-1.332v-3.312a2.4 2.4 0 0 0-.372-1.332 2.456 2.456 0 0 0-1.05-.894c-.452-.212-.978-.318-1.578-.318h-3a.139.139 0 0 0-.102.042.139.139 0 0 0-.042.102v8.112c0 .04.014.074.042.102a.139.139 0 0 0 .102.042h3zm.06-1.452h-1.452c-.04 0-.06-.02-.06-.06v-5.376c0-.04.02-.06.06-.06h1.44c.384 0 .69.124.918.372.228.248.342.58.342.996v2.76c-.008.416-.126.748-.354.996-.228.248-.526.372-.894.372z"/>
            <path d="M441.551 146.812v-.6H384.84v.6h56.712zm15.944 0v-.6h-13.892v.6h13.892zm2.58-.6v.6h40.352v-.6h-40.352z"/>
        </g>
        <path d="M379.315 116.912c.08 0 .132-.04.156-.12l2.508-8.112c.016-.048.012-.088-.012-.12s-.06-.048-.108-.048h-1.476c-.088 0-.144.04-.168.12l-1.572 5.856c-.008.024-.02.036-.036.036-.016 0-.028-.012-.036-.036l-1.596-5.856c-.024-.08-.08-.12-.168-.12h-1.512c-.088 0-.132.04-.132.12l.012.048 2.472 8.112c.024.08.076.12.156.12h1.512zm5.17.096c.745 0 1.285-.22 1.62-.66.017-.024.033-.032.049-.024s.024.024.024.048v.396c0 .04.014.074.042.102a.139.139 0 0 0 .102.042h1.404c.04 0 .074-.014.102-.042a.139.139 0 0 0 .042-.102V112.7c0-.384-.114-.732-.342-1.044-.228-.312-.546-.558-.954-.738a3.416 3.416 0 0 0-1.392-.27c-.48 0-.914.076-1.302.228-.388.152-.7.364-.936.636-.236.272-.37.576-.402.912-.008.056.036.092.132.108l1.452.192c.08.008.132-.032.156-.12a.616.616 0 0 1 .318-.372c.164-.088.37-.132.618-.132.32 0 .56.074.72.222.16.148.24.354.24.618v.264c0 .04-.02.06-.06.06h-1.224c-.8 0-1.416.17-1.848.51-.432.34-.648.818-.648 1.434 0 .592.192 1.04.576 1.344.384.304.888.456 1.512.456zm.457-1.26c-.256 0-.46-.062-.612-.186a.623.623 0 0 1-.228-.51c0-.248.102-.44.306-.576.204-.136.486-.204.846-.204h.864c.04 0 .06.02.06.06v.432c0 .288-.12.524-.36.708-.24.184-.532.276-.876.276zm6.178 1.164c.04 0 .074-.014.102-.042a.139.139 0 0 0 .042-.102v-8.112a.139.139 0 0 0-.042-.102.139.139 0 0 0-.102-.042h-1.404a.139.139 0 0 0-.102.042.139.139 0 0 0-.042.102v8.112c0 .04.014.074.042.102a.139.139 0 0 0 .102.042h1.404zm3.934.084c.672 0 1.168-.216 1.488-.648.016-.024.032-.034.048-.03.016.004.024.018.024.042v.408c0 .04.014.074.042.102a.139.139 0 0 0 .102.042h1.404c.04 0 .074-.014.102-.042a.139.139 0 0 0 .042-.102v-5.88a.139.139 0 0 0-.042-.102.139.139 0 0 0-.102-.042h-1.404a.139.139 0 0 0-.102.042.139.139 0 0 0-.042.102v3.78c-.04.264-.148.478-.324.642a.947.947 0 0 1-.672.246c-.304 0-.542-.1-.714-.3-.172-.2-.258-.46-.258-.78v-3.588a.139.139 0 0 0-.042-.102.139.139 0 0 0-.102-.042h-1.392a.139.139 0 0 0-.102.042.139.139 0 0 0-.042.102v4.008c0 .664.196 1.18.588 1.548.392.368.892.552 1.5.552zm7.907.012c.496 0 .952-.09 1.368-.27.416-.18.756-.434 1.02-.762.032-.048.048-.08.048-.096 0-.032-.02-.068-.06-.108l-.864-.852c-.032-.032-.06-.048-.084-.048-.04 0-.076.024-.108.072-.296.408-.7.616-1.212.624-.64 0-1.064-.224-1.272-.672a2.149 2.149 0 0 1-.132-.48c-.016-.04 0-.06.048-.06h3.708c.096 0 .148-.048.156-.144.016-.376 0-.716-.048-1.02-.104-.776-.398-1.396-.882-1.86-.484-.464-1.126-.696-1.926-.696-.632 0-1.178.168-1.638.504-.46.336-.782.788-.966 1.356-.12.336-.18.724-.18 1.164 0 .648.084 1.172.252 1.572.208.56.55.996 1.026 1.308.476.312 1.058.468 1.746.468zm.828-3.756h-2.076c-.04 0-.06-.02-.06-.06.024-.152.052-.28.084-.384.16-.472.492-.708.996-.708.264 0 .486.066.666.198.18.132.306.318.378.558 0-.008.02.104.06.336.016.04 0 .06-.048.06z" fill="#5F6368" fill-rule="nonzero"/>
        <g fill-rule="nonzero" fill="#5F6368">
            <use xlink:href="#a"/>
            <use xlink:href="#a"/>
        </g>
        <path fill="#86A2FF" opacity=".7" d="m131.858 144.132-13.388-26.22H31.82L18 144.154z"/>
        <path d="M62.17 135.008c.464 0 .872-.092 1.224-.276.352-.184.624-.44.816-.768.232-.384.348-.852.348-1.404 0-.456-.076-.848-.228-1.176a1.76 1.76 0 0 0-.876-.936c-.04-.016-.04-.036 0-.06a2.07 2.07 0 0 0 .636-.588c.24-.36.36-.76.36-1.2 0-.44-.116-.848-.348-1.224a1.976 1.976 0 0 0-.78-.726c-.328-.172-.712-.258-1.152-.258-.424 0-.806.086-1.146.258-.34.172-.606.414-.798.726-.24.368-.36.776-.36 1.224 0 .44.12.832.36 1.176.168.256.384.46.648.612.04.024.04.044 0 .06-.4.2-.692.5-.876.9a2.908 2.908 0 0 0-.252 1.2c0 .504.112.956.336 1.356.192.36.468.634.828.822.36.188.78.282 1.26.282zm-.012-4.92c-.264 0-.498-.052-.702-.156a1.267 1.267 0 0 1-.498-.456 1.524 1.524 0 0 1-.06-1.584 1.367 1.367 0 0 1 1.248-.756c.296 0 .552.066.768.198.216.132.384.31.504.534.12.216.18.456.18.72 0 .368-.076.66-.228.876-.128.2-.296.354-.504.462a1.514 1.514 0 0 1-.708.162zm.012 4.176c-.584 0-1.012-.22-1.284-.66-.176-.28-.264-.644-.264-1.092 0-.432.072-.776.216-1.032.248-.496.688-.744 1.32-.744.664 0 1.116.264 1.356.792.128.272.192.596.192.972 0 .456-.1.836-.3 1.14-.256.416-.668.624-1.236.624zm4.93 1.596c.073 0 .117-.036.133-.108l.672-2.568c.008-.04.002-.072-.018-.096-.02-.024-.05-.036-.09-.036h-.528c-.072 0-.116.036-.132.108l-.528 2.568c-.008.04-.002.072.018.096.02.024.05.036.09.036h.384zm5.35-.828c.777 0 1.397-.22 1.86-.66.465-.44.697-1.028.697-1.764v-3.792c0-.728-.232-1.312-.696-1.752-.464-.44-1.084-.66-1.86-.66-.768 0-1.38.218-1.836.654-.456.436-.684 1.022-.684 1.758v3.792c0 .736.228 1.324.684 1.764.456.44 1.068.66 1.836.66zm0-.744c-.503 0-.907-.148-1.211-.444-.304-.296-.456-.692-.456-1.188v-3.876c0-.488.152-.88.456-1.176.304-.296.708-.444 1.212-.444.52 0 .934.148 1.242.444.308.296.462.688.462 1.176v3.876c0 .496-.156.892-.468 1.188-.312.296-.724.444-1.236.444zm7.295.744c.776 0 1.396-.22 1.86-.66.464-.44.696-1.028.696-1.764v-3.792c0-.728-.232-1.312-.696-1.752-.464-.44-1.084-.66-1.86-.66-.768 0-1.38.218-1.836.654-.456.436-.684 1.022-.684 1.758v3.792c0 .736.228 1.324.684 1.764.456.44 1.068.66 1.836.66zm0-.744c-.504 0-.908-.148-1.212-.444-.304-.296-.456-.692-.456-1.188v-3.876c0-.488.152-.88.456-1.176.304-.296.708-.444 1.212-.444.52 0 .934.148 1.242.444.308.296.462.688.462 1.176v3.876c0 .496-.156.892-.468 1.188-.312.296-.724.444-1.236.444zm7.294.744c.776 0 1.396-.22 1.86-.66.464-.44.696-1.028.696-1.764v-3.792c0-.728-.232-1.312-.696-1.752-.464-.44-1.084-.66-1.86-.66-.768 0-1.38.218-1.836.654-.456.436-.684 1.022-.684 1.758v3.792c0 .736.228 1.324.684 1.764.456.44 1.068.66 1.836.66zm0-.744c-.504 0-.908-.148-1.212-.444-.304-.296-.456-.692-.456-1.188v-3.876c0-.488.152-.88.456-1.176.304-.296.708-.444 1.212-.444.52 0 .934.148 1.242.444.308.296.462.688.462 1.176v3.876c0 .496-.156.892-.468 1.188-.312.296-.724.444-1.236.444z" fill="#FFF" fill-rule="nonzero" opacity=".5"/>
        <path fill="#597FFF" opacity=".7" d="M17.982 143.912 0 178.055h149.169l-17.416-34.11z"/>
        <path d="M60.381 165.912c.08 0 .12-.04.12-.12v-8.16c0-.08-.04-.12-.12-.12h-.648a.344.344 0 0 0-.156.036l-1.38.732c-.056.04-.084.08-.084.12v.024l.06.456c.016.064.048.096.096.096l.048-.012 1.272-.516c.016-.008.03-.008.042 0a.04.04 0 0 1 .018.036v7.308c0 .08.04.12.12.12h.612zm5.122.12c.776 0 1.396-.22 1.86-.66.464-.44.696-1.028.696-1.764v-3.792c0-.728-.232-1.312-.696-1.752-.464-.44-1.084-.66-1.86-.66-.768 0-1.38.218-1.836.654-.456.436-.684 1.022-.684 1.758v3.792c0 .736.228 1.324.684 1.764.456.44 1.068.66 1.836.66zm0-.744c-.504 0-.908-.148-1.212-.444-.304-.296-.456-.692-.456-1.188v-3.876c0-.488.152-.88.456-1.176.304-.296.708-.444 1.212-.444.52 0 .934.148 1.242.444.308.296.462.688.462 1.176v3.876c0 .496-.156.892-.468 1.188-.312.296-.724.444-1.236.444zm5.219 1.572c.072 0 .116-.036.132-.108l.672-2.568c.008-.04.002-.072-.018-.096-.02-.024-.05-.036-.09-.036h-.528c-.072 0-.116.036-.132.108l-.528 2.568c-.008.04-.002.072.018.096.02.024.05.036.09.036h.384zm5.35-.828c.776 0 1.396-.22 1.86-.66.464-.44.696-1.028.696-1.764v-3.792c0-.728-.232-1.312-.696-1.752-.464-.44-1.084-.66-1.86-.66-.768 0-1.38.218-1.836.654-.456.436-.684 1.022-.684 1.758v3.792c0 .736.228 1.324.684 1.764.456.44 1.068.66 1.836.66zm0-.744c-.504 0-.908-.148-1.212-.444-.304-.296-.456-.692-.456-1.188v-3.876c0-.488.152-.88.456-1.176.304-.296.708-.444 1.212-.444.52 0 .934.148 1.242.444.308.296.462.688.462 1.176v3.876c0 .496-.156.892-.468 1.188-.312.296-.724.444-1.236.444zm7.294.744c.776 0 1.396-.22 1.86-.66.464-.44.696-1.028.696-1.764v-3.792c0-.728-.232-1.312-.696-1.752-.464-.44-1.084-.66-1.86-.66-.768 0-1.38.218-1.836.654-.456.436-.684 1.022-.684 1.758v3.792c0 .736.228 1.324.684 1.764.456.44 1.068.66 1.836.66zm0-.744c-.504 0-.908-.148-1.212-.444-.304-.296-.456-.692-.456-1.188v-3.876c0-.488.152-.88.456-1.176.304-.296.708-.444 1.212-.444.52 0 .934.148 1.242.444.308.296.462.688.462 1.176v3.876c0 .496-.156.892-.468 1.188-.312.296-.724.444-1.236.444zm7.295.744c.776 0 1.396-.22 1.86-.66.464-.44.696-1.028.696-1.764v-3.792c0-.728-.232-1.312-.696-1.752-.464-.44-1.084-.66-1.86-.66-.768 0-1.38.218-1.836.654-.456.436-.684 1.022-.684 1.758v3.792c0 .736.228 1.324.684 1.764.456.44 1.068.66 1.836.66zm0-.744c-.504 0-.908-.148-1.212-.444-.304-.296-.456-.692-.456-1.188v-3.876c0-.488.152-.88.456-1.176.304-.296.708-.444 1.212-.444.52 0 .934.148 1.242.444.308.296.462.688.462 1.176v3.876c0 .496-.156.892-.468 1.188-.312.296-.724.444-1.236.444z" fill="#FFF" fill-rule="nonzero" opacity=".5"/>
        <path fill="#B3C4FF" opacity=".7" d="m118.47 117.912-19.605-38-47.472.058-19.572 37.942z"/>
        <path d="M63.13 103.912c.08 0 .12-.04.12-.12v-8.16c0-.08-.04-.12-.12-.12h-.648a.344.344 0 0 0-.156.036l-1.38.732c-.056.04-.084.08-.084.12v.024l.06.456c.016.064.048.096.096.096l.048-.012 1.272-.516c.016-.008.03-.008.042 0a.04.04 0 0 1 .018.036v7.308c0 .08.04.12.12.12h.612zm3.047.948c.072 0 .116-.036.132-.108l.672-2.568c.008-.04.002-.072-.018-.096-.02-.024-.05-.036-.09-.036h-.528c-.072 0-.116.036-.132.108l-.528 2.568c-.008.04-.002.072.018.096.02.024.05.036.09.036h.384zm5.554-.864c.576 0 1.068-.15 1.476-.45.408-.3.68-.706.816-1.218.072-.28.108-.616.108-1.008 0-.368-.036-.728-.108-1.08-.112-.504-.364-.894-.756-1.17-.392-.276-.872-.414-1.44-.414-.304 0-.592.05-.864.15-.272.1-.508.242-.708.426-.016.016-.03.02-.042.012a.04.04 0 0 1-.018-.036l.012-2.904c0-.032.016-.048.048-.048h3.42c.08 0 .12-.04.12-.12v-.504c0-.08-.04-.12-.12-.12h-4.2c-.08 0-.12.04-.12.12v4.644c0 .08.04.12.12.12h.648c.064 0 .108-.036.132-.108.08-.264.26-.476.54-.636.28-.16.596-.24.948-.24.392 0 .72.096.984.288.264.192.424.472.48.84.04.248.06.508.06.78 0 .296-.024.536-.072.72-.08.376-.25.672-.51.888-.26.216-.582.324-.966.324-.376 0-.69-.102-.942-.306a1.442 1.442 0 0 1-.498-.822 1.017 1.017 0 0 1-.048-.24c-.008-.08-.052-.12-.132-.12h-.636c-.072 0-.108.032-.108.096v.024c.016.176.052.352.108.528.144.48.416.864.816 1.152.4.288.884.432 1.452.432zm6.886.036c.776 0 1.396-.22 1.86-.66.464-.44.696-1.028.696-1.764v-3.792c0-.728-.232-1.312-.696-1.752-.464-.44-1.084-.66-1.86-.66-.768 0-1.38.218-1.836.654-.456.436-.684 1.022-.684 1.758v3.792c0 .736.228 1.324.684 1.764.456.44 1.068.66 1.836.66zm0-.744c-.504 0-.908-.148-1.212-.444-.304-.296-.456-.692-.456-1.188V97.78c0-.488.152-.88.456-1.176.304-.296.708-.444 1.212-.444.52 0 .934.148 1.242.444.308.296.462.688.462 1.176v3.876c0 .496-.156.892-.468 1.188-.312.296-.724.444-1.236.444zm7.294.744c.776 0 1.396-.22 1.86-.66.464-.44.696-1.028.696-1.764v-3.792c0-.728-.232-1.312-.696-1.752-.464-.44-1.084-.66-1.86-.66-.768 0-1.38.218-1.836.654-.456.436-.684 1.022-.684 1.758v3.792c0 .736.228 1.324.684 1.764.456.44 1.068.66 1.836.66zm0-.744c-.504 0-.908-.148-1.212-.444-.304-.296-.456-.692-.456-1.188V97.78c0-.488.152-.88.456-1.176.304-.296.708-.444 1.212-.444.52 0 .934.148 1.242.444.308.296.462.688.462 1.176v3.876c0 .496-.156.892-.468 1.188-.312.296-.724.444-1.236.444z" fill="#FFF" fill-rule="nonzero" opacity=".5"/>
        <path fill="#C8D5FF" opacity=".7" d="M98.805 79.97 75.39 33.912 51.393 79.97z"/>
        <path d="M67.563 74.996c.552 0 1.012-.128 1.38-.384.368-.256.636-.616.804-1.08.128-.304.192-.704.192-1.2 0-.552-.084-1.008-.252-1.368a2.096 2.096 0 0 0-.774-.948c-.34-.224-.762-.336-1.266-.336-.712 0-1.244.24-1.596.72-.008.016-.02.022-.036.018-.016-.004-.024-.014-.024-.03v-1.764c0-.44.14-.794.42-1.062.28-.268.636-.402 1.068-.402.416 0 .756.128 1.02.384s.396.588.396.996v.096c0 .08.04.12.12.12h.612c.08 0 .12-.04.12-.12v-.168c0-.616-.208-1.112-.624-1.488-.416-.376-.964-.564-1.644-.564-.696 0-1.26.194-1.692.582-.432.388-.648.91-.648 1.566v3.744c0 .432.048.808.144 1.128.16.496.436.88.828 1.152.392.272.876.408 1.452.408zm-.024-.744c-.368 0-.674-.092-.918-.276a1.432 1.432 0 0 1-.51-.732c-.08-.232-.12-.524-.12-.876 0-.4.048-.724.144-.972a1.35 1.35 0 0 1 .504-.714c.24-.172.536-.258.888-.258s.648.084.888.252c.24.168.408.4.504.696.112.224.168.544.168.96 0 .36-.048.664-.144.912-.096.328-.268.578-.516.75a1.52 1.52 0 0 1-.888.258zm6.886.78c.776 0 1.396-.22 1.86-.66.464-.44.696-1.028.696-1.764v-3.792c0-.728-.232-1.312-.696-1.752-.464-.44-1.084-.66-1.86-.66-.768 0-1.38.218-1.836.654-.456.436-.684 1.022-.684 1.758v3.792c0 .736.228 1.324.684 1.764.456.44 1.068.66 1.836.66zm0-.744c-.504 0-.908-.148-1.212-.444-.304-.296-.456-.692-.456-1.188V68.78c0-.488.152-.88.456-1.176.304-.296.708-.444 1.212-.444.52 0 .934.148 1.242.444.308.296.462.688.462 1.176v3.876c0 .496-.156.892-.468 1.188-.312.296-.724.444-1.236.444zm7.294.744c.776 0 1.396-.22 1.86-.66.464-.44.696-1.028.696-1.764v-3.792c0-.728-.232-1.312-.696-1.752-.464-.44-1.084-.66-1.86-.66-.768 0-1.38.218-1.836.654-.456.436-.684 1.022-.684 1.758v3.792c0 .736.228 1.324.684 1.764.456.44 1.068.66 1.836.66zm0-.744c-.504 0-.908-.148-1.212-.444-.304-.296-.456-.692-.456-1.188V68.78c0-.488.152-.88.456-1.176.304-.296.708-.444 1.212-.444.52 0 .934.148 1.242.444.308.296.462.688.462 1.176v3.876c0 .496-.156.892-.468 1.188-.312.296-.724.444-1.236.444z" fill="#FFF" fill-rule="nonzero" opacity=".5"/>
        <g fill-rule="nonzero" fill="#5F6368" transform="translate(0 33.912)">
            <use xlink:href="#b"/>
            <use xlink:href="#b"/>
        </g>
    </g>
</svg>
