<svg width="541" height="240" xmlns="http://www.w3.org/2000/svg" xmlns:xlink="http://www.w3.org/1999/xlink">
    <defs>
        <path d="M134.788 46.282c.924 0 1.737-.174 2.44-.522a3.911 3.911 0 0 0 1.637-1.476c.39-.636.585-1.368.585-2.196a.162.162 0 0 0-.063-.126.227.227 0 0 0-.153-.054l-2.106-.09c-.144 0-.216.066-.216.198 0 .624-.195 1.128-.585 1.512-.39.384-.903.576-1.539.576-.648 0-1.167-.192-1.557-.576-.39-.384-.585-.888-.585-1.512v-4.338c0-.636.195-1.146.585-1.53.39-.384.91-.576 1.557-.576.636 0 1.15.192 1.54.576.39.384.584.894.584 1.53 0 .132.06.198.18.198h.036l2.106-.126c.144-.024.216-.09.216-.198 0-.828-.195-1.557-.585-2.187a3.872 3.872 0 0 0-1.638-1.458c-.702-.342-1.515-.513-2.439-.513-.936 0-1.758.18-2.466.54-.708.36-1.254.87-1.638 1.53-.384.66-.576 1.422-.576 2.286v4.158c0 .864.192 1.626.576 2.286.384.66.93 1.173 1.638 1.539.708.366 1.53.549 2.466.549zm10.931 0c.744 0 1.428-.135 2.052-.405a3.926 3.926 0 0 0 1.53-1.143c.048-.072.072-.12.072-.144 0-.048-.03-.102-.09-.162l-1.296-1.278c-.048-.048-.09-.072-.126-.072-.06 0-.114.036-.162.108-.444.612-1.05.924-1.818.936-.96 0-1.596-.336-1.908-1.008a3.223 3.223 0 0 1-.198-.72c-.024-.06 0-.09.072-.09h5.562c.144 0 .222-.072.234-.216.024-.564 0-1.074-.072-1.53-.156-1.164-.597-2.094-1.323-2.79-.726-.696-1.689-1.044-2.889-1.044-.948 0-1.767.252-2.457.756s-1.173 1.182-1.449 2.034c-.18.504-.27 1.086-.27 1.746 0 .972.126 1.758.378 2.358.312.84.825 1.494 1.54 1.962.713.468 1.586.702 2.618.702zm1.242-5.634h-3.114c-.06 0-.09-.03-.09-.09.036-.228.078-.42.126-.576.24-.708.738-1.062 1.494-1.062.396 0 .73.099 1 .297.27.198.458.477.566.837 0-.012.03.156.09.504.024.06 0 .09-.072.09zm6.828 5.49c.06 0 .11-.021.153-.063a.208.208 0 0 0 .063-.153V40.54c0-.48.135-.87.405-1.17.27-.3.627-.45 1.07-.45.445 0 .802.15 1.072.45.27.3.405.69.405 1.17v5.382c0 .06.02.11.063.153a.208.208 0 0 0 .153.063h2.106c.06 0 .11-.021.153-.063a.208.208 0 0 0 .063-.153v-5.904c0-1.008-.294-1.806-.882-2.394-.588-.588-1.362-.882-2.322-.882-.972 0-1.704.348-2.196 1.044-.012.024-.03.03-.054.018s-.036-.036-.036-.072v-.63a.208.208 0 0 0-.063-.153.208.208 0 0 0-.153-.063h-2.106a.208.208 0 0 0-.153.063.208.208 0 0 0-.063.153v8.82c0 .06.02.11.063.153a.208.208 0 0 0 .153.063h2.106zm11.597.054c.216 0 .576-.012 1.08-.036.144-.024.216-.102.216-.234v-1.71a.208.208 0 0 0-.063-.153.208.208 0 0 0-.153-.063h-.594c-.36 0-.621-.096-.783-.288-.162-.192-.243-.486-.243-.882V39.01c0-.06.03-.09.09-.09h1.728c.06 0 .11-.021.153-.063a.208.208 0 0 0 .063-.153v-1.602a.208.208 0 0 0-.063-.153.208.208 0 0 0-.153-.063h-1.728c-.06 0-.09-.03-.09-.09v-2.142a.208.208 0 0 0-.063-.153.208.208 0 0 0-.153-.063h-2.016a.208.208 0 0 0-.153.063.208.208 0 0 0-.063.153v2.142c0 .06-.03.09-.09.09h-1.026a.208.208 0 0 0-.153.063.208.208 0 0 0-.063.153v1.602c0 .06.02.11.063.153a.208.208 0 0 0 .153.063h1.026c.06 0 .09.03.09.09v4.824c.012.912.264 1.533.756 1.863.492.33 1.236.495 2.232.495zm5.603-.054c.06 0 .11-.021.153-.063a.208.208 0 0 0 .063-.153v-4.914c0-.468.15-.843.45-1.125.3-.282.666-.441 1.098-.477.168-.024.3-.036.396-.036.24 0 .45.03.63.09.156.06.24.018.252-.126l.378-2.052c.024-.132-.012-.222-.108-.27-.252-.168-.594-.252-1.026-.252-.828 0-1.488.36-1.98 1.08-.012.024-.03.03-.054.018s-.036-.036-.036-.072v-.684a.208.208 0 0 0-.063-.153.208.208 0 0 0-.153-.063h-2.106a.208.208 0 0 0-.153.063.208.208 0 0 0-.063.153v8.82c0 .06.02.11.063.153a.208.208 0 0 0 .153.063h2.106zm7.367.144c1.116 0 1.926-.33 2.43-.99.024-.036.048-.048.072-.036.024.012.036.036.036.072v.594c0 .06.021.11.063.153a.208.208 0 0 0 .153.063h2.106c.06 0 .111-.021.153-.063a.208.208 0 0 0 .063-.153V39.82c0-.576-.171-1.098-.513-1.566-.342-.468-.819-.837-1.431-1.107-.612-.27-1.308-.405-2.088-.405-.72 0-1.371.114-1.953.342-.582.228-1.05.546-1.404.954a2.397 2.397 0 0 0-.603 1.368c-.012.084.054.138.198.162l2.178.288c.12.012.198-.048.234-.18a.924.924 0 0 1 .477-.558c.246-.132.555-.198.927-.198.48 0 .84.11 1.08.333.24.222.36.53.36.927v.396c0 .06-.03.09-.09.09h-1.836c-1.2 0-2.124.255-2.772.765-.648.51-.972 1.227-.972 2.15 0 .889.288 1.56.864 2.017.576.456 1.332.684 2.268.684zm.684-1.89c-.384 0-.69-.093-.918-.28-.228-.185-.342-.44-.342-.764a.98.98 0 0 1 .459-.864c.306-.204.729-.306 1.269-.306h1.296c.06 0 .09.03.09.09v.648c0 .432-.18.786-.54 1.062-.36.276-.798.414-1.314.414zm8.753 1.746c.06 0 .111-.021.153-.063a.208.208 0 0 0 .063-.153V33.754a.208.208 0 0 0-.063-.153.208.208 0 0 0-.153-.063h-2.106a.208.208 0 0 0-.153.063.208.208 0 0 0-.063.153v12.168c0 .06.021.11.063.153a.208.208 0 0 0 .153.063h2.106zm8.218 0c.12 0 .198-.06.234-.18l.522-1.764c.024-.048.054-.072.09-.072h4.428c.036 0 .066.024.09.072l.54 1.764c.036.12.114.18.234.18h2.286c.132 0 .198-.054.198-.162a.2.2 0 0 0-.018-.09l-3.888-12.168c-.036-.12-.114-.18-.234-.18h-2.826c-.12 0-.198.06-.234.18l-3.888 12.168c-.024.084-.018.147.018.189.036.042.09.063.162.063h2.286zm4.644-3.978h-3.168c-.06 0-.084-.036-.072-.108L199 36.706c.012-.036.03-.057.054-.063.024-.006.042.015.054.063l1.62 5.346c.024.072 0 .108-.072.108zm7.98 3.978c.06 0 .11-.021.153-.063a.208.208 0 0 0 .063-.153v-5.706c.048-.408.2-.726.459-.954.258-.228.579-.342.963-.342.42 0 .762.147 1.026.44.264.295.396.682.396 1.162v5.4c0 .06.02.11.063.153a.208.208 0 0 0 .153.063h2.088c.06 0 .11-.021.153-.063a.208.208 0 0 0 .063-.153v-5.418c0-.48.132-.864.396-1.152.264-.288.606-.432 1.026-.432.42 0 .756.144 1.008.432.252.288.378.678.378 1.17v5.4c0 .06.02.11.063.153a.208.208 0 0 0 .153.063h2.106c.06 0 .11-.021.153-.063a.208.208 0 0 0 .063-.153v-5.958c0-1.02-.264-1.812-.792-2.376-.528-.564-1.26-.846-2.196-.846-.564 0-1.071.12-1.521.36-.45.24-.807.606-1.071 1.098-.048.072-.09.072-.126 0a2.534 2.534 0 0 0-1.035-1.08c-.45-.252-.975-.378-1.575-.378-1.032 0-1.794.366-2.286 1.098-.024.036-.048.048-.072.036-.024-.012-.036-.036-.036-.072v-.702a.208.208 0 0 0-.063-.153.208.208 0 0 0-.153-.063h-2.106a.208.208 0 0 0-.153.063.208.208 0 0 0-.063.153v8.82c0 .06.02.11.063.153a.208.208 0 0 0 .153.063h2.106zm17.249.144c.744 0 1.428-.135 2.052-.405a3.926 3.926 0 0 0 1.53-1.143c.048-.072.072-.12.072-.144 0-.048-.03-.102-.09-.162l-1.296-1.278c-.048-.048-.09-.072-.126-.072-.06 0-.114.036-.162.108-.444.612-1.05.924-1.818.936-.96 0-1.596-.336-1.908-1.008a3.223 3.223 0 0 1-.198-.72c-.024-.06 0-.09.072-.09h5.562c.144 0 .222-.072.234-.216.024-.564 0-1.074-.072-1.53-.156-1.164-.597-2.094-1.323-2.79-.726-.696-1.69-1.044-2.89-1.044-.947 0-1.766.252-2.456.756s-1.173 1.182-1.45 2.034c-.18.504-.27 1.086-.27 1.746 0 .972.127 1.758.379 2.358.312.84.825 1.494 1.539 1.962.714.468 1.587.702 2.619.702zm1.242-5.634h-3.114c-.06 0-.09-.03-.09-.09.036-.228.078-.42.126-.576.24-.708.738-1.062 1.494-1.062.396 0 .729.099.999.297.27.198.459.477.567.837 0-.012.03.156.09.504.024.06 0 .09-.072.09zm6.827 5.49c.06 0 .11-.021.153-.063a.208.208 0 0 0 .063-.153v-4.914c0-.468.15-.843.45-1.125.3-.282.666-.441 1.098-.477.168-.024.3-.036.396-.036.24 0 .45.03.63.09.156.06.24.018.252-.126l.378-2.052c.024-.132-.012-.222-.108-.27-.252-.168-.594-.252-1.026-.252-.828 0-1.488.36-1.98 1.08-.012.024-.03.03-.054.018s-.036-.036-.036-.072v-.684a.208.208 0 0 0-.063-.153.208.208 0 0 0-.153-.063h-2.106a.208.208 0 0 0-.153.063.208.208 0 0 0-.063.153v8.82c0 .06.02.11.063.153a.208.208 0 0 0 .153.063h2.106zm6.197-10.296a1.38 1.38 0 0 0 1.017-.405c.27-.27.405-.61.405-1.017 0-.42-.132-.762-.396-1.026s-.606-.396-1.026-.396c-.42 0-.762.132-1.026.396s-.396.606-.396 1.026c0 .408.135.747.405 1.017.27.27.609.405 1.017.405zm1.026 10.296c.06 0 .111-.021.153-.063a.208.208 0 0 0 .063-.153v-8.838a.208.208 0 0 0-.063-.153.208.208 0 0 0-.153-.063h-2.106a.208.208 0 0 0-.153.063.208.208 0 0 0-.063.153v8.838c0 .06.021.11.063.153a.208.208 0 0 0 .153.063h2.106zm6.521.144c.948 0 1.785-.228 2.511-.684a3.356 3.356 0 0 0 1.467-1.89c.072-.264.108-.444.108-.54 0-.108-.06-.174-.18-.198l-2.07-.324c-.156-.024-.24.036-.252.18 0 .024-.006.042-.018.054a.25.25 0 0 1-.018.108 1.519 1.519 0 0 1-.585.819 1.664 1.664 0 0 1-.98.297c-.385 0-.712-.102-.982-.306a1.602 1.602 0 0 1-.567-.846c-.12-.36-.18-.852-.18-1.476s.066-1.116.198-1.476c.108-.336.294-.6.558-.792.264-.192.588-.288.972-.288.396 0 .738.102 1.026.306.288.204.474.462.558.774l.054.288c.036.12.108.18.216.18h.036l2.07-.306c.12-.024.18-.09.18-.198v-.036c0-.144-.048-.36-.144-.648-.24-.732-.723-1.338-1.449-1.818-.726-.48-1.569-.72-2.529-.72s-1.794.234-2.502.702a3.735 3.735 0 0 0-1.494 1.926c-.204.588-.306 1.284-.306 2.088 0 .816.102 1.524.306 2.124.3.84.801 1.5 1.503 1.98.702.48 1.533.72 2.493.72zm8.501 0c1.116 0 1.926-.33 2.43-.99.024-.036.048-.048.072-.036.024.012.036.036.036.072v.594c0 .06.021.11.063.153a.208.208 0 0 0 .153.063h2.106c.06 0 .111-.021.153-.063a.208.208 0 0 0 .063-.153V39.82c0-.576-.17-1.098-.513-1.566-.342-.468-.819-.837-1.43-1.107-.613-.27-1.309-.405-2.089-.405-.72 0-1.37.114-1.953.342-.582.228-1.05.546-1.404.954a2.397 2.397 0 0 0-.603 1.368c-.012.084.054.138.198.162l2.178.288c.12.012.198-.048.234-.18a.924.924 0 0 1 .477-.558c.246-.132.555-.198.927-.198.48 0 .84.11 1.08.333.24.222.36.53.36.927v.396c0 .06-.03.09-.09.09h-1.836c-1.2 0-2.124.255-2.772.765-.648.51-.972 1.227-.972 2.15 0 .889.288 1.56.864 2.017.576.456 1.332.684 2.268.684zm.684-1.89c-.384 0-.69-.093-.918-.28-.228-.185-.342-.44-.342-.764a.98.98 0 0 1 .46-.864c.305-.204.728-.306 1.268-.306h1.296c.06 0 .09.03.09.09v.648c0 .432-.18.786-.54 1.062-.36.276-.798.414-1.314.414z" id="a"/>
        <path d="M303.262 73.127v.5h-5.754l-.187 21.5h5.941v.5h-5.945v.013l-.5-.004v-.01l-5.848.001v-.5h5.852l.187-21.5h-6.04v-.5h12.294zm-25-40v.5h-5.897v5.88h70.637v40.38h17.18l-5.168-2.906.245-.436 6 3.375.387.218-.387.218-6 3.375-.245-.436 5.168-2.907h-17.68V40.007h-70.137v6.12h5.897v.5H265.97v-.5h5.896v-12.5h-5.896v-.5h12.293zm76.992-30.074 6.005 3.366.387.217-.387.219-5.995 3.384-.246-.436 5.164-2.915-5.044.008-337.828.492v-.5l337.827-.492 5.044-.007-5.172-2.9.245-.436z" id="b"/>
    </defs>
    <g fill-rule="nonzero" fill="none">
        <path d="M26.292 95.378c2.36 0 4.23-.545 5.61-1.635 1.38-1.09 2.07-2.575 2.07-4.455 0-1.26-.325-2.285-.975-3.075-.65-.79-1.38-1.385-2.19-1.785-.81-.4-1.925-.86-3.345-1.38-1.28-.46-2.225-.825-2.835-1.095-.61-.27-1.07-.575-1.38-.915-.31-.34-.465-.76-.465-1.26 0-.7.265-1.25.795-1.65.53-.4 1.265-.6 2.205-.6 1.2 0 2.145.295 2.835.885.69.59 1.035 1.305 1.035 2.145v.24c0 .1.035.185.105.255.07.07.155.105.255.105h3.45c.1 0 .185-.035.255-.105a.347.347 0 0 0 .105-.255v-.45c0-1.28-.335-2.405-1.005-3.375-.67-.97-1.6-1.725-2.79-2.265s-2.545-.81-4.065-.81c-1.44 0-2.71.24-3.81.72s-1.96 1.17-2.58 2.07c-.62.9-.93 1.95-.93 3.15 0 1.22.315 2.245.945 3.075.63.83 1.41 1.485 2.34 1.965.93.48 2.065.95 3.405 1.41 1.2.44 2.075.785 2.625 1.035.55.25.985.54 1.305.87.32.33.48.735.48 1.215 0 .66-.26 1.215-.78 1.665-.52.45-1.31.675-2.37.675-1.26 0-2.26-.275-3-.825-.74-.55-1.11-1.225-1.11-2.025v-.45c0-.1-.035-.185-.105-.255a.347.347 0 0 0-.255-.105h-3.42c-.1 0-.185.035-.255.105a.347.347 0 0 0-.105.255v.66c0 1.26.325 2.365.975 3.315.65.95 1.575 1.68 2.775 2.19s2.6.765 4.2.765zm15.909-.03c1.68 0 2.92-.54 3.72-1.62.04-.06.08-.085.12-.075.04.01.06.045.06.105v1.02c0 .1.035.185.105.255.07.07.155.105.255.105h3.51c.1 0 .185-.035.255-.105a.347.347 0 0 0 .105-.255v-14.7c0-.1-.035-.185-.105-.255a.347.347 0 0 0-.255-.105h-3.51c-.1 0-.185.035-.255.105a.347.347 0 0 0-.105.255v9.45c-.1.66-.37 1.195-.81 1.605-.44.41-1 .615-1.68.615-.76 0-1.355-.25-1.785-.75-.43-.5-.645-1.15-.645-1.95v-8.97c0-.1-.035-.185-.105-.255a.347.347 0 0 0-.255-.105h-3.48c-.1 0-.185.035-.255.105a.347.347 0 0 0-.105.255v10.02c0 1.66.49 2.95 1.47 3.87.98.92 2.23 1.38 3.75 1.38zm19.598.03c1.38 0 2.575-.39 3.585-1.17 1.01-.78 1.745-1.85 2.205-3.21.34-1.04.51-2.25.51-3.63 0-1.44-.19-2.68-.57-3.72-.46-1.28-1.185-2.295-2.175-3.045-.99-.75-2.215-1.125-3.675-1.125-1.44 0-2.55.5-3.33 1.5-.04.06-.08.08-.12.06-.04-.02-.06-.06-.06-.12v-6.42c0-.1-.035-.185-.105-.255a.347.347 0 0 0-.255-.105H54.3c-.1 0-.185.035-.255.105a.347.347 0 0 0-.105.255v20.28c0 .1.035.185.105.255.07.07.155.105.255.105h3.51c.1 0 .185-.035.255-.105a.347.347 0 0 0 .105-.255v-.99c0-.06.02-.095.06-.105.04-.01.08.005.12.045.84 1.1 1.99 1.65 3.45 1.65zm-.9-3.63c-.92 0-1.62-.43-2.1-1.29-.4-.68-.6-1.69-.6-3.03 0-1.34.22-2.39.66-3.15.46-.78 1.13-1.17 2.01-1.17.94 0 1.65.39 2.13 1.17.48.74.72 1.8.72 3.18 0 1.24-.21 2.24-.63 3-.48.86-1.21 1.29-2.19 1.29zm19.779-3.66c.1 0 .185-.035.255-.105a.347.347 0 0 0 .105-.255v-2.91c0-.1-.035-.185-.105-.255a.347.347 0 0 0-.255-.105h-9.81c-.1 0-.185.035-.255.105a.347.347 0 0 0-.105.255v2.91c0 .1.035.185.105.255.07.07.155.105.255.105h9.81zm10.689 7.29c2.36 0 4.23-.545 5.61-1.635 1.38-1.09 2.07-2.575 2.07-4.455 0-1.26-.325-2.285-.975-3.075-.65-.79-1.38-1.385-2.19-1.785-.81-.4-1.925-.86-3.345-1.38-1.28-.46-2.225-.825-2.835-1.095-.61-.27-1.07-.575-1.38-.915-.31-.34-.465-.76-.465-1.26 0-.7.265-1.25.795-1.65.53-.4 1.265-.6 2.205-.6 1.2 0 2.145.295 2.835.885.69.59 1.035 1.305 1.035 2.145v.24c0 .1.035.185.105.255.07.07.155.105.255.105h3.45c.1 0 .185-.035.255-.105a.347.347 0 0 0 .105-.255v-.45c0-1.28-.335-2.405-1.005-3.375-.67-.97-1.6-1.725-2.79-2.265s-2.545-.81-4.065-.81c-1.44 0-2.71.24-3.81.72s-1.96 1.17-2.58 2.07c-.62.9-.93 1.95-.93 3.15 0 1.22.315 2.245.945 3.075.63.83 1.41 1.485 2.34 1.965.93.48 2.065.95 3.405 1.41 1.2.44 2.075.785 2.625 1.035.55.25.985.54 1.305.87.32.33.48.735.48 1.215 0 .66-.26 1.215-.78 1.665-.52.45-1.31.675-2.37.675-1.26 0-2.26-.275-3-.825-.74-.55-1.11-1.225-1.11-2.025v-.45c0-.1-.035-.185-.105-.255a.347.347 0 0 0-.255-.105h-3.42c-.1 0-.185.035-.255.105a.347.347 0 0 0-.105.255v.66c0 1.26.325 2.365.975 3.315.65.95 1.575 1.68 2.775 2.19s2.6.765 4.2.765zm15.038 0c1.86 0 3.21-.55 4.05-1.65.04-.06.08-.08.12-.06.04.02.06.06.06.12v.99c0 .1.035.185.105.255.07.07.155.105.255.105h3.51c.1 0 .185-.035.255-.105a.347.347 0 0 0 .105-.255v-10.17c0-.96-.285-1.83-.855-2.61-.57-.78-1.365-1.395-2.385-1.845-1.02-.45-2.18-.675-3.48-.675-1.2 0-2.285.19-3.255.57-.97.38-1.75.91-2.34 1.59-.59.68-.925 1.44-1.005 2.28-.02.14.09.23.33.27l3.63.48c.2.02.33-.08.39-.3.12-.4.385-.71.795-.93.41-.22.925-.33 1.545-.33.8 0 1.4.185 1.8.555.4.37.6.885.6 1.545v.66c0 .1-.05.15-.15.15h-3.06c-2 0-3.54.425-4.62 1.275-1.08.85-1.62 2.045-1.62 3.585 0 1.48.48 2.6 1.44 3.36.96.76 2.22 1.14 3.78 1.14zm1.14-3.15c-.64 0-1.15-.155-1.53-.465-.38-.31-.57-.735-.57-1.275 0-.62.255-1.1.765-1.44.51-.34 1.215-.51 2.115-.51h2.16c.1 0 .15.05.15.15v1.08c0 .72-.3 1.31-.9 1.77-.6.46-1.33.69-2.19.69zm14.589 2.91c.1 0 .185-.035.255-.105a.347.347 0 0 0 .105-.255v-8.97c0-.8.225-1.45.675-1.95.45-.5 1.045-.75 1.785-.75s1.335.25 1.785.75c.45.5.675 1.15.675 1.95v8.97c0 .1.035.185.105.255.07.07.155.105.255.105h3.51c.1 0 .185-.035.255-.105a.347.347 0 0 0 .105-.255v-9.84c0-1.68-.49-3.01-1.47-3.99-.98-.98-2.27-1.47-3.87-1.47-1.62 0-2.84.58-3.66 1.74-.02.04-.05.05-.09.03-.04-.02-.06-.06-.06-.12v-6.63c0-.1-.035-.185-.105-.255a.347.347 0 0 0-.255-.105h-3.51c-.1 0-.185.035-.255.105a.347.347 0 0 0-.105.255v20.28c0 .1.035.185.105.255.07.07.155.105.255.105h3.51zm17.378.24c1.86 0 3.21-.55 4.05-1.65.04-.06.08-.08.12-.06.04.02.06.06.06.12v.99c0 .1.035.185.105.255.07.07.155.105.255.105h3.51c.1 0 .185-.035.255-.105a.347.347 0 0 0 .105-.255v-10.17c0-.96-.285-1.83-.855-2.61-.57-.78-1.365-1.395-2.385-1.845-1.02-.45-2.18-.675-3.48-.675-1.2 0-2.285.19-3.255.57-.97.38-1.75.91-2.34 1.59-.59.68-.925 1.44-1.005 2.28-.02.14.09.23.33.27l3.63.48c.2.02.33-.08.39-.3.12-.4.385-.71.795-.93.41-.22.925-.33 1.545-.33.8 0 1.4.185 1.8.555.4.37.6.885.6 1.545v.66c0 .1-.05.15-.15.15h-3.06c-2 0-3.54.425-4.62 1.275-1.08.85-1.62 2.045-1.62 3.585 0 1.48.48 2.6 1.44 3.36.96.76 2.22 1.14 3.78 1.14zm1.14-3.15c-.64 0-1.15-.155-1.53-.465-.38-.31-.57-.735-.57-1.275 0-.62.255-1.1.765-1.44.51-.34 1.215-.51 2.115-.51h2.16c.1 0 .15.05.15.15v1.08c0 .72-.3 1.31-.9 1.77-.6.46-1.33.69-2.19.69zm14.589 2.91c.1 0 .185-.035.255-.105a.347.347 0 0 0 .105-.255v-8.19c0-.78.25-1.405.75-1.875s1.11-.735 1.83-.795c.28-.04.5-.06.66-.06.4 0 .75.05 1.05.15.26.1.4.03.42-.21l.63-3.42c.04-.22-.02-.37-.18-.45-.42-.28-.99-.42-1.71-.42-1.38 0-2.48.6-3.3 1.8-.02.04-.05.05-.09.03-.04-.02-.06-.06-.06-.12v-1.14c0-.1-.035-.185-.105-.255a.347.347 0 0 0-.255-.105h-3.51c-.1 0-.185.035-.255.105a.347.347 0 0 0-.105.255v14.7c0 .1.035.185.105.255.07.07.155.105.255.105h3.51zm12.278.24c1.86 0 3.21-.55 4.05-1.65.04-.06.08-.08.12-.06.04.02.06.06.06.12v.99c0 .1.035.185.105.255.07.07.155.105.255.105h3.51c.1 0 .185-.035.255-.105a.347.347 0 0 0 .105-.255v-10.17c0-.96-.285-1.83-.855-2.61-.57-.78-1.365-1.395-2.385-1.845-1.02-.45-2.18-.675-3.48-.675-1.2 0-2.285.19-3.255.57-.97.38-1.75.91-2.34 1.59-.59.68-.925 1.44-1.005 2.28-.02.14.09.23.33.27l3.63.48c.2.02.33-.08.39-.3.12-.4.385-.71.795-.93.41-.22.925-.33 1.545-.33.8 0 1.4.185 1.8.555.4.37.6.885.6 1.545v.66c0 .1-.05.15-.15.15h-3.06c-2 0-3.54.425-4.62 1.275-1.08.85-1.62 2.045-1.62 3.585 0 1.48.48 2.6 1.44 3.36.96.76 2.22 1.14 3.78 1.14zm1.14-3.15c-.64 0-1.15-.155-1.53-.465-.38-.31-.57-.735-.57-1.275 0-.62.255-1.1.765-1.44.51-.34 1.215-.51 2.115-.51h2.16c.1 0 .15.05.15.15v1.08c0 .72-.3 1.31-.9 1.77-.6.46-1.33.69-2.19.69zm14.589 2.91c.1 0 .185-.035.255-.105a.347.347 0 0 0 .105-.255v-8.97c0-.8.225-1.45.675-1.95.45-.5 1.045-.75 1.785-.75s1.335.25 1.785.75c.45.5.675 1.15.675 1.95v8.97c0 .1.035.185.105.255.07.07.155.105.255.105h3.51c.1 0 .185-.035.255-.105a.347.347 0 0 0 .105-.255v-9.84c0-1.68-.49-3.01-1.47-3.99-.98-.98-2.27-1.47-3.87-1.47-1.62 0-2.84.58-3.66 1.74-.02.04-.05.05-.09.03-.04-.02-.06-.06-.06-.12v-1.05c0-.1-.035-.185-.105-.255a.347.347 0 0 0-.255-.105h-3.51c-.1 0-.185.035-.255.105a.347.347 0 0 0-.105.255v14.7c0 .1.035.185.105.255.07.07.155.105.255.105h3.51zm22.787 0c.2 0 .33-.1.39-.3l.87-2.94c.04-.08.09-.12.15-.12h7.38c.06 0 .11.04.15.12l.9 2.94c.06.2.19.3.39.3h3.81c.22 0 .33-.09.33-.27 0-.06-.01-.11-.03-.15l-6.48-20.28c-.06-.2-.19-.3-.39-.3h-4.71c-.2 0-.33.1-.39.3l-6.48 20.28c-.04.14-.03.245.03.315s.15.105.27.105h3.81zm7.74-6.63h-5.28c-.1 0-.14-.06-.12-.18l2.64-8.91c.02-.06.05-.095.09-.105.04-.01.07.025.09.105l2.7 8.91c.04.12 0 .18-.12.18zm13.929 6.63c.1 0 .185-.035.255-.105a.347.347 0 0 0 .105-.255v-11.37c0-.1.05-.15.15-.15h2.91c.1 0 .185-.035.255-.105a.347.347 0 0 0 .105-.255v-2.85c0-.1-.035-.185-.105-.255a.347.347 0 0 0-.255-.105h-2.91c-.1 0-.15-.05-.15-.15v-.33c0-.72.135-1.215.405-1.485s.755-.415 1.455-.435h.99c.1 0 .185-.035.255-.105a.347.347 0 0 0 .105-.255v-2.43c0-.1-.035-.185-.105-.255a.347.347 0 0 0-.255-.105h-1.14c-1.5-.04-2.675.085-3.525.375-.85.29-1.465.78-1.845 1.47-.38.69-.57 1.655-.57 2.895v.66c0 .1-.05.15-.15.15h-1.77c-.1 0-.185.035-.255.105a.347.347 0 0 0-.105.255v2.85c0 .1.035.185.105.255.07.07.155.105.255.105h1.77c.1 0 .15.05.15.15v11.37c0 .1.035.185.105.255.07.07.155.105.255.105h3.51zm10.538 0c.1 0 .185-.035.255-.105a.347.347 0 0 0 .105-.255v-8.19c0-.78.25-1.405.75-1.875s1.11-.735 1.83-.795c.28-.04.5-.06.66-.06.4 0 .75.05 1.05.15.26.1.4.03.42-.21l.63-3.42c.04-.22-.02-.37-.18-.45-.42-.28-.99-.42-1.71-.42-1.38 0-2.48.6-3.3 1.8-.02.04-.05.05-.09.03-.04-.02-.06-.06-.06-.12v-1.14c0-.1-.035-.185-.105-.255a.347.347 0 0 0-.255-.105h-3.51c-.1 0-.185.035-.255.105a.347.347 0 0 0-.105.255v14.7c0 .1.035.185.105.255.07.07.155.105.255.105h3.51zm10.329-17.16c.68 0 1.245-.225 1.695-.675.45-.45.675-1.015.675-1.695 0-.7-.22-1.27-.66-1.71-.44-.44-1.01-.66-1.71-.66s-1.27.22-1.71.66c-.44.44-.66 1.01-.66 1.71 0 .68.225 1.245.675 1.695.45.45 1.015.675 1.695.675zm1.71 17.16c.1 0 .185-.035.255-.105a.347.347 0 0 0 .105-.255v-14.73c0-.1-.035-.185-.105-.255a.347.347 0 0 0-.255-.105h-3.51c-.1 0-.185.035-.255.105a.347.347 0 0 0-.105.255v14.73c0 .1.035.185.105.255.07.07.155.105.255.105h3.51zm10.868.24c1.58 0 2.975-.38 4.185-1.14 1.21-.76 2.025-1.81 2.445-3.15.12-.44.18-.74.18-.9 0-.18-.1-.29-.3-.33l-3.45-.54c-.26-.04-.4.06-.42.3 0 .04-.01.07-.03.09 0 .08-.01.14-.03.18a2.53 2.53 0 0 1-.975 1.365c-.47.33-1.015.495-1.635.495-.64 0-1.185-.17-1.635-.51-.45-.34-.765-.81-.945-1.41-.2-.6-.3-1.42-.3-2.46s.11-1.86.33-2.46c.18-.56.49-1 .93-1.32.44-.32.98-.48 1.62-.48.66 0 1.23.17 1.71.51.48.34.79.77.93 1.29l.09.48c.06.2.18.3.36.3h.06l3.45-.51c.2-.04.3-.15.3-.33v-.06c0-.24-.08-.6-.24-1.08-.4-1.22-1.205-2.23-2.415-3.03-1.21-.8-2.615-1.2-4.215-1.2-1.6 0-2.99.39-4.17 1.17-1.18.78-2.01 1.85-2.49 3.21-.34.98-.51 2.14-.51 3.48 0 1.36.17 2.54.51 3.54.5 1.4 1.335 2.5 2.505 3.3 1.17.8 2.555 1.2 4.155 1.2zm14.169 0c1.86 0 3.21-.55 4.05-1.65.04-.06.08-.08.12-.06.04.02.06.06.06.12v.99c0 .1.035.185.105.255.07.07.155.105.255.105h3.51c.1 0 .185-.035.255-.105a.347.347 0 0 0 .105-.255v-10.17c0-.96-.285-1.83-.855-2.61-.57-.78-1.365-1.395-2.385-1.845-1.02-.45-2.18-.675-3.48-.675-1.2 0-2.285.19-3.255.57-.97.38-1.75.91-2.34 1.59-.59.68-.925 1.44-1.005 2.28-.02.14.09.23.33.27l3.63.48c.2.02.33-.08.39-.3.12-.4.385-.71.795-.93.41-.22.925-.33 1.545-.33.8 0 1.4.185 1.8.555.4.37.6.885.6 1.545v.66c0 .1-.05.15-.15.15h-3.06c-2 0-3.54.425-4.62 1.275-1.08.85-1.62 2.045-1.62 3.585 0 1.48.48 2.6 1.44 3.36.96.76 2.22 1.14 3.78 1.14zm1.14-3.15c-.64 0-1.15-.155-1.53-.465-.38-.31-.57-.735-.57-1.275 0-.62.255-1.1.765-1.44.51-.34 1.215-.51 2.115-.51h2.16c.1 0 .15.05.15.15v1.08c0 .72-.3 1.31-.9 1.77-.6.46-1.33.69-2.19.69z" fill="#597FFF" opacity=".7"/>
        <path d="M89.246 123.506c0 .08.04.132.12.156l1.176.348c.032.016.048.036.048.06v2.952c0 .024-.016.044-.048.06l-1.176.36c-.08.024-.12.076-.12.156v1.524c0 .088.036.132.108.132a.134.134 0 0 0 .06-.012l8.112-2.592c.08-.024.12-.076.12-.156v-1.884c0-.08-.04-.132-.12-.156l-8.112-2.592c-.056-.016-.098-.012-.126.012-.028.024-.042.06-.042.108v1.524zm2.652 3.096v-2.112c0-.04.024-.056.072-.048l3.564 1.056c.024.008.038.02.042.036.004.016-.01.028-.042.036l-3.564 1.08c-.048.016-.072 0-.072-.048zm-2.736 5.812c0 .672.216 1.168.648 1.488.024.016.034.032.03.048-.004.016-.018.024-.042.024h-.408a.139.139 0 0 0-.102.042.139.139 0 0 0-.042.102v1.404c0 .04.014.074.042.102a.139.139 0 0 0 .102.042h5.88c.04 0 .074-.014.102-.042a.139.139 0 0 0 .042-.102v-1.404a.139.139 0 0 0-.042-.102.139.139 0 0 0-.102-.042h-3.78a1.066 1.066 0 0 1-.642-.324.947.947 0 0 1-.246-.672c0-.304.1-.542.3-.714.2-.172.46-.258.78-.258h3.588c.04 0 .074-.014.102-.042a.139.139 0 0 0 .042-.102v-1.392a.139.139 0 0 0-.042-.102.139.139 0 0 0-.102-.042h-4.008c-.664 0-1.18.196-1.548.588-.368.392-.552.892-.552 1.5zm0 7.131c0 .792.166 1.422.498 1.89.332.468.794.702 1.386.702.504 0 .888-.164 1.152-.492.264-.328.48-.776.648-1.344.04-.128.074-.248.102-.36.028-.112.054-.212.078-.3.088-.384.172-.658.252-.822.08-.164.2-.246.36-.246.168 0 .3.084.396.252.096.168.144.384.144.648 0 .296-.06.534-.18.714-.12.18-.268.27-.444.27a.139.139 0 0 0-.102.042.139.139 0 0 0-.042.102v1.284c0 .04.014.074.042.102a.139.139 0 0 0 .102.042c.376 0 .712-.106 1.008-.318.296-.212.526-.51.69-.894.164-.384.246-.832.246-1.344 0-.76-.174-1.37-.522-1.83-.348-.46-.818-.69-1.41-.69-.48 0-.848.152-1.104.456-.256.304-.472.712-.648 1.224-.088.216-.18.512-.276.888-.08.328-.156.564-.228.708-.072.144-.18.216-.324.216-.16 0-.294-.084-.402-.252-.108-.168-.162-.388-.162-.66 0-.296.062-.542.186-.738.124-.196.274-.294.45-.294h.012c.04 0 .074-.014.102-.042a.139.139 0 0 0 .042-.102v-1.332a.139.139 0 0 0-.042-.102.139.139 0 0 0-.102-.042h-.12c-.344 0-.652.11-.924.33-.272.22-.484.53-.636.93-.152.4-.228.868-.228 1.404zm.048 6.268c0 .144.008.384.024.72.016.096.068.144.156.144h1.14c.04 0 .074-.014.102-.042a.139.139 0 0 0 .042-.102v-.396c0-.24.064-.414.192-.522.128-.108.324-.162.588-.162h2.544c.04 0 .06.02.06.06v1.152c0 .04.014.074.042.102a.139.139 0 0 0 .102.042h1.068c.04 0 .074-.014.102-.042a.139.139 0 0 0 .042-.102v-1.152c0-.04.02-.06.06-.06h1.428c.04 0 .074-.014.102-.042a.139.139 0 0 0 .042-.102v-1.344a.139.139 0 0 0-.042-.102.139.139 0 0 0-.102-.042h-1.428c-.04 0-.06-.02-.06-.06v-.684a.139.139 0 0 0-.042-.102.139.139 0 0 0-.102-.042h-1.068a.139.139 0 0 0-.102.042.139.139 0 0 0-.042.102v.684c0 .04-.02.06-.06.06h-3.216c-.608.008-1.022.176-1.242.504-.22.328-.33.824-.33 1.488zm.036 3.735c0 .04.014.074.042.102a.139.139 0 0 0 .102.042h3.276c.312 0 .562.1.75.3.188.2.294.444.318.732.016.112.024.2.024.264 0 .16-.02.3-.06.42-.04.104-.012.16.084.168l1.368.252c.088.016.148-.008.18-.072.112-.168.168-.396.168-.684 0-.552-.24-.992-.72-1.32l-.012-.01c-.006-.007-.006-.015 0-.026.008-.016.024-.024.048-.024h.456c.04 0 .074-.014.102-.042a.139.139 0 0 0 .042-.102v-1.404a.139.139 0 0 0-.042-.102.139.139 0 0 0-.102-.042h-5.88a.139.139 0 0 0-.102.042.139.139 0 0 0-.042.102v1.404zm-.096 4.911c0 .744.22 1.284.66 1.62.024.016.032.032.024.048s-.024.024-.048.024h-.396a.139.139 0 0 0-.102.042.139.139 0 0 0-.042.102v1.404c0 .04.014.074.042.102a.139.139 0 0 0 .102.042h4.068c.384 0 .732-.114 1.044-.342.312-.228.558-.546.738-.954.18-.408.27-.872.27-1.392 0-.48-.076-.914-.228-1.302a2.343 2.343 0 0 0-.636-.936 1.598 1.598 0 0 0-.912-.402c-.056-.008-.092.036-.108.132l-.192 1.452c-.008.08.032.132.12.156.16.048.284.154.372.318.088.164.132.37.132.618 0 .32-.074.56-.222.72-.148.16-.354.24-.618.24h-.264c-.04 0-.06-.02-.06-.06v-1.224c0-.8-.17-1.416-.51-1.848-.34-.432-.818-.648-1.434-.648-.592 0-1.04.192-1.344.576-.304.384-.456.888-.456 1.512zm1.26.456c0-.256.062-.46.186-.612a.623.623 0 0 1 .51-.228c.248 0 .44.102.576.306.136.204.204.486.204.846v.864c0 .04-.02.06-.06.06h-.432a.854.854 0 0 1-.708-.36 1.397 1.397 0 0 1-.276-.876zm-1.164 5.836c0 .04.014.074.042.102a.139.139 0 0 0 .102.042h8.112c.04 0 .074-.014.102-.042a.139.139 0 0 0 .042-.102v-1.404a.139.139 0 0 0-.042-.102.139.139 0 0 0-.102-.042H89.39a.139.139 0 0 0-.102.042.139.139 0 0 0-.042.102v1.404zm6.864 2.463a.92.92 0 0 0 .948.948c.28 0 .508-.088.684-.264a.925.925 0 0 0 .264-.684.925.925 0 0 0-.264-.684.925.925 0 0 0-.684-.264.92.92 0 0 0-.948.948zm-6.864.684c0 .04.014.074.042.102a.139.139 0 0 0 .102.042h5.892c.04 0 .074-.014.102-.042a.139.139 0 0 0 .042-.102v-1.404a.139.139 0 0 0-.042-.102.139.139 0 0 0-.102-.042H89.39a.139.139 0 0 0-.102.042.139.139 0 0 0-.042.102v1.404zm-.096 3.4c0 .744.22 1.284.66 1.62.024.016.032.032.024.048s-.024.024-.048.024h-.396a.139.139 0 0 0-.102.042.139.139 0 0 0-.042.102v1.404c0 .04.014.074.042.102a.139.139 0 0 0 .102.042h4.068c.384 0 .732-.114 1.044-.342.312-.228.558-.546.738-.954.18-.408.27-.872.27-1.392 0-.48-.076-.914-.228-1.302a2.343 2.343 0 0 0-.636-.936 1.598 1.598 0 0 0-.912-.402c-.056-.008-.092.036-.108.132l-.192 1.452c-.008.08.032.132.12.156.16.048.284.154.372.318.088.164.132.37.132.618 0 .32-.074.56-.222.72-.148.16-.354.24-.618.24h-.264c-.04 0-.06-.02-.06-.06v-1.224c0-.8-.17-1.416-.51-1.848-.34-.432-.818-.648-1.434-.648-.592 0-1.04.192-1.344.576-.304.384-.456.888-.456 1.512zm1.26.456c0-.256.062-.46.186-.612a.623.623 0 0 1 .51-.228c.248 0 .44.102.576.306.136.204.204.486.204.846v.864c0 .04-.02.06-.06.06h-.432a.854.854 0 0 1-.708-.36 1.397 1.397 0 0 1-.276-.876zm-1.26 8.623c0 .744.22 1.284.66 1.62.024.016.032.032.024.048s-.024.024-.048.024h-.396a.139.139 0 0 0-.102.042.139.139 0 0 0-.042.102v1.404c0 .04.014.074.042.102a.139.139 0 0 0 .102.042h4.068c.384 0 .732-.114 1.044-.342.312-.228.558-.546.738-.954.18-.408.27-.872.27-1.392 0-.48-.076-.914-.228-1.302a2.343 2.343 0 0 0-.636-.936 1.598 1.598 0 0 0-.912-.402c-.056-.008-.092.036-.108.132l-.192 1.452c-.008.08.032.132.12.156.16.048.284.154.372.318.088.164.132.37.132.618 0 .32-.074.56-.222.72-.148.16-.354.24-.618.24h-.264c-.04 0-.06-.02-.06-.06v-1.224c0-.8-.17-1.416-.51-1.848-.34-.432-.818-.648-1.434-.648-.592 0-1.04.192-1.344.576-.304.384-.456.888-.456 1.512zm1.26.456c0-.256.062-.46.186-.612a.623.623 0 0 1 .51-.228c.248 0 .44.102.576.306.136.204.204.486.204.846v.864c0 .04-.02.06-.06.06h-.432a.854.854 0 0 1-.708-.36 1.397 1.397 0 0 1-.276-.876zm-1.164 5.835c0 .04.014.074.042.102a.139.139 0 0 0 .102.042h3.588c.32 0 .58.09.78.27.2.18.3.418.3.714s-.1.534-.3.714c-.2.18-.46.27-.78.27H89.39a.139.139 0 0 0-.102.042.139.139 0 0 0-.042.102v1.404c0 .04.014.074.042.102a.139.139 0 0 0 .102.042h3.936c.672 0 1.204-.196 1.596-.588.392-.392.588-.908.588-1.548 0-.648-.232-1.136-.696-1.464-.016-.008-.02-.02-.012-.036.008-.016.024-.024.048-.024h.42c.04 0 .074-.014.102-.042a.139.139 0 0 0 .042-.102v-1.404a.139.139 0 0 0-.042-.102.139.139 0 0 0-.102-.042h-5.88a.139.139 0 0 0-.102.042.139.139 0 0 0-.042.102v1.404zm-.096 7.527c0 .584.22 1.044.66 1.38.016.016.022.032.018.048s-.018.024-.042.024h-.396a.139.139 0 0 0-.102.042.139.139 0 0 0-.042.102v1.404c0 .04.014.074.042.102a.139.139 0 0 0 .102.042h8.112c.04 0 .074-.014.102-.042a.139.139 0 0 0 .042-.102v-1.404a.139.139 0 0 0-.042-.102.139.139 0 0 0-.102-.042h-2.568c-.024 0-.04-.008-.048-.024s0-.032.024-.048c.4-.32.6-.768.6-1.344 0-.584-.15-1.074-.45-1.47a2.58 2.58 0 0 0-1.218-.87c-.424-.144-.92-.216-1.488-.216-.552 0-1.036.068-1.452.204-.544.176-.972.466-1.284.87-.312.404-.468.886-.468 1.446zm1.452.36c0-.392.172-.688.516-.888.32-.168.72-.252 1.2-.252.536 0 .96.1 1.272.3.312.192.468.476.468.852 0 .352-.156.62-.468.804-.304.176-.724.264-1.26.264-.512 0-.916-.08-1.212-.24-.344-.2-.516-.48-.516-.84zm-1.488 9.895c0 .632.126 1.186.378 1.662s.61.846 1.074 1.11c.464.264.996.396 1.596.396h2.568c.592 0 1.116-.132 1.572-.396.456-.264.81-.634 1.062-1.11.252-.476.378-1.03.378-1.662 0-.624-.126-1.174-.378-1.65a2.731 2.731 0 0 0-1.062-1.11c-.456-.264-.98-.396-1.572-.396h-2.568c-.6 0-1.13.132-1.59.396a2.76 2.76 0 0 0-1.074 1.11c-.256.476-.384 1.026-.384 1.65zm1.452 0c0-.44.14-.794.42-1.062.28-.268.652-.402 1.116-.402h2.64c.464 0 .838.134 1.122.402.284.268.426.622.426 1.062 0 .448-.142.806-.426 1.074-.284.268-.658.402-1.122.402h-2.64c-.464 0-.836-.136-1.116-.408-.28-.272-.42-.628-.42-1.068zm-1.416 7.228c0 .632.152 1.19.456 1.674.304.484.724.81 1.26.978.176.048.296.072.36.072.072 0 .116-.04.132-.12l.216-1.38c.016-.104-.024-.16-.12-.168-.016 0-.028-.004-.036-.012a.167.167 0 0 1-.072-.012 1.012 1.012 0 0 1-.546-.39 1.11 1.11 0 0 1-.198-.654c0-.256.068-.474.204-.654.136-.18.324-.306.564-.378.24-.08.568-.12.984-.12.416 0 .744.044.984.132.224.072.4.196.528.372s.192.392.192.648c0 .264-.068.492-.204.684a.913.913 0 0 1-.516.372l-.192.036c-.08.024-.12.072-.12.144v.024l.204 1.38c.016.08.06.12.132.12h.024c.096 0 .24-.032.432-.096.488-.16.892-.482 1.212-.966.32-.484.48-1.046.48-1.686 0-.64-.156-1.196-.468-1.668a2.49 2.49 0 0 0-1.284-.996c-.392-.136-.856-.204-1.392-.204-.544 0-1.016.068-1.416.204-.56.2-1 .534-1.32 1.002-.32.468-.48 1.022-.48 1.662zm0 6.723c0 .496.09.952.27 1.368.18.416.434.756.762 1.02.048.032.08.048.096.048.032 0 .068-.02.108-.06l.852-.864c.032-.032.048-.06.048-.084 0-.04-.024-.076-.072-.108a1.448 1.448 0 0 1-.624-1.212c0-.64.224-1.064.672-1.272.16-.064.32-.108.48-.132.04-.016.06 0 .06.048v3.708c0 .096.048.148.144.156.376.016.716 0 1.02-.048.776-.104 1.396-.398 1.86-.882.464-.484.696-1.126.696-1.926 0-.632-.168-1.178-.504-1.638a2.638 2.638 0 0 0-1.356-.966 3.454 3.454 0 0 0-1.164-.18c-.648 0-1.172.084-1.572.252-.56.208-.996.55-1.308 1.026-.312.476-.468 1.058-.468 1.746zm3.756.828v-2.076c0-.04.02-.06.06-.06.152.024.28.052.384.084.472.16.708.492.708.996 0 .264-.066.486-.198.666-.132.18-.318.306-.558.378.008 0-.104.02-.336.06-.04.016-.06 0-.06-.048zm-3.756 4.708c0 .744.22 1.284.66 1.62.024.016.032.032.024.048s-.024.024-.048.024h-.396a.139.139 0 0 0-.102.042.139.139 0 0 0-.042.102v1.404c0 .04.014.074.042.102a.139.139 0 0 0 .102.042h4.068c.384 0 .732-.114 1.044-.342.312-.228.558-.546.738-.954.18-.408.27-.872.27-1.392 0-.48-.076-.914-.228-1.302a2.343 2.343 0 0 0-.636-.936 1.598 1.598 0 0 0-.912-.402c-.056-.008-.092.036-.108.132l-.192 1.452c-.008.08.032.132.12.156.16.048.284.154.372.318.088.164.132.37.132.618 0 .32-.074.56-.222.72-.148.16-.354.24-.618.24h-.264c-.04 0-.06-.02-.06-.06v-1.224c0-.8-.17-1.416-.51-1.848-.34-.432-.818-.648-1.434-.648-.592 0-1.04.192-1.344.576-.304.384-.456.888-.456 1.512zm1.26.456c0-.256.062-.46.186-.612a.623.623 0 0 1 .51-.228c.248 0 .44.102.576.306.136.204.204.486.204.846v.864c0 .04-.02.06-.06.06h-.432a.854.854 0 0 1-.708-.36 1.397 1.397 0 0 1-.276-.876zm-1.164 5.835c0 .04.014.074.042.102a.139.139 0 0 0 .102.042h3.588c.32 0 .58.09.78.27.2.18.3.418.3.714s-.1.534-.3.714c-.2.18-.46.27-.78.27H89.39a.139.139 0 0 0-.102.042.139.139 0 0 0-.042.102v1.404c0 .04.014.074.042.102a.139.139 0 0 0 .102.042h3.936c.672 0 1.204-.196 1.596-.588.392-.392.588-.908.588-1.548 0-.648-.232-1.136-.696-1.464-.016-.008-.02-.02-.012-.036.008-.016.024-.024.048-.024h.42c.04 0 .074-.014.102-.042a.139.139 0 0 0 .042-.102v-1.404a.139.139 0 0 0-.042-.102.139.139 0 0 0-.102-.042h-5.88a.139.139 0 0 0-.102.042.139.139 0 0 0-.042.102v1.404zm6.864 6.1a.92.92 0 0 0 .948.947c.28 0 .508-.088.684-.264a.925.925 0 0 0 .264-.684.925.925 0 0 0-.264-.684.925.925 0 0 0-.684-.264.92.92 0 0 0-.948.948zm-6.864.683c0 .04.014.074.042.102a.139.139 0 0 0 .102.042h5.892c.04 0 .074-.014.102-.042a.139.139 0 0 0 .042-.102v-1.404a.139.139 0 0 0-.042-.102.139.139 0 0 0-.102-.042H89.39a.139.139 0 0 0-.102.042.139.139 0 0 0-.042.102v1.404zm-.096 3.4c0 .744.22 1.284.66 1.62.024.016.032.032.024.048s-.024.024-.048.024h-.396a.139.139 0 0 0-.102.042.139.139 0 0 0-.042.102v1.404c0 .04.014.074.042.102a.139.139 0 0 0 .102.042h4.068c.384 0 .732-.114 1.044-.342.312-.228.558-.546.738-.954.18-.408.27-.872.27-1.392 0-.48-.076-.914-.228-1.302a2.343 2.343 0 0 0-.636-.936 1.598 1.598 0 0 0-.912-.402c-.056-.008-.092.036-.108.132l-.192 1.452c-.008.08.032.132.12.156.16.048.284.154.372.318.088.164.132.37.132.618 0 .32-.074.56-.222.72-.148.16-.354.24-.618.24h-.264c-.04 0-.06-.02-.06-.06v-1.224c0-.8-.17-1.416-.51-1.848-.34-.432-.818-.648-1.434-.648-.592 0-1.04.192-1.344.576-.304.384-.456.888-.456 1.512zm1.26.456c0-.256.062-.46.186-.612a.623.623 0 0 1 .51-.228c.248 0 .44.102.576.306.136.204.204.486.204.846v.864c0 .04-.02.06-.06.06h-.432a.854.854 0 0 1-.708-.36 1.397 1.397 0 0 1-.276-.876z" fill="#96AEFF" opacity=".7"/>
        <path d="M116.122 137.138c.08 0 .12-.04.12-.12l-.012-6.612c0-.024.008-.038.024-.042.016-.004.028.006.036.03l4.092 6.66c.04.056.088.084.144.084h.6c.08 0 .12-.04.12-.12v-8.16c0-.08-.04-.12-.12-.12h-.612c-.08 0-.12.04-.12.12l.012 6.612c0 .024-.008.038-.024.042-.016.004-.028-.006-.036-.03l-4.092-6.66c-.04-.056-.088-.084-.144-.084h-.6c-.08 0-.12.04-.12.12v8.16c0 .08.04.12.12.12h.612zm9.7.096c.576 0 1.07-.148 1.482-.444.412-.296.694-.704.846-1.224.112-.336.168-.828.168-1.476 0-.64-.056-1.132-.168-1.476a2.224 2.224 0 0 0-.846-1.2c-.412-.296-.902-.444-1.47-.444-.592 0-1.096.148-1.512.444-.416.296-.7.7-.852 1.212-.112.36-.168.848-.168 1.464s.056 1.108.168 1.476c.16.52.448.928.864 1.224.416.296.912.444 1.488.444zm0-.744c-.4 0-.738-.106-1.014-.318a1.492 1.492 0 0 1-.546-.858c-.064-.28-.096-.684-.096-1.212 0-.528.032-.932.096-1.212.096-.36.28-.646.552-.858.272-.212.604-.318.996-.318s.726.106 1.002.318c.276.212.462.498.558.858.064.28.096.684.096 1.212 0 .52-.036.924-.108 1.212-.096.36-.28.646-.552.858-.272.212-.6.318-.984.318zm5.127.648c.08 0 .12-.04.12-.12v-3.54c0-.448.136-.818.408-1.11a1.43 1.43 0 0 1 1.032-.462l.156-.012c.176 0 .332.028.468.084.08.032.132.008.156-.072l.132-.588c.016-.072-.008-.124-.072-.156a1.416 1.416 0 0 0-.684-.156c-.344 0-.646.082-.906.246a1.91 1.91 0 0 0-.642.69c-.008.016-.018.022-.03.018s-.018-.018-.018-.042v-.732c0-.08-.04-.12-.12-.12h-.612c-.08 0-.12.04-.12.12v5.832c0 .08.04.12.12.12h.612zm6.1.012c.2 0 .348-.004.444-.012.08 0 .12-.04.12-.12v-.492c0-.08-.04-.12-.12-.12h-.3c-.368 0-.638-.078-.81-.234-.172-.156-.258-.426-.258-.81v-3.54c0-.032.016-.048.048-.048h1.356c.08 0 .12-.04.12-.12v-.468c0-.08-.04-.12-.12-.12h-1.356c-.032 0-.048-.016-.048-.048v-1.392c0-.08-.04-.12-.12-.12h-.588c-.08 0-.12.04-.12.12v1.392c0 .032-.016.048-.048.048h-.732c-.08 0-.12.04-.12.12v.468c0 .08.04.12.12.12h.732c.032 0 .048.016.048.048v3.804c0 .584.148.984.444 1.2.296.216.732.324 1.308.324zm3.147-.012c.08 0 .12-.04.12-.12v-3.816c0-.44.136-.796.408-1.068.272-.272.628-.408 1.068-.408.424 0 .77.14 1.038.42.268.28.402.64.402 1.08v3.792c0 .08.04.12.12.12h.612c.08 0 .12-.04.12-.12v-3.96c0-.632-.19-1.136-.57-1.512-.38-.376-.89-.564-1.53-.564-.728 0-1.268.248-1.62.744-.008.016-.018.02-.03.012a.04.04 0 0 1-.018-.036v-2.844c0-.08-.04-.12-.12-.12h-.612c-.08 0-.12.04-.12.12v8.16c0 .08.04.12.12.12h.612zm8.695 0c.072 0 .12-.032.144-.096l.48-1.512c.008-.024.024-.036.048-.036h3.588c.024 0 .04.012.048.036l.48 1.512c.024.064.072.096.144.096h.648c.072 0 .108-.028.108-.084l-.012-.048-2.664-8.172c-.024-.064-.072-.096-.144-.096h-.816c-.072 0-.12.032-.144.096l-2.652 8.172c-.024.088.008.132.096.132h.648zm4.008-2.34h-3.096a.058.058 0 0 1-.042-.018c-.012-.012-.014-.026-.006-.042l1.56-4.896c.008-.016.02-.024.036-.024.016 0 .028.008.036.024l1.56 4.896c.008.016.006.03-.006.042a.058.058 0 0 1-.042.018zm3.963 2.34c.08 0 .12-.04.12-.12v-3.876c0-.432.126-.776.378-1.032s.59-.384 1.014-.384c.416 0 .748.13.996.39s.372.61.372 1.05v3.852c0 .08.04.12.12.12h.612c.08 0 .12-.04.12-.12v-3.876c0-.432.13-.776.39-1.032s.602-.384 1.026-.384c.408 0 .738.13.99.39s.378.61.378 1.05v3.852c0 .08.04.12.12.12h.6c.08 0 .12-.04.12-.12v-4.02c0-.624-.174-1.116-.522-1.476-.348-.36-.822-.54-1.422-.54a2.36 2.36 0 0 0-1.092.246c-.32.164-.568.41-.744.738-.024.04-.044.04-.06 0a1.615 1.615 0 0 0-.672-.732c-.296-.168-.652-.252-1.068-.252-.336 0-.642.058-.918.174-.276.116-.502.29-.678.522-.016.016-.03.022-.042.018-.012-.004-.018-.014-.018-.03v-.48c0-.08-.04-.12-.12-.12h-.612c-.08 0-.12.04-.12.12v5.832c0 .08.04.12.12.12h.612zm11.572.108c.52 0 .98-.11 1.38-.33.4-.22.7-.522.9-.906.032-.072.016-.128-.048-.168l-.468-.276c-.064-.04-.12-.024-.168.048-.144.28-.344.496-.6.648a1.706 1.706 0 0 1-.888.228c-.448 0-.816-.104-1.104-.312a1.435 1.435 0 0 1-.564-.852c-.032-.128-.056-.412-.072-.852 0-.032.016-.048.048-.048h3.876c.08 0 .12-.04.12-.12v-.384c0-.336-.016-.616-.048-.84-.096-.672-.34-1.192-.732-1.56-.392-.368-.952-.552-1.68-.552-.584 0-1.082.156-1.494.468a2.223 2.223 0 0 0-.822 1.248 2.618 2.618 0 0 0-.09.57c-.012.212-.018.486-.018.822 0 .72.072 1.272.216 1.656.168.472.444.84.828 1.104.384.264.86.4 1.428.408zm1.524-3.54h-3.108c-.032 0-.048-.016-.048-.048.016-.376.048-.648.096-.816.08-.344.25-.618.51-.822.26-.204.586-.306.978-.306.408 0 .746.106 1.014.318.268.212.446.498.534.858.032.152.056.408.072.768 0 .032-.016.048-.048.048zm3.483 3.432c.08 0 .12-.04.12-.12v-3.54c0-.448.136-.818.408-1.11a1.43 1.43 0 0 1 1.032-.462l.156-.012c.176 0 .332.028.468.084.08.032.132.008.156-.072l.132-.588c.016-.072-.008-.124-.072-.156a1.416 1.416 0 0 0-.684-.156c-.344 0-.646.082-.906.246a1.91 1.91 0 0 0-.642.69c-.008.016-.018.022-.03.018s-.018-.018-.018-.042v-.732c0-.08-.04-.12-.12-.12h-.612c-.08 0-.12.04-.12.12v5.832c0 .08.04.12.12.12h.612zm4.384-7.176a.651.651 0 0 0 .48-.192.651.651 0 0 0 .192-.48.646.646 0 0 0-.672-.672.646.646 0 0 0-.672.672c0 .192.064.352.192.48a.651.651 0 0 0 .48.192zm.276 7.164c.08 0 .12-.04.12-.12v-5.832c0-.08-.04-.12-.12-.12h-.612c-.08 0-.12.04-.12.12v5.832c0 .08.04.12.12.12h.612zm4.671.108c.584 0 1.092-.144 1.524-.432.432-.288.708-.664.828-1.128l.048-.24c.008-.072-.028-.116-.108-.132l-.588-.096c-.088-.016-.136.016-.144.096l-.012.048v.048c-.072.32-.25.582-.534.786a1.692 1.692 0 0 1-1.014.306c-.4 0-.734-.106-1.002-.318a1.46 1.46 0 0 1-.522-.858c-.072-.288-.108-.696-.108-1.224 0-.504.036-.908.108-1.212.08-.352.254-.634.522-.846.268-.212.602-.318 1.002-.318s.74.106 1.02.318c.28.212.456.47.528.774l.036.18c.016.072.052.108.108.108h.024l.6-.084c.072-.016.108-.052.108-.108v-.024a2.025 2.025 0 0 0-.072-.36c-.128-.44-.406-.808-.834-1.104-.428-.296-.934-.444-1.518-.444-.576 0-1.072.15-1.488.45-.416.3-.696.698-.84 1.194-.104.4-.156.888-.156 1.464 0 .64.052 1.136.156 1.488.152.512.434.918.846 1.218.412.3.906.45 1.482.45zm5.715 0c.392 0 .748-.062 1.068-.186.32-.124.58-.306.78-.546.016-.016.03-.02.042-.012a.04.04 0 0 1 .018.036v.492c0 .08.04.12.12.12h.612c.08 0 .12-.04.12-.12v-4.032c0-.608-.196-1.096-.588-1.464-.392-.368-.948-.552-1.668-.552-.624 0-1.144.14-1.56.42-.416.28-.656.644-.72 1.092-.016.048.02.08.108.096l.648.084c.072.008.12-.028.144-.108a.93.93 0 0 1 .444-.618c.24-.148.552-.222.936-.222.48 0 .834.118 1.062.354.228.236.342.558.342.966v.456c0 .032-.016.048-.048.048h-1.392c-.776 0-1.382.174-1.818.522-.436.348-.654.822-.654 1.422 0 .592.192 1.032.576 1.32.384.288.86.432 1.428.432zm.168-.732c-.392 0-.71-.09-.954-.27-.244-.18-.366-.446-.366-.798 0-.384.16-.684.48-.9.32-.216.744-.324 1.272-.324h1.26c.032 0 .048.016.048.048v.936c0 .4-.172.718-.516.954-.344.236-.752.354-1.224.354z" fill="#819EFF"/>
        <path d="M264.526 140.504c0 .1.035.185.105.255.07.07.155.105.255.105h2.91c.1 0 .185-.035.255-.105a.347.347 0 0 0 .105-.255v-9.84c0-.1.05-.15.15-.15h4.86c.1 0 .15.05.15.15v6.45c0 .1.035.185.105.255.07.07.155.105.255.105h2.91c.1 0 .185-.035.255-.105a.347.347 0 0 0 .105-.255v-6.45c0-.1.05-.15.15-.15h4.65c.1 0 .15.05.15.15v9.84c0 .1.035.185.105.255.07.07.155.105.255.105h2.91c.1 0 .185-.035.255-.105a.347.347 0 0 0 .105-.255v-13.86c0-.1-.035-.185-.105-.255a.347.347 0 0 0-.255-.105h-20.28c-.1 0-.185.035-.255.105a.347.347 0 0 0-.105.255v13.86zm-.21 8.558c0 1.68.54 2.92 1.62 3.72.06.04.085.08.075.12-.01.04-.045.06-.105.06h-1.02c-.1 0-.185.035-.255.105a.347.347 0 0 0-.105.255v3.51c0 .1.035.185.105.255.07.07.155.105.255.105h14.7c.1 0 .185-.035.255-.105a.347.347 0 0 0 .105-.255v-3.51c0-.1-.035-.185-.105-.255a.347.347 0 0 0-.255-.105h-9.45c-.66-.1-1.195-.37-1.605-.81-.41-.44-.615-1-.615-1.68 0-.76.25-1.355.75-1.785.5-.43 1.15-.645 1.95-.645h8.97c.1 0 .185-.035.255-.105a.347.347 0 0 0 .105-.255v-3.48c0-.1-.035-.185-.105-.255a.347.347 0 0 0-.255-.105h-10.02c-1.66 0-2.95.49-3.87 1.47-.92.98-1.38 2.23-1.38 3.75zm.21 15.549c0 .1.035.185.105.255.07.07.155.105.255.105h8.19c.78 0 1.405.25 1.875.75s.735 1.11.795 1.83c.04.28.06.5.06.66 0 .4-.05.75-.15 1.05-.1.26-.03.4.21.42l3.42.63c.22.04.37-.02.45-.18.28-.42.42-.99.42-1.71 0-1.38-.6-2.48-1.8-3.3-.04-.02-.05-.05-.03-.09.02-.04.06-.06.12-.06h1.14c.1 0 .185-.035.255-.105a.347.347 0 0 0 .105-.255v-3.51c0-.1-.035-.185-.105-.255a.347.347 0 0 0-.255-.105h-14.7c-.1 0-.185.035-.255.105a.347.347 0 0 0-.105.255v3.51zm-.24 14.468c0 1.68.445 3.115 1.335 4.305.89 1.19 2.115 2.005 3.675 2.445.94.28 1.95.42 3.03.42 1.1 0 2.15-.16 3.15-.48 1.48-.48 2.635-1.3 3.465-2.46.83-1.16 1.245-2.56 1.245-4.2 0-1.68-.42-3.12-1.26-4.32-.84-1.2-2-2.03-3.48-2.49-.94-.28-2-.42-3.18-.42-1.1 0-2.12.14-3.06.42-1.52.44-2.72 1.26-3.6 2.46-.88 1.2-1.32 2.64-1.32 4.32zm3.63 0c0-.68.2-1.255.6-1.725.4-.47.95-.805 1.65-1.005.5-.14 1.2-.21 2.1-.21.94 0 1.65.08 2.13.24.68.2 1.21.526 1.59.976.38.45.57 1.014.57 1.695 0 .66-.19 1.22-.57 1.68-.38.46-.91.8-1.59 1.02-.58.16-1.29.24-2.13.24-.76 0-1.46-.08-2.1-.24-.7-.2-1.25-.53-1.65-.99-.4-.46-.6-1.02-.6-1.68zm-8.97 14.32c0 .1.035.184.105.254.07.07.155.105.255.105h6.42c.06 0 .1.02.12.06.02.04 0 .08-.06.12-1 .8-1.5 1.92-1.5 3.36 0 1.46.375 2.685 1.125 3.675.75.99 1.765 1.715 3.045 2.175 1.12.38 2.37.57 3.75.57s2.58-.18 3.6-.54c1.38-.44 2.455-1.165 3.225-2.175.77-1.01 1.155-2.205 1.155-3.585 0-1.48-.55-2.64-1.65-3.48-.04-.04-.055-.08-.045-.12.01-.04.045-.06.105-.06h.99c.1 0 .185-.035.255-.105a.347.347 0 0 0 .105-.255v-3.51c0-.1-.035-.185-.105-.255a.347.347 0 0 0-.255-.105h-20.28c-.1 0-.185.035-.255.105a.347.347 0 0 0-.105.255v3.51zm8.97 3.09c0-.9.4-1.58 1.2-2.04.74-.44 1.78-.66 3.12-.66 1.3 0 2.31.21 3.03.63.86.46 1.29 1.15 1.29 2.07 0 1.02-.43 1.76-1.29 2.22-.74.42-1.74.63-3 .63-1.34 0-2.4-.25-3.18-.75-.78-.5-1.17-1.2-1.17-2.1zm-3.63 17.528c0 1.24.225 2.38.675 3.42.45 1.04 1.085 1.89 1.905 2.55.12.08.2.12.24.12.08 0 .17-.05.27-.15l2.13-2.16c.08-.08.12-.15.12-.21 0-.1-.06-.19-.18-.27-1.02-.74-1.54-1.75-1.56-3.03 0-1.6.56-2.66 1.68-3.18.4-.16.8-.27 1.2-.33.1-.04.15 0 .15.12v9.27c0 .24.12.37.36.39.94.04 1.79 0 2.55-.12 1.94-.26 3.49-.995 4.65-2.205 1.16-1.21 1.74-2.815 1.74-4.815 0-1.58-.42-2.945-1.26-4.095-.84-1.15-1.97-1.955-3.39-2.415-.84-.3-1.81-.45-2.91-.45-1.62 0-2.93.21-3.93.63-1.4.52-2.49 1.375-3.27 2.565-.78 1.19-1.17 2.645-1.17 4.365zm9.39 2.07v-5.19c0-.1.05-.15.15-.15.38.06.7.13.96.21 1.18.4 1.77 1.23 1.77 2.49 0 .66-.165 1.215-.495 1.665-.33.45-.795.765-1.395.945.02 0-.26.05-.84.15-.1.04-.15 0-.15-.12z" fill="#819EFF" opacity=".7"/>
        <path d="M202.082 140.138c.134 0 .22-.067.26-.2l.66-2.14c.027-.054.06-.08.1-.08h5.28c.04 0 .074.026.1.08l.66 2.14c.04.133.127.2.26.2h2c.147 0 .22-.06.22-.18a.223.223 0 0 0-.02-.1l-4.36-13.52c-.04-.134-.126-.2-.26-.2h-2.5c-.133 0-.22.066-.26.2l-4.34 13.52c-.026.093-.02.163.02.21.04.046.1.07.18.07h2zm5.68-4.24h-4.06c-.066 0-.093-.04-.08-.12l2.04-6.7c.014-.054.034-.08.06-.08.027 0 .047.026.06.08l2.06 6.7c.027.08 0 .12-.08.12zm9.786 4.36c1.24 0 2.233-.27 2.98-.81.747-.54 1.12-1.284 1.12-2.23 0-.627-.167-1.137-.5-1.53-.333-.394-.74-.7-1.22-.92-.48-.22-1.073-.437-1.78-.65l-.44-.12c-.733-.2-1.257-.384-1.57-.55-.313-.167-.47-.41-.47-.73 0-.347.163-.617.49-.81.327-.194.75-.29 1.27-.29.587 0 1.05.116 1.39.35.34.233.51.523.51.87 0 .066.023.123.07.17.047.046.103.07.17.07h1.7a.231.231 0 0 0 .17-.07.231.231 0 0 0 .07-.17c0-.587-.167-1.11-.5-1.57-.333-.46-.807-.82-1.42-1.08-.613-.26-1.327-.39-2.14-.39-1.2 0-2.167.276-2.9.83-.733.553-1.1 1.296-1.1 2.23 0 .613.16 1.116.48 1.51.32.393.713.703 1.18.93.467.226 1.04.44 1.72.64l.76.24c.613.173 1.057.336 1.33.49.273.153.41.383.41.69 0 .333-.167.61-.5.83-.333.22-.767.33-1.3.33-.56 0-1.023-.124-1.39-.37-.367-.247-.55-.537-.55-.87v-.04a.231.231 0 0 0-.07-.17.231.231 0 0 0-.17-.07h-1.76a.231.231 0 0 0-.17.07.231.231 0 0 0-.07.17v.18c0 .533.173 1.016.52 1.45.347.433.837.773 1.47 1.02.633.246 1.37.37 2.21.37zm7.666-11.74c.413 0 .753-.134 1.02-.4.266-.267.4-.607.4-1.02 0-.414-.134-.754-.4-1.02-.267-.267-.607-.4-1.02-.4-.414 0-.754.133-1.02.4-.267.266-.4.606-.4 1.02 0 .413.133.753.4 1.02.266.266.606.4 1.02.4zm.88 11.62a.231.231 0 0 0 .17-.07.231.231 0 0 0 .07-.17v-9.76a.231.231 0 0 0-.07-.17.231.231 0 0 0-.17-.07h-1.84a.231.231 0 0 0-.17.07.231.231 0 0 0-.07.17v9.76c0 .066.023.123.07.17.046.046.103.07.17.07h1.84zm6.025.16c1.24 0 2.187-.36 2.84-1.08.027-.027.054-.037.08-.03.027.006.04.03.04.07v.64c0 .066.024.123.07.17.047.046.104.07.17.07h1.84a.231.231 0 0 0 .17-.07.231.231 0 0 0 .07-.17v-6.74c0-.654-.173-1.237-.52-1.75-.346-.514-.84-.917-1.48-1.21-.64-.294-1.38-.44-2.22-.44-1.16 0-2.123.26-2.89.78-.766.52-1.203 1.186-1.31 2-.013.053.004.096.05.13a.436.436 0 0 0 .17.07l1.94.24c.147.026.24-.04.28-.2.08-.32.277-.57.59-.75.314-.18.724-.27 1.23-.27.614 0 1.074.143 1.38.43.307.286.46.69.46 1.21v.48c0 .066-.033.1-.1.1h-2.14c-1.32 0-2.343.29-3.07.87-.726.58-1.09 1.39-1.09 2.43 0 1 .324 1.753.97 2.26.647.506 1.47.76 2.47.76zm.58-1.84c-.493 0-.896-.117-1.21-.35-.313-.234-.47-.564-.47-.99 0-.494.204-.874.61-1.14.407-.267.964-.4 1.67-.4h1.68c.067 0 .1.033.1.1v.94c0 .533-.233.973-.7 1.32-.466.346-1.026.52-1.68.52z" fill="#AEC0FF"/>
        <path d="M.144 1.664c0 .053.019.099.056.136a.185.185 0 0 0 .136.056h7.616c.032 0 .053.013.064.04.01.027 0 .045-.032.056L4.928 3.968a.25.25 0 0 0-.128.224v.736c0 .096.043.17.128.224l3.072 2c.032.01.043.03.032.056-.01.027-.032.04-.064.04H.336a.185.185 0 0 0-.136.056.185.185 0 0 0-.056.136v1.472c0 .053.019.099.056.136a.185.185 0 0 0 .136.056h10.816a.185.185 0 0 0 .136-.056.185.185 0 0 0 .056-.136V7.44a.25.25 0 0 0-.128-.224L7.264 4.608c-.021-.01-.032-.027-.032-.048s.01-.043.032-.064l3.952-2.608a.25.25 0 0 0 .128-.224V.192a.185.185 0 0 0-.056-.136.185.185 0 0 0-.136-.056H.336A.185.185 0 0 0 .2.056a.185.185 0 0 0-.056.136v1.472zM9.44 12.549c0 .33.107.602.32.816.213.213.485.32.816.32.33 0 .603-.107.816-.32.213-.214.32-.486.32-.816 0-.331-.107-.603-.32-.816a1.105 1.105 0 0 0-.816-.32c-.33 0-.603.106-.816.32-.213.213-.32.485-.32.816zm-9.296.704c0 .053.019.098.056.136a.185.185 0 0 0 .136.056h7.808a.185.185 0 0 0 .136-.056.185.185 0 0 0 .056-.136V11.78a.185.185 0 0 0-.056-.136.185.185 0 0 0-.136-.056H.336a.185.185 0 0 0-.136.056.185.185 0 0 0-.056.136v1.472zm-.128 5.684c0 .757.277 1.37.832 1.84.032.021.043.043.032.064-.01.021-.032.032-.064.032h-.48a.185.185 0 0 0-.136.056.185.185 0 0 0-.056.136v1.472c0 .053.019.099.056.136a.185.185 0 0 0 .136.056h10.816a.185.185 0 0 0 .136-.056.185.185 0 0 0 .056-.136v-1.472a.185.185 0 0 0-.056-.136.185.185 0 0 0-.136-.056H7.68c-.032 0-.05-.01-.056-.032-.005-.021.003-.043.024-.064.533-.47.8-1.072.8-1.808 0-.79-.197-1.445-.592-1.968-.395-.523-.944-.901-1.648-1.136-.544-.181-1.195-.272-1.952-.272-.736 0-1.403.096-2 .288-.704.235-1.253.613-1.648 1.136-.395.523-.592 1.163-.592 1.92zm1.6.288c0-.608.256-1.061.768-1.36.48-.256 1.093-.384 1.84-.384.832 0 1.483.16 1.952.48.448.31.672.736.672 1.28 0 .523-.235.928-.704 1.216-.437.267-1.072.4-1.904.4-.8 0-1.419-.123-1.856-.368-.512-.299-.768-.72-.768-1.264zm-1.6 8.885c0 .757.277 1.37.832 1.84.032.021.043.042.032.064-.01.021-.032.032-.064.032h-.48a.185.185 0 0 0-.136.056.185.185 0 0 0-.056.136v1.472c0 .053.019.098.056.136a.185.185 0 0 0 .136.056h10.816a.185.185 0 0 0 .136-.056.185.185 0 0 0 .056-.136v-1.472a.185.185 0 0 0-.056-.136.185.185 0 0 0-.136-.056H7.68c-.032 0-.05-.011-.056-.032-.005-.022.003-.043.024-.064.533-.47.8-1.072.8-1.808 0-.79-.197-1.446-.592-1.968-.395-.523-.944-.902-1.648-1.136-.544-.182-1.195-.272-1.952-.272-.736 0-1.403.096-2 .288-.704.234-1.253.613-1.648 1.136-.395.522-.592 1.162-.592 1.92zm1.6.288c0-.608.256-1.062.768-1.36.48-.256 1.093-.384 1.84-.384.832 0 1.483.16 1.952.48.448.309.672.736.672 1.28 0 .522-.235.928-.704 1.216-.437.266-1.072.4-1.904.4-.8 0-1.419-.123-1.856-.368-.512-.299-.768-.72-.768-1.264zM.144 35.81c0 .054.019.099.056.136a.185.185 0 0 0 .136.056h10.816a.185.185 0 0 0 .136-.056.185.185 0 0 0 .056-.136v-1.472a.185.185 0 0 0-.056-.136.185.185 0 0 0-.136-.056H.336a.185.185 0 0 0-.136.056.185.185 0 0 0-.056.136v1.472zM0 41.767c0 .672.128 1.283.384 1.832.256.55.619.99 1.088 1.32.096.064.181.048.256-.048l.816-.992a.154.154 0 0 0 .048-.112c0-.064-.032-.117-.096-.16-.597-.427-.896-1.003-.896-1.728.01-.992.4-1.616 1.168-1.872.128-.064.368-.112.72-.144.053 0 .08.027.08.08v5.008c0 .128.064.192.192.192l.496.016c.33 0 .63-.021.896-.064 2.197-.267 3.296-1.45 3.296-3.552 0-.832-.216-1.544-.648-2.136-.432-.592-1.021-.995-1.768-1.208-.384-.128-.885-.192-1.504-.192-1.024 0-1.824.123-2.4.368A3.222 3.222 0 0 0 .56 39.647c-.373.581-.56 1.288-.56 2.12zm4.944 1.424v-3.248c0-.064.027-.085.08-.064.288.021.523.064.704.128.352.107.627.29.824.552.197.261.296.59.296.984 0 .427-.107.781-.32 1.064-.213.283-.512.472-.896.568a3.016 3.016 0 0 1-.608.096c-.053 0-.08-.027-.08-.08zM.144 58.08c0 .053.019.099.056.136a.185.185 0 0 0 .136.056h1.216a.185.185 0 0 0 .136-.056.185.185 0 0 0 .056-.136v-5.456c0-.053.027-.08.08-.08h3.088c.053 0 .08.027.08.08v3.664c0 .053.019.099.056.136a.185.185 0 0 0 .136.056H6.4a.185.185 0 0 0 .136-.056.185.185 0 0 0 .056-.136v-3.664c0-.053.027-.08.08-.08h2.992c.053 0 .08.027.08.08v5.456c0 .053.019.099.056.136a.185.185 0 0 0 .136.056h1.216a.185.185 0 0 0 .136-.056.185.185 0 0 0 .056-.136v-7.2a.185.185 0 0 0-.056-.136.185.185 0 0 0-.136-.056H.336a.185.185 0 0 0-.136.056.185.185 0 0 0-.056.136v7.2zm-.128 4.405c0 .992.288 1.749.864 2.272.021.02.03.042.024.064-.005.02-.024.032-.056.032H.336a.185.185 0 0 0-.136.056.185.185 0 0 0-.056.136v1.472c0 .053.019.098.056.136a.185.185 0 0 0 .136.056h5.392c.523 0 .99-.14 1.4-.416.41-.278.733-.672.968-1.184.235-.512.352-1.104.352-1.776 0-.928-.208-1.7-.624-2.312-.416-.614-.95-.963-1.6-1.048-.043-.011-.077.002-.104.04a.348.348 0 0 0-.056.136L5.872 61.7c-.021.117.032.192.16.224a.94.94 0 0 1 .6.472c.144.25.216.578.216.984 0 .49-.115.858-.344 1.104-.23.245-.552.368-.968.368h-.384c-.053 0-.08-.027-.08-.08V63.06c0-1.056-.232-1.875-.696-2.456-.464-.582-1.112-.872-1.944-.872-.8 0-1.403.258-1.808.776-.405.517-.608 1.176-.608 1.976zm1.472.464c0-.395.093-.718.28-.968.187-.251.45-.376.792-.376.395 0 .699.162.912.488.213.325.32.77.32 1.336v1.344c0 .053-.027.08-.08.08H2.96c-.427 0-.779-.187-1.056-.56-.277-.374-.416-.822-.416-1.344zm-1.44 8.884c0 .992.216 1.787.648 2.384.432.597 1.027.896 1.784.896.501 0 .91-.133 1.224-.4a2.78 2.78 0 0 0 .736-.976c.176-.384.35-.859.52-1.424l.096-.352c.16-.587.307-1.005.44-1.256.133-.25.328-.376.584-.376.277 0 .493.13.648.392.155.261.232.6.232 1.016 0 .47-.093.84-.28 1.112-.187.272-.419.408-.696.408a.185.185 0 0 0-.136.056.185.185 0 0 0-.056.136v1.36c0 .053.019.099.056.136a.185.185 0 0 0 .136.056c.47 0 .888-.133 1.256-.4s.656-.645.864-1.136c.208-.49.312-1.061.312-1.712 0-.96-.221-1.733-.664-2.32-.443-.587-1.037-.88-1.784-.88-.49 0-.893.128-1.208.384-.315.256-.563.57-.744.944a8.997 8.997 0 0 0-.512 1.376l-.192.608c-.139.49-.27.845-.392 1.064a.595.595 0 0 1-.552.328c-.267 0-.488-.133-.664-.4-.176-.267-.264-.613-.264-1.04 0-.448.099-.819.296-1.112.197-.293.43-.44.696-.44h.032a.185.185 0 0 0 .136-.056.185.185 0 0 0 .056-.136v-1.408a.185.185 0 0 0-.056-.136.185.185 0 0 0-.136-.056H2.32c-.427 0-.813.139-1.16.416-.347.277-.619.67-.816 1.176-.197.507-.296 1.096-.296 1.768zm.064 8.245.016.832c.021.128.09.192.208.192h1.2a.185.185 0 0 0 .136-.056.185.185 0 0 0 .056-.136v-.48c0-.384.09-.664.272-.84.181-.176.475-.264.88-.264h3.856c.053 0 .08.026.08.08v1.632c0 .053.019.098.056.136a.185.185 0 0 0 .136.056h1.12a.185.185 0 0 0 .136-.056.185.185 0 0 0 .056-.136v-1.632c0-.054.027-.08.08-.08h1.872a.185.185 0 0 0 .136-.056.185.185 0 0 0 .056-.136v-1.392a.185.185 0 0 0-.056-.136.185.185 0 0 0-.136-.056H8.4c-.053 0-.08-.027-.08-.08v-.912a.185.185 0 0 0-.056-.136.185.185 0 0 0-.136-.056h-1.12a.185.185 0 0 0-.136.056.185.185 0 0 0-.056.136v.912c0 .053-.027.08-.08.08h-4.56c-.8.01-1.344.224-1.632.64-.288.416-.432 1.045-.432 1.888zm-.096 8.729c0 .992.288 1.75.864 2.272.021.021.03.043.024.064-.005.021-.024.032-.056.032H.336a.185.185 0 0 0-.136.056.185.185 0 0 0-.056.136v1.472c0 .053.019.099.056.136a.185.185 0 0 0 .136.056h5.392c.523 0 .99-.139 1.4-.416.41-.277.733-.672.968-1.184.235-.512.352-1.104.352-1.776 0-.928-.208-1.699-.624-2.312-.416-.613-.95-.963-1.6-1.048-.043-.01-.077.003-.104.04a.348.348 0 0 0-.056.136l-.192 1.552c-.021.117.032.192.16.224a.94.94 0 0 1 .6.472c.144.25.216.579.216.984 0 .49-.115.859-.344 1.104-.23.245-.552.368-.968.368h-.384c-.053 0-.08-.027-.08-.08v-1.712c0-1.056-.232-1.875-.696-2.456-.464-.581-1.112-.872-1.944-.872-.8 0-1.403.259-1.808.776s-.608 1.176-.608 1.976zm1.472.464c0-.395.093-.717.28-.968.187-.25.45-.376.792-.376.395 0 .699.163.912.488.213.325.32.77.32 1.336v1.344c0 .053-.027.08-.08.08H2.96c-.427 0-.779-.187-1.056-.56-.277-.373-.416-.821-.416-1.344zM.144 96.779c0 .054.019.1.056.136a.185.185 0 0 0 .136.056h4.88c.49 0 .885.142 1.184.424.299.283.448.654.448 1.112 0 .46-.152.827-.456 1.104-.304.278-.701.416-1.192.416H.336a.185.185 0 0 0-.136.056.185.185 0 0 0-.056.136v1.472c0 .054.019.1.056.136a.185.185 0 0 0 .136.056h5.248c.885 0 1.584-.258 2.096-.776.512-.517.768-1.208.768-2.072 0-.885-.288-1.546-.864-1.984-.032-.01-.043-.026-.032-.048.01-.02.032-.032.064-.032h.512a.185.185 0 0 0 .136-.056.185.185 0 0 0 .056-.136v-1.472a.185.185 0 0 0-.056-.136.185.185 0 0 0-.136-.056H.336a.185.185 0 0 0-.136.056.185.185 0 0 0-.056.136v1.472zM.016 107.12c0 .757.277 1.37.832 1.84.032.021.043.043.032.064-.01.021-.032.032-.064.032h-.48a.185.185 0 0 0-.136.056.185.185 0 0 0-.056.136v1.472c0 .053.019.099.056.136a.185.185 0 0 0 .136.056h10.816a.185.185 0 0 0 .136-.056.185.185 0 0 0 .056-.136v-1.472a.185.185 0 0 0-.056-.136.185.185 0 0 0-.136-.056H7.68c-.032 0-.05-.01-.056-.032-.005-.021.003-.043.024-.064.533-.47.8-1.072.8-1.808 0-.79-.197-1.445-.592-1.968-.395-.523-.944-.901-1.648-1.136-.544-.181-1.195-.272-1.952-.272-.736 0-1.403.096-2 .288-.704.235-1.253.613-1.648 1.136-.395.523-.592 1.163-.592 1.92zm1.6.288c0-.608.256-1.061.768-1.36.48-.256 1.093-.384 1.84-.384.832 0 1.483.16 1.952.48.448.31.672.736.672 1.28 0 .523-.235.928-.704 1.216-.437.267-1.072.4-1.904.4-.8 0-1.419-.123-1.856-.368-.512-.299-.768-.72-.768-1.264zM.144 118.425c0 .053.019.099.056.136a.185.185 0 0 0 .136.056l7.456-.032c.043 0 .067.01.072.032.005.021-.008.043-.04.064L.272 123.29c-.085.043-.128.117-.128.224v1.424c0 .053.019.099.056.136a.185.185 0 0 0 .136.056h10.816a.185.185 0 0 0 .136-.056.185.185 0 0 0 .056-.136v-1.472a.185.185 0 0 0-.056-.136.185.185 0 0 0-.136-.056l-7.456.016c-.043 0-.067-.01-.072-.032-.005-.021.008-.043.04-.064l7.552-4.592c.085-.043.128-.117.128-.224v-1.424a.185.185 0 0 0-.056-.136.185.185 0 0 0-.136-.056H.336a.185.185 0 0 0-.136.056.185.185 0 0 0-.056.136v1.472zM.016 130.99c0 .821.216 1.53.648 2.128.432.597 1.027 1.018 1.784 1.264a5.747 5.747 0 0 0 1.824.272c.704 0 1.312-.096 1.824-.288.736-.246 1.312-.664 1.728-1.256.416-.592.624-1.294.624-2.104 0-.854-.208-1.584-.624-2.192-.416-.608-.997-1.035-1.744-1.28-.533-.171-1.141-.256-1.824-.256-.64 0-1.248.09-1.824.272-.757.245-1.35.669-1.776 1.272-.427.602-.64 1.325-.64 2.168zm1.6 0c0-.416.112-.771.336-1.064.224-.294.539-.499.944-.616.373-.107.821-.16 1.344-.16.523 0 .97.053 1.344.16.405.128.717.336.936.624.219.288.328.629.328 1.024 0 .416-.11.768-.328 1.056-.219.288-.53.49-.936.608-.32.106-.768.16-1.344.16-.544 0-.992-.054-1.344-.16-.405-.128-.72-.334-.944-.616a1.586 1.586 0 0 1-.336-1.016zm-1.472 7.316c0 .054.019.099.056.136a.185.185 0 0 0 .136.056h4.528c.47 0 .85.15 1.144.448.293.299.45.672.472 1.12.01.075.016.182.016.32 0 .214-.027.4-.08.56-.053.139-.016.214.112.224l1.44.272c.117.022.197-.01.24-.096.139-.256.208-.554.208-.896 0-.8-.347-1.424-1.04-1.872-.032-.021-.045-.04-.04-.056.005-.016.03-.024.072-.024h.72a.185.185 0 0 0 .136-.056.185.185 0 0 0 .056-.136v-1.472a.185.185 0 0 0-.056-.136.185.185 0 0 0-.136-.056H.336a.185.185 0 0 0-.136.056.185.185 0 0 0-.056.136v1.472zm-.032 7.909.016.832c.021.128.09.192.208.192h1.2a.185.185 0 0 0 .136-.056.185.185 0 0 0 .056-.136v-.48c0-.384.09-.664.272-.84.181-.176.475-.264.88-.264h3.856c.053 0 .08.027.08.08v1.632c0 .053.019.099.056.136a.185.185 0 0 0 .136.056h1.12a.185.185 0 0 0 .136-.056.185.185 0 0 0 .056-.136v-1.632c0-.053.027-.08.08-.08h1.872a.185.185 0 0 0 .136-.056.185.185 0 0 0 .056-.136v-1.392a.185.185 0 0 0-.056-.136.185.185 0 0 0-.136-.056H8.4c-.053 0-.08-.027-.08-.08v-.912a.185.185 0 0 0-.056-.136.185.185 0 0 0-.136-.056h-1.12a.185.185 0 0 0-.136.056.185.185 0 0 0-.056.136v.912c0 .053-.027.08-.08.08h-4.56c-.8.01-1.344.224-1.632.64-.288.416-.432 1.045-.432 1.888zm.032 4.692c0 .054.019.1.056.136a.185.185 0 0 0 .136.056h4.88c.49 0 .885.142 1.184.424.299.283.448.654.448 1.112 0 .46-.152.827-.456 1.104-.304.278-.701.416-1.192.416H.336a.185.185 0 0 0-.136.056.185.185 0 0 0-.056.136v1.472c0 .054.019.1.056.136a.185.185 0 0 0 .136.056h5.248c.885 0 1.584-.258 2.096-.776.512-.517.768-1.208.768-2.072 0-.885-.288-1.546-.864-1.984-.032-.01-.043-.026-.032-.048.01-.02.032-.032.064-.032h3.536a.185.185 0 0 0 .136-.056.185.185 0 0 0 .056-.136v-1.472a.185.185 0 0 0-.056-.136.185.185 0 0 0-.136-.056H.336a.185.185 0 0 0-.136.056.185.185 0 0 0-.056.136v1.472zm0 11.962c0 .106.053.176.16.208l1.712.528c.043.02.064.048.064.08v4.224c0 .032-.021.058-.064.08l-1.712.528c-.107.032-.16.1-.16.208v1.6c0 .117.048.176.144.176a.178.178 0 0 0 .08-.016l10.816-3.488c.107-.032.16-.102.16-.208v-2c0-.107-.053-.176-.16-.208L.368 161.109c-.075-.022-.13-.016-.168.016-.037.032-.056.08-.056.144v1.6zm3.392 4.544v-3.248c0-.054.032-.075.096-.064l5.36 1.632c.043.01.064.026.064.048 0 .02-.021.037-.064.048l-5.36 1.648c-.064.02-.096 0-.096-.064zm-3.392 6.82c0 .053.019.099.056.136a.185.185 0 0 0 .136.056h6.272c.053 0 .08.027.08.08v1.584c0 .053.019.099.056.136a.185.185 0 0 0 .136.056h1.264a.185.185 0 0 0 .136-.056.185.185 0 0 0 .056-.136v-1.584c0-.053.027-.08.08-.08h.16c.48 0 .81.088.992.264.181.176.272.493.272.952v.416c0 .053.019.099.056.136a.185.185 0 0 0 .136.056h1.12a.185.185 0 0 0 .136-.056.185.185 0 0 0 .056-.136v-.836c-.01-.625-.084-1.12-.224-1.484a1.578 1.578 0 0 0-.808-.896c-.379-.181-.915-.272-1.608-.272h-.288c-.053 0-.08-.027-.08-.08v-.992a.185.185 0 0 0-.056-.136.185.185 0 0 0-.136-.056H6.88a.185.185 0 0 0-.136.056.185.185 0 0 0-.056.136v.992c0 .053-.027.08-.08.08H.336a.185.185 0 0 0-.136.056.185.185 0 0 0-.056.136v1.472zm0 5.509c0 .053.019.098.056.136a.185.185 0 0 0 .136.056h4.528c.47 0 .85.149 1.144.448.293.298.45.672.472 1.12.01.074.016.181.016.32 0 .213-.027.4-.08.56-.053.138-.016.213.112.224l1.44.272c.117.021.197-.011.24-.096.139-.256.208-.555.208-.896 0-.8-.347-1.424-1.04-1.872-.032-.022-.045-.04-.04-.056.005-.016.03-.024.072-.024h.72a.185.185 0 0 0 .136-.056.185.185 0 0 0 .056-.136v-1.472a.185.185 0 0 0-.056-.136.185.185 0 0 0-.136-.056H.336a.185.185 0 0 0-.136.056.185.185 0 0 0-.056.136v1.472zm9.296 5.636c0 .331.107.603.32.816.213.214.485.32.816.32.33 0 .603-.106.816-.32.213-.213.32-.485.32-.816 0-.33-.107-.602-.32-.816a1.105 1.105 0 0 0-.816-.32c-.33 0-.603.107-.816.32-.213.214-.32.486-.32.816zm-9.296.704c0 .054.019.099.056.136a.185.185 0 0 0 .136.056h7.808a.185.185 0 0 0 .136-.056.185.185 0 0 0 .056-.136v-1.472a.185.185 0 0 0-.056-.136.185.185 0 0 0-.136-.056H.336a.185.185 0 0 0-.136.056.185.185 0 0 0-.056.136v1.472zm-.128 5.957c0 .832.2 1.557.6 2.176.4.619.941 1.03 1.624 1.232.075.021.197.048.368.08.064.01.115-.003.152-.04a.26.26 0 0 0 .072-.136l.224-1.44c.021-.117-.032-.192-.16-.224-.021 0-.037-.005-.048-.016a.178.178 0 0 1-.08-.016 1.402 1.402 0 0 1-.84-.568c-.208-.293-.312-.643-.312-1.048 0-.416.11-.763.328-1.04.219-.277.515-.47.888-.576.363-.096.837-.144 1.424-.144.608 0 1.083.053 1.424.16.363.096.648.285.856.568.208.283.312.627.312 1.032 0 .395-.096.736-.288 1.024-.192.288-.437.48-.736.576a3.075 3.075 0 0 1-.224.064.416.416 0 0 1-.128.016c-.107.032-.16.096-.16.192v.032l.208 1.44c.021.117.085.176.192.176h.032c.17-.021.341-.059.512-.112.63-.203 1.152-.613 1.568-1.232.416-.619.624-1.344.624-2.176 0-.821-.205-1.533-.616-2.136a3.106 3.106 0 0 0-1.672-1.24c-.49-.17-1.12-.256-1.888-.256-.8 0-1.44.085-1.92.256a3.279 3.279 0 0 0-1.704 1.248c-.421.597-.632 1.307-.632 2.128zm0 7.588c0 .992.288 1.75.864 2.272.021.022.03.043.024.064-.005.022-.024.032-.056.032H.336a.185.185 0 0 0-.136.056.185.185 0 0 0-.056.136v1.472c0 .054.019.1.056.136a.185.185 0 0 0 .136.056h5.392c.523 0 .99-.138 1.4-.416.41-.277.733-.672.968-1.184.235-.512.352-1.104.352-1.776 0-.928-.208-1.698-.624-2.312-.416-.613-.95-.962-1.6-1.048-.043-.01-.077.003-.104.04a.348.348 0 0 0-.056.136l-.192 1.552c-.021.118.032.192.16.224a.94.94 0 0 1 .6.472c.144.251.216.58.216.984 0 .491-.115.86-.344 1.104-.23.246-.552.368-.968.368h-.384c-.053 0-.08-.026-.08-.08v-1.712c0-1.056-.232-1.874-.696-2.456-.464-.58-1.112-.872-1.944-.872-.8 0-1.403.26-1.808.776-.405.518-.608 1.176-.608 1.976zm1.472.464c0-.394.093-.717.28-.968.187-.25.45-.376.792-.376.395 0 .699.163.912.488.213.326.32.771.32 1.336v1.344c0 .054-.027.08-.08.08H2.96c-.427 0-.779-.186-1.056-.56-.277-.373-.416-.82-.416-1.344z" fill="#92A4DF"/>
        <g opacity=".7">
            <use fill="#FFF" xlink:href="#a"/>
            <use fill="#96AEFF" xlink:href="#a"/>
        </g>
        <g fill="#5F6368">
            <use xlink:href="#b"/>
            <use xlink:href="#b"/>
        </g>
        <g fill="#5F6368">
            <path d="M370.128 83.138c.093 0 .154-.047.182-.14l2.982-9.464c.018-.056.014-.103-.014-.14-.028-.038-.07-.056-.126-.056h-1.358c-.103 0-.168.046-.196.14l-2.086 7.308c-.01.028-.024.042-.042.042-.02 0-.033-.014-.042-.042l-2.1-7.308c-.028-.094-.094-.14-.196-.14h-1.386c-.103 0-.154.046-.154.14l.014.056 2.94 9.464c.028.093.088.14.182.14h1.4zm6.256.112c.868 0 1.53-.252 1.988-.756.018-.019.037-.026.056-.021.018.004.028.02.028.049v.448c0 .046.016.086.049.119a.162.162 0 0 0 .119.049h1.288a.162.162 0 0 0 .119-.05.162.162 0 0 0 .049-.118v-4.718c0-.458-.122-.866-.364-1.225-.243-.36-.588-.642-1.036-.847-.448-.206-.966-.308-1.554-.308-.812 0-1.487.182-2.023.546-.537.364-.843.83-.917 1.4-.01.037.002.067.035.09.032.024.072.04.119.05l1.358.168c.102.018.168-.028.196-.14a.822.822 0 0 1 .413-.525c.219-.126.506-.19.86-.19.43 0 .752.101.967.302.214.2.322.483.322.847v.336c0 .046-.024.07-.07.07h-1.498c-.924 0-1.64.203-2.15.609-.508.406-.762.973-.762 1.7 0 .7.226 1.228.679 1.583.452.354 1.029.532 1.729.532zm.406-1.288c-.346 0-.628-.082-.847-.245-.22-.164-.33-.395-.33-.693 0-.346.143-.612.428-.798.284-.187.674-.28 1.169-.28h1.176c.046 0 .07.023.07.07v.658c0 .373-.164.681-.49.924-.327.242-.72.364-1.176.364zm6.97 1.176a.162.162 0 0 0 .119-.05.162.162 0 0 0 .049-.118v-9.464a.162.162 0 0 0-.05-.12.162.162 0 0 0-.118-.048h-1.288a.162.162 0 0 0-.12.049.162.162 0 0 0-.048.119v9.464c0 .046.016.086.049.119a.162.162 0 0 0 .119.049h1.288zm4.912.098c.765 0 1.339-.248 1.722-.742.018-.028.037-.038.056-.028.018.009.028.028.028.056v.448c0 .046.016.086.049.119a.162.162 0 0 0 .119.049h1.274a.162.162 0 0 0 .119-.05.162.162 0 0 0 .049-.118v-6.818a.162.162 0 0 0-.05-.12.162.162 0 0 0-.118-.048h-1.274a.162.162 0 0 0-.12.049.162.162 0 0 0-.048.119v4.256c0 .438-.126.788-.378 1.05-.252.261-.588.392-1.008.392-.411 0-.73-.131-.96-.392-.228-.262-.342-.612-.342-1.05v-4.256a.162.162 0 0 0-.05-.12.162.162 0 0 0-.118-.048h-1.288a.162.162 0 0 0-.12.049.162.162 0 0 0-.048.119v4.718c0 .756.24 1.339.72 1.75.481.41 1.076.616 1.786.616zm8.874.028c.588 0 1.122-.112 1.603-.336a2.86 2.86 0 0 0 1.155-.952c.056-.084.042-.159-.042-.224l-.868-.714a.134.134 0 0 0-.098-.042c-.056 0-.103.028-.14.084-.374.522-.878.784-1.512.784-.868-.01-1.414-.35-1.638-1.022-.056-.112-.098-.322-.126-.63 0-.047.023-.07.07-.07h4.382c.112 0 .168-.056.168-.168l.014-.434c0-.29-.02-.551-.056-.784-.234-1.923-1.27-2.884-3.108-2.884-.728 0-1.351.189-1.87.567-.517.378-.87.893-1.056 1.547-.112.336-.168.774-.168 1.316 0 .896.107 1.596.322 2.1a2.82 2.82 0 0 0 1.113 1.372c.508.326 1.127.49 1.855.49zm1.246-4.326h-2.842c-.056 0-.075-.024-.056-.07a2.43 2.43 0 0 1 .112-.616c.093-.308.254-.549.483-.721.228-.173.515-.26.86-.26.374 0 .684.094.932.28.247.187.413.449.497.785.037.121.065.298.084.532 0 .046-.024.07-.07.07zM538.35 94.2l-.484.874a3.482 3.482 0 0 0-1.694-.436v-1c.772 0 1.517.195 2.179.562zm2.322 5.815h-1l-.002-1.994 1-.032.002.139v1.887zm0 6h-1v-2h1v2zm0 6h-1v-2h1v2zm0 6h-1v-2h1v2zm-1.99 5.857-.558-.83c.491-.33.893-.781 1.163-1.308l.89.457a4.518 4.518 0 0 1-1.494 1.681zm-6.265.766v-1h2v1h-2zm-6 0v-1h2v1h-2zm-6 0v-1h2v1h-2zm-6 0v-1h2v1h-2zm-6 0v-1h2v1h-2zm-6 0v-1h2v1h-2zm-6 0v-1h2v1h-2zm-6 0v-1h2v1h-2zm-6 0v-1h2v1h-2zm-6 0v-1h2v1h-2zm-6 0v-1h2v1h-2zm-6 0v-1h2v1h-2zm-6 0v-1h2v1h-2zm-6 0v-1h2v1h-2zm-6 0v-1h2v1h-2zm-6 0v-1h2v1h-2zm-6 0v-1h2v1h-2zm-6 0v-1h2v1h-2zm-6 0v-1h2v1h-2zm-6 0v-1h2v1h-2zm-6 0v-1h2v1h-2zm-6 0v-1h2v1h-2zm-6 0v-1h2v1h-2zm-6 0v-1h2v1h-2zm-6 0v-1h2v1h-2zm-6 0v-1h2v1h-2zm-6 0v-1h2v1h-2zm-6 0v-1h2v1h-2zm-5.454-2.904.935-.355c.21.554.56 1.046 1.011 1.43l-.647.762a4.508 4.508 0 0 1-1.299-1.837zm-.291-6.227h1v2h-1v-2zm0-6h1v2h-1v-2zm0-6h1v2h-1v-2zm.055-6.076.988.156a3.53 3.53 0 0 0-.043.55v1.37h-1v-1.37c0-.238.018-.474.055-.706zm4.952-3.793.002 1h-.584c-.444.01-.875.102-1.277.27l-.386-.922a4.495 4.495 0 0 1 1.652-.347l.593-.001zm6 0v1h-2v-1h2zm6 0v1h-2v-1h2zm6 0v1h-2v-1h2zm6 0v1h-2v-1h2zm6 0v1h-2v-1h2zm6 0v1h-2v-1h2zm6 0v1h-2v-1h2zm6 0v1h-2v-1h2zm6 0v1h-2v-1h2zm6 0v1h-2v-1h2zm6 0v1h-2v-1h2zm6 0v1h-2v-1h2zm6 0v1h-2v-1h2zm6 0v1h-2v-1h2zm6 0v1h-2v-1h2zm6 0v1h-2v-1h2zm6 0v1h-2v-1h2zm6 0v1h-2v-1h2zm6 0v1h-2v-1h2zm6 0v1h-2v-1h2zm6 0v1h-2v-1h2zm6 0v1h-2v-1h2zm6 0v1h-2v-1h2zm6 0v1h-2v-1h2zm6 0v1h-2v-1h2zm6 0v1h-2v-1h2zm6 0v1h-2v-1h2zm4.493 0v1h-.492v-1h.492zM376.348 114.138c.072 0 .12-.032.144-.096l.48-1.512c.008-.024.024-.036.048-.036h3.588c.024 0 .04.012.048.036l.48 1.512c.024.064.072.096.144.096h.648c.072 0 .108-.028.108-.084l-.012-.048-2.664-8.172c-.024-.064-.072-.096-.144-.096h-.816c-.072 0-.12.032-.144.096l-2.652 8.172c-.024.088.008.132.096.132h.648zm4.008-2.34h-3.096a.058.058 0 0 1-.042-.018c-.012-.012-.014-.026-.006-.042l1.56-4.896c.008-.016.02-.024.036-.024.016 0 .028.008.036.024l1.56 4.896c.008.016.006.03-.006.042a.058.058 0 0 1-.042.018zm4.671 4.728c.904 0 1.614-.208 2.13-.624.516-.416.774-1.072.774-1.968v-5.748c0-.08-.04-.12-.12-.12h-.612c-.08 0-.12.04-.12.12v.468a.04.04 0 0 1-.018.036c-.012.008-.026.004-.042-.012-.368-.472-.908-.708-1.62-.708-.528 0-.98.146-1.356.438a2.24 2.24 0 0 0-.78 1.158 2.78 2.78 0 0 0-.126.648c-.02.24-.03.536-.03.888 0 .648.048 1.136.144 1.464.136.512.406.908.81 1.188.404.28.866.42 1.386.42.68 0 1.204-.24 1.572-.72.016-.016.03-.022.042-.018.012.004.018.014.018.03v.444c0 .632-.168 1.094-.504 1.386-.336.292-.876.438-1.62.438l-.324-.012a.09.09 0 0 0-.084.018c-.024.02-.036.05-.036.09l-.024.552c0 .08.04.124.12.132.096.008.236.012.42.012zm.552-3.072c-.384 0-.71-.11-.978-.33a1.502 1.502 0 0 1-.522-.834c-.08-.224-.12-.628-.12-1.212 0-.544.04-.944.12-1.2.104-.344.286-.624.546-.84.26-.216.578-.324.954-.324.384 0 .702.11.954.33.252.22.41.498.474.834.032.12.052.25.06.39s.012.414.012.822c0 .336-.004.592-.012.768a3.011 3.011 0 0 1-.048.444 1.404 1.404 0 0 1-.474.828c-.252.216-.574.324-.966.324zm6.04 3.072c.903 0 1.613-.208 2.13-.624.515-.416.773-1.072.773-1.968v-5.748c0-.08-.04-.12-.12-.12h-.612c-.08 0-.12.04-.12.12v.468a.04.04 0 0 1-.018.036c-.012.008-.026.004-.042-.012-.368-.472-.908-.708-1.62-.708-.528 0-.98.146-1.356.438a2.24 2.24 0 0 0-.78 1.158 2.78 2.78 0 0 0-.126.648c-.02.24-.03.536-.03.888 0 .648.048 1.136.144 1.464.136.512.406.908.81 1.188.404.28.866.42 1.386.42.68 0 1.204-.24 1.572-.72.016-.016.03-.022.042-.018.012.004.018.014.018.03v.444c0 .632-.168 1.094-.504 1.386-.336.292-.876.438-1.62.438l-.324-.012a.09.09 0 0 0-.084.018c-.024.02-.036.05-.036.09l-.024.552c0 .08.04.124.12.132.096.008.236.012.42.012zm.551-3.072c-.384 0-.71-.11-.978-.33a1.502 1.502 0 0 1-.522-.834c-.08-.224-.12-.628-.12-1.212 0-.544.04-.944.12-1.2.104-.344.286-.624.546-.84.26-.216.578-.324.954-.324.384 0 .702.11.954.33.252.22.41.498.474.834.032.12.052.25.06.39s.012.414.012.822v.192c-.001.243-.005.435-.012.576a3.011 3.011 0 0 1-.048.444 1.404 1.404 0 0 1-.474.828c-.252.216-.574.324-.966.324zm5.08.684c.08 0 .12-.04.12-.12v-3.54c0-.448.136-.818.408-1.11a1.43 1.43 0 0 1 1.032-.462l.156-.012c.176 0 .332.028.468.084.08.032.132.008.156-.072l.132-.588c.016-.072-.008-.124-.072-.156a1.416 1.416 0 0 0-.684-.156c-.344 0-.646.082-.906.246a1.91 1.91 0 0 0-.642.69c-.008.016-.018.022-.03.018s-.018-.018-.018-.042v-.732c0-.08-.04-.12-.12-.12h-.612c-.08 0-.12.04-.12.12v5.832c0 .08.04.12.12.12h.612zm6.04.108c.52 0 .98-.11 1.38-.33.4-.22.7-.522.9-.906.031-.072.015-.128-.049-.168l-.468-.276c-.064-.04-.12-.024-.168.048-.144.28-.344.496-.6.648a1.706 1.706 0 0 1-.888.228c-.448 0-.816-.104-1.104-.312a1.435 1.435 0 0 1-.564-.852c-.032-.128-.056-.412-.072-.852 0-.032.016-.048.048-.048h3.876c.08 0 .12-.04.12-.12v-.384c0-.336-.016-.616-.048-.84-.096-.672-.34-1.192-.732-1.56-.392-.368-.952-.552-1.68-.552-.584 0-1.082.156-1.494.468a2.223 2.223 0 0 0-.822 1.248 2.618 2.618 0 0 0-.09.57c-.012.212-.018.486-.018.822 0 .72.072 1.272.216 1.656.168.472.444.84.828 1.104.384.264.86.4 1.428.408zm1.523-3.54h-3.108c-.032 0-.048-.016-.048-.048.016-.376.048-.648.096-.816.08-.344.25-.618.51-.822.26-.204.586-.306.978-.306.408 0 .746.106 1.014.318.268.212.446.498.534.858.032.152.056.408.072.768 0 .032-.016.048-.048.048zm4.444 5.82c.904 0 1.614-.208 2.13-.624.516-.416.774-1.072.774-1.968v-5.748c0-.08-.04-.12-.12-.12h-.612c-.08 0-.12.04-.12.12v.468a.04.04 0 0 1-.018.036c-.012.008-.026.004-.042-.012-.368-.472-.908-.708-1.62-.708-.528 0-.98.146-1.356.438a2.24 2.24 0 0 0-.78 1.158 2.78 2.78 0 0 0-.126.648c-.02.24-.03.536-.03.888 0 .648.048 1.136.144 1.464.136.512.406.908.81 1.188.404.28.866.42 1.386.42.68 0 1.204-.24 1.572-.72.016-.016.03-.022.042-.018.012.004.018.014.018.03v.444c0 .632-.168 1.094-.504 1.386-.336.292-.876.438-1.62.438l-.324-.012a.09.09 0 0 0-.084.018c-.024.02-.036.05-.036.09l-.024.552c0 .08.04.124.12.132.096.008.236.012.42.012zm.552-3.072c-.384 0-.71-.11-.978-.33a1.502 1.502 0 0 1-.522-.834c-.08-.224-.12-.628-.12-1.212 0-.544.04-.944.12-1.2.104-.344.286-.624.546-.84.26-.216.578-.324.954-.324.384 0 .702.11.954.33.252.22.41.498.474.834.032.12.052.25.06.39s.012.414.012.822c0 .336-.004.592-.012.768a3.011 3.011 0 0 1-.048.444 1.404 1.404 0 0 1-.474.828c-.252.216-.574.324-.966.324zm5.943.78c.392 0 .748-.062 1.068-.186.32-.124.58-.306.78-.546.016-.016.03-.02.042-.012a.04.04 0 0 1 .018.036v.492c0 .08.04.12.12.12h.612c.08 0 .12-.04.12-.12v-4.032c0-.608-.196-1.096-.588-1.464-.392-.368-.948-.552-1.668-.552-.624 0-1.144.14-1.56.42-.416.28-.656.644-.72 1.092-.016.048.02.08.108.096l.648.084c.072.008.12-.028.144-.108a.93.93 0 0 1 .444-.618c.24-.148.552-.222.936-.222.48 0 .834.118 1.062.354.228.236.342.558.342.966v.456c0 .032-.016.048-.048.048h-1.392c-.776 0-1.382.174-1.818.522-.436.348-.654.822-.654 1.422 0 .592.192 1.032.576 1.32.384.288.86.432 1.428.432zm.168-.732c-.392 0-.71-.09-.954-.27-.244-.18-.366-.446-.366-.798 0-.384.16-.684.48-.9.32-.216.744-.324 1.272-.324h1.26c.032 0 .048.016.048.048v.936c0 .4-.172.718-.516.954-.344.236-.752.354-1.224.354zm6.616.648c.2 0 .348-.004.444-.012.08 0 .12-.04.12-.12v-.492c0-.08-.04-.12-.12-.12h-.3c-.368 0-.638-.078-.81-.234-.172-.156-.258-.426-.258-.81v-3.54c0-.032.016-.048.048-.048h1.356c.08 0 .12-.04.12-.12v-.468c0-.08-.04-.12-.12-.12h-1.356c-.032 0-.048-.016-.048-.048v-1.392c0-.08-.04-.12-.12-.12h-.588c-.08 0-.12.04-.12.12v1.392c0 .032-.016.048-.048.048h-.732c-.08 0-.12.04-.12.12v.468c0 .08.04.12.12.12h.732c.032 0 .048.016.048.048v3.804c0 .584.148.984.444 1.2.296.216.732.324 1.308.324zm2.991-7.188a.651.651 0 0 0 .48-.192.651.651 0 0 0 .192-.48.646.646 0 0 0-.672-.672.646.646 0 0 0-.672.672c0 .192.064.352.192.48a.651.651 0 0 0 .48.192zm.276 7.164c.08 0 .12-.04.12-.12v-5.832c0-.08-.04-.12-.12-.12h-.612c-.08 0-.12.04-.12.12v5.832c0 .08.04.12.12.12h.612zm4.695.108c.576 0 1.07-.148 1.482-.444.412-.296.694-.704.846-1.224.112-.336.168-.828.168-1.476 0-.64-.056-1.132-.168-1.476a2.224 2.224 0 0 0-.846-1.2c-.412-.296-.902-.444-1.47-.444-.592 0-1.096.148-1.512.444-.416.296-.7.7-.852 1.212-.112.36-.168.848-.168 1.464s.056 1.108.168 1.476c.16.52.448.928.864 1.224.416.296.912.444 1.488.444zm0-.744c-.4 0-.738-.106-1.014-.318a1.492 1.492 0 0 1-.546-.858c-.064-.28-.096-.684-.096-1.212 0-.528.032-.932.096-1.212.096-.36.28-.646.552-.858.272-.212.604-.318.996-.318s.726.106 1.002.318c.276.212.462.498.558.858.064.28.096.684.096 1.212 0 .52-.036.924-.108 1.212-.096.36-.28.646-.552.858-.272.212-.6.318-.984.318zm5.128.648c.08 0 .12-.04.12-.12v-3.816c0-.44.136-.796.408-1.068.272-.272.628-.408 1.068-.408.424 0 .77.14 1.038.42.268.28.402.64.402 1.08v3.792c0 .08.04.12.12.12h.612c.08 0 .12-.04.12-.12v-3.96c0-.632-.19-1.136-.57-1.512-.38-.376-.89-.564-1.53-.564-.728 0-1.268.248-1.62.744-.008.016-.018.02-.03.012a.04.04 0 0 1-.018-.036v-.516c0-.08-.04-.12-.12-.12h-.612c-.08 0-.12.04-.12.12v5.832c0 .08.04.12.12.12h.612zm11.07.096c.88 0 1.569-.2 2.065-.6.496-.4.744-.936.744-1.608 0-.432-.11-.798-.33-1.098a2.81 2.81 0 0 0-.864-.762 11.633 11.633 0 0 0-1.41-.672 15.418 15.418 0 0 1-1.278-.546 1.867 1.867 0 0 1-.636-.492c-.148-.188-.222-.426-.222-.714 0-.44.152-.776.456-1.008.304-.232.74-.348 1.308-.348.648 0 1.154.148 1.518.444.364.296.546.676.546 1.14v.216c0 .08.04.12.12.12h.6c.08 0 .12-.04.12-.12v-.264c0-.688-.256-1.24-.768-1.656-.512-.416-1.212-.624-2.1-.624-.816 0-1.458.186-1.926.558-.468.372-.702.894-.702 1.566 0 .432.102.79.306 1.074.204.284.472.516.804.696.332.18.798.39 1.398.63.56.232.994.436 1.302.612.308.176.536.364.684.564.148.2.222.44.222.72 0 .432-.16.778-.48 1.038-.32.26-.788.39-1.404.39-.68 0-1.212-.142-1.596-.426-.384-.284-.576-.658-.576-1.122v-.324c0-.08-.04-.12-.12-.12h-.588c-.08 0-.12.04-.12.12v.372c0 .68.262 1.224.786 1.632.524.408 1.238.612 2.142.612zm6.604-.012c.728 0 1.26-.248 1.596-.744.008-.016.02-.02.036-.012.016.008.024.02.024.036v.516c0 .08.04.12.12.12h.612c.08 0 .12-.04.12-.12v-5.832c0-.08-.04-.12-.12-.12h-.612c-.08 0-.12.04-.12.12v3.804c0 .448-.134.808-.402 1.08s-.63.408-1.086.408c-.44 0-.788-.134-1.044-.402s-.384-.63-.384-1.086v-3.804c0-.08-.04-.12-.12-.12h-.612c-.08 0-.12.04-.12.12v4.056c0 .416.094.772.282 1.068.188.296.444.522.768.678.324.156.678.234 1.062.234zm5.32-.084c.08 0 .12-.04.12-.12v-3.876c0-.432.126-.776.378-1.032s.59-.384 1.014-.384c.416 0 .748.13.996.39s.372.61.372 1.05v3.852c0 .08.04.12.12.12h.612c.08 0 .12-.04.12-.12v-3.876c0-.432.13-.776.39-1.032s.602-.384 1.026-.384c.408 0 .738.13.99.39s.378.61.378 1.05v3.852c0 .08.04.12.12.12h.6c.08 0 .12-.04.12-.12v-4.02c0-.624-.174-1.116-.522-1.476-.348-.36-.822-.54-1.422-.54a2.36 2.36 0 0 0-1.092.246c-.32.164-.568.41-.744.738-.024.04-.044.04-.06 0a1.615 1.615 0 0 0-.672-.732c-.296-.168-.652-.252-1.068-.252-.336 0-.642.058-.918.174-.276.116-.502.29-.678.522-.016.016-.03.022-.042.018-.012-.004-.018-.014-.018-.03v-.48c0-.08-.04-.12-.12-.12h-.612c-.08 0-.12.04-.12.12v5.832c0 .08.04.12.12.12h.612zm14.958 0c.04 0 .074-.014.102-.042a.139.139 0 0 0 .042-.102v-6.984c0-.04.02-.06.06-.06h2.208c.04 0 .074-.014.102-.042a.139.139 0 0 0 .042-.102v-.924a.139.139 0 0 0-.042-.102.139.139 0 0 0-.102-.042h-5.844a.139.139 0 0 0-.102.042.139.139 0 0 0-.042.102v.924c0 .04.014.074.042.102a.139.139 0 0 0 .102.042h2.124c.04 0 .06.02.06.06v6.984c0 .04.014.074.042.102a.139.139 0 0 0 .102.042h1.104zm5.536.096c.616 0 1.148-.162 1.596-.486.448-.324.764-.77.948-1.338a4.31 4.31 0 0 0 .204-1.368c0-.528-.072-.984-.216-1.368-.184-.552-.498-.984-.942-1.296-.444-.312-.97-.468-1.578-.468-.64 0-1.188.156-1.644.468-.456.312-.776.748-.96 1.308-.128.4-.192.856-.192 1.368 0 .48.068.936.204 1.368.184.568.502 1.012.954 1.332.452.32.994.48 1.626.48zm0-1.2c-.312 0-.578-.084-.798-.252a1.322 1.322 0 0 1-.462-.708c-.08-.28-.12-.616-.12-1.008s.04-.728.12-1.008c.096-.304.252-.538.468-.702.216-.164.472-.246.768-.246.312 0 .576.082.792.246.216.164.368.398.456.702.08.24.12.576.12 1.008 0 .408-.04.744-.12 1.008-.096.304-.25.54-.462.708a1.19 1.19 0 0 1-.762.252zm6.495 1.128.624-.012c.096-.016.144-.068.144-.156v-.9a.139.139 0 0 0-.042-.102.139.139 0 0 0-.102-.042h-.36c-.288 0-.498-.068-.63-.204-.132-.136-.198-.356-.198-.66v-2.892c0-.04.02-.06.06-.06h1.224c.04 0 .074-.014.102-.042a.139.139 0 0 0 .042-.102v-.84a.139.139 0 0 0-.042-.102.139.139 0 0 0-.102-.042h-1.224c-.04 0-.06-.02-.06-.06v-1.404a.139.139 0 0 0-.042-.102.139.139 0 0 0-.102-.042h-1.044a.139.139 0 0 0-.102.042.139.139 0 0 0-.042.102v1.404c0 .04-.02.06-.06.06h-.684a.139.139 0 0 0-.102.042.139.139 0 0 0-.042.102v.84c0 .04.014.074.042.102a.139.139 0 0 0 .102.042h.684c.04 0 .06.02.06.06v3.42c.008.6.168 1.008.48 1.224.312.216.784.324 1.416.324zm3.976.072c.744 0 1.312-.216 1.704-.648.016-.016.032-.022.048-.018s.024.018.024.042v.384c0 .04.014.074.042.102a.139.139 0 0 0 .102.042h1.104c.04 0 .074-.014.102-.042a.139.139 0 0 0 .042-.102v-4.044c0-.392-.104-.742-.312-1.05a2.09 2.09 0 0 0-.888-.726c-.384-.176-.828-.264-1.332-.264-.696 0-1.274.156-1.734.468-.46.312-.722.712-.786 1.2-.008.032.002.058.03.078.028.02.062.034.102.042l1.164.144c.088.016.144-.024.168-.12a.705.705 0 0 1 .354-.45c.188-.108.434-.162.738-.162.368 0 .644.086.828.258.184.172.276.414.276.726v.288c0 .04-.02.06-.06.06h-1.284c-.792 0-1.406.174-1.842.522-.436.348-.654.834-.654 1.458 0 .6.194 1.052.582 1.356.388.304.882.456 1.482.456zm.348-1.104c-.296 0-.538-.07-.726-.21-.188-.14-.282-.338-.282-.594a.77.77 0 0 1 .366-.684c.244-.16.578-.24 1.002-.24h1.008c.04 0 .06.02.06.06v.564c0 .32-.14.584-.42.792-.28.208-.616.312-1.008.312zm5.631 1.008c.04 0 .074-.014.102-.042a.139.139 0 0 0 .042-.102v-8.112a.139.139 0 0 0-.042-.102.139.139 0 0 0-.102-.042h-1.104a.139.139 0 0 0-.102.042.139.139 0 0 0-.042.102v8.112c0 .04.014.074.042.102a.139.139 0 0 0 .102.042h1.104zm5.671 0c.04 0 .074-.014.102-.042a.139.139 0 0 0 .042-.102v-3.228c0-.04.02-.06.06-.06h1.92c.52 0 .978-.102 1.374-.306a2.19 2.19 0 0 0 .918-.87c.216-.376.324-.808.324-1.296 0-.496-.106-.934-.318-1.314a2.207 2.207 0 0 0-.894-.882c-.384-.208-.828-.312-1.332-.312h-3.3a.139.139 0 0 0-.102.042.139.139 0 0 0-.042.102v8.124c0 .04.014.074.042.102a.139.139 0 0 0 .102.042h1.104zm1.992-4.56h-1.788c-.04 0-.06-.02-.06-.06v-2.532c0-.04.02-.06.06-.06h1.788c.408 0 .736.124.984.372s.372.572.372.972c0 .392-.124.708-.372.948s-.576.36-.984.36zm5.26 4.56c.04 0 .073-.014.101-.042a.139.139 0 0 0 .042-.102v-3.396c0-.352.112-.638.336-.858a1.24 1.24 0 0 1 .84-.354c.056-.008.136-.012.24-.012.16 0 .3.02.42.06.104.04.16.012.168-.084l.204-1.08c.016-.088-.008-.148-.072-.18a1.39 1.39 0 0 0-.672-.156c-.6 0-1.068.26-1.404.78-.016.024-.03.034-.042.03-.012-.004-.018-.022-.018-.054v-.54a.139.139 0 0 0-.042-.102.139.139 0 0 0-.102-.042h-1.104a.139.139 0 0 0-.102.042.139.139 0 0 0-.042.102v5.844c0 .04.014.074.042.102a.139.139 0 0 0 .102.042h1.104zm5.919.096c.616 0 1.148-.162 1.596-.486.448-.324.764-.77.948-1.338a4.31 4.31 0 0 0 .204-1.368c0-.528-.072-.984-.216-1.368-.184-.552-.498-.984-.942-1.296-.444-.312-.97-.468-1.578-.468-.64 0-1.188.156-1.644.468-.456.312-.776.748-.96 1.308-.128.4-.192.856-.192 1.368 0 .48.068.936.204 1.368.184.568.502 1.012.954 1.332.452.32.994.48 1.626.48zm0-1.2c-.312 0-.578-.084-.798-.252a1.322 1.322 0 0 1-.462-.708c-.08-.28-.12-.616-.12-1.008s.04-.728.12-1.008c.096-.304.252-.538.468-.702.216-.164.472-.246.768-.246.312 0 .576.082.792.246.216.164.368.398.456.702.08.24.12.576.12 1.008 0 .408-.04.744-.12 1.008-.096.304-.25.54-.462.708a1.19 1.19 0 0 1-.762.252zm9.543-5.868c.248 0 .452-.08.612-.24.16-.16.24-.364.24-.612a.829.829 0 0 0-.24-.612.829.829 0 0 0-.612-.24.829.829 0 0 0-.612.24.829.829 0 0 0-.24.612c0 .248.08.452.24.612.16.16.364.24.612.24zm-3.504 6.972c.04 0 .074-.014.102-.042a.139.139 0 0 0 .042-.102v-4.704c0-.04.02-.06.06-.06h1.188c.04 0 .074-.014.102-.042a.139.139 0 0 0 .042-.102v-.948a.139.139 0 0 0-.042-.102.139.139 0 0 0-.102-.042h-1.188c-.04 0-.06-.02-.06-.06v-.12c0-.36.066-.608.198-.744s.37-.204.714-.204h.312c.04 0 .074-.014.102-.042a.139.139 0 0 0 .042-.102v-.84a.139.139 0 0 0-.042-.102.139.139 0 0 0-.102-.042h-.42c-.568-.008-1.008.048-1.32.168-.312.12-.536.322-.672.606s-.204.686-.204 1.206v.216c0 .04-.02.06-.06.06h-.744a.139.139 0 0 0-.102.042.139.139 0 0 0-.042.102v.948c0 .04.014.074.042.102a.139.139 0 0 0 .102.042h.744c.04 0 .06.02.06.06v4.704c0 .04.014.074.042.102a.139.139 0 0 0 .102.042h1.104zm4.032 0c.04 0 .074-.014.102-.042a.139.139 0 0 0 .042-.102v-5.856a.139.139 0 0 0-.042-.102.139.139 0 0 0-.102-.042h-1.104a.139.139 0 0 0-.102.042.139.139 0 0 0-.042.102v5.856c0 .04.014.074.042.102a.139.139 0 0 0 .102.042h1.104zm4.3.024.624-.012c.096-.016.144-.068.144-.156v-.9a.139.139 0 0 0-.042-.102.139.139 0 0 0-.102-.042h-.36c-.288 0-.498-.068-.63-.204-.132-.136-.198-.356-.198-.66v-2.892c0-.04.02-.06.06-.06h1.224c.04 0 .074-.014.102-.042a.139.139 0 0 0 .042-.102v-.84a.139.139 0 0 0-.042-.102.139.139 0 0 0-.102-.042h-1.224c-.04 0-.06-.02-.06-.06v-1.404a.139.139 0 0 0-.042-.102.139.139 0 0 0-.102-.042h-1.044a.139.139 0 0 0-.102.042.139.139 0 0 0-.042.102v1.404c0 .04-.02.06-.06.06h-.684a.139.139 0 0 0-.102.042.139.139 0 0 0-.042.102v.84c0 .04.014.074.042.102a.139.139 0 0 0 .102.042h.684c.04 0 .06.02.06.06v3.42c.008.6.168 1.008.48 1.224.312.216.784.324 1.416.324z"/>
            <path d="M386.2 115.038v-.6h-11.028v.6H386.2zm6.59 0v-.6h-4.29v.6h4.29zm17.64 0v-.6h-15.338v.6h15.338zm30.163 0v-.6H412.73v.6h27.863zm2.552-.6v.6h23.898v-.6h-23.898z"/>
        </g>
        <g fill="#5F6368">
            <path d="M372.578 12.138a.162.162 0 0 0 .119-.05.162.162 0 0 0 .049-.118v-1.064a.162.162 0 0 0-.05-.12.162.162 0 0 0-.118-.048h-4.69c-.047 0-.07-.024-.07-.07V2.506a.162.162 0 0 0-.05-.12.162.162 0 0 0-.118-.048h-1.288a.162.162 0 0 0-.12.049.162.162 0 0 0-.048.119v9.464c0 .046.016.086.049.119a.162.162 0 0 0 .119.049h6.216zm5.178.126c.588 0 1.122-.112 1.603-.336a2.86 2.86 0 0 0 1.155-.952c.056-.084.042-.159-.042-.224l-.868-.714a.134.134 0 0 0-.098-.042c-.056 0-.103.028-.14.084-.374.522-.878.784-1.512.784-.868-.01-1.414-.35-1.638-1.022-.056-.112-.098-.322-.126-.63 0-.047.023-.07.07-.07h4.382c.112 0 .168-.056.168-.168l.014-.434c0-.29-.02-.551-.056-.784-.234-1.923-1.27-2.884-3.108-2.884-.728 0-1.351.189-1.87.567-.517.378-.87.893-1.056 1.547-.112.336-.168.774-.168 1.316 0 .896.107 1.596.322 2.1a2.82 2.82 0 0 0 1.113 1.372c.508.326 1.127.49 1.855.49zm1.246-4.326h-2.842c-.056 0-.075-.024-.056-.07a2.43 2.43 0 0 1 .112-.616c.093-.308.254-.549.483-.721.228-.173.515-.26.86-.26.374 0 .684.094.932.28.247.187.413.449.497.785.037.121.065.298.084.532 0 .046-.024.07-.07.07zm6.186 6.972c1.082 0 1.957-.25 2.625-.75.667-.499 1-1.332 1-2.498v-6.51a.162.162 0 0 0-.048-.12.162.162 0 0 0-.12-.048h-1.287a.162.162 0 0 0-.12.049.162.162 0 0 0-.048.119v.336c0 .028-.01.046-.028.056-.02.009-.038 0-.056-.028-.411-.43-.985-.644-1.722-.644-.616 0-1.153.17-1.61.51-.458.341-.78.796-.966 1.366-.15.41-.224 1.003-.224 1.778 0 .69.06 1.255.182 1.694.196.634.546 1.106 1.05 1.414.504.308 1.059.462 1.666.462.7 0 1.24-.206 1.624-.616.018-.019.037-.026.056-.021.018.004.028.02.028.049v.112c0 .653-.166 1.117-.497 1.393-.332.275-.847.413-1.547.413-.215 0-.458-.014-.728-.042-.131 0-.196.051-.196.154l-.042 1.148c0 .112.05.172.154.182.28.028.564.042.854.042zm.574-4.144a1.41 1.41 0 0 1-.89-.287 1.458 1.458 0 0 1-.51-.735c-.094-.234-.14-.64-.14-1.218 0-.56.056-.971.168-1.232.102-.308.27-.556.504-.742.233-.187.518-.28.854-.28.354 0 .646.093.875.28.228.186.38.434.455.742.046.149.077.3.09.455.015.154.022.408.022.763 0 .364-.007.627-.021.79-.014.164-.04.316-.077.456a1.345 1.345 0 0 1-.448.728c-.224.186-.518.28-.882.28zm8.454 1.498c.588 0 1.122-.112 1.603-.336a2.86 2.86 0 0 0 1.155-.952c.056-.084.042-.159-.042-.224l-.868-.714a.134.134 0 0 0-.098-.042c-.056 0-.103.028-.14.084-.374.522-.878.784-1.512.784-.868-.01-1.414-.35-1.638-1.022-.056-.112-.098-.322-.126-.63 0-.047.023-.07.07-.07h4.382c.112 0 .168-.056.168-.168l.014-.434c0-.29-.02-.551-.056-.784-.234-1.923-1.27-2.884-3.108-2.884-.728 0-1.351.189-1.87.567-.517.378-.87.893-1.056 1.547-.112.336-.168.774-.168 1.316 0 .896.107 1.596.322 2.1a2.82 2.82 0 0 0 1.113 1.372c.508.326 1.127.49 1.855.49zm1.246-4.326h-2.842c-.056 0-.075-.024-.056-.07a2.43 2.43 0 0 1 .112-.616c.093-.308.254-.549.483-.721.228-.173.515-.26.86-.26.374 0 .684.094.932.28.247.187.413.449.497.785.037.121.065.298.084.532 0 .046-.024.07-.07.07zm5.262 4.2a.162.162 0 0 0 .119-.05.162.162 0 0 0 .049-.118V7.7c0-.43.123-.775.37-1.036.248-.262.572-.392.974-.392.4 0 .723.133.966.399.242.266.364.613.364 1.043v4.256c0 .046.016.086.049.119a.162.162 0 0 0 .119.049h1.288a.162.162 0 0 0 .119-.05.162.162 0 0 0 .049-.118V7.378c0-.775-.227-1.386-.68-1.834-.452-.448-1.056-.672-1.812-.672-.775 0-1.354.252-1.736.756-.01.028-.024.037-.042.028-.02-.01-.028-.028-.028-.056v-.448a.162.162 0 0 0-.05-.12.162.162 0 0 0-.118-.048h-1.288a.162.162 0 0 0-.12.049.162.162 0 0 0-.048.119v6.818c0 .046.016.086.049.119a.162.162 0 0 0 .119.049h1.288zm9.448.112c.662 0 1.199-.243 1.61-.728.018-.028.037-.038.056-.028.018.009.028.028.028.056v.42c0 .046.016.086.049.119a.162.162 0 0 0 .119.049h1.288a.162.162 0 0 0 .119-.05.162.162 0 0 0 .049-.118V2.506a.162.162 0 0 0-.05-.12.162.162 0 0 0-.118-.048h-1.288a.162.162 0 0 0-.12.049.162.162 0 0 0-.048.119v3.038c0 .028-.01.044-.028.049-.02.004-.038-.003-.056-.021-.411-.467-.938-.7-1.582-.7-.691 0-1.265.172-1.722.518-.458.345-.79.826-.994 1.442-.16.476-.238 1.045-.238 1.708 0 .644.084 1.227.252 1.75.205.616.536 1.096.994 1.442.457.345 1.017.518 1.68.518zm.252-1.4c-.532 0-.93-.224-1.19-.672-.224-.42-.336-.957-.336-1.61 0-.728.14-1.298.42-1.708.27-.392.644-.588 1.12-.588.457 0 .812.205 1.064.616.233.382.35.938.35 1.666 0 .7-.108 1.241-.322 1.624-.262.448-.63.672-1.106.672zM538.35 23.2l-.484.874a3.482 3.482 0 0 0-1.694-.436v-1c.772 0 1.517.195 2.179.562zm2.322 5.815h-1l-.002-1.994 1-.032.002.139v1.887zm0 6h-1v-2h1v2zm0 6h-1v-2h1v2zm0 6h-1v-2h1v2zm-1.99 5.857-.558-.83c.491-.33.893-.781 1.163-1.308l.89.457a4.518 4.518 0 0 1-1.494 1.681zm-6.265.766v-1h2v1h-2zm-6 0v-1h2v1h-2zm-6 0v-1h2v1h-2zm-6 0v-1h2v1h-2zm-6 0v-1h2v1h-2zm-6 0v-1h2v1h-2zm-6 0v-1h2v1h-2zm-6 0v-1h2v1h-2zm-6 0v-1h2v1h-2zm-6 0v-1h2v1h-2zm-6 0v-1h2v1h-2zm-6 0v-1h2v1h-2zm-6 0v-1h2v1h-2zm-6 0v-1h2v1h-2zm-6 0v-1h2v1h-2zm-6 0v-1h2v1h-2zm-6 0v-1h2v1h-2zm-6 0v-1h2v1h-2zm-6 0v-1h2v1h-2zm-6 0v-1h2v1h-2zm-6 0v-1h2v1h-2zm-6 0v-1h2v1h-2zm-6 0v-1h2v1h-2zm-6 0v-1h2v1h-2zm-6 0v-1h2v1h-2zm-6 0v-1h2v1h-2zm-6 0v-1h2v1h-2zm-6 0v-1h2v1h-2zm-5.454-2.904.935-.355c.21.554.56 1.046 1.011 1.43l-.647.762a4.508 4.508 0 0 1-1.299-1.837zm-.291-6.227h1v2h-1v-2zm0-6h1v2h-1v-2zm0-6h1v2h-1v-2zm.055-6.076.988.156a3.53 3.53 0 0 0-.043.55v1.37h-1v-1.37c0-.238.018-.474.055-.706zm4.952-3.793.002 1h-.584c-.444.01-.875.102-1.277.27l-.386-.922a4.495 4.495 0 0 1 1.652-.347l.593-.001zm6 0v1h-2v-1h2zm6 0v1h-2v-1h2zm6 0v1h-2v-1h2zm6 0v1h-2v-1h2zm6 0v1h-2v-1h2zm6 0v1h-2v-1h2zm6 0v1h-2v-1h2zm6 0v1h-2v-1h2zm6 0v1h-2v-1h2zm6 0v1h-2v-1h2zm6 0v1h-2v-1h2zm6 0v1h-2v-1h2zm6 0v1h-2v-1h2zm6 0v1h-2v-1h2zm6 0v1h-2v-1h2zm6 0v1h-2v-1h2zm6 0v1h-2v-1h2zm6 0v1h-2v-1h2zm6 0v1h-2v-1h2zm6 0v1h-2v-1h2zm6 0v1h-2v-1h2zm6 0v1h-2v-1h2zm6 0v1h-2v-1h2zm6 0v1h-2v-1h2zm6 0v1h-2v-1h2zm6 0v1h-2v-1h2zm6 0v1h-2v-1h2zm4.493 0v1h-.492v-1h.492zM378.856 43.234c.856 0 1.538-.24 2.046-.72.508-.48.762-1.148.762-2.004v-1.548c0-.08-.04-.12-.12-.12H379c-.08 0-.12.04-.12.12v.504c0 .08.04.12.12.12h1.764c.032 0 .048.016.048.048v1.092c0 .536-.174.964-.522 1.284-.348.32-.814.48-1.398.48-.6 0-1.084-.172-1.452-.516-.368-.344-.552-.796-.552-1.356v-3.36c0-.56.18-1.012.54-1.356.36-.344.836-.516 1.428-.516s1.066.168 1.422.504c.356.336.534.772.534 1.308v.144c0 .08.04.12.12.12h.612c.08 0 .12-.04.12-.12v-.156a2.51 2.51 0 0 0-.348-1.314 2.364 2.364 0 0 0-.99-.906c-.428-.216-.918-.324-1.47-.324-.56 0-1.052.11-1.476.33-.424.22-.754.53-.99.93s-.354.86-.354 1.38v3.312c0 .52.118.98.354 1.38.236.4.566.71.99.93.424.22.916.33 1.476.33zm5.535-.096c.08 0 .12-.04.12-.12v-3.54c0-.448.136-.818.408-1.11a1.43 1.43 0 0 1 1.032-.462l.156-.012c.176 0 .332.028.468.084.08.032.132.008.156-.072l.132-.588c.016-.072-.008-.124-.072-.156a1.416 1.416 0 0 0-.684-.156c-.344 0-.646.082-.906.246a1.91 1.91 0 0 0-.642.69c-.008.016-.018.022-.03.018s-.018-.018-.018-.042v-.732c0-.08-.04-.12-.12-.12h-.612c-.08 0-.12.04-.12.12v5.832c0 .08.04.12.12.12h.612zm6.063.096c.576 0 1.07-.148 1.482-.444.412-.296.694-.704.846-1.224.112-.336.168-.828.168-1.476 0-.64-.056-1.132-.168-1.476a2.224 2.224 0 0 0-.846-1.2c-.412-.296-.902-.444-1.47-.444-.592 0-1.096.148-1.512.444-.416.296-.7.7-.852 1.212-.112.36-.168.848-.168 1.464s.056 1.108.168 1.476c.16.52.448.928.864 1.224.416.296.912.444 1.488.444zm0-.744c-.4 0-.738-.106-1.014-.318a1.492 1.492 0 0 1-.546-.858c-.064-.28-.096-.684-.096-1.212 0-.528.032-.932.096-1.212.096-.36.28-.646.552-.858.272-.212.604-.318.996-.318s.726.106 1.002.318c.276.212.462.498.558.858.064.28.096.684.096 1.212 0 .52-.036.924-.108 1.212-.096.36-.28.646-.552.858-.272.212-.6.318-.984.318zm6.412.732c.728 0 1.26-.248 1.596-.744.008-.016.02-.02.036-.012.016.008.024.02.024.036v.516c0 .08.04.12.12.12h.612c.08 0 .12-.04.12-.12v-5.832c0-.08-.04-.12-.12-.12h-.612c-.08 0-.12.04-.12.12v3.804c0 .448-.134.808-.402 1.08s-.63.408-1.086.408c-.44 0-.788-.134-1.044-.402s-.384-.63-.384-1.086v-3.804c0-.08-.04-.12-.12-.12h-.612c-.08 0-.12.04-.12.12v4.056c0 .416.094.772.282 1.068.188.296.444.522.768.678.324.156.678.234 1.062.234zm5.403 2.244c.08 0 .12-.04.12-.12v-2.82c0-.016.006-.026.018-.03.012-.004.026.002.042.018.176.232.396.41.66.534.264.124.552.186.864.186.576 0 1.054-.146 1.434-.438.38-.292.642-.694.786-1.206.104-.352.156-.848.156-1.488 0-.632-.06-1.14-.18-1.524a2.196 2.196 0 0 0-.786-1.176c-.38-.288-.85-.432-1.41-.432-.32 0-.61.064-.87.192s-.478.308-.654.54c-.016.016-.03.022-.042.018-.012-.004-.018-.014-.018-.03v-.504c0-.08-.04-.12-.12-.12h-.612c-.08 0-.12.04-.12.12v8.16c0 .08.04.12.12.12h.612zm1.608-2.976c-.304 0-.566-.082-.786-.246a1.358 1.358 0 0 1-.474-.654 2.028 2.028 0 0 1-.168-.582 6.64 6.64 0 0 1-.048-.906c0-.384.016-.684.048-.9.032-.216.084-.404.156-.564.104-.28.264-.504.48-.672.216-.168.484-.252.804-.252.336 0 .626.084.87.252.244.168.414.396.51.684.08.168.136.358.168.57.032.212.048.506.048.882 0 .392-.022.698-.066.918-.044.22-.11.418-.198.594a1.35 1.35 0 0 1-.51.636 1.45 1.45 0 0 1-.834.24zm10.135.648c.752 0 1.358-.2 1.818-.6.46-.4.69-.96.69-1.68 0-.488-.112-.904-.336-1.248-.224-.344-.552-.604-.984-.78-.04-.024-.04-.048 0-.072.392-.16.694-.394.906-.702.212-.308.318-.682.318-1.122 0-.696-.222-1.236-.666-1.62-.444-.384-1.054-.576-1.83-.576h-2.82c-.08 0-.12.04-.12.12v8.16c0 .08.04.12.12.12h2.904zm-.084-4.68h-2.04c-.032 0-.048-.016-.048-.048v-2.88c0-.032.016-.048.048-.048h2.04c.504 0 .906.138 1.206.414.3.276.45.646.45 1.11 0 .44-.15.792-.45 1.056-.3.264-.702.396-1.206.396zm.084 3.924h-2.124c-.032 0-.048-.016-.048-.048v-3.108c0-.032.016-.048.048-.048h2.076c.52 0 .934.146 1.242.438.308.292.462.682.462 1.17 0 .488-.15.876-.45 1.164-.3.288-.702.432-1.206.432zm4.228 3.156c.456 0 .81-.05 1.062-.15.252-.1.462-.278.63-.534.168-.256.348-.652.54-1.188l2.22-6.468c.024-.088-.008-.132-.096-.132h-.624c-.072 0-.12.032-.144.096l-1.536 4.848c-.008.016-.02.024-.036.024-.016 0-.028-.008-.036-.024l-1.56-4.848c-.024-.064-.072-.096-.144-.096h-.636c-.072 0-.108.028-.108.084l.012.048 2.028 5.904c.016.016.016.04 0 .072-.144.464-.278.81-.402 1.038-.124.228-.272.384-.444.468-.172.084-.414.13-.726.138h-.048c-.08 0-.12.04-.12.12v.48c0 .08.028.12.084.12h.084zm9.63-2.4c.04 0 .074-.014.102-.042a.139.139 0 0 0 .042-.102v-3.408c0-.04.02-.06.06-.06h1.44c.032 0 .056.016.072.048l1.584 3.456a.17.17 0 0 0 .168.108h1.152c.088 0 .132-.032.132-.096a.184.184 0 0 0-.024-.072l-1.692-3.492a.051.051 0 0 1 0-.048c.008-.016.02-.024.036-.024.504-.152.898-.422 1.182-.81.284-.388.426-.858.426-1.41 0-.48-.104-.906-.312-1.278-.208-.372-.5-.66-.876-.864a2.674 2.674 0 0 0-1.296-.306h-3.3a.139.139 0 0 0-.102.042.139.139 0 0 0-.042.102v8.112c0 .04.014.074.042.102a.139.139 0 0 0 .102.042h1.104zm2.004-4.692h-1.8c-.04 0-.06-.02-.06-.06v-2.388c0-.04.02-.06.06-.06h1.8c.384 0 .694.116.93.348.236.232.354.536.354.912s-.118.678-.354.906c-.236.228-.546.342-.93.342zm6.748 4.8c.504 0 .962-.096 1.374-.288.412-.192.742-.464.99-.816.048-.072.036-.136-.036-.192l-.744-.612a.115.115 0 0 0-.084-.036c-.048 0-.088.024-.12.072-.32.448-.752.672-1.296.672-.744-.008-1.212-.3-1.404-.876-.048-.096-.084-.276-.108-.54 0-.04.02-.06.06-.06h3.756c.096 0 .144-.048.144-.144l.012-.372c0-.248-.016-.472-.048-.672-.2-1.648-1.088-2.472-2.664-2.472-.624 0-1.158.162-1.602.486a2.407 2.407 0 0 0-.906 1.326c-.096.288-.144.664-.144 1.128 0 .768.092 1.368.276 1.8.2.504.518.896.954 1.176.436.28.966.42 1.59.42zm1.068-3.708h-2.436c-.048 0-.064-.02-.048-.06.016-.216.048-.392.096-.528.08-.264.218-.47.414-.618.196-.148.442-.222.738-.222.32 0 .586.08.798.24.212.16.354.384.426.672.032.104.056.256.072.456 0 .04-.02.06-.06.06zm4.96 5.976c.927 0 1.677-.214 2.25-.642.571-.428.857-1.142.857-2.142v-5.58a.139.139 0 0 0-.042-.102.139.139 0 0 0-.102-.042h-1.104a.139.139 0 0 0-.102.042.139.139 0 0 0-.042.102v.288c0 .024-.008.04-.024.048s-.032 0-.048-.024c-.352-.368-.844-.552-1.476-.552-.528 0-.988.146-1.38.438a2.32 2.32 0 0 0-.828 1.17c-.128.352-.192.86-.192 1.524 0 .592.052 1.076.156 1.452.168.544.468.948.9 1.212s.908.396 1.428.396c.6 0 1.064-.176 1.392-.528.016-.016.032-.022.048-.018s.024.018.024.042v.096c0 .56-.142.958-.426 1.194-.284.236-.726.354-1.326.354-.184 0-.392-.012-.624-.036-.112 0-.168.044-.168.132l-.036.984c0 .096.044.148.132.156.24.024.484.036.732.036zm.491-3.552c-.296 0-.55-.082-.762-.246a1.25 1.25 0 0 1-.438-.63c-.08-.2-.12-.548-.12-1.044 0-.48.048-.832.144-1.056.088-.264.232-.476.432-.636.2-.16.444-.24.732-.24.304 0 .554.08.75.24.196.16.326.372.39.636.04.128.066.258.078.39.012.132.018.35.018.654 0 .312-.006.538-.018.678-.012.14-.034.27-.066.39a1.153 1.153 0 0 1-.384.624c-.192.16-.444.24-.756.24zm5.02-5.796c.248 0 .452-.08.612-.24.16-.16.24-.364.24-.612a.829.829 0 0 0-.24-.612.829.829 0 0 0-.612-.24.829.829 0 0 0-.612.24.829.829 0 0 0-.24.612c0 .248.08.452.24.612.16.16.364.24.612.24zm.528 6.972c.04 0 .074-.014.102-.042a.139.139 0 0 0 .042-.102v-5.856a.139.139 0 0 0-.042-.102.139.139 0 0 0-.102-.042h-1.104a.139.139 0 0 0-.102.042.139.139 0 0 0-.042.102v5.856c0 .04.014.074.042.102a.139.139 0 0 0 .102.042h1.104zm4.515.096c.616 0 1.148-.162 1.596-.486.448-.324.764-.77.948-1.338a4.31 4.31 0 0 0 .204-1.368c0-.528-.072-.984-.216-1.368-.184-.552-.498-.984-.942-1.296-.444-.312-.97-.468-1.578-.468-.64 0-1.188.156-1.644.468-.456.312-.776.748-.96 1.308-.128.4-.192.856-.192 1.368 0 .48.068.936.204 1.368.184.568.502 1.012.954 1.332.452.32.994.48 1.626.48zm0-1.2c-.312 0-.578-.084-.798-.252a1.322 1.322 0 0 1-.462-.708c-.08-.28-.12-.616-.12-1.008s.04-.728.12-1.008c.096-.304.252-.538.468-.702.216-.164.472-.246.768-.246.312 0 .576.082.792.246.216.164.368.398.456.702.08.24.12.576.12 1.008 0 .408-.04.744-.12 1.008-.096.304-.25.54-.462.708a1.19 1.19 0 0 1-.762.252zm5.488 1.104c.04 0 .074-.014.102-.042a.139.139 0 0 0 .042-.102v-3.66c0-.368.106-.664.318-.888.212-.224.49-.336.834-.336s.62.114.828.342c.208.228.312.526.312.894v3.648c0 .04.014.074.042.102a.139.139 0 0 0 .102.042h1.104c.04 0 .074-.014.102-.042a.139.139 0 0 0 .042-.102v-3.936c0-.664-.194-1.188-.582-1.572-.388-.384-.906-.576-1.554-.576-.664 0-1.16.216-1.488.648-.008.024-.02.032-.036.024-.016-.008-.024-.024-.024-.048v-.384a.139.139 0 0 0-.042-.102.139.139 0 0 0-.102-.042h-1.104a.139.139 0 0 0-.102.042.139.139 0 0 0-.042.102v5.844c0 .04.014.074.042.102a.139.139 0 0 0 .102.042h1.104z"/>
            <path d="M400.937 44.038v-.6h-25.765v.6h25.765zm2.052-.6v.6h15.906v-.6h-15.906zm20.206.6v-.6h-2.045v.6h2.045z"/>
        </g>
        <path fill="#5F6368" d="M342.262 79.888v.5h-45.147v-.5z"/>
    </g>
</svg>
