<svg width="543" height="212" xmlns="http://www.w3.org/2000/svg">
    <g fill="none" fill-rule="evenodd">
        <g transform="translate(0 1.507)">
            <rect fill="#5F6368" opacity=".05" x="316" y="116.253" width="65" height="18" rx="4"/>
            <path fill="#5F6368" opacity=".2" d="M0 169.253h252v1.206H0zM.091 132.606h252v1h-252zM.091 96.429h252v1h-252zM0 60.253h252v1H0z"/>
            <path fill="#5F6368" opacity=".2" d="M252.194 60.356v110h-1.206v-110z"/>
            <path d="M101.47 188.253c.067 0 .1-.033.1-.1v-6.8c0-.067-.033-.1-.1-.1h-.54c-.047 0-.09.01-.13.03l-1.15.61c-.047.033-.07.067-.07.1v.02l.05.38c.013.053.04.08.08.08l.04-.01 1.06-.43c.013-.007.025-.007.035 0 .01.007.015.017.015.03v6.09c0 .067.033.1.1.1h.51zm3.807.08c.58 0 1.05-.162 1.41-.485.36-.323.54-.758.54-1.305v-3.12c0-.36-.04-.673-.12-.94a1.767 1.767 0 0 0-.685-.955c-.33-.23-.735-.345-1.215-.345-.454 0-.835.107-1.145.32-.31.213-.535.513-.675.9-.1.26-.15.593-.15 1 0 .48.07.86.21 1.14.146.34.361.603.645.79.283.187.635.28 1.055.28.586 0 1.026-.197 1.32-.59.006-.013.016-.018.03-.015.013.003.02.012.02.025v1.46c0 .367-.117.662-.35.885-.234.223-.53.335-.89.335-.347 0-.63-.107-.85-.32-.22-.213-.33-.49-.33-.83v-.08c0-.067-.034-.1-.1-.1h-.51c-.067 0-.1.033-.1.1v.14c0 .507.175.918.525 1.235.35.317.805.475 1.365.475zm-.04-3.34c-.294 0-.54-.072-.74-.215-.2-.143-.34-.335-.42-.575-.087-.193-.13-.46-.13-.8 0-.32.036-.573.11-.76.086-.273.233-.482.44-.625.206-.143.453-.215.74-.215.3 0 .553.077.76.23.206.153.35.357.43.61.06.2.09.443.09.73 0 .347-.037.617-.11.81-.08.253-.222.452-.425.595a1.26 1.26 0 0 1-.745.215zM65.008 188.253c.067 0 .1-.033.1-.1v-.42c0-.067-.033-.1-.1-.1h-3.14c-.033 0-.04-.017-.02-.05l.22-.26c.934-1.127 1.564-1.9 1.89-2.32.627-.8.94-1.483.94-2.05 0-.34-.083-.645-.25-.915a1.71 1.71 0 0 0-.71-.635 2.34 2.34 0 0 0-1.06-.23c-.566 0-1.035.157-1.405.47-.37.313-.561.727-.575 1.24v.4c0 .067.034.1.1.1h.52c.067 0 .1-.033.1-.1v-.31c-.006-.353.107-.638.34-.855.234-.217.54-.325.92-.325.387 0 .7.107.94.32.24.213.36.497.36.85 0 .44-.313 1.057-.94 1.85l-.74.92c-.793.987-1.303 1.613-1.53 1.88a.164.164 0 0 0-.05.12v.42c0 .067.034.1.1.1h3.99zm3.657.1c.647 0 1.163-.183 1.55-.55.387-.367.58-.857.58-1.47v-3.16c0-.607-.193-1.093-.58-1.46-.387-.367-.903-.55-1.55-.55-.64 0-1.15.182-1.53.545-.38.363-.57.852-.57 1.465v3.16c0 .613.19 1.103.57 1.47.38.367.89.55 1.53.55zm0-.62c-.42 0-.757-.123-1.01-.37s-.38-.577-.38-.99v-3.23c0-.407.127-.733.38-.98s.59-.37 1.01-.37c.433 0 .778.123 1.035.37.257.247.385.573.385.98v3.23c0 .413-.13.743-.39.99s-.603.37-1.03.37zM24.153 188.253c.067 0 .1-.033.1-.1v-.42c0-.067-.033-.1-.1-.1h-3.14c-.033 0-.04-.017-.02-.05l.22-.26c.934-1.127 1.564-1.9 1.89-2.32.627-.8.94-1.483.94-2.05 0-.34-.083-.645-.25-.915a1.71 1.71 0 0 0-.71-.635 2.34 2.34 0 0 0-1.06-.23c-.566 0-1.035.157-1.405.47-.37.313-.561.727-.575 1.24v.4c0 .067.034.1.1.1h.52c.067 0 .1-.033.1-.1v-.31c-.006-.353.107-.638.34-.855.234-.217.54-.325.92-.325.387 0 .7.107.94.32.24.213.36.497.36.85 0 .44-.313 1.057-.94 1.85l-.74.92c-.793.987-1.303 1.613-1.53 1.88a.164.164 0 0 0-.05.12v.42c0 .067.034.1.1.1h3.99zm3.177 0c.067 0 .1-.033.1-.1v-6.8c0-.067-.033-.1-.1-.1h-.54c-.047 0-.09.01-.13.03l-1.15.61c-.047.033-.07.067-.07.1v.02l.05.38c.013.053.04.08.08.08l.04-.01 1.06-.43c.013-.007.025-.007.035 0 .01.007.015.017.015.03v6.09c0 .067.033.1.1.1h.51zM140.47 188.253c.067 0 .1-.033.1-.1v-6.8c0-.067-.033-.1-.1-.1h-.54c-.047 0-.09.01-.13.03l-1.15.61c-.047.033-.07.067-.07.1v.02l.05.38c.013.053.04.08.08.08l.04-.01 1.06-.43c.013-.007.025-.007.035 0 .01.007.015.017.015.03v6.09c0 .067.033.1.1.1h.51zm3.807.08a2.17 2.17 0 0 0 1.02-.23 1.66 1.66 0 0 0 .68-.64c.193-.32.29-.71.29-1.17 0-.38-.064-.707-.19-.98a1.466 1.466 0 0 0-.73-.78c-.034-.013-.034-.03 0-.05.233-.147.41-.31.53-.49.2-.3.3-.633.3-1s-.097-.707-.29-1.02a1.647 1.647 0 0 0-.65-.605 2.039 2.039 0 0 0-.96-.215c-.354 0-.672.072-.955.215a1.623 1.623 0 0 0-.665.605c-.2.307-.3.647-.3 1.02 0 .367.1.693.3.98.14.213.32.383.54.51.033.02.033.037 0 .05a1.535 1.535 0 0 0-.73.75c-.14.313-.21.647-.21 1 0 .42.093.797.28 1.13.16.3.39.528.69.685.3.157.65.235 1.05.235zm-.01-4.1a1.27 1.27 0 0 1-.585-.13 1.056 1.056 0 0 1-.415-.38 1.27 1.27 0 0 1-.05-1.32 1.139 1.139 0 0 1 1.04-.63c.246 0 .46.055.64.165.18.11.32.258.42.445.1.18.15.38.15.6 0 .307-.064.55-.19.73a1.084 1.084 0 0 1-.42.385c-.174.09-.37.135-.59.135zm.01 3.48c-.487 0-.844-.183-1.07-.55-.147-.233-.22-.537-.22-.91 0-.36.06-.647.18-.86.206-.413.573-.62 1.1-.62.553 0 .93.22 1.13.66.106.227.16.497.16.81 0 .38-.084.697-.25.95-.214.347-.557.52-1.03.52zM181.47 188.253c.067 0 .1-.033.1-.1v-6.8c0-.067-.033-.1-.1-.1h-.54c-.047 0-.09.01-.13.03l-1.15.61c-.047.033-.07.067-.07.1v.02l.05.38c.013.053.04.08.08.08l.04-.01 1.06-.43c.013-.007.025-.007.035 0 .01.007.015.017.015.03v6.09c0 .067.033.1.1.1h.51zm3.267 0c.06 0 .1-.027.12-.08l2.3-6.24a.547.547 0 0 0 .02-.12v-.46c0-.067-.034-.1-.1-.1h-3.94c-.067 0-.1.033-.1.1l-.01 1.02c0 .067.033.1.1.1h.41c.066 0 .1-.033.1-.1v-.46c0-.027.013-.04.04-.04h2.7c.013 0 .023.005.03.015.006.01.006.022 0 .035l-2.31 6.21c-.014.033-.012.062.005.085.016.023.041.035.075.035h.56z" fill="#5F6368" fill-rule="nonzero"/>
            <rect fill="#5F6368" opacity=".05" x="8" y="174.253" width="236" height="20" rx="4"/>
            <path d="M227.47 188.253c.067 0 .1-.033.1-.1v-6.8c0-.067-.033-.1-.1-.1h-.54c-.047 0-.09.01-.13.03l-1.15.61c-.047.033-.07.067-.07.1v.02l.05.38c.013.053.04.08.08.08l.04-.01 1.06-.43c.013-.007.025-.007.035 0 .01.007.015.017.015.03v6.09c0 .067.033.1.1.1h.51zm3.867.07c.46 0 .843-.107 1.15-.32.306-.213.53-.513.67-.9.106-.253.16-.587.16-1 0-.46-.07-.84-.21-1.14a1.746 1.746 0 0 0-.645-.79c-.284-.187-.635-.28-1.055-.28-.594 0-1.037.2-1.33.6-.007.013-.017.018-.03.015-.014-.003-.02-.012-.02-.025v-1.47c0-.367.116-.662.35-.885.233-.223.53-.335.89-.335.346 0 .63.107.85.32.22.213.33.49.33.83v.08c0 .067.033.1.1.1h.51c.066 0 .1-.033.1-.1v-.14c0-.513-.174-.927-.52-1.24-.347-.313-.804-.47-1.37-.47-.58 0-1.05.162-1.41.485-.36.323-.54.758-.54 1.305v3.12c0 .36.04.673.12.94a1.8 1.8 0 0 0 .69.96c.326.227.73.34 1.21.34zm-.02-.62c-.307 0-.562-.077-.765-.23a1.193 1.193 0 0 1-.425-.61 2.269 2.269 0 0 1-.1-.73c0-.333.04-.603.12-.81.08-.253.22-.452.42-.595.2-.143.446-.215.74-.215.293 0 .54.07.74.21.2.14.34.333.42.58.093.187.14.453.14.8 0 .3-.04.553-.12.76a1.11 1.11 0 0 1-.43.625 1.266 1.266 0 0 1-.74.215z" fill="#5F6368" fill-rule="nonzero"/>
            <rect fill="#5F6368" opacity=".05" x="257" y="57.253" width="38" height="117" rx="4"/>
            <path d="M263.81 170.353c.647 0 1.163-.183 1.55-.55.387-.367.58-.857.58-1.47v-3.16c0-.607-.193-1.093-.58-1.46-.387-.367-.903-.55-1.55-.55-.64 0-1.15.182-1.53.545-.38.363-.57.852-.57 1.465v3.16c0 .613.19 1.103.57 1.47.38.367.89.55 1.53.55zm0-.62c-.42 0-.757-.123-1.01-.37s-.38-.577-.38-.99v-3.23c0-.407.127-.733.38-.98s.59-.37 1.01-.37c.433 0 .778.123 1.035.37.257.247.385.573.385.98v3.23c0 .413-.13.743-.39.99s-.603.37-1.03.37zM264.03 137.183c.067 0 .1-.033.1-.1l-.01-.72c0-.027.013-.04.04-.04.593-.06 1.055-.253 1.385-.58.33-.327.495-.743.495-1.25 0-.36-.085-.665-.255-.915a2.187 2.187 0 0 0-.68-.635 9.27 9.27 0 0 0-1.115-.56 11.664 11.664 0 0 1-1.005-.455 1.49 1.49 0 0 1-.5-.41.97.97 0 0 1-.175-.595c0-.367.12-.647.36-.84.24-.193.583-.29 1.03-.29.507 0 .903.123 1.19.37.287.247.43.563.43.95v.18c0 .067.033.1.1.1h.47c.067 0 .1-.033.1-.1v-.22c0-.52-.167-.947-.5-1.28-.333-.333-.793-.533-1.38-.6-.027 0-.04-.013-.04-.04l.01-.79c0-.067-.033-.1-.1-.1h-.43c-.067 0-.1.033-.1.1l.01.78c0 .027-.013.04-.04.04-.553.053-.987.232-1.3.535-.313.303-.47.712-.47 1.225 0 .36.082.658.245.895.163.237.373.43.63.58.257.15.625.325 1.105.525.447.193.79.363 1.03.51.24.147.418.303.535.47.117.167.175.367.175.6 0 .36-.127.648-.38.865-.253.217-.62.325-1.1.325-.533 0-.952-.118-1.255-.355a1.129 1.129 0 0 1-.455-.935v-.27c0-.067-.033-.1-.1-.1h-.45c-.067 0-.1.033-.1.1v.31c0 .513.17.935.51 1.265.34.33.813.528 1.42.595.027 0 .04.013.04.04l-.01.72c0 .067.033.1.1.1h.44zm5.367-.86c.48 0 .89-.125 1.23-.375.34-.25.566-.588.68-1.015.06-.233.09-.513.09-.84 0-.307-.03-.607-.09-.9a1.557 1.557 0 0 0-.63-.975c-.327-.23-.727-.345-1.2-.345a2.07 2.07 0 0 0-.72.125 1.755 1.755 0 0 0-.59.355c-.014.013-.025.017-.035.01a.034.034 0 0 1-.015-.03l.01-2.42c0-.027.013-.04.04-.04h2.85c.066 0 .1-.033.1-.1v-.42c0-.067-.034-.1-.1-.1h-3.5c-.067 0-.1.033-.1.1v3.87c0 .067.033.1.1.1h.54c.053 0 .09-.03.11-.09.066-.22.216-.397.45-.53.233-.133.496-.2.79-.2.326 0 .6.08.82.24.22.16.353.393.4.7.033.207.05.423.05.65 0 .247-.02.447-.06.6a1.27 1.27 0 0 1-.425.74c-.217.18-.485.27-.805.27-.314 0-.575-.085-.785-.255a1.202 1.202 0 0 1-.415-.685.847.847 0 0 1-.04-.2c-.007-.067-.044-.1-.11-.1h-.53c-.06 0-.09.027-.09.08v.02c.013.147.043.293.09.44.12.4.346.72.68.96.333.24.736.36 1.21.36zm5.476.03c.647 0 1.164-.183 1.55-.55.387-.367.58-.857.58-1.47v-3.16c0-.607-.193-1.093-.58-1.46-.386-.367-.903-.55-1.55-.55-.64 0-1.15.182-1.53.545-.38.363-.57.852-.57 1.465v3.16c0 .613.19 1.103.57 1.47.38.367.89.55 1.53.55zm0-.62c-.42 0-.756-.123-1.01-.37-.253-.247-.38-.577-.38-.99v-3.23c0-.407.127-.733.38-.98.254-.247.59-.37 1.01-.37.434 0 .779.123 1.035.37.257.247.385.573.385.98v3.23c0 .413-.13.743-.39.99s-.603.37-1.03.37zm5.817.62c.647 0 1.163-.183 1.55-.55.387-.367.58-.857.58-1.47v-3.16c0-.607-.193-1.093-.58-1.46-.387-.367-.903-.55-1.55-.55-.64 0-1.15.182-1.53.545-.38.363-.57.852-.57 1.465v3.16c0 .613.19 1.103.57 1.47.38.367.89.55 1.53.55zm0-.62c-.42 0-.757-.123-1.01-.37s-.38-.577-.38-.99v-3.23c0-.407.127-.733.38-.98s.59-.37 1.01-.37c.433 0 .778.123 1.035.37.257.247.385.573.385.98v3.23c0 .413-.13.743-.39.99s-.603.37-1.03.37zM264.03 101.183c.067 0 .1-.033.1-.1l-.01-.72c0-.027.013-.04.04-.04.593-.06 1.055-.253 1.385-.58.33-.327.495-.743.495-1.25 0-.36-.085-.665-.255-.915a2.187 2.187 0 0 0-.68-.635 9.27 9.27 0 0 0-1.115-.56 11.664 11.664 0 0 1-1.005-.455 1.49 1.49 0 0 1-.5-.41.97.97 0 0 1-.175-.595c0-.367.12-.647.36-.84.24-.193.583-.29 1.03-.29.507 0 .903.123 1.19.37.287.247.43.563.43.95v.18c0 .067.033.1.1.1h.47c.067 0 .1-.033.1-.1v-.22c0-.52-.167-.947-.5-1.28-.333-.333-.793-.533-1.38-.6-.027 0-.04-.013-.04-.04l.01-.79c0-.067-.033-.1-.1-.1h-.43c-.067 0-.1.033-.1.1l.01.78c0 .027-.013.04-.04.04-.553.053-.987.232-1.3.535-.313.303-.47.712-.47 1.225 0 .36.082.658.245.895.163.237.373.43.63.58.257.15.625.325 1.105.525.447.193.79.363 1.03.51.24.147.418.303.535.47.117.167.175.367.175.6 0 .36-.127.648-.38.865-.253.217-.62.325-1.1.325-.533 0-.952-.118-1.255-.355a1.129 1.129 0 0 1-.455-.935v-.27c0-.067-.033-.1-.1-.1h-.45c-.067 0-.1.033-.1.1v.31c0 .513.17.935.51 1.265.34.33.813.528 1.42.595.027 0 .04.013.04.04l-.01.72c0 .067.033.1.1.1h.44zm5.197-.93c.066 0 .1-.033.1-.1v-6.8c0-.067-.034-.1-.1-.1h-.54c-.047 0-.09.01-.13.03l-1.15.61c-.047.033-.07.067-.07.1v.02l.05.38c.013.053.04.08.08.08l.04-.01 1.06-.43c.013-.007.025-.007.035 0 .01.007.015.017.015.03v6.09c0 .067.033.1.1.1h.51zm2.276.79c.06 0 .097-.03.11-.09l.56-2.14c.007-.033.002-.06-.015-.08-.016-.02-.041-.03-.075-.03h-.44c-.06 0-.096.03-.11.09l-.44 2.14c-.006.033-.001.06.015.08.017.02.042.03.075.03h.32zm4.197-.69c.647 0 1.163-.183 1.55-.55.387-.367.58-.857.58-1.47v-3.16c0-.607-.193-1.093-.58-1.46-.387-.367-.903-.55-1.55-.55-.64 0-1.15.182-1.53.545-.38.363-.57.852-.57 1.465v3.16c0 .613.19 1.103.57 1.47.38.367.89.55 1.53.55zm0-.62c-.42 0-.757-.123-1.01-.37s-.38-.577-.38-.99v-3.23c0-.407.127-.733.38-.98s.59-.37 1.01-.37c.433 0 .778.123 1.035.37.257.247.385.573.385.98v3.23c0 .413-.13.743-.39.99s-.603.37-1.03.37zm5.817.62c.646 0 1.163-.183 1.55-.55.386-.367.58-.857.58-1.47v-3.16c0-.607-.194-1.093-.58-1.46-.387-.367-.904-.55-1.55-.55-.64 0-1.15.182-1.53.545-.38.363-.57.852-.57 1.465v3.16c0 .613.19 1.103.57 1.47.38.367.89.55 1.53.55zm0-.62c-.42 0-.757-.123-1.01-.37-.254-.247-.38-.577-.38-.99v-3.23c0-.407.126-.733.38-.98.253-.247.59-.37 1.01-.37.433 0 .778.123 1.035.37.256.247.385.573.385.98v3.23c0 .413-.13.743-.39.99s-.604.37-1.03.37zm5.816.62c.647 0 1.164-.183 1.55-.55.387-.367.58-.857.58-1.47v-3.16c0-.607-.193-1.093-.58-1.46-.386-.367-.903-.55-1.55-.55-.64 0-1.15.182-1.53.545-.38.363-.57.852-.57 1.465v3.16c0 .613.19 1.103.57 1.47.38.367.89.55 1.53.55zm0-.62c-.42 0-.756-.123-1.01-.37-.253-.247-.38-.577-.38-.99v-3.23c0-.407.127-.733.38-.98.254-.247.59-.37 1.01-.37.434 0 .779.123 1.035.37.257.247.385.573.385.98v3.23c0 .413-.13.743-.39.99s-.603.37-1.03.37zM264.03 71.183c.067 0 .1-.033.1-.1l-.01-.72c0-.027.013-.04.04-.04.593-.06 1.055-.253 1.385-.58.33-.327.495-.743.495-1.25 0-.36-.085-.665-.255-.915a2.187 2.187 0 0 0-.68-.635 9.27 9.27 0 0 0-1.115-.56 11.664 11.664 0 0 1-1.005-.455 1.49 1.49 0 0 1-.5-.41.97.97 0 0 1-.175-.595c0-.367.12-.647.36-.84.24-.193.583-.29 1.03-.29.507 0 .903.123 1.19.37.287.247.43.563.43.95v.18c0 .067.033.1.1.1h.47c.067 0 .1-.033.1-.1v-.22c0-.52-.167-.947-.5-1.28-.333-.333-.793-.533-1.38-.6-.027 0-.04-.013-.04-.04l.01-.79c0-.067-.033-.1-.1-.1h-.43c-.067 0-.1.033-.1.1l.01.78c0 .027-.013.04-.04.04-.553.053-.987.232-1.3.535-.313.303-.47.712-.47 1.225 0 .36.082.658.245.895.163.237.373.43.63.58.257.15.625.325 1.105.525.447.193.79.363 1.03.51.24.147.418.303.535.47.117.167.175.367.175.6 0 .36-.127.648-.38.865-.253.217-.62.325-1.1.325-.533 0-.952-.118-1.255-.355a1.129 1.129 0 0 1-.455-.935v-.27c0-.067-.033-.1-.1-.1h-.45c-.067 0-.1.033-.1.1v.31c0 .513.17.935.51 1.265.34.33.813.528 1.42.595.027 0 .04.013.04.04l-.01.72c0 .067.033.1.1.1h.44zm5.197-.93c.066 0 .1-.033.1-.1v-6.8c0-.067-.034-.1-.1-.1h-.54c-.047 0-.09.01-.13.03l-1.15.61c-.047.033-.07.067-.07.1v.02l.05.38c.013.053.04.08.08.08l.04-.01 1.06-.43c.013-.007.025-.007.035 0 .01.007.015.017.015.03v6.09c0 .067.033.1.1.1h.51zm2.276.79c.06 0 .097-.03.11-.09l.56-2.14c.007-.033.002-.06-.015-.08-.016-.02-.041-.03-.075-.03h-.44c-.06 0-.096.03-.11.09l-.44 2.14c-.006.033-.001.06.015.08.017.02.042.03.075.03h.32zm4.367-.72c.48 0 .89-.125 1.23-.375.34-.25.567-.588.68-1.015.06-.233.09-.513.09-.84 0-.307-.03-.607-.09-.9a1.557 1.557 0 0 0-.63-.975c-.327-.23-.727-.345-1.2-.345a2.07 2.07 0 0 0-.72.125 1.755 1.755 0 0 0-.59.355c-.013.013-.025.017-.035.01a.034.034 0 0 1-.015-.03l.01-2.42c0-.027.013-.04.04-.04h2.85c.067 0 .1-.033.1-.1v-.42c0-.067-.033-.1-.1-.1h-3.5c-.067 0-.1.033-.1.1v3.87c0 .067.033.1.1.1h.54c.053 0 .09-.03.11-.09.067-.22.217-.397.45-.53s.497-.2.79-.2c.327 0 .6.08.82.24.22.16.353.393.4.7.033.207.05.423.05.65 0 .247-.02.447-.06.6a1.27 1.27 0 0 1-.425.74c-.217.18-.485.27-.805.27-.313 0-.575-.085-.785-.255a1.202 1.202 0 0 1-.415-.685.847.847 0 0 1-.04-.2c-.007-.067-.043-.1-.11-.1h-.53c-.06 0-.09.027-.09.08v.02c.013.147.043.293.09.44.12.4.347.72.68.96.333.24.737.36 1.21.36zm5.477.03c.646 0 1.163-.183 1.55-.55.386-.367.58-.857.58-1.47v-3.16c0-.607-.194-1.093-.58-1.46-.387-.367-.904-.55-1.55-.55-.64 0-1.15.182-1.53.545-.38.363-.57.852-.57 1.465v3.16c0 .613.19 1.103.57 1.47.38.367.89.55 1.53.55zm0-.62c-.42 0-.757-.123-1.01-.37-.254-.247-.38-.577-.38-.99v-3.23c0-.407.126-.733.38-.98.253-.247.59-.37 1.01-.37.433 0 .778.123 1.035.37.256.247.385.573.385.98v3.23c0 .413-.13.743-.39.99s-.604.37-1.03.37zm5.816.62c.647 0 1.164-.183 1.55-.55.387-.367.58-.857.58-1.47v-3.16c0-.607-.193-1.093-.58-1.46-.386-.367-.903-.55-1.55-.55-.64 0-1.15.182-1.53.545-.38.363-.57.852-.57 1.465v3.16c0 .613.19 1.103.57 1.47.38.367.89.55 1.53.55zm0-.62c-.42 0-.756-.123-1.01-.37-.253-.247-.38-.577-.38-.99v-3.23c0-.407.127-.733.38-.98.254-.247.59-.37 1.01-.37.434 0 .779.123 1.035.37.257.247.385.573.385.98v3.23c0 .413-.13.743-.39.99s-.603.37-1.03.37z" fill="#5F6368" fill-rule="nonzero"/>
            <path fill="#57F" fill-rule="nonzero" d="m23 143.01 4.243 4.243L23 151.496l-4.243-4.243zM102 109.01l4.243 4.243-4.243 4.243-4.243-4.243zM72 139.01l4.243 4.243L72 147.496l-4.243-4.243zM148 96.01l4.243 4.243-4.243 4.243-4.243-4.243zM183 76.01l4.243 4.243L183 84.496l-4.243-4.243zM223 115.01l4.243 4.243-4.243 4.243-4.243-4.243z"/>
            <circle fill="#9CAFFF" fill-rule="nonzero" cx="32" cy="117.253" r="3"/>
            <circle fill="#9CAFFF" fill-rule="nonzero" cx="66" cy="117.253" r="3"/>
            <circle fill="#9CAFFF" fill-rule="nonzero" cx="94" cy="96.253" r="3"/>
            <circle fill="#9CAFFF" fill-rule="nonzero" cx="143" cy="123.253" r="3"/>
            <circle fill="#9CAFFF" fill-rule="nonzero" cx="178" cy="143.253" r="3"/>
            <circle fill="#9CAFFF" fill-rule="nonzero" cx="227" cy="73.253" r="3"/>
            <path d="m421.998 75.76 6 3.375.387.218-.387.218-6 3.375-.246-.436 5.169-2.907H305.327v105.39H244v-.5h60.827V79.103h122.094l-5.169-2.907.246-.436zm-72.319 58.338 16.496 20.833h60.746l-5.169-2.907.246-.436 6 3.375.387.218-.387.218-6 3.375-.246-.436 5.169-2.907h-60.868l-.196-.095-16.57-20.928.392-.31zM421.998 0l6 3.375.387.218-.387.218-6 3.375-.246-.436 5.169-2.907h-78.306l-53.424 63.042-.382-.324 53.5-63.13.191-.088h78.421L421.752.436l.246-.436zM43.682 23.253c.093 0 .14-.047.14-.14v-4.396c0-.037.019-.056.056-.056h2.646c.028 0 .047.014.056.042l2.142 4.452c.028.065.084.098.168.098h.462c.075 0 .112-.033.112-.098a.156.156 0 0 0-.014-.07l-2.142-4.41c-.019-.028-.005-.051.042-.07.616-.112 1.106-.394 1.47-.847.364-.453.546-1.01.546-1.673 0-.784-.24-1.419-.721-1.904-.48-.485-1.113-.728-1.897-.728H43.22c-.093 0-.14.047-.14.14v9.52c0 .093.047.14.14.14h.462zm2.996-5.208h-2.8c-.037 0-.056-.019-.056-.056v-3.822c0-.037.019-.056.056-.056h2.8c.579 0 1.048.182 1.407.546.36.364.539.84.539 1.428 0 .579-.18 1.05-.539 1.414-.36.364-.828.546-1.407.546zm7.908 5.32c.597 0 1.118-.135 1.561-.406.443-.27.768-.635.973-1.092.037-.075.014-.135-.07-.182l-.364-.182c-.075-.037-.135-.014-.182.07a2.06 2.06 0 0 1-.735.833c-.313.2-.688.3-1.127.3-.55 0-1.006-.132-1.365-.398a1.79 1.79 0 0 1-.693-1.085c-.047-.196-.07-.593-.07-1.19 0-.037.019-.056.056-.056h4.564c.093 0 .14-.047.14-.14 0-.355-.005-.651-.014-.89a5.407 5.407 0 0 0-.056-.622c-.112-.7-.397-1.248-.854-1.645-.457-.397-1.069-.595-1.834-.595-.672 0-1.239.177-1.701.532a2.505 2.505 0 0 0-.917 1.414c-.047.196-.077.41-.091.644-.014.233-.021.579-.021 1.036 0 .439.014.803.042 1.092.028.29.08.55.154.784.168.55.48.985.938 1.302.457.317 1.013.476 1.666.476zm1.89-4.018H52.57c-.037 0-.056-.019-.056-.056.019-.55.051-.915.098-1.092.093-.439.308-.791.644-1.057.336-.266.756-.4 1.26-.4s.929.139 1.274.414c.345.275.57.637.672 1.085.047.233.07.583.07 1.05 0 .037-.019.056-.056.056zm5.724 3.906c.084 0 .14-.037.168-.112l2.31-6.776c.028-.103-.01-.154-.112-.154l-.518-.014c-.084 0-.14.037-.168.112l-1.904 5.796c-.01.019-.023.028-.042.028-.019 0-.033-.01-.042-.028l-1.904-5.796c-.028-.075-.084-.112-.168-.112h-.532c-.084 0-.126.033-.126.098l.014.056 2.324 6.79c.028.075.084.112.168.112h.532zm7.194.112c.597 0 1.118-.135 1.561-.406.443-.27.768-.635.973-1.092.037-.075.014-.135-.07-.182l-.364-.182c-.075-.037-.135-.014-.182.07a2.06 2.06 0 0 1-.735.833c-.313.2-.688.3-1.127.3-.55 0-1.006-.132-1.365-.398a1.79 1.79 0 0 1-.693-1.085c-.047-.196-.07-.593-.07-1.19 0-.037.019-.056.056-.056h4.564c.093 0 .14-.047.14-.14 0-.355-.005-.651-.014-.89a5.407 5.407 0 0 0-.056-.622c-.112-.7-.397-1.248-.854-1.645-.457-.397-1.069-.595-1.834-.595-.672 0-1.239.177-1.701.532a2.505 2.505 0 0 0-.917 1.414c-.047.196-.077.41-.091.644-.014.233-.021.579-.021 1.036 0 .439.014.803.042 1.092.028.29.08.55.154.784.168.55.48.985.938 1.302.457.317 1.013.476 1.666.476zm1.89-4.018h-3.906c-.037 0-.056-.019-.056-.056.019-.55.051-.915.098-1.092.093-.439.308-.791.644-1.057.336-.266.756-.4 1.26-.4s.929.139 1.274.414c.345.275.57.637.672 1.085.047.233.07.583.07 1.05 0 .037-.019.056-.056.056zm4.156 3.906c.093 0 .14-.047.14-.14v-4.508c0-.55.173-.996.518-1.337.345-.34.798-.511 1.358-.511.541 0 .98.175 1.316.525.336.35.504.8.504 1.35v4.48c0 .094.047.14.14.14h.462c.093 0 .14-.046.14-.14v-4.62c0-.718-.222-1.296-.665-1.735-.443-.439-1.024-.658-1.743-.658-.439 0-.826.082-1.162.245a2.019 2.019 0 0 0-.812.707c-.01.019-.021.026-.035.02-.014-.004-.021-.02-.021-.048v-.686c0-.093-.047-.14-.14-.14h-.462c-.093 0-.14.047-.14.14v6.776c0 .093.047.14.14.14h.462zm9.812.098c.448 0 .838-.08 1.169-.238.331-.159.595-.392.791-.7.01-.028.023-.04.042-.035.019.005.028.02.028.049v.686c0 .093.047.14.14.14h.448c.093 0 .14-.047.14-.14v-6.776c0-.093-.047-.14-.14-.14h-.448c-.093 0-.14.047-.14.14v4.508c0 .55-.173.996-.518 1.337-.345.34-.803.51-1.372.51-.55 0-.992-.167-1.323-.503-.331-.336-.497-.784-.497-1.344v-4.508c0-.093-.047-.14-.14-.14h-.448c-.093 0-.14.047-.14.14v4.704c0 .719.229 1.283.686 1.694.457.41 1.031.616 1.722.616zm8.37.014c.597 0 1.118-.135 1.561-.406.443-.27.768-.635.973-1.092.037-.075.014-.135-.07-.182l-.364-.182c-.075-.037-.135-.014-.182.07a2.06 2.06 0 0 1-.735.833c-.313.2-.688.3-1.127.3-.55 0-1.006-.132-1.365-.398a1.79 1.79 0 0 1-.693-1.085c-.047-.196-.07-.593-.07-1.19 0-.037.019-.056.056-.056h4.564c.093 0 .14-.047.14-.14 0-.355-.005-.651-.014-.89a5.407 5.407 0 0 0-.056-.622c-.112-.7-.397-1.248-.854-1.645-.457-.397-1.069-.595-1.834-.595-.672 0-1.239.177-1.701.532a2.505 2.505 0 0 0-.917 1.414c-.047.196-.077.41-.091.644-.014.233-.021.579-.021 1.036 0 .439.014.803.042 1.092.028.29.08.55.154.784.168.55.48.985.938 1.302.457.317 1.013.476 1.666.476zm1.89-4.018h-3.906c-.037 0-.056-.019-.056-.056.019-.55.051-.915.098-1.092.093-.439.308-.791.644-1.057.336-.266.756-.4 1.26-.4s.929.139 1.274.414c.345.275.57.637.672 1.085.047.233.07.583.07 1.05 0 .037-.019.056-.056.056zm9.25 3.906c.084 0 .14-.037.168-.112l2.31-6.776c.028-.103-.01-.154-.112-.154l-.518-.014c-.084 0-.14.037-.168.112l-1.904 5.796c-.01.019-.023.028-.042.028-.019 0-.033-.01-.042-.028l-1.904-5.796c-.028-.075-.084-.112-.168-.112h-.532c-.084 0-.126.033-.126.098l.014.056 2.324 6.79c.028.075.084.112.168.112h.532zm6.592.07c.756 0 1.36-.18 1.813-.54.453-.358.679-.832.679-1.42 0-.41-.117-.744-.35-1.001a2.412 2.412 0 0 0-.833-.595 11.43 11.43 0 0 0-1.295-.448c-.625-.187-1.085-.369-1.379-.546-.294-.177-.441-.443-.441-.798 0-.373.159-.67.476-.89.317-.218.737-.328 1.26-.328.541 0 .978.119 1.309.357.331.238.497.534.497.889v.042c0 .093.047.14.14.14h.434c.093 0 .14-.047.14-.14v-.042c0-.355-.105-.672-.315-.952-.21-.28-.504-.502-.882-.665-.378-.163-.814-.245-1.309-.245-.737 0-1.332.17-1.785.51-.453.342-.679.797-.679 1.366 0 .392.11.716.329.973.22.257.488.455.805.595.317.14.737.29 1.26.448.457.14.8.254 1.029.343a1.7 1.7 0 0 1 .595.385.872.872 0 0 1 .252.644c0 .373-.163.686-.49.938-.327.252-.751.378-1.274.378-.532 0-.97-.124-1.316-.371-.345-.247-.518-.544-.518-.89v-.153c0-.093-.047-.14-.14-.14h-.434c-.093 0-.14.047-.14.14v.182c0 .336.107.644.322.924.215.28.516.502.903.665.387.163.833.245 1.337.245zm11.574.056c.625 0 1.18-.126 1.666-.378a2.74 2.74 0 0 0 1.127-1.057c.266-.453.399-.973.399-1.561 0-.084-.047-.126-.14-.126l-.462-.028c-.093 0-.14.042-.14.126v.028c0 .7-.224 1.265-.672 1.694-.448.43-1.04.644-1.778.644-.737 0-1.332-.215-1.785-.644-.453-.43-.679-.994-.679-1.694v-4.06c0-.7.224-1.262.672-1.687.448-.425 1.045-.637 1.792-.637.737 0 1.33.212 1.778.637.448.425.672.987.672 1.687v.042c0 .093.047.14.14.14l.462-.028c.037 0 .07-.014.098-.042a.151.151 0 0 0 .042-.112v-.014c0-.588-.133-1.106-.399-1.554a2.708 2.708 0 0 0-1.127-1.043c-.485-.247-1.04-.371-1.666-.371-.635 0-1.195.126-1.68.378a2.74 2.74 0 0 0-1.127 1.057c-.266.453-.399.978-.399 1.575v3.99c0 .597.133 1.127.399 1.589.266.462.642.819 1.127 1.07.485.253 1.045.379 1.68.379zm8.3-.028c.448 0 .838-.08 1.169-.238.331-.159.595-.392.791-.7.01-.028.023-.04.042-.035.019.005.028.02.028.049v.686c0 .093.047.14.14.14h.448c.093 0 .14-.047.14-.14v-6.776c0-.093-.047-.14-.14-.14h-.448c-.093 0-.14.047-.14.14v4.508c0 .55-.173.996-.518 1.337-.345.34-.803.51-1.372.51-.55 0-.992-.167-1.323-.503-.331-.336-.497-.784-.497-1.344v-4.508c0-.093-.047-.14-.14-.14h-.448c-.093 0-.14.047-.14.14v4.704c0 .719.229 1.283.686 1.694.457.41 1.031.616 1.722.616zm7.992-.028c.756 0 1.36-.18 1.813-.54.453-.358.679-.832.679-1.42 0-.41-.117-.744-.35-1.001a2.412 2.412 0 0 0-.833-.595 11.43 11.43 0 0 0-1.295-.448c-.625-.187-1.085-.369-1.379-.546-.294-.177-.441-.443-.441-.798 0-.373.159-.67.476-.89.317-.218.737-.328 1.26-.328.541 0 .978.119 1.309.357.331.238.497.534.497.889v.042c0 .093.047.14.14.14h.434c.093 0 .14-.047.14-.14v-.042c0-.355-.105-.672-.315-.952-.21-.28-.504-.502-.882-.665-.378-.163-.814-.245-1.309-.245-.737 0-1.332.17-1.785.51-.453.342-.679.797-.679 1.366 0 .392.11.716.329.973.22.257.488.455.805.595.317.14.737.29 1.26.448.457.14.8.254 1.029.343a1.7 1.7 0 0 1 .595.385.872.872 0 0 1 .252.644c0 .373-.163.686-.49.938-.327.252-.751.378-1.274.378-.532 0-.97-.124-1.316-.371-.345-.247-.518-.544-.518-.89v-.153c0-.093-.047-.14-.14-.14h-.434c-.093 0-.14.047-.14.14v.182c0 .336.107.644.322.924.215.28.516.502.903.665.387.163.833.245 1.337.245zm7.446-.056.42-.014c.093 0 .14-.047.14-.14v-.378c0-.093-.047-.14-.14-.14h-.322c-.476 0-.821-.096-1.036-.287-.215-.191-.322-.525-.322-1.001v-4.424c0-.037.019-.056.056-.056h1.638c.093 0 .14-.047.14-.14v-.35c0-.093-.047-.14-.14-.14h-1.638c-.037 0-.056-.019-.056-.056v-1.596c0-.093-.047-.14-.14-.14h-.448c-.093 0-.14.047-.14.14v1.596c0 .037-.019.056-.056.056h-.84c-.093 0-.14.047-.14.14v.35c0 .093.047.14.14.14h.84c.037 0 .056.019.056.056v4.62c.01.672.18 1.134.511 1.386s.824.378 1.477.378zm5.57.098c.663 0 1.23-.173 1.701-.518a2.48 2.48 0 0 0 .945-1.386c.056-.215.093-.453.112-.714.019-.261.028-.607.028-1.036 0-.41-.01-.75-.028-1.015a3.964 3.964 0 0 0-.112-.721 2.478 2.478 0 0 0-.945-1.372c-.471-.345-1.034-.518-1.687-.518-.672 0-1.239.17-1.701.51-.462.342-.777.801-.945 1.38-.103.364-.154.943-.154 1.736s.051 1.377.154 1.75c.168.579.485 1.04.952 1.386.467.345 1.027.518 1.68.518zm0-.658c-.504 0-.929-.135-1.274-.406a1.856 1.856 0 0 1-.672-1.092c-.065-.29-.098-.784-.098-1.484s.033-1.195.098-1.484c.103-.457.327-.821.672-1.092.345-.27.77-.406 1.274-.406s.931.135 1.281.406c.35.27.576.635.679 1.092.056.243.084.737.084 1.484 0 .737-.033 1.232-.098 1.484-.103.448-.329.81-.679 1.085-.35.275-.772.413-1.267.413zm6.2.546c.093 0 .14-.047.14-.14V18.52c0-.541.161-.97.483-1.288.322-.317.758-.476 1.309-.476.513 0 .929.16 1.246.483.317.322.476.758.476 1.309v4.564c0 .093.047.14.14.14h.448c.093 0 .14-.047.14-.14V18.52c0-.541.166-.97.497-1.288.331-.317.768-.476 1.309-.476.513 0 .931.16 1.253.483.322.322.483.758.483 1.309v4.564c0 .093.047.14.14.14h.448c.093 0 .14-.047.14-.14v-4.704c0-.719-.205-1.283-.616-1.694-.41-.41-.957-.616-1.638-.616-.495 0-.929.103-1.302.308a2.02 2.02 0 0 0-.854.91c-.028.028-.051.023-.07-.014a1.982 1.982 0 0 0-.791-.89c-.35-.21-.768-.314-1.253-.314-.42 0-.796.075-1.127.224a1.82 1.82 0 0 0-.791.672c-.01.019-.023.023-.042.014-.019-.01-.028-.023-.028-.042v-.63c0-.093-.047-.14-.14-.14h-.462c-.093 0-.14.047-.14.14v6.776c0 .093.047.14.14.14h.462zm14.04.112c.597 0 1.118-.135 1.561-.406.443-.27.768-.635.973-1.092.037-.075.014-.135-.07-.182l-.364-.182c-.075-.037-.135-.014-.182.07a2.06 2.06 0 0 1-.735.833c-.313.2-.688.3-1.127.3-.55 0-1.006-.132-1.365-.398a1.79 1.79 0 0 1-.693-1.085c-.047-.196-.07-.593-.07-1.19 0-.037.019-.056.056-.056h4.564c.093 0 .14-.047.14-.14 0-.355-.005-.651-.014-.89a5.407 5.407 0 0 0-.056-.622c-.112-.7-.397-1.248-.854-1.645-.457-.397-1.069-.595-1.834-.595-.672 0-1.239.177-1.701.532a2.505 2.505 0 0 0-.917 1.414c-.047.196-.077.41-.091.644-.014.233-.021.579-.021 1.036 0 .439.014.803.042 1.092.028.29.08.55.154.784.168.55.48.985.938 1.302.457.317 1.013.476 1.666.476zm1.89-4.018h-3.906c-.037 0-.056-.019-.056-.056.019-.55.051-.915.098-1.092.093-.439.308-.791.644-1.057.336-.266.756-.4 1.26-.4s.929.139 1.274.414c.345.275.57.637.672 1.085.047.233.07.583.07 1.05 0 .037-.019.056-.056.056zm4.156 3.906c.093 0 .14-.047.14-.14V18.94c0-.56.17-1.034.511-1.421.34-.387.772-.586 1.295-.595.28-.01.513.023.7.098.093.037.154.01.182-.084l.126-.448c.019-.093-.01-.154-.084-.182a1.8 1.8 0 0 0-.812-.168c-.42 0-.786.103-1.099.308-.313.205-.567.49-.763.854-.01.028-.021.04-.035.035-.014-.005-.021-.021-.021-.05v-.951c0-.093-.047-.14-.14-.14h-.462c-.093 0-.14.047-.14.14v6.776c0 .093.047.14.14.14h.462zm8.34 0c.084 0 .14-.037.168-.112l.588-1.862c.01-.028.028-.042.056-.042h4.368c.028 0 .047.014.056.042l.602 1.862c.028.075.084.112.168.112h.476c.084 0 .126-.033.126-.098l-.014-.056-3.122-9.534c-.028-.075-.084-.112-.168-.112h-.63c-.084 0-.14.037-.168.112l-3.108 9.534c-.028.103.01.154.112.154h.49zm4.956-2.632h-3.92a.067.067 0 0 1-.049-.021c-.014-.014-.016-.03-.007-.05l1.974-6.09c.01-.018.023-.027.042-.027.019 0 .033.01.042.028l1.974 6.09c.01.019.007.035-.007.049a.067.067 0 0 1-.049.02zm5.178 5.418c1.157.047 2.053-.168 2.688-.644.635-.476.952-1.241.952-2.296v-6.762c0-.093-.047-.14-.14-.14h-.462c-.093 0-.14.047-.14.14v.672c0 .019-.01.033-.028.042-.019.01-.033.005-.042-.014-.439-.635-1.087-.952-1.946-.952-.616 0-1.143.17-1.582.51-.439.342-.733.787-.882 1.338-.112.383-.168.985-.168 1.806 0 .765.051 1.34.154 1.722.15.579.453 1.034.91 1.365.457.331.99.497 1.596.497.859 0 1.498-.322 1.918-.966.019-.019.035-.026.049-.021.014.005.021.02.021.049v.7c0 .803-.231 1.388-.693 1.757-.462.369-1.192.534-2.191.497-.093 0-.14.047-.14.14l-.014.406c0 .093.047.145.14.154zm1.022-3.36c-.485 0-.898-.14-1.239-.42a1.92 1.92 0 0 1-.665-1.064c-.084-.299-.126-.793-.126-1.484 0-.71.042-1.204.126-1.484.121-.43.348-.784.679-1.064.331-.28.74-.42 1.225-.42.485 0 .889.14 1.211.42.322.28.52.635.595 1.064.028.159.047.34.056.546.01.205.014.523.014.952 0 .43-.005.747-.014.952-.01.205-.028.378-.056.518a1.8 1.8 0 0 1-.581 1.064c-.313.28-.721.42-1.225.42zm8.104.686c.597 0 1.118-.135 1.561-.406.443-.27.768-.635.973-1.092.037-.075.014-.135-.07-.182l-.364-.182c-.075-.037-.135-.014-.182.07a2.06 2.06 0 0 1-.735.833c-.313.2-.688.3-1.127.3-.55 0-1.006-.132-1.365-.398a1.79 1.79 0 0 1-.693-1.085c-.047-.196-.07-.593-.07-1.19 0-.037.019-.056.056-.056h4.564c.093 0 .14-.047.14-.14 0-.355-.005-.651-.014-.89a5.407 5.407 0 0 0-.056-.622c-.112-.7-.397-1.248-.854-1.645-.457-.397-1.069-.595-1.834-.595-.672 0-1.239.177-1.701.532a2.505 2.505 0 0 0-.917 1.414c-.047.196-.077.41-.091.644-.014.233-.021.579-.021 1.036 0 .439.014.803.042 1.092.028.29.08.55.154.784.168.55.48.985.938 1.302.457.317 1.013.476 1.666.476zm1.89-4.018h-3.906c-.037 0-.056-.019-.056-.056.019-.55.051-.915.098-1.092.093-.439.308-.791.644-1.057.336-.266.756-.4 1.26-.4s.929.139 1.274.414c.345.275.57.637.672 1.085.047.233.07.583.07 1.05 0 .037-.019.056-.056.056z" fill="#5F6368" fill-rule="nonzero"/>
            <g>
                <path d="M339.93 105.333c.473 0 .89-.093 1.25-.28a2.02 2.02 0 0 0 .835-.785c.197-.337.295-.728.295-1.175v-4.74c0-.067-.033-.1-.1-.1h-.51c-.067 0-.1.033-.1.1v4.76c0 .473-.153.858-.46 1.155-.307.297-.71.445-1.21.445s-.903-.148-1.21-.445c-.307-.297-.46-.682-.46-1.155v-4.76c0-.067-.033-.1-.1-.1h-.51c-.067 0-.1.033-.1.1v4.74c0 .447.1.838.3 1.175.2.337.48.598.84.785.36.187.773.28 1.24.28zm6.367 0c.733 0 1.306-.167 1.72-.5.413-.333.62-.78.62-1.34 0-.36-.092-.665-.275-.915a2.342 2.342 0 0 0-.72-.635 9.695 9.695 0 0 0-1.175-.56c-.48-.187-.835-.338-1.065-.455a1.556 1.556 0 0 1-.53-.41.933.933 0 0 1-.185-.595c0-.367.126-.647.38-.84.253-.193.616-.29 1.09-.29.54 0 .961.123 1.265.37.303.247.455.563.455.95v.18c0 .067.033.1.1.1h.5c.066 0 .1-.033.1-.1v-.22c0-.573-.214-1.033-.64-1.38-.427-.347-1.01-.52-1.75-.52-.68 0-1.215.155-1.605.465-.39.31-.585.745-.585 1.305 0 .36.085.658.255.895.17.237.393.43.67.58.276.15.665.325 1.165.525.466.193.828.363 1.085.51.256.147.446.303.57.47a.98.98 0 0 1 .185.6c0 .36-.134.648-.4.865-.267.217-.657.325-1.17.325-.567 0-1.01-.118-1.33-.355a1.109 1.109 0 0 1-.48-.935v-.27c0-.067-.034-.1-.1-.1h-.49c-.067 0-.1.033-.1.1v.31c0 .567.218 1.02.655 1.36.436.34 1.031.51 1.785.51zm4.026-.08c.06 0 .1-.027.12-.08l.4-1.26c.007-.02.02-.03.04-.03h2.99c.02 0 .034.01.04.03l.4 1.26c.02.053.06.08.12.08h.54c.06 0 .09-.023.09-.07l-.01-.04-2.22-6.81c-.02-.053-.06-.08-.12-.08h-.68c-.06 0-.1.027-.12.08l-2.21 6.81c-.02.073.007.11.08.11h.54zm3.34-1.95h-2.58a.048.048 0 0 1-.035-.015c-.01-.01-.011-.022-.005-.035l1.3-4.08c.007-.013.017-.02.03-.02.014 0 .024.007.03.02l1.3 4.08c.007.013.005.025-.005.035a.048.048 0 0 1-.035.015z" fill="#5F6368" fill-rule="nonzero"/>
                <path d="m324.69 97.01 4.243 4.243-4.243 4.243-4.243-4.243z" fill="#57F"/>
                <g transform="translate(321.69 121.153)">
                    <path d="M18.21 7.1c.06 0 .1-.027.12-.08l2.2-6.81c.02-.073-.007-.11-.08-.11h-.53c-.06 0-.1.027-.12.08l-1.82 5.86c-.007.013-.017.02-.03.02-.013 0-.023-.007-.03-.02L16.1.18c-.02-.053-.06-.08-.12-.08h-.54c-.06 0-.09.023-.09.07l.01.04 2.18 6.81c.02.053.06.08.12.08h.55zm4.127-5.98c.16 0 .293-.053.4-.16a.543.543 0 0 0 .16-.4.539.539 0 0 0-.56-.56.539.539 0 0 0-.56.56c0 .16.053.293.16.4.106.107.24.16.4.16zm.23 5.97c.066 0 .1-.033.1-.1V2.13c0-.067-.034-.1-.1-.1h-.51c-.067 0-.1.033-.1.1v4.86c0 .067.033.1.1.1h.51zm3.916.1c.434 0 .817-.092 1.15-.275a1.8 1.8 0 0 0 .75-.755c.027-.06.014-.107-.04-.14l-.39-.23c-.053-.033-.1-.02-.14.04-.12.233-.286.413-.5.54-.213.127-.46.19-.74.19-.373 0-.68-.087-.92-.26a1.196 1.196 0 0 1-.47-.71c-.026-.107-.046-.343-.06-.71 0-.027.014-.04.04-.04h3.23c.067 0 .1-.033.1-.1v-.32c0-.28-.013-.513-.04-.7-.08-.56-.283-.993-.61-1.3-.326-.307-.793-.46-1.4-.46-.486 0-.901.13-1.245.39-.343.26-.571.607-.685 1.04-.04.14-.065.298-.075.475-.01.177-.015.405-.015.685 0 .6.06 1.06.18 1.38.14.393.37.7.69.92.32.22.717.333 1.19.34zm1.27-2.95h-2.59c-.026 0-.04-.013-.04-.04.014-.313.04-.54.08-.68.067-.287.209-.515.425-.685.217-.17.489-.255.815-.255.34 0 .622.088.845.265.224.177.372.415.445.715.027.127.047.34.06.64 0 .027-.013.04-.04.04zm4.017 2.87c.167 0 .29-.003.37-.01.067 0 .1-.033.1-.1v-.41c0-.067-.033-.1-.1-.1h-.25c-.307 0-.532-.065-.675-.195-.143-.13-.215-.355-.215-.675V2.67c0-.027.013-.04.04-.04h1.13c.067 0 .1-.033.1-.1v-.39c0-.067-.033-.1-.1-.1h-1.13c-.027 0-.04-.013-.04-.04V.84c0-.067-.033-.1-.1-.1h-.49c-.067 0-.1.033-.1.1V2c0 .027-.013.04-.04.04h-.61c-.067 0-.1.033-.1.1v.39c0 .067.033.1.1.1h.61c.027 0 .04.013.04.04v3.17c0 .487.123.82.37 1 .247.18.61.27 1.09.27zm2.787-.01c.066 0 .1-.033.1-.1l-.01-5.51c0-.02.006-.032.02-.035.013-.003.023.005.03.025l3.41 5.55c.033.047.073.07.12.07h.5c.066 0 .1-.033.1-.1V.2c0-.067-.034-.1-.1-.1h-.51c-.067 0-.1.033-.1.1l.01 5.51c0 .02-.007.032-.02.035-.014.003-.024-.005-.03-.025L34.667.17c-.034-.047-.074-.07-.12-.07h-.5c-.067 0-.1.033-.1.1V7c0 .067.033.1.1.1h.51zm7.506.08c.327 0 .624-.052.89-.155.267-.103.484-.255.65-.455.014-.013.025-.017.035-.01.01.007.015.017.015.03V7c0 .067.034.1.1.1h.51c.067 0 .1-.033.1-.1V3.64c0-.507-.163-.913-.49-1.22-.326-.307-.79-.46-1.39-.46-.52 0-.953.117-1.3.35-.346.233-.546.537-.6.91-.013.04.017.067.09.08l.54.07c.06.007.1-.023.12-.09a.775.775 0 0 1 .37-.515c.2-.123.46-.185.78-.185.4 0 .695.098.885.295.19.197.285.465.285.805v.38c0 .027-.013.04-.04.04h-1.16c-.646 0-1.151.145-1.515.435-.363.29-.545.685-.545 1.185 0 .493.16.86.48 1.1.32.24.717.36 1.19.36zm.14-.61c-.326 0-.591-.075-.795-.225-.203-.15-.305-.372-.305-.665 0-.32.134-.57.4-.75.267-.18.62-.27 1.06-.27h1.05c.027 0 .04.013.04.04v.78c0 .333-.143.598-.43.795a1.759 1.759 0 0 1-1.02.295zm4.417.53c.067 0 .1-.033.1-.1V3.77c0-.36.105-.647.315-.86.21-.213.492-.32.845-.32.347 0 .623.108.83.325.207.217.31.508.31.875V7c0 .067.033.1.1.1h.51c.067 0 .1-.033.1-.1V3.77c0-.36.108-.647.325-.86.217-.213.502-.32.855-.32.34 0 .615.108.825.325.21.217.315.508.315.875V7c0 .067.033.1.1.1h.5c.067 0 .1-.033.1-.1V3.65c0-.52-.145-.93-.435-1.23-.29-.3-.685-.45-1.185-.45-.34 0-.643.068-.91.205a1.434 1.434 0 0 0-.62.615c-.02.033-.037.033-.05 0a1.346 1.346 0 0 0-.56-.61c-.247-.14-.543-.21-.89-.21-.28 0-.535.048-.765.145-.23.097-.418.242-.565.435-.013.013-.025.018-.035.015-.01-.003-.015-.012-.015-.025v-.4c0-.067-.033-.1-.1-.1h-.51c-.067 0-.1.033-.1.1V7c0 .067.033.1.1.1h.51z" fill="#5F6368" fill-rule="nonzero"/>
                    <circle fill="#9CAFFF" opacity=".4" cx="3" cy="4.1" r="3"/>
                </g>
            </g>
        </g>
        <path d="M117.98 209.76c.06 0 .1-.027.12-.08l.4-1.26c.007-.02.02-.03.04-.03h2.99c.02 0 .033.01.04.03l.4 1.26c.02.053.06.08.12.08h.54c.06 0 .09-.023.09-.07l-.01-.04-2.22-6.81c-.02-.053-.06-.08-.12-.08h-.68c-.06 0-.1.027-.12.08l-2.21 6.81c-.02.073.007.11.08.11h.54zm3.34-1.95h-2.58a.048.048 0 0 1-.035-.015c-.01-.01-.012-.022-.005-.035l1.3-4.08c.007-.013.017-.02.03-.02.013 0 .023.007.03.02l1.3 4.08c.007.013.005.025-.005.035a.048.048 0 0 1-.035.015zm3.917 3.94c.753 0 1.345-.173 1.775-.52.43-.347.645-.893.645-1.64v-4.79c0-.067-.034-.1-.1-.1h-.51c-.067 0-.1.033-.1.1v.39a.034.034 0 0 1-.015.03c-.01.007-.022.003-.035-.01-.307-.393-.757-.59-1.35-.59-.44 0-.817.122-1.13.365-.314.243-.53.565-.65.965-.054.16-.089.34-.105.54-.017.2-.025.447-.025.74 0 .54.04.947.12 1.22.113.427.338.757.675.99.336.233.721.35 1.155.35.566 0 1.003-.2 1.31-.6.013-.013.025-.018.035-.015.01.003.015.012.015.025v.37c0 .527-.14.912-.42 1.155-.28.243-.73.365-1.35.365l-.27-.01a.075.075 0 0 0-.07.015c-.02.017-.03.042-.03.075l-.02.46c0 .067.033.103.1.11.08.007.196.01.35.01zm.46-2.56c-.32 0-.592-.092-.815-.275a1.252 1.252 0 0 1-.435-.695c-.067-.187-.1-.523-.1-1.01 0-.453.033-.787.1-1 .086-.287.238-.52.455-.7.216-.18.481-.27.795-.27.32 0 .585.092.795.275.21.183.341.415.395.695.026.1.043.208.05.325.006.117.01.345.01.685v.16a12.64 12.64 0 0 1-.01.48 2.51 2.51 0 0 1-.04.37 1.17 1.17 0 0 1-.395.69c-.21.18-.479.27-.805.27zm5.556.66c.434 0 .817-.092 1.15-.275a1.8 1.8 0 0 0 .75-.755c.027-.06.014-.107-.04-.14l-.39-.23c-.053-.033-.1-.02-.14.04-.12.233-.286.413-.5.54-.213.127-.46.19-.74.19-.373 0-.68-.087-.92-.26a1.196 1.196 0 0 1-.47-.71c-.026-.107-.046-.343-.06-.71 0-.027.014-.04.04-.04h3.23c.067 0 .1-.033.1-.1v-.32c0-.28-.013-.513-.04-.7-.08-.56-.283-.993-.61-1.3-.326-.307-.793-.46-1.4-.46-.486 0-.901.13-1.245.39-.343.26-.571.607-.685 1.04-.04.14-.065.298-.075.475-.01.177-.015.405-.015.685 0 .6.06 1.06.18 1.38.14.393.37.7.69.92.32.22.717.333 1.19.34zm1.27-2.95h-2.59c-.026 0-.04-.013-.04-.04.014-.313.04-.54.08-.68.067-.287.209-.515.425-.685.217-.17.489-.255.815-.255.34 0 .622.088.845.265.224.177.372.415.445.715.027.127.047.34.06.64 0 .027-.013.04-.04.04z" fill="#5F6368" fill-rule="nonzero"/>
        <g fill="#5F6368" fill-rule="nonzero">
            <path d="M431.004 84.76c.08 0 .14-.032.18-.096l1.572-2.736c.024-.048.048-.048.072 0l1.56 2.736c.04.064.1.096.18.096h1.512c.088 0 .132-.032.132-.096l-.024-.072-2.328-3.996a.111.111 0 0 1 0-.072l2.328-3.996c.032-.048.036-.088.012-.12-.024-.032-.064-.048-.12-.048h-1.512c-.08 0-.14.032-.18.096l-1.56 2.748c-.024.048-.048.048-.072 0l-1.56-2.748a.198.198 0 0 0-.18-.096h-1.524c-.088 0-.132.032-.132.096l.024.072 2.328 3.996a.06.06 0 0 1 0 .072l-2.328 3.996c-.032.048-.036.088-.012.12.024.032.064.048.12.048h1.512zm10.09-2.82c.04 0 .074-.014.102-.042a.139.139 0 0 0 .042-.102v-1.164a.139.139 0 0 0-.042-.102.139.139 0 0 0-.102-.042h-3.924a.139.139 0 0 0-.102.042.139.139 0 0 0-.042.102v1.164c0 .04.014.074.042.102a.139.139 0 0 0 .102.042h3.924zm2.987 2.82c.08 0 .132-.04.156-.12l.348-1.176c.016-.032.036-.048.06-.048h2.952c.024 0 .044.016.06.048l.36 1.176c.024.08.076.12.156.12h1.524c.088 0 .132-.036.132-.108a.134.134 0 0 0-.012-.06l-2.592-8.112c-.024-.08-.076-.12-.156-.12h-1.884c-.08 0-.132.04-.156.12l-2.592 8.112c-.016.056-.012.098.012.126.024.028.06.042.108.042h1.524zm3.096-2.652h-2.112c-.04 0-.056-.024-.048-.072l1.056-3.564c.008-.024.02-.038.036-.042.016-.004.028.01.036.042l1.08 3.564c.016.048 0 .072-.048.072zm5.482 2.652a.188.188 0 0 0 .168-.096l1.08-1.644c.024-.048.048-.048.072 0l1.08 1.644c.04.064.096.096.168.096h1.512c.072 0 .108-.032.108-.096a.148.148 0 0 0-.024-.084l-1.92-2.868a.111.111 0 0 1 0-.072l1.92-2.868c.032-.048.04-.09.024-.126-.016-.036-.052-.054-.108-.054h-1.608a.188.188 0 0 0-.168.096l-1.08 1.644c-.024.048-.052.048-.084 0l-1.08-1.644a.188.188 0 0 0-.168-.096h-1.5c-.08 0-.12.032-.12.096 0 .024.008.052.024.084l1.932 2.868a.06.06 0 0 1 0 .072l-1.932 2.868c-.032.048-.038.09-.018.126.02.036.058.054.114.054h1.608zm6.514-6.864a.92.92 0 0 0 .948-.948.925.925 0 0 0-.264-.684.925.925 0 0 0-.684-.264.925.925 0 0 0-.684.264.925.925 0 0 0-.264.684.92.92 0 0 0 .948.948zm.684 6.864c.04 0 .074-.014.102-.042a.139.139 0 0 0 .042-.102v-5.892a.139.139 0 0 0-.042-.102.139.139 0 0 0-.102-.042h-1.404a.139.139 0 0 0-.102.042.139.139 0 0 0-.042.102v5.892c0 .04.014.074.042.102a.139.139 0 0 0 .102.042h1.404zm4.438.084c.792 0 1.422-.166 1.89-.498.468-.332.702-.794.702-1.386 0-.504-.164-.888-.492-1.152-.328-.264-.776-.48-1.344-.648a6.488 6.488 0 0 0-.36-.102 14.723 14.723 0 0 1-.3-.078c-.384-.088-.658-.172-.822-.252-.164-.08-.246-.2-.246-.36 0-.168.084-.3.252-.396.168-.096.384-.144.648-.144.296 0 .534.06.714.18.18.12.27.268.27.444 0 .04.014.074.042.102a.139.139 0 0 0 .102.042h1.284c.04 0 .074-.014.102-.042a.139.139 0 0 0 .042-.102c0-.376-.106-.712-.318-1.008a2.065 2.065 0 0 0-.894-.69c-.384-.164-.832-.246-1.344-.246-.76 0-1.37.174-1.83.522-.46.348-.69.818-.69 1.41 0 .48.152.848.456 1.104.304.256.712.472 1.224.648.216.088.512.18.888.276.328.08.564.156.708.228.144.072.216.18.216.324 0 .16-.084.294-.252.402-.168.108-.388.162-.66.162-.296 0-.542-.062-.738-.186-.196-.124-.294-.274-.294-.45v-.012a.139.139 0 0 0-.042-.102.139.139 0 0 0-.102-.042h-1.332a.139.139 0 0 0-.102.042.139.139 0 0 0-.042.102v.12c0 .344.11.652.33.924.22.272.53.484.93.636.4.152.868.228 1.404.228zM433.392 8.748c.04 0 .074-.014.102-.042a.139.139 0 0 0 .042-.102V5.568c0-.032.004-.056.012-.072l2.496-4.968c.024-.056.026-.098.006-.126-.02-.028-.058-.042-.114-.042H434.4a.17.17 0 0 0-.168.108l-1.5 3.192c-.024.048-.048.048-.072 0l-1.5-3.192a.17.17 0 0 0-.168-.108h-1.512c-.088 0-.132.032-.132.096 0 .016.008.04.024.072l2.472 4.968c.008.016.012.04.012.072v3.036c0 .04.014.074.042.102a.139.139 0 0 0 .102.042h1.392zm6.994-2.808c.04 0 .074-.014.102-.042a.139.139 0 0 0 .042-.102V4.632a.139.139 0 0 0-.042-.102.139.139 0 0 0-.102-.042h-3.924a.139.139 0 0 0-.102.042.139.139 0 0 0-.042.102v1.164c0 .04.014.074.042.102a.139.139 0 0 0 .102.042h3.924zm2.987 2.82c.08 0 .132-.04.156-.12l.348-1.176c.016-.032.036-.048.06-.048h2.952c.024 0 .044.016.06.048l.36 1.176c.024.08.076.12.156.12h1.524c.088 0 .132-.036.132-.108a.134.134 0 0 0-.012-.06L446.517.48c-.024-.08-.076-.12-.156-.12h-1.884c-.08 0-.132.04-.156.12l-2.592 8.112c-.016.056-.012.098.012.126.024.028.06.042.108.042h1.524zm3.096-2.652h-2.112c-.04 0-.056-.024-.048-.072l1.056-3.564c.008-.024.02-.038.036-.042.016-.004.028.01.036.042l1.08 3.564c.016.048 0 .072-.048.072zm5.482 2.652a.188.188 0 0 0 .168-.096l1.08-1.644c.024-.048.048-.048.072 0l1.08 1.644c.04.064.096.096.168.096h1.512c.072 0 .108-.032.108-.096a.148.148 0 0 0-.024-.084l-1.92-2.868a.111.111 0 0 1 0-.072l1.92-2.868c.032-.048.04-.09.024-.126-.016-.036-.052-.054-.108-.054h-1.608a.188.188 0 0 0-.168.096l-1.08 1.644c-.024.048-.052.048-.084 0l-1.08-1.644a.188.188 0 0 0-.168-.096h-1.5c-.08 0-.12.032-.12.096 0 .024.008.052.024.084l1.932 2.868a.06.06 0 0 1 0 .072l-1.932 2.868c-.032.048-.038.09-.018.126.02.036.058.054.114.054h1.608zm6.514-6.864a.92.92 0 0 0 .948-.948.925.925 0 0 0-.264-.684.925.925 0 0 0-.684-.264.925.925 0 0 0-.684.264.925.925 0 0 0-.264.684.92.92 0 0 0 .948.948zm.684 6.864c.04 0 .074-.014.102-.042a.139.139 0 0 0 .042-.102V2.724a.139.139 0 0 0-.042-.102.139.139 0 0 0-.102-.042h-1.404a.139.139 0 0 0-.102.042.139.139 0 0 0-.042.102v5.892c0 .04.014.074.042.102a.139.139 0 0 0 .102.042h1.404zm4.438.084c.792 0 1.422-.166 1.89-.498.468-.332.702-.794.702-1.386 0-.504-.164-.888-.492-1.152-.328-.264-.776-.48-1.344-.648a6.488 6.488 0 0 0-.36-.102 14.723 14.723 0 0 1-.3-.078c-.384-.088-.658-.172-.822-.252-.164-.08-.246-.2-.246-.36 0-.168.084-.3.252-.396.168-.096.384-.144.648-.144.296 0 .534.06.714.18.18.12.27.268.27.444 0 .04.014.074.042.102a.139.139 0 0 0 .102.042h1.284c.04 0 .074-.014.102-.042a.139.139 0 0 0 .042-.102c0-.376-.106-.712-.318-1.008a2.065 2.065 0 0 0-.894-.69c-.384-.164-.832-.246-1.344-.246-.76 0-1.37.174-1.83.522-.46.348-.69.818-.69 1.41 0 .48.152.848.456 1.104.304.256.712.472 1.224.648.216.088.512.18.888.276.328.08.564.156.708.228.144.072.216.18.216.324 0 .16-.084.294-.252.402-.168.108-.388.162-.66.162-.296 0-.542-.062-.738-.186-.196-.124-.294-.274-.294-.45v-.012a.139.139 0 0 0-.042-.102.139.139 0 0 0-.102-.042h-1.332a.139.139 0 0 0-.102.042.139.139 0 0 0-.042.102v.12c0 .344.11.652.33.924.22.272.53.484.93.636.4.152.868.228 1.404.228zM540.907 18.797l-.29.525a2.089 2.089 0 0 0-1.017-.262v-.6c.463 0 .91.117 1.307.337zm1.393 3.49h-.6l-.001-1.197.6-.02.001 1.216zm0 3.6h-.6v-1.2h.6v1.2zm0 3.6h-.6v-1.2h.6v1.2zm0 3.6h-.6v-1.2h.6v1.2zm0 3.6h-.6v-1.2h.6v1.2zm0 3.6h-.6v-1.2h.6v1.2zm0 3.6h-.6v-1.2h.6v1.2zm-1.193 3.514-.335-.498c.294-.198.535-.47.697-.785l.534.274a2.711 2.711 0 0 1-.896 1.009zm-3.76.459v-.6h1.2v.6h-1.2zm-3.6 0v-.6h1.2v.6h-1.2zm-3.6 0v-.6h1.2v.6h-1.2zm-3.6 0v-.6h1.2v.6h-1.2zm-3.6 0v-.6h1.2v.6h-1.2zm-3.6 0v-.6h1.2v.6h-1.2zm-3.6 0v-.6h1.2v.6h-1.2zm-3.6 0v-.6h1.2v.6h-1.2zm-3.6 0v-.6h1.2v.6h-1.2zm-3.6 0v-.6h1.2v.6h-1.2zm-3.6 0v-.6h1.2v.6h-1.2zm-3.6 0v-.6h1.2v.6h-1.2zm-3.6 0v-.6h1.2v.6h-1.2zm-3.6 0v-.6h1.2v.6h-1.2zm-3.6 0v-.6h1.2v.6h-1.2zm-3.6 0v-.6h1.2v.6h-1.2zm-3.6 0v-.6h1.2v.6h-1.2zm-3.6 0v-.6h1.2v.6h-1.2zm-3.6 0v-.6h1.2v.6h-1.2zm-3.6 0v-.6h1.2v.6h-1.2zm-3.6 0v-.6h1.2v.6h-1.2zm-3.6 0v-.6h1.2v.6h-1.2zm-3.6 0v-.6h1.2v.6h-1.2zm-3.6 0v-.6h1.2v.6h-1.2zm-3.6 0v-.6h1.2v.6h-1.2zm-3.6 0v-.6h1.2v.6h-1.2zm-3.6 0v-.6h1.2v.6h-1.2zm-3.6 0v-.6h1.2v.6h-1.2zm-3.6 0v-.6h1.2v.6h-1.2zm-3.6 0v-.6h1.2v.6h-1.2zm-3.703-.26.257-.541c.279.132.584.201.899.201h.148v.6h-.148a2.69 2.69 0 0 1-1.156-.26zm-1.544-3.419h.6v.994c0 .065.004.13.01.194l-.597.058a2.736 2.736 0 0 1-.013-.25v-.996zm0-3.6h.6v1.2h-.6v-1.2zm0-3.6h.6v1.2h-.6v-1.2zm0-3.6h.6v1.2h-.6v-1.2zm0-3.6h.6v1.2h-.6v-1.2zm0-3.6h.6v1.2h-.6v-1.2zm0-3.6h.6v1.2h-.6v-1.2zm1.055-3.562.366.475a2.108 2.108 0 0 0-.647.828l-.55-.24c.183-.419.47-.785.831-1.063zm3.75-.559v.6h-1.2v-.6h1.2zm3.6 0v.6h-1.2v-.6h1.2zm3.6 0v.6h-1.2v-.6h1.2zm3.6 0v.6h-1.2v-.6h1.2zm3.6 0v.6h-1.2v-.6h1.2zm3.6 0v.6h-1.2v-.6h1.2zm3.6 0v.6h-1.2v-.6h1.2zm3.6 0v.6h-1.2v-.6h1.2zm3.6 0v.6h-1.2v-.6h1.2zm3.6 0v.6h-1.2v-.6h1.2zm3.6 0v.6h-1.2v-.6h1.2zm3.6 0v.6h-1.2v-.6h1.2zm3.6 0v.6h-1.2v-.6h1.2zm3.6 0v.6h-1.2v-.6h1.2zm3.6 0v.6h-1.2v-.6h1.2zm3.6 0v.6h-1.2v-.6h1.2zm3.6 0v.6h-1.2v-.6h1.2zm3.6 0v.6h-1.2v-.6h1.2zm3.6 0v.6h-1.2v-.6h1.2zm3.6 0v.6h-1.2v-.6h1.2zm3.6 0v.6h-1.2v-.6h1.2zm3.6 0v.6h-1.2v-.6h1.2zm3.6 0v.6h-1.2v-.6h1.2zm3.6 0v.6h-1.2v-.6h1.2zm3.6 0v.6h-1.2v-.6h1.2zm3.6 0v.6h-1.2v-.6h1.2zm3.6 0v.6h-1.2v-.6h1.2zm3.6 0v.6h-1.2v-.6h1.2zm3.6 0v.6h-1.2v-.6h1.2zm3.6 0v.6h-1.2v-.6h1.2zm2.695 0v.6h-.295v-.6h.295zM439.98 37.76c.08 0 .132-.04.156-.12l.348-1.176c.016-.032.036-.048.06-.048h2.952c.024 0 .044.016.06.048l.36 1.176c.024.08.076.12.156.12h1.524c.088 0 .132-.036.132-.108a.134.134 0 0 0-.012-.06l-2.592-8.112c-.024-.08-.076-.12-.156-.12h-1.884c-.08 0-.132.04-.156.12l-2.592 8.112c-.016.056-.012.098.012.126.024.028.06.042.108.042h1.524zm3.096-2.652h-2.112c-.04 0-.056-.024-.048-.072l1.056-3.564c.008-.024.02-.038.036-.042.016-.004.028.01.036.042l1.08 3.564c.016.048 0 .072-.048.072zm5.768 5.016c.952 0 1.73-.224 2.334-.672.604-.448.906-1.196.906-2.244v-5.472a.139.139 0 0 0-.042-.102.139.139 0 0 0-.102-.042h-1.404a.139.139 0 0 0-.102.042.139.139 0 0 0-.042.102v.288c0 .024-.008.038-.024.042-.016.004-.032-.002-.048-.018-.328-.368-.8-.552-1.416-.552-.528 0-.992.148-1.392.444-.4.296-.684.688-.852 1.176-.144.392-.216.9-.216 1.524 0 .584.06 1.06.18 1.428.184.56.494.966.93 1.218.436.252.914.378 1.434.378.584 0 1.028-.164 1.332-.492.016-.016.032-.022.048-.018s.024.018.024.042c0 .496-.138.856-.414 1.08-.276.224-.67.336-1.182.336-.24 0-.504-.024-.792-.072-.112-.016-.168.028-.168.132l-.048 1.236c0 .096.04.148.12.156.344.04.656.06.936.06zm.468-3.804a1.038 1.038 0 0 1-1.02-.72c-.096-.192-.144-.512-.144-.96 0-.408.056-.732.168-.972.08-.216.204-.39.372-.522a.96.96 0 0 1 .612-.198c.248 0 .456.066.624.198.168.132.288.306.36.522.04.12.068.248.084.384s.024.328.024.576c0 .416-.032.744-.096.984-.064.208-.18.378-.348.51a.998.998 0 0 1-.636.198zm7.076 1.536c.496 0 .952-.09 1.368-.27.416-.18.756-.434 1.02-.762.032-.048.048-.08.048-.096 0-.032-.02-.068-.06-.108l-.864-.852c-.032-.032-.06-.048-.084-.048-.04 0-.076.024-.108.072-.296.408-.7.616-1.212.624-.64 0-1.064-.224-1.272-.672a2.149 2.149 0 0 1-.132-.48c-.016-.04 0-.06.048-.06h3.708c.096 0 .148-.048.156-.144.016-.376 0-.716-.048-1.02-.104-.776-.398-1.396-.882-1.86-.484-.464-1.126-.696-1.926-.696-.632 0-1.178.168-1.638.504-.46.336-.782.788-.966 1.356-.12.336-.18.724-.18 1.164 0 .648.084 1.172.252 1.572.208.56.55.996 1.026 1.308.476.312 1.058.468 1.746.468zm.828-3.756h-2.076c-.04 0-.06-.02-.06-.06.024-.152.052-.28.084-.384.16-.472.492-.708.996-.708.264 0 .486.066.666.198.18.132.306.318.378.558 0-.008.02.104.06.336.016.04 0 .06-.048.06z"/>
            <path d="M447.237 38.66v-.6H438v.6h9.237zm5.367-.6v.6h5.934v-.6h-5.934zM540.907 94.797l-.29.525a2.089 2.089 0 0 0-1.017-.262v-.6c.463 0 .91.117 1.307.337zm1.393 3.49h-.6l-.001-1.197.6-.02.001 1.216zm0 3.6h-.6v-1.2h.6v1.2zm0 3.6h-.6v-1.2h.6v1.2zm0 3.6h-.6v-1.2h.6v1.2zm0 3.6h-.6v-1.2h.6v1.2zm0 3.6h-.6v-1.2h.6v1.2zm0 3.6h-.6v-1.2h.6v1.2zm-1.193 3.514-.335-.498c.294-.198.535-.47.697-.785l.534.274a2.711 2.711 0 0 1-.896 1.009zm-3.76.459v-.6h1.2v.6h-1.2zm-3.6 0v-.6h1.2v.6h-1.2zm-3.6 0v-.6h1.2v.6h-1.2zm-3.6 0v-.6h1.2v.6h-1.2zm-3.6 0v-.6h1.2v.6h-1.2zm-3.6 0v-.6h1.2v.6h-1.2zm-3.6 0v-.6h1.2v.6h-1.2zm-3.6 0v-.6h1.2v.6h-1.2zm-3.6 0v-.6h1.2v.6h-1.2zm-3.6 0v-.6h1.2v.6h-1.2zm-3.6 0v-.6h1.2v.6h-1.2zm-3.6 0v-.6h1.2v.6h-1.2zm-3.6 0v-.6h1.2v.6h-1.2zm-3.6 0v-.6h1.2v.6h-1.2zm-3.6 0v-.6h1.2v.6h-1.2zm-3.6 0v-.6h1.2v.6h-1.2zm-3.6 0v-.6h1.2v.6h-1.2zm-3.6 0v-.6h1.2v.6h-1.2zm-3.6 0v-.6h1.2v.6h-1.2zm-3.6 0v-.6h1.2v.6h-1.2zm-3.6 0v-.6h1.2v.6h-1.2zm-3.6 0v-.6h1.2v.6h-1.2zm-3.6 0v-.6h1.2v.6h-1.2zm-3.6 0v-.6h1.2v.6h-1.2zm-3.6 0v-.6h1.2v.6h-1.2zm-3.6 0v-.6h1.2v.6h-1.2zm-3.6 0v-.6h1.2v.6h-1.2zm-3.6 0v-.6h1.2v.6h-1.2zm-3.6 0v-.6h1.2v.6h-1.2zm-3.6 0v-.6h1.2v.6h-1.2zm-3.703-.26.257-.541c.279.132.584.201.899.201h.148v.6h-.148a2.69 2.69 0 0 1-1.156-.26zm-1.544-3.419h.6v.994c0 .065.004.13.01.194l-.597.058a2.736 2.736 0 0 1-.013-.25v-.996zm0-3.6h.6v1.2h-.6v-1.2zm0-3.6h.6v1.2h-.6v-1.2zm0-3.6h.6v1.2h-.6v-1.2zm0-3.6h.6v1.2h-.6v-1.2zm0-3.6h.6v1.2h-.6v-1.2zm0-3.6h.6v1.2h-.6v-1.2zm1.055-3.562.366.475a2.108 2.108 0 0 0-.647.828l-.55-.24c.183-.419.47-.785.831-1.063zm3.75-.559v.6h-1.2v-.6h1.2zm3.6 0v.6h-1.2v-.6h1.2zm3.6 0v.6h-1.2v-.6h1.2zm3.6 0v.6h-1.2v-.6h1.2zm3.6 0v.6h-1.2v-.6h1.2zm3.6 0v.6h-1.2v-.6h1.2zm3.6 0v.6h-1.2v-.6h1.2zm3.6 0v.6h-1.2v-.6h1.2zm3.6 0v.6h-1.2v-.6h1.2zm3.6 0v.6h-1.2v-.6h1.2zm3.6 0v.6h-1.2v-.6h1.2zm3.6 0v.6h-1.2v-.6h1.2zm3.6 0v.6h-1.2v-.6h1.2zm3.6 0v.6h-1.2v-.6h1.2zm3.6 0v.6h-1.2v-.6h1.2zm3.6 0v.6h-1.2v-.6h1.2zm3.6 0v.6h-1.2v-.6h1.2zm3.6 0v.6h-1.2v-.6h1.2zm3.6 0v.6h-1.2v-.6h1.2zm3.6 0v.6h-1.2v-.6h1.2zm3.6 0v.6h-1.2v-.6h1.2zm3.6 0v.6h-1.2v-.6h1.2zm3.6 0v.6h-1.2v-.6h1.2zm3.6 0v.6h-1.2v-.6h1.2zm3.6 0v.6h-1.2v-.6h1.2zm3.6 0v.6h-1.2v-.6h1.2zm3.6 0v.6h-1.2v-.6h1.2zm3.6 0v.6h-1.2v-.6h1.2zm3.6 0v.6h-1.2v-.6h1.2zm3.6 0v.6h-1.2v-.6h1.2zm2.695 0v.6h-.295v-.6h.295zM440.28 113.76c.04 0 .074-.014.102-.042a.139.139 0 0 0 .042-.102v-3.276c0-.04.02-.06.06-.06h1.116c.032 0 .056.016.072.048l1.5 3.324a.17.17 0 0 0 .168.108h1.476c.088 0 .132-.032.132-.096a.184.184 0 0 0-.024-.072l-1.632-3.396c-.016-.04-.004-.068.036-.084.488-.16.868-.434 1.14-.822.272-.388.408-.854.408-1.398 0-.504-.106-.948-.318-1.332a2.188 2.188 0 0 0-.9-.888c-.388-.208-.838-.312-1.35-.312h-3.432a.139.139 0 0 0-.102.042.139.139 0 0 0-.042.102v8.112c0 .04.014.074.042.102a.139.139 0 0 0 .102.042h1.404zm1.776-4.776h-1.572c-.04 0-.06-.02-.06-.06v-2.052c0-.04.02-.06.06-.06h1.572c.336 0 .61.102.822.306.212.204.318.466.318.786s-.106.58-.318.78c-.212.2-.486.3-.822.3zm6.944 4.872c.496 0 .952-.09 1.368-.27.416-.18.756-.434 1.02-.762.032-.048.048-.08.048-.096 0-.032-.02-.068-.06-.108l-.864-.852c-.032-.032-.06-.048-.084-.048-.04 0-.076.024-.108.072-.296.408-.7.616-1.212.624-.64 0-1.064-.224-1.272-.672a2.149 2.149 0 0 1-.132-.48c-.016-.04 0-.06.048-.06h3.708c.096 0 .148-.048.156-.144.016-.376 0-.716-.048-1.02-.104-.776-.398-1.396-.882-1.86-.484-.464-1.126-.696-1.926-.696-.632 0-1.178.168-1.638.504-.46.336-.782.788-.966 1.356-.12.336-.18.724-.18 1.164 0 .648.084 1.172.252 1.572.208.56.55.996 1.026 1.308.476.312 1.058.468 1.746.468zm.828-3.756h-2.076c-.04 0-.06-.02-.06-.06.024-.152.052-.28.084-.384.16-.472.492-.708.996-.708.264 0 .486.066.666.198.18.132.306.318.378.558 0-.008.02.104.06.336.016.04 0 .06-.048.06zm5.984 3.66c.08 0 .132-.04.156-.12l1.908-5.868c.016-.056.012-.098-.012-.126-.024-.028-.06-.042-.108-.042l-1.548-.024c-.088 0-.144.04-.168.12l-.984 3.636c-.008.024-.02.036-.036.036-.016 0-.028-.012-.036-.036L454 107.7c-.024-.08-.08-.12-.168-.12h-1.548c-.088 0-.132.036-.132.108 0 .024.004.044.012.06l1.92 5.892c.024.08.076.12.156.12h1.572zm5.648.096c.496 0 .952-.09 1.368-.27.416-.18.756-.434 1.02-.762.032-.048.048-.08.048-.096 0-.032-.02-.068-.06-.108l-.864-.852c-.032-.032-.06-.048-.084-.048-.04 0-.076.024-.108.072-.296.408-.7.616-1.212.624-.64 0-1.064-.224-1.272-.672a2.149 2.149 0 0 1-.132-.48c-.016-.04 0-.06.048-.06h3.708c.096 0 .148-.048.156-.144.016-.376 0-.716-.048-1.02-.104-.776-.398-1.396-.882-1.86-.484-.464-1.126-.696-1.926-.696-.632 0-1.178.168-1.638.504-.46.336-.782.788-.966 1.356-.12.336-.18.724-.18 1.164 0 .648.084 1.172.252 1.572.208.56.55.996 1.026 1.308.476.312 1.058.468 1.746.468zm.828-3.756h-2.076c-.04 0-.06-.02-.06-.06.024-.152.052-.28.084-.384.16-.472.492-.708.996-.708.264 0 .486.066.666.198.18.132.306.318.378.558 0-.008.02.104.06.336.016.04 0 .06-.048.06zm4.58 3.66c.04 0 .074-.014.102-.042a.139.139 0 0 0 .042-.102v-3.588c0-.32.09-.58.27-.78.18-.2.418-.3.714-.3s.534.1.714.3c.18.2.27.46.27.78v3.588c0 .04.014.074.042.102a.139.139 0 0 0 .102.042h1.404c.04 0 .074-.014.102-.042a.139.139 0 0 0 .042-.102v-3.936c0-.672-.196-1.204-.588-1.596-.392-.392-.908-.588-1.548-.588-.648 0-1.136.232-1.464.696-.008.016-.02.02-.036.012-.016-.008-.024-.024-.024-.048v-.42a.139.139 0 0 0-.042-.102.139.139 0 0 0-.102-.042h-1.404a.139.139 0 0 0-.102.042.139.139 0 0 0-.042.102v5.88c0 .04.014.074.042.102a.139.139 0 0 0 .102.042h1.404zm7.256.084c.672 0 1.168-.216 1.488-.648.016-.024.032-.034.048-.03.016.004.024.018.024.042v.408c0 .04.014.074.042.102a.139.139 0 0 0 .102.042h1.404c.04 0 .074-.014.102-.042a.139.139 0 0 0 .042-.102v-5.88a.139.139 0 0 0-.042-.102.139.139 0 0 0-.102-.042h-1.404a.139.139 0 0 0-.102.042.139.139 0 0 0-.042.102v3.78c-.04.264-.148.478-.324.642a.947.947 0 0 1-.672.246c-.304 0-.542-.1-.714-.3-.172-.2-.258-.46-.258-.78v-3.588a.139.139 0 0 0-.042-.102.139.139 0 0 0-.102-.042h-1.392a.139.139 0 0 0-.102.042.139.139 0 0 0-.042.102v4.008c0 .664.196 1.18.588 1.548.392.368.892.552 1.5.552zm7.592.012c.496 0 .952-.09 1.368-.27.416-.18.756-.434 1.02-.762.032-.048.048-.08.048-.096 0-.032-.02-.068-.06-.108l-.864-.852c-.032-.032-.06-.048-.084-.048-.04 0-.076.024-.108.072-.296.408-.7.616-1.212.624-.64 0-1.064-.224-1.272-.672a2.149 2.149 0 0 1-.132-.48c-.016-.04 0-.06.048-.06h3.708c.096 0 .148-.048.156-.144.016-.376 0-.716-.048-1.02-.104-.776-.398-1.396-.882-1.86-.484-.464-1.126-.696-1.926-.696-.632 0-1.178.168-1.638.504-.46.336-.782.788-.966 1.356-.12.336-.18.724-.18 1.164 0 .648.084 1.172.252 1.572.208.56.55.996 1.026 1.308.476.312 1.058.468 1.746.468zm.828-3.756h-2.076c-.04 0-.06-.02-.06-.06.024-.152.052-.28.084-.384.16-.472.492-.708.996-.708.264 0 .486.066.666.198.18.132.306.318.378.558 0-.008.02.104.06.336.016.04 0 .06-.048.06zM438 114.06v.6h45.866v-.6z"/>
            <g>
                <path d="m540.907 170.797-.29.525a2.089 2.089 0 0 0-1.017-.262v-.6c.463 0 .91.117 1.307.337zm1.393 3.49h-.6l-.001-1.197.6-.02.001 1.216zm0 3.6h-.6v-1.2h.6v1.2zm0 3.6h-.6v-1.2h.6v1.2zm0 3.6h-.6v-1.2h.6v1.2zm0 3.6h-.6v-1.2h.6v1.2zm0 3.6h-.6v-1.2h.6v1.2zm0 3.6h-.6v-1.2h.6v1.2zm-1.193 3.514-.335-.498c.294-.198.535-.47.697-.785l.534.274a2.711 2.711 0 0 1-.896 1.009zm-3.76.459v-.6h1.2v.6h-1.2zm-3.6 0v-.6h1.2v.6h-1.2zm-3.6 0v-.6h1.2v.6h-1.2zm-3.6 0v-.6h1.2v.6h-1.2zm-3.6 0v-.6h1.2v.6h-1.2zm-3.6 0v-.6h1.2v.6h-1.2zm-3.6 0v-.6h1.2v.6h-1.2zm-3.6 0v-.6h1.2v.6h-1.2zm-3.6 0v-.6h1.2v.6h-1.2zm-3.6 0v-.6h1.2v.6h-1.2zm-3.6 0v-.6h1.2v.6h-1.2zm-3.6 0v-.6h1.2v.6h-1.2zm-3.6 0v-.6h1.2v.6h-1.2zm-3.6 0v-.6h1.2v.6h-1.2zm-3.6 0v-.6h1.2v.6h-1.2zm-3.6 0v-.6h1.2v.6h-1.2zm-3.6 0v-.6h1.2v.6h-1.2zm-3.6 0v-.6h1.2v.6h-1.2zm-3.6 0v-.6h1.2v.6h-1.2zm-3.6 0v-.6h1.2v.6h-1.2zm-3.6 0v-.6h1.2v.6h-1.2zm-3.6 0v-.6h1.2v.6h-1.2zm-3.6 0v-.6h1.2v.6h-1.2zm-3.6 0v-.6h1.2v.6h-1.2zm-3.6 0v-.6h1.2v.6h-1.2zm-3.6 0v-.6h1.2v.6h-1.2zm-3.6 0v-.6h1.2v.6h-1.2zm-3.6 0v-.6h1.2v.6h-1.2zm-3.6 0v-.6h1.2v.6h-1.2zm-3.6 0v-.6h1.2v.6h-1.2zm-3.703-.26.257-.541c.279.132.584.201.899.201h.148v.6h-.148a2.69 2.69 0 0 1-1.156-.26zm-1.544-3.419h.6v.994c0 .065.004.13.01.194l-.597.058a2.736 2.736 0 0 1-.013-.25v-.996zm0-3.6h.6v1.2h-.6v-1.2zm0-3.6h.6v1.2h-.6v-1.2zm0-3.6h.6v1.2h-.6v-1.2zm0-3.6h.6v1.2h-.6v-1.2zm0-3.6h.6v1.2h-.6v-1.2zm0-3.6h.6v1.2h-.6v-1.2zm1.055-3.562.366.475a2.108 2.108 0 0 0-.647.828l-.55-.24c.183-.419.47-.785.831-1.063zm3.75-.559v.6h-1.2v-.6h1.2zm3.6 0v.6h-1.2v-.6h1.2zm3.6 0v.6h-1.2v-.6h1.2zm3.6 0v.6h-1.2v-.6h1.2zm3.6 0v.6h-1.2v-.6h1.2zm3.6 0v.6h-1.2v-.6h1.2zm3.6 0v.6h-1.2v-.6h1.2zm3.6 0v.6h-1.2v-.6h1.2zm3.6 0v.6h-1.2v-.6h1.2zm3.6 0v.6h-1.2v-.6h1.2zm3.6 0v.6h-1.2v-.6h1.2zm3.6 0v.6h-1.2v-.6h1.2zm3.6 0v.6h-1.2v-.6h1.2zm3.6 0v.6h-1.2v-.6h1.2zm3.6 0v.6h-1.2v-.6h1.2zm3.6 0v.6h-1.2v-.6h1.2zm3.6 0v.6h-1.2v-.6h1.2zm3.6 0v.6h-1.2v-.6h1.2zm3.6 0v.6h-1.2v-.6h1.2zm3.6 0v.6h-1.2v-.6h1.2zm3.6 0v.6h-1.2v-.6h1.2zm3.6 0v.6h-1.2v-.6h1.2zm3.6 0v.6h-1.2v-.6h1.2zm3.6 0v.6h-1.2v-.6h1.2zm3.6 0v.6h-1.2v-.6h1.2zm3.6 0v.6h-1.2v-.6h1.2zm3.6 0v.6h-1.2v-.6h1.2zm3.6 0v.6h-1.2v-.6h1.2zm3.6 0v.6h-1.2v-.6h1.2zm3.6 0v.6h-1.2v-.6h1.2zm2.695 0v.6h-.295v-.6h.295zM441.684 189.856c.856 0 1.538-.24 2.046-.72.508-.48.762-1.148.762-2.004v-1.548c0-.08-.04-.12-.12-.12h-2.544c-.08 0-.12.04-.12.12v.504c0 .08.04.12.12.12h1.764c.032 0 .048.016.048.048v1.092c0 .536-.174.964-.522 1.284-.348.32-.814.48-1.398.48-.6 0-1.084-.172-1.452-.516-.368-.344-.552-.796-.552-1.356v-3.36c0-.56.18-1.012.54-1.356.36-.344.836-.516 1.428-.516s1.066.168 1.422.504c.356.336.534.772.534 1.308v.144c0 .08.04.12.12.12h.612c.08 0 .12-.04.12-.12v-.156a2.51 2.51 0 0 0-.348-1.314 2.364 2.364 0 0 0-.99-.906c-.428-.216-.918-.324-1.47-.324-.56 0-1.052.11-1.476.33-.424.22-.754.53-.99.93s-.354.86-.354 1.38v3.312c0 .52.118.98.354 1.38.236.4.566.71.99.93.424.22.916.33 1.476.33zm5.564-.096c.08 0 .12-.04.12-.12v-3.54c0-.448.136-.818.408-1.11a1.43 1.43 0 0 1 1.032-.462l.156-.012c.176 0 .332.028.468.084.08.032.132.008.156-.072l.132-.588c.016-.072-.008-.124-.072-.156a1.416 1.416 0 0 0-.684-.156c-.344 0-.646.082-.906.246a1.91 1.91 0 0 0-.642.69c-.008.016-.018.022-.03.018s-.018-.018-.018-.042v-.732c0-.08-.04-.12-.12-.12h-.612c-.08 0-.12.04-.12.12v5.832c0 .08.04.12.12.12h.612zm6.092.096c.576 0 1.07-.148 1.482-.444.412-.296.694-.704.846-1.224.112-.336.168-.828.168-1.476 0-.64-.056-1.132-.168-1.476a2.224 2.224 0 0 0-.846-1.2c-.412-.296-.902-.444-1.47-.444-.592 0-1.096.148-1.512.444-.416.296-.7.7-.852 1.212-.112.36-.168.848-.168 1.464s.056 1.108.168 1.476c.16.52.448.928.864 1.224.416.296.912.444 1.488.444zm0-.744c-.4 0-.738-.106-1.014-.318a1.492 1.492 0 0 1-.546-.858c-.064-.28-.096-.684-.096-1.212 0-.528.032-.932.096-1.212.096-.36.28-.646.552-.858.272-.212.604-.318.996-.318s.726.106 1.002.318c.276.212.462.498.558.858.064.28.096.684.096 1.212 0 .52-.036.924-.108 1.212-.096.36-.28.646-.552.858-.272.212-.6.318-.984.318zm6.44.732c.728 0 1.26-.248 1.596-.744.008-.016.02-.02.036-.012.016.008.024.02.024.036v.516c0 .08.04.12.12.12h.612c.08 0 .12-.04.12-.12v-5.832c0-.08-.04-.12-.12-.12h-.612c-.08 0-.12.04-.12.12v3.804c0 .448-.134.808-.402 1.08s-.63.408-1.086.408c-.44 0-.788-.134-1.044-.402s-.384-.63-.384-1.086v-3.804c0-.08-.04-.12-.12-.12h-.612c-.08 0-.12.04-.12.12v4.056c0 .416.094.772.282 1.068.188.296.444.522.768.678.324.156.678.234 1.062.234zm5.432 2.244c.08 0 .12-.04.12-.12v-2.82c0-.016.006-.026.018-.03.012-.004.026.002.042.018.176.232.396.41.66.534.264.124.552.186.864.186.576 0 1.054-.146 1.434-.438.38-.292.642-.694.786-1.206.104-.352.156-.848.156-1.488 0-.632-.06-1.14-.18-1.524a2.196 2.196 0 0 0-.786-1.176c-.38-.288-.85-.432-1.41-.432-.32 0-.61.064-.87.192s-.478.308-.654.54c-.016.016-.03.022-.042.018-.012-.004-.018-.014-.018-.03v-.504c0-.08-.04-.12-.12-.12h-.612c-.08 0-.12.04-.12.12v8.16c0 .08.04.12.12.12h.612zm1.608-2.976c-.304 0-.566-.082-.786-.246a1.358 1.358 0 0 1-.474-.654 2.028 2.028 0 0 1-.168-.582 6.64 6.64 0 0 1-.048-.906c0-.384.016-.684.048-.9.032-.216.084-.404.156-.564.104-.28.264-.504.48-.672.216-.168.484-.252.804-.252.336 0 .626.084.87.252.244.168.414.396.51.684.08.168.136.358.168.57.032.212.048.506.048.882 0 .392-.022.698-.066.918-.044.22-.11.418-.198.594a1.35 1.35 0 0 1-.51.636 1.45 1.45 0 0 1-.834.24zm10.192.648c.752 0 1.358-.2 1.818-.6.46-.4.69-.96.69-1.68 0-.488-.112-.904-.336-1.248-.224-.344-.552-.604-.984-.78-.04-.024-.04-.048 0-.072.392-.16.694-.394.906-.702.212-.308.318-.682.318-1.122 0-.696-.222-1.236-.666-1.62-.444-.384-1.054-.576-1.83-.576h-2.82c-.08 0-.12.04-.12.12v8.16c0 .08.04.12.12.12h2.904zm-.084-4.68h-2.04c-.032 0-.048-.016-.048-.048v-2.88c0-.032.016-.048.048-.048h2.04c.504 0 .906.138 1.206.414.3.276.45.646.45 1.11 0 .44-.15.792-.45 1.056-.3.264-.702.396-1.206.396zm.084 3.924h-2.124c-.032 0-.048-.016-.048-.048v-3.108c0-.032.016-.048.048-.048h2.076c.52 0 .934.146 1.242.438.308.292.462.682.462 1.17 0 .488-.15.876-.45 1.164-.3.288-.702.432-1.206.432zm4.256 3.156c.456 0 .81-.05 1.062-.15.252-.1.462-.278.63-.534.168-.256.348-.652.54-1.188l2.22-6.468c.024-.088-.008-.132-.096-.132H485c-.072 0-.12.032-.144.096l-1.536 4.848c-.008.016-.02.024-.036.024-.016 0-.028-.008-.036-.024l-1.56-4.848c-.024-.064-.072-.096-.144-.096h-.636c-.072 0-.108.028-.108.084l.012.048 2.028 5.904c.016.016.016.04 0 .072-.144.464-.278.81-.402 1.038-.124.228-.272.384-.444.468-.172.084-.414.13-.726.138h-.048c-.08 0-.12.04-.12.12v.48c0 .08.028.12.084.12h.084zm11.248-2.304c.616 0 1.158-.116 1.626-.348.468-.232.832-.56 1.092-.984.26-.424.39-.912.39-1.464a.108.108 0 0 0-.042-.084.151.151 0 0 0-.102-.036l-1.404-.06c-.096 0-.144.044-.144.132 0 .416-.13.752-.39 1.008s-.602.384-1.026.384c-.432 0-.778-.128-1.038-.384s-.39-.592-.39-1.008v-2.892c0-.424.13-.764.39-1.02s.606-.384 1.038-.384c.424 0 .766.128 1.026.384s.39.596.39 1.02c0 .088.04.132.12.132h.024l1.404-.084c.096-.016.144-.06.144-.132 0-.552-.13-1.038-.39-1.458a2.581 2.581 0 0 0-1.092-.972c-.468-.228-1.01-.342-1.626-.342-.624 0-1.172.12-1.644.36a2.59 2.59 0 0 0-1.092 1.02c-.256.44-.384.948-.384 1.524v2.772c0 .576.128 1.084.384 1.524.256.44.62.782 1.092 1.026.472.244 1.02.366 1.644.366zm7.148 0c.672 0 1.246-.178 1.722-.534.476-.356.802-.846.978-1.47.112-.376.168-.78.168-1.212 0-.44-.064-.86-.192-1.26-.192-.592-.52-1.054-.984-1.386-.464-.332-1.024-.498-1.68-.498-.672 0-1.248.168-1.728.504-.48.336-.812.8-.996 1.392-.112.376-.168.8-.168 1.272 0 .44.056.848.168 1.224.176.608.504 1.088.984 1.44.48.352 1.056.528 1.728.528zm0-1.452c-.272 0-.502-.08-.69-.24a1.314 1.314 0 0 1-.402-.66c-.056-.2-.084-.48-.084-.84 0-.376.032-.66.096-.852.08-.272.21-.484.39-.636.18-.152.406-.228.678-.228.264 0 .488.076.672.228.184.152.32.364.408.636.064.232.096.516.096.852 0 .304-.032.584-.096.84-.08.28-.212.5-.396.66a.989.989 0 0 1-.672.24zm6.2 1.44c.672 0 1.168-.216 1.488-.648.016-.024.032-.034.048-.03.016.004.024.018.024.042v.408c0 .04.014.074.042.102a.139.139 0 0 0 .102.042h1.404c.04 0 .074-.014.102-.042a.139.139 0 0 0 .042-.102v-5.88a.139.139 0 0 0-.042-.102.139.139 0 0 0-.102-.042h-1.404a.139.139 0 0 0-.102.042.139.139 0 0 0-.042.102v3.78c-.04.264-.148.478-.324.642a.947.947 0 0 1-.672.246c-.304 0-.542-.1-.714-.3-.172-.2-.258-.46-.258-.78v-3.588a.139.139 0 0 0-.042-.102.139.139 0 0 0-.102-.042h-1.392a.139.139 0 0 0-.102.042.139.139 0 0 0-.042.102v4.008c0 .664.196 1.18.588 1.548.392.368.892.552 1.5.552zm6.248-.084c.04 0 .074-.014.102-.042a.139.139 0 0 0 .042-.102v-3.588c0-.32.09-.58.27-.78.18-.2.418-.3.714-.3s.534.1.714.3c.18.2.27.46.27.78v3.588c0 .04.014.074.042.102a.139.139 0 0 0 .102.042h1.404c.04 0 .074-.014.102-.042a.139.139 0 0 0 .042-.102v-3.936c0-.672-.196-1.204-.588-1.596-.392-.392-.908-.588-1.548-.588-.648 0-1.136.232-1.464.696-.008.016-.02.02-.036.012-.016-.008-.024-.024-.024-.048v-.42a.139.139 0 0 0-.042-.102.139.139 0 0 0-.102-.042h-1.404a.139.139 0 0 0-.102.042.139.139 0 0 0-.042.102v5.88c0 .04.014.074.042.102a.139.139 0 0 0 .102.042h1.404zm7.76.036c.144 0 .384-.008.72-.024.096-.016.144-.068.144-.156v-1.14a.139.139 0 0 0-.042-.102.139.139 0 0 0-.102-.042h-.396c-.24 0-.414-.064-.522-.192-.108-.128-.162-.324-.162-.588v-2.544c0-.04.02-.06.06-.06h1.152c.04 0 .074-.014.102-.042a.139.139 0 0 0 .042-.102v-1.068a.139.139 0 0 0-.042-.102.139.139 0 0 0-.102-.042h-1.152c-.04 0-.06-.02-.06-.06v-1.428a.139.139 0 0 0-.042-.102.139.139 0 0 0-.102-.042h-1.344a.139.139 0 0 0-.102.042.139.139 0 0 0-.042.102v1.428c0 .04-.02.06-.06.06h-.684a.139.139 0 0 0-.102.042.139.139 0 0 0-.042.102v1.068c0 .04.014.074.042.102a.139.139 0 0 0 .102.042h.684c.04 0 .06.02.06.06v3.216c.008.608.176 1.022.504 1.242.328.22.824.33 1.488.33zm3.764-.036c.04 0 .074-.014.102-.042a.139.139 0 0 0 .042-.102v-3.276c0-.312.1-.562.3-.75.2-.188.444-.294.732-.318.112-.016.2-.024.264-.024.16 0 .3.02.42.06.104.04.16.012.168-.084l.252-1.368c.016-.088-.008-.148-.072-.18-.168-.112-.396-.168-.684-.168-.552 0-.992.24-1.32.72-.008.016-.02.02-.036.012-.016-.008-.024-.024-.024-.048v-.456a.139.139 0 0 0-.042-.102.139.139 0 0 0-.102-.042h-1.404a.139.139 0 0 0-.102.042.139.139 0 0 0-.042.102v5.88c0 .04.014.074.042.102a.139.139 0 0 0 .102.042h1.404zm3.428 2.388c.688 0 1.22-.068 1.596-.204.376-.136.668-.35.876-.642.208-.292.412-.73.612-1.314l2.076-6.24c.016-.056.014-.098-.006-.126-.02-.028-.054-.042-.102-.042h-1.464c-.088 0-.144.04-.168.12l-1.008 3.888c-.008.024-.02.036-.036.036-.016 0-.028-.012-.036-.036l-1.008-3.888c-.024-.08-.08-.12-.168-.12h-1.5c-.088 0-.132.036-.132.108 0 .024.004.044.012.06l1.968 5.976c.008.032.008.056 0 .072-.064.264-.154.464-.27.6a.866.866 0 0 1-.468.276 3.89 3.89 0 0 1-.798.084.139.139 0 0 0-.102.042.139.139 0 0 0-.042.102v1.104c0 .04.008.074.024.102.016.028.036.042.06.042h.084z"/>
                <path d="M463.88 190.66v-.6H438v.6h25.88zm18.043 0v-.6h-15.991v.6h15.991zm4.329 0v-.6h-2.074v.6h2.074zm2.58-.6v.6h38.447v-.6h-38.447zm43.219.6v-.6h-1.329v.6h1.329z"/>
            </g>
            <path d="M435.408 160.76c.04 0 .074-.014.102-.042a.139.139 0 0 0 .042-.102v-1.164a.139.139 0 0 0-.042-.102.139.139 0 0 0-.102-.042h-3.924c-.04 0-.06-.02-.06-.06v-6.744a.139.139 0 0 0-.042-.102.139.139 0 0 0-.102-.042h-1.404a.139.139 0 0 0-.102.042.139.139 0 0 0-.042.102v8.112c0 .04.014.074.042.102a.139.139 0 0 0 .102.042h5.532zm4.486.096c.496 0 .952-.09 1.368-.27.416-.18.756-.434 1.02-.762.032-.048.048-.08.048-.096 0-.032-.02-.068-.06-.108l-.864-.852c-.032-.032-.06-.048-.084-.048-.04 0-.076.024-.108.072-.296.408-.7.616-1.212.624-.64 0-1.064-.224-1.272-.672a2.149 2.149 0 0 1-.132-.48c-.016-.04 0-.06.048-.06h3.708c.096 0 .148-.048.156-.144.016-.376 0-.716-.048-1.02-.104-.776-.398-1.396-.882-1.86-.484-.464-1.126-.696-1.926-.696-.632 0-1.178.168-1.638.504-.46.336-.782.788-.966 1.356-.12.336-.18.724-.18 1.164 0 .648.084 1.172.252 1.572.208.56.55.996 1.026 1.308.476.312 1.058.468 1.746.468zm.828-3.756h-2.076c-.04 0-.06-.02-.06-.06.024-.152.052-.28.084-.384.16-.472.492-.708.996-.708.264 0 .486.066.666.198.18.132.306.318.378.558 0-.008.02.104.06.336.016.04 0 .06-.048.06zm5.567 6.024c.952 0 1.73-.224 2.334-.672.604-.448.906-1.196.906-2.244v-5.472a.139.139 0 0 0-.042-.102.139.139 0 0 0-.102-.042h-1.404a.139.139 0 0 0-.102.042.139.139 0 0 0-.042.102v.288c0 .024-.008.038-.024.042-.016.004-.032-.002-.048-.018-.328-.368-.8-.552-1.416-.552-.528 0-.992.148-1.392.444-.4.296-.684.688-.852 1.176-.144.392-.216.9-.216 1.524 0 .584.06 1.06.18 1.428.184.56.494.966.93 1.218.436.252.914.378 1.434.378.584 0 1.028-.164 1.332-.492.016-.016.032-.022.048-.018s.024.018.024.042c0 .496-.138.856-.414 1.08-.276.224-.67.336-1.182.336-.24 0-.504-.024-.792-.072-.112-.016-.168.028-.168.132l-.048 1.236c0 .096.04.148.12.156.344.04.656.06.936.06zm.468-3.804a1.038 1.038 0 0 1-1.02-.72c-.096-.192-.144-.512-.144-.96 0-.408.056-.732.168-.972.08-.216.204-.39.372-.522a.96.96 0 0 1 .612-.198c.248 0 .456.066.624.198.168.132.288.306.36.522.04.12.068.248.084.384s.024.328.024.576c0 .416-.032.744-.096.984-.064.208-.18.378-.348.51a.998.998 0 0 1-.636.198zm7.39 1.536c.496 0 .952-.09 1.368-.27.416-.18.756-.434 1.02-.762.032-.048.048-.08.048-.096 0-.032-.02-.068-.06-.108l-.864-.852c-.032-.032-.06-.048-.084-.048-.04 0-.076.024-.108.072-.296.408-.7.616-1.212.624-.64 0-1.064-.224-1.272-.672a2.149 2.149 0 0 1-.132-.48c-.016-.04 0-.06.048-.06h3.708c.096 0 .148-.048.156-.144.016-.376 0-.716-.048-1.02-.104-.776-.398-1.396-.882-1.86-.484-.464-1.126-.696-1.926-.696-.632 0-1.178.168-1.638.504-.46.336-.782.788-.966 1.356-.12.336-.18.724-.18 1.164 0 .648.084 1.172.252 1.572.208.56.55.996 1.026 1.308.476.312 1.058.468 1.746.468zm.828-3.756h-2.076c-.04 0-.06-.02-.06-.06.024-.152.052-.28.084-.384.16-.472.492-.708.996-.708.264 0 .486.066.666.198.18.132.306.318.378.558 0-.008.02.104.06.336.016.04 0 .06-.048.06zm4.894 3.66c.04 0 .074-.014.102-.042a.139.139 0 0 0 .042-.102v-3.588c0-.32.09-.58.27-.78.18-.2.418-.3.714-.3s.534.1.714.3c.18.2.27.46.27.78v3.588c0 .04.014.074.042.102a.139.139 0 0 0 .102.042h1.404c.04 0 .074-.014.102-.042a.139.139 0 0 0 .042-.102v-3.936c0-.672-.196-1.204-.588-1.596-.392-.392-.908-.588-1.548-.588-.648 0-1.136.232-1.464.696-.008.016-.02.02-.036.012-.016-.008-.024-.024-.024-.048v-.42a.139.139 0 0 0-.042-.102.139.139 0 0 0-.102-.042h-1.404a.139.139 0 0 0-.102.042.139.139 0 0 0-.042.102v5.88c0 .04.014.074.042.102a.139.139 0 0 0 .102.042h1.404zm7.87.096c.584 0 1.044-.22 1.38-.66.016-.016.032-.022.048-.018s.024.018.024.042v.396c0 .04.014.074.042.102a.139.139 0 0 0 .102.042h1.404c.04 0 .074-.014.102-.042a.139.139 0 0 0 .042-.102v-8.112a.139.139 0 0 0-.042-.102.139.139 0 0 0-.102-.042h-1.404a.139.139 0 0 0-.102.042.139.139 0 0 0-.042.102v2.568c0 .024-.008.04-.024.048s-.032 0-.048-.024c-.32-.4-.768-.6-1.344-.6-.584 0-1.074.15-1.47.45a2.58 2.58 0 0 0-.87 1.218c-.144.424-.216.92-.216 1.488 0 .552.068 1.036.204 1.452.176.544.466.972.87 1.284.404.312.886.468 1.446.468zm.36-1.452c-.392 0-.688-.172-.888-.516-.168-.32-.252-.72-.252-1.2 0-.536.1-.96.3-1.272.192-.312.476-.468.852-.468.352 0 .62.156.804.468.176.304.264.724.264 1.26 0 .512-.08.916-.24 1.212-.2.344-.48.516-.84.516z"/>
        </g>
    </g>
</svg>
