<svg width="48" height="48" viewBox="0 0 48 48" xmlns="http://www.w3.org/2000/svg">
    <g fill="none" fill-rule="evenodd">
        <path d="M0 0h48v48H0z"/>
        <path d="M26 7a2 2 0 0 1 2 2v6a2 2 0 0 1-2 2H2a2 2 0 0 1-2-2V9a2 2 0 0 1 2-2h24zm20 0a2 2 0 0 1 2 2v6a2 2 0 0 1-2 2H32a2 2 0 0 1-2-2V9a2 2 0 0 1 2-2h14z" fill="#9CB0FF"/>
        <path d="M47 35a1 1 0 0 1 1 1v2a1 1 0 0 1-1 1H19a1 1 0 0 1-1-1v-2a1 1 0 0 1 1-1zm0-7a1 1 0 0 1 1 1v2a1 1 0 0 1-1 1H19a1 1 0 0 1-1-1v-2a1 1 0 0 1 1-1z" fill="#B7C5FF"/>
        <path d="M15 27h-2v-1a1 1 0 0 0-2 0v1H9v-1a1 1 0 0 0-2 0v1H5v-1a1 1 0 0 0-2 0v1H1a1 1 0 0 0-1 1v12a1 1 0 0 0 1 1h14a1 1 0 0 0 1-1V28a1 1 0 0 0-1-1zm-1 12H2v-8h12v8z" fill="#7F98FE" fill-rule="nonzero"/>
        <path d="M38.198 10.196a.671.671 0 0 1 .885-.054l.064.056 2.248 2.256 2.21-2.253a.671.671 0 0 1 .885-.064l.063.055c.245.24.267.62.065.885l-.055.064-2.685 2.738a.671.671 0 0 1-.891.06l-.064-.056-2.727-2.738a.671.671 0 0 1 .002-.95z" fill="#FFF" fill-rule="nonzero"/>
    </g>
</svg>
