<svg width="48" height="48" viewBox="0 0 48 48" fill="none" xmlns="http://www.w3.org/2000/svg">
<g clip-path="url(#clip0_3860_75936)">
<path fill-rule="evenodd" clip-rule="evenodd" d="M1.00264 43.9169C1.00089 43.9043 1 43.8916 1 43.8788V4.27661C1 4.20325 1.02914 4.13289 1.08102 4.08102C1.13289 4.02914 1.20325 4 1.27661 4C1.34997 4 1.42033 4.02914 1.4722 4.08102C1.52408 4.13289 1.55322 4.20325 1.55322 4.27661V43.6797H45.7407C45.8095 43.6797 45.8754 43.7088 45.924 43.7607C45.9727 43.8126 46 43.8829 46 43.9563C46 44.0297 45.9727 44.1 45.924 44.1519C45.8754 44.2038 45.8095 44.2329 45.7407 44.2329H1.25932C1.19054 44.2329 1.12459 44.2038 1.07595 44.1519C1.02732 44.1 1 44.0297 1 43.9563C1 43.943 1.00089 43.9299 1.00264 43.9169Z" fill="#C7C7CC"/>
<path d="M1.00264 43.9169L1.2504 43.9503L1.25498 43.9164L1.25025 43.8824L1.00264 43.9169ZM1.08102 4.08102L0.90424 3.90424L0.90424 3.90424L1.08102 4.08102ZM1.4722 4.08102L1.64898 3.90424V3.90424L1.4722 4.08102ZM1.55322 43.6797H1.30322V43.9297H1.55322V43.6797ZM45.924 43.7607L46.1064 43.5897L46.1064 43.5897L45.924 43.7607ZM45.924 44.1519L46.1064 44.3229L46.1064 44.3229L45.924 44.1519ZM1.07595 44.1519L0.893566 44.3229L0.893572 44.3229L1.07595 44.1519ZM1.25025 43.8824C1.25009 43.8812 1.25 43.88 1.25 43.8788H0.75C0.75 43.9032 0.751698 43.9274 0.75503 43.9514L1.25025 43.8824ZM1.25 43.8788V4.27661H0.75V43.8788H1.25ZM1.25 4.27661C1.25 4.26955 1.2528 4.26278 1.25779 4.25779L0.90424 3.90424C0.805481 4.003 0.75 4.13694 0.75 4.27661H1.25ZM1.25779 4.25779C1.26278 4.2528 1.26955 4.25 1.27661 4.25V3.75C1.13694 3.75 1.003 3.80548 0.90424 3.90424L1.25779 4.25779ZM1.27661 4.25C1.28367 4.25 1.29044 4.2528 1.29543 4.25779L1.64898 3.90424C1.55022 3.80548 1.41627 3.75 1.27661 3.75V4.25ZM1.29543 4.25779C1.30041 4.26278 1.30322 4.26955 1.30322 4.27661H1.80322C1.80322 4.13694 1.74774 4.003 1.64898 3.90424L1.29543 4.25779ZM1.30322 4.27661V43.6797H1.80322V4.27661H1.30322ZM1.55322 43.9297H45.7407V43.4297H1.55322V43.9297ZM45.7407 43.9297C45.7377 43.9297 45.7385 43.9283 45.7417 43.9317L46.1064 43.5897C46.0123 43.4894 45.8812 43.4297 45.7407 43.4297V43.9297ZM45.7417 43.9317C45.7454 43.9356 45.75 43.9442 45.75 43.9563H46.25C46.25 43.8216 46.2 43.6895 46.1064 43.5897L45.7417 43.9317ZM45.75 43.9563C45.75 43.9684 45.7454 43.977 45.7417 43.9809L46.1064 44.3229C46.2 44.2231 46.25 44.091 46.25 43.9563H45.75ZM45.7417 43.9809C45.7385 43.9843 45.7377 43.9829 45.7407 43.9829V44.4829C45.8812 44.4829 46.0123 44.4232 46.1064 44.3229L45.7417 43.9809ZM45.7407 43.9829H1.25932V44.4829H45.7407V43.9829ZM1.25932 43.9829C1.26225 43.9829 1.26152 43.9843 1.25833 43.9809L0.893572 44.3229C0.987655 44.4232 1.11884 44.4829 1.25932 44.4829V43.9829ZM1.25834 43.9809C1.25465 43.977 1.25 43.9684 1.25 43.9563H0.75C0.75 44.0909 0.799995 44.2231 0.893566 44.3229L1.25834 43.9809ZM1.25 43.9563C1.25 43.9543 1.25014 43.9523 1.2504 43.9503L0.754886 43.8835C0.751647 43.9075 0.75 43.9318 0.75 43.9563H1.25Z" fill="#C7C7CC"/>
<path d="M15 34C19.4183 34 23 30.4183 23 26C23 21.5817 19.4183 18 15 18C10.5817 18 7 21.5817 7 26C7 30.4183 10.5817 34 15 34Z" fill="url(#paint0_linear_3860_75936)"/>
<path d="M34 40C36.7614 40 39 37.7614 39 35C39 32.2386 36.7614 30 34 30C31.2386 30 29 32.2386 29 35C29 37.7614 31.2386 40 34 40Z" fill="url(#paint1_linear_3860_75936)"/>
<path d="M34 24C39.5228 24 44 19.5228 44 14C44 8.47715 39.5228 4 34 4C28.4772 4 24 8.47715 24 14C24 19.5228 28.4772 24 34 24Z" fill="url(#paint2_linear_3860_75936)"/>
</g>
<defs>
<linearGradient id="paint0_linear_3860_75936" x1="1.496" y1="51.3" x2="24.977" y2="47.5243" gradientUnits="userSpaceOnUse">
<stop stop-color="#568E8B"/>
<stop offset="0.776042" stop-color="#67F5ED"/>
</linearGradient>
<linearGradient id="paint1_linear_3860_75936" x1="26.46" y1="37.75" x2="37.4002" y2="37.3286" gradientUnits="userSpaceOnUse">
<stop stop-color="#F377B3"/>
<stop offset="1" stop-color="#FEB3DD"/>
</linearGradient>
<linearGradient id="paint2_linear_3860_75936" x1="24" y1="14.0952" x2="44" y2="14.0952" gradientUnits="userSpaceOnUse">
<stop stop-color="#A855F7"/>
<stop offset="1" stop-color="#3B82F6"/>
</linearGradient>
<clipPath id="clip0_3860_75936">
<rect width="48" height="48" fill="white"/>
</clipPath>
</defs>
</svg>
