<svg width="48" height="48" viewBox="0 0 48 48" xmlns="http://www.w3.org/2000/svg">
    <g fill="none" fill-rule="evenodd">
        <path opacity=".1" d="M0 0h48v48H0z"/>
        <g fill-rule="nonzero">
            <path d="M38.483 33.22v13.483h-8.355V33.221h8.355zm9.22-16.258v13.482H24.56V16.962h23.144zM35.822.703v13.482H24.559V.703h11.263z" fill="#7F98FE"/>
            <path d="M30.128 33.22v13.483H11.842V33.221h18.286zM24.56 16.963v13.482h-7.148V16.962h7.148zm0-16.259v13.482H11.842V.703h12.717z" fill="#B7C5FF"/>
            <path d="M11.842 33.22v13.483H.703V33.221h11.139zm5.57-16.258v13.482H.702V16.962h16.708zM11.841.703v13.482H.703V.703h11.139z" fill="#D3DCFF"/>
            <path d="M18.99 37.715v4.494h-2.785v-4.494h2.784zm16.708-16.259v4.494h-2.785v-4.494h2.785zm-5.57-16.259v4.494h-2.784V5.197h2.784z" fill="#2148E4"/>
            <path d="M16.205 37.715v4.494H.703v-4.494h15.502zm16.708-16.259v4.494H.703v-4.494h32.21zm-5.57-16.259v4.494H.704V5.197h26.64z" fill="#57F"/>
        </g>
    </g>
</svg>
