<svg xmlns="http://www.w3.org/2000/svg" width="16" height="16" viewBox="0 0 16 16">
    <g fill="none" fill-rule="evenodd">
        <path d="M0 0H16V16H0z"/>
        <g fill="#9799AD" fill-rule="nonzero">
            <path d="M0 12H16V13.333H0zM2.667 10.667H4c.368 0 .667-.299.667-.667V4c0-.368-.299-.667-.667-.667H2.667C2.299 3.333 2 3.632 2 4v6c0 .368.299.667.667.667zM7.333 10.667h1.334c.368 0 .666-.299.666-.667V.667C9.333.299 9.035 0 8.667 0H7.333c-.368 0-.666.299-.666.667V10c0 .368.298.667.666.667zM11.333 6.667V10c0 .368.299.667.667.667h1.333c.368 0 .667-.299.667-.667V6.667c0-.368-.299-.667-.667-.667H12c-.368 0-.667.299-.667.667z" transform="translate(0 1)"/>
        </g>
    </g>
</svg>
