<svg xmlns="http://www.w3.org/2000/svg" width="16" height="16" viewBox="0 0 16 16">
    <g fill="none" fill-rule="evenodd">
        <g>
            <g>
                <g>
                    <path d="M0 0H16V16H0z" transform="translate(-656 -127) translate(640 112) translate(16 15)"/>
                    <path fill="#9799AD" d="M2.17 2.522l5.646 5.647.003.004.004.004 5.655 5.653C12.047 15.176 10.12 16 8 16c-4.418 0-8-3.582-8-8 0-2.12.824-4.047 2.17-5.478zm11.661 0C15.176 3.955 16 5.882 16 8c0 2.12-.824 4.047-2.17 5.478L8.353 8zM7.751.005L7.75 7.397 2.522 2.17C3.897.877 5.73.066 7.75.004zm.5 0c2.02.062 3.852.873 5.227 2.166L8.25 7.396z" transform="translate(-656 -127) translate(640 112) translate(16 15)"/>
                </g>
            </g>
        </g>
    </g>
</svg>
