<svg xmlns="http://www.w3.org/2000/svg" width="48" height="48" viewBox="0 0 48 48">
    <g fill="none" fill-rule="evenodd">
        <g>
            <g>
                <g>
                    <g>
                        <g>
                            <path d="M0 0H48V48H0z" transform="translate(-1023 -413) translate(372 106) translate(0 109) translate(616 174) translate(35 24)"/>
                            <path fill="#57F" d="M12 22.609V39H6V22.609h6zm28 0V39h-6V22.609h6zm-21-6.305V39h-6V16.304h6zm14 0V39h-6V16.304h6zM26 10v29h-6V10h6z" transform="translate(-1023 -413) translate(372 106) translate(0 109) translate(616 174) translate(35 24)"/>
                            <path fill="#9799AE" fill-rule="nonzero" d="M1 3c.513 0 .936.386.993.883L2 4v38h44c.513 0 .936.386.993.883L47 43c0 .513-.386.936-.883.993L46 44H1c-.513 0-.936-.386-.993-.883L0 43V4c0-.552.448-1 1-1z" transform="translate(-1023 -413) translate(372 106) translate(0 109) translate(616 174) translate(35 24)"/>
                        </g>
                    </g>
                </g>
            </g>
        </g>
    </g>
</svg>
