<svg xmlns="http://www.w3.org/2000/svg" width="48" height="48" viewBox="0 0 48 48">
    <g fill="none" fill-rule="evenodd">
        <g>
            <g>
                <g>
                    <g>
                        <g>
                            <path d="M0 0H48V48H0z" transform="translate(-696 -226) translate(329 93) translate(48 109) translate(284) translate(35 24)"/>
                            <path fill="#9799AE" fill-rule="nonzero" d="M1.5.5c.513 0 .936.386.993.883L2.5 1.5v38h44c.513 0 .936.386.993.883l.007.117c0 .513-.386.936-.883.993l-.117.007h-45c-.513 0-.936-.386-.993-.883L.5 40.5v-39c0-.552.448-1 1-1z" transform="translate(-696 -226) translate(329 93) translate(48 109) translate(284) translate(35 24)"/>
                            <g>
                                <path fill="#57F" fill-rule="nonzero" d="M39.684.539l-1.303 2.5-1.047.618c-.078.046-.15.103-.214.17l-.128.134-.128.165-2.374 3.83-2.444 1.205c-.093.046-.179.107-.253.179l-.141.136-.079.085-.035.046-.766 1.192-1.883.281-.214.057-.089.034-.177.09-1.71 1.093-.09.065c-.114.093-.207.21-.272.344l-1.1 2.283-2.046.354-.136.034c-.177.056-.336.162-.457.305l-3.633 4.287-2.277.002-.125.008c-.369.046-.686.295-.815.651l-1.204 3.324-.827.313-.12.055c-.156.083-.287.207-.38.359l-1.177 1.924-.979.654-.1.076-1.005.87H8.76l-.118.008c-.31.037-.59.218-.748.494l-.49.85-.394-.425-.089-.084c-.432-.366-1.097-.3-1.445.166l-2.256 3.02h-.878c-.287 0-.56.123-.75.338l-1.34 1.52c-.233.263-.31.628-.205.963l.376 1.19.043.112c.291.648 1.174.8 1.661.247l.868-.985.96.001.117-.006c.271-.032.52-.174.684-.395l1.646-2.205.56.604.09.086c.468.395 1.196.28 1.51-.268l1.061-1.845.789.001c.131 0 .261-.026.383-.076l.153-.063.097-.047c.063-.034.122-.076.176-.123l1.276-1.11 1.145-.76c.07-.045.132-.099.187-.16l.119-.13.114-.152 1.015-1.667 1.04-.39.113-.052c.219-.115.389-.309.474-.544l1.072-2.962 1.863.002.125-.008c.247-.031.476-.154.639-.346l3.726-4.403 2.306-.395.117-.027c.268-.08.492-.27.615-.525l1.263-2.627 1.066-.682 2.308-.341.12-.026c.237-.065.443-.216.577-.425l.943-1.477 2.535-1.247.097-.055c.126-.08.232-.188.311-.316l2.464-3.979 1.188-.698.093-.063c.12-.09.218-.205.287-.338l.738-1.422.077.05c.601.38 1.396.03 1.52-.671l.232-1.315c.07-.4-.107-.802-.45-1.019l-1.43-.905c-.494-.313-1.151-.136-1.421.384z" transform="translate(-696 -226) translate(329 93) translate(48 109) translate(284) translate(35 24) translate(3 1)"/>
                                <path fill="#7F98FE" fill-rule="nonzero" d="M38.155 19.411l-2.842.608-.133.039-4.003 1.457-4.422.915-.112.03c-.073.024-.143.057-.21.097l-3.311 2.031-3.293.336-.147.027-4.297 1.102-.12.04c-.04.015-.078.033-.115.053l-3.011 1.664-4.634 1.546-2.401-.85-.112-.033c-.486-.111-.99.156-1.163.636l-1.316 3.649-1.923.864c-.394.178-.63.589-.584 1.019l.156 1.465c.072.676.783 1.085 1.404.807l2.58-1.157.102-.053c.198-.118.35-.301.429-.52l1.017-2.824 1.405.498c.104.037.214.056.324.057l.122.001c.11.002.221-.016.326-.051l5.145-1.721.168-.074 2.963-1.643 4.022-1.027 3.466-.35c.08-.007.158-.025.234-.052l.087-.03.192-.093 3.324-2.055 4.279-.873.142-.04 4.01-1.462 3.138-.666c.117-.025.23-.07.33-.135l.138-.088c.077-.05.147-.11.208-.178l3.03-3.395c.223-.251.306-.598.22-.924l-.352-1.316c-.206-.768-1.183-1.001-1.712-.408l-2.748 3.077z" transform="translate(-696 -226) translate(329 93) translate(48 109) translate(284) translate(35 24) translate(3 1)"/>
                                <path fill="#B7C5FF" d="M40.019 26.391l-2.212 1.093-1.413.656-4.338.001-.186.018-.082.015-.172.05-3.049 1.169-3.721-.584c-.112-.017-.225-.016-.336.005l-.147.027-.102.024c-.067.02-.132.046-.193.08l-.899.485-1.476.001-.156.012-6.039.953-2.118-.003-.218.024-.096.021-.194.065-1.328.598-1.301-.26-.191-.019h-.085l-.193.018-5.062.967-.128.033c-.168.056-.318.156-.436.29l-1.201 1.367-2.47 1.519c-.364.223-.546.653-.453 1.07l.252 1.132c.15.67.915.994 1.5.634l2.642-1.622.13-.095.08-.068.099-.099.961-1.097 4.311-.824 1.451.292c.105.02.212.025.317.012l.14-.017.1-.017c.065-.015.13-.036.19-.064l1.447-.654 1.968.002.156-.013 6.038-.953 1.672.003c.087 0 .173-.01.257-.033l.113-.03.113-.037c.037-.014.073-.031.108-.05l.807-.438 3.635.574c.088.013.177.016.266.006l.116-.013.085-.013c.056-.011.11-.027.164-.048l3.143-1.209 4.38.001c.075 0 .15-.008.223-.025l.098-.022.2-.068 1.687-.786 2.535-1.25c.08-.04.155-.091.223-.151l.13-.116.145-.162.906-1.258c.218-.303.249-.701.08-1.034l-.466-.926c-.338-.67-1.266-.743-1.704-.134l-.703.975z" transform="translate(-696 -226) translate(329 93) translate(48 109) translate(284) translate(35 24) translate(3 1)"/>
                            </g>
                        </g>
                    </g>
                </g>
            </g>
        </g>
    </g>
</svg>
