<svg xmlns="http://www.w3.org/2000/svg" width="50" height="50" viewBox="0 0 50 50">
    <g fill="none" fill-rule="evenodd">
        <g>
            <g>
                <g>
                    <g>
                        <g transform="translate(-454 -562) translate(372 106) translate(0 109) translate(48 324) translate(34 23.005)">
                            <rect width="48" height="48" x="1" y=".995" rx="2"/>
                            <path fill="#9799AE" fill-rule="nonzero" d="M24.587.003c-9.553.16-18.17 5.754-22.214 14.385l-.163.353-.51 1.225-.16.425C-3.098 28.987 3.07 43.08 15.602 48.16c2.986 1.21 6.178 1.832 9.4 1.83C38.807 49.992 50 38.803 50 25 50.003 11.195 38.814.003 25.01 0l-.423.003zM25.01 2c12.7.002 22.994 10.3 22.991 22.998C48 37.698 37.702 47.992 25.002 47.99c-2.965.002-5.902-.57-8.65-1.684C4.709 41.586-.963 28.403 3.552 16.726l.278-.696.037-.086c3.568-8.332 11.69-13.779 20.725-13.94L25.01 2z"/>
                            <path fill="#B7C5FF" d="M43.833 37.095l-1.235-1.233v-2.868c.002-.124-.026-.247-.08-.358l-3.119-6.23v-3.01c0-.268-.134-.517-.356-.666l-2.4-1.6c-.187-.125-.42-.165-.64-.11l-2.938.734-4.936-2.118-.679-4.757 1.882-1.881h4.04l1.36 2.043c.123.184.316.309.534.345l4.8.8c.128.021.26.011.383-.03l4.42-1.474c3.707 7.115 3.31 15.672-1.04 22.413h.004z"/>
                            <path fill="#7F98FE" d="M40.532 8.882l-1.3.867-3.627-.726-2.352-.783c-.144-.049-.3-.055-.446-.017l-2.974.743-1.304-.435.966-1.932H32.2c.124 0 .247-.029.358-.084l2.767-1.384c1.906.995 3.66 2.258 5.207 3.75zM16.241 4.386l1.92 1.28c.094.062.2.104.313.123l3.876.646-.379 1.132-2.02.674c-.18.06-.334.183-.432.346l-2.297 3.828-3.69 2.214-5.439.777c-.394.056-.687.393-.688.791v2.4c0 .212.084.415.235.565l1.365 1.365v1.374l-3.327-2.218-1.207-3.621c2.296-5.247 6.505-9.422 11.77-11.676z"/>
                            <path fill="#57F" d="M13.964 30.61l-3.615-.724-1.344-2.68v-1.88l2.98-2.98 1.103 2.207c.136.271.413.442.716.442h5.146l2.167 3.611c.145.241.405.388.686.388h2.223l-.56 2.805-3.028 3.029c-.15.15-.235.353-.235.565v2l-2.88 2.16c-.201.15-.32.387-.32.64v2.888l-.994-.33-1.405-3.512v-7.845c0-.38-.267-.708-.64-.784z"/>
                        </g>
                    </g>
                </g>
            </g>
        </g>
    </g>
</svg>
