<svg width="48" height="48" viewBox="0 0 48 48" fill="none" xmlns="http://www.w3.org/2000/svg">
<g clip-path="url(#clip0_3860_75957)">
<path fill-rule="evenodd" clip-rule="evenodd" d="M7.063 34C7.579 34 8 34.42 8 34.938V41.063C8 41.579 7.58 42 7.062 42H0.938C0.421 42 0 41.58 0 41.062V34.938C0 34.42 0.42 34 0.938 34H7.063ZM7.063 34.625H0.938C0.765 34.625 0.625 34.765 0.625 34.938V41.063C0.625 41.235 0.765 41.375 0.938 41.375H7.063C7.235 41.375 7.375 41.235 7.375 41.062V34.938C7.375 34.765 7.235 34.625 7.062 34.625H7.063ZM48 36V40H12V36H48ZM7.062 20C7.579 20 8 20.42 8 20.938V27.062C8 27.579 7.58 28 7.062 28H0.938C0.421 28 0 27.58 0 27.062V20.937C0 20.421 0.42 20 0.938 20H7.063H7.062ZM7.062 20.625H0.938C0.766 20.625 0.626 20.765 0.626 20.938V27.062C0.626 27.235 0.766 27.375 0.939 27.375H7.064C7.236 27.375 7.376 27.235 7.376 27.062V20.937C7.376 20.765 7.236 20.625 7.063 20.625H7.062ZM48 22V26H12V22H48ZM7.062 6C7.58 6 8 6.42 8 6.938V13.063C8 13.579 7.58 14 7.062 14H0.938C0.421 14 0 13.58 0 13.062V6.938C0 6.421 0.42 6 0.938 6H7.063H7.062ZM6.267 7.948L3.377 11.175L1.7 9.581L1.27 10.034L3.413 12.072L6.733 8.365L6.267 7.948ZM48 8V12H12V8H48Z" fill="url(#paint0_linear_3860_75957)"/>
</g>
<defs>
<linearGradient id="paint0_linear_3860_75957" x1="-8.08028e-08" y1="24.1714" x2="48" y2="24.1714" gradientUnits="userSpaceOnUse">
<stop stop-color="#A855F7"/>
<stop offset="1" stop-color="#3B82F6"/>
</linearGradient>
<clipPath id="clip0_3860_75957">
<rect width="48" height="48" fill="white"/>
</clipPath>
</defs>
</svg>
