<svg xmlns="http://www.w3.org/2000/svg" width="48" height="48" viewBox="0 0 48 48">
    <g fill="none" fill-rule="evenodd">
        <g>
            <g>
                <g>
                    <g>
                        <g transform="translate(-597 -563) translate(372 106) translate(0 109) translate(190 324) translate(35 24)">
                            <rect width="48" height="48" fill="#57F" rx="2"/>
                            <g>
                                <path fill="#FFF" fill-rule="nonzero" d="M4 11.328c.053 0 .099-.019.136-.056.037-.037.056-.083.056-.136V.32c0-.053-.019-.099-.056-.136C4.099.147 4.053.128 4 .128H2.064c-.107 0-.187.016-.24.048L.144.96C.048 1.003 0 1.077 0 1.184L.048 2.56c0 .117.048.176.144.176l.064-.016 1.584-.432c.021-.01.043-.005.064.016.021.021.032.043.032.064v8.768c0 .053.019.099.056.136.037.037.083.056.136.056H4zm3.435.064c.362 0 .664-.12.904-.36s.36-.541.36-.904c0-.373-.118-.677-.352-.912-.235-.235-.539-.352-.912-.352-.374 0-.678.117-.912.352-.235.235-.352.539-.352.912 0 .363.12.664.36.904s.541.36.904.36zm10.618-.064c.054 0 .099-.019.136-.056.038-.037.056-.083.056-.136V9.584c0-.053-.018-.099-.056-.136-.037-.037-.082-.056-.136-.056h-4.336c-.032 0-.053-.01-.064-.032-.01-.021-.005-.043.016-.064l.24-.24c.758-.768 1.328-1.355 1.712-1.76.384-.405.742-.816 1.072-1.232.448-.544.784-1.05 1.008-1.52.224-.47.336-.928.336-1.376 0-.587-.152-1.12-.456-1.6-.304-.48-.736-.861-1.296-1.144C15.725.141 15.067 0 14.31 0c-.682 0-1.298.117-1.848.352-.549.235-.989.573-1.32 1.016-.33.443-.512.952-.544 1.528v.752c0 .053.019.099.056.136.038.037.083.056.136.056h1.888c.054 0 .099-.019.136-.056.038-.037.056-.083.056-.136v-.4c0-.395.134-.712.4-.952.267-.24.614-.36 1.04-.36.427 0 .774.12 1.04.36.267.24.4.547.4.92 0 .523-.485 1.323-1.456 2.4-.309.32-.613.656-.912 1.008-.138.15-.48.525-1.024 1.128-.544.603-1.077 1.16-1.6 1.672-.064.064-.096.144-.096.24v1.472c0 .053.019.099.056.136.038.037.083.056.136.056h7.2zm4.155 0c.053 0 .099-.019.136-.056.037-.037.056-.083.056-.136v-7.04c0-.043.01-.067.032-.072.021-.005.043.008.064.04l1.696 2.656c.053.085.128.128.224.128h.944c.096 0 .17-.043.224-.128l1.696-2.656c.021-.032.043-.048.064-.048.021 0 .032.021.032.064v7.056c0 .053.019.099.056.136.037.037.083.056.136.056h1.872c.053 0 .099-.019.136-.056.037-.037.056-.083.056-.136V.32c0-.053-.019-.099-.056-.136-.037-.037-.083-.056-.136-.056h-1.872c-.096 0-.17.043-.224.128l-2.416 3.728c-.032.064-.064.064-.096 0l-2.4-3.728c-.053-.085-.128-.128-.224-.128h-1.872c-.053 0-.099.019-.136.056-.037.037-.056.083-.056.136v10.816c0 .053.019.099.056.136.037.037.083.056.136.056h1.872z" transform="translate(9 12)"/>
                                <g>
                                    <path fill="#FFF" fill-rule="nonzero" d="M9.595 5.728c.416 0 .778-.1 1.088-.3.309-.2.525-.47.648-.812.085-.219.128-.464.128-.736 0-.245-.04-.499-.12-.76-.118-.33-.316-.59-.596-.78-.28-.19-.607-.284-.98-.284-.315 0-.592.077-.832.232-.032.021-.048.013-.048-.024L8.89 1.08c0-.027.013-.04.04-.04h2.232c.026 0 .049-.01.068-.028.018-.019.028-.041.028-.068V.168c0-.027-.01-.05-.028-.068-.019-.019-.042-.028-.068-.028H7.859c-.027 0-.05.01-.068.028-.019.019-.028.041-.028.068v3.224c0 .027.009.05.028.068.018.019.041.028.068.028h.984c.053 0 .088-.027.104-.08.042-.112.128-.203.256-.272.128-.07.266-.104.416-.104.149 0 .28.037.392.112.112.075.186.181.224.32.048.123.072.261.072.416 0 .17-.027.31-.08.416-.054.144-.136.256-.248.336-.112.08-.243.12-.392.12-.144 0-.27-.037-.376-.112-.107-.075-.187-.181-.24-.32l-.024-.056c-.011-.021-.019-.048-.024-.08-.016-.059-.051-.088-.104-.088H7.85c-.064 0-.096.03-.096.088V4.2c.026.155.066.301.12.44.128.336.345.601.652.796.306.195.662.292 1.068.292zm4.029-3.2c.23 0 .441-.056.636-.168.195-.112.348-.265.46-.46.112-.195.168-.407.168-.636 0-.23-.057-.44-.172-.632-.115-.192-.268-.345-.46-.46C14.064.057 13.853 0 13.624 0c-.235 0-.45.057-.644.172-.195.115-.35.268-.464.46-.115.192-.172.403-.172.632 0 .23.057.441.172.636.115.195.27.348.464.46.195.112.41.168.644.168zm.288 3.144c.053 0 .093-.021.12-.064L17.04.184c.016-.032.019-.059.008-.08-.01-.021-.035-.032-.072-.032h-.592c-.053 0-.093.021-.12.064L13.248 5.56c-.016.032-.019.059-.008.08.01.021.035.032.072.032h.6zm-.288-3.8c-.17 0-.315-.059-.432-.176-.117-.117-.176-.261-.176-.432 0-.165.059-.307.176-.424.117-.117.261-.176.432-.176.165 0 .305.059.42.176.115.117.172.259.172.424 0 .17-.057.315-.172.432-.115.117-.255.176-.42.176zm3.12 3.872c.23 0 .441-.057.636-.172.195-.115.35-.27.464-.464.115-.195.172-.407.172-.636 0-.23-.057-.44-.172-.632-.115-.192-.27-.344-.464-.456-.195-.112-.407-.168-.636-.168-.23 0-.441.056-.636.168-.195.112-.35.264-.464.456-.115.192-.172.403-.172.632 0 .23.057.441.172.636.115.195.27.35.464.464.195.115.407.172.636.172zm0-.664c-.17 0-.313-.059-.428-.176-.115-.117-.172-.261-.172-.432 0-.17.059-.313.176-.428.117-.115.259-.172.424-.172.165 0 .307.059.424.176.117.117.176.259.176.424 0 .17-.059.315-.176.432-.117.117-.259.176-.424.176z" transform="translate(9 12) translate(5 18.328)"/>
                                    <path fill="#4EFF86" d="M2.559 0.672L0 4.672 5.247 4.672z" transform="translate(9 12) translate(5 18.328)"/>
                                </g>
                            </g>
                        </g>
                    </g>
                </g>
            </g>
        </g>
    </g>
</svg>
