<svg xmlns="http://www.w3.org/2000/svg" width="48" height="48" viewBox="0 0 48 48">
    <g fill="none" fill-rule="evenodd">
        <g>
            <g>
                <g>
                    <g>
                        <g>
                            <path d="M0 0H48V48H0z" opacity=".1" transform="translate(-980.000000, -390.000000) translate(329.000000, 93.000000) translate(0.000000, 109.000000) translate(48.000000, -578.000000) translate(0.000000, 442.000000) translate(568.000000, 300.000000) translate(35.000000, 24.000000)"/>
                            <path fill="#B7C5FF" d="M4 28c2.21 0 4 1.79 4 4s-1.79 4-4 4-4-1.79-4-4 1.79-4 4-4zm0 .5C2.067 28.5.5 30.067.5 32s1.567 3.5 3.5 3.5 3.5-1.567 3.5-3.5-1.567-3.5-3.5-3.5zM48 30v4H12v-4h36zM4 14c2.21 0 4 1.79 4 4s-1.79 4-4 4-4-1.79-4-4 1.79-4 4-4zm0 .5C2.067 14.5.5 16.067.5 18s1.567 3.5 3.5 3.5 3.5-1.567 3.5-3.5-1.567-3.5-3.5-3.5zM48 16v4H12v-4h36zM4 0c2.21 0 4 1.79 4 4S6.21 8 4 8 0 6.21 0 4s1.79-4 4-4zm0 .5C2.067.5.5 2.067.5 4S2.067 7.5 4 7.5 7.5 5.933 7.5 4 5.933.5 4 .5zM4 2c1.105 0 2 .895 2 2s-.895 2-2 2-2-.895-2-2 .895-2 2-2zm44 0v4H12V2h36z" transform="translate(-980.000000, -390.000000) translate(329.000000, 93.000000) translate(0.000000, 109.000000) translate(48.000000, -578.000000) translate(0.000000, 442.000000) translate(568.000000, 300.000000) translate(35.000000, 24.000000) translate(0.000000, 6.000000)"/>
                        </g>
                    </g>
                </g>
            </g>
        </g>
    </g>
</svg>
