<svg width="48" height="48" xmlns="http://www.w3.org/2000/svg">
    <g fill="none" fill-rule="evenodd">
        <path opacity=".1" d="M0 0h48v48H0z"/>
        <path fill="#57F" d="M0 7.077h5.189v5.189H0zM42.811 7.077H48v10.378h-5.189zM42.811 25.239H48v14.27h-5.189zM0 17.455h5.189v11.676H0zM0 34.32h5.189v6.486H0z"/>
        <path d="M5.19 17.455c7.397.115 13.045-1.154 16.943-3.806 6.001-4.382 12.894-6.572 20.678-6.572V9.67c-8.003.089-14.58 2.294-19.732 6.615-5.152 4.322-11.116 6.194-17.89 5.617v-4.448z" fill="#B7C5FF"/>
        <path d="M5.19 22.005v7.126c7.504-.165 13.05-2.32 16.64-6.467s7.33-7.052 11.222-8.716c3.047-1.121 6.3-1.682 9.759-1.682V9.67c-7.679.034-13.733 1.863-18.162 5.488-4.43 3.625-10.916 5.907-19.46 6.846z" fill="#7F98FE"/>
        <path d="M5.19 34.32c6.214-.368 11.786-2.845 16.715-7.432 7.392-6.881 6.947-11.66 20.906-12.755v3.322c-7.328.21-13.165 3.613-17.514 10.211-6.522 9.897-9.937 12.272-20.108 13.14V34.32z" fill="#7F98FE"/>
        <path d="M5.19 7.077c6.146-.544 12.11 1.808 17.889 7.056 8.669 7.872 9.562 9.809 19.732 11.106v7.135C35.263 32.05 28.992 27.964 24 20.117 19.008 12.27 12.737 8.788 5.19 9.671V7.077z" fill="#7F98FE"/>
        <path d="M5.19 9.671v2.595c6.364.315 11.415 3.023 15.151 8.126 5.605 7.654 9.584 18.495 22.47 19.117v-7.135C35.346 31.62 29.076 27.392 24 19.687 18.924 11.982 12.654 8.643 5.19 9.67z" fill="#B7C5FF"/>
    </g>
</svg>
