<svg width="48" height="48" viewBox="0 0 48 48" fill="none" xmlns="http://www.w3.org/2000/svg">
<g clip-path="url(#clip0_3860_75975)">
<path fill-rule="evenodd" clip-rule="evenodd" d="M22 15L9 15V5L22 5V15ZM18 43H9L9 33H18L18 43ZM25.25 29H9V19H25.25V29Z" fill="url(#paint0_linear_3860_75975)"/>
<path fill-rule="evenodd" clip-rule="evenodd" d="M25.8 43H18L18 33H25.8V43ZM31 15H22V5L31 5V15ZM36.5 29H25.25V19H36.5V29Z" fill="url(#paint1_linear_3860_75975)"/>
<path fill-rule="evenodd" clip-rule="evenodd" d="M31 43H25.8L25.8 33H31V43ZM37 15H31V5L37 5V15ZM44 29H36.5V19H44V29Z" fill="url(#paint2_linear_3860_75975)"/>
<path fill-rule="evenodd" clip-rule="evenodd" d="M5.00264 45.6466C5.00089 45.6325 5 45.6182 5 45.6039V1.30938C5 1.22733 5.02914 1.14864 5.08102 1.09062C5.13289 1.0326 5.20325 1 5.27661 1C5.34997 1 5.42033 1.0326 5.4722 1.09062C5.52408 1.14864 5.55322 1.22733 5.55322 1.30938V45.3812H49.7407C49.8095 45.3812 49.8754 45.4138 49.924 45.4719C49.9727 45.5299 50 45.6086 50 45.6906C50 45.7727 49.9727 45.8514 49.924 45.9094C49.8754 45.9674 49.8095 46 49.7407 46H5.25932C5.19054 46 5.12459 45.9674 5.07595 45.9094C5.02732 45.8514 5 45.7727 5 45.6906C5 45.6758 5.00089 45.6611 5.00264 45.6466Z" fill="#C7C7CC"/>
<path d="M5.00264 45.6466L5.25084 45.6765L5.25451 45.6461L5.25073 45.6157L5.00264 45.6466ZM5.08102 1.09062L4.89464 0.923987L4.89464 0.923987L5.08102 1.09062ZM5.55322 45.3812H5.30322V45.6312H5.55322V45.3812ZM49.924 45.4719L49.7324 45.6324L49.7325 45.6325L49.924 45.4719ZM5.07595 45.9094L4.88435 46.07H4.88435L5.07595 45.9094ZM5.25073 45.6157C5.25025 45.6118 5.25 45.6079 5.25 45.6039H4.75C4.75 45.6286 4.75153 45.6532 4.75456 45.6774L5.25073 45.6157ZM5.25 45.6039V1.30938H4.75V45.6039H5.25ZM5.25 1.30938C5.25 1.28516 5.25886 1.26679 5.26739 1.25725L4.89464 0.923987C4.79943 1.03049 4.75 1.1695 4.75 1.30938H5.25ZM5.26739 1.25725C5.27136 1.2528 5.27452 1.25101 5.27585 1.25039C5.2771 1.24981 5.27725 1.25 5.27661 1.25V0.75C5.12734 0.75 4.99068 0.816569 4.89464 0.923987L5.26739 1.25725ZM5.27661 1.25C5.27597 1.25 5.27612 1.24981 5.27737 1.25039C5.2787 1.25101 5.28185 1.2528 5.28583 1.25725L5.65857 0.923987C5.56254 0.816569 5.42588 0.75 5.27661 0.75V1.25ZM5.28583 1.25725C5.29436 1.26679 5.30322 1.28516 5.30322 1.30938H5.80322C5.80322 1.1695 5.75379 1.03049 5.65857 0.923987L5.28583 1.25725ZM5.30322 1.30938V45.3812H5.80322V1.30938H5.30322ZM5.55322 45.6312H49.7407V45.1312H5.55322V45.6312ZM49.7407 45.6312C49.7351 45.6312 49.731 45.6298 49.7291 45.6289C49.7275 45.6281 49.7291 45.6284 49.7324 45.6324L50.1156 45.3113C50.0249 45.203 49.8914 45.1312 49.7407 45.1312V45.6312ZM49.7325 45.6325C49.7401 45.6416 49.75 45.662 49.75 45.6906H50.25C50.25 45.5551 50.2053 45.4182 50.1156 45.3112L49.7325 45.6325ZM49.75 45.6906C49.75 45.7192 49.7401 45.7397 49.7324 45.7488L50.1156 46.07C50.2053 45.9631 50.25 45.8261 50.25 45.6906H49.75ZM49.7324 45.7488C49.7291 45.7528 49.7275 45.7532 49.7292 45.7523C49.731 45.7514 49.7351 45.75 49.7407 45.75V46.25C49.8914 46.25 50.0249 46.1782 50.1156 46.07L49.7324 45.7488ZM49.7407 45.75H5.25932V46.25H49.7407V45.75ZM5.25932 45.75C5.26491 45.75 5.26899 45.7514 5.27084 45.7523C5.27252 45.7532 5.27093 45.7528 5.26755 45.7488L4.88435 46.07C4.97508 46.1782 5.10857 46.25 5.25932 46.25V45.75ZM5.26755 45.7488C5.25991 45.7397 5.25 45.7192 5.25 45.6906H4.75C4.75 45.8261 4.79473 45.9631 4.88435 46.07L5.26755 45.7488ZM5.25 45.6906C5.25 45.6858 5.25029 45.6811 5.25084 45.6765L4.75444 45.6166C4.7515 45.6411 4.75 45.6658 4.75 45.6906H5.25Z" fill="#C7C7CC"/>
</g>
<defs>
<linearGradient id="paint0_linear_3860_75975" x1="17.0476" y1="5" x2="17.0476" y2="43" gradientUnits="userSpaceOnUse">
<stop stop-color="#A855F7"/>
<stop offset="1" stop-color="#3B82F6"/>
</linearGradient>
<linearGradient id="paint1_linear_3860_75975" x1="-2.00312" y1="-8.072" x2="15.0339" y2="43.5101" gradientUnits="userSpaceOnUse">
<stop stop-color="#568E8B"/>
<stop offset="0.776042" stop-color="#67F5ED"/>
</linearGradient>
<linearGradient id="paint2_linear_3860_75975" x1="29.895" y1="-4.652" x2="33.2219" y2="36.7151" gradientUnits="userSpaceOnUse">
<stop stop-color="#F377B3"/>
<stop offset="1" stop-color="#FEB3DD"/>
</linearGradient>
<clipPath id="clip0_3860_75975">
<rect width="48" height="48" fill="white"/>
</clipPath>
</defs>
</svg>
