<svg width="48" height="48" viewBox="0 0 48 48" fill="none" xmlns="http://www.w3.org/2000/svg">
<g clip-path="url(#clip0_3860_75942)">
<path fill-rule="evenodd" clip-rule="evenodd" d="M4 34C6.21 34 8 35.79 8 38C8 40.21 6.21 42 4 42C1.79 42 0 40.21 0 38C0 35.79 1.79 34 4 34ZM4 34.5C2.067 34.5 0.5 36.067 0.5 38C0.5 39.933 2.067 41.5 4 41.5C5.933 41.5 7.5 39.933 7.5 38C7.5 36.067 5.933 34.5 4 34.5ZM48 36V40H12V36H48ZM4 20C6.21 20 8 21.79 8 24C8 26.21 6.21 28 4 28C1.79 28 0 26.21 0 24C0 21.79 1.79 20 4 20ZM4 20.5C2.067 20.5 0.5 22.067 0.5 24C0.5 25.933 2.067 27.5 4 27.5C5.933 27.5 7.5 25.933 7.5 24C7.5 22.067 5.933 20.5 4 20.5ZM48 22V26H12V22H48ZM4 6C6.21 6 8 7.79 8 10C8 12.21 6.21 14 4 14C1.79 14 0 12.21 0 10C0 7.79 1.79 6 4 6ZM4 6.5C2.067 6.5 0.5 8.067 0.5 10C0.5 11.933 2.067 13.5 4 13.5C5.933 13.5 7.5 11.933 7.5 10C7.5 8.067 5.933 6.5 4 6.5ZM4 8C5.105 8 6 8.895 6 10C6 11.105 5.105 12 4 12C2.895 12 2 11.105 2 10C2 8.895 2.895 8 4 8ZM48 8V12H12V8H48Z" fill="url(#paint0_linear_3860_75942)"/>
</g>
<defs>
<linearGradient id="paint0_linear_3860_75942" x1="-8.08028e-08" y1="24.1714" x2="48" y2="24.1714" gradientUnits="userSpaceOnUse">
<stop stop-color="#A855F7"/>
<stop offset="1" stop-color="#3B82F6"/>
</linearGradient>
<clipPath id="clip0_3860_75942">
<rect width="48" height="48" fill="white"/>
</clipPath>
</defs>
</svg>
