<svg xmlns="http://www.w3.org/2000/svg" width="48" height="48" viewBox="0 0 48 48">
    <g fill="none" fill-rule="evenodd">
        <g>
            <g>
                <g>
                    <g>
                        <g>
                            <path d="M0 0H48V48H0z" transform="translate(-696 -376) translate(329 93) translate(48 109) translate(284 150) translate(35 24)"/>
                            <path fill="#57F" d="M9.4 29c1 0 2 1 2 2s-1 2-2 2-2-1-2-2 1-2 2-2zm4-6c1 0 2 1 2 2 1 0 2 1 2 2s-1 2-2 2-2-1-2-2l-.136-.006C12.31 26.909 11.4 25.954 11.4 25c0-1 1-2 2-2zm8-2c.798 0 1.596.637 1.886 1.402.33-.248.722-.402 1.114-.402 1 0 2 1 2 2s-1 2-2 2c-.798 0-1.596-.637-1.886-1.402-.33.248-.722.402-1.114.402-1 0-2-1-2-2s1-2 2-2zm14-4c1 0 2 1 2 2s-1 2-2 2-2-1-2-2 1-2 2-2zm-16-1c1 0 2 1 2 2s-1 2-2 2-2-1-2-2 1-2 2-2zm7-2c1 0 2 1 2 2s-1 2-2 2-2-1-2-2 1-2 2-2zm7-4c1 0 2 1 2 2s-1 2-2 2-2-1-2-2 1-2 2-2zm8 0c1 0 2 1 2 2s-1 2-2 2-2-1-2-2 1-2 2-2zm-15-4c1 0 2 1 2 2s-1 2-2 2-2-1-2-2 1-2 2-2zm10-3c1 0 2 1 2 2s-1 2-2 2-2-1-2-2 1-2 2-2z" transform="translate(-696 -376) translate(329 93) translate(48 109) translate(284 150) translate(35 24)"/>
                            <path fill="#9799AE" fill-rule="nonzero" d="M2 4c.513 0 .936.386.993.883L3 5v38h44c.513 0 .936.386.993.883L48 44c0 .513-.386.936-.883.993L47 45H2c-.513 0-.936-.386-.993-.883L1 44V5c0-.552.448-1 1-1z" transform="translate(-696 -376) translate(329 93) translate(48 109) translate(284 150) translate(35 24)"/>
                        </g>
                    </g>
                </g>
            </g>
        </g>
    </g>
</svg>
