<svg width="48" height="49" viewBox="0 0 48 49" fill="none" xmlns="http://www.w3.org/2000/svg">
<path d="M1.22132 47.8429C-0.074772 47.1826 -0.0408515 47.8429 0.025587 24.583L0.0877355 2.88448L0.6348 2.00679C0.935919 1.52363 1.55656 0.902954 2.01449 0.627096C2.80662 0.149557 3.29182 0.125499 12.0031 0.125499C20.7143 0.125499 21.1995 0.165595 21.9916 0.627096C22.4496 0.903756 23.0704 1.52363 23.3713 2.00679C23.8718 2.8099 23.9254 3.27461 24.0009 7.45539L24.0835 12.0259L35.4706 12.0981L46.8576 12.1662L47.4288 12.7376L48 13.3089V30.1018V46.8947L47.4287 47.466L46.8574 48.0374L24.3506 48.0975C6.61354 48.1457 1.71165 48.0995 1.22132 47.8429ZM44.1116 30.1018V16.0543H24.0437H3.97573V30.1018V44.1493H24.0437H44.1116V30.1018ZM26.0394 6.45941C26.0274 2.77221 25.7768 1.44665 24.9066 0.485157C24.4748 0.00801885 24.5193 0 27.5889 0C31.4434 0 32.6011 0.439047 33.5132 2.24816C34.0141 3.24133 34.0776 3.74253 34.0776 6.70038V10.0339H30.064H26.0505L26.0394 6.45941ZM36.0734 6.45941C36.0614 2.77221 35.8108 1.44665 34.9406 0.485157C34.5088 0.00801885 34.5533 0 37.6229 0C41.4774 0 42.6351 0.439047 43.5472 2.24816C44.048 3.24133 44.1116 3.74253 44.1116 6.70038V10.0339H40.098H36.0844L36.0734 6.45941Z" fill="url(#paint0_linear_4602_45226)"/>
<defs>
<linearGradient id="paint0_linear_4602_45226" x1="-8.08028e-08" y1="24.2862" x2="48" y2="24.2862" gradientUnits="userSpaceOnUse">
<stop stop-color="#A855F7"/>
<stop offset="1" stop-color="#3B82F6"/>
</linearGradient>
</defs>
</svg>
