<svg width="48" height="48" xmlns="http://www.w3.org/2000/svg">
    <g fill="none" fill-rule="evenodd">
        <path d="M0 0h48v48H0z"/>
        <g fill="#57F">
            <path d="M12 22h10.974v5H12zM24.513 22h10.974v5H24.513zM37.026 22H48v5H37.026z"/>
            <path d="M1.853 27c.04 0 .06-.02.06-.06v-3.738c0-.016.008-.024.024-.024h1.176c.04 0 .06-.02.06-.06v-.258c0-.04-.02-.06-.06-.06H.335c-.04 0-.06.02-.06.06v.258c0 .04.02.06.06.06h1.128c.016 0 .024.008.024.024v3.738c0 .04.02.06.06.06h.306zm2.866.048c.196 0 .374-.031.534-.093a.937.937 0 0 0 .39-.273c.008-.008.015-.01.021-.006a.02.02 0 0 1 .009.018v.246c0 .04.02.06.06.06h.306c.04 0 .06-.02.06-.06v-2.016c0-.304-.098-.548-.294-.732-.196-.184-.474-.276-.834-.276-.312 0-.572.07-.78.21a.774.774 0 0 0-.36.546c-.008.024.01.04.054.048l.324.042c.036.004.06-.014.072-.054a.465.465 0 0 1 .222-.309.881.881 0 0 1 .468-.111c.24 0 .417.059.531.177.114.118.171.279.171.483v.228c0 .016-.008.024-.024.024h-.696c-.388 0-.691.087-.909.261a.86.86 0 0 0-.327.711c0 .296.096.516.288.66.192.144.43.216.714.216zm.084-.366a.784.784 0 0 1-.477-.135c-.122-.09-.183-.223-.183-.399 0-.192.08-.342.24-.45.16-.108.372-.162.636-.162h.63c.016 0 .024.008.024.024v.468a.55.55 0 0 1-.258.477 1.055 1.055 0 0 1-.612.177zm3.508.366c.28 0 .514-.072.702-.216.188-.144.32-.34.396-.588.056-.18.084-.434.084-.762 0-.316-.024-.564-.072-.744a1.109 1.109 0 0 0-.396-.603 1.145 1.145 0 0 0-.714-.219.99.99 0 0 0-.438.096.903.903 0 0 0-.33.27c-.008.008-.015.011-.021.009-.006-.002-.009-.007-.009-.015V22.86c0-.04-.02-.06-.06-.06h-.306c-.04 0-.06.02-.06.06v4.08c0 .04.02.06.06.06h.306c.04 0 .06-.02.06-.06v-.258c0-.008.004-.013.012-.015s.014.001.018.009a.88.88 0 0 0 .33.276.99.99 0 0 0 .438.096zm-.042-.372a.635.635 0 0 1-.402-.126.742.742 0 0 1-.24-.336 1.257 1.257 0 0 1-.081-.285 2.834 2.834 0 0 1-.027-.447c0-.196.009-.348.027-.456a1.08 1.08 0 0 1 .087-.288.68.68 0 0 1 .237-.327.64.64 0 0 1 .393-.123.681.681 0 0 1 .666.438c.048.088.083.187.105.297.022.11.033.263.033.459 0 .188-.008.335-.024.441a1.01 1.01 0 0 1-.084.285.655.655 0 0 1-.255.342.748.748 0 0 1-.435.126z" fill-rule="nonzero"/>
        </g>
    </g>
</svg>
