<svg width="48" height="48" viewBox="0 0 48 48" xmlns="http://www.w3.org/2000/svg">
    <g fill="none" fill-rule="evenodd">
        <path d="M0 0h48v48H0z"/>
        <rect fill="#9CB0FF" y="5" width="22" height="10" rx="2"/>
        <rect fill="#B7C5FF" x="4" y="8" width="14" height="4" rx="1"/>
        <rect fill="#B7C5FF" y="25" width="48" height="4" rx="2"/>
        <rect fill="#B7C5FF" y="37" width="48" height="4" rx="2"/>
        <path d="M39 23a4 4 0 1 1-3.464 6.001H12.464a4 4 0 1 1 0-4.001h23.071A3.998 3.998 0 0 1 39 23zM39 35a4 4 0 1 1-3.464 6.001H12.464a4 4 0 1 1 0-4.001h23.071A3.998 3.998 0 0 1 39 35z" fill="#7F98FE"/>
        <rect fill="#9CB0FF" x="26" y="5" width="22" height="10" rx="2"/>
        <rect fill="#B7C5FF" x="30" y="8" width="14" height="4" rx="1"/>
    </g>
</svg>
