<svg xmlns="http://www.w3.org/2000/svg" xmlns:xlink="http://www.w3.org/1999/xlink" width="118" height="80" viewBox="0 0 118 80">
    <defs>
        <path id="u7fv6x3yva" d="M4 0h110c2.21 0 4 1.79 4 4v76H0V4c0-2.21 1.79-4 4-4z"/>
    </defs>
    <g fill="none" fill-rule="evenodd">
        <g>
            <g>
                <g>
                    <g transform="translate(-732.000000, -527.000000) translate(358.000000, 107.000000) translate(90.000000, 120.000000) translate(284.000000, 300.000000)">
                        <mask id="nzo74yq0mb" fill="#fff">
                            <use xlink:href="#u7fv6x3yva"/>
                        </mask>
                        <use fill="#FFF" xlink:href="#u7fv6x3yva"/>
                        <g mask="url(#nzo74yq0mb)">
                            <g>
                                <path d="M0 0H48V48H0z" transform="translate(26.000000, 16.000000)"/>
                                <g>
                                    <path fill="#ECF1FF" fill-rule="nonzero" d="M.56 31.235c2.011 3.475 9.378 6.061 18.168 6.061 8.8 0 16.16-2.586 18.171-6.06.357.609.567 1.246.567 1.905v5.702c0 4.405-8.39 7.973-18.738 7.973C8.388 46.816 0 43.246 0 38.843v-5.702c0-.66.206-1.296.56-1.906zM36.9 19.462c.356.613.566 1.25.566 1.91v5.698c0 4.402-8.39 7.973-18.738 7.973C8.388 35.043 0 31.472 0 27.07v-5.697c0-.661.206-1.298.56-1.91 2.011 3.481 9.378 6.063 18.168 6.063 8.8 0 16.16-2.584 18.171-6.064zm.054-11.395c.321.587.512 1.199.512 1.827v5.698c0 4.405-8.39 7.973-18.738 7.973C8.388 23.565 0 19.995 0 15.592V9.894c0-.628.187-1.24.509-1.825.366 3.224 8.37 5.805 18.219 5.805 9.854 0 17.858-2.581 18.226-5.807zM18.728 0c10.085 0 18.256 2.7 18.256 6.032 0 3.334-8.171 6.034-18.256 6.034C8.65 12.066.475 9.366.475 6.034S8.65.002 18.728 0z" transform="translate(26.000000, 16.000000) translate(4.475200, 0.000000)"/>
                                </g>
                            </g>
                        </g>
                        <g mask="url(#nzo74yq0mb)">
                            <g>
                                <path d="M0 0H24V24H0z" transform="translate(69.000000, 38.000000)"/>
                                <g>
                                    <path fill="#ECF1FF" fill-rule="nonzero" d="M.28 15.618c1.006 1.737 4.689 3.03 9.084 3.03 4.4 0 8.08-1.293 9.086-3.03.178.304.283.623.283.952v2.852c0 2.202-4.195 3.986-9.369 3.986-5.17 0-9.364-1.785-9.364-3.986V16.57c0-.33.103-.648.28-.952zM18.45 9.73c.178.307.283.625.283.955v2.85c0 2.2-4.195 3.986-9.369 3.986-5.17 0-9.364-1.786-9.364-3.987v-2.849c0-.33.103-.648.28-.955 1.006 1.741 4.689 3.032 9.084 3.032 4.4 0 8.08-1.292 9.086-3.032zm.026-5.697l.09.177c.106.239.167.485.167.736v2.849c0 2.202-4.195 3.986-9.369 3.986C4.194 11.782 0 9.998 0 7.796V4.947c0-.314.094-.62.254-.913.184 1.612 4.185 2.903 9.11 2.903 4.927 0 8.929-1.29 9.113-2.903h-.001zM9.364 0c5.042 0 9.128 1.35 9.128 3.016 0 1.667-4.086 3.017-9.128 3.017-5.04 0-9.126-1.35-9.126-3.016S4.325 0 9.364 0z" transform="translate(69.000000, 38.000000) translate(2.237600, 0.000000)"/>
                                </g>
                            </g>
                        </g>
                    </g>
                </g>
            </g>
        </g>
    </g>
</svg>
