<svg width="60" height="60" xmlns="http://www.w3.org/2000/svg">
    <g fill="none" fill-rule="evenodd">
        <circle fill="#597FFF" cx="30" cy="30" r="30"/>
        <g fill="#FFF" fill-rule="nonzero">
            <path d="m40.544 22.474 5.46-3.277c.218 1.15.496 2.977.496 4.803C46.5 39 36 48 33 48l-3-4.5-3 4.5c-3 0-13.5-9-13.5-24 0-1.815.275-3.63.491-4.78l5.382 3.296a6.75 6.75 0 1 0 7.845 10.811L30 37.5l2.782-4.173a6.75 6.75 0 1 0 7.762-10.854z"/>
            <path d="m21.869 25.567-2.254-1.454a5.25 5.25 0 1 0 7.727 6.42 15 15 0 0 0-1.849-2.236 3 3 0 1 1-3.625-2.73zM32.631 30.467a5.252 5.252 0 0 0 10.12-1.967c0-1.864-.972-3.5-2.436-4.432l-2.33 1.471a3 3 0 1 1-3.466 2.623 14.996 14.996 0 0 0-1.888 2.305z"/>
            <path d="M20.26 23.06 12 18l18-6 18 6-8.073 4.844A23.979 23.979 0 0 0 30 34.5a24.178 24.178 0 0 0-9.74-11.44z"/>
        </g>
    </g>
</svg>
