<svg width="190" height="64" viewBox="0 0 190 64" fill="none" xmlns="http://www.w3.org/2000/svg">
<g clip-path="url(#clip0)">
<path d="M50.7447 18.6199L60.4524 12.7953C60.8391 14.8388 61.3334 18.0861 61.3334 21.3334C61.3334 48.0001 42.6667 64.0001 37.3334 64.0001L32 56.0001L26.6667 64.0001C21.3334 64.0001 2.6667 48.0001 2.6667 21.3334C2.6667 18.1071 3.15463 14.8807 3.54016 12.8351L13.1083 18.6956C9.27939 20.7003 6.6667 24.7118 6.6667 29.3334C6.6667 35.9608 12.0393 41.3334 18.6667 41.3334C21.9311 41.3334 24.891 40.0299 27.0545 37.9151L32 45.3334L36.9456 37.9151C39.109 40.0299 42.069 41.3334 45.3334 41.3334C51.9608 41.3334 57.3334 35.9608 57.3334 29.3334C57.3334 24.6529 54.6537 20.5982 50.7447 18.6199Z" fill="white"/>
<path d="M17.5441 24.1183L13.537 21.5348C11.0046 23.2039 9.33331 26.0735 9.33331 29.3333C9.33331 34.488 13.512 38.6667 18.6666 38.6667C22.5398 38.6667 25.8619 36.3075 27.2743 32.9477C26.3098 31.5196 25.2092 30.1884 23.988 28.9728C23.9959 29.0919 24 29.2122 24 29.3333C24 32.2788 21.6122 34.6667 18.6666 34.6667C15.7211 34.6667 13.3333 32.2788 13.3333 29.3333C13.3333 26.7729 15.1376 24.6338 17.5441 24.1183Z" fill="white"/>
<path d="M36.6773 32.8303C38.0611 36.2524 41.4153 38.6667 45.3334 38.6667C50.4881 38.6667 54.6667 34.488 54.6667 29.3333C54.6667 26.0199 52.9401 23.1098 50.3376 21.4535L46.1958 24.0694C48.7312 24.4816 50.6667 26.6814 50.6667 29.3333C50.6667 32.2789 48.2789 34.6667 45.3334 34.6667C42.3879 34.6667 40.0001 32.2789 40.0001 29.3333C40.0001 29.1305 40.0114 28.9302 40.0335 28.7332C38.7818 29.9839 37.6574 31.3564 36.6773 32.8303Z" fill="white"/>
<path d="M15.5157 20.17L0 10.6667L32 0L64 10.6667L48.8881 19.7338C41.3919 24.2315 35.5755 31.0612 32.3288 39.1779L32 40L31.6299 39.0979C28.4051 31.2373 22.761 24.6078 15.5157 20.17Z" fill="white"/>
<path d="M82.04 27C81.96 27 81.888 26.976 81.824 26.928C81.776 26.864 81.752 26.792 81.752 26.712V10.488C81.752 10.408 81.776 10.344 81.824 10.296C81.888 10.232 81.96 10.2 82.04 10.2H87.896C89.032 10.2 90.032 10.4 90.896 10.8C91.76 11.2 92.424 11.776 92.888 12.528C93.368 13.264 93.608 14.128 93.608 15.12V22.08C93.608 23.072 93.368 23.944 92.888 24.696C92.424 25.432 91.76 26 90.896 26.4C90.032 26.8 89.032 27 87.896 27H82.04ZM84.536 24.48C84.536 24.56 84.576 24.6 84.656 24.6H88.016C88.864 24.6 89.536 24.336 90.032 23.808C90.544 23.264 90.808 22.544 90.824 21.648V15.576C90.824 14.664 90.568 13.944 90.056 13.416C89.544 12.872 88.856 12.6 87.992 12.6H84.656C84.576 12.6 84.536 12.64 84.536 12.72V24.48Z" fill="white"/>
<path d="M110.047 27C109.887 27 109.783 26.92 109.735 26.76L108.943 24.192C108.911 24.128 108.871 24.096 108.823 24.096H102.487C102.439 24.096 102.399 24.128 102.367 24.192L101.575 26.76C101.527 26.92 101.423 27 101.263 27H98.8631C98.7671 27 98.6951 26.976 98.6471 26.928C98.5991 26.864 98.5911 26.776 98.6231 26.664L103.831 10.44C103.879 10.28 103.983 10.2 104.143 10.2H107.143C107.303 10.2 107.407 10.28 107.455 10.44L112.687 26.664C112.703 26.696 112.711 26.736 112.711 26.784C112.711 26.928 112.623 27 112.447 27H110.047ZM103.111 21.768C103.095 21.864 103.127 21.912 103.207 21.912H108.079C108.175 21.912 108.207 21.864 108.175 21.768L105.703 13.728C105.687 13.664 105.663 13.632 105.631 13.632C105.599 13.632 105.575 13.664 105.559 13.728L103.111 21.768Z" fill="white"/>
<path d="M128.199 10.2C128.279 10.2 128.343 10.232 128.391 10.296C128.455 10.344 128.487 10.408 128.487 10.488V12.336C128.487 12.416 128.455 12.488 128.391 12.552C128.343 12.6 128.279 12.624 128.199 12.624H123.783C123.703 12.624 123.663 12.664 123.663 12.744V26.712C123.663 26.792 123.631 26.864 123.567 26.928C123.519 26.976 123.455 27 123.375 27H121.167C121.087 27 121.015 26.976 120.951 26.928C120.903 26.864 120.879 26.792 120.879 26.712V12.744C120.879 12.664 120.839 12.624 120.759 12.624H116.511C116.431 12.624 116.359 12.6 116.295 12.552C116.247 12.488 116.223 12.416 116.223 12.336V10.488C116.223 10.408 116.247 10.344 116.295 10.296C116.359 10.232 116.431 10.2 116.511 10.2H128.199Z" fill="white"/>
<path d="M143.86 27C143.7 27 143.596 26.92 143.548 26.76L142.756 24.192C142.724 24.128 142.684 24.096 142.636 24.096H136.3C136.252 24.096 136.212 24.128 136.18 24.192L135.388 26.76C135.34 26.92 135.236 27 135.076 27H132.676C132.58 27 132.508 26.976 132.46 26.928C132.412 26.864 132.404 26.776 132.436 26.664L137.644 10.44C137.692 10.28 137.796 10.2 137.956 10.2H140.956C141.116 10.2 141.22 10.28 141.268 10.44L146.5 26.664C146.516 26.696 146.524 26.736 146.524 26.784C146.524 26.928 146.436 27 146.26 27H143.86ZM136.924 21.768C136.908 21.864 136.94 21.912 137.02 21.912H141.892C141.988 21.912 142.02 21.864 141.988 21.768L139.516 13.728C139.5 13.664 139.476 13.632 139.444 13.632C139.412 13.632 139.388 13.664 139.372 13.728L136.924 21.768Z" fill="white"/>
<path d="M82.04 56C81.96 56 81.888 55.976 81.824 55.928C81.776 55.864 81.752 55.792 81.752 55.712V39.488C81.752 39.408 81.776 39.344 81.824 39.296C81.888 39.232 81.96 39.2 82.04 39.2H84.248C84.328 39.2 84.392 39.232 84.44 39.296C84.504 39.344 84.536 39.408 84.536 39.488V55.712C84.536 55.792 84.504 55.864 84.44 55.928C84.392 55.976 84.328 56 84.248 56H82.04Z" fill="white"/>
<path d="M101.641 39.488C101.641 39.408 101.665 39.344 101.713 39.296C101.777 39.232 101.849 39.2 101.929 39.2H104.137C104.217 39.2 104.281 39.232 104.329 39.296C104.393 39.344 104.425 39.408 104.425 39.488V55.712C104.425 55.792 104.393 55.864 104.329 55.928C104.281 55.976 104.217 56 104.137 56H102.001C101.841 56 101.729 55.936 101.665 55.808L94.7532 44.48C94.7212 44.432 94.6892 44.416 94.6572 44.432C94.6252 44.432 94.6092 44.464 94.6092 44.528L94.6572 55.712C94.6572 55.792 94.6252 55.864 94.5612 55.928C94.5132 55.976 94.4492 56 94.3692 56H92.1612C92.0812 56 92.0092 55.976 91.9452 55.928C91.8972 55.864 91.8732 55.792 91.8732 55.712V39.488C91.8732 39.408 91.8972 39.344 91.9452 39.296C92.0092 39.232 92.0812 39.2 92.1612 39.2H94.2972C94.4572 39.2 94.5692 39.264 94.6332 39.392L101.521 50.72C101.553 50.768 101.585 50.792 101.617 50.792C101.649 50.776 101.665 50.736 101.665 50.672L101.641 39.488Z" fill="white"/>
<path d="M117.192 56.192C115.944 56.192 114.856 55.992 113.928 55.592C113 55.192 112.28 54.632 111.768 53.912C111.272 53.192 111.024 52.344 111.024 51.368V50.768C111.024 50.688 111.048 50.624 111.096 50.576C111.16 50.512 111.232 50.48 111.312 50.48H113.448C113.528 50.48 113.592 50.512 113.64 50.576C113.704 50.624 113.736 50.688 113.736 50.768V51.224C113.736 51.96 114.064 52.576 114.72 53.072C115.376 53.552 116.272 53.792 117.408 53.792C118.384 53.792 119.12 53.584 119.616 53.168C120.112 52.752 120.36 52.216 120.36 51.56C120.36 51.112 120.224 50.736 119.952 50.432C119.68 50.112 119.288 49.824 118.776 49.568C118.28 49.312 117.528 48.992 116.52 48.608C115.384 48.192 114.464 47.8 113.76 47.432C113.056 47.064 112.464 46.568 111.984 45.944C111.52 45.304 111.288 44.512 111.288 43.568C111.288 42.16 111.8 41.048 112.824 40.232C113.848 39.416 115.216 39.008 116.928 39.008C118.128 39.008 119.184 39.216 120.096 39.632C121.024 40.048 121.744 40.632 122.256 41.384C122.768 42.12 123.024 42.976 123.024 43.952V44.36C123.024 44.44 122.992 44.512 122.928 44.576C122.88 44.624 122.816 44.648 122.736 44.648H120.576C120.496 44.648 120.424 44.624 120.36 44.576C120.312 44.512 120.288 44.44 120.288 44.36V44.096C120.288 43.344 119.976 42.712 119.352 42.2C118.744 41.672 117.896 41.408 116.808 41.408C115.928 41.408 115.24 41.592 114.744 41.96C114.264 42.328 114.024 42.848 114.024 43.52C114.024 44 114.152 44.392 114.408 44.696C114.664 45 115.048 45.28 115.56 45.536C116.072 45.776 116.864 46.088 117.936 46.472C119.072 46.904 119.976 47.296 120.648 47.648C121.336 48 121.92 48.496 122.4 49.136C122.896 49.76 123.144 50.544 123.144 51.488C123.144 52.928 122.608 54.072 121.536 54.92C120.48 55.768 119.032 56.192 117.192 56.192Z" fill="white"/>
<path d="M130.076 56C129.996 56 129.924 55.976 129.86 55.928C129.812 55.864 129.788 55.792 129.788 55.712V39.488C129.788 39.408 129.812 39.344 129.86 39.296C129.924 39.232 129.996 39.2 130.076 39.2H132.284C132.364 39.2 132.428 39.232 132.476 39.296C132.54 39.344 132.572 39.408 132.572 39.488V55.712C132.572 55.792 132.54 55.864 132.476 55.928C132.428 55.976 132.364 56 132.284 56H130.076Z" fill="white"/>
<path d="M140.197 56C140.117 56 140.045 55.976 139.981 55.928C139.933 55.864 139.909 55.792 139.909 55.712V39.488C139.909 39.408 139.933 39.344 139.981 39.296C140.045 39.232 140.117 39.2 140.197 39.2H146.053C147.189 39.2 148.189 39.4 149.053 39.8C149.917 40.2 150.581 40.776 151.045 41.528C151.525 42.264 151.765 43.128 151.765 44.12V51.08C151.765 52.072 151.525 52.944 151.045 53.696C150.581 54.432 149.917 55 149.053 55.4C148.189 55.8 147.189 56 146.053 56H140.197ZM142.693 53.48C142.693 53.56 142.733 53.6 142.813 53.6H146.173C147.021 53.6 147.693 53.336 148.189 52.808C148.701 52.264 148.965 51.544 148.981 50.648V44.576C148.981 43.664 148.725 42.944 148.213 42.416C147.701 41.872 147.013 41.6 146.149 41.6H142.813C142.733 41.6 142.693 41.64 142.693 41.72V53.48Z" fill="white"/>
<path d="M169.961 41.312C169.961 41.392 169.929 41.464 169.865 41.528C169.817 41.576 169.753 41.6 169.673 41.6H161.489C161.409 41.6 161.369 41.64 161.369 41.72V46.208C161.369 46.288 161.409 46.328 161.489 46.328H166.985C167.065 46.328 167.129 46.36 167.177 46.424C167.241 46.472 167.273 46.536 167.273 46.616V48.44C167.273 48.52 167.241 48.592 167.177 48.656C167.129 48.704 167.065 48.728 166.985 48.728H161.489C161.409 48.728 161.369 48.768 161.369 48.848V53.48C161.369 53.56 161.409 53.6 161.489 53.6H169.673C169.753 53.6 169.817 53.632 169.865 53.696C169.929 53.744 169.961 53.808 169.961 53.888V55.712C169.961 55.792 169.929 55.864 169.865 55.928C169.817 55.976 169.753 56 169.673 56H158.873C158.793 56 158.721 55.976 158.657 55.928C158.609 55.864 158.585 55.792 158.585 55.712V39.488C158.585 39.408 158.609 39.344 158.657 39.296C158.721 39.232 158.793 39.2 158.873 39.2H169.673C169.753 39.2 169.817 39.232 169.865 39.296C169.929 39.344 169.961 39.408 169.961 39.488V41.312Z" fill="white"/>
<path d="M186.06 56C185.9 56 185.788 55.928 185.724 55.784L182.556 48.872C182.524 48.808 182.476 48.776 182.412 48.776H179.532C179.452 48.776 179.412 48.816 179.412 48.896V55.712C179.412 55.792 179.38 55.864 179.316 55.928C179.268 55.976 179.204 56 179.124 56H176.916C176.836 56 176.764 55.976 176.7 55.928C176.652 55.864 176.628 55.792 176.628 55.712V39.488C176.628 39.408 176.652 39.344 176.7 39.296C176.764 39.232 176.836 39.2 176.916 39.2H183.516C184.492 39.2 185.356 39.408 186.108 39.824C186.86 40.224 187.444 40.8 187.86 41.552C188.276 42.288 188.484 43.136 188.484 44.096C188.484 45.2 188.196 46.144 187.62 46.928C187.06 47.696 186.276 48.232 185.268 48.536C185.236 48.536 185.212 48.552 185.196 48.584C185.18 48.616 185.18 48.648 185.196 48.68L188.58 55.664C188.612 55.728 188.628 55.776 188.628 55.808C188.628 55.936 188.54 56 188.364 56H186.06ZM179.532 41.6C179.452 41.6 179.412 41.64 179.412 41.72V46.496C179.412 46.576 179.452 46.616 179.532 46.616H183.132C183.9 46.616 184.516 46.392 184.98 45.944C185.46 45.48 185.7 44.872 185.7 44.12C185.7 43.368 185.46 42.76 184.98 42.296C184.516 41.832 183.9 41.6 183.132 41.6H179.532Z" fill="white"/>
</g>
<defs>
<clipPath id="clip0">
<rect width="190" height="64" fill="white"/>
</clipPath>
</defs>
</svg>
