<svg width="16" height="16" xmlns="http://www.w3.org/2000/svg">
    <g fill="none" fill-rule="evenodd">
        <path d="M0 0h16v16H0z"/>
        <path d="M2.344 2.34c3.12-3.12 8.197-3.12 11.316 0 3.12 3.12 3.12 8.196 0 11.316a7.977 7.977 0 0 1-5.658 2.34c-2.05 0-4.098-.78-5.658-2.34A7.95 7.95 0 0 1 0 7.998C0 5.861.832 3.851 2.344 2.34zm10.44.876a6.771 6.771 0 0 0-9.564 0 6.72 6.72 0 0 0-1.98 4.782c0 1.806.703 3.505 1.98 4.781a6.77 6.77 0 0 0 9.564 0 6.77 6.77 0 0 0 0-9.563zM5.407 5.33a.62.62 0 0 1 .877 0L8.04 7.083 9.796 5.33a.62.62 0 1 1 .877.877L8.918 7.959l1.755 1.752a.62.62 0 1 1-.877.877L8.04 8.835l-1.756 1.753a.62.62 0 0 1-.876-.877L7.163 7.96 5.408 6.207a.62.62 0 0 1 0-.877z" fill="#FF6B4E" fill-rule="nonzero"/>
    </g>
</svg>
