<svg width="16" height="16" xmlns="http://www.w3.org/2000/svg">
    <g fill="none" fill-rule="evenodd">
        <path d="M0 0h16v16H0z"/>
        <path d="M1.185 7.111c.444 0 .803.36.803.803A6.018 6.018 0 0 0 8 13.926a6.034 6.034 0 0 0 4.56-2.112l-1.299-.717a.235.235 0 0 1 .048-.433l4.389-1.29a.234.234 0 0 1 .292.293l-1.289 4.389a.236.236 0 0 1-.433.047l-.605-1.096A7.657 7.657 0 0 1 8 15.533c-4.2 0-7.618-3.418-7.618-7.619 0-.443.36-.803.803-.803zM8 5.108a2.659 2.659 0 1 1-.001 5.317A2.659 2.659 0 0 1 8 5.108zM8 0c4.2 0 7.618 3.417 7.618 7.618a.804.804 0 0 1-1.606 0A6.018 6.018 0 0 0 8 1.607 6.033 6.033 0 0 0 3.44 3.72l1.299.716a.236.236 0 0 1-.048.433L.302 6.159a.234.234 0 0 1-.292-.292l1.289-4.39a.236.236 0 0 1 .433-.047l.605 1.096A7.656 7.656 0 0 1 8 0z" fill="#4E8AFF" fill-rule="nonzero"/>
    </g>
</svg>
