<svg width="16" height="16" xmlns="http://www.w3.org/2000/svg">
    <g fill="none" fill-rule="evenodd">
        <path d="M0 0h16v16H0z"/>
        <g fill-rule="nonzero">
            <path d="M11.667 7.333A4.338 4.338 0 0 1 16 11.667 4.338 4.338 0 0 1 11.667 16a4.338 4.338 0 0 1-4.334-4.333 4.338 4.338 0 0 1 4.334-4.334zm0 1a3.337 3.337 0 0 0-3.334 3.334A3.337 3.337 0 0 0 11.667 15 3.337 3.337 0 0 0 15 11.667a3.337 3.337 0 0 0-3.333-3.334zm1.833 2.834a.5.5 0 0 1 0 1H9.833a.5.5 0 0 1 0-1H13.5z" fill="#FF6B4E"/>
            <path d="M10.167 0C11.178 0 12 .822 12 1.833V5.5a.5.5 0 0 1-.5.5H1v4h4.613a.5.5 0 0 1 0 1H1v3.167c0 .459.374.833.833.833H6.84a.5.5 0 0 1 0 1H1.833A1.835 1.835 0 0 1 0 14.167V1.833C0 .822.822 0 1.833 0h8.334zm0 1H1.833A.834.834 0 0 0 1 1.833V5h10V1.833A.834.834 0 0 0 10.167 1zm-1.5 1.667a.667.667 0 1 1 0 1.333.667.667 0 0 1 0-1.333zM6 2.667A.667.667 0 1 1 6 4a.667.667 0 0 1 0-1.333zm-2.667 0a.667.667 0 1 1 0 1.333.667.667 0 0 1 0-1.333z" fill="#9F9F9F"/>
        </g>
    </g>
</svg>
