<svg width="16" height="16" xmlns="http://www.w3.org/2000/svg">
    <g fill="none" fill-rule="evenodd">
        <path d="M0 0h16v16H0z"/>
        <path d="M8 0c4.422 0 8 3.579 8 8 0 4.422-3.579 8-8 8-4.422 0-8-3.579-8-8 0-4.422 3.579-8 8-8zm0 1.25A6.746 6.746 0 0 0 1.25 8c0 3.731 3.02 6.75 6.75 6.75 3.731 0 6.75-3.02 6.75-6.75 0-3.731-3.02-6.75-6.75-6.75zm0 9.797a.781.781 0 1 1 0 1.562.781.781 0 0 1 0-1.562zm0-7.031c1.379 0 2.5 1.121 2.5 2.5a2.504 2.504 0 0 1-1.875 2.42v1.017a.625.625 0 1 1-1.25 0V8.391c0-.346.28-.625.625-.625.69 0 1.25-.561 1.25-1.25 0-.69-.56-1.25-1.25-1.25s-1.25.56-1.25 1.25a.625.625 0 1 1-1.25 0c0-1.379 1.122-2.5 2.5-2.5z" fill="#9F9F9F" fill-rule="nonzero"/>
    </g>
</svg>
