<svg xmlns="http://www.w3.org/2000/svg" width="16" height="16" viewBox="0 0 16 16">
    <g fill="none" fill-rule="evenodd">
        <g fill="#597FFF" fill-rule="nonzero">
            <g>
                <g>
                    <g>
                        <path d="M13.65 2.333C10.526-.78 5.469-.78 2.345 2.343.124 4.564-.55 7.81.456 10.666l.012.034c.698 1.953 3.204 2.514 4.678 1.041l.443-.443c1.19.783 2.819.658 3.874-.397l1.74-1.738c.116-.117.182-.276.182-.442 0-.166-.066-.325-.183-.442l-.576-.576 1.718-1.718c.245-.244.245-.64 0-.884-.244-.244-.64-.244-.884 0L9.742 6.818l-.557-.556 1.744-1.743c.244-.244.244-.64 0-.884-.245-.244-.64-.244-.884 0L8.3 5.378l-.576-.576c-.245-.244-.64-.244-.885 0L5.102 6.54c-1.051 1.05-1.184 2.677-.397 3.873l-.444.443c-.803.803-2.216.54-2.616-.578l-.01-.028c-.847-2.4-.288-5.142 1.593-7.023 2.635-2.633 6.9-2.639 9.54-.009 2.637 2.626 2.643 6.918.012 9.551-1.93 1.932-4.686 2.422-7.028 1.596-.326-.115-.683.056-.798.382-.115.325.056.682.382.797 2.783.981 6.047.393 8.33-1.892 3.118-3.122 3.111-8.205-.015-11.32zm-7.664 5.09l1.297-1.296L9.876 8.72l-1.297 1.296c-.715.715-1.878.715-2.593 0-.715-.715-.715-1.878 0-2.592z" transform="translate(-593 -496) translate(358 207) translate(235 288) translate(0 1)"/>
                    </g>
                </g>
            </g>
        </g>
    </g>
</svg>
