<?xml version="1.0" standalone="no"?>
<!DOCTYPE svg PUBLIC "-//W3C//DTD SVG 1.1//EN" "http://www.w3.org/Graphics/SVG/1.1/DTD/svg11.dtd" >
<svg xmlns="http://www.w3.org/2000/svg">
<metadata>Generated by IcoMoon</metadata>
<defs>
<font id="setting-icon" horiz-adv-x="1024">
<font-face units-per-em="1024" ascent="960" descent="-64" />
<missing-glyph horiz-adv-x="1024" />
<glyph unicode="&#x20;" horiz-adv-x="512" d="" />
<glyph unicode="&#xe900;" glyph-name="chart-bold-1" d="M690.768 874.664h-357.546c-155.308 0-247.894-92.587-247.894-247.893v-357.549c0-155.306 92.587-247.891 247.894-247.891h357.546c155.306 0 247.894 92.586 247.894 247.891v357.549c0 155.306-92.589 247.893-247.894 247.893zM330.662 379.731c0-17.494-14.508-32-32.001-32s-32 14.506-32 32v136.534c0 17.491 14.507 32 32 32s32.001-14.509 32.001-32v-136.534zM543.994 305.491c0-17.494-14.506-32-32-32-17.491 0-32 14.506-32 32v285.014c0 17.491 14.509 32 32 32 17.494 0 32-14.509 32-32v-285.014zM757.328 379.731c0-17.494-14.506-32-32-32s-32 14.506-32 32v136.534c0 17.491 14.506 32 32 32s32-14.509 32-32v-136.534z" />
<glyph unicode="&#xe901;" glyph-name="chart-bold-2" d="M938.662 21.334h-853.334c-17.493 0-32 14.509-32 32 0 17.494 14.507 32 32 32h853.334c17.491 0 32-14.506 32-32 0-17.491-14.509-32-32-32zM416 789.331v-768h192v768c0 46.933-19.2 85.333-76.8 85.333h-38.4c-57.6 0-76.8-38.4-76.8-85.333zM128 533.331v-512h170.667v512c0 46.934-17.067 85.334-68.267 85.334h-34.133c-51.2 0-68.267-38.4-68.267-85.334zM725.334 319.997v-298.666h170.666v298.666c0 46.934-17.066 85.334-68.266 85.334h-34.134c-51.2 0-68.266-38.4-68.266-85.334z" />
<glyph unicode="&#xe902;" glyph-name="chart-bold-3" d="M690.768 874.664h-357.546c-155.308 0-247.894-92.587-247.894-247.893v-357.12c0-155.734 92.587-248.32 247.894-248.32h357.12c155.306 0 247.891 92.586 247.891 247.891v357.549c0.429 155.306-92.16 247.893-247.466 247.893zM422.822 269.222c0-27.306-22.189-49.491-49.92-49.491-27.309 0-49.494 22.186-49.494 49.491v139.094c0 27.309 22.186 49.494 49.494 49.494 27.731 0 49.92-22.186 49.92-49.494v-139.094zM700.582 269.222c0-27.306-22.189-49.491-49.494-49.491-27.734 0-49.92 22.186-49.92 49.491v357.549c0 27.306 22.186 49.493 49.92 49.493 27.306 0 49.494-22.187 49.494-49.493v-357.549z" />
<glyph unicode="&#xe903;" glyph-name="chart-bold" d="M896-10.669h-768c-17.493 0-32 14.506-32 32s14.507 32 32 32h768c17.494 0 32-14.506 32-32s-14.506-32-32-32zM238.933 602.493h-68.267c-23.467 0-42.667-19.2-42.667-42.666v-367.786c0-23.469 19.2-42.669 42.667-42.669h68.267c23.467 0 42.667 19.2 42.667 42.669v367.786c0 23.894-19.2 42.666-42.667 42.666zM546.134 738.515h-68.269c-23.466 0-42.666-19.2-42.666-42.667v-503.893c0-23.466 19.2-42.666 42.666-42.666h68.269c23.466 0 42.666 19.2 42.666 42.666v503.893c0 23.467-19.2 42.667-42.666 42.667zM853.334 874.664h-68.269c-23.466 0-42.666-19.2-42.666-42.667v-640.001c0-23.466 19.2-42.666 42.666-42.666h68.269c23.466 0 42.666 19.2 42.666 42.666v640.001c0 23.467-19.2 42.667-42.666 42.667z" />
<glyph unicode="&#xe904;" glyph-name="chart-circle-bold-2" d="M511.994 874.664c-235.519 0-426.666-191.147-426.666-426.667s191.147-426.666 426.666-426.666c235.52 0 426.669 191.146 426.669 426.666s-191.149 426.667-426.669 426.667zM511.994 586.666c-17.491 0-32 14.506-32 32 0 17.491 14.509 31.998 32 31.998 111.789 0 202.669-90.878 202.669-202.667 0-111.786-90.88-202.666-202.669-202.666-17.491 0-32 14.506-32 32s14.509 32 32 32c76.374 0 138.669 62.294 138.669 138.666 0 76.374-62.294 138.669-138.669 138.669zM511.994 117.331c-182.186 0-330.666 148.48-330.666 330.666 0 17.494 14.507 32 32 32s32-14.506 32-32c0-147.2 119.466-266.666 266.666-266.666s266.669 119.466 266.669 266.666c0 147.2-119.469 266.667-266.669 266.667-17.491 0-32 14.507-32 32s14.509 32 32 32c182.189 0 330.669-148.478 330.669-330.667 0-182.186-148.48-330.666-330.669-330.666z" />
<glyph unicode="&#xe905;" glyph-name="chart-circle-bold" d="M511.994 874.664c-235.519 0-426.666-191.147-426.666-426.667s191.147-426.666 426.666-426.666c235.52 0 426.669 191.146 426.669 426.666s-191.149 426.667-426.669 426.667zM511.994 586.666c-17.491 0-32 14.506-32 32 0 17.491 14.509 31.998 32 31.998 111.789 0 202.669-90.878 202.669-202.667 0-111.786-90.88-202.666-202.669-202.666-17.491 0-32 14.506-32 32s14.509 32 32 32c76.374 0 138.669 62.294 138.669 138.666 0 76.374-62.294 138.669-138.669 138.669zM511.994 117.331c-182.186 0-330.666 148.48-330.666 330.666 0 17.494 14.507 32 32 32s32-14.506 32-32c0-147.2 119.466-266.666 266.666-266.666s266.669 119.466 266.669 266.666c0 147.2-119.469 266.667-266.669 266.667-17.491 0-32 14.507-32 32s14.509 32 32 32c182.189 0 330.669-148.478 330.669-330.667 0-182.186-148.48-330.666-330.669-330.666z" />
<glyph unicode="&#xe906;" glyph-name="chart-fail-bold" d="M937.382 652.371c-6.352 60.986-35.072 117.456-80.618 158.509-45.542 41.053-104.682 63.777-165.997 63.784h-357.546c-65.74-0.022-128.779-26.147-175.263-72.631s-72.609-109.524-72.631-175.262v-357.549c0.023-65.738 26.147-128.778 72.631-175.261s109.524-72.608 175.263-72.63h264.106c23.466 0 42.666 19.2 42.666 42.666v126.72c0 71.254 58.029 129.28 129.28 129.28h126.72c23.469 0 42.669 19.2 42.669 42.669v264.106c0 8.534-0.429 17.066-1.28 25.6zM330.662 383.997c0-17.491-14.508-32-32.001-32s-32 14.509-32 32v128c0 17.494 14.507 32 32 32s32.001-14.506 32.001-32v-128zM543.994 383.997c0-17.491-14.506-32-32-32-17.491 0-32 14.509-32 32v128c0 17.494 14.509 32 32 32 17.494 0 32-14.506 32-32v-128zM894.726 277.334h-125.44c-54.189 0-86.614-32.426-86.614-86.611v-125.44c0-54.189 32.426-86.614 86.614-86.614h125.44c54.186 0 86.611 32.426 86.611 86.614v125.44c0 54.186-32.426 86.611-86.611 86.611zM916.058 82.774c10.669-10.666 10.669-28.16 0-38.826-5.546-5.12-12.8-7.68-19.626-7.68s-14.080 2.56-19.626 7.68l-45.229 45.226-44.371-45.226c-5.549-5.12-12.374-7.68-20.054-7.68-6.4 0-13.654 2.56-18.774 7.68-5.12 5.162-7.997 12.141-7.997 19.414s2.877 14.25 7.997 19.411l45.229 45.229-45.229 44.8c-5.12 5.162-7.997 12.141-7.997 19.411 0 7.274 2.877 14.253 7.997 19.414 10.669 10.666 28.16 10.666 38.829 0l44.371-45.226 45.229 45.226c10.666 10.666 28.586 10.666 39.251 0 10.669-10.666 10.669-28.16 0-38.826l-45.226-44.8 45.226-45.229z" />
<glyph unicode="&#xe907;" glyph-name="chart-square-bold" d="M690.768 874.664h-357.546c-155.308 0-247.894-92.587-247.894-247.893v-357.12c0-155.734 92.587-248.32 247.894-248.32h357.12c155.306 0 247.891 92.586 247.891 247.891v357.549c0.429 155.306-92.16 247.893-247.466 247.893zM388.688 238.931c0-11.946-9.386-21.334-21.334-21.334h-119.039c-11.947 0-21.333 9.389-21.333 21.334v197.12c0 26.88 21.76 48.64 48.64 48.64h91.732c11.949 0 21.334-9.386 21.334-21.334v-224.426zM592.634 238.931c0-11.946-9.386-21.334-21.331-21.334h-119.040c-11.949 0-21.334 9.389-21.334 21.334v390.826c0 26.881 21.76 48.641 48.64 48.641h64.854c26.88 0 48.64-21.76 48.64-48.641v-390.826h-0.429zM797.008 238.931c0-11.946-9.386-21.334-21.334-21.334h-119.040c-11.946 0-21.331 9.389-21.331 21.334v151.466c0 11.949 9.386 21.334 21.331 21.334h91.734c26.88 0 48.64-21.76 48.64-48.64v-124.16z" />
<glyph unicode="&#xe908;" glyph-name="chart-success-bold" d="M894.726 277.334h-125.44c-54.189 0-86.614-32.426-86.614-86.611v-125.44c0-54.189 32.426-86.614 86.614-86.614h125.44c54.186 0 86.611 32.426 86.611 86.614v125.44c0 54.186-32.426 86.611-86.611 86.611zM922.886 172.803l-101.12-118.189c-2.003-2.358-4.483-4.262-7.28-5.587s-5.84-2.038-8.934-2.093h-0.854c-5.546 0-11.52 2.134-15.36 6.4l-46.931 46.080c-8.534 8.534-8.534 22.614 0 31.574 8.531 8.534 22.611 8.534 31.571 0l29.44-29.44 85.76 99.84c7.68 9.386 21.76 10.666 31.149 2.56 9.386-8.106 10.24-22.186 2.56-31.146zM937.382 652.371c-6.352 60.986-35.072 117.456-80.618 158.509-45.542 41.053-104.682 63.777-165.997 63.784h-357.546c-65.74-0.022-128.779-26.147-175.263-72.631s-72.609-109.524-72.631-175.262v-357.549c0.023-65.738 26.147-128.778 72.631-175.261s109.524-72.608 175.263-72.63h264.106c23.466 0 42.666 19.2 42.666 42.666v126.72c0 71.254 58.029 129.28 129.28 129.28h126.72c23.469 0 42.669 19.2 42.669 42.669v264.106c0 8.534-0.429 17.066-1.28 25.6zM330.662 383.997c0-17.491-14.508-32-32.001-32s-32 14.509-32 32v128c0 17.494 14.507 32 32 32s32.001-14.506 32.001-32v-128zM543.994 383.997c0-17.491-14.506-32-32-32-17.491 0-32 14.509-32 32v128c0 17.494 14.509 32 32 32 17.494 0 32-14.506 32-32v-128z" />
<glyph unicode="&#xe909;" glyph-name="diagram-bold" d="M938.662-10.669h-725.334c-88.32 0-160 71.68-160 160v725.333c0 17.493 14.507 32 32 32s32-14.507 32-32v-725.333c0-52.906 43.093-96 96-96h725.334c17.491 0 32-14.506 32-32s-14.509-32-32-32zM213.34 202.669c-7.253 0-14.933 2.56-20.907 7.68-6.407 5.571-10.359 13.446-10.998 21.914s2.086 16.842 7.585 23.312l195.841 228.694c21.331 24.746 52.051 39.68 84.48 40.96 32.426 0.854 64.426-11.094 87.466-34.134l40.534-40.531c10.666-10.669 24.32-15.789 39.68-15.789 14.931 0.429 28.586 7.254 38.4 18.774l195.84 228.693c11.52 13.227 31.571 14.933 45.226 3.413 13.226-11.52 14.934-31.573 3.414-45.227l-195.84-228.695c-21.334-24.746-52.054-39.68-84.48-40.96-16.134-0.56-32.214 2.176-47.254 8.045s-28.723 14.749-40.214 26.090l-40.106 40.534c-10.666 10.666-24.746 16.211-39.68 15.786s-28.586-7.254-38.4-18.774l-195.84-228.691c-3.148-3.443-6.968-6.202-11.224-8.112-4.256-1.907-8.859-2.922-13.522-2.982z" />
<glyph unicode="&#xe90a;" glyph-name="document-filter-bold" d="M137.808 917.336h346.88c29.014 0 52.48-23.893 52.48-53.333v-58.453c0-21.333-13.226-47.787-26.454-61.013l-112.64-101.547c-15.786-13.226-26.026-39.68-26.026-61.015v-114.346c0-15.786-10.666-37.12-23.466-45.226l-37.121-24.32c-34.133-21.334-81.493 2.56-81.493 45.226v141.226c0 18.774-10.667 42.669-20.907 55.895l-99.84 106.667c-13.227 13.227-23.893 37.12-23.893 52.907v61.44c0 32 23.467 55.893 52.48 55.893zM725.328 874.664h-102.4c-11.946 0-21.331-9.387-21.331-21.333v-47.787c0-42.24-22.614-83.627-44.8-106.24l-116.054-103.678c-1.28-2.989-3.414-7.254-4.694-10.669v-117.331c0-38.829-23.040-81.069-54.611-100.269l-34.989-22.611c-19.626-12.374-41.385-18.349-63.146-18.349-19.627 0-39.253 5.12-57.173 14.934-21.424 11.834-38.555 30.144-48.939 52.31-5.205 11.091-6.528 23.466-6.528 35.667v95.062c0.034 2.797-0.518 5.571-1.62 8.144s-2.731 4.883-4.78 6.79l-42.667 42.666c-2.942 3.027-6.723 5.104-10.857 5.962s-8.429 0.458-12.332-1.149c-3.904-1.61-7.236-4.349-9.567-7.869s-3.554-7.658-3.511-11.878v-332.371c0-117.76 95.573-213.334 213.333-213.334h426.665c117.76 0 213.334 95.574 213.334 213.334v426.665c0 117.76-95.574 213.333-213.334 213.333zM767.997 202.666h-298.669c-17.491 0-32 14.506-32 32 0 17.491 14.509 32 32 32h298.669c17.491 0 32-14.509 32-32 0-17.494-14.509-32-32-32zM767.997 373.331h-213.334c-17.494 0-32 14.506-32 32s14.506 32 32 32h213.334c17.491 0 32-14.506 32-32s-14.509-32-32-32z" />
<glyph unicode="&#xe90b;" glyph-name="document-forward-bold" d="M874.672 525.226h-123.306c-101.12 0-183.469 82.346-183.469 183.465v123.307c0 23.467-19.2 42.667-42.666 42.667h-180.906c-131.414 0-237.654-85.333-237.654-237.653v-378.026c0-152.32 106.24-237.654 237.654-237.654h335.36c131.411 0 237.651 85.334 237.651 237.654v223.571c0 23.469-19.2 42.669-42.666 42.669zM586.672 322.557v-6.826c-0.854-5.974-3.414-11.52-7.68-16.64l-87.040-87.040c-6.4-6.4-14.506-9.386-22.614-9.386-8.106 0-16.211 2.986-22.611 9.386-5.952 6.022-9.29 14.147-9.29 22.614 0 8.464 3.338 16.589 9.29 22.611l30.72 30.72h-178.774c-17.493 0-32 14.509-32 32 0 17.494 14.507 32 32 32h178.774l-30.72 30.72c-2.989 2.957-5.357 6.48-6.97 10.362-1.61 3.885-2.432 8.048-2.419 12.253 0 8.106 2.989 16.214 9.389 22.614 12.371 12.371 32.851 12.371 45.226 0l85.334-85.334c5.546-5.974 8.531-12.8 9.386-20.054zM743.677 584.109c40.534-0.426 96.854-0.426 145.066-0.426 24.32 0 37.12 28.586 20.054 45.654-61.44 61.865-171.52 173.225-234.666 236.372-17.494 17.493-47.789 5.547-47.789-18.773v-148.907c0-62.292 52.909-113.921 117.334-113.921z" />
<glyph unicode="&#xe90c;" glyph-name="document-like-bold" d="M682.666 874.664h-341.331c-149.334 0-213.334-85.333-213.334-213.333v-426.665c0-128 64-213.334 213.334-213.334h341.331c149.334 0 213.334 85.334 213.334 213.334v426.665c0 128-64 213.333-213.334 213.333zM557.654 299.091c-21.76-69.546-98.134-105.814-119.469-105.814-20.906 0.429-96.426 35.84-119.039 105.814-14.080 43.946 2.559 98.134 48.213 113.066 24.32 7.68 54.186 1.28 70.826-22.186 15.789 24.32 46.934 29.866 70.829 22.186 46.080-14.931 62.291-69.12 48.64-113.066zM789.334 565.331h-85.334c-64.854 0-117.334 52.48-117.334 117.333v85.333c0 17.493 14.509 32 32 32 17.494 0 32-14.507 32-32v-85.333c0-29.44 23.894-53.333 53.334-53.333h85.334c17.491 0 32-14.506 32-32s-14.509-32-32-32z" />
<glyph unicode="&#xe90d;" glyph-name="dollar-circle-bold" d="M544 280.742h27.734c27.731 0 50.771 24.749 50.771 54.614 0 37.12-13.226 44.374-34.986 52.054l-43.094 14.931v-121.6h-0.426zM510.717 879.015c-235.519-0.853-426.239-192.427-425.386-427.946s192.427-426.24 427.946-425.389c235.52 0.854 426.24 192.429 425.389 427.949-0.854 235.519-192.429 425.813-427.949 425.386zM608.426 448.080c33.28-11.52 78.080-36.266 78.080-112.64 0-65.706-51.629-118.611-114.774-118.611h-27.734v-24.746c0-17.494-14.506-32-32-32-17.491 0-32 14.506-32 32v24.746h-15.36c-69.971 0-126.72 58.88-126.72 131.411 0 17.494 14.509 32 32 32 17.494 0 32-14.506 32-32 0-37.12 28.16-67.411 62.72-67.411h15.36v144.211l-64.426 23.040c-33.28 11.52-78.080 36.269-78.080 112.64 0 65.709 51.626 118.615 114.774 118.615h27.731v24.747c0 17.493 14.509 32 32 32 17.494 0 32-14.507 32-32v-24.747h15.36c69.974 0 126.72-58.881 126.72-131.415 0-17.491-14.506-32-32-32-17.491 0-32 14.509-32 32 0 37.12-28.16 67.414-62.72 67.414h-15.36v-144.214l64.429-23.040zM402 560.294c0-37.12 13.226-44.371 34.986-52.051l43.094-14.934v122.026h-27.734c-27.731 0-50.346-24.746-50.346-55.040z" />
<glyph unicode="&#xe90e;" glyph-name="dollar-square-bold" d="M480.080 615.334v-122.026l-43.094 14.934c-21.76 7.68-34.986 14.931-34.986 52.051 0 30.294 22.614 55.040 50.346 55.040h27.734zM622.074 335.827c0-30.294-22.611-55.040-50.346-55.040h-27.734v122.026l43.094-14.934c21.76-7.68 34.986-14.931 34.986-52.051zM690.768 874.664h-357.546c-155.308 0-247.894-92.587-247.894-247.893v-357.549c0-155.306 92.587-247.891 247.894-247.891h357.546c155.306 0 247.894 92.586 247.894 247.891v357.549c0 155.306-92.589 247.893-247.894 247.893zM608.422 447.997c33.28-11.52 77.651-35.84 77.651-112.211 0-65.709-51.2-119.040-114.346-119.040h-27.734v-24.749c0-17.491-14.506-32-32-32-17.491 0-32 14.509-32 32v24.749h-15.36c-69.971 0-126.72 59.306-126.72 131.84 0 8.486 3.373 16.624 9.373 22.627 6.003 6 14.141 9.373 22.627 9.373 8.49 0 16.627-3.373 22.627-9.373 6.003-6.003 9.373-14.141 9.373-22.627 0-37.549 28.16-67.84 62.72-67.84h15.36v144.64l-64.426 22.611c-33.28 11.52-77.654 35.84-77.654 112.214 0 65.706 51.2 119.040 114.349 119.040h27.731v24.747c0 17.493 14.509 32 32 32 17.494 0 32-14.507 32-32v-24.747h15.36c69.974 0 126.72-59.305 126.72-131.84 0-8.486-3.37-16.627-9.373-22.627-6-6.003-14.138-9.373-22.627-9.373-8.486 0-16.624 3.37-22.627 9.373-6 6-9.373 14.141-9.373 22.627 0 37.546-28.16 67.84-62.72 67.84h-15.36v-144.64l64.429-22.614z" />
<glyph unicode="&#xe90f;" glyph-name="eart-edit-bold" d="M701.434 827.648c-77.226 0-146.346-37.547-189.44-95.147-22.010 29.491-50.592 53.445-83.475 69.961s-69.165 25.14-105.965 25.186c-130.986 0-237.226-106.667-237.226-238.506 0-50.774 8.107-97.709 22.187-141.229 67.413-213.331 275.199-340.906 378.028-375.891 14.506-5.12 38.4-5.12 52.906 0 102.826 34.986 310.614 162.56 378.026 375.891 14.080 43.52 22.189 90.454 22.189 141.229 0 131.839-106.24 238.506-237.229 238.506zM633.168 474.368l-151.040-151.040c-5.974-5.974-17.066-11.52-25.174-12.8l-57.6-7.68c-20.906-2.986-35.411 11.52-32.426 32.426l8.106 57.6c1.28 8.109 6.829 19.629 12.8 25.174l151.040 151.040c26.029 26.026 56.32 38.4 94.72 0 37.974-38.4 25.6-68.694-0.426-94.72z" />
<glyph unicode="&#xe910;" glyph-name="empty-wallet-add-bold" d="M352.387 53.549c26.666 26.72 43.443 61.718 47.574 99.242 2.829 24.739 0.016 49.798-8.221 73.299-8.24 23.498-21.696 44.826-39.354 62.381-21.309 21.402-48.151 36.458-77.525 43.478-27.762 7.046-56.882 6.739-84.489-0.893-27.607-7.629-52.75-22.323-72.951-42.627-28.63-28.352-45.68-66.346-47.829-106.582-1.493-16.726 0-34.048 4.395-50.774 6.741-28.499 21.419-55.507 43.435-77.523 15.425-15.434 33.74-27.677 53.898-36.029 20.158-8.355 41.764-12.653 63.585-12.653s43.427 4.298 63.585 12.653c20.158 8.352 38.474 20.595 53.898 36.029zM297.177 201.558c17.024 0 31.147-14.080 31.147-31.146-0.112-8.301-3.459-16.23-9.335-22.099-5.875-5.866-13.809-9.203-22.11-9.306l-30.848 0.301 0.299-29.696c-0.11-8.294-3.454-16.218-9.32-22.083s-13.789-9.21-22.083-9.322c-8.302 0.102-16.236 3.44-22.11 9.306-5.875 5.869-9.224 13.798-9.335 22.099l0.299 29.696-30.848-0.301c-8.294 0.112-16.218 3.456-22.083 9.322s-9.209 13.789-9.32 22.083c0.256 8.179 3.62 15.952 9.407 21.738 5.787 5.789 13.561 9.152 21.74 9.408h31.104v32.298c0 8.79 3.541 16.429 9.088 22.016 5.589 5.549 13.227 9.088 22.059 9.088 17.024 0 31.147-14.080 31.147-31.146v-32.256h31.104zM644.058 795.948v-157.868h-62.294v157.868c0 11.179-9.942 16.597-16.64 16.597-2.125-0.029-4.224-0.463-6.186-1.28l-329.388-124.117c-10.701-4.029-19.906-11.249-26.369-20.681s-9.874-20.622-9.77-32.055v-27.821c-19.376-14.474-35.1-33.277-45.916-54.909s-16.424-45.491-16.378-69.677v152.362c0 49.41 30.293 93.442 76.416 110.892l329.772 124.587c11.949 4.459 24.803 5.961 37.459 4.378s24.742-6.202 35.229-13.465c10.486-7.263 19.059-16.954 24.992-28.247 5.93-11.293 9.043-23.81 9.072-36.565zM920.323 357.718v-41.514c0.013-5.45-2.122-10.682-5.936-14.573-3.818-3.888-9.011-6.118-14.458-6.208h-60.63c-22.016 0-41.942 16.214-43.606 37.805-0.566 6.083 0.218 12.218 2.298 17.965 2.080 5.744 5.405 10.96 9.734 15.27 3.766 3.898 8.291 6.976 13.299 9.046 5.005 2.067 10.384 3.085 15.802 2.986h62.72c12.032-0.426 20.778-9.555 20.778-20.778zM836.352 422.227h42.368c10.998 0.035 21.539 4.419 29.318 12.198 7.776 7.776 12.163 18.317 12.195 29.318v18.259c-0.090 41.389-16.573 81.056-45.837 110.323-29.267 29.267-68.934 45.747-110.323 45.837h-476.757c-35.285 0-67.712-11.648-93.867-31.571-19.376-14.474-35.1-33.28-45.916-54.909-10.816-21.632-16.424-45.494-16.378-69.68v-73.898c0-15.786 16.64-25.77 31.573-20.778 23.275 7.926 47.69 11.99 72.277 12.032 60.539-0.115 118.567-24.214 161.373-67.021 42.81-42.81 66.909-100.835 67.021-161.376 0-29.907-7.894-62.72-20.352-91.776-6.656-14.931 3.754-32.851 19.926-32.851h301.098c41.389 0.090 81.056 16.57 110.323 45.837 29.264 29.267 45.747 68.934 45.837 110.323v7.891c-0.022 11.008-4.403 21.558-12.182 29.347-7.779 7.786-18.323 12.176-29.331 12.211h-36.141c-39.85 0-78.080 24.49-88.448 63.146-3.978 14.454-3.997 29.712-0.058 44.176 3.942 14.467 11.699 27.606 22.458 38.045 7.782 7.962 17.091 14.272 27.37 18.554s21.315 6.445 32.451 6.362zM608.768 430.506h-207.702c-17.024 0-31.146 14.122-31.146 31.146 0 17.069 14.122 31.149 31.146 31.149h207.658c17.024 0 31.149-14.080 31.149-31.149 0-17.024-14.080-31.146-31.104-31.146z" />
<glyph unicode="&#xe911;" glyph-name="empty-wallet-bold" d="M633.606 791.465v-162.133h-64v162.133c0 11.52-10.24 17.067-17.069 17.067-2.131 0-4.266-0.427-6.4-1.28l-338.346-127.573c-22.613-8.533-37.12-29.867-37.12-54.187v-28.586c-38.827-29.014-64-75.52-64-128v156.586c0 50.773 31.147 96 78.507 113.92l338.773 128c9.386 3.413 19.2 5.12 28.586 5.12 42.669 0 81.069-34.56 81.069-81.067zM917.338 341.331v-42.666c0.003-5.587-2.186-10.947-6.096-14.938-3.907-3.987-9.226-6.285-14.81-6.397h-62.294c-22.611 0-43.091 16.64-44.8 38.826-1.28 13.229 3.84 25.6 12.374 34.134 3.862 4 8.509 7.165 13.645 9.293 5.139 2.128 10.662 3.178 16.221 3.082h64.429c12.371-0.429 21.331-9.814 21.331-21.334zM831.152 407.469h43.52c23.466 0 42.666 19.2 42.666 42.666v18.774c0 88.32-72.106 160.426-160.426 160.426h-489.813c-36.267 0-69.547-11.946-96.427-32.426-38.827-29.014-64-75.52-64-128v-287.146c0-88.32 72.107-160.429 160.427-160.429h489.813c88.32 0 160.426 72.109 160.426 160.429v8.106c0 23.466-19.2 42.666-42.666 42.666h-37.12c-40.96 0-80.214 25.174-90.88 64.854-8.96 32.426 1.706 63.574 23.040 84.48 15.786 16.214 37.546 25.6 61.44 25.6zM597.338 416.003h-298.666c-17.493 0-32 14.506-32 32 0 17.491 14.507 32 32 32h298.666c17.494 0 32-14.509 32-32 0-17.494-14.506-32-32-32z" />
<glyph unicode="&#xe912;" glyph-name="empty-wallet-change-bold" d="M213.339 319.997c-43.52 0-83.627-16.64-113.92-43.946-6.827-5.974-13.227-12.374-18.773-19.626-24.642-30.243-38.059-68.083-37.973-107.094 0-94.294 76.8-170.666 170.667-170.666 40.96 0 78.080 14.506 107.519 37.971 23.894 20.054 42.669 46.080 52.909 75.949 6.826 17.491 10.24 36.691 10.24 56.746 0 93.866-76.374 170.666-170.668 170.666zM315.739 182.186c0-11.949-9.387-20.909-20.907-20.909s-20.907 8.96-20.907 20.909v4.266c0 4.694-3.413 8.534-8.107 8.534h-85.333c1.783-3.165 2.698-6.746 2.652-10.378s-1.051-7.187-2.914-10.307c-1.862-3.117-4.516-5.69-7.692-7.45-3.176-1.763-6.762-2.656-10.393-2.586-5.12 0-10.667 2.131-14.507 5.971l-30.72 30.72c-1.9 2.026-3.482 4.33-4.693 6.829-1.708 5.123-1.708 10.662 0 15.786 1.28 2.134 2.56 5.12 4.693 6.826l30.72 30.294c8.107 8.534 21.333 8.534 29.013 0 6.827-6.4 7.68-16.64 3.413-24.32h85.76c27.307 0 49.493-22.186 49.493-49.92v-4.266h0.427zM264.539 31.571c-2.77-0.115-5.532 0.358-8.107 1.386-2.574 1.030-4.9 2.595-6.827 4.589-3.178 3.104-5.236 7.178-5.854 11.578s0.241 8.88 2.441 12.742h-85.76c-27.307 0-49.493 22.186-49.493 49.92v4.266c0 11.946 9.387 20.906 20.907 20.906s20.907-8.96 20.907-20.906v-4.266c0-4.694 3.413-8.534 8.107-8.534h85.76c-4.267 8.106-3.413 17.92 3.413 24.746 8.107 8.109 21.333 8.109 29.013 0l30.72-30.72c1.707-1.706 3.413-4.266 4.693-6.826 1.707-5.12 1.707-10.666 0-15.786-1.28-2.134-2.987-4.694-4.693-6.4l-30.72-30.294c-3.84-4.266-9.387-6.4-14.507-6.4zM633.606 791.465v-162.133h-64v162.133c0 11.52-10.24 17.067-17.069 17.067-2.131 0-4.266-0.427-6.4-1.28l-338.345-127.573c-22.613-8.533-37.12-29.867-37.12-54.187v-28.586c-38.827-29.014-64-75.52-64-128v156.586c0 50.773 31.147 96 78.507 113.92l338.773 128c9.386 3.413 19.2 5.12 28.586 5.12 42.669 0 81.069-34.56 81.069-81.067zM917.338 341.331v-42.666c0.003-5.587-2.186-10.947-6.096-14.938-3.907-3.987-9.226-6.285-14.81-6.397h-62.294c-22.611 0-43.091 16.64-44.8 38.826-1.28 13.229 3.84 25.6 12.374 34.134 3.862 4 8.509 7.165 13.648 9.293 5.136 2.128 10.659 3.178 16.218 3.082h64.429c12.371-0.429 21.331-9.814 21.331-21.334zM831.152 407.469h43.52c23.466 0 42.666 19.2 42.666 42.666v18.774c0 88.32-72.106 160.426-160.426 160.426h-489.813c-36.267 0-69.547-11.946-96.427-32.426-38.827-29.014-64-75.52-64-128v-75.946c0-16.214 17.067-26.454 32.427-21.334 23.893 8.106 49.067 12.374 74.24 12.374 129.279 0 234.668-105.389 234.668-234.669 0-30.72-8.109-64.426-20.909-94.291-6.826-15.36 3.84-33.709 20.48-33.709h309.334c88.32 0 160.426 72.109 160.426 160.429v8.106c0 23.466-19.2 42.666-42.666 42.666h-37.12c-40.96 0-80.214 25.174-90.88 64.854-8.534 32.426 1.706 64 23.040 84.48 15.786 16.214 37.546 25.6 61.44 25.6zM597.338 416.003h-213.331c-17.494 0-32 14.506-32 32 0 17.491 14.506 32 32 32h213.331c17.494 0 32-14.509 32-32 0-17.494-14.506-32-32-32z" />
<glyph unicode="&#xe913;" glyph-name="empty-wallet-time-bold" d="M213.339 319.997c-40.107 0-77.227-14.080-106.667-37.546-20.028-15.917-36.19-36.16-47.274-59.216s-16.803-48.323-16.726-73.904c0-94.294 76.373-170.666 170.667-170.666 41.484 0.058 81.527 15.226 112.642 42.666 35.411 31.146 58.026 76.8 58.026 128 0 94.294-76.374 170.666-170.667 170.666zM256.006 138.666c0-11.094-5.973-21.76-15.36-27.309l-53.333-32c-5.12-3.411-11.093-4.691-16.64-4.691-10.667 0-21.333 5.546-27.307 15.36-8.96 15.36-4.267 34.986 11.093 43.946l37.973 22.614v46.080c-0.057 4.182 0.718 8.333 2.28 12.211 1.562 3.882 3.878 7.411 6.816 10.39 2.938 2.976 6.437 5.341 10.296 6.954s8 2.445 12.182 2.445c17.493 0 32-14.509 32-32v-64zM633.606 791.465v-162.133h-64v162.133c0 11.52-10.24 17.067-17.066 17.067-2.134 0-4.269-0.427-6.4-1.28l-338.348-127.573c-22.613-8.533-37.12-29.867-37.12-54.187v-28.586c-38.827-29.014-64-75.52-64-128v156.586c0 50.773 31.147 96 78.507 113.92l338.773 128c9.389 3.413 19.2 5.12 28.589 5.12 42.666 0 81.066-34.56 81.066-81.067zM917.341 341.331v-42.666c0-5.587-2.189-10.947-6.099-14.938-3.907-3.987-9.226-6.285-14.81-6.397h-62.291c-22.614 0-43.094 16.64-44.8 38.826-1.28 13.229 3.84 25.6 12.371 34.134 3.862 4 8.509 7.165 13.648 9.293 5.136 2.128 10.659 3.178 16.221 3.082h64.426c12.374-0.429 21.334-9.814 21.334-21.334zM831.152 407.469h43.52c23.466 0 42.666 19.2 42.666 42.666v18.774c0 88.32-72.106 160.426-160.426 160.426h-489.813c-36.267 0-69.547-11.946-96.427-32.426-38.827-29.014-64-75.52-64-128v-75.946c0-16.214 17.067-26.454 32.427-21.334 23.893 8.106 49.067 12.374 74.24 12.374 129.279 0 234.668-105.389 234.668-234.669 0-30.72-8.109-64.426-20.909-94.291-6.826-15.36 3.84-33.709 20.48-33.709h309.334c88.32 0 160.426 72.109 160.426 160.429v8.106c0 23.466-19.2 42.666-42.666 42.666h-37.12c-40.96 0-80.214 25.174-90.88 64.854-8.534 32.426 1.706 64 23.040 84.48 15.786 16.214 37.546 25.6 61.44 25.6zM597.338 416.003h-213.331c-17.494 0-32 14.506-32 32 0 17.491 14.506 32 32 32h213.331c17.494 0 32-14.509 32-32 0-17.494-14.506-32-32-32z" />
<glyph unicode="&#xe914;" glyph-name="favorite-chart-bold" d="M815.792 322.515l13.654-27.734c6.826-13.651 24.32-26.451 38.826-29.011l18.349-2.989c55.891-9.386 68.691-50.346 29.011-90.451l-17.066-17.069c-11.52-11.52-17.494-33.706-14.080-49.92l2.134-10.24c15.36-67.411-20.48-93.44-78.934-58.026l-12.374 7.68c-14.931 8.96-39.68 8.96-54.611 0l-12.374-7.68c-58.88-35.414-94.294-9.386-78.934 58.026l2.134 10.24c3.414 15.789-2.56 38.4-14.080 49.92l-17.066 17.069c-39.68 40.531-26.88 81.066 29.011 90.451l18.349 2.989c14.931 2.56 32 15.36 38.826 29.011l13.654 27.734c26.451 53.334 69.12 53.334 95.571 0zM690.768 874.664h-357.546c-155.308 0-247.894-92.587-247.894-247.893v-357.549c0-155.306 92.587-247.891 247.894-247.891h225.28c14.931 0 25.6 15.36 23.891 30.294-1.706 16.211-0.851 35.411 4.269 57.597 0.851 2.989 0 6.403-2.56 8.963l-9.389 9.386c-36.266 36.694-49.491 81.066-36.691 121.6 13.226 40.106 49.92 68.266 100.691 76.8l12.8 2.134 11.52 23.040c23.469 47.786 61.869 75.52 104.96 75.52 43.094 0 81.494-27.734 104.96-75.52l6.4-13.229c2.989-6.4 8.96-10.666 15.789-11.946l11.52-2.56c14.931-3.84 32 8.106 32 23.894v279.466c0 155.306-92.589 247.893-247.894 247.893zM693.754 577.706l-98.56-127.149c-12.371-15.786-29.866-26.026-49.92-28.16-19.626-2.56-39.68 2.989-55.040 15.36l-78.080 60.589c-1.091 0.957-2.394 1.651-3.802 2.019-1.405 0.371-2.88 0.41-4.304 0.112-1.706 0-4.694-0.851-7.254-4.266l-101.546-131.84c-5.281-6.707-12.999-11.053-21.47-12.090-8.472-1.040-17.011 1.312-23.756 6.544-3.334 2.547-6.133 5.728-8.238 9.36s-3.473 7.642-4.028 11.802c-0.555 4.16-0.284 8.387 0.795 12.445 1.080 4.054 2.948 7.859 5.497 11.194l101.546 131.84c12.374 15.786 29.869 26.026 49.92 28.586 20.054 2.56 39.68-2.986 55.469-15.36l78.080-61.44c2.986-2.56 5.971-2.134 8.106-2.134 1.706 0 4.694 0.854 7.254 4.269l98.56 127.146c10.666 14.080 30.72 16.64 44.8 5.546 14.506-10.666 16.64-30.72 5.971-44.371z" />
<glyph unicode="&#xe915;" glyph-name="flag-bold-2" d="M648.538 654.504l-341.334 147.627v40.533c0 17.493-14.507 32-32 32s-32-14.507-32-32v-789.333c0-17.494 14.507-32 32-32s32 14.506 32 32v168.96l351.146 173.226c70.829 36.694 108.8 84.054 106.669 133.974-2.134 49.92-43.52 94.294-116.48 125.013z" />
<glyph unicode="&#xe916;" glyph-name="flag-bold" d="M768.854 433.917l-52.054 52.054c-6.237 5.507-11.248 12.266-14.704 19.84-3.453 7.571-5.277 15.786-5.347 24.106-0.854 19.2 6.826 38.4 20.906 52.48l51.2 51.2c44.374 44.374 61.014 87.041 46.934 120.747-13.654 33.28-55.894 51.627-118.189 51.627h-445.866v36.693c0 17.493-14.507 32-32 32s-32-14.507-32-32v-789.333c0-17.494 14.507-32 32-32s32 14.506 32 32v208.214h445.866c61.44 0 102.829 18.771 116.909 52.48 14.080 33.706-2.134 75.946-45.654 119.891z" />
<glyph unicode="&#xe917;" glyph-name="flash-bold" d="M764.16 502.611h-131.84v307.201c0 71.68-38.826 86.187-86.186 32.427l-322.987-367.359c-39.68-44.8-23.040-81.494 36.693-81.494h131.839v-307.2c0-71.68 38.826-86.186 86.186-32.426l322.989 367.36c39.68 44.8 23.040 81.491-36.694 81.491z" />
<glyph unicode="&#xe918;" glyph-name="folder-bold-2" d="M829.181 787.88c5.677-8.875-4.010-19.2-14.25-16.896-20.054 5.973-42.24 8.96-64.854 8.96h-140.8c-3.312 0-6.579 0.771-9.539 2.252-2.963 1.481-5.539 3.632-7.526 6.281l-49.069 65.28c-6.016 8.533-0.339 20.907 10.070 20.907h117.504c66.56 0 125.27-34.56 158.464-86.784zM859.302 680.957c-18.595 13.417-39.6 23.123-61.869 28.587-15.36 4.267-31.146 6.4-47.36 6.4h-158.72c-24.746 0-26.451 2.133-39.68 19.627l-59.731 79.36c-27.734 37.12-49.494 59.733-119.040 59.733h-98.988c-104.107 0-188.587-84.48-188.587-188.587v-476.161c0-104.106 84.48-188.586 188.587-188.586h476.159c104.109 0 188.589 84.48 188.589 188.586v317.44c0 63.574-31.149 119.467-79.36 153.601zM613.968 262.826h-204.374c-16.64 0-29.44 13.226-29.44 29.866 0 16.214 12.8 29.866 29.44 29.866h204.374c16.64 0 29.866-13.651 29.866-29.866 0-16.64-13.226-29.866-29.866-29.866z" />
<glyph unicode="&#xe919;" glyph-name="folder-bold" d="M896.72 619.005c16.982-24.147-3.242-53.674-32.81-53.674h-735.916c-11.316 0-22.168 4.496-30.17 12.496-8.002 8.003-12.497 18.854-12.497 30.17v78.081c0 104.107 84.48 188.587 188.587 188.587h98.988c69.546 0 91.306-22.613 119.040-59.733l59.731-79.36c13.229-17.493 14.934-19.627 39.68-19.627h119.040c77.014 0 145.152-38.272 186.326-96.939zM895.27 501.331c11.293 0 22.125-4.477 30.125-12.451 7.997-7.974 12.506-18.794 12.541-30.086l0.726-209.197c0-125.866-102.4-228.266-228.269-228.266h-396.799c-125.867 0-228.267 102.4-228.267 228.266v209.069c0 11.315 4.495 22.166 12.497 30.17 8.002 8 18.854 12.496 30.17 12.496h767.276z" />
<glyph unicode="&#xe91a;" glyph-name="gift-bold" d="M853.338 447.997v-256c0-94.291-76.371-170.666-170.666-170.666h-341.334c-94.292 0-170.666 76.374-170.666 170.666v256c0 23.469 19.2 42.669 42.667 42.669h84.053c23.466 0 42.666-19.2 42.666-42.669v-133.971c0.045-22.659 9.037-44.381 25.018-60.445 15.981-16.061 37.661-25.158 60.317-25.315 16.214 0 32.426 4.691 46.506 14.080l40.534 26.451 37.546-25.171c26.029-17.494 59.309-19.629 87.040-4.694 28.16 14.934 45.654 43.52 45.654 75.52v133.546c0 23.469 19.2 42.669 42.666 42.669h85.334c23.466 0 42.666-19.2 42.666-42.669zM917.338 661.331v-42.665c0-46.934-22.611-85.334-85.331-85.334h-640.001c-65.28 0-85.333 38.4-85.333 85.334v42.665c0 46.933 20.053 85.333 85.333 85.333h640.001c62.72 0 85.331-38.4 85.331-85.333zM496.595 746.628h-235.52c-7.015 7.609-10.803 17.645-10.564 27.992s4.485 20.197 11.844 27.475l60.586 60.587c7.667 7.582 18.016 11.835 28.8 11.835s21.133-4.252 28.8-11.835l116.054-116.053zM762.538 746.628h-235.52l116.051 116.053c7.667 7.582 18.016 11.835 28.8 11.835s21.133-4.252 28.8-11.835l60.589-60.587c15.36-15.36 15.786-39.68 1.28-55.467zM596.093 490.669c23.469 0 42.669-19.2 42.669-42.666v-133.546c0-34.134-37.974-54.614-66.134-35.414l-38.4 25.6c-6.966 4.589-15.126 7.034-23.466 7.034-8.342 0-16.502-2.445-23.469-7.034l-40.106-26.454c-28.16-18.771-65.706 1.709-65.706 35.414v134.4c0 23.466 19.2 42.666 42.666 42.666h171.946z" />
<glyph unicode="&#xe91b;" glyph-name="global-bold" d="M326.352 67.837c-1.28 0-2.986-0.851-4.266-0.851-82.774 40.96-150.188 108.797-191.574 191.571 0 1.28 0.853 2.989 0.853 4.269 52.053-15.36 105.813-26.88 159.147-35.84 9.387-53.763 20.48-107.094 35.84-159.149zM893.434 258.131c-42.24-84.909-112.64-153.6-198.4-194.986 16.214 54.186 29.869 108.8 38.829 163.84 53.76 8.96 106.666 20.48 158.72 35.84-0.429-1.709 0.851-3.414 0.851-4.694zM896.848 631.037c-53.76 16.214-107.946 29.441-162.986 38.827-8.96 55.040-22.189 109.653-38.829 162.987 88.32-42.24 159.574-113.493 201.814-201.814zM326.394 828.2c-15.359-52.053-26.452-104.96-35.412-158.72-55.040-8.533-109.653-22.187-163.84-38.398 41.387 85.758 110.080 156.158 194.987 198.398 1.28 0 2.986-1.28 4.266-1.28zM660.986 678.824c-98.986 11.093-198.826 11.093-297.811 0 10.666 58.453 24.32 116.907 43.52 173.227 0.851 3.413 0.426 5.973 0.851 9.387 33.709 8.107 68.269 13.227 104.534 13.227 35.84 0 70.826-5.12 104.106-13.227 0.429-3.413 0.429-5.973 1.28-9.387 19.2-56.747 32.854-114.773 43.52-173.227zM281.168 299.005c-58.88 10.669-116.907 24.32-173.227 43.52-3.413 0.854-5.973 0.429-9.387 0.854-8.107 33.706-13.227 68.266-13.227 104.534 0 35.84 5.12 70.826 13.227 104.106 3.413 0.426 5.973 0.426 9.387 1.28 56.747 18.774 114.347 32.854 173.227 43.52-10.667-98.986-10.667-198.826 0-297.814zM938.662 447.914c0-36.269-5.12-70.829-13.229-104.534-3.411-0.426-5.971 0-9.386-0.854-56.746-18.771-114.774-32.851-173.226-43.52 11.091 98.989 11.091 198.829 0 297.814 58.451-10.666 116.906-24.32 173.226-43.52 3.414-0.854 5.974-1.28 9.386-1.28 8.109-33.706 13.229-68.266 13.229-104.106zM660.986 217.171c-10.666-58.88-24.32-116.906-43.52-173.226-0.851-3.414-0.851-5.974-1.28-9.389-33.28-8.106-68.266-13.226-104.106-13.226-36.266 0-70.826 5.12-104.534 13.226-0.426 3.414 0 5.974-0.851 9.389-18.554 56.646-33.098 114.534-43.52 173.226 49.491-5.546 98.986-9.386 148.906-9.386s99.84 3.84 148.906 9.386zM672.55 287.443c-106.614-13.462-214.496-13.462-321.11 0-13.462 106.611-13.462 214.496 0 321.11 106.614 13.459 214.496 13.459 321.11 0 13.462-106.614 13.462-214.499 0-321.11z" />
<glyph unicode="&#xe91c;" glyph-name="heart-add-bold" d="M882.342 366.589v0.426c-37.546 39.68-90.026 64-148.48 64-113.066 0-204.8-91.731-204.8-204.8 0-52.48 20.054-100.266 52.48-136.531 37.546-41.814 91.734-68.269 152.32-68.269 113.066 0 204.8 91.734 204.8 204.8 0 54.189-21.334 103.68-56.32 140.374zM810.237 191.654h-44.374v-46.506c0-17.494-14.506-32-32-32s-32 14.506-32 32v46.506h-44.374c-17.92 0-32 14.080-32 32 0 17.494 13.654 31.574 31.574 32h44.8v42.669c0 0.851 0 1.706 0.426 2.56 0.854 16.211 14.934 29.44 31.574 29.44 17.066 0 31.146-13.654 32-30.72v-43.949h44.374c17.92 0 32-14.506 32-32 0-17.92-14.080-32-32-32zM938.662 587.517c0-50.774-8.109-97.706-22.189-141.226-2.56-8.96-13.226-11.52-20.906-5.974-46.816 34.554-103.52 53.104-161.706 52.906-148.054 0-268.8-120.746-268.8-268.8 0-46.080 11.946-91.306 34.56-131.411 6.826-11.949-1.28-27.309-14.080-22.614-102.829 34.986-310.614 162.56-378.028 375.894-14.080 43.52-22.187 90.451-22.187 141.226 0 131.84 106.24 238.507 237.226 238.507 77.229 0 146.349-37.547 189.44-95.147 22.013 29.491 50.592 53.444 83.478 69.961 32.883 16.516 69.165 25.14 105.962 25.186 130.989 0 237.229-106.667 237.229-238.507z" />
<glyph unicode="&#xe91d;" glyph-name="heart-circle-bold" d="M511.994 874.664c-235.519 0-426.666-191.147-426.666-426.667s191.147-426.666 426.666-426.666c235.52 0 426.669 191.146 426.669 426.666s-191.149 426.667-426.669 426.667zM526.074 234.666c-7.68-2.56-20.906-2.56-28.586 0-66.56 22.611-215.893 117.76-215.893 279.040 0 71.251 57.173 128.852 127.999 128.852 41.814 0 78.934-20.052 102.4-51.626 23.040 31.146 60.589 51.626 102.4 51.626 70.829 0 128-57.601 128-128.852 0-161.28-149.331-256.429-216.32-279.040z" />
<glyph unicode="&#xe91e;" glyph-name="presention-chart-bold" d="M938.662 842.664h-853.334c-17.493 0-32 14.507-32 32s14.507 32 32 32h853.334c17.491 0 32-14.507 32-32s-14.509-32-32-32zM711.248 6.826c-5.546-11.094-17.066-17.494-28.586-17.494-4.694 0-9.814 1.28-14.080 3.414l-156.589 78.080-156.586-78.080c-4.266-2.134-9.386-3.414-14.080-3.414-11.52 0-23.040 6.4-28.587 17.494-1.957 3.766-3.134 7.888-3.462 12.118-0.327 4.234 0.202 8.486 1.556 12.509s3.506 7.731 6.326 10.906c2.82 3.171 6.25 5.744 10.087 7.558l152.746 76.374v108.374h64v-108.374l152.749-76.374c16.211-7.68 22.611-26.88 14.506-43.091zM128 874.664v-516.267c0-81.066 42.667-123.731 123.733-123.731h520.532c81.069 0 123.734 42.666 123.734 123.731v516.267h-768zM724.48 593.917l-134.4-112.211c-12.374-10.24-28.16-14.509-43.094-11.949-15.36 2.56-28.586 11.949-36.691 25.6l-44.8 74.669-125.014-104.109c-5.974-5.12-13.226-7.251-20.48-7.251-6.615-0.042-13.079 1.968-18.504 5.754s-9.543 9.158-11.789 15.382c-2.245 6.221-2.508 12.986-0.75 19.363s5.447 12.051 10.563 16.246l134.4 112.214c12.374 10.24 28.16 14.505 43.094 11.946 15.36-2.56 28.586-11.946 36.691-25.6l44.8-74.666 125.014 104.105c3.242 2.705 6.989 4.741 11.024 5.991 4.032 1.25 8.275 1.69 12.477 1.293 4.205-0.396 8.288-1.621 12.019-3.604 3.728-1.982 7.027-4.683 9.706-7.945 11.094-13.654 9.389-33.709-4.266-45.229z" />
<glyph unicode="&#xe91f;" glyph-name="wallet-add-bold-1" d="M509.437 865.618l-102.826-239.362h-102.828c-17.067 0-33.707-1.28-49.92-4.691l42.667 102.399 1.707 3.84 2.56 6.827c1.28 2.987 2.133 5.547 3.413 7.68 49.493 114.773 104.962 150.613 205.227 123.307zM799.187 614.822l-0.854 0.426c-25.6 7.254-51.626 11.094-78.080 11.094h-267.094l97.28 226.134c5.974-2.133 12.374-5.12 18.774-7.253l94.294-39.68c52.48-21.76 89.171-44.373 111.786-71.68 3.84-5.12 7.254-9.813 10.666-15.36 3.84-5.973 6.829-11.947 8.534-18.347 1.706-3.84 2.986-7.253 3.84-11.093 6.4-21.76 6.826-46.507 0.854-74.24zM780.285 553.808c-19.2 5.549-39.254 8.534-60.16 8.534h-416.427c-29.013 0-56.32-5.546-81.92-16.64-37.457-16.112-69.376-42.842-91.819-76.883-22.443-34.045-34.428-73.914-34.475-114.691v-83.2c0-10.24 0.853-20.051 2.133-30.291 9.387-135.68 81.92-208.214 217.6-217.174 9.813-1.28 19.627-2.134 30.293-2.134h332.8c157.869 0 241.069 75.094 249.174 224.429 0.426 8.106 0.854 16.64 0.854 25.171v83.2c-0.064 44.746-14.477 88.291-41.13 124.237-26.65 35.942-64.128 62.387-106.925 75.443zM618.579 269.222h-74.669v-77.226c0-17.494-14.506-32-32-32-17.491 0-32 14.506-32 32v77.226h-74.666c-8.486 0-16.627 3.373-22.627 9.373-6.003 6-9.373 14.141-9.373 22.627s3.37 16.627 9.373 22.627c6 6.003 14.141 9.373 22.627 9.373h74.666v72.106c0 17.494 14.509 32 32 32 17.494 0 32-14.506 32-32v-72.106h74.669c8.486 0 16.624-3.37 22.627-9.373 6-6 9.373-14.141 9.373-22.627s-3.373-16.627-9.373-22.627c-6.003-6-14.141-9.373-22.627-9.373z" />
<glyph unicode="&#xe920;" glyph-name="wallet-add-bold" d="M213.339 319.997c-94.293 0-170.667-76.374-170.667-170.669 0-32 8.96-62.291 24.747-87.891 15.041-25.28 36.407-46.208 61.993-60.72 25.586-14.515 54.511-22.115 83.927-22.054 62.293 0 116.479 33.28 145.919 82.774 15.789 25.6 24.749 55.891 24.749 87.891 0 94.294-76.374 170.669-170.668 170.669zM276.912 118.182h-31.573v-33.28c0-17.494-14.507-32-32-32s-32 14.506-32 32v33.28h-31.573c-17.493 0-32 14.506-32 32s14.507 32 32 32h31.573v30.294c0 17.491 14.507 32 32 32s32-14.509 32-32v-30.294h31.573c8.487 0 16.626-3.37 22.627-9.373 6.001-6 9.373-14.141 9.373-22.627s-3.372-16.627-9.373-22.627c-6.001-6-14.14-9.373-22.627-9.373zM917.338 426.662h-106.666c-46.934 0-85.334-38.4-85.334-85.334 0-46.931 38.4-85.331 85.334-85.331h106.666c11.949 0 21.334 9.386 21.334 21.331v128c0 11.949-9.386 21.334-21.334 21.334zM705.286 729.596c12.8-12.373 2.131-31.573-15.789-31.573l-353.28 0.427c-20.479 0-30.719 24.747-16.211 39.253l74.666 75.093c30.342 30.135 71.37 47.048 114.134 47.048 42.762 0 83.792-16.913 114.131-47.048l82.349-83.2zM933.123 163.843c-26.026-87.894-101.12-142.509-203.52-142.509h-277.331c-16.64 0-27.309 18.349-20.48 33.709 12.8 29.866 20.906 63.571 20.906 94.291 0 129.28-105.386 234.669-234.666 234.669-32.427 0-64-6.829-93.013-19.629-15.787-6.826-34.987 3.84-34.987 20.909v62.72c0 116.051 69.973 197.119 178.773 210.773 10.667 1.707 22.187 2.56 34.133 2.56h426.665c11.094 0 21.76-0.427 32-2.133 86.189-9.813 148.48-62.294 171.52-140.374 4.269-14.080-5.971-28.16-20.48-28.16h-97.706c-92.586 0-165.974-84.48-145.92-180.48 14.080-69.974 78.934-118.186 150.186-118.186h93.44c14.934 0 24.749-14.509 20.48-28.16z" />
<glyph unicode="&#xe921;" glyph-name="wallet-bold-1" d="M509.434 865.618l-102.829-239.362h-102.825c-17.067 0-33.707-1.28-49.92-4.691l42.667 102.399 1.707 3.84 2.56 6.827c1.28 2.987 2.133 5.547 3.413 7.68 49.493 114.773 104.959 150.613 205.228 123.307zM799.181 614.822l-0.851 0.426c-25.6 7.254-51.629 11.094-78.080 11.094h-267.094l97.28 226.134c5.974-2.133 12.374-5.12 18.774-7.253l94.291-39.68c52.48-21.76 89.174-44.373 111.789-71.68 3.84-5.12 7.251-9.813 10.666-15.36 3.84-5.973 6.826-11.947 8.534-18.347 1.706-3.84 2.986-7.253 3.84-11.093 6.4-21.76 6.826-46.507 0.851-74.24zM534.179 206.589h10.666c12.8 0 23.469 11.52 23.469 25.6 0 17.92-5.12 20.48-16.214 24.746l-17.92 6.4v-56.746zM780.285 553.811c-19.2 5.546-39.254 8.531-60.16 8.531h-416.427c-29.013 0-56.32-5.546-81.92-16.64-37.457-16.112-69.376-42.838-91.819-76.883s-34.428-73.914-34.475-114.688v-83.2c0-10.24 0.853-20.054 2.133-30.294 9.387-135.68 81.92-208.214 217.6-217.174 9.813-1.28 19.627-2.131 30.293-2.131h332.8c157.869 0 241.069 75.091 249.174 224.426 0.426 8.106 0.854 16.64 0.854 25.174v83.2c-0.064 44.746-14.477 88.291-41.13 124.234-26.65 35.942-64.128 62.387-106.925 75.446zM566.525 298.662c19.626-6.826 46.080-21.331 46.080-66.56 0-38.826-30.294-69.971-67.84-69.971h-10.666v-9.389c0-12.371-9.814-22.186-22.189-22.186-12.371 0-22.186 9.814-22.186 22.186v9.389h-3.84c-40.96 0-74.666 34.56-74.666 77.226 0 12.374 9.811 22.186 22.186 22.186s22.186-9.811 22.186-22.186c0-17.92 13.654-32.854 30.294-32.854h3.84v72.109l-32.426 11.52c-19.629 6.826-46.080 21.331-46.080 66.56 0 38.826 30.291 69.971 67.84 69.971h10.666v9.389c0 12.371 9.814 22.186 22.186 22.186 12.374 0 22.189-9.814 22.189-22.186v-9.389h3.84c40.96 0 74.666-34.56 74.666-77.226 0-12.374-9.814-22.186-22.186-22.186-12.374 0-22.189 9.811-22.189 22.186 0 17.92-13.651 32.854-30.291 32.854h-3.84v-72.109l32.426-11.52zM455.686 356.698c0-17.92 5.12-20.48 16.214-24.749l17.92-6.4v56.749h-10.666c-13.229 0-23.469-11.52-23.469-25.6z" />
<glyph unicode="&#xe922;" glyph-name="wallet-bold-2" d="M938.672 491.949v-87.894c0-23.466-18.774-42.666-42.669-43.52h-83.626c-46.080 0-88.32 33.709-92.16 79.789-2.56 26.88 7.68 52.051 25.6 69.546 15.786 16.214 37.546 25.6 61.44 25.6h88.746c23.894-0.854 42.669-20.054 42.669-43.52zM873.382 296.531h-61.014c-81.066 0-149.334 61.014-156.16 138.666-3.84 44.374 12.374 88.749 44.8 120.32 27.306 28.16 65.28 43.949 106.24 43.949h66.134c12.371 0 22.611 10.24 21.331 22.611-9.386 103.681-78.080 174.507-180.051 186.454-10.24 1.707-20.909 2.133-32 2.133h-384.001c-11.947 0-23.467-0.853-34.56-2.56-108.8-13.653-178.773-94.72-178.773-210.773v-298.666c0-117.76 95.573-213.334 213.333-213.334h384.001c119.466 0 201.811 74.666 212.051 188.586 0.24 2.922-0.134 5.862-1.104 8.627-0.97 2.768-2.512 5.299-4.525 7.434-2.010 2.131-4.448 3.818-7.155 4.947-2.704 1.13-5.616 1.677-8.547 1.606zM554.662 543.997h-256.001c-17.493 0-32 14.509-32 32 0 17.494 14.507 32 32 32h256.001c17.491 0 32-14.506 32-32 0-17.491-14.509-32-32-32z" />
<glyph unicode="&#xe923;" glyph-name="wallet-bold-3" d="M938.672 421.466v-87.894c0-23.894-19.629-43.52-43.949-43.52h-82.346c-46.080 0-88.32 33.706-92.16 79.786-2.56 26.88 7.68 52.054 25.6 69.549 15.786 16.211 37.546 25.6 61.44 25.6h87.466c24.32 0 43.949-19.629 43.949-43.52zM656.208 364.458c-3.84 44.8 12.374 88.746 44.8 120.746 27.306 27.734 65.28 43.946 106.24 43.946h24.32c11.946 0 21.76 9.814 20.054 21.76-5.824 40.685-26.109 77.914-57.136 104.866s-70.726 41.83-111.824 41.908h-426.668c-94.293 0-170.667-76.374-170.667-170.665v-298.669c0-94.291 76.373-170.666 170.667-170.666h426.668c41.12 0.006 80.854 14.858 111.898 41.824s51.306 64.234 57.062 104.95c1.706 11.946-8.109 21.76-20.054 21.76h-19.2c-81.066 0-149.334 60.586-156.16 138.24zM554.662 452.349h-256.001c-8.487 0-16.626 3.373-22.628 9.373-6.001 6.003-9.372 14.141-9.372 22.627s3.372 16.627 9.372 22.627c6.001 6.003 14.14 9.373 22.628 9.373h256.001c17.491 0 32-14.506 32-32 0-17.491-14.509-32-32-32zM606.288 790.099c11.094-11.52 1.28-28.587-14.934-28.587h-334.079c-46.507 0-90.027-13.653-126.293-37.12-16.64-10.667-39.253 0.853-31.147 19.2 12.141 28.161 32.275 52.144 57.907 68.979s55.639 25.785 86.306 25.741h239.786c49.494 0 93.44-17.493 122.454-48.213z" />
<glyph unicode="&#xe924;" glyph-name="wallet-bold" d="M915.194 378.029v-42.669c0.003-5.584-2.186-10.947-6.096-14.934-3.907-3.99-9.226-6.285-14.81-6.397h-62.294c-22.611 0-43.091 16.64-44.8 38.826-1.28 13.226 3.84 25.6 12.374 34.134 3.862 4 8.509 7.165 13.648 9.293 5.136 2.128 10.659 3.178 16.218 3.078h64.429c12.371-0.426 21.331-9.811 21.331-21.331zM767.571 418.56c-21.334-20.909-31.574-52.054-23.040-84.48 11.094-39.68 49.92-64.854 90.88-64.854h37.12c23.466 0 42.666-19.2 42.666-42.666v-8.109c0-88.32-72.106-160.426-160.426-160.426h-489.813c-88.32 0-160.427 72.106-160.427 160.426v287.149c0 52.48 25.173 98.986 64 128 26.88 20.479 60.16 32.426 96.427 32.426h489.813c88.32 0 160.426-72.106 160.426-160.426v-18.774c0-23.466-19.2-42.666-42.666-42.666h-43.52c-23.894 0-45.654-9.389-61.44-25.6zM691.197 754.346c11.52-11.52 1.709-29.44-14.506-29.44l-327.68 0.427c-18.774 0-28.586 23.040-14.934 36.267l69.12 69.547c28.163 27.879 66.189 43.518 105.814 43.518s77.651-15.639 105.814-43.518l74.666-75.52c0.426-0.427 1.28-0.853 1.706-1.28z" />
<glyph unicode="&#xe925;" glyph-name="wallet-check-bold" d="M213.339 319.997c-94.293 0-170.667-76.374-170.667-170.669 0-32 8.96-62.291 24.747-87.891 15.041-25.28 36.407-46.208 61.993-60.72 25.586-14.515 54.511-22.115 83.927-22.054 62.293 0 116.479 33.28 145.919 82.774 15.789 25.6 24.749 55.891 24.749 87.891 0 94.294-76.374 170.669-170.668 170.669zM297.392 163.408l-90.88-84.051c-5.973-5.549-14.080-8.534-21.76-8.534-8.107 0-16.213 2.986-22.613 9.386l-42.24 42.24c-5.951 6.022-9.289 14.147-9.289 22.614s3.338 16.592 9.289 22.614c12.373 12.371 32.853 12.371 45.227 0l20.48-20.48 68.267 63.146c12.8 11.946 33.28 11.094 45.227-1.706s11.093-33.28-1.707-45.229zM917.338 426.662h-106.666c-46.934 0-85.334-38.4-85.334-85.334 0-46.931 38.4-85.331 85.334-85.331h106.666c11.949 0 21.334 9.386 21.334 21.331v128c0 11.949-9.386 21.334-21.334 21.334zM705.286 729.596c12.8-12.373 2.131-31.573-15.789-31.573l-353.28 0.427c-20.479 0-30.719 24.747-16.211 39.253l74.666 75.093c30.342 30.135 71.37 47.048 114.134 47.048 42.762 0 83.792-16.913 114.131-47.048l82.349-83.2zM933.123 163.843c-26.026-87.894-101.12-142.509-203.52-142.509h-277.331c-16.64 0-27.309 18.349-20.48 33.709 12.8 29.866 20.906 63.571 20.906 94.291 0 129.28-105.386 234.669-234.666 234.669-32.427 0-64-6.829-93.013-19.629-15.787-6.826-34.987 3.84-34.987 20.909v62.72c0 116.051 69.973 197.119 178.773 210.773 10.667 1.707 22.187 2.56 34.133 2.56h426.665c11.094 0 21.76-0.427 32-2.133 86.189-9.813 148.48-62.294 171.52-140.374 4.269-14.080-5.971-28.16-20.48-28.16h-97.706c-92.586 0-165.974-84.48-145.92-180.48 14.080-69.974 78.934-118.186 150.186-118.186h93.44c14.934 0 24.749-14.509 20.48-28.16z" />
<glyph unicode="&#xe926;" glyph-name="wallet-minus-bold" d="M509.437 865.618l-102.826-239.362h-102.828c-17.067 0-33.707-1.28-49.92-4.691l42.667 102.399 1.707 3.84 2.56 6.827c1.28 2.987 2.133 5.547 3.413 7.68 49.493 114.773 104.962 150.613 205.227 123.307zM799.187 614.822l-0.854 0.426c-25.6 7.254-51.626 11.094-78.080 11.094h-267.094l97.28 226.134c5.974-2.133 12.374-5.12 18.774-7.253l94.294-39.68c52.48-21.76 89.171-44.373 111.786-71.68 3.84-5.12 7.254-9.813 10.666-15.36 3.84-5.973 6.829-11.947 8.534-18.347 1.706-3.84 2.986-7.253 3.84-11.093 6.4-21.76 6.826-46.507 0.854-74.24zM780.285 553.808c-19.2 5.549-39.254 8.534-60.16 8.534h-416.427c-29.013 0-56.32-5.546-81.92-16.64-37.457-16.112-69.376-42.842-91.819-76.883-22.443-34.045-34.428-73.914-34.475-114.691v-83.2c0-10.24 0.853-20.051 2.133-30.291 9.387-135.68 81.92-208.214 217.6-217.174 9.813-1.28 19.627-2.134 30.293-2.134h332.8c157.869 0 241.069 75.094 249.174 224.429 0.426 8.106 0.854 16.64 0.854 25.171v83.2c-0.064 44.746-14.477 88.291-41.13 124.237-26.65 35.942-64.128 62.387-106.925 75.443zM618.579 245.328h-213.334c-17.494 0-32 14.509-32 32 0 17.494 14.506 32 32 32h213.334c17.491 0 32-14.506 32-32 0-17.491-14.509-32-32-32z" />
<glyph unicode="&#xe927;" glyph-name="wallet-money-bold" d="M894.714 273.917c-10.24-113.92-92.586-188.586-212.051-188.586h-384.001c-117.76 0-213.333 95.574-213.333 213.334v298.666c0 116.053 69.973 197.12 178.773 210.773 11.093 1.707 22.613 2.56 34.56 2.56h384.001c11.091 0 21.76-0.427 32-2.133 101.971-11.947 171.091-83.2 180.051-186.454 0.24-2.922-0.134-5.862-1.104-8.627-0.97-2.768-2.512-5.299-4.525-7.43-2.010-2.134-4.448-3.818-7.155-4.947-2.704-1.13-5.616-1.677-8.547-1.606h-66.134c-40.96 0-78.934-15.789-106.24-43.949-32.426-31.571-48.64-75.946-44.8-120.32 6.826-77.651 75.094-138.666 156.16-138.666h61.014c12.371 0 22.611-10.24 21.331-22.614zM938.672 491.949v-87.894c0-23.466-18.774-42.666-42.669-43.52h-83.626c-46.080 0-88.32 33.709-92.16 79.789-2.56 26.88 7.68 52.051 25.6 69.546 15.786 16.214 37.546 25.6 61.44 25.6h88.746c23.894-0.854 42.669-20.054 42.669-43.52z" />
<glyph unicode="&#xe928;" glyph-name="wallet-remove-bold" d="M917.338 426.662h-106.666c-46.934 0-85.334-38.4-85.334-85.334 0-46.931 38.4-85.331 85.334-85.331h106.666c11.949 0 21.334 9.386 21.334 21.331v128c0 11.949-9.386 21.334-21.334 21.334zM213.339 319.997c-51.2 0-96.853-22.614-128-58.029-27.439-31.11-42.607-71.155-42.667-112.64 0-32 8.96-62.291 24.747-87.891 15.041-25.28 36.407-46.208 61.993-60.72 25.586-14.515 54.511-22.115 83.927-22.054 43.093 0 82.347 15.786 112.213 42.666 13.226 11.094 24.746 24.749 33.706 40.109 15.789 25.6 24.749 55.891 24.749 87.891 0 94.294-76.374 170.669-170.668 170.669zM281.605 81.917c-6.4-6.4-14.507-9.386-22.613-9.386s-16.213 2.986-22.613 9.386l-22.613 22.614-23.467-23.469c-6.4-6.4-14.507-9.386-22.613-9.386s-16.213 2.986-22.613 9.386c-5.951 6.022-9.289 14.147-9.289 22.614s3.337 16.592 9.289 22.611l23.467 23.469-22.613 22.614c-5.951 6.019-9.289 14.144-9.289 22.611s3.338 16.592 9.289 22.614c12.373 12.371 32.853 12.371 45.227 0l22.613-22.614 21.333 21.334c12.373 12.371 32.853 12.371 45.227 0 12.373-12.374 12.373-32.854 0-45.229l-21.333-21.331 22.613-22.614c12.373-12.374 12.373-32.426 0-45.226zM705.286 729.596c12.8-12.373 2.131-31.573-15.789-31.573l-353.28 0.427c-20.479 0-30.719 24.747-16.211 39.253l74.666 75.093c30.342 30.135 71.37 47.048 114.134 47.048 42.762 0 83.792-16.913 114.131-47.048l82.349-83.2zM933.123 163.843c-26.026-87.894-101.12-142.509-203.52-142.509h-277.331c-16.64 0-27.309 18.349-20.48 33.709 12.8 29.866 20.906 63.571 20.906 94.291 0 129.28-105.386 234.669-234.666 234.669-32.427 0-64-6.829-93.013-19.629-15.787-6.826-34.987 3.84-34.987 20.909v62.72c0 116.051 69.973 197.119 178.773 210.773 10.667 1.707 22.187 2.56 34.133 2.56h426.665c11.094 0 21.76-0.427 32-2.133 86.189-9.813 148.48-62.294 171.52-140.374 4.269-14.080-5.971-28.16-20.48-28.16h-97.706c-92.586 0-165.974-84.48-145.92-180.48 14.080-69.974 78.934-118.186 150.186-118.186h93.44c14.934 0 24.749-14.509 20.48-28.16z" />
<glyph unicode="&#xe929;" glyph-name="wallet-search-bold" d="M52.474 34.896l32.427 32.429c-17.067 25.6-26.88 56.32-26.88 89.171 0 43.229 17.172 84.685 47.738 115.251s72.022 47.738 115.249 47.738c90.027 0 162.986-72.534 162.986-162.56 0-21.405-4.214-42.598-12.406-62.374-8.192-19.773-20.195-37.741-35.331-52.874-15.133-15.136-33.102-27.142-52.876-35.331-19.774-8.192-40.968-12.41-62.372-12.41-32.853 0-63.573 9.814-89.173 26.88l-32.427-32.426c-3.096-3.133-6.783-5.622-10.848-7.322s-8.427-2.573-12.832-2.573c-4.406 0-8.767 0.874-12.832 2.573s-7.752 4.189-10.848 7.322c-12.8 12.8-12.8 33.706 0.427 46.506zM917.328 426.662h-106.669c-46.931 0-85.331-38.4-85.331-85.334 0-46.931 38.4-85.331 85.331-85.331h106.669c11.946 0 21.331 9.386 21.331 21.331v128c0 11.949-9.386 21.334-21.331 21.334zM705.274 729.596c12.8-12.373 2.134-31.573-15.786-31.573l-353.28 0.427c-20.481 0-30.721 24.747-16.214 39.253l74.665 75.093c30.342 30.135 71.37 47.048 114.134 47.048s83.792-16.913 114.134-47.048l82.346-83.2zM933.123 163.843c-26.026-87.894-101.12-142.509-203.52-142.509h-277.331c-16.64 0-27.309 18.349-20.48 33.709 12.8 29.866 20.906 63.571 20.906 94.291 0 129.28-105.386 234.669-234.666 234.669-32.427 0-64-6.829-93.013-19.629-15.787-6.826-34.987 3.84-34.987 20.909v62.72c0 116.051 69.973 197.119 178.773 210.773 10.667 1.707 22.187 2.56 34.133 2.56h426.665c11.094 0 21.76-0.427 32-2.133 86.189-9.813 148.48-62.294 171.52-140.374 4.269-14.080-5.971-28.16-20.48-28.16h-97.706c-92.586 0-165.974-84.48-145.92-180.48 14.080-69.974 78.934-118.186 150.186-118.186h93.44c14.934 0 24.749-14.509 20.48-28.16z" />
<glyph unicode="&#xe92a;" glyph-name="account-balance-wallet-bold" d="M896 192v-42.666c0-46.934-38.4-85.334-85.334-85.334h-597.332c-47.36 0-85.333 38.4-85.333 85.334v597.332c0 46.933 37.973 85.333 85.333 85.333h597.332c46.934 0 85.334-38.4 85.334-85.333v-42.667h-384c-47.36 0-85.334-38.4-85.334-85.334v-341.331c0-46.934 37.974-85.334 85.334-85.334h384zM512 277.334h426.666v341.331h-426.666v-341.331zM682.666 384c-35.411 0-64 28.586-64 64s28.589 64 64 64c35.414 0 64-28.586 64-64s-28.586-64-64-64z" />
<glyph unicode="&#xe92b;" glyph-name="account-box-bold" d="M128 746.667v-597.332c0-46.934 37.973-85.334 85.333-85.334h597.332c46.934 0 85.334 38.4 85.334 85.334v597.332c0 46.933-38.4 85.333-85.334 85.333h-597.332c-47.36 0-85.333-38.4-85.333-85.333zM640 576c0-70.826-57.174-128-128-128s-128 57.174-128 128c0 70.827 57.174 128 128 128s128-57.173 128-128zM256 234.666c0 85.334 170.666 132.269 256 132.269s256-46.934 256-132.269v-42.666h-512v42.666z" />
<glyph unicode="&#xe92c;" glyph-name="account-circle-bold" d="M511.994 874.668c-235.519 0-426.666-191.147-426.666-426.668s191.147-426.666 426.666-426.666c235.52 0 426.669 191.146 426.669 426.666s-191.149 426.668-426.669 426.668zM511.994 746.668c70.829 0 128-57.173 128-127.999 0-70.829-57.171-128-128-128-70.826 0-128 57.171-128 128 0 70.826 57.174 127.999 128 127.999zM511.994 140.8c-106.666 0-200.959 54.614-255.999 137.389 1.28 84.906 170.668 131.411 255.999 131.411 84.909 0 254.72-46.506 256-131.411-55.040-82.774-149.331-137.389-256-137.389z" />
<glyph unicode="&#xe92d;" glyph-name="account-tree-bold" d="M938.662 490.666v341.334h-298.669v-128h-256v128h-298.666v-341.334h298.666v128h85.334v-426.666h170.666v-128h298.669v341.334h-298.669v-128h-85.331v341.331h85.331v-128h298.669z" />
<glyph unicode="&#xe92e;" glyph-name="add-alert-bold" d="M427.094 63.571c0-46.934 37.971-84.906 84.906-84.906s84.906 37.971 84.906 84.906h-169.811zM805.546 242.346v248.32c0 138.666-96 254.718-225.706 285.438v30.72c0 37.547-30.294 67.84-67.84 67.84s-67.84-30.293-67.84-67.84v-30.72c-129.707-30.72-225.707-146.773-225.707-285.438v-248.32l-90.453-90.454v-45.226h768v45.226l-90.454 90.454zM682.666 404.906h-128v-128h-85.331v128h-128v85.76h128v128h85.331v-128h128v-85.76z" />
<glyph unicode="&#xe92f;" glyph-name="add-task" d="M938.662 738.988l-486.829-487.253-180.906 180.906 60.16 60.16 120.746-120.746 426.669 426.667 60.16-59.733zM511.994 106.669c-188.16 0-341.332 153.171-341.332 341.331s153.172 341.335 341.332 341.335c66.989 0 129.709-19.627 182.614-53.333l61.866 61.867c-69.546 48.213-153.6 76.8-244.48 76.8-235.519 0-426.666-191.147-426.666-426.668s191.147-426.666 426.666-426.666c73.814 0 143.36 18.774 203.949 52.054l-64 64c-42.669-19.629-90.029-30.72-139.949-30.72zM810.662 320h-128v-85.331h128v-128h85.331v128h128v85.331h-128v128h-85.331v-128z" />
<glyph unicode="&#xe930;" glyph-name="analytics-bold" d="M810.666 832h-597.332c-46.933 0-85.333-38.4-85.333-85.333v-597.332c0-46.934 38.4-85.334 85.333-85.334h597.332c46.934 0 85.334 38.4 85.334 85.334v597.332c0 46.933-38.4 85.333-85.334 85.333zM384 234.666h-85.333v213.334h85.333v-213.334zM554.666 234.666h-85.331v128h85.331v-128zM554.666 448h-85.331v85.334h85.331v-85.334zM725.334 234.666h-85.334v426.668h85.334v-426.668z" />
<glyph unicode="&#xe931;" glyph-name="assessment-bold" d="M810.666 832h-597.332c-46.933 0-85.333-38.4-85.333-85.333v-597.332c0-46.934 38.4-85.334 85.333-85.334h597.332c46.934 0 85.334 38.4 85.334 85.334v597.332c0 46.933-38.4 85.333-85.334 85.333zM384 234.666h-85.333v298.669h85.333v-298.669zM554.666 234.666h-85.331v426.668h85.331v-426.668zM725.334 234.666h-85.334v170.669h85.334v-170.669z" />
<glyph unicode="&#xe932;" glyph-name="assignment-ind-bold" d="M810.666 831.999h-178.346c-17.92 49.493-64.854 85.333-120.32 85.333s-102.4-35.84-120.32-85.333h-178.347c-46.933 0-85.333-38.4-85.333-85.333v-597.334c0-46.931 38.4-85.331 85.333-85.331h597.332c46.934 0 85.334 38.4 85.334 85.331v597.334c0 46.933-38.4 85.333-85.334 85.333zM512 831.999c23.466 0 42.666-19.2 42.666-42.667s-19.2-42.667-42.666-42.667c-23.466 0-42.666 19.2-42.666 42.667s19.2 42.667 42.666 42.667zM512 661.332c70.826 0 128-57.172 128-128.001 0-70.826-57.174-128-128-128s-128 57.174-128 128c0 70.829 57.174 128.001 128 128.001zM768 149.331h-512v59.734c0 85.334 170.666 132.266 256 132.266s256-46.931 256-132.266v-59.734z" />
<glyph unicode="&#xe933;" glyph-name="assignment-bold" d="M810.666 831.999h-178.346c-17.92 49.493-64.854 85.333-120.32 85.333s-102.4-35.84-120.32-85.333h-178.347c-46.933 0-85.333-38.4-85.333-85.333v-597.334c0-46.931 38.4-85.331 85.333-85.331h597.332c46.934 0 85.334 38.4 85.334 85.331v597.334c0 46.933-38.4 85.333-85.334 85.333zM512 831.999c23.466 0 42.666-19.2 42.666-42.667s-19.2-42.667-42.666-42.667c-23.466 0-42.666 19.2-42.666 42.667s19.2 42.667 42.666 42.667zM597.334 234.666h-298.668v85.334h298.668v-85.334zM725.334 405.331h-426.668v85.334h426.668v-85.334zM725.334 576h-426.668v85.332h426.668v-85.332z" />
<glyph unicode="&#xe934;" glyph-name="clean-hands-bold" d="M724.912 746.664l26.88-58.453 58.454-26.88-58.454-26.88-26.88-58.454-26.88 58.454-58.454 26.88 58.454 26.88 26.88 58.453zM469.338 698.451v90.88h85.334c24.32 0 46.934-7.253 66.134-19.2l61.011 61.013c-35.411 26.88-78.931 43.52-127.146 43.52-63.146 0-234.666 0-234.666 0v-85.333h64v-91.307c-75.521-15.787-136.108-70.827-159.574-143.358h169.814l245.76-91.734v26.454c0 103.251-73.389 189.438-170.669 209.065zM42.672 21.331h170.667v469.334h-170.667v-469.334zM853.338 234.666h-298.666l-89.174 31.146 14.080 40.106 75.094-28.586h120.32c27.734 0 50.346 22.614 50.346 50.346 0 20.909-13.226 39.68-32.851 47.36l-309.76 115.629h-84.054v-384.854l298.666-84.48 341.334 128c-0.426 46.934-37.974 85.334-85.334 85.334zM853.338 362.666c46.934 0 85.334 38.4 85.334 85.331 0 46.934-85.334 170.669-85.334 170.669s-85.331-123.734-85.331-170.669c0-46.931 38.4-85.331 85.331-85.331z" />
<glyph unicode="&#xe935;" glyph-name="error-bold" d="M511.994 874.664c-235.519 0-426.666-191.147-426.666-426.667s191.147-426.666 426.666-426.666c235.52 0 426.669 191.146 426.669 426.666s-191.149 426.667-426.669 426.667zM554.662 234.666h-85.334v85.331h85.334v-85.331zM554.662 405.331h-85.334v256h85.334v-256z" />
<glyph unicode="&#xe936;" glyph-name="home-bold" d="M426.662 106.666v256h170.666v-256h213.334v341.334h128l-426.669 384-426.666-384h128v-341.334h213.334z" />
<glyph unicode="&#xe937;" glyph-name="hourglass-bottom-bold" d="M768 21.331l-0.426 256-170.24 170.666 170.24 171.094 0.426 255.573h-512v-255.998l170.666-170.669-170.666-170.24v-256.426h512zM341.334 639.997v149.334h341.331v-149.334l-170.666-170.666-170.666 170.666z" />
<glyph unicode="&#xe938;" glyph-name="hourglass-top-bold" d="M256 874.664l0.427-255.998 170.239-170.669-170.239-171.091-0.427-255.574h512v256l-170.666 170.666 170.666 170.24v256.427h-512zM682.666 255.997v-149.331h-341.331v149.331l170.666 170.669 170.666-170.669z" />
<glyph unicode="&#xe939;" glyph-name="insert-emoticon" d="M511.568 874.664c-235.52 0-426.24-191.147-426.24-426.667s190.72-426.666 426.24-426.666c235.946 0 427.094 191.146 427.094 426.666s-191.149 426.667-427.094 426.667zM511.994 106.666c-188.586 0-341.332 152.746-341.332 341.331 0 188.589 152.747 341.334 341.332 341.334 188.589 0 341.334-152.745 341.334-341.334 0-188.586-152.746-341.331-341.334-341.331zM661.328 490.666c35.414 0 64 28.586 64 64 0 35.411-28.586 64-64 64s-64-28.589-64-64c0-35.414 28.586-64 64-64zM362.662 490.666c35.411 0 64 28.586 64 64 0 35.411-28.589 64-64 64-35.414 0-64.001-28.589-64.001-64 0-35.414 28.587-64 64.001-64zM511.994 213.331c99.414 0 183.894 62.294 218.029 149.334h-436.054c34.134-87.040 118.614-149.334 218.026-149.334z" />
<glyph unicode="&#xe93a;" glyph-name="luggage-bold" d="M725.328 703.997h-85.334v128c0 23.467-19.2 42.667-42.666 42.667h-170.666c-23.469 0-42.669-19.2-42.669-42.667v-128h-85.332c-46.933 0-85.333-38.4-85.333-85.332v-469.334c0-46.934 38.4-85.334 85.333-85.334 0-23.466 19.2-42.666 42.667-42.666s42.666 19.2 42.666 42.666h256c0-23.466 19.2-42.666 42.669-42.666 23.466 0 42.666 19.2 42.666 42.666 46.934 0 85.334 38.4 85.334 85.334v469.334c0 46.932-38.4 85.332-85.334 85.332zM405.328 191.997h-64v384h64v-384zM543.994 191.997h-64v384h64v-384zM575.994 703.997h-128v106.667h128v-106.667zM682.662 191.997h-64v384h64v-384z" />
<glyph unicode="&#xe93b;" glyph-name="military-tech-bold" d="M725.338 514.986v359.678h-426.666v-359.678c0-14.934 7.68-29.014 20.907-36.694l178.348-107.094-42.24-99.84-145.494-12.371 110.506-95.574-33.706-142.080 125.014 75.52 125.011-75.52-33.28 142.080 110.509 95.574-145.494 12.371-42.24 99.84 178.346 107.094c12.8 7.68 20.48 21.334 20.48 36.694zM554.672 438.186l-42.666-25.6-42.669 25.6v393.812h85.334v-393.812z" />
<glyph unicode="&#xe93c;" glyph-name="outdoor-grill-bold" d="M725.328 21.331c70.826 0 128 57.174 128 128s-57.174 128-128 128c-55.466 0-102.4-35.84-120.32-85.334h-215.040l84.906 130.56c12.374-1.706 24.749-2.56 37.12-2.56 12.374 0 24.749 0.854 37.12 2.56l43.52-66.986c17.92 22.614 40.96 40.534 68.269 51.626l-25.6 39.68c103.251 46.934 175.36 150.614 175.36 271.789h-597.334c0-121.174 72.107-224.854 175.786-271.789l-168.532-259.411c-12.8-19.629-7.253-46.080 12.373-58.88s46.080-7.254 58.88 12.371l42.668 66.134h270.506c17.92-49.92 64.854-85.76 120.32-85.76zM725.328 191.997c23.466 0 42.666-19.2 42.666-42.666s-19.2-42.666-42.666-42.666c-23.466 0-42.666 19.2-42.666 42.666s19.2 42.666 42.666 42.666zM401.488 661.331h42.666c6.4 49.067 9.814 69.973-37.971 126.293-17.92 21.333-29.014 32.853-19.629 87.040h-42.24c-8.96-47.36 1.28-87.467 37.974-126.293 9.386-10.24 33.706-28.587 19.2-87.040zM507.302 661.331h42.666c6.4 49.067 9.814 69.973-37.974 126.293-17.92 21.333-29.011 33.28-19.626 87.040h-42.24c-8.96-47.36 1.28-87.467 37.974-126.293 9.811-10.24 34.131-28.587 19.2-87.040zM614.816 661.331h42.669c6.4 49.067 9.811 69.973-37.974 126.293-17.92 21.333-29.014 32.853-19.626 87.040h-42.24c-8.96-47.36 1.28-87.467 37.971-126.293 9.389-10.24 33.709-28.587 19.2-87.040z" />
<glyph unicode="&#xe93d;" glyph-name="pageview-bold" d="M490.662 576c-58.88 0-106.669-47.789-106.669-106.669s47.789-106.666 106.669-106.666c58.88 0 106.666 47.786 106.666 106.666s-47.786 106.669-106.666 106.669zM853.328 789.332h-682.667c-46.933 0-85.333-38.4-85.333-85.333v-511.999c0-46.934 38.4-85.334 85.333-85.334h682.667c46.934 0 85.334 38.4 85.334 85.334v511.999c0 46.933-38.4 85.333-85.334 85.333zM716.368 183.040l-124.16 124.16c-29.44-18.774-64.426-29.869-101.974-29.869-105.811 0-191.572 85.76-191.572 192s85.761 192.001 192.001 192.001c106.24 0 192-85.761 192-192.001 0-37.546-11.094-72.106-29.869-101.971l124.16-123.734-60.586-60.586z" />
<glyph unicode="&#xe93e;" glyph-name="people-alt-bold" d="M711.267 399.786c58.451-39.68 99.411-93.44 99.411-165.12v-128h170.669v128c0 93.014-152.32 148.054-270.080 165.12zM384.010 448c94.256 0 170.669 76.41 170.669 170.666s-76.413 170.667-170.669 170.667c-94.256 0-170.666-76.41-170.666-170.667s76.41-170.666 170.666-170.666zM640.013 448c94.294 0 170.666 76.371 170.666 170.666 0 94.293-76.371 170.667-170.666 170.667-20.054 0-38.826-4.267-56.746-10.24 35.411-43.947 56.746-99.84 56.746-160.427s-21.334-116.48-56.746-160.426c17.92-5.974 36.691-10.24 56.746-10.24zM384.006 405.331c-113.921 0-341.334-57.171-341.334-170.666v-128h682.666v128c0 113.494-227.411 170.666-341.331 170.666z" />
<glyph unicode="&#xe93f;" glyph-name="people-outline" d="M704.006 405.334c-51.2 0-130.989-14.506-192-42.666-61.014 28.586-140.8 42.666-192 42.666-92.588 0-277.334-46.080-277.334-138.666v-117.334h938.666v117.334c0 92.586-184.746 138.666-277.331 138.666zM533.338 213.334h-426.666v53.334c0 23.040 109.227 74.666 213.334 74.666s213.331-51.626 213.331-74.666v-53.334zM917.338 213.334h-320v53.334c0 19.626-8.531 36.691-22.186 52.051 37.546 12.8 83.626 22.614 128.854 22.614 104.106 0 213.331-51.626 213.331-74.666v-53.334zM320.006 448c82.346 0 149.331 66.989 149.331 149.334 0 82.347-66.986 149.333-149.331 149.333-82.348 0-149.334-66.987-149.334-149.333s66.987-149.334 149.334-149.334zM320.006 682.668c46.931 0 85.331-38.4 85.331-85.333s-38.4-85.334-85.331-85.334c-46.934 0-85.334 38.4-85.334 85.334s38.4 85.333 85.334 85.333zM704.006 448c82.346 0 149.331 66.989 149.331 149.334 0 82.347-66.986 149.333-149.331 149.333-82.349 0-149.334-66.987-149.334-149.333s66.986-149.334 149.334-149.334zM704.006 682.668c46.931 0 85.331-38.4 85.331-85.333s-38.4-85.334-85.331-85.334c-46.934 0-85.334 38.4-85.334 85.334s38.4 85.333 85.334 85.333z" />
<glyph unicode="&#xe940;" glyph-name="People-bold" d="M682.672 490.669c70.826 0 127.574 57.171 127.574 128 0 70.826-56.749 127.999-127.574 127.999s-128-57.173-128-127.999c0-70.829 57.174-128 128-128zM341.338 490.669c70.829 0 127.574 57.171 127.574 128 0 70.826-56.746 127.999-127.574 127.999-70.826 0-127.999-57.173-127.999-127.999 0-70.829 57.173-128 127.999-128zM341.338 405.334c-99.412 0-298.666-49.92-298.666-149.334v-106.666h597.334v106.666c0 99.414-199.254 149.334-298.669 149.334zM682.672 405.334c-12.374 0-26.454-0.854-41.386-2.134 49.491-35.84 84.051-84.051 84.051-147.2v-106.666h256v106.666c0 99.414-199.251 149.334-298.666 149.334z" />
<glyph unicode="&#xe941;" glyph-name="perm-identity" d="M512.006 708.265c49.491 0 89.6-40.107 89.6-89.6s-40.109-89.6-89.6-89.6c-49.494 0-89.6 40.106-89.6 89.6 0 49.493 40.106 89.6 89.6 89.6zM512.006 324.266c126.72 0 260.266-62.294 260.266-89.6v-46.934h-520.533v46.934c0 27.306 133.548 89.6 260.268 89.6zM512.006 789.332c-94.294 0-170.669-76.373-170.669-170.667s76.374-170.666 170.669-170.666c94.291 0 170.666 76.371 170.666 170.666 0 94.293-76.374 170.667-170.666 170.667zM512.006 405.331c-113.92 0-341.334-57.171-341.334-170.666v-128h682.666v128c0 113.494-227.411 170.666-341.331 170.666z" />
<glyph unicode="&#xe942;" glyph-name="person-add-alt" d="M554.672 618.666c0 94.293-76.374 170.667-170.666 170.667-94.294 0-170.668-76.373-170.668-170.667s76.373-170.666 170.668-170.666c94.291 0 170.666 76.371 170.666 170.666zM469.338 618.666c0-46.934-38.4-85.334-85.331-85.334-46.934 0-85.334 38.4-85.334 85.334s38.4 85.333 85.334 85.333c46.931 0 85.331-38.4 85.331-85.333zM42.672 192v-85.334h682.666v85.334c0 113.491-227.411 170.666-341.331 170.666s-341.334-57.174-341.334-170.666zM128.005 192c8.533 30.291 140.8 85.331 256.001 85.331 114.771 0 246.611-54.611 256-85.331h-512.001zM853.338 320v128h128v85.331h-128v128.001h-85.331v-128.001h-128v-85.331h128v-128h85.331z" />
<glyph unicode="&#xe943;" glyph-name="person-outline" d="M512.006 708.265c49.491 0 89.6-40.107 89.6-89.6s-40.109-89.6-89.6-89.6c-49.494 0-89.6 40.106-89.6 89.6 0 49.493 40.106 89.6 89.6 89.6zM512.006 324.266c126.72 0 260.266-62.294 260.266-89.6v-46.934h-520.533v46.934c0 27.306 133.548 89.6 260.268 89.6zM512.006 789.332c-94.294 0-170.669-76.373-170.669-170.667s76.374-170.666 170.669-170.666c94.291 0 170.666 76.371 170.666 170.666 0 94.293-76.374 170.667-170.666 170.667zM512.006 405.331c-113.92 0-341.334-57.171-341.334-170.666v-128h682.666v128c0 113.494-227.411 170.666-341.331 170.666z" />
<glyph unicode="&#xe944;" glyph-name="person-bold" d="M512.006 448c94.291 0 170.666 76.371 170.666 170.666 0 94.293-76.374 170.667-170.666 170.667-94.294 0-170.669-76.373-170.669-170.667s76.374-170.666 170.669-170.666zM512.006 362.666c-113.92 0-341.334-57.174-341.334-170.666v-85.334h682.666v85.334c0 113.491-227.411 170.666-341.331 170.666z" />
<glyph unicode="&#xe945;" glyph-name="plus-one" d="M426.672 618.666h-85.334v-170.669h-170.666v-85.331h170.666v-170.669h85.334v170.669h170.666v85.331h-170.666v170.669zM618.672 700.584v-77.653l106.666 21.333v-452.267h85.334v554.667l-192-46.080z" />
<glyph unicode="&#xe946;" glyph-name="psychology-bold" d="M554.669 594.342c-33.706 0-61.011-27.306-61.011-61.011 0-33.709 27.306-61.014 61.011-61.014 33.709 0 61.014 27.306 61.014 61.014 0 33.706-27.306 61.011-61.014 61.011zM554.669 832c-160 0-290.132-125.44-297.812-283.306l-81.92-109.229c-10.667-14.080-0.427-34.131 17.067-34.131h64v-128c0-46.934 38.4-85.334 85.335-85.334h42.666v-128h298.666v199.68c100.694 47.786 170.669 150.614 170.669 269.654 0 165.119-133.549 298.666-298.669 298.666zM682.669 533.334c0-5.549-0.426-11.094-0.851-16.64l35.411-28.16c3.414-2.56 4.269-6.829 2.134-10.669l-34.134-59.306c-2.131-3.84-6.826-5.12-10.24-3.84l-42.24 17.066c-8.96-6.826-18.346-12.371-28.586-16.64l-6.826-45.226c-0.429-4.266-4.269-7.254-8.534-7.254h-68.266c-4.269 0-7.68 2.989-8.534 7.254l-6.4 45.226c-10.666 4.269-20.054 9.814-29.014 16.64l-42.24-17.066c-3.84-1.28-8.531 0-10.666 3.84l-34.134 59.306c-2.131 3.414-1.28 8.109 2.134 10.669l35.84 28.16c-0.426 5.546-0.854 11.091-0.854 16.64 0 5.546 0.854 11.52 1.709 16.64l-36.269 28.16c-3.411 2.56-4.266 6.826-2.131 11.091l34.131 58.881c2.134 3.84 6.4 5.12 10.24 3.84l42.669-17.067c8.531 6.4 18.346 12.373 28.586 16.64l6.4 45.227c0.854 4.267 4.266 7.253 8.534 7.253h68.266c4.266 0 7.68-2.987 8.534-7.253l6.4-45.227c10.24-4.267 19.626-9.813 28.586-16.64l42.666 17.067c3.84 1.28 8.534 0 10.24-3.84l34.134-58.881c2.134-3.84 1.28-8.531-2.134-11.091l-36.266-28.16c1.28-5.12 1.706-10.669 1.706-16.64z" />
<glyph unicode="&#xe947;" glyph-name="public-bold" d="M511.994 874.664c-235.519 0-426.666-191.147-426.666-426.667s191.147-426.666 426.666-426.666c235.52 0 426.669 191.146 426.669 426.666s-191.149 426.667-426.669 426.667zM469.328 109.651c-168.533 20.906-298.667 164.266-298.667 338.346 0 26.454 3.413 51.629 8.96 76.374l204.372-204.374v-42.666c0-46.934 38.4-85.334 85.334-85.334v-82.346zM763.728 218.026c-11.094 34.56-42.666 59.306-81.066 59.306h-42.669v128c0 23.466-19.2 42.666-42.666 42.666h-256v85.334h85.334c23.466 0 42.666 19.2 42.666 42.666v85.334h85.334c46.931 0 85.331 38.4 85.331 85.333v17.493c125.014-50.773 213.334-173.226 213.334-316.161 0-88.746-34.134-169.386-89.6-229.971z" />
<glyph unicode="&#xe948;" glyph-name="recommend-bold" d="M511.994 874.664c-84.384 0-166.877-25.023-237.042-71.906s-124.852-113.519-157.145-191.481c-32.293-77.965-40.743-163.754-24.28-246.518s57.099-158.79 116.769-218.461c59.67-59.67 135.694-100.304 218.459-116.768 82.768-16.464 168.554-8.013 246.518 24.278 77.962 32.294 144.598 86.982 191.482 157.146 46.883 70.166 71.907 152.656 71.907 237.043 0 56.032-11.037 111.514-32.48 163.28-21.44 51.764-52.87 98.8-92.49 138.42s-86.653 71.048-138.419 92.49c-51.766 21.442-107.248 32.478-163.28 32.478zM767.994 456.531c0.666-7.373-0.816-14.784-4.266-21.334l-89.6-209.066c-4.672-10.659-12.486-19.638-22.397-25.738-9.914-6.099-21.45-9.027-33.069-8.397h-234.669c-22.63 0-44.336 8.992-60.339 24.995s-24.993 37.706-24.993 60.339v213.334c-0.426 7.923 0.88 15.846 3.827 23.213 2.948 7.37 7.465 14.006 13.239 19.453l196.265 213.333 29.44-29.44c7.754-8.071 12.304-18.687 12.8-29.867v-8.533l-24.746-145.493h195.84c11.315 0 22.17-4.496 30.17-12.496 8.003-8.003 12.496-18.854 12.496-30.17v-34.134z" />
<glyph unicode="&#xe949;" glyph-name="reduce-capacity-bold" d="M682.662 789.331c0 46.933 38.4 85.333 85.331 85.333 46.934 0 85.334-38.4 85.334-85.333s-38.4-85.333-85.334-85.333c-46.931 0-85.331 38.4-85.331 85.333zM886.608 636.586c-36.266 15.785-76.374 24.745-118.614 24.745-28.586 0-55.891-4.267-81.92-11.947 24.749-23.467 39.254-56.318 39.254-91.733v-24.32h213.334v24.32c0 34.56-20.48 65.28-52.054 78.934zM255.995 703.997c46.933 0 85.333 38.4 85.333 85.333s-38.4 85.333-85.333 85.333c-46.933 0-85.333-38.4-85.333-85.333s38.4-85.333 85.333-85.333zM337.914 649.384c-26.026 7.68-53.332 11.947-81.919 11.947-42.24 0-82.347-8.96-118.613-24.745-31.573-13.654-52.053-44.374-52.053-78.934v-24.32h213.333v24.32c0 35.414 14.507 68.266 39.252 91.733zM426.662 789.331c0 46.933 38.4 85.333 85.331 85.333 46.934 0 85.334-38.4 85.334-85.333s-38.4-85.333-85.334-85.333c-46.931 0-85.331 38.4-85.331 85.333zM682.662 533.331h-341.334v24.32c0 34.56 20.48 65.28 52.054 78.934 36.266 15.785 76.371 24.745 118.611 24.745s82.349-8.96 118.614-24.745c31.574-13.654 52.054-44.374 52.054-78.934v-24.32zM639.994 277.331c0 46.934 38.4 85.334 85.334 85.334s85.334-38.4 85.334-85.334c0-46.934-38.4-85.334-85.334-85.334s-85.334 38.4-85.334 85.334zM895.994 21.331h-341.331v24.32c0 34.56 20.48 65.28 52.051 78.934 36.269 15.786 76.374 24.746 118.614 24.746s82.346-8.96 118.614-24.746c31.571-13.654 52.051-44.374 52.051-78.934v-24.32zM213.328 277.331c0 46.934 38.4 85.334 85.333 85.334s85.332-38.4 85.332-85.334-38.4-85.334-85.332-85.334c-46.933 0-85.333 38.4-85.333 85.334zM469.328 21.331h-341.333v24.32c0 34.56 20.48 65.28 52.053 78.934 36.267 15.786 76.373 24.746 118.613 24.746s82.347-8.96 118.612-24.746c31.574-13.654 52.054-44.374 52.054-78.934v-24.32zM543.994 405.331v85.334h-64v-85.334h-96l128-128 128 128h-96z" />
<glyph unicode="&#xe94a;" glyph-name="school-bold" d="M213.339 397.654v-170.669l298.668-162.986 298.666 162.986v170.669l-298.666-162.989-298.668 162.989zM512.006 832l-469.334-256 469.334-256 384 209.494v-294.829h85.331v341.334l-469.331 256z" />
<glyph unicode="&#xe94b;" glyph-name="sentiment-dissatisfied" d="M661.328 490.666c35.347 0 64 28.653 64 64 0 35.344-28.653 64-64 64s-64-28.656-64-64c0-35.347 28.653-64 64-64zM362.672 490.666c35.347 0 64 28.653 64 64 0 35.344-28.653 64-64 64s-64-28.656-64-64c0-35.347 28.653-64 64-64zM511.568 874.664c-235.52 0-426.24-191.147-426.24-426.667s190.72-426.666 426.24-426.666c235.946 0 427.094 191.146 427.094 426.666s-191.149 426.667-427.094 426.667zM511.994 106.666c-188.586 0-341.332 152.746-341.332 341.331 0 188.589 152.747 341.334 341.332 341.334 188.589 0 341.334-152.745 341.334-341.334 0-188.586-152.746-341.331-341.334-341.331zM511.994 255.997c31.149 0 59.309-8.106 84.054-22.611 5.12 5.971 36.694 41.811 43.094 48.64-36.269 23.891-79.789 37.971-127.149 37.971s-90.88-14.080-127.571-37.546c41.386-46.506 0.426-0.854 43.091-48.64 25.174 14.080 53.334 22.186 84.48 22.186z" />
<glyph unicode="&#xe94c;" glyph-name="sentiment-neutral" d="M384 298.666h256v-42.669h-256v42.669zM661.328 490.666c35.347 0 64 28.653 64 64 0 35.344-28.653 64-64 64s-64-28.656-64-64c0-35.347 28.653-64 64-64zM362.672 490.666c35.347 0 64 28.653 64 64 0 35.344-28.653 64-64 64s-64-28.656-64-64c0-35.347 28.653-64 64-64zM511.568 874.664c-235.52 0-426.24-191.147-426.24-426.667s190.72-426.666 426.24-426.666c235.946 0 427.094 191.146 427.094 426.666s-191.149 426.667-427.094 426.667zM511.994 106.666c-188.586 0-341.332 152.746-341.332 341.331 0 188.589 152.747 341.334 341.332 341.334 188.589 0 341.334-152.745 341.334-341.334 0-188.586-152.746-341.331-341.334-341.331z" />
<glyph unicode="&#xe94d;" glyph-name="sentiment-satisfied" d="M661.328 490.666c35.347 0 64 28.653 64 64 0 35.344-28.653 64-64 64s-64-28.656-64-64c0-35.347 28.653-64 64-64zM362.672 490.666c35.347 0 64 28.653 64 64 0 35.344-28.653 64-64 64s-64-28.656-64-64c0-35.347 28.653-64 64-64zM511.568 874.664c-235.52 0-426.24-191.147-426.24-426.667s190.72-426.666 426.24-426.666c235.946 0 427.094 191.146 427.094 426.666s-191.149 426.667-427.094 426.667zM511.994 106.666c-188.586 0-341.332 152.746-341.332 341.331 0 188.589 152.747 341.334 341.332 341.334 188.589 0 341.334-152.745 341.334-341.334 0-188.586-152.746-341.331-341.334-341.331zM511.994 277.331c-31.146 0-58.88 7.68-83.626 22.186-5.12-5.971-36.694-41.811-43.094-49.066 36.694-23.466 79.789-37.12 126.72-37.12 47.36 0 90.454 14.080 127.149 37.546-41.389 46.509-0.429 0.854-43.094 49.069-25.174-14.934-52.906-22.614-84.054-22.614z" />
<glyph unicode="&#xe94e;" glyph-name="sentiment-very-dissatisfied" d="M661.328 490.666c35.347 0 64 28.653 64 64 0 35.344-28.653 64-64 64s-64-28.656-64-64c0-35.347 28.653-64 64-64zM362.672 490.666c35.347 0 64 28.653 64 64 0 35.344-28.653 64-64 64s-64-28.656-64-64c0-35.347 28.653-64 64-64zM511.568 874.664c-235.52 0-426.24-191.147-426.24-426.667s190.72-426.666 426.24-426.666c235.946 0 427.094 191.146 427.094 426.666s-191.149 426.667-427.094 426.667zM511.994 106.666c-188.586 0-341.332 152.746-341.332 341.331 0 188.589 152.747 341.334 341.332 341.334 188.589 0 341.334-152.745 341.334-341.334 0-188.586-152.746-341.331-341.334-341.331zM511.994 362.666c-99.411 0-184.32-61.869-218.452-149.334h71.252c29.44 50.774 84.054 85.334 147.2 85.334 63.149 0 117.334-34.56 147.2-85.334h71.254c-34.134 87.466-119.040 149.334-218.454 149.334z" />
<glyph unicode="&#xe94f;" glyph-name="sentiment-very-satisfied" d="M661.328 490.666c35.347 0 64 28.653 64 64 0 35.344-28.653 64-64 64s-64-28.656-64-64c0-35.347 28.653-64 64-64zM362.672 490.666c35.347 0 64 28.653 64 64 0 35.344-28.653 64-64 64s-64-28.656-64-64c0-35.347 28.653-64 64-64zM511.568 874.664c-235.52 0-426.24-191.147-426.24-426.667s190.72-426.666 426.24-426.666c235.946 0 427.094 191.146 427.094 426.666s-191.149 426.667-427.094 426.667zM511.994 106.666c-188.586 0-341.332 152.746-341.332 341.331 0 188.589 152.747 341.334 341.332 341.334 188.589 0 341.334-152.745 341.334-341.334 0-188.586-152.746-341.331-341.334-341.331zM298.661 362.666c33.281-99.84 116.052-170.669 213.332-170.669s180.054 70.829 213.334 170.669h-426.667z" />
<glyph unicode="&#xe950;" glyph-name="star-border" d="M938.662 565.757l-306.774 26.454-119.894 282.453-119.891-282.878-306.774-26.029 232.96-201.811-69.973-299.949 263.679 159.149 263.68-159.149-69.546 299.949 232.534 201.811zM511.994 302.931l-160.426-96.854 42.666 182.614-141.652 122.88 186.881 16.214 72.531 171.945 72.96-172.374 186.88-16.211-141.651-122.88 42.666-182.614-160.854 97.28z" />
<glyph unicode="&#xe951;" glyph-name="star-half-bold" d="M938.662 565.757l-306.774 26.454-119.894 282.453-119.891-282.878-306.774-26.029 232.96-201.811-69.973-299.949 263.679 159.149 263.68-159.149-69.546 299.949 232.534 201.811zM511.994 302.931v396.8l72.96-172.374 186.88-16.211-141.651-122.88 42.666-182.614-160.854 97.28z" />
<glyph unicode="&#xe952;" glyph-name="star-outline" d="M938.662 565.757l-306.774 26.454-119.894 282.453-119.891-282.878-306.774-26.029 232.96-201.811-69.973-299.949 263.679 159.149 263.68-159.149-69.546 299.949 232.534 201.811zM511.994 302.931l-160.426-96.854 42.666 182.614-141.652 122.88 186.881 16.214 72.531 171.945 72.96-172.374 186.88-16.211-141.651-122.88 42.666-182.614-160.854 97.28z" />
<glyph unicode="&#xe953;" glyph-name="star1-bold-bold" d="M511.994 223.146l263.68-159.149-69.971 299.949 232.96 201.811-306.774 26.029-119.894 282.878-119.891-282.878-306.774-26.029 232.96-201.811-69.973-299.949 263.679 159.149z" />
<glyph unicode="&#xe954;" glyph-name="stream-bold" d="M853.334 362.669c47.126 0 85.331 38.205 85.331 85.334 0 47.126-38.205 85.331-85.331 85.331-47.13 0-85.334-38.205-85.334-85.331 0-47.13 38.205-85.334 85.334-85.334zM170.661 362.669c47.128 0 85.333 38.205 85.333 85.334 0 47.126-38.205 85.331-85.333 85.331s-85.333-38.205-85.333-85.331c0-47.13 38.205-85.334 85.333-85.334zM512.006 21.334c47.126 0 85.331 38.205 85.331 85.331 0 47.13-38.205 85.334-85.331 85.334-47.13 0-85.334-38.205-85.334-85.334 0-47.126 38.205-85.331 85.334-85.331zM428.8 593.494l-171.52 172.373h-0.427l-13.227 13.653-60.587-60.16 171.52-172.801 0.426 0.429 13.229-13.654 60.586 60.16zM594.902 592.342l187.946 187.392 60.246-60.373-187.949-187.435-60.243 60.416zM427.094 304.64l-60.589 60.16-171.946-171.091-13.653-14.080 60.16-60.16 171.948 171.52 14.080 13.651zM843.094 179.2l-170.24 171.094-15.36 14.934-60.16-60.16 185.171-186.029 60.589 60.16zM512.006 703.997c47.126 0 85.331 38.205 85.331 85.333s-38.205 85.333-85.331 85.333c-47.13 0-85.334-38.205-85.334-85.333s38.205-85.333 85.334-85.333z" />
<glyph unicode="&#xe955;" glyph-name="thumb-down-alt-bold" d="M938.662 789.336h-85.334c-23.466 0-42.666-19.2-42.666-42.667v-384c0-23.466 19.2-42.666 42.666-42.666h85.334v469.333zM92.581 485.549c-4.693-10.666-7.253-22.186-7.253-34.134v-46.080c0-46.931 38.4-85.331 85.333-85.331h234.667l-39.254-198.4c-2.131-9.389-0.851-19.629 3.414-28.16 9.814-19.2 22.186-36.694 37.546-52.054l19.629-20.054 273.491 273.494c16.214 16.214 25.174 37.974 25.174 60.586v334.082c0 55.040-44.8 99.84-99.84 99.84h-345.6c-30.293 0-58.027-15.787-73.387-41.387l-113.92-262.4z" />
<glyph unicode="&#xe956;" glyph-name="thumb-up-bold" d="M42.672 64.003h170.667v512h-170.667v-512zM981.338 533.334c0 46.934-38.4 85.334-85.331 85.334h-269.229l40.534 194.987 1.28 13.653c0 17.493-7.254 33.707-18.774 45.227l-45.226 44.8-280.746-281.173c-15.788-15.36-25.174-36.694-25.174-60.16v-426.669c0-46.931 38.4-85.331 85.334-85.331h384c35.411 0 65.706 21.331 78.506 52.051l128.854 300.8c3.84 9.814 5.971 20.054 5.971 31.149v85.331z" />
<glyph unicode="&#xe957;" glyph-name="warning-bold" d="M42.672 63.997h938.666l-469.331 810.667-469.334-810.667zM554.672 191.997h-85.334v85.334h85.334v-85.334zM554.672 362.666h-85.334v170.666h85.334v-170.666z" />
<glyph unicode="&#xe958;" glyph-name="whatshot-bold" d="M576.006 931.414c0 0 31.571-113.067 31.571-204.8 0-87.894-57.6-159.145-145.491-159.145-88.32 0-154.881 71.251-154.881 159.145l1.28 15.36c-86.187-102.4-137.813-235.094-137.813-379.305 0-188.589 152.746-341.334 341.334-341.334 188.586 0 341.331 152.746 341.331 341.334 0 229.971-110.506 435.199-277.331 568.745zM499.632 149.334c-75.946 0-137.386 59.734-137.386 133.974 0 69.12 44.8 117.76 119.891 133.12 75.52 15.36 153.6 51.626 197.12 110.080 16.64-55.040 25.174-113.069 25.174-172.374 0-113.066-91.734-204.8-204.8-204.8z" />
<glyph unicode="&#xe959;" glyph-name="work-off-bold" d="M981.334 32.426l-842.668 842.668-53.76-53.76 115.2-115.2h-27.307c-47.36 0-84.907-37.973-84.907-85.334l-0.427-469.334c0-47.36 37.973-85.331 85.333-85.331h667.306l87.469-87.469 53.76 53.76zM938.666 620.8c2.134 47.36-35.84 85.334-83.2 83.2h-170.666v87.467c0 47.36-37.974 85.333-85.334 83.2h-170.666c-47.36 2.133-85.334-35.84-85.334-83.2v-13.653l595.2-597.334v440.32zM599.466 704h-172.8v87.467h172.8v-87.467z" />
<glyph unicode="&#xe95a;" glyph-name="work-bold" d="M853.328 703.997h-170.666v85.333c0 47.36-37.974 85.333-85.334 85.333h-170.666c-47.36 0-85.334-37.973-85.334-85.333v-85.333h-170.667c-47.36 0-84.907-37.973-84.907-85.332l-0.427-469.334c0-47.36 37.973-85.334 85.333-85.334h682.667c47.36 0 85.334 37.974 85.334 85.334v469.334c0 47.358-37.974 85.332-85.334 85.332zM597.328 703.997h-170.666v85.333h170.666v-85.333z" />
<glyph unicode="&#xe95b;" glyph-name="workspaces-filled" d="M255.995 405.334c-93.867 0-170.667-76.8-170.667-170.669 0-93.866 76.8-170.666 170.667-170.666s170.668 76.8 170.668 170.666c0 93.869-76.8 170.669-170.668 170.669zM511.994 832c-93.866 0-170.666-76.8-170.666-170.667s76.8-170.668 170.666-170.668c93.869 0 170.669 76.8 170.669 170.668s-76.8 170.667-170.669 170.667zM767.994 405.334c-93.866 0-170.666-76.8-170.666-170.669 0-93.866 76.8-170.666 170.666-170.666 93.869 0 170.669 76.8 170.669 170.666 0 93.869-76.8 170.669-170.669 170.669z" />
<glyph unicode="&#xe95c;" glyph-name="money-2" d="M263.68 841.088c-3.744-0.384-15.776-2.176-26.72-4.032-47.040-7.936-85.472-26.528-116.672-56.48-31.040-29.824-50.592-66.944-60.544-115.008-4.16-20.16-7.392-60.992-6.56-83.104 0.768-21.184 4.064-29.12 14.336-34.528 6.304-3.296 9.568-3.52 51.104-3.52 47.392 0 67.52 1.856 93.952 8.544 30.24 7.648 51.968 19.392 70.848 38.272 32.384 32.352 45.056 72.928 47.168 150.752l0.992 37.12h360.8l0.992-37.984c1.824-68.832 12.864-109.6 37.888-139.936 30.656-37.184 74.848-54.016 149.728-57.12l25.248-1.024v-190.272l-21.76-1.088c-64.192-3.168-95.2-11.072-126.368-32.256-33.44-22.752-52.032-56.384-60.992-110.368-1.504-9.12-3.136-32.768-3.712-54.176l-1.024-37.984h-360.8l-0.992 37.12c-1.024 38.24-3.808 61.952-9.824 83.872-9.92 36.288-28.16 63.328-54.88 81.536-31.168 21.152-62.208 29.088-126.272 32.256l-21.632 1.088-0.544 42.080c-0.48 38.432-0.832 42.56-3.936 47.84-6.336 10.752-11.2 12.992-28.16 12.992-16.992 0-21.856-2.24-28.16-12.992-3.264-5.472-3.456-9.376-3.968-76.608-0.768-97.568 1.92-127.232 15.008-167.136 21.792-66.528 72.288-114.368 141.568-134.112 37.728-10.752 21.952-10.208 302.208-10.208 236.992 0 256.288 0.192 271.36 3.008 53.888 10.048 90.624 28.192 122.976 60.768 38.496 38.688 57.568 84.512 62.976 151.2 2.368 29.184 2.368 327.616 0 356.8-5.472 67.552-26.272 116.416-65.536 154.112-32.064 30.784-65.664 46.88-120.416 57.76-13.184 2.624-37.408 2.912-263.68 3.168-137.056 0.16-252.256 0-256-0.352zM264.48 709.216c-4.352-43.328-16.736-70.112-38.208-82.688-18.624-10.912-53.888-18.112-88.896-18.112h-20.064l1.184 14.080c2.72 32.32 11.36 62.4 24.384 84.928 13.056 22.496 41.088 46.080 66.88 56.256 13.005 4.957 28.3 8.996 44.126 11.422l11.49 1.442 0.544-23.904c0.288-13.152-0.352-32.672-1.44-43.424zM777.376 773.824c17.632-2.976 39.584-10.56 54.816-18.944 16.608-9.12 39.744-31.552 48.928-47.456 13.056-22.624 21.664-52.64 24.384-84.928l1.184-14.080h-20.064c-35.072 0-70.272 7.2-88.992 18.144-27.552 16.16-39.872 54.496-39.872 124.064 0 26.272 0 26.304 3.84 25.76 2.112-0.32 9.216-1.44 15.776-2.56zM495.392 606.688c-47.136-5.056-90.304-30.912-115.904-69.408-18.656-28-26.816-55.2-26.816-89.28 0-32.416 7.296-58.336 23.968-85.088 27.744-44.48 78.848-73.632 130.24-74.272 13.344-0.192 17.408 0.416 22.944 3.296 9.376 4.96 13.76 13.888 13.696 28.064-0.096 22.304-8.224 29.6-35.904 32.192-29.024 2.752-48.192 11.68-65.536 30.496-17.536 19.040-25.6 39.648-25.6 65.312 0 27.104 8.736 48.032 28.096 67.424 19.392 19.36 40.32 28.096 67.424 28.096s48.032-8.736 67.424-28.096c18.816-18.816 25.664-34.272 28.192-63.616 2.304-26.752 10.176-35.36 32.384-35.36 14.176 0 23.136 4.384 28.064 13.728 7.264 13.92 3.008 51.328-9.184 80.768-26.080 62.912-94.784 103.136-163.488 95.744zM166.88 285.792c32.256-3.424 55.872-11.808 70.4-24.896 3.904-3.552 9.568-11.776 13.472-19.52 10.976-21.952 15.456-49.728 15.488-95.968v-26.944l-6.4 1.088c-31.392 5.408-53.664 12.608-71.552 23.104-5.472 3.2-16.96 12.8-25.568 21.344-13.664 13.568-16.704 17.728-24.32 33.312-11.52 23.616-20.608 61.248-20.64 85.568v4.704h16.288c8.96 0 23.744-0.8 32.832-1.792zM906.24 282.88c0-10.144-3.968-36.192-7.744-51.136-7.648-30.176-21.504-54.208-42.24-73.12-23.072-21.056-47.296-31.36-92.096-39.072l-6.4-1.088v26.592c0 59.456 8.992 96.512 27.84 114.816 18.304 17.76 52.064 26.912 101.44 27.488l19.2 0.224v-4.704z" />
<glyph unicode="&#xe95d;" glyph-name="money-3" d="M263.68 841.088c-3.744-0.384-15.776-2.176-26.72-4.032-47.040-7.936-85.472-26.528-116.672-56.48-40.448-38.816-60.896-88.192-65.92-159.072-2.144-30.656-1.152-38.144 6.304-47.008 5.696-6.784 13.952-9.248 28.16-8.448 13.152 0.736 19.008 3.936 24.512 13.312 2.592 4.416 3.552 10.816 4.64 30.88 3.136 57.344 16.288 93.056 44.992 122.080 27.808 28.096 61.216 41.184 114.944 45.056 30.784 2.24 437.376 2.24 468.16 0 53.6-3.872 86.144-16.512 114.080-44.352 21.536-21.472 33.088-43.712 41.216-79.488 3.84-16.896 3.84-17.44 4.448-194.432 0.448-125.12 0.032-182.496-1.312-194.464-2.656-23.136-8.672-45.792-16.704-62.976-23.040-49.152-64.704-75.2-132.672-82.976-20.16-2.304-463.2-2.368-485.056-0.064-32.416 3.424-60.96 11.808-81.792 24.032-13.344 7.808-37.472 32.224-45.408 45.92-8.838 15.54-15.802 33.554-19.931 52.624l-0.229 1.264c-3.52 15.872-3.808 22.624-4.8 105.696-0.96 84.672-1.184 89.024-4.416 94.528-6.336 10.752-11.2 12.992-28.16 12.992-16.992 0-21.856-2.24-28.16-12.992-3.264-5.472-3.456-9.376-3.968-76.608-0.768-97.568 1.92-127.232 15.008-167.136 21.792-66.528 72.288-114.368 141.568-134.112 37.728-10.752 21.952-10.208 302.208-10.208 236.992 0 256.288 0.192 271.36 3.008 53.888 10.048 90.624 28.192 122.976 60.768 38.496 38.688 57.568 84.512 62.976 151.2 2.368 29.184 2.368 327.616 0 356.8-5.472 67.552-26.272 116.416-65.536 154.112-32.064 30.784-65.664 46.88-120.416 57.76-13.184 2.624-37.408 2.912-263.68 3.168-137.056 0.16-252.256 0-256-0.352zM674.112 692.256c-15.808-3.232-22.88-12.8-22.976-30.912-0.064-14.176 4.32-23.136 13.728-28.064 6.496-3.392 9.248-3.52 81.792-3.52 72.576 0 75.328 0.128 81.824 3.52 9.408 4.928 13.76 13.888 13.696 28.064-0.064 14.304-3.776 22.048-13.216 27.456l-7.2 4.096-70.816 0.288c-38.976 0.16-73.536-0.256-76.832-0.928zM495.392 606.688c-47.136-5.056-90.304-30.912-115.904-69.408-18.656-28-26.816-55.2-26.816-89.28 0-32.416 7.296-58.336 23.968-85.088 27.744-44.48 78.848-73.632 130.24-74.272 13.344-0.192 17.408 0.416 22.944 3.296 9.376 4.96 13.76 13.888 13.696 28.064-0.096 22.304-8.224 29.6-35.904 32.192-29.024 2.752-48.192 11.68-65.536 30.496-17.536 19.040-25.6 39.648-25.6 65.312 0 27.104 8.736 48.032 28.096 67.424 19.392 19.36 40.32 28.096 67.424 28.096s48.032-8.736 67.424-28.096c18.816-18.816 25.664-34.272 28.192-63.616 2.304-26.752 10.176-35.36 32.384-35.36 14.176 0 23.136 4.384 28.064 13.728 7.264 13.92 3.008 51.328-9.184 80.768-26.080 62.912-94.784 103.136-163.488 95.744zM204.768 265.568c-15.776-3.232-22.88-12.768-22.944-30.912-0.064-14.176 4.288-23.104 13.696-28.032 6.496-3.424 9.248-3.52 81.824-3.52 72.544 0 75.296 0.096 81.792 3.52 9.408 4.928 13.792 13.856 13.728 28.032-0.064 14.304-3.808 22.048-13.248 27.456l-7.2 4.128-70.816 0.288c-38.944 0.16-73.536-0.288-76.832-0.96z" />
<glyph unicode="&#xe95e;" glyph-name="money-4" d="M263.68 841.088c-3.744-0.384-15.776-2.176-26.72-4.032-47.040-7.936-85.472-26.528-116.672-56.48-40.448-38.816-60.896-88.192-65.92-159.072-2.144-30.656-1.152-38.144 6.304-47.008 5.696-6.784 13.952-9.248 28.16-8.448 13.152 0.736 19.008 3.936 24.512 13.312 2.592 4.416 3.552 10.816 4.64 30.88 3.136 57.344 16.288 93.056 44.992 122.080 27.808 28.096 61.216 41.184 114.944 45.056 30.784 2.24 437.376 2.24 468.16 0 53.6-3.872 86.144-16.512 114.080-44.352 21.536-21.472 33.088-43.712 41.216-79.488 3.84-16.896 3.84-17.44 4.448-194.432 0.448-125.12 0.032-182.496-1.312-194.464-2.656-23.136-8.672-45.792-16.704-62.976-23.040-49.152-64.704-75.2-132.672-82.976-20.16-2.304-463.2-2.368-485.056-0.064-32.416 3.424-60.96 11.808-81.792 24.032-13.344 7.808-37.472 32.224-45.408 45.92-8.838 15.54-15.802 33.554-19.931 52.624l-0.229 1.264c-3.52 15.872-3.808 22.624-4.8 105.696-0.96 84.672-1.184 89.024-4.416 94.528-6.336 10.752-11.2 12.992-28.16 12.992-16.992 0-21.856-2.24-28.16-12.992-3.264-5.472-3.456-9.376-3.968-76.608-0.768-97.568 1.92-127.232 15.008-167.136 21.792-66.528 72.288-114.368 141.568-134.112 37.728-10.752 21.952-10.208 302.208-10.208 236.992 0 256.288 0.192 271.36 3.008 53.888 10.048 90.624 28.192 122.976 60.768 38.496 38.688 57.568 84.512 62.976 151.2 2.368 29.184 2.368 327.616 0 356.8-5.472 67.552-26.272 116.416-65.536 154.112-32.064 30.784-65.664 46.88-120.416 57.76-13.184 2.624-37.408 2.912-263.68 3.168-137.056 0.16-252.256 0-256-0.352zM281.632 734.592c-17.44-2.144-27.744-5.376-45.504-14.272-35.232-17.696-60.64-48.832-71.712-88-2.72-9.664-3.136-17.76-3.136-62.592 0-49.696 0.128-51.68 3.584-56.32 6.272-8.416 13.824-11.648 27.136-11.648s20.864 3.232 27.136 11.648c3.36 4.512 3.648 7.584 4.64 52.032 1.12 49.216 1.504 51.84 9.76 68.064 4.32 8.48 16.256 20.896 25.856 26.976 14.976 9.44 17.92 9.92 68.288 10.976 42.848 0.896 47.424 1.28 52.736 4.384 10.72 6.336 12.96 11.2 12.96 28.16s-2.24 21.824-12.96 28.16c-5.312 3.136-9.152 3.424-45.92 3.68-22.048 0.16-45.824-0.416-52.864-1.248zM651.424 734.88c-15.488-3.232-22.080-13.44-21.312-32.896 0.576-14.72 3.424-20.224 13.472-26.144 5.312-3.104 9.888-3.488 52.736-4.384 50.368-1.056 53.312-1.536 68.288-10.976 9.6-6.080 21.536-18.496 25.856-26.976 8.256-16.224 8.64-18.848 9.76-68.064 0.992-44.448 1.28-47.52 4.64-52.032 6.272-8.416 13.824-11.648 27.136-11.648s20.864 3.232 27.136 11.648c3.456 4.64 3.584 6.624 3.584 56.32 0 44.832-0.416 52.928-3.136 62.592-7.776 27.456-24.608 53.92-45.12 70.944-13.856 11.52-41.344 25.376-57.632 29.056-13.344 3.008-93.92 4.992-105.408 2.56zM495.392 606.688c-16.515-1.454-31.726-5.54-45.72-11.846l0.888 0.358c-38.016-15.84-70.144-47.392-85.504-83.904-7.983-18.653-12.624-40.359-12.624-63.149 0-22.877 4.677-44.662 13.127-64.451l-0.407 1.072c24-56.416 81.472-95.392 141.728-96.128 13.344-0.192 17.408 0.416 22.944 3.296 9.376 4.96 13.76 13.888 13.696 28.064-0.096 22.304-8.224 29.6-35.904 32.192-29.024 2.752-48.192 11.68-65.536 30.496-17.536 19.040-25.6 39.648-25.6 65.312 0 27.104 8.736 48.032 28.096 67.424 19.392 19.36 40.32 28.096 67.424 28.096s48.032-8.736 67.424-28.096c18.816-18.816 25.664-34.272 28.192-63.616 2.304-26.752 10.176-35.36 32.384-35.36 14.176 0 23.136 4.384 28.064 13.728 7.296 13.952 2.848 52.704-9.344 81.344-26.72 62.848-94.848 102.528-163.328 95.168zM182.080 393.504c-8.217-1.527-14.981-6.701-18.651-13.742l-0.069-0.146c-2.784-5.344-3.008-10.368-2.432-56.192 0.736-55.488 1.312-59.264 12.48-83.552 16.704-36.192 50.592-64.448 90.656-75.552 12.128-3.392 17.472-3.712 61.92-3.808 45.664-0.064 48.992 0.128 54.432 3.328 10.72 6.336 12.96 11.2 12.96 28.16s-2.24 21.824-12.96 28.16c-5.312 3.136-9.824 3.488-52.736 4.32-42.752 0.832-47.744 1.216-55.936 4.544-15.808 6.4-31.296 20.192-38.656 34.432-7.712 14.912-8.192 18.368-9.312 67.104-0.992 44.448-1.28 47.52-4.64 52.032-2.398 3.005-5.222 5.544-8.406 7.566l-0.138 0.082c-6.048 3.456-19.744 5.024-28.512 3.264zM822.080 393.504c-8.208-1.507-14.96-6.689-18.588-13.742l-0.068-0.146c-2.56-5.024-3.008-11.072-3.040-42.56-0.032-20.16-0.736-41.824-1.536-48.096-3.818-27.321-21.759-49.699-46.090-59.752l-0.502-0.184c-8.192-3.328-13.184-3.712-55.936-4.544-42.912-0.832-47.424-1.184-52.736-4.32-10.72-6.336-12.96-11.2-12.96-28.16s2.24-21.824 12.96-28.16c5.44-3.2 8.768-3.392 54.432-3.328 44.544 0.096 49.792 0.416 62.016 3.808 39.763 11.102 71.797 38.076 89.422 73.483l0.37 0.821c12.288 25.632 12.896 29.696 12.896 87.648 0 49.696-0.128 51.68-3.584 56.32-2.398 3.005-5.222 5.544-8.406 7.566l-0.138 0.082c-6.048 3.456-19.744 5.024-28.512 3.264z" />
<glyph unicode="&#xe95f;" glyph-name="money-add" d="M272.096 819.936c-26.631-1.355-51.643-6.334-75.188-14.461l1.908 0.573c-74.624-24.704-122.176-80.096-138.912-161.888-6.048-29.632-7.008-55.52-7.008-193.856v-134.048l-9.184-13.92c-24.672-37.376-36.768-86.848-31.968-130.944 5.056-46.752 24.896-87.808 58.976-122.112 28.037-28.773 64.596-49.118 105.596-56.953l1.252-0.199c14.208-2.784 57.312-2.784 71.52 0 28.671 5.796 54.080 16.51 76.554 31.317l-0.81-0.501c14.336 9.376 40.576 33.632 48.128 44.544l4.672 6.752h179.392c109.088 0 187.104 0.704 199.040 1.76 128.864 11.552 202.368 85.312 213.248 214.144 2.304 26.912 2.272 112.48 0 120.672-3.68 13.248-14.144 20.128-30.656 20.128-16.48 0-26.944-6.88-30.624-20.128-1.056-3.712-1.792-27.744-1.792-58.016 0-28.448-0.832-59.104-1.824-68.16-6.304-56.416-30.944-98.912-70.528-121.536-13.6-7.808-28.192-13.312-48.832-18.496l-17.92-4.512-178.752-0.576c-98.336-0.288-178.784-0.352-178.784-0.064 0 0.256 1.12 5.824 2.496 12.352 5.824 27.904 4.864 60.736-2.656 90.432-17.952 70.848-75.040 127.648-146.816 146.048-40.928 10.496-93.6 6.048-130.656-11.104-3.092-1.576-7.57-3.586-12.124-5.45l-1.476-0.534c-1.632 0-0.416 227.52 1.28 241.504 5.408 44.288 23.008 82.368 48.16 104.064 24.768 21.376 56 33.888 95.648 38.304 21.76 2.432 475.296 2.496 496.864 0.096 91.52-10.304 140.736-64.96 145.184-161.248 1.248-26.624 3.264-35.552 9.472-41.76 10.816-10.816 36.608-10.784 47.456 0.064 8.032 8.032 9.536 18.656 7.104 49.536-3.296 41.888-10.432 70.88-24.928 101.376-22.88 48.064-64.416 84.32-117.28 102.336-24.672 8.384-47.104 12.512-79.36 14.56-31.328 1.984-444.416 1.92-475.872-0.096zM487.712 584.608c-18.24-3.36-42.752-13.888-57.632-24.832-12.16-8.928-29.568-28.16-37.312-41.248-3.776-6.4-9.408-18.944-12.48-27.872-5.408-15.584-5.6-17.184-5.6-42.656s0.192-27.072 5.6-42.656c7.872-22.816 17.152-37.664 34.272-54.784 17.184-17.184 32.096-26.464 54.784-34.208 14.624-4.96 18.208-5.504 36.96-5.632 18.56-0.096 21.28 0.288 25.6 3.488 14.016 10.432 16.512 36 4.832 49.856-4.64 5.536-11.040 7.52-33.024 10.368-19.232 2.464-30.528 7.904-43.488 21.056-12.672 12.832-19.264 25.472-21.44 40.992-3.488 24.96 3.488 45.92 21.152 63.584s38.624 24.64 63.584 21.152c15.488-2.176 28.192-8.8 40.544-21.152 14.432-14.432 19.168-24.8 22.112-48.608 2.592-21.152 4.736-25.696 14.752-31.616 4.288-2.528 8.864-3.424 17.728-3.424 13.344 0 20.896 3.264 27.136 11.68 3.2 4.32 3.584 7.040 3.488 25.6-0.128 18.752-0.672 22.336-5.632 36.96-6.545 20.025-16.998 37.208-30.546 51.413l0.050-0.053c-18.24 19.36-36.768 30.88-62.752 39.072-13.376 4.192-48.224 6.144-62.688 3.52zM771.936 582.688c-4.783-2.201-8.527-5.977-10.634-10.65l-0.054-0.134c-3.424-7.072-3.488-9.76-3.488-123.904 0-114.336 0.064-116.832 3.52-123.936 9.44-19.52 46.656-19.52 56.096 0 3.456 7.104 3.52 9.6 3.52 123.936s-0.064 116.832-3.52 123.936c-6.56 13.6-28.992 18.912-45.44 10.752zM252.32 325.184c21.696-6.208 38.080-15.872 56.352-33.248 19.072-18.144 31.328-38.016 38.144-61.856 5.024-17.664 5.472-55.232 0.864-72.224-11.168-41.024-40.832-75.808-78.88-92.512-20.896-9.152-28.992-10.72-55.456-10.72s-34.496 1.536-55.488 10.72c-41.184 17.984-72.032 56.928-80.544 101.664-1.298 6.866-2.040 14.764-2.040 22.836 0 3.462 0.137 6.892 0.405 10.284l-0.028-0.448c1.888 36.256 12.672 61.312 37.76 87.648 21.6 22.72 45.504 35.744 75.744 41.28 13.696 2.496 49.12 0.576 63.168-3.424zM204.768 286.016c-9.088-1.792-16.64-7.008-19.936-13.728-2.176-4.448-3.136-11.616-3.616-26.944l-0.672-20.928h-19.008c-22.304 0-29.568-1.664-35.52-8.096-10.688-11.52-11.072-34.688-0.768-46.304 6.272-7.040 13.024-8.736 34.944-8.736h20.384l0.576-22.624c0.672-24.608 2.56-30.56 12-37.6 9.344-6.976 31.040-6.944 40.416 0.032 9.376 7.008 11.296 12.992 11.936 37.44l0.576 22.496 22.752 0.544c24.704 0.608 27.744 1.664 35.712 12.32 5.12 6.848 5.12 31.072 0 37.92-7.968 10.688-11.008 11.712-35.68 12.32l-22.752 0.544-0.672 20.8c-0.736 24.256-3.168 31.104-12.96 36.512-7.36 4.032-19.104 5.76-27.712 4.032z" />
<glyph unicode="&#xe960;" glyph-name="money-archive" d="M343.808 905.28c-131.424-7.168-213.312-52.288-256.128-141.12-19.36-40.192-29.6-86.976-33.376-152.544-2.368-40.96-1.12-50.976 7.264-59.392 10.848-10.848 36.64-10.88 47.456-0.064 6.656 6.688 8.32 15.456 9.472 50.304 3.168 96.448 30.080 163.584 78.848 196.672 28.928 19.648 64 31.68 114.112 39.2 18.72 2.784 36.064 3.040 200.544 3.040s181.824-0.256 200.544-3.040c122.368-18.336 171.456-67.424 189.792-189.792 2.784-18.72 3.040-36.064 3.040-200.544s-0.256-181.824-3.040-200.544c-18.24-121.792-67.488-171.456-188.16-189.76-18.752-2.816-35.264-3.072-202.176-3.072-166.208 0-183.52 0.256-202.24 3.072-46.464 6.944-80.352 18.304-107.616 36.096-43.744 28.512-67.872 73.504-79.584 148.416-2.944 18.912-3.648 33.92-4.576 98.272-1.216 85.792-1.056 84.736-14.176 92.128-9.888 5.536-27.072 5.536-36.928 0-13.28-7.456-13.12-6.496-13.024-88.704 0.128-72 0.992-87.232 6.912-122.88 21.696-130.080 94.176-202.56 224.256-224.256 38.4-6.4 44.448-6.592 206.496-7.36 191.68-0.896 216.128 0.16 269.344 11.648 109.408 23.584 175.52 90.752 198.848 202.048 10.432 49.728 10.528 51.712 10.528 244.896s-0.096 195.168-10.528 244.896c-17.92 85.44-59.264 142.848-127.712 177.216-41.568 20.896-88.416 31.52-155.296 35.2-35.264 1.952-296.896 1.92-332.896-0.032zM323.424 745.504c-35.68-4.896-70.976-31.104-87.328-64.8-12.256-25.28-11.488-12.672-12.096-195.36l-0.544-164.896-11.744-0.832c-21.408-1.536-29.952-10.432-29.952-31.2 0-18.272 7.648-28.672 23.296-31.68 4.064-0.8 44.416-1.472 89.632-1.504l82.208-0.096 2.944-8.96c13.14-39.529 42.254-70.63 79.488-86.153l0.928-0.343c18.944-7.68 28.8-9.472 51.744-9.472s32.8 1.792 51.744 9.472c37.856 15.36 67.968 47.552 79.744 85.216l2.944 9.408 87.68 0.832c78.88 0.768 88.192 1.152 93.056 3.808 11.2 6.144 17.088 19.296 15.328 34.304-1.984 16.864-11.36 25.024-30.304 26.368l-11.648 0.832-0.544 164.896c-0.608 183.040 0.16 170.688-12.256 195.616-11.443 22.883-29.434 41.059-51.504 52.429l-0.656 0.307c-24.864 12.992-7.936 12.064-218.464 12.288-103.712 0.128-190.88-0.096-193.696-0.48zM704.416 677.632c12-5.6 23.264-17.504 27.648-29.216 2.848-7.648 3.52-13.376 3.52-30.848 0-19.744-0.256-21.344-3.008-20.256-10.538 4.544-22.762 7.858-35.543 9.349l-0.617 0.059c-19.424 2.24-349.408 2.24-368.832 0-13.398-1.55-25.622-4.864-37.022-9.736l0.862 0.328c-2.752-1.088-3.008 0.512-3.008 20.256 0 17.472 0.672 23.2 3.52 30.848 4.384 11.712 15.648 23.616 27.648 29.216l8.96 4.16h366.912l8.96-4.16zM700.352 540.832c10.208-3.488 24.608-16.544 30.144-27.36 3.936-7.712 4.256-10.336 4.768-37.696l0.544-29.376-9.248 4.064c-5.444 2.369-11.866 4.421-18.524 5.832l-0.676 0.12c-13.856 2.528-376.864 2.528-390.72 0-7.298-1.533-13.676-3.563-19.762-6.148l0.69 0.26-9.152-4.032v26.88c0 34.144 1.664 39.68 16.096 54.144 17.088 17.12-0.32 15.776 206.752 15.904 161.984 0.128 181.888-0.128 189.088-2.592zM703.392 389.728c5.312-2.496 12.864-7.744 16.832-11.712 10.848-10.848 14.208-19.872 15.040-40.512l0.704-17.504h-62.24c-64.896 0-70.080-0.512-77.824-7.488-6.24-5.632-7.456-9.024-9.728-27.84-2.752-22.4-8.896-36.16-22.016-49.248-28.8-28.832-75.52-28.832-104.32 0-13.152 13.12-19.36 27.040-22.112 49.472-2.304 18.784-3.424 22.016-9.632 27.616-7.744 6.976-12.928 7.488-77.632 7.488h-62.048v15.296c0 11.264 0.928 17.76 3.52 24.704 6.176 16.512 23.040 30.336 40.736 33.408 4.288 0.736 87.296 1.216 184.448 1.088l176.64-0.256 9.632-4.512z" />
</font>
</defs>
</svg>
