<svg width="488" height="168" xmlns="http://www.w3.org/2000/svg">
    <g fill="none" fill-rule="evenodd">
        <path d="M277.09 112.53v1.205h-252v-1.206h252zm0-36.177v.5h-252v-.5h252zm0-36.177v.5h-252v-.5h252zm0-36.647v1.206h-252V3.53h252z" fill="#FFF" opacity=".2"/>
        <path d="M90.09 34v79h-54V34h54zM145 22v91H91V22h54zm55 31v60h-54V53h54zm55 31v29h-54V84h54z" fill="#57F" fill-rule="nonzero"/>
        <path d="M51.45 131.21c.067 0 .1-.033.1-.1v-.42c0-.067-.033-.1-.1-.1h-1.29c-.026 0-.04-.013-.04-.04v-7.63c0-.027.014-.04.04-.04h1.28c.067 0 .1-.033.1-.1v-.42c0-.067-.033-.1-.1-.1h-1.93c-.066 0-.1.033-.1.1v8.75c0 .067.034.1.1.1h1.94zm4.48-1.13c.58 0 1.05-.162 1.41-.485.36-.323.54-.758.54-1.305v-3.12c0-.36-.04-.673-.12-.94a1.767 1.767 0 0 0-.686-.955c-.33-.23-.735-.345-1.215-.345-.453 0-.835.107-1.145.32-.31.213-.535.513-.675.9-.1.26-.15.593-.15 1 0 .48.07.86.21 1.14.147.34.362.603.645.79.284.187.635.28 1.055.28.587 0 1.027-.197 1.32-.59.007-.013.017-.018.03-.015.014.003.02.012.02.025v1.46c0 .367-.116.662-.35.885-.233.223-.53.335-.89.335-.346 0-.63-.107-.85-.32-.22-.213-.33-.49-.33-.83v-.08c0-.067-.033-.1-.1-.1h-.51c-.066 0-.1.033-.1.1v.14c0 .507.175.918.525 1.235.35.317.805.475 1.365.475zm-.04-3.34c-.294 0-.54-.072-.74-.215-.2-.143-.34-.335-.42-.575-.087-.193-.13-.46-.13-.8 0-.32.036-.573.11-.76.086-.273.233-.482.44-.625.206-.143.453-.215.74-.215.3 0 .553.077.76.23.206.153.35.357.43.61.06.2.09.443.09.73 0 .347-.037.617-.11.81-.08.253-.222.452-.426.595a1.26 1.26 0 0 1-.745.215zm4.148 4.05c.06 0 .097-.03.11-.09l.56-2.14c.007-.033.002-.06-.015-.08-.017-.02-.042-.03-.075-.03h-.44c-.06 0-.097.03-.11.09l-.44 2.14c-.007.033-.002.06.015.08.017.02.042.03.075.03h.32zm4.598-.71a2.17 2.17 0 0 0 1.02-.23 1.66 1.66 0 0 0 .68-.64c.194-.32.29-.71.29-1.17 0-.38-.063-.707-.19-.98a1.466 1.466 0 0 0-.73-.78c-.033-.013-.033-.03 0-.05.234-.147.41-.31.53-.49.2-.3.3-.633.3-1s-.096-.707-.29-1.02a1.647 1.647 0 0 0-.65-.605 2.039 2.039 0 0 0-.96-.215c-.353 0-.671.072-.955.215a1.623 1.623 0 0 0-.665.605c-.2.307-.3.647-.3 1.02 0 .367.1.693.3.98.14.213.32.383.54.51.034.02.034.037 0 .05a1.535 1.535 0 0 0-.73.75c-.14.313-.21.647-.21 1 0 .42.094.797.28 1.13.16.3.39.528.69.685.3.157.65.235 1.05.235zm-.01-4.1a1.27 1.27 0 0 1-.585-.13 1.056 1.056 0 0 1-.415-.38 1.27 1.27 0 0 1-.05-1.32 1.139 1.139 0 0 1 1.04-.63c.247 0 .46.055.64.165.18.11.32.258.42.445.1.18.15.38.15.6 0 .307-.063.55-.19.73a1.084 1.084 0 0 1-.42.385c-.173.09-.37.135-.59.135zm.01 3.48c-.486 0-.843-.183-1.07-.55-.146-.233-.22-.537-.22-.91 0-.36.06-.647.18-.86.207-.413.574-.62 1.1-.62.554 0 .93.22 1.13.66.107.227.16.497.16.81 0 .38-.083.697-.25.95-.213.347-.556.52-1.03.52zm5.529.62c.467 0 .858-.108 1.175-.325.317-.217.542-.525.675-.925.1-.28.15-.603.15-.97 0-.453-.067-.843-.2-1.17-.26-.627-.747-.963-1.46-1.01-.02 0-.033-.005-.04-.015-.007-.01-.003-.022.01-.035l1.6-1.92c.033-.047.05-.087.05-.12v-.49c0-.067-.033-.1-.1-.1h-3.7c-.067 0-.1.033-.1.1v.42c0 .067.033.1.1.1h2.82c.033 0 .04.017.02.05l-1.76 2.06c-.04.04-.043.087-.01.14l.26.35c.02.033.043.05.07.05a.154.154 0 0 0 .06-.02.868.868 0 0 1 .37-.11c.54 0 .917.24 1.13.72.107.253.16.58.16.98 0 .327-.04.6-.12.82-.18.533-.57.8-1.17.8-.313 0-.575-.085-.785-.255a1.255 1.255 0 0 1-.425-.695 4.248 4.248 0 0 1-.07-.54c0-.067-.033-.1-.1-.1h-.51c-.067 0-.1.033-.1.1.013.32.05.573.11.76.127.413.357.742.69.985.333.243.733.365 1.2.365zm6.449 1.13c.066 0 .1-.033.1-.1v-8.75c0-.067-.034-.1-.1-.1h-1.92c-.067 0-.1.033-.1.1v.42c0 .067.033.1.1.1h1.27c.026 0 .04.013.04.04v7.63c0 .027-.014.04-.04.04h-1.28c-.067 0-.1.033-.1.1v.42c0 .067.033.1.1.1h1.93zM101.36 131.21c.067 0 .1-.033.1-.1v-.42c0-.067-.033-.1-.1-.1h-1.29c-.027 0-.04-.013-.04-.04v-7.63c0-.027.013-.04.04-.04h1.28c.067 0 .1-.033.1-.1v-.42c0-.067-.033-.1-.1-.1h-1.93c-.067 0-.1.033-.1.1v8.75c0 .067.033.1.1.1h1.94zm4.479-1.13a2.17 2.17 0 0 0 1.02-.23 1.66 1.66 0 0 0 .68-.64c.193-.32.29-.71.29-1.17 0-.38-.064-.707-.19-.98a1.466 1.466 0 0 0-.73-.78c-.034-.013-.034-.03 0-.05.233-.147.41-.31.53-.49.2-.3.3-.633.3-1s-.097-.707-.29-1.02a1.647 1.647 0 0 0-.65-.605 2.039 2.039 0 0 0-.96-.215c-.354 0-.672.072-.955.215a1.623 1.623 0 0 0-.665.605c-.2.307-.3.647-.3 1.02 0 .367.1.693.3.98.14.213.32.383.54.51.033.02.033.037 0 .05a1.535 1.535 0 0 0-.73.75c-.14.313-.21.647-.21 1 0 .42.093.797.28 1.13.16.3.39.528.69.685.3.157.65.235 1.05.235zm-.01-4.1a1.27 1.27 0 0 1-.585-.13 1.056 1.056 0 0 1-.415-.38 1.27 1.27 0 0 1-.05-1.32 1.139 1.139 0 0 1 1.04-.63c.246 0 .46.055.64.165.18.11.32.258.42.445.1.18.15.38.15.6 0 .307-.064.55-.19.73a1.084 1.084 0 0 1-.42.385c-.174.09-.37.135-.59.135zm.01 3.48c-.487 0-.844-.183-1.07-.55-.147-.233-.22-.537-.22-.91 0-.36.06-.647.18-.86.206-.413.573-.62 1.1-.62.553 0 .93.22 1.13.66.106.227.16.497.16.81 0 .38-.084.697-.25.95-.214.347-.557.52-1.03.52zm5.528.62c.467 0 .858-.108 1.175-.325.317-.217.542-.525.675-.925.1-.28.15-.603.15-.97 0-.453-.067-.843-.2-1.17-.26-.627-.747-.963-1.46-1.01-.02 0-.033-.005-.04-.015-.007-.01-.003-.022.01-.035l1.6-1.92c.033-.047.05-.087.05-.12v-.49c0-.067-.033-.1-.1-.1h-3.7c-.067 0-.1.033-.1.1v.42c0 .067.033.1.1.1h2.82c.033 0 .04.017.02.05l-1.76 2.06c-.04.04-.043.087-.01.14l.26.35c.02.033.043.05.07.05a.154.154 0 0 0 .06-.02.868.868 0 0 1 .37-.11c.54 0 .917.24 1.13.72.107.253.16.58.16.98 0 .327-.04.6-.12.82-.18.533-.57.8-1.17.8-.313 0-.575-.085-.785-.255a1.255 1.255 0 0 1-.425-.695 4.248 4.248 0 0 1-.07-.54c0-.067-.033-.1-.1-.1h-.51c-.067 0-.1.033-.1.1.013.32.05.573.11.76.127.413.357.742.69.985.333.243.733.365 1.2.365zm4.159.71c.06 0 .096-.03.11-.09l.56-2.14c.006-.033.001-.06-.015-.08-.017-.02-.042-.03-.075-.03h-.44c-.06 0-.097.03-.11.09l-.44 2.14c-.007.033-.002.06.015.08.016.02.041.03.075.03h.32zm4.458-.79c.067 0 .1-.033.1-.1v-6.8c0-.067-.033-.1-.1-.1h-.54c-.046 0-.09.01-.13.03l-1.15.61c-.046.033-.07.067-.07.1v.02l.05.38c.014.053.04.08.08.08l.04-.01 1.06-.43c.014-.007.025-.007.035 0 .01.007.015.017.015.03v6.09c0 .067.034.1.1.1h.51zm4.069.08a2.17 2.17 0 0 0 1.02-.23 1.66 1.66 0 0 0 .68-.64c.193-.32.29-.71.29-1.17 0-.38-.063-.707-.19-.98a1.466 1.466 0 0 0-.73-.78c-.033-.013-.033-.03 0-.05.233-.147.41-.31.53-.49.2-.3.3-.633.3-1s-.097-.707-.29-1.02a1.647 1.647 0 0 0-.65-.605 2.039 2.039 0 0 0-.96-.215c-.353 0-.672.072-.955.215a1.623 1.623 0 0 0-.665.605c-.2.307-.3.647-.3 1.02 0 .367.1.693.3.98.14.213.32.383.54.51.033.02.033.037 0 .05a1.535 1.535 0 0 0-.73.75c-.14.313-.21.647-.21 1 0 .42.093.797.28 1.13.16.3.39.528.69.685.3.157.65.235 1.05.235zm-.01-4.1a1.27 1.27 0 0 1-.585-.13 1.056 1.056 0 0 1-.415-.38 1.27 1.27 0 0 1-.05-1.32 1.139 1.139 0 0 1 1.04-.63c.247 0 .46.055.64.165.18.11.32.258.42.445.1.18.15.38.15.6 0 .307-.063.55-.19.73a1.084 1.084 0 0 1-.42.385c-.173.09-.37.135-.59.135zm.01 3.48c-.487 0-.843-.183-1.07-.55-.147-.233-.22-.537-.22-.91 0-.36.06-.647.18-.86.207-.413.573-.62 1.1-.62.553 0 .93.22 1.13.66.107.227.16.497.16.81 0 .38-.083.697-.25.95-.213.347-.557.52-1.03.52zm5.838.64c.647 0 1.164-.183 1.55-.55.387-.367.58-.857.58-1.47v-3.16c0-.607-.193-1.093-.58-1.46-.386-.367-.903-.55-1.55-.55-.64 0-1.15.182-1.53.545-.38.363-.57.852-.57 1.465v3.16c0 .613.19 1.103.57 1.47.38.367.89.55 1.53.55zm0-.62c-.42 0-.756-.123-1.01-.37-.253-.247-.38-.577-.38-.99v-3.23c0-.407.127-.733.38-.98.254-.247.59-.37 1.01-.37.434 0 .779.123 1.035.37.257.247.385.573.385.98v3.23c0 .413-.13.743-.39.99s-.603.37-1.03.37zm6.639 1.73c.067 0 .1-.033.1-.1v-8.75c0-.067-.033-.1-.1-.1h-1.92c-.067 0-.1.033-.1.1v.42c0 .067.033.1.1.1h1.27c.027 0 .04.013.04.04v7.63c0 .027-.013.04-.04.04h-1.28c-.067 0-.1.033-.1.1v.42c0 .067.033.1.1.1h1.93zM19.731 114.1c.647 0 1.164-.183 1.55-.55.387-.367.58-.857.58-1.47v-3.16c0-.607-.193-1.093-.58-1.46-.386-.367-.903-.55-1.55-.55-.64 0-1.15.182-1.53.545-.38.363-.57.852-.57 1.465v3.16c0 .613.19 1.103.57 1.47.38.367.89.55 1.53.55zm0-.62c-.42 0-.756-.123-1.01-.37-.253-.247-.38-.577-.38-.99v-3.23c0-.407.127-.733.38-.98.254-.247.59-.37 1.01-.37.434 0 .779.123 1.035.37.257.247.385.573.385.98v3.23c0 .413-.13.743-.39.99s-.603.37-1.03.37zM8.554 80.07c.48 0 .89-.125 1.23-.375.34-.25.567-.588.68-1.015.06-.233.09-.513.09-.84 0-.307-.03-.607-.09-.9a1.557 1.557 0 0 0-.63-.975c-.326-.23-.726-.345-1.2-.345a2.07 2.07 0 0 0-.72.125 1.755 1.755 0 0 0-.59.355c-.013.013-.025.017-.035.01a.034.034 0 0 1-.015-.03l.01-2.42c0-.027.014-.04.04-.04h2.85c.067 0 .1-.033.1-.1v-.42c0-.067-.033-.1-.1-.1h-3.5c-.066 0-.1.033-.1.1v3.87c0 .067.034.1.1.1h.54c.054 0 .09-.03.11-.09.067-.22.217-.397.45-.53.234-.133.497-.2.79-.2.327 0 .6.08.82.24.22.16.354.393.4.7.034.207.05.423.05.65 0 .247-.02.447-.06.6a1.27 1.27 0 0 1-.425.74c-.216.18-.485.27-.805.27-.313 0-.575-.085-.785-.255a1.202 1.202 0 0 1-.415-.685.847.847 0 0 1-.04-.2c-.006-.067-.043-.1-.11-.1h-.53c-.06 0-.09.027-.09.08v.02c.014.147.044.293.09.44.12.4.347.72.68.96.334.24.737.36 1.21.36zm5.739.03c.647 0 1.163-.183 1.55-.55.387-.367.58-.857.58-1.47v-3.16c0-.607-.193-1.093-.58-1.46-.387-.367-.903-.55-1.55-.55-.64 0-1.15.182-1.53.545-.38.363-.57.852-.57 1.465v3.16c0 .613.19 1.103.57 1.47.38.367.89.55 1.53.55zm0-.62c-.42 0-.757-.123-1.01-.37s-.38-.577-.38-.99v-3.23c0-.407.127-.733.38-.98s.59-.37 1.01-.37c.433 0 .778.123 1.035.37.257.247.385.573.385.98v3.23c0 .413-.13.743-.39.99s-.603.37-1.03.37zm4.678.52c.067 0 .1-.033.1-.1v-1.7c0-.02.007-.037.02-.05l1.1-1.16c.02-.02.037-.017.05.01l1.29 2.92c.02.053.057.08.11.08h.54c.06 0 .09-.027.09-.08l-.01-.04-1.53-3.35c-.006-.02-.003-.037.01-.05l1.28-1.42c.027-.027.034-.053.02-.08-.013-.027-.04-.04-.08-.04h-.6a.164.164 0 0 0-.12.05l-2.12 2.22c-.013.013-.025.017-.035.01a.034.034 0 0 1-.015-.03V73.1c0-.067-.033-.1-.1-.1h-.51c-.066 0-.1.033-.1.1v6.8c0 .067.034.1.1.1h.51zM3.946 44c.066 0 .1-.033.1-.1v-6.8c0-.067-.034-.1-.1-.1h-.54c-.047 0-.09.01-.13.03l-1.15.61c-.047.033-.07.067-.07.1v.02l.05.38c.013.053.04.08.08.08l.04-.01 1.06-.43c.013-.007.025-.007.035 0 .01.007.015.017.015.03v6.09c0 .067.033.1.1.1h.51zm4.268.1c.647 0 1.164-.183 1.55-.55.387-.367.58-.857.58-1.47v-3.16c0-.607-.193-1.093-.58-1.46-.386-.367-.903-.55-1.55-.55-.64 0-1.15.182-1.53.545-.38.363-.57.852-.57 1.465v3.16c0 .613.19 1.103.57 1.47.38.367.89.55 1.53.55zm0-.62c-.42 0-.756-.123-1.01-.37-.253-.247-.38-.577-.38-.99v-3.23c0-.407.127-.733.38-.98.254-.247.59-.37 1.01-.37.434 0 .779.123 1.035.37.257.247.385.573.385.98v3.23c0 .413-.13.743-.39.99s-.603.37-1.03.37zm6.079.62c.647 0 1.163-.183 1.55-.55.387-.367.58-.857.58-1.47v-3.16c0-.607-.193-1.093-.58-1.46-.387-.367-.903-.55-1.55-.55-.64 0-1.15.182-1.53.545-.38.363-.57.852-.57 1.465v3.16c0 .613.19 1.103.57 1.47.38.367.89.55 1.53.55zm0-.62c-.42 0-.757-.123-1.01-.37s-.38-.577-.38-.99v-3.23c0-.407.127-.733.38-.98s.59-.37 1.01-.37c.433 0 .778.123 1.035.37.257.247.385.573.385.98v3.23c0 .413-.13.743-.39.99s-.603.37-1.03.37zm4.678.52c.067 0 .1-.033.1-.1v-1.7c0-.02.007-.037.02-.05l1.1-1.16c.02-.02.037-.017.05.01l1.29 2.92c.02.053.057.08.11.08h.54c.06 0 .09-.027.09-.08l-.01-.04-1.53-3.35c-.006-.02-.003-.037.01-.05l1.28-1.42c.027-.027.034-.053.02-.08-.013-.027-.04-.04-.08-.04h-.6a.164.164 0 0 0-.12.05l-2.12 2.22c-.013.013-.025.017-.035.01a.034.034 0 0 1-.015-.03V37.1c0-.067-.033-.1-.1-.1h-.51c-.066 0-.1.033-.1.1v6.8c0 .067.034.1.1.1h.51zM4.296 8c.066 0 .1-.033.1-.1v-.42c0-.067-.034-.1-.1-.1h-3.14c-.034 0-.04-.017-.02-.05l.22-.26a117.52 117.52 0 0 0 1.89-2.32c.626-.8.94-1.483.94-2.05 0-.34-.084-.645-.25-.915a1.71 1.71 0 0 0-.71-.635 2.34 2.34 0 0 0-1.06-.23c-.567 0-1.035.157-1.405.47-.37.313-.562.727-.575 1.24v.4c0 .067.033.1.1.1h.52c.066 0 .1-.033.1-.1v-.31c-.007-.353.106-.638.34-.855.233-.217.54-.325.92-.325.386 0 .7.107.94.32.24.213.36.497.36.85 0 .44-.314 1.057-.94 1.85l-.74.92C.992 6.467.482 7.093.256 7.36a.164.164 0 0 0-.05.12v.42c0 .067.033.1.1.1h3.99zm3.918.1c.647 0 1.164-.183 1.55-.55.387-.367.58-.857.58-1.47V2.92c0-.607-.193-1.093-.58-1.46-.386-.367-.903-.55-1.55-.55-.64 0-1.15.182-1.53.545-.38.363-.57.852-.57 1.465v3.16c0 .613.19 1.103.57 1.47.38.367.89.55 1.53.55zm0-.62c-.42 0-.756-.123-1.01-.37-.253-.247-.38-.577-.38-.99V2.89c0-.407.127-.733.38-.98.254-.247.59-.37 1.01-.37.434 0 .779.123 1.035.37.257.247.385.573.385.98v3.23c0 .413-.13.743-.39.99s-.603.37-1.03.37zm6.079.62c.647 0 1.163-.183 1.55-.55.387-.367.58-.857.58-1.47V2.92c0-.607-.193-1.093-.58-1.46-.387-.367-.903-.55-1.55-.55-.64 0-1.15.182-1.53.545-.38.363-.57.852-.57 1.465v3.16c0 .613.19 1.103.57 1.47.38.367.89.55 1.53.55zm0-.62c-.42 0-.757-.123-1.01-.37s-.38-.577-.38-.99V2.89c0-.407.127-.733.38-.98s.59-.37 1.01-.37c.433 0 .778.123 1.035.37.257.247.385.573.385.98v3.23c0 .413-.13.743-.39.99s-.603.37-1.03.37zM18.97 8c.067 0 .1-.033.1-.1V6.2c0-.02.007-.037.02-.05l1.1-1.16c.02-.02.037-.017.05.01l1.29 2.92c.02.053.057.08.11.08h.54c.06 0 .09-.027.09-.08l-.01-.04-1.53-3.35c-.006-.02-.003-.037.01-.05l1.28-1.42c.027-.027.034-.053.02-.08-.013-.027-.04-.04-.08-.04h-.6a.164.164 0 0 0-.12.05l-2.12 2.22c-.013.013-.025.017-.035.01a.034.034 0 0 1-.015-.03V1.1c0-.067-.033-.1-.1-.1h-.51c-.066 0-.1.033-.1.1v6.8c0 .067.034.1.1.1h.51zM152.36 131.21c.067 0 .1-.033.1-.1v-.42c0-.067-.033-.1-.1-.1h-1.29c-.027 0-.04-.013-.04-.04v-7.63c0-.027.013-.04.04-.04h1.28c.067 0 .1-.033.1-.1v-.42c0-.067-.033-.1-.1-.1h-1.93c-.067 0-.1.033-.1.1v8.75c0 .067.033.1.1.1h1.94zm4.339-1.21c.066 0 .1-.033.1-.1v-6.8c0-.067-.034-.1-.1-.1h-.54c-.047 0-.09.01-.13.03l-1.15.61c-.047.033-.07.067-.07.1v.02l.05.38c.013.053.04.08.08.08l.04-.01 1.06-.43c.013-.007.025-.007.035 0 .01.007.015.017.015.03v6.09c0 .067.033.1.1.1h.51zm4.068.08a2.17 2.17 0 0 0 1.02-.23 1.66 1.66 0 0 0 .68-.64c.193-.32.29-.71.29-1.17 0-.38-.063-.707-.19-.98a1.466 1.466 0 0 0-.73-.78c-.033-.013-.033-.03 0-.05.233-.147.41-.31.53-.49.2-.3.3-.633.3-1s-.097-.707-.29-1.02a1.647 1.647 0 0 0-.65-.605 2.039 2.039 0 0 0-.96-.215c-.353 0-.672.072-.955.215a1.623 1.623 0 0 0-.665.605c-.2.307-.3.647-.3 1.02 0 .367.1.693.3.98.14.213.32.383.54.51.033.02.033.037 0 .05a1.535 1.535 0 0 0-.73.75c-.14.313-.21.647-.21 1 0 .42.093.797.28 1.13.16.3.39.528.69.685.3.157.65.235 1.05.235zm-.01-4.1a1.27 1.27 0 0 1-.585-.13 1.056 1.056 0 0 1-.415-.38 1.27 1.27 0 0 1-.05-1.32 1.139 1.139 0 0 1 1.04-.63c.247 0 .46.055.64.165.18.11.32.258.42.445.1.18.15.38.15.6 0 .307-.063.55-.19.73a1.084 1.084 0 0 1-.42.385c-.173.09-.37.135-.59.135zm.01 3.48c-.487 0-.843-.183-1.07-.55-.147-.233-.22-.537-.22-.91 0-.36.06-.647.18-.86.207-.413.573-.62 1.1-.62.553 0 .93.22 1.13.66.107.227.16.497.16.81 0 .38-.083.697-.25.95-.213.347-.557.52-1.03.52zm5.839.64c.646 0 1.163-.183 1.55-.55.386-.367.58-.857.58-1.47v-3.16c0-.607-.194-1.093-.58-1.46-.387-.367-.904-.55-1.55-.55-.64 0-1.15.182-1.53.545-.38.363-.57.852-.57 1.465v3.16c0 .613.19 1.103.57 1.47.38.367.89.55 1.53.55zm0-.62c-.42 0-.757-.123-1.01-.37-.254-.247-.38-.577-.38-.99v-3.23c0-.407.126-.733.38-.98.253-.247.59-.37 1.01-.37.433 0 .778.123 1.035.37.256.247.385.573.385.98v3.23c0 .413-.13.743-.39.99s-.604.37-1.03.37zm4.348 1.31c.06 0 .097-.03.11-.09l.56-2.14c.007-.033.002-.06-.015-.08-.016-.02-.041-.03-.075-.03h-.44c-.06 0-.096.03-.11.09l-.44 2.14c-.006.033-.001.06.015.08.017.02.042.03.075.03h.32zm4.489-.71c.467 0 .858-.108 1.175-.325.317-.217.542-.525.675-.925.1-.28.15-.603.15-.97 0-.453-.067-.843-.2-1.17-.26-.627-.747-.963-1.46-1.01-.02 0-.033-.005-.04-.015-.007-.01-.003-.022.01-.035l1.6-1.92c.033-.047.05-.087.05-.12v-.49c0-.067-.033-.1-.1-.1h-3.7c-.067 0-.1.033-.1.1v.42c0 .067.033.1.1.1h2.82c.033 0 .04.017.02.05l-1.76 2.06c-.04.04-.043.087-.01.14l.26.35c.02.033.043.05.07.05a.154.154 0 0 0 .06-.02.868.868 0 0 1 .37-.11c.54 0 .917.24 1.13.72.107.253.16.58.16.98 0 .327-.04.6-.12.82-.18.533-.57.8-1.17.8-.313 0-.575-.085-.785-.255a1.255 1.255 0 0 1-.425-.695 4.248 4.248 0 0 1-.07-.54c0-.067-.033-.1-.1-.1h-.51c-.067 0-.1.033-.1.1.013.32.05.573.11.76.127.413.357.742.69.985.333.243.733.365 1.2.365zm5.578 0c.467 0 .859-.108 1.175-.325.317-.217.542-.525.675-.925.1-.28.15-.603.15-.97 0-.453-.066-.843-.2-1.17-.26-.627-.746-.963-1.46-1.01-.02 0-.033-.005-.04-.015-.006-.01-.003-.022.01-.035l1.6-1.92c.034-.047.05-.087.05-.12v-.49c0-.067-.033-.1-.1-.1h-3.7c-.066 0-.1.033-.1.1v.42c0 .067.034.1.1.1h2.82c.034 0 .04.017.02.05l-1.76 2.06c-.04.04-.043.087-.01.14l.26.35c.02.033.044.05.07.05a.153.153 0 0 0 .06-.02.868.868 0 0 1 .37-.11c.54 0 .917.24 1.13.72.107.253.16.58.16.98 0 .327-.04.6-.12.82-.18.533-.57.8-1.17.8-.313 0-.575-.085-.785-.255a1.255 1.255 0 0 1-.425-.695 4.249 4.249 0 0 1-.07-.54c0-.067-.033-.1-.1-.1h-.51c-.066 0-.1.033-.1.1.014.32.05.573.11.76.127.413.357.742.69.985.334.243.734.365 1.2.365zm5.889.02c.647 0 1.163-.183 1.55-.55.387-.367.58-.857.58-1.47v-3.16c0-.607-.193-1.093-.58-1.46-.387-.367-.903-.55-1.55-.55-.64 0-1.15.182-1.53.545-.38.363-.57.852-.57 1.465v3.16c0 .613.19 1.103.57 1.47.38.367.89.55 1.53.55zm0-.62c-.42 0-.757-.123-1.01-.37s-.38-.577-.38-.99v-3.23c0-.407.127-.733.38-.98s.59-.37 1.01-.37c.433 0 .778.123 1.035.37.257.247.385.573.385.98v3.23c0 .413-.13.743-.39.99s-.603.37-1.03.37zm6.639 1.73c.066 0 .1-.033.1-.1v-8.75c0-.067-.034-.1-.1-.1h-1.92c-.067 0-.1.033-.1.1v.42c0 .067.033.1.1.1h1.27c.026 0 .04.013.04.04v7.63c0 .027-.014.04-.04.04h-1.28c-.067 0-.1.033-.1.1v.42c0 .067.033.1.1.1h1.93zM207.36 131.21c.067 0 .1-.033.1-.1v-.42c0-.067-.033-.1-.1-.1h-1.29c-.027 0-.04-.013-.04-.04v-7.63c0-.027.013-.04.04-.04h1.28c.067 0 .1-.033.1-.1v-.42c0-.067-.033-.1-.1-.1h-1.93c-.067 0-.1.033-.1.1v8.75c0 .067.033.1.1.1h1.94zm4.369-1.13c.466 0 .858-.108 1.175-.325.316-.217.541-.525.675-.925.1-.28.15-.603.15-.97 0-.453-.067-.843-.2-1.17-.26-.627-.747-.963-1.46-1.01-.02 0-.034-.005-.04-.015-.007-.01-.004-.022.01-.035l1.6-1.92c.033-.047.05-.087.05-.12v-.49c0-.067-.034-.1-.1-.1h-3.7c-.067 0-.1.033-.1.1v.42c0 .067.033.1.1.1h2.82c.033 0 .04.017.02.05l-1.76 2.06c-.04.04-.044.087-.01.14l.26.35c.02.033.043.05.07.05a.154.154 0 0 0 .06-.02.868.868 0 0 1 .37-.11c.54 0 .916.24 1.13.72.106.253.16.58.16.98 0 .327-.04.6-.12.82-.18.533-.57.8-1.17.8-.314 0-.575-.085-.785-.255a1.255 1.255 0 0 1-.425-.695 4.248 4.248 0 0 1-.07-.54c0-.067-.034-.1-.1-.1h-.51c-.067 0-.1.033-.1.1.013.32.05.573.11.76.126.413.356.742.69.985.333.243.733.365 1.2.365zm5.578 0c.467 0 .858-.108 1.175-.325.317-.217.542-.525.675-.925.1-.28.15-.603.15-.97 0-.453-.067-.843-.2-1.17-.26-.627-.747-.963-1.46-1.01-.02 0-.033-.005-.04-.015-.007-.01-.003-.022.01-.035l1.6-1.92c.033-.047.05-.087.05-.12v-.49c0-.067-.033-.1-.1-.1h-3.7c-.067 0-.1.033-.1.1v.42c0 .067.033.1.1.1h2.82c.033 0 .04.017.02.05l-1.76 2.06c-.04.04-.043.087-.01.14l.26.35c.02.033.043.05.07.05a.154.154 0 0 0 .06-.02.868.868 0 0 1 .37-.11c.54 0 .917.24 1.13.72.107.253.16.58.16.98 0 .327-.04.6-.12.82-.18.533-.57.8-1.17.8-.313 0-.575-.085-.785-.255a1.255 1.255 0 0 1-.425-.695 4.248 4.248 0 0 1-.07-.54c0-.067-.033-.1-.1-.1h-.51c-.067 0-.1.033-.1.1.013.32.05.573.11.76.127.413.357.742.69.985.333.243.733.365 1.2.365zm5.889.02c.646 0 1.163-.183 1.55-.55.386-.367.58-.857.58-1.47v-3.16c0-.607-.194-1.093-.58-1.46-.387-.367-.904-.55-1.55-.55-.64 0-1.15.182-1.53.545-.38.363-.57.852-.57 1.465v3.16c0 .613.19 1.103.57 1.47.38.367.89.55 1.53.55zm0-.62c-.42 0-.757-.123-1.01-.37-.254-.247-.38-.577-.38-.99v-3.23c0-.407.126-.733.38-.98.253-.247.59-.37 1.01-.37.433 0 .778.123 1.035.37.256.247.385.573.385.98v3.23c0 .413-.13.743-.39.99s-.604.37-1.03.37zm4.348 1.31c.06 0 .097-.03.11-.09l.56-2.14c.007-.033.002-.06-.015-.08-.016-.02-.041-.03-.075-.03h-.44c-.06 0-.096.03-.11.09l-.44 2.14c-.006.033-.001.06.015.08.017.02.042.03.075.03h.32zm4.629-.72c.48 0 .89-.125 1.23-.375.34-.25.567-.588.68-1.015.06-.233.09-.513.09-.84 0-.307-.03-.607-.09-.9a1.557 1.557 0 0 0-.63-.975c-.327-.23-.727-.345-1.2-.345a2.07 2.07 0 0 0-.72.125 1.755 1.755 0 0 0-.59.355c-.013.013-.025.017-.035.01a.034.034 0 0 1-.015-.03l.01-2.42c0-.027.013-.04.04-.04h2.85c.067 0 .1-.033.1-.1v-.42c0-.067-.033-.1-.1-.1h-3.5c-.067 0-.1.033-.1.1v3.87c0 .067.033.1.1.1h.54c.053 0 .09-.03.11-.09.067-.22.217-.397.45-.53s.497-.2.79-.2c.327 0 .6.08.82.24.22.16.353.393.4.7.033.207.05.423.05.65 0 .247-.02.447-.06.6a1.27 1.27 0 0 1-.425.74c-.217.18-.485.27-.805.27-.313 0-.575-.085-.785-.255a1.202 1.202 0 0 1-.415-.685.847.847 0 0 1-.04-.2c-.007-.067-.043-.1-.11-.1h-.53c-.06 0-.09.027-.09.08v.02c.013.147.043.293.09.44.12.4.347.72.68.96.333.24.737.36 1.21.36zm7.158-.07c.067 0 .1-.033.1-.1v-1.79c0-.027.014-.04.04-.04h.43c.067 0 .1-.033.1-.1v-.44c0-.067-.033-.1-.1-.1h-.43c-.026 0-.04-.013-.04-.04v-1.61c0-.067-.033-.1-.1-.1h-.51c-.066 0-.1.033-.1.1v1.61c0 .027-.013.04-.04.04h-2.25a.034.034 0 0 1-.03-.015c-.006-.01-.006-.022 0-.035l1.99-4.26c.014-.033.012-.062-.005-.085-.016-.023-.041-.035-.075-.035h-.53c-.053 0-.09.023-.11.07l-2.05 4.41a.315.315 0 0 0-.03.12v.37c0 .067.034.1.1.1h2.99c.027 0 .04.013.04.04v1.79c0 .067.034.1.1.1h.51zm4.349.07c.48 0 .89-.125 1.23-.375.34-.25.567-.588.68-1.015.06-.233.09-.513.09-.84 0-.307-.03-.607-.09-.9a1.557 1.557 0 0 0-.63-.975c-.327-.23-.727-.345-1.2-.345a2.07 2.07 0 0 0-.72.125 1.755 1.755 0 0 0-.59.355c-.013.013-.025.017-.035.01a.034.034 0 0 1-.015-.03l.01-2.42c0-.027.013-.04.04-.04h2.85c.067 0 .1-.033.1-.1v-.42c0-.067-.033-.1-.1-.1h-3.5c-.067 0-.1.033-.1.1v3.87c0 .067.033.1.1.1h.54c.053 0 .09-.03.11-.09.067-.22.217-.397.45-.53s.497-.2.79-.2c.327 0 .6.08.82.24.22.16.353.393.4.7.033.207.05.423.05.65 0 .247-.02.447-.06.6a1.27 1.27 0 0 1-.425.74c-.217.18-.485.27-.805.27-.313 0-.575-.085-.785-.255a1.202 1.202 0 0 1-.415-.685.847.847 0 0 1-.04-.2c-.007-.067-.043-.1-.11-.1h-.53c-.06 0-.09.027-.09.08v.02c.013.147.043.293.09.44.12.4.347.72.68.96.333.24.737.36 1.21.36zm6.299 1.14c.066 0 .1-.033.1-.1v-8.75c0-.067-.034-.1-.1-.1h-1.92c-.067 0-.1.033-.1.1v.42c0 .067.033.1.1.1h1.27c.026 0 .04.013.04.04v7.63c0 .027-.014.04-.04.04h-1.28c-.067 0-.1.033-.1.1v.42c0 .067.033.1.1.1h1.93z" fill="#FFF" fill-rule="nonzero" opacity=".8"/>
        <g fill-rule="nonzero">
            <path fill="#57F" d="M96.09 155h10v10h-10z"/>
            <path d="M118.627 165.112c.662 0 1.246-.13 1.75-.392a2.83 2.83 0 0 0 1.169-1.099c.275-.471.413-1.02.413-1.645v-6.636c0-.093-.047-.14-.14-.14h-.714c-.094 0-.14.047-.14.14v6.664c0 .663-.215 1.202-.644 1.617-.43.415-.994.623-1.694.623s-1.265-.208-1.694-.623c-.43-.415-.644-.954-.644-1.617v-6.664c0-.093-.047-.14-.14-.14h-.714c-.094 0-.14.047-.14.14v6.636c0 .625.14 1.174.42 1.645.28.471.672.838 1.176 1.099.504.261 1.082.392 1.736.392zm7.11-.112c.093 0 .14-.047.14-.14v-4.452c0-.513.158-.929.476-1.246.317-.317.732-.476 1.246-.476.494 0 .898.163 1.21.49.313.327.47.747.47 1.26v4.424c0 .093.046.14.14.14h.714c.093 0 .14-.047.14-.14v-4.62c0-.737-.222-1.325-.665-1.764-.444-.439-1.039-.658-1.785-.658-.85 0-1.48.29-1.89.868-.01.019-.021.023-.035.014a.047.047 0 0 1-.021-.042v-.602c0-.093-.047-.14-.14-.14h-.714c-.094 0-.14.047-.14.14v6.804c0 .093.046.14.14.14h.714zm7.964-8.372a.76.76 0 0 0 .56-.224.76.76 0 0 0 .224-.56.754.754 0 0 0-.784-.784.754.754 0 0 0-.784.784c0 .224.074.41.224.56a.76.76 0 0 0 .56.224zm.322 8.358c.093 0 .14-.047.14-.14v-6.804c0-.093-.047-.14-.14-.14h-.714c-.094 0-.14.047-.14.14v6.804c0 .093.046.14.14.14h.714zm5.654.028c.233 0 .406-.005.518-.014.093 0 .14-.047.14-.14v-.574c0-.093-.047-.14-.14-.14h-.35c-.43 0-.745-.091-.945-.273-.2-.182-.301-.497-.301-.945v-4.13c0-.037.018-.056.056-.056h1.582c.093 0 .14-.047.14-.14v-.546c0-.093-.047-.14-.14-.14h-1.582c-.038 0-.056-.019-.056-.056v-1.624c0-.093-.047-.14-.14-.14h-.686c-.094 0-.14.047-.14.14v1.624c0 .037-.019.056-.056.056h-.854c-.094 0-.14.047-.14.14v.546c0 .093.046.14.14.14h.854c.037 0 .056.019.056.056v4.438c0 .681.172 1.148.518 1.4.345.252.854.378 1.526.378zm7.57-.014c.093 0 .14-.047.14-.14v-4.172c0-.037.018-.056.056-.056h2.73c.83 0 1.5-.247 2.009-.742.508-.495.763-1.148.763-1.96 0-.821-.25-1.484-.75-1.988-.499-.504-1.159-.756-1.98-.756h-3.682c-.094 0-.14.047-.14.14v9.534c0 .093.046.14.14.14h.714zm2.856-5.194h-2.66c-.038 0-.056-.019-.056-.056v-3.64c0-.037.018-.056.056-.056h2.66c.55 0 .998.173 1.344.518.345.345.518.803.518 1.372 0 .56-.173 1.01-.518 1.351-.346.34-.794.511-1.344.511zm5.934 5.194c.093 0 .14-.047.14-.14v-4.13c0-.523.158-.954.476-1.295.317-.34.718-.52 1.204-.539l.182-.014c.205 0 .387.033.546.098.093.037.154.01.182-.084l.154-.686c.018-.084-.01-.145-.084-.182a1.652 1.652 0 0 0-.798-.182c-.402 0-.754.096-1.057.287a2.23 2.23 0 0 0-.75.805c-.009.019-.02.026-.034.021-.014-.005-.021-.021-.021-.049v-.854c0-.093-.047-.14-.14-.14h-.714c-.094 0-.14.047-.14.14v6.804c0 .093.046.14.14.14h.714zm5.514-8.372a.76.76 0 0 0 .56-.224.76.76 0 0 0 .224-.56.754.754 0 0 0-.784-.784.754.754 0 0 0-.784.784c0 .224.074.41.224.56a.76.76 0 0 0 .56.224zm.322 8.358c.093 0 .14-.047.14-.14v-6.804c0-.093-.047-.14-.14-.14h-.714c-.094 0-.14.047-.14.14v6.804c0 .093.046.14.14.14h.714zm5.85.126c.681 0 1.274-.168 1.778-.504.504-.336.826-.775.966-1.316l.056-.28c.01-.084-.033-.135-.126-.154l-.686-.112c-.103-.019-.159.019-.168.112l-.014.056v.056a1.512 1.512 0 0 1-.623.917c-.332.238-.726.357-1.183.357-.467 0-.857-.124-1.17-.371a1.703 1.703 0 0 1-.608-1.001c-.084-.336-.126-.812-.126-1.428 0-.588.042-1.06.126-1.414.093-.41.296-.74.609-.987.312-.247.702-.371 1.169-.371.466 0 .863.124 1.19.371.326.247.532.548.616.903l.042.21c.018.084.06.126.126.126h.028l.7-.098c.084-.019.126-.06.126-.126v-.028a2.363 2.363 0 0 0-.084-.42c-.15-.513-.474-.943-.973-1.288-.5-.345-1.09-.518-1.771-.518-.672 0-1.25.175-1.736.525-.486.35-.812.814-.98 1.393-.122.467-.182 1.036-.182 1.708 0 .747.06 1.325.182 1.736a2.63 2.63 0 0 0 .987 1.421c.48.35 1.057.525 1.729.525zm7.838.014c.606 0 1.143-.128 1.61-.385a2.52 2.52 0 0 0 1.05-1.057c.037-.084.018-.15-.056-.196l-.546-.322c-.075-.047-.14-.028-.196.056a1.83 1.83 0 0 1-.7.756 1.99 1.99 0 0 1-1.036.266c-.523 0-.952-.121-1.288-.364a1.674 1.674 0 0 1-.658-.994c-.038-.15-.066-.48-.084-.994 0-.037.018-.056.056-.056h4.522c.093 0 .14-.047.14-.14v-.448a7.12 7.12 0 0 0-.056-.98c-.112-.784-.397-1.39-.854-1.82-.458-.43-1.11-.644-1.96-.644-.682 0-1.263.182-1.743.546-.48.364-.8.85-.96 1.456a3.055 3.055 0 0 0-.104.665c-.014.247-.021.567-.021.959 0 .84.084 1.484.252 1.932.196.55.518.98.966 1.288.448.308 1.003.467 1.666.476zm1.778-4.13h-3.626c-.038 0-.056-.019-.056-.056.018-.439.056-.756.112-.952.093-.401.291-.721.595-.959.303-.238.683-.357 1.14-.357.477 0 .871.124 1.184.371.312.247.52.581.623 1.001.037.177.065.476.084.896 0 .037-.019.056-.056.056z" fill="#FFF" opacity=".5"/>
        </g>
        <g fill="#FFF" fill-rule="nonzero">
            <path d="M358.956 34c.093 0 .154-.047.182-.14l2.982-9.464c.019-.056.014-.103-.014-.14-.028-.037-.07-.056-.126-.056h-1.358c-.103 0-.168.047-.196.14l-2.086 7.308c-.01.028-.023.042-.042.042-.019 0-.033-.014-.042-.042l-2.1-7.308c-.028-.093-.093-.14-.196-.14h-1.386c-.103 0-.154.047-.154.14l.014.056 2.94 9.464c.028.093.089.14.182.14h1.4zm6.256.112c.868 0 1.53-.252 1.988-.756.019-.019.037-.026.056-.021.019.005.028.021.028.049v.448c0 .047.016.086.049.119a.162.162 0 0 0 .119.049h1.288a.162.162 0 0 0 .119-.049.162.162 0 0 0 .049-.119v-4.718c0-.457-.121-.866-.364-1.225-.243-.36-.588-.642-1.036-.847-.448-.205-.966-.308-1.554-.308-.812 0-1.486.182-2.023.546-.537.364-.842.83-.917 1.4-.01.037.002.068.035.091.033.023.072.04.119.049l1.358.168c.103.019.168-.028.196-.14a.822.822 0 0 1 .413-.525c.22-.126.506-.189.861-.189.43 0 .751.1.966.301.215.2.322.483.322.847v.336c0 .047-.023.07-.07.07h-1.498c-.924 0-1.64.203-2.149.609-.509.406-.763.973-.763 1.701 0 .7.226 1.227.679 1.582.453.355 1.029.532 1.729.532zm.406-1.288c-.345 0-.628-.082-.847-.245-.22-.163-.329-.394-.329-.693 0-.345.142-.611.427-.798.285-.187.674-.28 1.169-.28h1.176c.047 0 .07.023.07.07v.658c0 .373-.163.681-.49.924-.327.243-.719.364-1.176.364zm6.97 1.176a.162.162 0 0 0 .119-.049.162.162 0 0 0 .049-.119v-9.464a.162.162 0 0 0-.049-.119.162.162 0 0 0-.119-.049H371.3a.162.162 0 0 0-.119.049.162.162 0 0 0-.049.119v9.464c0 .047.016.086.049.119a.162.162 0 0 0 .119.049h1.288zm4.912.098c.765 0 1.34-.247 1.722-.742.019-.028.037-.037.056-.028.019.01.028.028.028.056v.448c0 .047.016.086.049.119a.162.162 0 0 0 .119.049h1.274a.162.162 0 0 0 .119-.049.162.162 0 0 0 .049-.119v-6.818a.162.162 0 0 0-.049-.119.162.162 0 0 0-.119-.049h-1.274a.162.162 0 0 0-.119.049.162.162 0 0 0-.049.119v4.256c0 .439-.126.789-.378 1.05s-.588.392-1.008.392c-.41 0-.73-.13-.959-.392-.229-.261-.343-.611-.343-1.05v-4.256a.162.162 0 0 0-.049-.119.162.162 0 0 0-.119-.049h-1.288a.162.162 0 0 0-.119.049.162.162 0 0 0-.049.119v4.718c0 .756.24 1.34.721 1.75.48.41 1.076.616 1.785.616zm8.874.028c.588 0 1.122-.112 1.603-.336a2.86 2.86 0 0 0 1.155-.952c.056-.084.042-.159-.042-.224l-.868-.714a.134.134 0 0 0-.098-.042c-.056 0-.103.028-.14.084-.373.523-.877.784-1.512.784-.868-.01-1.414-.35-1.638-1.022-.056-.112-.098-.322-.126-.63 0-.047.023-.07.07-.07h4.382c.112 0 .168-.056.168-.168l.014-.434c0-.29-.019-.55-.056-.784-.233-1.923-1.27-2.884-3.108-2.884-.728 0-1.351.189-1.869.567-.518.378-.87.894-1.057 1.547-.112.336-.168.775-.168 1.316 0 .896.107 1.596.322 2.1a2.82 2.82 0 0 0 1.113 1.372c.509.327 1.127.49 1.855.49zm1.246-4.326h-2.842c-.056 0-.075-.023-.056-.07a2.43 2.43 0 0 1 .112-.616c.093-.308.254-.548.483-.721.229-.173.516-.259.861-.259.373 0 .684.093.931.28.247.187.413.448.497.784.037.121.065.299.084.532 0 .047-.023.07-.07.07z"/>
            <path d="m485.179 45.062-.485.875A3.482 3.482 0 0 0 483 45.5v-1c.772 0 1.518.195 2.179.562zm2.321 5.815h-1l-.002-1.993 1-.033.002.14v1.886zm0 6h-1v-2h1v2zm0 6h-1v-2h1v2zm0 6h-1v-2h1v2zm-1.989 5.858-.558-.83c.49-.33.892-.782 1.163-1.309l.89.457a4.518 4.518 0 0 1-1.495 1.682zm-6.265.765v-1h2v1h-2zm-6 0v-1h2v1h-2zm-6 0v-1h2v1h-2zm-6 0v-1h2v1h-2zm-6 0v-1h2v1h-2zm-6 0v-1h2v1h-2zm-6 0v-1h2v1h-2zm-6 0v-1h2v1h-2zm-6 0v-1h2v1h-2zm-6 0v-1h2v1h-2zm-6 0v-1h2v1h-2zm-6 0v-1h2v1h-2zm-6 0v-1h2v1h-2zm-6 0v-1h2v1h-2zm-6 0v-1h2v1h-2zm-6 0v-1h2v1h-2zm-6 0v-1h2v1h-2zm-6 0v-1h2v1h-2zm-6 0v-1h2v1h-2zm-6 0v-1h2v1h-2zm-6 0v-1h2v1h-2zm-5.454-2.904.934-.354c.21.553.56 1.045 1.011 1.428l-.646.763a4.508 4.508 0 0 1-1.3-1.837zm-.292-6.227h1v2h-1v-2zm0-6h1v2h-1v-2zm0-6h1v2h-1v-2zm.055-6.076.988.156a3.53 3.53 0 0 0-.043.551v1.369h-1V49c0-.238.019-.475.055-.707zm4.953-3.793.001 1h-.584c-.444.01-.875.102-1.276.27l-.387-.922a4.495 4.495 0 0 1 1.652-.347l.594-.001zm6 0v1h-2v-1h2zm6 0v1h-2v-1h2zm6 0v1h-2v-1h2zm6 0v1h-2v-1h2zm6 0v1h-2v-1h2zm6 0v1h-2v-1h2zm6 0v1h-2v-1h2zm6 0v1h-2v-1h2zm6 0v1h-2v-1h2zm6 0v1h-2v-1h2zm6 0v1h-2v-1h2zm6 0v1h-2v-1h2zm6 0v1h-2v-1h2zm6 0v1h-2v-1h2zm6 0v1h-2v-1h2zm6 0v1h-2v-1h2zm6 0v1h-2v-1h2zm6 0v1h-2v-1h2zm6 0v1h-2v-1h2zm6 0v1h-2v-1h2zm4.492 0v1h-.492v-1H483z" opacity=".4"/>
            <path d="M365.86 65c.08 0 .12-.04.12-.12l-.012-6.612c0-.024.008-.038.024-.042.016-.004.028.006.036.03l4.092 6.66c.04.056.088.084.144.084h.6c.08 0 .12-.04.12-.12v-8.16c0-.08-.04-.12-.12-.12h-.612c-.08 0-.12.04-.12.12l.012 6.612c0 .024-.008.038-.024.042-.016.004-.028-.006-.036-.03l-4.092-6.66c-.04-.056-.088-.084-.144-.084h-.6c-.08 0-.12.04-.12.12v8.16c0 .08.04.12.12.12h.612zm9.7.096c.575 0 1.07-.148 1.481-.444.412-.296.694-.704.846-1.224.112-.336.168-.828.168-1.476 0-.64-.056-1.132-.168-1.476a2.224 2.224 0 0 0-.846-1.2c-.412-.296-.902-.444-1.47-.444-.592 0-1.096.148-1.512.444-.416.296-.7.7-.852 1.212-.112.36-.168.848-.168 1.464s.056 1.108.168 1.476c.16.52.448.928.864 1.224.416.296.912.444 1.488.444zm0-.744c-.4 0-.739-.106-1.015-.318a1.492 1.492 0 0 1-.546-.858c-.064-.28-.096-.684-.096-1.212 0-.528.032-.932.096-1.212.096-.36.28-.646.552-.858.272-.212.604-.318.996-.318s.726.106 1.002.318c.276.212.462.498.558.858.064.28.096.684.096 1.212 0 .52-.036.924-.108 1.212-.096.36-.28.646-.552.858-.272.212-.6.318-.984.318zm5.127.648c.08 0 .12-.04.12-.12v-3.816c0-.44.136-.796.408-1.068.272-.272.628-.408 1.068-.408.424 0 .77.14 1.038.42.268.28.402.64.402 1.08v3.792c0 .08.04.12.12.12h.612c.08 0 .12-.04.12-.12v-3.96c0-.632-.19-1.136-.57-1.512-.38-.376-.89-.564-1.53-.564-.728 0-1.268.248-1.62.744-.008.016-.018.02-.03.012a.04.04 0 0 1-.018-.036v-.516c0-.08-.04-.12-.12-.12h-.612c-.08 0-.12.04-.12.12v5.832c0 .08.04.12.12.12h.612zm8.115.108c.52 0 .98-.11 1.38-.33.4-.22.7-.522.9-.906.032-.072.016-.128-.048-.168l-.468-.276c-.064-.04-.12-.024-.168.048-.144.28-.344.496-.6.648a1.706 1.706 0 0 1-.888.228c-.448 0-.816-.104-1.104-.312a1.435 1.435 0 0 1-.564-.852c-.032-.128-.056-.412-.072-.852 0-.032.016-.048.048-.048h3.876c.08 0 .12-.04.12-.12v-.384c0-.336-.016-.616-.048-.84-.096-.672-.34-1.192-.732-1.56-.392-.368-.952-.552-1.68-.552-.584 0-1.082.156-1.494.468a2.223 2.223 0 0 0-.822 1.248 2.618 2.618 0 0 0-.09.57c-.012.212-.018.486-.018.822 0 .72.072 1.272.216 1.656.168.472.444.84.828 1.104.384.264.86.4 1.428.408zm1.524-3.54h-3.108c-.032 0-.048-.016-.048-.048.016-.376.048-.648.096-.816.08-.344.25-.618.51-.822.26-.204.586-.306.978-.306.408 0 .746.106 1.014.318.268.212.446.498.534.858.032.152.056.408.072.768 0 .032-.016.048-.048.048zm8.18 3.528c.6 0 1.127-.116 1.583-.348a2.502 2.502 0 0 0 1.056-.99c.248-.428.372-.922.372-1.482v-5.532a.139.139 0 0 0-.042-.102.139.139 0 0 0-.102-.042h-1.104a.139.139 0 0 0-.102.042.139.139 0 0 0-.042.102V62.3c0 .472-.148.856-.444 1.152-.296.296-.688.444-1.176.444s-.88-.148-1.176-.444c-.296-.296-.444-.68-.444-1.152v-5.556a.139.139 0 0 0-.042-.102.139.139 0 0 0-.102-.042h-1.104a.139.139 0 0 0-.102.042.139.139 0 0 0-.042.102v5.532c0 .56.126 1.054.378 1.482a2.54 2.54 0 0 0 1.062.99c.456.232.98.348 1.572.348zm5.979-.096c.04 0 .074-.014.102-.042a.139.139 0 0 0 .042-.102v-3.66c0-.368.106-.664.318-.888.212-.224.49-.336.834-.336s.62.114.828.342c.208.228.312.526.312.894v3.648c0 .04.014.074.042.102a.139.139 0 0 0 .102.042h1.104c.04 0 .074-.014.102-.042a.139.139 0 0 0 .042-.102V60.92c0-.664-.194-1.188-.582-1.572-.388-.384-.906-.576-1.554-.576-.664 0-1.16.216-1.488.648-.008.024-.02.032-.036.024-.016-.008-.024-.024-.024-.048v-.384a.139.139 0 0 0-.042-.102.139.139 0 0 0-.102-.042h-1.104a.139.139 0 0 0-.102.042.139.139 0 0 0-.042.102v5.844c0 .04.014.074.042.102a.139.139 0 0 0 .102.042h1.104zm6.243-6.972c.248 0 .452-.08.612-.24.16-.16.24-.364.24-.612a.829.829 0 0 0-.24-.612.829.829 0 0 0-.612-.24.829.829 0 0 0-.612.24.829.829 0 0 0-.24.612c0 .248.08.452.24.612.16.16.364.24.612.24zm.528 6.972c.04 0 .074-.014.102-.042a.139.139 0 0 0 .042-.102V59a.139.139 0 0 0-.042-.102.139.139 0 0 0-.102-.042h-1.104a.139.139 0 0 0-.102.042.139.139 0 0 0-.042.102v5.856c0 .04.014.074.042.102a.139.139 0 0 0 .102.042h1.104zm4.3.024.623-.012c.096-.016.144-.068.144-.156v-.9a.139.139 0 0 0-.042-.102.139.139 0 0 0-.102-.042h-.36c-.288 0-.498-.068-.63-.204-.132-.136-.198-.356-.198-.66v-2.892c0-.04.02-.06.06-.06h1.224c.04 0 .074-.014.102-.042a.139.139 0 0 0 .042-.102v-.84a.139.139 0 0 0-.042-.102.139.139 0 0 0-.102-.042h-1.224c-.04 0-.06-.02-.06-.06v-1.404a.139.139 0 0 0-.042-.102.139.139 0 0 0-.102-.042h-1.044a.139.139 0 0 0-.102.042.139.139 0 0 0-.042.102v1.404c0 .04-.02.06-.06.06h-.684a.139.139 0 0 0-.102.042.139.139 0 0 0-.042.102v.84c0 .04.014.074.042.102a.139.139 0 0 0 .102.042h.684c.04 0 .06.02.06.06v3.42c.008.6.168 1.008.48 1.224.312.216.784.324 1.416.324zm6.15-.024c.04 0 .074-.014.102-.042a.139.139 0 0 0 .042-.102v-3.228c0-.04.02-.06.06-.06h1.92c.52 0 .978-.102 1.374-.306a2.19 2.19 0 0 0 .918-.87c.216-.376.324-.808.324-1.296 0-.496-.106-.934-.318-1.314a2.207 2.207 0 0 0-.894-.882c-.384-.208-.828-.312-1.332-.312h-3.3a.139.139 0 0 0-.102.042.139.139 0 0 0-.042.102v8.124c0 .04.014.074.042.102a.139.139 0 0 0 .102.042h1.104zm1.992-4.56h-1.788c-.04 0-.06-.02-.06-.06v-2.532c0-.04.02-.06.06-.06h1.788c.408 0 .736.124.984.372s.372.572.372.972c0 .392-.124.708-.372.948s-.576.36-.984.36zm5.26 4.56c.04 0 .074-.014.102-.042a.139.139 0 0 0 .042-.102V61.46c0-.352.112-.638.336-.858a1.24 1.24 0 0 1 .84-.354c.056-.008.136-.012.24-.012.16 0 .3.02.42.06.104.04.16.012.168-.084l.204-1.08c.016-.088-.008-.148-.072-.18a1.39 1.39 0 0 0-.672-.156c-.6 0-1.068.26-1.404.78-.016.024-.03.034-.042.03-.012-.004-.018-.022-.018-.054v-.54a.139.139 0 0 0-.042-.102.139.139 0 0 0-.102-.042h-1.104a.139.139 0 0 0-.102.042.139.139 0 0 0-.042.102v5.844c0 .04.014.074.042.102a.139.139 0 0 0 .102.042h1.104zm4.227-6.972c.248 0 .452-.08.612-.24.16-.16.24-.364.24-.612a.829.829 0 0 0-.24-.612.829.829 0 0 0-.612-.24.829.829 0 0 0-.612.24.829.829 0 0 0-.24.612c0 .248.08.452.24.612.16.16.364.24.612.24zm.528 6.972c.04 0 .074-.014.102-.042a.139.139 0 0 0 .042-.102V59a.139.139 0 0 0-.042-.102.139.139 0 0 0-.102-.042h-1.104a.139.139 0 0 0-.102.042.139.139 0 0 0-.042.102v5.856c0 .04.014.074.042.102a.139.139 0 0 0 .102.042h1.104zm4.468.096c.624 0 1.168-.15 1.632-.45.464-.3.772-.706.924-1.218.016-.056.036-.148.06-.276.008-.048-.002-.086-.03-.114a.195.195 0 0 0-.102-.054l-1.08-.168c-.088-.016-.144.024-.168.12 0 .016-.004.028-.012.036a.134.134 0 0 1-.012.06 1.052 1.052 0 0 1-.426.63c-.22.156-.482.234-.786.234-.312 0-.572-.082-.78-.246a1.263 1.263 0 0 1-.432-.666c-.072-.272-.108-.628-.108-1.068 0-.456.04-.812.12-1.068.072-.272.214-.486.426-.642a1.27 1.27 0 0 1 .774-.234c.296 0 .552.072.768.216.216.144.36.328.432.552.016.048.032.104.048.168a.312.312 0 0 1 .012.096c.024.08.072.12.144.12h.024l1.08-.156c.088-.016.132-.064.132-.144V60.8a2.2 2.2 0 0 0-.084-.384c-.152-.472-.46-.864-.924-1.176-.464-.312-1.008-.468-1.632-.468-.616 0-1.15.154-1.602.462a2.33 2.33 0 0 0-.93 1.254c-.128.368-.192.84-.192 1.416 0 .6.064 1.08.192 1.44.176.536.488.962.936 1.278.448.316.98.474 1.596.474zm6.603.012c.504 0 .962-.096 1.374-.288.412-.192.742-.464.99-.816.048-.072.036-.136-.036-.192l-.744-.612a.115.115 0 0 0-.084-.036c-.048 0-.088.024-.12.072-.32.448-.752.672-1.296.672-.744-.008-1.212-.3-1.404-.876-.048-.096-.084-.276-.108-.54 0-.04.02-.06.06-.06h3.756c.096 0 .144-.048.144-.144l.012-.372c0-.248-.016-.472-.048-.672-.2-1.648-1.088-2.472-2.664-2.472-.624 0-1.158.162-1.602.486a2.407 2.407 0 0 0-.906 1.326c-.096.288-.144.664-.144 1.128 0 .768.092 1.368.276 1.8.2.504.518.896.954 1.176.436.28.966.42 1.59.42zm1.068-3.708h-2.436c-.048 0-.064-.02-.048-.06.016-.216.048-.392.096-.528.08-.264.218-.47.414-.618.196-.148.442-.222.738-.222.32 0 .586.08.798.24.212.16.354.384.426.672.032.104.056.256.072.456 0 .04-.02.06-.06.06zM364 65.3v.6h28.138v-.6z"/>
        </g>
        <path d="m348.498 56.407 6 3.375.387.218-.387.218-6 3.375-.246-.436 5.167-2.907h-58.316l-39.926 39.927-.354-.354 40-40 .177-.073h58.422l-5.17-2.907.246-.436z" fill="#FFF" fill-rule="nonzero" opacity=".5"/>
    </g>
</svg>
