<svg width="543" height="212" xmlns="http://www.w3.org/2000/svg">
    <g fill="none" fill-rule="evenodd">
        <g transform="translate(0 3.4)">
            <path fill="#FFF" opacity=".1" d="M0 167.6h252v1.206H0zM.091 130.953h252v1h-252zM.091 94.776h252v1h-252zM0 58.6h252v1H0z"/>
            <path fill="#FFF" opacity=".1" d="M252.193 58.703v110h-1.206v-110z"/>
            <path d="M103.228 186.6c.067 0 .1-.034.1-.1v-.42c0-.067-.033-.1-.1-.1h-3.14c-.033 0-.04-.017-.02-.05l.22-.26c.934-1.127 1.564-1.9 1.89-2.32.627-.8.94-1.484.94-2.05 0-.34-.083-.645-.25-.915a1.71 1.71 0 0 0-.71-.635 2.34 2.34 0 0 0-1.06-.23c-.566 0-1.035.156-1.405.47-.37.313-.561.726-.575 1.24v.4c0 .066.034.1.1.1h.52c.067 0 .1-.034.1-.1v-.31c-.006-.354.107-.639.34-.855.234-.217.54-.325.92-.325.387 0 .7.106.94.32.24.213.36.496.36.85 0 .44-.313 1.056-.94 1.85l-.74.92c-.793.986-1.303 1.613-1.53 1.88a.164.164 0 0 0-.05.12v.42c0 .066.034.1.1.1h3.99zm3.457.08c.58 0 1.05-.162 1.41-.485.36-.324.54-.759.54-1.305v-3.12c0-.36-.04-.674-.12-.94a1.767 1.767 0 0 0-.685-.955c-.33-.23-.735-.345-1.215-.345-.453 0-.835.106-1.145.32-.31.213-.535.513-.675.9-.1.26-.15.593-.15 1 0 .48.07.86.21 1.14.147.34.362.603.645.79.283.186.635.28 1.055.28.587 0 1.027-.197 1.32-.59.007-.014.017-.019.03-.015.013.003.02.011.02.025v1.46c0 .366-.117.661-.35.885-.233.223-.53.335-.89.335-.347 0-.63-.107-.85-.32-.22-.214-.33-.49-.33-.83v-.08c0-.067-.033-.1-.1-.1h-.51c-.067 0-.1.033-.1.1v.14c0 .506.175.918.525 1.235.35.316.805.475 1.365.475zm-.04-3.34c-.293 0-.54-.072-.74-.215-.2-.144-.34-.335-.42-.575-.087-.194-.13-.46-.13-.8 0-.32.037-.574.11-.76.087-.274.233-.482.44-.625.207-.144.453-.215.74-.215.3 0 .553.076.76.23.207.153.35.356.43.61.06.2.09.443.09.73 0 .346-.037.616-.11.81-.08.253-.222.451-.425.595a1.26 1.26 0 0 1-.745.215zM62.933 186.68c.467 0 .859-.109 1.175-.325.317-.217.542-.525.675-.925.1-.28.15-.604.15-.97 0-.454-.066-.844-.2-1.17-.26-.627-.746-.964-1.46-1.01-.02 0-.033-.005-.04-.015-.006-.01-.003-.022.01-.035l1.6-1.92c.034-.047.05-.087.05-.12v-.49c0-.067-.033-.1-.1-.1h-3.7c-.066 0-.1.033-.1.1v.42c0 .066.034.1.1.1h2.82c.034 0 .04.016.02.05l-1.76 2.06c-.04.04-.043.086-.01.14l.26.35c.02.033.044.05.07.05a.154.154 0 0 0 .06-.02.868.868 0 0 1 .37-.11c.54 0 .917.24 1.13.72.107.253.16.58.16.98 0 .326-.04.6-.12.82-.18.533-.57.8-1.17.8-.313 0-.575-.085-.785-.255a1.255 1.255 0 0 1-.425-.695 4.248 4.248 0 0 1-.07-.54c0-.067-.033-.1-.1-.1h-.51c-.066 0-.1.033-.1.1.014.32.05.573.11.76.127.413.357.741.69.985.334.243.734.365 1.2.365zm5.627.02c.647 0 1.163-.184 1.55-.55.387-.367.58-.857.58-1.47v-3.16c0-.607-.193-1.094-.58-1.46-.387-.367-.903-.55-1.55-.55-.64 0-1.15.181-1.53.545-.38.363-.57.851-.57 1.465v3.16c0 .613.19 1.103.57 1.47.38.366.89.55 1.53.55zm0-.62c-.42 0-.757-.124-1.01-.37-.253-.247-.38-.577-.38-.99v-3.23c0-.407.127-.734.38-.98.253-.247.59-.37 1.01-.37.433 0 .778.123 1.035.37.257.246.385.573.385.98v3.23c0 .413-.13.743-.39.99-.26.246-.603.37-1.03.37zM22.043 186.68c.467 0 .859-.109 1.175-.325.317-.217.542-.525.675-.925.1-.28.15-.604.15-.97 0-.454-.066-.844-.2-1.17-.26-.627-.746-.964-1.46-1.01-.02 0-.033-.005-.04-.015-.006-.01-.003-.022.01-.035l1.6-1.92c.034-.047.05-.087.05-.12v-.49c0-.067-.033-.1-.1-.1h-3.7c-.066 0-.1.033-.1.1v.42c0 .066.034.1.1.1h2.82c.034 0 .04.016.02.05l-1.76 2.06c-.04.04-.043.086-.01.14l.26.35c.02.033.044.05.07.05a.154.154 0 0 0 .06-.02.868.868 0 0 1 .37-.11c.54 0 .917.24 1.13.72.107.253.16.58.16.98 0 .326-.04.6-.12.82-.18.533-.57.8-1.17.8-.313 0-.575-.085-.785-.255a1.255 1.255 0 0 1-.425-.695 4.248 4.248 0 0 1-.07-.54c0-.067-.033-.1-.1-.1h-.51c-.066 0-.1.033-.1.1.014.32.05.573.11.76.127.413.357.741.69.985.334.243.734.365 1.2.365zm5.217-.08c.067 0 .1-.034.1-.1v-6.8c0-.067-.033-.1-.1-.1h-.54c-.047 0-.09.01-.13.03l-1.15.61c-.047.033-.07.066-.07.1v.02l.05.38c.013.053.04.08.08.08l.04-.01 1.06-.43c.013-.007.025-.007.035 0 .01.006.015.016.015.03v6.09c0 .066.033.1.1.1h.51zM142.228 186.6c.067 0 .1-.034.1-.1v-.42c0-.067-.033-.1-.1-.1h-3.14c-.033 0-.04-.017-.02-.05l.22-.26c.934-1.127 1.564-1.9 1.89-2.32.627-.8.94-1.484.94-2.05 0-.34-.083-.645-.25-.915a1.71 1.71 0 0 0-.71-.635 2.34 2.34 0 0 0-1.06-.23c-.566 0-1.035.156-1.405.47-.37.313-.561.726-.575 1.24v.4c0 .066.034.1.1.1h.52c.067 0 .1-.034.1-.1v-.31c-.006-.354.107-.639.34-.855.234-.217.54-.325.92-.325.387 0 .7.106.94.32.24.213.36.496.36.85 0 .44-.313 1.056-.94 1.85l-.74.92a120.38 120.38 0 0 1-1.53 1.88.164.164 0 0 0-.05.12v.42c0 .066.034.1.1.1h3.99zm3.457.08a2.17 2.17 0 0 0 1.02-.23 1.66 1.66 0 0 0 .68-.64c.193-.32.29-.71.29-1.17 0-.38-.063-.707-.19-.98a1.466 1.466 0 0 0-.73-.78c-.033-.014-.033-.03 0-.05.233-.147.41-.31.53-.49.2-.3.3-.634.3-1 0-.367-.097-.707-.29-1.02a1.647 1.647 0 0 0-.65-.605 2.039 2.039 0 0 0-.96-.215c-.353 0-.672.071-.955.215a1.623 1.623 0 0 0-.665.605c-.2.306-.3.646-.3 1.02 0 .366.1.693.3.98.14.213.32.383.54.51.033.02.033.036 0 .05a1.535 1.535 0 0 0-.73.75c-.14.313-.21.646-.21 1 0 .42.093.796.28 1.13.16.3.39.528.69.685.3.156.65.235 1.05.235zm-.01-4.1a1.27 1.27 0 0 1-.585-.13 1.056 1.056 0 0 1-.415-.38 1.27 1.27 0 0 1-.05-1.32 1.139 1.139 0 0 1 1.04-.63c.247 0 .46.055.64.165.18.11.32.258.42.445.1.18.15.38.15.6 0 .306-.063.55-.19.73a1.084 1.084 0 0 1-.42.385c-.173.09-.37.135-.59.135zm.01 3.48c-.487 0-.843-.184-1.07-.55-.147-.234-.22-.537-.22-.91 0-.36.06-.647.18-.86.207-.414.573-.62 1.1-.62.553 0 .93.22 1.13.66.107.226.16.496.16.81 0 .38-.083.696-.25.95-.213.346-.557.52-1.03.52zM182.968 186.6c.067 0 .1-.034.1-.1v-.42c0-.067-.033-.1-.1-.1h-3.14c-.033 0-.04-.017-.02-.05l.22-.26c.934-1.127 1.564-1.9 1.89-2.32.627-.8.94-1.484.94-2.05 0-.34-.083-.645-.25-.915a1.71 1.71 0 0 0-.71-.635 2.34 2.34 0 0 0-1.06-.23c-.566 0-1.035.156-1.405.47-.37.313-.561.726-.575 1.24v.4c0 .066.034.1.1.1h.52c.067 0 .1-.034.1-.1v-.31c-.006-.354.107-.639.34-.855.234-.217.54-.325.92-.325.387 0 .7.106.94.32.24.213.36.496.36.85 0 .44-.313 1.056-.94 1.85l-.74.92a120.38 120.38 0 0 1-1.53 1.88.164.164 0 0 0-.05.12v.42c0 .066.034.1.1.1h3.99zm2.917 0c.06 0 .1-.027.12-.08l2.3-6.24a.547.547 0 0 0 .02-.12v-.46c0-.067-.033-.1-.1-.1h-3.94c-.067 0-.1.033-.1.1l-.01 1.02c0 .066.033.1.1.1h.41c.067 0 .1-.034.1-.1v-.46c0-.027.013-.04.04-.04h2.7c.013 0 .023.005.03.015.007.01.007.021 0 .035l-2.31 6.21c-.013.033-.012.061.005.085.017.023.042.035.075.035h.56z" fill="#FFF" fill-rule="nonzero" opacity=".6"/>
            <rect fill-opacity=".1" fill="#FFF" x="13" y="172.6" width="231" height="20" rx="4"/>
            <path d="M228.758 186.6c.067 0 .1-.034.1-.1v-.42c0-.067-.033-.1-.1-.1h-3.14c-.033 0-.04-.017-.02-.05l.22-.26c.934-1.127 1.564-1.9 1.89-2.32.627-.8.94-1.484.94-2.05 0-.34-.083-.645-.25-.915a1.71 1.71 0 0 0-.71-.635 2.34 2.34 0 0 0-1.06-.23c-.566 0-1.035.156-1.405.47-.37.313-.561.726-.575 1.24v.4c0 .066.034.1.1.1h.52c.067 0 .1-.034.1-.1v-.31c-.006-.354.107-.639.34-.855.234-.217.54-.325.92-.325.387 0 .7.106.94.32.24.213.36.496.36.85 0 .44-.313 1.056-.94 1.85l-.74.92a120.38 120.38 0 0 1-1.53 1.88.164.164 0 0 0-.05.12v.42c0 .066.034.1.1.1h3.99zm3.517.07c.46 0 .843-.107 1.15-.32.307-.214.53-.514.67-.9.107-.254.16-.587.16-1 0-.46-.07-.84-.21-1.14a1.746 1.746 0 0 0-.645-.79c-.283-.187-.635-.28-1.055-.28-.593 0-1.037.2-1.33.6-.007.013-.017.018-.03.015-.013-.004-.02-.012-.02-.025v-1.47c0-.367.117-.662.35-.885.233-.224.53-.335.89-.335.347 0 .63.106.85.32.22.213.33.49.33.83v.08c0 .066.033.1.1.1h.51c.067 0 .1-.034.1-.1v-.14c0-.514-.173-.927-.52-1.24-.347-.314-.803-.47-1.37-.47-.58 0-1.05.161-1.41.485-.36.323-.54.758-.54 1.305v3.12c0 .36.04.673.12.94a1.8 1.8 0 0 0 .69.96c.327.226.73.34 1.21.34zm-.02-.62c-.307 0-.562-.077-.765-.23a1.193 1.193 0 0 1-.425-.61 2.269 2.269 0 0 1-.1-.73c0-.334.04-.604.12-.81.08-.254.22-.452.42-.595.2-.144.447-.215.74-.215s.54.07.74.21c.2.14.34.333.42.58.093.186.14.453.14.8 0 .3-.04.553-.12.76a1.11 1.11 0 0 1-.43.625 1.266 1.266 0 0 1-.74.215zM264.03 172.53c.067 0 .1-.034.1-.1l-.01-.72c0-.027.013-.04.04-.04.593-.06 1.055-.254 1.385-.58.33-.327.495-.744.495-1.25 0-.36-.085-.665-.255-.915a2.187 2.187 0 0 0-.68-.635 9.27 9.27 0 0 0-1.115-.56 11.664 11.664 0 0 1-1.005-.455 1.49 1.49 0 0 1-.5-.41.97.97 0 0 1-.175-.595c0-.367.12-.647.36-.84.24-.194.583-.29 1.03-.29.507 0 .903.123 1.19.37.287.246.43.563.43.95v.18c0 .066.033.1.1.1h.47c.067 0 .1-.034.1-.1v-.22c0-.52-.167-.947-.5-1.28-.333-.334-.793-.534-1.38-.6-.027 0-.04-.014-.04-.04l.01-.79c0-.067-.033-.1-.1-.1h-.43c-.067 0-.1.033-.1.1l.01.78c0 .026-.013.04-.04.04-.553.053-.987.231-1.3.535-.313.303-.47.711-.47 1.225 0 .36.082.658.245.895.163.236.373.43.63.58.257.15.625.325 1.105.525.447.193.79.363 1.03.51.24.146.418.303.535.47.117.166.175.366.175.6 0 .36-.127.648-.38.865-.253.216-.62.325-1.1.325-.533 0-.952-.119-1.255-.355a1.129 1.129 0 0 1-.455-.935v-.27c0-.067-.033-.1-.1-.1h-.45c-.067 0-.1.033-.1.1v.31c0 .513.17.935.51 1.265.34.33.813.528 1.42.595.027 0 .04.013.04.04l-.01.72c0 .066.033.1.1.1h.44zm5.197-.93c.066 0 .1-.034.1-.1v-6.8c0-.067-.034-.1-.1-.1h-.54c-.047 0-.09.01-.13.03l-1.15.61c-.047.033-.07.066-.07.1v.02l.05.38c.013.053.04.08.08.08l.04-.01 1.06-.43c.013-.007.025-.007.035 0 .01.006.015.016.015.03v6.09c0 .066.033.1.1.1h.51zm2.276.79c.06 0 .097-.03.11-.09l.56-2.14c.007-.034.002-.06-.015-.08-.016-.02-.041-.03-.075-.03h-.44c-.06 0-.096.03-.11.09l-.44 2.14c-.006.033-.001.06.015.08.017.02.042.03.075.03h.32zm4.197-.69c.647 0 1.163-.184 1.55-.55.387-.367.58-.857.58-1.47v-3.16c0-.607-.193-1.094-.58-1.46-.387-.367-.903-.55-1.55-.55-.64 0-1.15.181-1.53.545-.38.363-.57.851-.57 1.465v3.16c0 .613.19 1.103.57 1.47.38.366.89.55 1.53.55zm0-.62c-.42 0-.757-.124-1.01-.37-.253-.247-.38-.577-.38-.99v-3.23c0-.407.127-.734.38-.98.253-.247.59-.37 1.01-.37.433 0 .778.123 1.035.37.257.246.385.573.385.98v3.23c0 .413-.13.743-.39.99-.26.246-.603.37-1.03.37zm5.817.62c.646 0 1.163-.184 1.55-.55.386-.367.58-.857.58-1.47v-3.16c0-.607-.194-1.094-.58-1.46-.387-.367-.904-.55-1.55-.55-.64 0-1.15.181-1.53.545-.38.363-.57.851-.57 1.465v3.16c0 .613.19 1.103.57 1.47.38.366.89.55 1.53.55zm0-.62c-.42 0-.757-.124-1.01-.37-.254-.247-.38-.577-.38-.99v-3.23c0-.407.126-.734.38-.98.253-.247.59-.37 1.01-.37.433 0 .778.123 1.035.37.256.246.385.573.385.98v3.23c0 .413-.13.743-.39.99-.26.246-.604.37-1.03.37zm5.816.62c.647 0 1.164-.184 1.55-.55.387-.367.58-.857.58-1.47v-3.16c0-.607-.193-1.094-.58-1.46-.386-.367-.903-.55-1.55-.55-.64 0-1.15.181-1.53.545-.38.363-.57.851-.57 1.465v3.16c0 .613.19 1.103.57 1.47.38.366.89.55 1.53.55zm0-.62c-.42 0-.756-.124-1.01-.37-.253-.247-.38-.577-.38-.99v-3.23c0-.407.127-.734.38-.98.254-.247.59-.37 1.01-.37.434 0 .779.123 1.035.37.257.246.385.573.385.98v3.23c0 .413-.13.743-.39.99-.26.246-.603.37-1.03.37zM264.03 135.53c.067 0 .1-.034.1-.1l-.01-.72c0-.027.013-.04.04-.04.593-.06 1.055-.254 1.385-.58.33-.327.495-.744.495-1.25 0-.36-.085-.665-.255-.915a2.187 2.187 0 0 0-.68-.635 9.27 9.27 0 0 0-1.115-.56 11.664 11.664 0 0 1-1.005-.455 1.49 1.49 0 0 1-.5-.41.97.97 0 0 1-.175-.595c0-.367.12-.647.36-.84.24-.194.583-.29 1.03-.29.507 0 .903.123 1.19.37.287.246.43.563.43.95v.18c0 .066.033.1.1.1h.47c.067 0 .1-.034.1-.1v-.22c0-.52-.167-.947-.5-1.28-.333-.334-.793-.534-1.38-.6-.027 0-.04-.014-.04-.04l.01-.79c0-.067-.033-.1-.1-.1h-.43c-.067 0-.1.033-.1.1l.01.78c0 .026-.013.04-.04.04-.553.053-.987.231-1.3.535-.313.303-.47.711-.47 1.225 0 .36.082.658.245.895.163.236.373.43.63.58.257.15.625.325 1.105.525.447.193.79.363 1.03.51.24.146.418.303.535.47.117.166.175.366.175.6 0 .36-.127.648-.38.865-.253.216-.62.325-1.1.325-.533 0-.952-.119-1.255-.355a1.129 1.129 0 0 1-.455-.935v-.27c0-.067-.033-.1-.1-.1h-.45c-.067 0-.1.033-.1.1v.31c0 .513.17.935.51 1.265.34.33.813.528 1.42.595.027 0 .04.013.04.04l-.01.72c0 .066.033.1.1.1h.44zm7.407-.93c.066 0 .1-.034.1-.1v-.42c0-.067-.034-.1-.1-.1h-3.14c-.034 0-.04-.017-.02-.05l.22-.26c.933-1.127 1.563-1.9 1.89-2.32.626-.8.94-1.484.94-2.05 0-.34-.084-.645-.25-.915a1.71 1.71 0 0 0-.71-.635 2.34 2.34 0 0 0-1.06-.23c-.567 0-1.035.156-1.405.47-.37.313-.562.726-.575 1.24v.4c0 .066.033.1.1.1h.52c.066 0 .1-.034.1-.1v-.31c-.007-.354.106-.639.34-.855.233-.217.54-.325.92-.325.386 0 .7.106.94.32.24.213.36.496.36.85 0 .44-.314 1.056-.94 1.85l-.74.92c-.794.986-1.304 1.613-1.53 1.88a.164.164 0 0 0-.05.12v.42c0 .066.033.1.1.1h3.99zm1.926.79c.06 0 .097-.03.11-.09l.56-2.14c.007-.034.002-.06-.015-.08-.016-.02-.041-.03-.075-.03h-.44c-.06 0-.096.03-.11.09l-.44 2.14c-.006.033-.001.06.015.08.017.02.042.03.075.03h.32zm4.197-.69c.647 0 1.163-.184 1.55-.55.387-.367.58-.857.58-1.47v-3.16c0-.607-.193-1.094-.58-1.46-.387-.367-.903-.55-1.55-.55-.64 0-1.15.181-1.53.545-.38.363-.57.851-.57 1.465v3.16c0 .613.19 1.103.57 1.47.38.366.89.55 1.53.55zm0-.62c-.42 0-.757-.124-1.01-.37-.253-.247-.38-.577-.38-.99v-3.23c0-.407.127-.734.38-.98.253-.247.59-.37 1.01-.37.433 0 .778.123 1.035.37.257.246.385.573.385.98v3.23c0 .413-.13.743-.39.99-.26.246-.603.37-1.03.37zm5.817.62c.646 0 1.163-.184 1.55-.55.386-.367.58-.857.58-1.47v-3.16c0-.607-.194-1.094-.58-1.46-.387-.367-.904-.55-1.55-.55-.64 0-1.15.181-1.53.545-.38.363-.57.851-.57 1.465v3.16c0 .613.19 1.103.57 1.47.38.366.89.55 1.53.55zm0-.62c-.42 0-.757-.124-1.01-.37-.254-.247-.38-.577-.38-.99v-3.23c0-.407.126-.734.38-.98.253-.247.59-.37 1.01-.37.433 0 .778.123 1.035.37.256.246.385.573.385.98v3.23c0 .413-.13.743-.39.99-.26.246-.604.37-1.03.37zm5.816.62c.647 0 1.164-.184 1.55-.55.387-.367.58-.857.58-1.47v-3.16c0-.607-.193-1.094-.58-1.46-.386-.367-.903-.55-1.55-.55-.64 0-1.15.181-1.53.545-.38.363-.57.851-.57 1.465v3.16c0 .613.19 1.103.57 1.47.38.366.89.55 1.53.55zm0-.62c-.42 0-.756-.124-1.01-.37-.253-.247-.38-.577-.38-.99v-3.23c0-.407.127-.734.38-.98.254-.247.59-.37 1.01-.37.434 0 .779.123 1.035.37.257.246.385.573.385.98v3.23c0 .413-.13.743-.39.99-.26.246-.603.37-1.03.37zM264.03 99.53c.067 0 .1-.034.1-.1l-.01-.72c0-.027.013-.04.04-.04.593-.06 1.055-.254 1.385-.58.33-.327.495-.744.495-1.25 0-.36-.085-.665-.255-.915a2.187 2.187 0 0 0-.68-.635 9.27 9.27 0 0 0-1.115-.56 11.664 11.664 0 0 1-1.005-.455 1.49 1.49 0 0 1-.5-.41.97.97 0 0 1-.175-.595c0-.367.12-.647.36-.84.24-.194.583-.29 1.03-.29.507 0 .903.123 1.19.37.287.246.43.563.43.95v.18c0 .066.033.1.1.1h.47c.067 0 .1-.034.1-.1v-.22c0-.52-.167-.947-.5-1.28-.333-.334-.793-.534-1.38-.6-.027 0-.04-.014-.04-.04l.01-.79c0-.067-.033-.1-.1-.1h-.43c-.067 0-.1.033-.1.1l.01.78c0 .026-.013.04-.04.04-.553.053-.987.231-1.3.535-.313.303-.47.711-.47 1.225 0 .36.082.658.245.895.163.236.373.43.63.58.257.15.625.325 1.105.525.447.193.79.363 1.03.51.24.146.418.303.535.47.117.166.175.366.175.6 0 .36-.127.648-.38.865-.253.216-.62.325-1.1.325-.533 0-.952-.119-1.255-.355a1.129 1.129 0 0 1-.455-.935v-.27c0-.067-.033-.1-.1-.1h-.45c-.067 0-.1.033-.1.1v.31c0 .513.17.935.51 1.265.34.33.813.528 1.42.595.027 0 .04.013.04.04l-.01.72c0 .066.033.1.1.1h.44zm5.227-.85c.466 0 .858-.109 1.175-.325.316-.217.541-.525.675-.925.1-.28.15-.604.15-.97 0-.454-.067-.844-.2-1.17-.26-.627-.747-.964-1.46-1.01-.02 0-.034-.005-.04-.015-.007-.01-.004-.022.01-.035l1.6-1.92c.033-.047.05-.087.05-.12v-.49c0-.067-.034-.1-.1-.1h-3.7c-.067 0-.1.033-.1.1v.42c0 .066.033.1.1.1h2.82c.033 0 .04.016.02.05l-1.76 2.06c-.04.04-.044.086-.01.14l.26.35c.02.033.043.05.07.05a.154.154 0 0 0 .06-.02.868.868 0 0 1 .37-.11c.54 0 .916.24 1.13.72.106.253.16.58.16.98 0 .326-.04.6-.12.82-.18.533-.57.8-1.17.8-.314 0-.575-.085-.785-.255a1.255 1.255 0 0 1-.425-.695 4.248 4.248 0 0 1-.07-.54c0-.067-.034-.1-.1-.1h-.51c-.067 0-.1.033-.1.1.013.32.05.573.11.76.126.413.356.741.69.985.333.243.733.365 1.2.365zm3.896.71c.06 0 .097-.03.11-.09l.56-2.14c.007-.034.002-.06-.015-.08-.016-.02-.041-.03-.075-.03h-.44c-.06 0-.096.03-.11.09l-.44 2.14c-.006.033-.001.06.015.08.017.02.042.03.075.03h.32zm4.197-.69c.647 0 1.163-.184 1.55-.55.387-.367.58-.857.58-1.47v-3.16c0-.607-.193-1.094-.58-1.46-.387-.367-.903-.55-1.55-.55-.64 0-1.15.181-1.53.545-.38.363-.57.851-.57 1.465v3.16c0 .613.19 1.103.57 1.47.38.366.89.55 1.53.55zm0-.62c-.42 0-.757-.124-1.01-.37-.253-.247-.38-.577-.38-.99v-3.23c0-.407.127-.734.38-.98.253-.247.59-.37 1.01-.37.433 0 .778.123 1.035.37.257.246.385.573.385.98v3.23c0 .413-.13.743-.39.99-.26.246-.603.37-1.03.37zm5.817.62c.646 0 1.163-.184 1.55-.55.386-.367.58-.857.58-1.47v-3.16c0-.607-.194-1.094-.58-1.46-.387-.367-.904-.55-1.55-.55-.64 0-1.15.181-1.53.545-.38.363-.57.851-.57 1.465v3.16c0 .613.19 1.103.57 1.47.38.366.89.55 1.53.55zm0-.62c-.42 0-.757-.124-1.01-.37-.254-.247-.38-.577-.38-.99v-3.23c0-.407.126-.734.38-.98.253-.247.59-.37 1.01-.37.433 0 .778.123 1.035.37.256.246.385.573.385.98v3.23c0 .413-.13.743-.39.99-.26.246-.604.37-1.03.37zm5.816.62c.647 0 1.164-.184 1.55-.55.387-.367.58-.857.58-1.47v-3.16c0-.607-.193-1.094-.58-1.46-.386-.367-.903-.55-1.55-.55-.64 0-1.15.181-1.53.545-.38.363-.57.851-.57 1.465v3.16c0 .613.19 1.103.57 1.47.38.366.89.55 1.53.55zm0-.62c-.42 0-.756-.124-1.01-.37-.253-.247-.38-.577-.38-.99v-3.23c0-.407.127-.734.38-.98.254-.247.59-.37 1.01-.37.434 0 .779.123 1.035.37.257.246.385.573.385.98v3.23c0 .413-.13.743-.39.99-.26.246-.603.37-1.03.37z" fill="#FFF" fill-rule="nonzero" opacity=".6"/>
            <rect fill-opacity=".1" fill="#FFF" x="257" y="48.6" width="39" height="128" rx="4"/>
            <path d="M264.03 63.53c.067 0 .1-.034.1-.1l-.01-.72c0-.027.013-.04.04-.04.593-.06 1.055-.254 1.385-.58.33-.327.495-.744.495-1.25 0-.36-.085-.665-.255-.915a2.187 2.187 0 0 0-.68-.635 9.27 9.27 0 0 0-1.115-.56 11.664 11.664 0 0 1-1.005-.455 1.49 1.49 0 0 1-.5-.41.97.97 0 0 1-.175-.595c0-.367.12-.647.36-.84.24-.194.583-.29 1.03-.29.507 0 .903.123 1.19.37.287.246.43.563.43.95v.18c0 .066.033.1.1.1h.47c.067 0 .1-.034.1-.1v-.22c0-.52-.167-.947-.5-1.28-.333-.334-.793-.534-1.38-.6-.027 0-.04-.014-.04-.04l.01-.79c0-.067-.033-.1-.1-.1h-.43c-.067 0-.1.033-.1.1l.01.78c0 .026-.013.04-.04.04-.553.053-.987.231-1.3.535-.313.303-.47.711-.47 1.225 0 .36.082.658.245.895.163.236.373.43.63.58.257.15.625.325 1.105.525.447.193.79.363 1.03.51.24.146.418.303.535.47.117.166.175.366.175.6 0 .36-.127.648-.38.865-.253.216-.62.325-1.1.325-.533 0-.952-.119-1.255-.355a1.129 1.129 0 0 1-.455-.935v-.27c0-.067-.033-.1-.1-.1h-.45c-.067 0-.1.033-.1.1v.31c0 .513.17.935.51 1.265.34.33.813.528 1.42.595.027 0 .04.013.04.04l-.01.72c0 .066.033.1.1.1h.44zm6.957-.93c.066 0 .1-.034.1-.1v-1.79c0-.027.013-.04.04-.04h.43c.066 0 .1-.034.1-.1v-.44c0-.067-.034-.1-.1-.1h-.43c-.027 0-.04-.014-.04-.04v-1.61c0-.067-.034-.1-.1-.1h-.51c-.067 0-.1.033-.1.1v1.61c0 .026-.014.04-.04.04h-2.25a.034.034 0 0 1-.03-.015c-.007-.01-.007-.022 0-.035l1.99-4.26c.013-.034.011-.062-.005-.085-.017-.024-.042-.035-.075-.035h-.53c-.054 0-.09.023-.11.07l-2.05 4.41a.315.315 0 0 0-.03.12v.37c0 .066.033.1.1.1h2.99c.026 0 .04.013.04.04v1.79c0 .066.033.1.1.1h.51zm2.526.79c.06 0 .097-.03.11-.09l.56-2.14c.007-.034.002-.06-.015-.08-.016-.02-.041-.03-.075-.03h-.44c-.06 0-.096.03-.11.09l-.44 2.14c-.006.033-.001.06.015.08.017.02.042.03.075.03h.32zm4.197-.69c.647 0 1.163-.184 1.55-.55.387-.367.58-.857.58-1.47v-3.16c0-.607-.193-1.094-.58-1.46-.387-.367-.903-.55-1.55-.55-.64 0-1.15.181-1.53.545-.38.363-.57.851-.57 1.465v3.16c0 .613.19 1.103.57 1.47.38.366.89.55 1.53.55zm0-.62c-.42 0-.757-.124-1.01-.37-.253-.247-.38-.577-.38-.99v-3.23c0-.407.127-.734.38-.98.253-.247.59-.37 1.01-.37.433 0 .778.123 1.035.37.257.246.385.573.385.98v3.23c0 .413-.13.743-.39.99-.26.246-.603.37-1.03.37zm5.817.62c.646 0 1.163-.184 1.55-.55.386-.367.58-.857.58-1.47v-3.16c0-.607-.194-1.094-.58-1.46-.387-.367-.904-.55-1.55-.55-.64 0-1.15.181-1.53.545-.38.363-.57.851-.57 1.465v3.16c0 .613.19 1.103.57 1.47.38.366.89.55 1.53.55zm0-.62c-.42 0-.757-.124-1.01-.37-.254-.247-.38-.577-.38-.99v-3.23c0-.407.126-.734.38-.98.253-.247.59-.37 1.01-.37.433 0 .778.123 1.035.37.256.246.385.573.385.98v3.23c0 .413-.13.743-.39.99-.26.246-.604.37-1.03.37zm5.816.62c.647 0 1.164-.184 1.55-.55.387-.367.58-.857.58-1.47v-3.16c0-.607-.193-1.094-.58-1.46-.386-.367-.903-.55-1.55-.55-.64 0-1.15.181-1.53.545-.38.363-.57.851-.57 1.465v3.16c0 .613.19 1.103.57 1.47.38.366.89.55 1.53.55zm0-.62c-.42 0-.756-.124-1.01-.37-.253-.247-.38-.577-.38-.99v-3.23c0-.407.127-.734.38-.98.254-.247.59-.37 1.01-.37.434 0 .779.123 1.035.37.257.246.385.573.385.98v3.23c0 .413-.13.743-.39.99-.26.246-.603.37-1.03.37z" fill="#FFF" fill-rule="nonzero" opacity=".6"/>
            <circle fill="#9CAFFF" fill-rule="nonzero" cx="23" cy="115.6" r="10"/>
            <circle fill="#57F" fill-rule="nonzero" cx="31" cy="148.6" r="6"/>
            <circle fill="#57F" fill-rule="nonzero" cx="63" cy="115.6" r="7"/>
            <circle fill="#9CAFFF" fill-rule="nonzero" cx="66" cy="93.6" r="4"/>
            <circle fill="#9CAFFF" fill-rule="nonzero" cx="101" cy="94.6" r="13"/>
            <circle fill="#57F" fill-rule="nonzero" cx="110" cy="149.6" r="4"/>
            <circle fill="#9CAFFF" fill-rule="nonzero" cx="151" cy="121.6" r="6"/>
            <circle fill="#57F" fill-rule="nonzero" cx="143" cy="77.6" r="10"/>
            <circle fill="#9CAFFF" fill-rule="nonzero" cx="183" cy="141.6" r="10"/>
            <circle fill="#57F" fill-rule="nonzero" cx="178" cy="100.6" r="9"/>
            <circle fill="#9CAFFF" fill-rule="nonzero" cx="227" cy="71.6" r="3"/>
            <circle fill="#57F" fill-rule="nonzero" cx="222" cy="108.6" r="9"/>
            <path fill="#FFF" fill-rule="nonzero" opacity=".5" d="m418.868 0-.137.423-2.124 6.548-.476-.154 1.83-5.643-3.692 3.405-58.806 54.205-.17.066H297v-.5h58.196L413.931 4.21 417.62.81l-5.77 1.364-.115-.487 6.7-1.585zM412.498 65.007l6 3.375.387.218-.387.218-6 3.375-.246-.436 5.169-2.907h-36.023v74H193v-.5h187.898v-74h36.523l-5.169-2.907z"/>
            <path fill="#FFF" fill-rule="nonzero" opacity=".5" d="m412.498 133.007 6 3.375.387.218-.387.218-6 3.375-.246-.436 5.169-2.907h-15.473v46H244v-.5h157.448v-46h15.973l-5.169-2.907z"/>
        </g>
        <path d="M28.457 35c.093 0 .14-.047.14-.14v-4.312c0-.037.019-.056.056-.056h2.912c.803 0 1.449-.243 1.939-.728s.735-1.125.735-1.918c0-.803-.243-1.449-.728-1.939s-1.125-.735-1.918-.735h-3.598c-.093 0-.14.047-.14.14v9.548c0 .093.047.14.14.14h.462zm3.08-5.138h-2.884c-.037 0-.056-.019-.056-.056V25.9c0-.037.019-.056.056-.056h2.884c.588 0 1.062.184 1.421.553.36.369.539.856.539 1.463 0 .597-.18 1.08-.539 1.449-.36.369-.833.553-1.421.553zM37.205 35c.093 0 .14-.047.14-.14v-4.172c0-.56.17-1.034.511-1.421.34-.387.772-.586 1.295-.595.28-.01.513.023.7.098.093.037.154.01.182-.084l.126-.448c.019-.093-.01-.154-.084-.182a1.8 1.8 0 0 0-.812-.168c-.42 0-.786.103-1.099.308-.313.205-.567.49-.763.854-.01.028-.021.04-.035.035-.014-.005-.021-.021-.021-.049v-.952c0-.093-.047-.14-.14-.14h-.462c-.093 0-.14.047-.14.14v6.776c0 .093.047.14.14.14h.462zm7.53.112c.663 0 1.23-.173 1.701-.518a2.48 2.48 0 0 0 .945-1.386c.056-.215.093-.453.112-.714.019-.261.028-.607.028-1.036 0-.41-.01-.749-.028-1.015a3.964 3.964 0 0 0-.112-.721 2.478 2.478 0 0 0-.945-1.372c-.471-.345-1.034-.518-1.687-.518-.672 0-1.239.17-1.701.511-.462.34-.777.8-.945 1.379-.103.364-.154.943-.154 1.736s.051 1.377.154 1.75c.168.579.485 1.04.952 1.386.467.345 1.027.518 1.68.518zm0-.658c-.504 0-.929-.135-1.274-.406a1.856 1.856 0 0 1-.672-1.092c-.065-.29-.098-.784-.098-1.484s.033-1.195.098-1.484c.103-.457.327-.821.672-1.092.345-.27.77-.406 1.274-.406s.931.135 1.281.406c.35.27.576.635.679 1.092.056.243.084.737.084 1.484 0 .737-.033 1.232-.098 1.484-.103.448-.329.81-.679 1.085-.35.275-.772.413-1.267.413zm11.044-7.924a.682.682 0 0 0 .504-.196.682.682 0 0 0 .196-.504.682.682 0 0 0-.196-.504.682.682 0 0 0-.504-.196.682.682 0 0 0-.504.196.682.682 0 0 0-.196.504c0 .205.065.373.196.504.13.13.299.196.504.196zM51.341 35c.093 0 .14-.047.14-.14v-6.174c0-.037.019-.056.056-.056h1.638c.093 0 .14-.047.14-.14v-.406c0-.093-.047-.14-.14-.14h-1.638c-.037 0-.056-.019-.056-.056v-.364c0-.588.1-1.013.301-1.274.2-.261.576-.392 1.127-.392h.308c.093 0 .14-.047.14-.14v-.378c0-.093-.047-.14-.14-.14h-.364c-.55 0-.978.082-1.281.245a1.366 1.366 0 0 0-.644.735c-.126.327-.189.765-.189 1.316v.392c0 .037-.019.056-.056.056h-.924c-.093 0-.14.047-.14.14v.406c0 .093.047.14.14.14h.924c.037 0 .056.019.056.056v6.174c0 .093.047.14.14.14h.462zm4.634-.014c.093 0 .14-.047.14-.14V28.07c0-.093-.047-.14-.14-.14h-.462c-.093 0-.14.047-.14.14v6.776c0 .093.047.14.14.14h.462zm5.78.028.42-.014c.093 0 .14-.047.14-.14v-.378c0-.093-.047-.14-.14-.14h-.322c-.476 0-.821-.096-1.036-.287-.215-.191-.322-.525-.322-1.001V28.63c0-.037.019-.056.056-.056h1.638c.093 0 .14-.047.14-.14v-.35c0-.093-.047-.14-.14-.14h-1.638c-.037 0-.056-.019-.056-.056v-1.596c0-.093-.047-.14-.14-.14h-.448c-.093 0-.14.047-.14.14v1.596c0 .037-.019.056-.056.056h-.84c-.093 0-.14.047-.14.14v.35c0 .093.047.14.14.14h.84c.037 0 .056.019.056.056v4.62c.01.672.18 1.134.511 1.386s.824.378 1.477.378zM70.711 35c.084 0 .14-.037.168-.112l2.31-6.776c.028-.103-.01-.154-.112-.154l-.518-.014c-.084 0-.14.037-.168.112l-1.904 5.796c-.01.019-.023.028-.042.028-.019 0-.033-.01-.042-.028l-1.904-5.796c-.028-.075-.084-.112-.168-.112h-.532c-.084 0-.126.033-.126.098l.014.056 2.324 6.79c.028.075.084.112.168.112h.532zm6.592.07c.756 0 1.36-.18 1.813-.539.453-.36.679-.833.679-1.421 0-.41-.117-.744-.35-1.001a2.412 2.412 0 0 0-.833-.595 11.43 11.43 0 0 0-1.295-.448c-.625-.187-1.085-.369-1.379-.546-.294-.177-.441-.443-.441-.798 0-.373.159-.67.476-.889.317-.22.737-.329 1.26-.329.541 0 .978.119 1.309.357.331.238.497.534.497.889v.042c0 .093.047.14.14.14h.434c.093 0 .14-.047.14-.14v-.042c0-.355-.105-.672-.315-.952-.21-.28-.504-.502-.882-.665-.378-.163-.814-.245-1.309-.245-.737 0-1.332.17-1.785.511-.453.34-.679.796-.679 1.365 0 .392.11.716.329.973.22.257.488.455.805.595.317.14.737.29 1.26.448.457.14.8.254 1.029.343a1.7 1.7 0 0 1 .595.385.872.872 0 0 1 .252.644c0 .373-.163.686-.49.938-.327.252-.751.378-1.274.378-.532 0-.97-.124-1.316-.371-.345-.247-.518-.544-.518-.889v-.154c0-.093-.047-.14-.14-.14h-.434c-.093 0-.14.047-.14.14v.182c0 .336.107.644.322.924.215.28.516.502.903.665.387.163.833.245 1.337.245zm8.396-.07c.084 0 .14-.037.168-.112l.588-1.862c.01-.028.028-.042.056-.042h4.368c.028 0 .047.014.056.042l.602 1.862c.028.075.084.112.168.112h.476c.084 0 .126-.033.126-.098l-.014-.056-3.122-9.534c-.028-.075-.084-.112-.168-.112h-.63c-.084 0-.14.037-.168.112l-3.108 9.534c-.028.103.01.154.112.154h.49zm4.956-2.632h-3.92a.067.067 0 0 1-.049-.021c-.014-.014-.016-.03-.007-.049l1.974-6.09c.01-.019.023-.028.042-.028.019 0 .033.01.042.028l1.974 6.09c.01.019.007.035-.007.049a.067.067 0 0 1-.049.021zm5.178 5.418c1.157.047 2.053-.168 2.688-.644.635-.476.952-1.241.952-2.296v-6.762c0-.093-.047-.14-.14-.14h-.462c-.093 0-.14.047-.14.14v.672c0 .019-.01.033-.028.042-.019.01-.033.005-.042-.014-.439-.635-1.087-.952-1.946-.952-.616 0-1.143.17-1.582.511-.439.34-.733.786-.882 1.337-.112.383-.168.985-.168 1.806 0 .765.051 1.34.154 1.722.15.579.453 1.034.91 1.365.457.331.99.497 1.596.497.859 0 1.498-.322 1.918-.966.019-.019.035-.026.049-.021.014.005.021.021.021.049v.7c0 .803-.231 1.388-.693 1.757-.462.369-1.192.534-2.191.497-.093 0-.14.047-.14.14l-.014.406c0 .093.047.145.14.154zm1.022-3.36c-.485 0-.898-.14-1.239-.42a1.92 1.92 0 0 1-.665-1.064c-.084-.299-.126-.793-.126-1.484 0-.71.042-1.204.126-1.484.121-.43.348-.784.679-1.064.331-.28.74-.42 1.225-.42.485 0 .889.14 1.211.42.322.28.52.635.595 1.064.028.159.047.34.056.546.01.205.014.523.014.952 0 .43-.005.747-.014.952-.01.205-.028.378-.056.518a1.8 1.8 0 0 1-.581 1.064c-.313.28-.721.42-1.225.42zm8.104.686c.597 0 1.118-.135 1.561-.406.443-.27.768-.635.973-1.092.037-.075.014-.135-.07-.182l-.364-.182c-.075-.037-.135-.014-.182.07a2.06 2.06 0 0 1-.735.833c-.313.2-.688.301-1.127.301-.55 0-1.006-.133-1.365-.399a1.79 1.79 0 0 1-.693-1.085c-.047-.196-.07-.593-.07-1.19 0-.037.019-.056.056-.056h4.564c.093 0 .14-.047.14-.14 0-.355-.005-.651-.014-.889a5.407 5.407 0 0 0-.056-.623c-.112-.7-.397-1.248-.854-1.645-.457-.397-1.069-.595-1.834-.595-.672 0-1.239.177-1.701.532a2.505 2.505 0 0 0-.917 1.414c-.047.196-.077.41-.091.644-.014.233-.021.579-.021 1.036 0 .439.014.803.042 1.092.028.29.08.55.154.784.168.55.48.985.938 1.302.457.317 1.013.476 1.666.476zm1.89-4.018h-3.906c-.037 0-.056-.019-.056-.056.019-.55.051-.915.098-1.092.093-.439.308-.791.644-1.057.336-.266.756-.399 1.26-.399s.929.138 1.274.413c.345.275.57.637.672 1.085.047.233.07.583.07 1.05 0 .037-.019.056-.056.056zm9.25 3.906c.084 0 .14-.037.168-.112l2.31-6.776c.028-.103-.01-.154-.112-.154l-.518-.014c-.084 0-.14.037-.168.112l-1.904 5.796c-.01.019-.023.028-.042.028-.019 0-.033-.01-.042-.028l-1.904-5.796c-.028-.075-.084-.112-.168-.112h-.532c-.084 0-.126.033-.126.098l.014.056 2.324 6.79c.028.075.084.112.168.112h.532zm6.592.07c.756 0 1.36-.18 1.813-.539.453-.36.679-.833.679-1.421 0-.41-.117-.744-.35-1.001a2.412 2.412 0 0 0-.833-.595 11.43 11.43 0 0 0-1.295-.448c-.625-.187-1.085-.369-1.379-.546-.294-.177-.441-.443-.441-.798 0-.373.159-.67.476-.889.317-.22.737-.329 1.26-.329.541 0 .978.119 1.309.357.331.238.497.534.497.889v.042c0 .093.047.14.14.14h.434c.093 0 .14-.047.14-.14v-.042c0-.355-.105-.672-.315-.952-.21-.28-.504-.502-.882-.665-.378-.163-.814-.245-1.309-.245-.737 0-1.332.17-1.785.511-.453.34-.679.796-.679 1.365 0 .392.11.716.329.973.22.257.488.455.805.595.317.14.737.29 1.26.448.457.14.8.254 1.029.343a1.7 1.7 0 0 1 .595.385.872.872 0 0 1 .252.644c0 .373-.163.686-.49.938-.327.252-.751.378-1.274.378-.532 0-.97-.124-1.316-.371-.345-.247-.518-.544-.518-.889v-.154c0-.093-.047-.14-.14-.14h-.434c-.093 0-.14.047-.14.14v.182c0 .336.107.644.322.924.215.28.516.502.903.665.387.163.833.245 1.337.245zm9.292-.07c.093 0 .14-.047.14-.14v-8.19c0-.028.01-.047.028-.056.019-.01.033 0 .042.028l2.492 3.794c.047.065.103.098.168.098h.238c.065 0 .121-.033.168-.098l2.464-3.808c.01-.028.023-.04.042-.035.019.005.028.021.028.049v8.218c0 .093.047.14.14.14h.462c.093 0 .14-.047.14-.14v-9.52c0-.093-.047-.14-.14-.14h-.476c-.065 0-.121.033-.168.098l-2.744 4.2c-.01.01-.023.014-.042.014-.019 0-.033-.005-.042-.014l-2.744-4.2c-.047-.065-.103-.098-.168-.098h-.49c-.093 0-.14.047-.14.14v9.52c0 .093.047.14.14.14h.462zm12.36.112c.663 0 1.23-.173 1.701-.518a2.48 2.48 0 0 0 .945-1.386c.056-.215.093-.453.112-.714.019-.261.028-.607.028-1.036 0-.41-.01-.749-.028-1.015a3.964 3.964 0 0 0-.112-.721 2.478 2.478 0 0 0-.945-1.372c-.471-.345-1.034-.518-1.687-.518-.672 0-1.239.17-1.701.511-.462.34-.777.8-.945 1.379-.103.364-.154.943-.154 1.736s.051 1.377.154 1.75c.168.579.485 1.04.952 1.386.467.345 1.027.518 1.68.518zm0-.658c-.504 0-.929-.135-1.274-.406a1.856 1.856 0 0 1-.672-1.092c-.065-.29-.098-.784-.098-1.484s.033-1.195.098-1.484c.103-.457.327-.821.672-1.092.345-.27.77-.406 1.274-.406s.931.135 1.281.406c.35.27.576.635.679 1.092.056.243.084.737.084 1.484 0 .737-.033 1.232-.098 1.484-.103.448-.329.81-.679 1.085-.35.275-.772.413-1.267.413zm6.2.546c.093 0 .14-.047.14-.14v-4.508c0-.55.173-.996.518-1.337.345-.34.798-.511 1.358-.511.541 0 .98.175 1.316.525.336.35.504.8.504 1.351v4.48c0 .093.047.14.14.14h.462c.093 0 .14-.047.14-.14v-4.62c0-.719-.222-1.297-.665-1.736-.443-.439-1.024-.658-1.743-.658-.439 0-.826.082-1.162.245a2.019 2.019 0 0 0-.812.707c-.01.019-.021.026-.035.021-.014-.005-.021-.021-.021-.049v-.686c0-.093-.047-.14-.14-.14h-.462c-.093 0-.14.047-.14.14v6.776c0 .093.047.14.14.14h.462zm9.882.014.42-.014c.093 0 .14-.047.14-.14v-.378c0-.093-.047-.14-.14-.14h-.322c-.476 0-.821-.096-1.036-.287-.215-.191-.322-.525-.322-1.001V28.63c0-.037.019-.056.056-.056h1.638c.093 0 .14-.047.14-.14v-.35c0-.093-.047-.14-.14-.14h-1.638c-.037 0-.056-.019-.056-.056v-1.596c0-.093-.047-.14-.14-.14h-.448c-.093 0-.14.047-.14.14v1.596c0 .037-.019.056-.056.056h-.84c-.093 0-.14.047-.14.14v.35c0 .093.047.14.14.14h.84c.037 0 .056.019.056.056v4.62c.01.672.18 1.134.511 1.386s.824.378 1.477.378zm3.862-.014c.093 0 .14-.047.14-.14v-4.508c0-.55.173-.996.518-1.337.345-.34.798-.511 1.358-.511.541 0 .98.175 1.316.525.336.35.504.8.504 1.351v4.48c0 .093.047.14.14.14h.462c.093 0 .14-.047.14-.14v-4.62c0-.719-.222-1.297-.665-1.736-.443-.439-1.024-.658-1.743-.658-.439 0-.826.082-1.162.245a2.019 2.019 0 0 0-.812.707c-.01.019-.021.026-.035.021-.014-.005-.021-.021-.021-.049v-3.43c0-.093-.047-.14-.14-.14h-.462c-.093 0-.14.047-.14.14v9.52c0 .093.047.14.14.14h.462zm8.118 0c.093 0 .14-.047.14-.14v-9.52c0-.093-.047-.14-.14-.14h-.462c-.093 0-.14.047-.14.14v9.52c0 .093.047.14.14.14h.462zm2.868 2.8c.457 0 .814-.051 1.071-.154.257-.103.478-.299.665-.588.187-.29.387-.737.602-1.344l2.646-7.616c.028-.103-.01-.154-.112-.154h-.476c-.084 0-.14.037-.168.112l-1.932 5.936c-.01.019-.023.028-.042.028-.019 0-.033-.01-.042-.028l-1.988-5.936c-.028-.075-.084-.112-.168-.112h-.476c-.084 0-.126.033-.126.098l.014.056 2.394 6.86c.019.019.019.047 0 .084-.196.607-.366 1.055-.511 1.344-.145.29-.317.488-.518.595-.2.107-.478.166-.833.175h-.056c-.093 0-.14.047-.14.14v.364c0 .093.033.14.098.14h.098zm13.492-2.688c1.008 0 1.792-.229 2.352-.686.56-.457.84-1.064.84-1.82 0-.485-.121-.9-.364-1.246a3.256 3.256 0 0 0-1.001-.903c-.425-.257-.982-.525-1.673-.805-.69-.28-1.202-.506-1.533-.679-.331-.173-.586-.376-.763-.609-.177-.233-.266-.537-.266-.91 0-.55.191-.973.574-1.267.383-.294.929-.441 1.638-.441.812 0 1.442.18 1.89.539.448.36.672.833.672 1.421v.28c0 .093.047.14.14.14h.462c.093 0 .14-.047.14-.14v-.322c0-.784-.29-1.41-.868-1.876-.579-.467-1.377-.7-2.394-.7-.933 0-1.664.208-2.191.623-.527.415-.791 1.006-.791 1.771 0 .495.112.898.336 1.211.224.313.52.572.889.777.369.205.917.462 1.645.77.69.29 1.225.546 1.603.77.378.224.658.464.84.721.182.257.273.558.273.903 0 .57-.205 1.015-.616 1.337-.41.322-1.003.483-1.778.483-.83 0-1.484-.177-1.96-.532-.476-.355-.714-.821-.714-1.4v-.42c0-.093-.047-.14-.14-.14h-.434c-.093 0-.14.047-.14.14v.462c0 .775.299 1.393.896 1.855.597.462 1.41.693 2.436.693zm7.628 0c.476 0 .908-.08 1.295-.238.387-.159.702-.392.945-.7.019-.019.035-.023.049-.014.014.01.021.023.021.042v.658c0 .093.047.14.14.14h.462c.093 0 .14-.047.14-.14v-4.676c0-.719-.215-1.29-.644-1.715-.43-.425-1.055-.637-1.876-.637-.69 0-1.267.154-1.729.462-.462.308-.735.714-.819 1.218-.019.056.023.093.126.112l.49.07c.084.01.14-.033.168-.126.075-.327.266-.588.574-.784.308-.196.7-.294 1.176-.294.607 0 1.057.154 1.351.462.294.308.441.723.441 1.246v.63c0 .037-.019.056-.056.056h-1.68c-.896 0-1.6.2-2.114.602-.513.401-.77.947-.77 1.638 0 .672.224 1.171.672 1.498.448.327.994.49 1.638.49zm.126-.644c-.495 0-.9-.117-1.218-.35-.317-.233-.476-.579-.476-1.036 0-.495.203-.882.609-1.162.406-.28.94-.42 1.603-.42h1.61c.037 0 .056.019.056.056v1.274c0 .513-.217.915-.651 1.204-.434.29-.945.434-1.533.434zm6.354.532c.093 0 .14-.047.14-.14v-9.52c0-.093-.047-.14-.14-.14h-.462c-.093 0-.14.047-.14.14v9.52c0 .093.047.14.14.14h.462zm4.968.112c.476 0 .908-.08 1.295-.238.387-.159.702-.392.945-.7.019-.019.035-.023.049-.014.014.01.021.023.021.042v.658c0 .093.047.14.14.14h.462c.093 0 .14-.047.14-.14v-4.676c0-.719-.215-1.29-.644-1.715-.43-.425-1.055-.637-1.876-.637-.69 0-1.267.154-1.729.462-.462.308-.735.714-.819 1.218-.019.056.023.093.126.112l.49.07c.084.01.14-.033.168-.126.075-.327.266-.588.574-.784.308-.196.7-.294 1.176-.294.607 0 1.057.154 1.351.462.294.308.441.723.441 1.246v.63c0 .037-.019.056-.056.056h-1.68c-.896 0-1.6.2-2.114.602-.513.401-.77.947-.77 1.638 0 .672.224 1.171.672 1.498.448.327.994.49 1.638.49zm.126-.644c-.495 0-.9-.117-1.218-.35-.317-.233-.476-.579-.476-1.036 0-.495.203-.882.609-1.162.406-.28.94-.42 1.603-.42h1.61c.037 0 .056.019.056.056v1.274c0 .513-.217.915-.651 1.204-.434.29-.945.434-1.533.434zm6.354.532c.093 0 .14-.047.14-.14v-4.172c0-.56.17-1.034.511-1.421.34-.387.772-.586 1.295-.595.28-.01.513.023.7.098.093.037.154.01.182-.084l.126-.448c.019-.093-.01-.154-.084-.182a1.8 1.8 0 0 0-.812-.168c-.42 0-.786.103-1.099.308-.313.205-.567.49-.763.854-.01.028-.021.04-.035.035-.014-.005-.021-.021-.021-.049v-.952c0-.093-.047-.14-.14-.14h-.462c-.093 0-.14.047-.14.14v6.776c0 .093.047.14.14.14h.462zm5.192 2.8c.457 0 .814-.051 1.071-.154.257-.103.478-.299.665-.588.187-.29.387-.737.602-1.344l2.646-7.616c.028-.103-.01-.154-.112-.154h-.476c-.084 0-.14.037-.168.112l-1.932 5.936c-.01.019-.023.028-.042.028-.019 0-.033-.01-.042-.028l-1.988-5.936c-.028-.075-.084-.112-.168-.112h-.476c-.084 0-.126.033-.126.098l.014.056 2.394 6.86c.019.019.019.047 0 .084-.196.607-.366 1.055-.511 1.344-.145.29-.317.488-.518.595-.2.107-.478.166-.833.175h-.056c-.093 0-.14.047-.14.14v.364c0 .093.033.14.098.14h.098z" fill="#FFF" fill-rule="nonzero" opacity=".6"/>
        <path d="M329.93 107.08c.473 0 .89-.093 1.25-.28a2.02 2.02 0 0 0 .835-.785c.197-.337.295-.728.295-1.175v-4.74c0-.067-.033-.1-.1-.1h-.51c-.067 0-.1.033-.1.1v4.76c0 .473-.153.858-.46 1.155-.307.297-.71.445-1.21.445s-.903-.148-1.21-.445c-.307-.297-.46-.682-.46-1.155v-4.76c0-.067-.033-.1-.1-.1h-.51c-.067 0-.1.033-.1.1v4.74c0 .447.1.838.3 1.175.2.337.48.598.84.785.36.187.773.28 1.24.28zm6.367 0c.733 0 1.306-.167 1.72-.5.413-.333.62-.78.62-1.34 0-.36-.092-.665-.275-.915a2.342 2.342 0 0 0-.72-.635 9.695 9.695 0 0 0-1.175-.56c-.48-.187-.835-.338-1.065-.455a1.556 1.556 0 0 1-.53-.41.933.933 0 0 1-.185-.595c0-.367.126-.647.38-.84.253-.193.616-.29 1.09-.29.54 0 .961.123 1.265.37.303.247.455.563.455.95v.18c0 .067.033.1.1.1h.5c.066 0 .1-.033.1-.1v-.22c0-.573-.214-1.033-.64-1.38-.427-.347-1.01-.52-1.75-.52-.68 0-1.215.155-1.605.465-.39.31-.585.745-.585 1.305 0 .36.085.658.255.895.17.237.393.43.67.58.276.15.665.325 1.165.525.466.193.828.363 1.085.51.256.147.446.303.57.47a.98.98 0 0 1 .185.6c0 .36-.134.648-.4.865-.267.217-.657.325-1.17.325-.567 0-1.01-.118-1.33-.355a1.109 1.109 0 0 1-.48-.935v-.27c0-.067-.034-.1-.1-.1h-.49c-.067 0-.1.033-.1.1v.31c0 .567.218 1.02.655 1.36.436.34 1.031.51 1.785.51zm4.026-.08c.06 0 .1-.027.12-.08l.4-1.26c.007-.02.02-.03.04-.03h2.99c.02 0 .034.01.04.03l.4 1.26c.02.053.06.08.12.08h.54c.06 0 .09-.023.09-.07l-.01-.04-2.22-6.81c-.02-.053-.06-.08-.12-.08h-.68c-.06 0-.1.027-.12.08l-2.21 6.81c-.02.073.007.11.08.11h.54zm3.34-1.95h-2.58a.048.048 0 0 1-.035-.015c-.01-.01-.011-.022-.005-.035l1.3-4.08c.007-.013.017-.02.03-.02.014 0 .024.007.03.02l1.3 4.08c.007.013.005.025-.005.035a.048.048 0 0 1-.035.015z" fill="#FFF" fill-rule="nonzero" opacity=".8"/>
        <g transform="translate(311.69 100)">
            <path d="M18.21 30c.06 0 .1-.027.12-.08l2.2-6.81c.02-.073-.007-.11-.08-.11h-.53c-.06 0-.1.027-.12.08l-1.82 5.86c-.007.013-.017.02-.03.02-.013 0-.023-.007-.03-.02l-1.82-5.86c-.02-.053-.06-.08-.12-.08h-.54c-.06 0-.09.023-.09.07l.01.04 2.18 6.81c.02.053.06.08.12.08h.55zm4.127-5.98c.16 0 .293-.053.4-.16a.543.543 0 0 0 .16-.4.539.539 0 0 0-.56-.56.539.539 0 0 0-.56.56c0 .16.053.293.16.4.106.107.24.16.4.16zm.23 5.97c.066 0 .1-.033.1-.1v-4.86c0-.067-.034-.1-.1-.1h-.51c-.067 0-.1.033-.1.1v4.86c0 .067.033.1.1.1h.51zm3.916.1c.434 0 .817-.092 1.15-.275a1.8 1.8 0 0 0 .75-.755c.027-.06.014-.107-.04-.14l-.39-.23c-.053-.033-.1-.02-.14.04-.12.233-.286.413-.5.54-.213.127-.46.19-.74.19-.373 0-.68-.087-.92-.26a1.196 1.196 0 0 1-.47-.71c-.026-.107-.046-.343-.06-.71 0-.027.014-.04.04-.04h3.23c.067 0 .1-.033.1-.1v-.32c0-.28-.013-.513-.04-.7-.08-.56-.283-.993-.61-1.3-.326-.307-.793-.46-1.4-.46-.486 0-.901.13-1.245.39-.343.26-.571.607-.685 1.04-.04.14-.065.298-.075.475-.01.177-.015.405-.015.685 0 .6.06 1.06.18 1.38.14.393.37.7.69.92.32.22.717.333 1.19.34zm1.27-2.95h-2.59c-.026 0-.04-.013-.04-.04.014-.313.04-.54.08-.68.067-.287.209-.515.425-.685.217-.17.489-.255.815-.255.34 0 .622.088.845.265.224.177.372.415.445.715.027.127.047.34.06.64 0 .027-.013.04-.04.04zm4.017 2.87c.167 0 .29-.003.37-.01.067 0 .1-.033.1-.1v-.41c0-.067-.033-.1-.1-.1h-.25c-.307 0-.532-.065-.675-.195-.143-.13-.215-.355-.215-.675v-2.95c0-.027.013-.04.04-.04h1.13c.067 0 .1-.033.1-.1v-.39c0-.067-.033-.1-.1-.1h-1.13c-.027 0-.04-.013-.04-.04v-1.16c0-.067-.033-.1-.1-.1h-.49c-.067 0-.1.033-.1.1v1.16c0 .027-.013.04-.04.04h-.61c-.067 0-.1.033-.1.1v.39c0 .067.033.1.1.1h.61c.027 0 .04.013.04.04v3.17c0 .487.123.82.37 1 .247.18.61.27 1.09.27zm2.787-.01c.066 0 .1-.033.1-.1l-.01-5.51c0-.02.006-.032.02-.035.013-.003.023.005.03.025l3.41 5.55c.033.047.073.07.12.07h.5c.066 0 .1-.033.1-.1v-6.8c0-.067-.034-.1-.1-.1h-.51c-.067 0-.1.033-.1.1l.01 5.51c0 .02-.007.032-.02.035-.014.003-.024-.005-.03-.025l-3.41-5.55c-.034-.047-.074-.07-.12-.07h-.5c-.067 0-.1.033-.1.1v6.8c0 .067.033.1.1.1h.51zm7.506.08c.327 0 .624-.052.89-.155.267-.103.484-.255.65-.455.014-.013.025-.017.035-.01.01.007.015.017.015.03v.41c0 .067.034.1.1.1h.51c.067 0 .1-.033.1-.1v-3.36c0-.507-.163-.913-.49-1.22-.326-.307-.79-.46-1.39-.46-.52 0-.953.117-1.3.35-.346.233-.546.537-.6.91-.013.04.017.067.09.08l.54.07c.06.007.1-.023.12-.09a.775.775 0 0 1 .37-.515c.2-.123.46-.185.78-.185.4 0 .695.098.885.295.19.197.285.465.285.805v.38c0 .027-.013.04-.04.04h-1.16c-.646 0-1.151.145-1.515.435-.363.29-.545.685-.545 1.185 0 .493.16.86.48 1.1.32.24.717.36 1.19.36zm.14-.61c-.326 0-.591-.075-.795-.225-.203-.15-.305-.372-.305-.665 0-.32.134-.57.4-.75.267-.18.62-.27 1.06-.27h1.05c.027 0 .04.013.04.04v.78c0 .333-.143.598-.43.795a1.759 1.759 0 0 1-1.02.295zm4.417.53c.067 0 .1-.033.1-.1v-3.23c0-.36.105-.647.315-.86.21-.213.492-.32.845-.32.347 0 .623.108.83.325.207.217.31.508.31.875v3.21c0 .067.033.1.1.1h.51c.067 0 .1-.033.1-.1v-3.23c0-.36.108-.647.325-.86.217-.213.502-.32.855-.32.34 0 .615.108.825.325.21.217.315.508.315.875v3.21c0 .067.033.1.1.1h.5c.067 0 .1-.033.1-.1v-3.35c0-.52-.145-.93-.435-1.23-.29-.3-.685-.45-1.185-.45-.34 0-.643.068-.91.205a1.434 1.434 0 0 0-.62.615c-.02.033-.037.033-.05 0a1.346 1.346 0 0 0-.56-.61c-.247-.14-.543-.21-.89-.21-.28 0-.535.048-.765.145-.23.097-.418.242-.565.435-.013.013-.025.018-.035.015-.01-.003-.015-.012-.015-.025v-.4c0-.067-.033-.1-.1-.1h-.51c-.067 0-.1.033-.1.1v4.86c0 .067.033.1.1.1h.51z" fill="#FFF" fill-rule="nonzero" opacity=".8"/>
            <circle fill="#9CAFFF" opacity=".4" cx="3" cy="27" r="3"/>
            <circle fill="#57F" cx="3" cy="3" r="3"/>
        </g>
        <path d="M117.98 210c.06 0 .1-.027.12-.08l.4-1.26c.007-.02.02-.03.04-.03h2.99c.02 0 .033.01.04.03l.4 1.26c.02.053.06.08.12.08h.54c.06 0 .09-.023.09-.07l-.01-.04-2.22-6.81c-.02-.053-.06-.08-.12-.08h-.68c-.06 0-.1.027-.12.08l-2.21 6.81c-.02.073.007.11.08.11h.54zm3.34-1.95h-2.58a.048.048 0 0 1-.035-.015c-.01-.01-.012-.022-.005-.035l1.3-4.08c.007-.013.017-.02.03-.02.013 0 .023.007.03.02l1.3 4.08c.007.013.005.025-.005.035a.048.048 0 0 1-.035.015zm3.917 3.94c.753 0 1.345-.173 1.775-.52.43-.347.645-.893.645-1.64v-4.79c0-.067-.034-.1-.1-.1h-.51c-.067 0-.1.033-.1.1v.39a.034.034 0 0 1-.015.03c-.01.007-.022.003-.035-.01-.307-.393-.757-.59-1.35-.59-.44 0-.817.122-1.13.365-.314.243-.53.565-.65.965-.054.16-.089.34-.105.54-.017.2-.025.447-.025.74 0 .54.04.947.12 1.22.113.427.338.757.675.99.336.233.721.35 1.155.35.566 0 1.003-.2 1.31-.6.013-.013.025-.018.035-.015.01.003.015.012.015.025v.37c0 .527-.14.912-.42 1.155-.28.243-.73.365-1.35.365l-.27-.01a.075.075 0 0 0-.07.015c-.02.017-.03.042-.03.075l-.02.46c0 .067.033.103.1.11.08.007.196.01.35.01zm.46-2.56c-.32 0-.592-.092-.815-.275a1.252 1.252 0 0 1-.435-.695c-.067-.187-.1-.523-.1-1.01 0-.453.033-.787.1-1 .086-.287.238-.52.455-.7.216-.18.481-.27.795-.27.32 0 .585.092.795.275.21.183.341.415.395.695.026.1.043.208.05.325.006.117.01.345.01.685v.16a12.64 12.64 0 0 1-.01.48 2.51 2.51 0 0 1-.04.37 1.17 1.17 0 0 1-.395.69c-.21.18-.479.27-.805.27zm5.556.66c.434 0 .817-.092 1.15-.275a1.8 1.8 0 0 0 .75-.755c.027-.06.014-.107-.04-.14l-.39-.23c-.053-.033-.1-.02-.14.04-.12.233-.286.413-.5.54-.213.127-.46.19-.74.19-.373 0-.68-.087-.92-.26a1.196 1.196 0 0 1-.47-.71c-.026-.107-.046-.343-.06-.71 0-.027.014-.04.04-.04h3.23c.067 0 .1-.033.1-.1v-.32c0-.28-.013-.513-.04-.7-.08-.56-.283-.993-.61-1.3-.326-.307-.793-.46-1.4-.46-.486 0-.901.13-1.245.39-.343.26-.571.607-.685 1.04-.04.14-.065.298-.075.475-.01.177-.015.405-.015.685 0 .6.06 1.06.18 1.38.14.393.37.7.69.92.32.22.717.333 1.19.34zm1.27-2.95h-2.59c-.026 0-.04-.013-.04-.04.014-.313.04-.54.08-.68.067-.287.209-.515.425-.685.217-.17.489-.255.815-.255.34 0 .622.088.845.265.224.177.372.415.445.715.027.127.047.34.06.64 0 .027-.013.04-.04.04z" fill="#FFF" fill-rule="nonzero" opacity=".6"/>
        <g fill="#FFF" fill-rule="nonzero">
            <path d="M431.004 143c.08 0 .14-.032.18-.096l1.572-2.736c.024-.048.048-.048.072 0l1.56 2.736c.04.064.1.096.18.096h1.512c.088 0 .132-.032.132-.096l-.024-.072-2.328-3.996a.111.111 0 0 1 0-.072l2.328-3.996c.032-.048.036-.088.012-.12-.024-.032-.064-.048-.12-.048h-1.512c-.08 0-.14.032-.18.096l-1.56 2.748c-.024.048-.048.048-.072 0l-1.56-2.748a.198.198 0 0 0-.18-.096h-1.524c-.088 0-.132.032-.132.096l.024.072 2.328 3.996a.06.06 0 0 1 0 .072l-2.328 3.996c-.032.048-.036.088-.012.12.024.032.064.048.12.048h1.512zm10.09-2.82c.04 0 .074-.014.102-.042a.139.139 0 0 0 .042-.102v-1.164a.139.139 0 0 0-.042-.102.139.139 0 0 0-.102-.042h-3.924a.139.139 0 0 0-.102.042.139.139 0 0 0-.042.102v1.164c0 .04.014.074.042.102a.139.139 0 0 0 .102.042h3.924zm2.987 2.82c.08 0 .132-.04.156-.12l.348-1.176c.016-.032.036-.048.06-.048h2.952c.024 0 .044.016.06.048l.36 1.176c.024.08.076.12.156.12h1.524c.088 0 .132-.036.132-.108a.134.134 0 0 0-.012-.06l-2.592-8.112c-.024-.08-.076-.12-.156-.12h-1.884c-.08 0-.132.04-.156.12l-2.592 8.112c-.016.056-.012.098.012.126.024.028.06.042.108.042h1.524zm3.096-2.652h-2.112c-.04 0-.056-.024-.048-.072l1.056-3.564c.008-.024.02-.038.036-.042.016-.004.028.01.036.042l1.08 3.564c.016.048 0 .072-.048.072zm5.482 2.652a.188.188 0 0 0 .168-.096l1.08-1.644c.024-.048.048-.048.072 0l1.08 1.644c.04.064.096.096.168.096h1.512c.072 0 .108-.032.108-.096a.148.148 0 0 0-.024-.084l-1.92-2.868a.111.111 0 0 1 0-.072l1.92-2.868c.032-.048.04-.09.024-.126-.016-.036-.052-.054-.108-.054h-1.608a.188.188 0 0 0-.168.096l-1.08 1.644c-.024.048-.052.048-.084 0l-1.08-1.644a.188.188 0 0 0-.168-.096h-1.5c-.08 0-.12.032-.12.096 0 .024.008.052.024.084l1.932 2.868a.06.06 0 0 1 0 .072l-1.932 2.868c-.032.048-.038.09-.018.126.02.036.058.054.114.054h1.608zm6.514-6.864a.92.92 0 0 0 .948-.948.925.925 0 0 0-.264-.684.925.925 0 0 0-.684-.264.925.925 0 0 0-.684.264.925.925 0 0 0-.264.684.92.92 0 0 0 .948.948zm.684 6.864c.04 0 .074-.014.102-.042a.139.139 0 0 0 .042-.102v-5.892a.139.139 0 0 0-.042-.102.139.139 0 0 0-.102-.042h-1.404a.139.139 0 0 0-.102.042.139.139 0 0 0-.042.102v5.892c0 .04.014.074.042.102a.139.139 0 0 0 .102.042h1.404zm4.438.084c.792 0 1.422-.166 1.89-.498.468-.332.702-.794.702-1.386 0-.504-.164-.888-.492-1.152-.328-.264-.776-.48-1.344-.648a6.488 6.488 0 0 0-.36-.102 14.723 14.723 0 0 1-.3-.078c-.384-.088-.658-.172-.822-.252-.164-.08-.246-.2-.246-.36 0-.168.084-.3.252-.396.168-.096.384-.144.648-.144.296 0 .534.06.714.18.18.12.27.268.27.444 0 .04.014.074.042.102a.139.139 0 0 0 .102.042h1.284c.04 0 .074-.014.102-.042a.139.139 0 0 0 .042-.102c0-.376-.106-.712-.318-1.008a2.065 2.065 0 0 0-.894-.69c-.384-.164-.832-.246-1.344-.246-.76 0-1.37.174-1.83.522-.46.348-.69.818-.69 1.41 0 .48.152.848.456 1.104.304.256.712.472 1.224.648.216.088.512.18.888.276.328.08.564.156.708.228.144.072.216.18.216.324 0 .16-.084.294-.252.402-.168.108-.388.162-.66.162-.296 0-.542-.062-.738-.186-.196-.124-.294-.274-.294-.45v-.012a.139.139 0 0 0-.042-.102.139.139 0 0 0-.102-.042h-1.332a.139.139 0 0 0-.102.042.139.139 0 0 0-.042.102v.12c0 .344.11.652.33.924.22.272.53.484.93.636.4.152.868.228 1.404.228zM433.392 8.988c.04 0 .074-.014.102-.042a.139.139 0 0 0 .042-.102V5.808c0-.032.004-.056.012-.072l2.496-4.968c.024-.056.026-.098.006-.126-.02-.028-.058-.042-.114-.042H434.4a.17.17 0 0 0-.168.108l-1.5 3.192c-.024.048-.048.048-.072 0l-1.5-3.192a.17.17 0 0 0-.168-.108h-1.512c-.088 0-.132.032-.132.096 0 .016.008.04.024.072l2.472 4.968c.008.016.012.04.012.072v3.036c0 .04.014.074.042.102a.139.139 0 0 0 .102.042h1.392zm6.994-2.808c.04 0 .074-.014.102-.042a.139.139 0 0 0 .042-.102V4.872a.139.139 0 0 0-.042-.102.139.139 0 0 0-.102-.042h-3.924a.139.139 0 0 0-.102.042.139.139 0 0 0-.042.102v1.164c0 .04.014.074.042.102a.139.139 0 0 0 .102.042h3.924zM443.373 9c.08 0 .132-.04.156-.12l.348-1.176c.016-.032.036-.048.06-.048h2.952c.024 0 .044.016.06.048l.36 1.176c.024.08.076.12.156.12h1.524c.088 0 .132-.036.132-.108a.134.134 0 0 0-.012-.06L446.517.72c-.024-.08-.076-.12-.156-.12h-1.884c-.08 0-.132.04-.156.12l-2.592 8.112c-.016.056-.012.098.012.126.024.028.06.042.108.042h1.524zm3.096-2.652h-2.112c-.04 0-.056-.024-.048-.072l1.056-3.564c.008-.024.02-.038.036-.042.016-.004.028.01.036.042l1.08 3.564c.016.048 0 .072-.048.072zM451.95 9a.188.188 0 0 0 .168-.096l1.08-1.644c.024-.048.048-.048.072 0l1.08 1.644c.04.064.096.096.168.096h1.512c.072 0 .108-.032.108-.096a.148.148 0 0 0-.024-.084l-1.92-2.868a.111.111 0 0 1 0-.072l1.92-2.868c.032-.048.04-.09.024-.126-.016-.036-.052-.054-.108-.054h-1.608a.188.188 0 0 0-.168.096l-1.08 1.644c-.024.048-.052.048-.084 0l-1.08-1.644a.188.188 0 0 0-.168-.096h-1.5c-.08 0-.12.032-.12.096 0 .024.008.052.024.084l1.932 2.868a.06.06 0 0 1 0 .072l-1.932 2.868c-.032.048-.038.09-.018.126.02.036.058.054.114.054h1.608zm6.514-6.864a.92.92 0 0 0 .948-.948.925.925 0 0 0-.264-.684.925.925 0 0 0-.684-.264.925.925 0 0 0-.684.264.925.925 0 0 0-.264.684.92.92 0 0 0 .948.948zM459.15 9c.04 0 .074-.014.102-.042a.139.139 0 0 0 .042-.102V2.964a.139.139 0 0 0-.042-.102.139.139 0 0 0-.102-.042h-1.404a.139.139 0 0 0-.102.042.139.139 0 0 0-.042.102v5.892c0 .04.014.074.042.102a.139.139 0 0 0 .102.042h1.404zm4.438.084c.792 0 1.422-.166 1.89-.498.468-.332.702-.794.702-1.386 0-.504-.164-.888-.492-1.152-.328-.264-.776-.48-1.344-.648a6.488 6.488 0 0 0-.36-.102 14.723 14.723 0 0 1-.3-.078c-.384-.088-.658-.172-.822-.252-.164-.08-.246-.2-.246-.36 0-.168.084-.3.252-.396.168-.096.384-.144.648-.144.296 0 .534.06.714.18.18.12.27.268.27.444 0 .04.014.074.042.102a.139.139 0 0 0 .102.042h1.284c.04 0 .074-.014.102-.042a.139.139 0 0 0 .042-.102c0-.376-.106-.712-.318-1.008a2.065 2.065 0 0 0-.894-.69c-.384-.164-.832-.246-1.344-.246-.76 0-1.37.174-1.83.522-.46.348-.69.818-.69 1.41 0 .48.152.848.456 1.104.304.256.712.472 1.224.648.216.088.512.18.888.276.328.08.564.156.708.228.144.072.216.18.216.324 0 .16-.084.294-.252.402-.168.108-.388.162-.66.162-.296 0-.542-.062-.738-.186-.196-.124-.294-.274-.294-.45v-.012a.139.139 0 0 0-.042-.102.139.139 0 0 0-.102-.042h-1.332a.139.139 0 0 0-.102.042.139.139 0 0 0-.042.102v.12c0 .344.11.652.33.924.22.272.53.484.93.636.4.152.868.228 1.404.228z"/>
            <path d="m540.907 19.037-.29.525a2.089 2.089 0 0 0-1.017-.262v-.6c.463 0 .91.117 1.307.337zm1.393 3.49h-.6l-.001-1.197.6-.02.001 1.216zm0 3.6h-.6v-1.2h.6v1.2zm0 3.6h-.6v-1.2h.6v1.2zm0 3.6h-.6v-1.2h.6v1.2zm0 3.6h-.6v-1.2h.6v1.2zm0 3.6h-.6v-1.2h.6v1.2zm0 3.6h-.6v-1.2h.6v1.2zm-1.193 3.514-.335-.498c.294-.198.535-.47.697-.785l.534.274a2.711 2.711 0 0 1-.896 1.009zm-3.76.459v-.6h1.2v.6h-1.2zm-3.6 0v-.6h1.2v.6h-1.2zm-3.6 0v-.6h1.2v.6h-1.2zm-3.6 0v-.6h1.2v.6h-1.2zm-3.6 0v-.6h1.2v.6h-1.2zm-3.6 0v-.6h1.2v.6h-1.2zm-3.6 0v-.6h1.2v.6h-1.2zm-3.6 0v-.6h1.2v.6h-1.2zm-3.6 0v-.6h1.2v.6h-1.2zm-3.6 0v-.6h1.2v.6h-1.2zm-3.6 0v-.6h1.2v.6h-1.2zm-3.6 0v-.6h1.2v.6h-1.2zm-3.6 0v-.6h1.2v.6h-1.2zm-3.6 0v-.6h1.2v.6h-1.2zm-3.6 0v-.6h1.2v.6h-1.2zm-3.6 0v-.6h1.2v.6h-1.2zm-3.6 0v-.6h1.2v.6h-1.2zm-3.6 0v-.6h1.2v.6h-1.2zm-3.6 0v-.6h1.2v.6h-1.2zm-3.6 0v-.6h1.2v.6h-1.2zm-3.6 0v-.6h1.2v.6h-1.2zm-3.6 0v-.6h1.2v.6h-1.2zm-3.6 0v-.6h1.2v.6h-1.2zm-3.6 0v-.6h1.2v.6h-1.2zm-3.6 0v-.6h1.2v.6h-1.2zm-3.6 0v-.6h1.2v.6h-1.2zm-3.6 0v-.6h1.2v.6h-1.2zm-3.6 0v-.6h1.2v.6h-1.2zm-3.6 0v-.6h1.2v.6h-1.2zm-3.6 0v-.6h1.2v.6h-1.2zm-3.703-.26.257-.541c.279.132.584.201.899.201h.148v.6h-.148a2.69 2.69 0 0 1-1.156-.26zm-1.544-3.419h.6v.994c0 .065.004.13.01.194l-.597.058a2.736 2.736 0 0 1-.013-.25v-.996zm0-3.6h.6v1.2h-.6v-1.2zm0-3.6h.6v1.2h-.6v-1.2zm0-3.6h.6v1.2h-.6v-1.2zm0-3.6h.6v1.2h-.6v-1.2zm0-3.6h.6v1.2h-.6v-1.2zm0-3.6h.6v1.2h-.6v-1.2zm1.055-3.562.366.475a2.108 2.108 0 0 0-.647.828l-.55-.24c.183-.419.47-.785.831-1.063zm3.75-.559v.6h-1.2v-.6h1.2zm3.6 0v.6h-1.2v-.6h1.2zm3.6 0v.6h-1.2v-.6h1.2zm3.6 0v.6h-1.2v-.6h1.2zm3.6 0v.6h-1.2v-.6h1.2zm3.6 0v.6h-1.2v-.6h1.2zm3.6 0v.6h-1.2v-.6h1.2zm3.6 0v.6h-1.2v-.6h1.2zm3.6 0v.6h-1.2v-.6h1.2zm3.6 0v.6h-1.2v-.6h1.2zm3.6 0v.6h-1.2v-.6h1.2zm3.6 0v.6h-1.2v-.6h1.2zm3.6 0v.6h-1.2v-.6h1.2zm3.6 0v.6h-1.2v-.6h1.2zm3.6 0v.6h-1.2v-.6h1.2zm3.6 0v.6h-1.2v-.6h1.2zm3.6 0v.6h-1.2v-.6h1.2zm3.6 0v.6h-1.2v-.6h1.2zm3.6 0v.6h-1.2v-.6h1.2zm3.6 0v.6h-1.2v-.6h1.2zm3.6 0v.6h-1.2v-.6h1.2zm3.6 0v.6h-1.2v-.6h1.2zm3.6 0v.6h-1.2v-.6h1.2zm3.6 0v.6h-1.2v-.6h1.2zm3.6 0v.6h-1.2v-.6h1.2zm3.6 0v.6h-1.2v-.6h1.2zm3.6 0v.6h-1.2v-.6h1.2zm3.6 0v.6h-1.2v-.6h1.2zm3.6 0v.6h-1.2v-.6h1.2zm3.6 0v.6h-1.2v-.6h1.2zm2.695 0v.6h-.295v-.6h.295z" fill-opacity=".4"/>
            <path d="M440.28 38c.04 0 .074-.014.102-.042a.139.139 0 0 0 .042-.102v-5.28c0-.032.008-.05.024-.054.016-.004.032.006.048.03l1.272 1.992c.04.064.096.096.168.096h.708a.188.188 0 0 0 .168-.096l1.272-1.992c.016-.024.032-.036.048-.036s.024.016.024.048v5.292c0 .04.014.074.042.102a.139.139 0 0 0 .102.042h1.404c.04 0 .074-.014.102-.042a.139.139 0 0 0 .042-.102v-8.112a.139.139 0 0 0-.042-.102.139.139 0 0 0-.102-.042H444.3a.188.188 0 0 0-.168.096l-1.812 2.796c-.024.048-.048.048-.072 0l-1.8-2.796a.188.188 0 0 0-.168-.096h-1.404a.139.139 0 0 0-.102.042.139.139 0 0 0-.042.102v8.112c0 .04.014.074.042.102a.139.139 0 0 0 .102.042h1.404zm9.848.096c.672 0 1.246-.178 1.722-.534.476-.356.802-.846.978-1.47.112-.376.168-.78.168-1.212 0-.44-.064-.86-.192-1.26-.192-.592-.52-1.054-.984-1.386-.464-.332-1.024-.498-1.68-.498-.672 0-1.248.168-1.728.504-.48.336-.812.8-.996 1.392-.112.376-.168.8-.168 1.272 0 .44.056.848.168 1.224.176.608.504 1.088.984 1.44.48.352 1.056.528 1.728.528zm0-1.452c-.272 0-.502-.08-.69-.24a1.314 1.314 0 0 1-.402-.66c-.056-.2-.084-.48-.084-.84 0-.376.032-.66.096-.852.08-.272.21-.484.39-.636.18-.152.406-.228.678-.228.264 0 .488.076.672.228.184.152.32.364.408.636.064.232.096.516.096.852 0 .304-.032.584-.096.84-.08.28-.212.5-.396.66a.989.989 0 0 1-.672.24zM455.836 38c.04 0 .074-.014.102-.042a.139.139 0 0 0 .042-.102v-3.588c0-.32.09-.58.27-.78.18-.2.418-.3.714-.3s.534.1.714.3c.18.2.27.46.27.78v3.588c0 .04.014.074.042.102a.139.139 0 0 0 .102.042h1.404c.04 0 .074-.014.102-.042a.139.139 0 0 0 .042-.102V33.92c0-.672-.196-1.204-.588-1.596-.392-.392-.908-.588-1.548-.588-.648 0-1.136.232-1.464.696-.008.016-.02.02-.036.012-.016-.008-.024-.024-.024-.048v-.42a.139.139 0 0 0-.042-.102.139.139 0 0 0-.102-.042h-1.404a.139.139 0 0 0-.102.042.139.139 0 0 0-.042.102v5.88c0 .04.014.074.042.102a.139.139 0 0 0 .102.042h1.404zm7.76.036c.144 0 .384-.008.72-.024.096-.016.144-.068.144-.156v-1.14a.139.139 0 0 0-.042-.102.139.139 0 0 0-.102-.042h-.396c-.24 0-.414-.064-.522-.192-.108-.128-.162-.324-.162-.588v-2.544c0-.04.02-.06.06-.06h1.152c.04 0 .074-.014.102-.042a.139.139 0 0 0 .042-.102v-1.068a.139.139 0 0 0-.042-.102.139.139 0 0 0-.102-.042h-1.152c-.04 0-.06-.02-.06-.06v-1.428a.139.139 0 0 0-.042-.102.139.139 0 0 0-.102-.042h-1.344a.139.139 0 0 0-.102.042.139.139 0 0 0-.042.102v1.428c0 .04-.02.06-.06.06h-.684a.139.139 0 0 0-.102.042.139.139 0 0 0-.042.102v1.068c0 .04.014.074.042.102a.139.139 0 0 0 .102.042h.684c.04 0 .06.02.06.06v3.216c.008.608.176 1.022.504 1.242.328.22.824.33 1.488.33zM467.36 38c.04 0 .074-.014.102-.042a.139.139 0 0 0 .042-.102v-3.588c0-.32.09-.58.27-.78.18-.2.418-.3.714-.3s.534.1.714.3c.18.2.27.46.27.78v3.588c0 .04.014.074.042.102a.139.139 0 0 0 .102.042h1.404c.04 0 .074-.014.102-.042a.139.139 0 0 0 .042-.102V33.92c0-.672-.196-1.204-.588-1.596-.392-.392-.908-.588-1.548-.588-.648 0-1.136.232-1.464.696-.008.016-.02.02-.036.012-.016-.008-.024-.024-.024-.048v-2.652a.139.139 0 0 0-.042-.102.139.139 0 0 0-.102-.042h-1.404a.139.139 0 0 0-.102.042.139.139 0 0 0-.042.102v8.112c0 .04.014.074.042.102a.139.139 0 0 0 .102.042h1.404zm6.764 0c.04 0 .074-.014.102-.042a.139.139 0 0 0 .042-.102v-8.112a.139.139 0 0 0-.042-.102.139.139 0 0 0-.102-.042h-1.404a.139.139 0 0 0-.102.042.139.139 0 0 0-.042.102v8.112c0 .04.014.074.042.102a.139.139 0 0 0 .102.042h1.404zm1.628 2.388c.688 0 1.22-.068 1.596-.204.376-.136.668-.35.876-.642.208-.292.412-.73.612-1.314l2.076-6.24c.016-.056.014-.098-.006-.126-.02-.028-.054-.042-.102-.042h-1.464c-.088 0-.144.04-.168.12l-1.008 3.888c-.008.024-.02.036-.036.036-.016 0-.028-.012-.036-.036l-1.008-3.888c-.024-.08-.08-.12-.168-.12h-1.5c-.088 0-.132.036-.132.108 0 .024.004.044.012.06l1.968 5.976c.008.032.008.056 0 .072-.064.264-.154.464-.27.6a.866.866 0 0 1-.468.276 3.89 3.89 0 0 1-.798.084.139.139 0 0 0-.102.042.139.139 0 0 0-.042.102v1.104c0 .04.008.074.024.102.016.028.036.042.06.042h.084zm11.788-2.292c.944 0 1.692-.218 2.244-.654.552-.436.828-1.03.828-1.782 0-.504-.13-.914-.39-1.23a2.666 2.666 0 0 0-.876-.714c-.324-.16-.77-.344-1.338-.552-.512-.184-.89-.33-1.134-.438-.244-.108-.428-.23-.552-.366a.72.72 0 0 1-.186-.504c0-.28.106-.5.318-.66.212-.16.506-.24.882-.24.48 0 .858.118 1.134.354.276.236.414.522.414.858v.096c0 .04.014.074.042.102a.139.139 0 0 0 .102.042h1.38c.04 0 .074-.014.102-.042a.139.139 0 0 0 .042-.102v-.18c0-.512-.134-.962-.402-1.35a2.65 2.65 0 0 0-1.116-.906c-.476-.216-1.018-.324-1.626-.324-.576 0-1.084.096-1.524.288-.44.192-.784.468-1.032.828-.248.36-.372.78-.372 1.26 0 .488.126.898.378 1.23.252.332.564.594.936.786.372.192.826.38 1.362.564.48.176.83.314 1.05.414.22.1.394.216.522.348a.671.671 0 0 1 .192.486.847.847 0 0 1-.312.666c-.208.18-.524.27-.948.27-.504 0-.904-.11-1.2-.33-.296-.22-.444-.49-.444-.81v-.18a.139.139 0 0 0-.042-.102.139.139 0 0 0-.102-.042h-1.368a.139.139 0 0 0-.102.042.139.139 0 0 0-.042.102v.264c0 .504.13.946.39 1.326.26.38.63.672 1.11.876.48.204 1.04.306 1.68.306zm6.044 0c.744 0 1.284-.22 1.62-.66.016-.024.032-.032.048-.024s.024.024.024.048v.396c0 .04.014.074.042.102a.139.139 0 0 0 .102.042h1.404c.04 0 .074-.014.102-.042a.139.139 0 0 0 .042-.102v-4.068c0-.384-.114-.732-.342-1.044-.228-.312-.546-.558-.954-.738a3.416 3.416 0 0 0-1.392-.27c-.48 0-.914.076-1.302.228-.388.152-.7.364-.936.636-.236.272-.37.576-.402.912-.008.056.036.092.132.108l1.452.192c.08.008.132-.032.156-.12a.616.616 0 0 1 .318-.372c.164-.088.37-.132.618-.132.32 0 .56.074.72.222.16.148.24.354.24.618v.264c0 .04-.02.06-.06.06h-1.224c-.8 0-1.416.17-1.848.51-.432.34-.648.818-.648 1.434 0 .592.192 1.04.576 1.344.384.304.888.456 1.512.456zm.456-1.26c-.256 0-.46-.062-.612-.186a.623.623 0 0 1-.228-.51c0-.248.102-.44.306-.576.204-.136.486-.204.846-.204h.864c.04 0 .06.02.06.06v.432c0 .288-.12.524-.36.708-.24.184-.532.276-.876.276zM499.904 38c.04 0 .074-.014.102-.042a.139.139 0 0 0 .042-.102v-8.112a.139.139 0 0 0-.042-.102.139.139 0 0 0-.102-.042H498.5a.139.139 0 0 0-.102.042.139.139 0 0 0-.042.102v8.112c0 .04.014.074.042.102a.139.139 0 0 0 .102.042h1.404zm3.344.096c.744 0 1.284-.22 1.62-.66.016-.024.032-.032.048-.024s.024.024.024.048v.396c0 .04.014.074.042.102a.139.139 0 0 0 .102.042h1.404c.04 0 .074-.014.102-.042a.139.139 0 0 0 .042-.102v-4.068c0-.384-.114-.732-.342-1.044-.228-.312-.546-.558-.954-.738a3.416 3.416 0 0 0-1.392-.27c-.48 0-.914.076-1.302.228-.388.152-.7.364-.936.636-.236.272-.37.576-.402.912-.008.056.036.092.132.108l1.452.192c.08.008.132-.032.156-.12a.616.616 0 0 1 .318-.372c.164-.088.37-.132.618-.132.32 0 .56.074.72.222.16.148.24.354.24.618v.264c0 .04-.02.06-.06.06h-1.224c-.8 0-1.416.17-1.848.51-.432.34-.648.818-.648 1.434 0 .592.192 1.04.576 1.344.384.304.888.456 1.512.456zm.456-1.26c-.256 0-.46-.062-.612-.186a.623.623 0 0 1-.228-.51c0-.248.102-.44.306-.576.204-.136.486-.204.846-.204h.864c.04 0 .06.02.06.06v.432c0 .288-.12.524-.36.708-.24.184-.532.276-.876.276zM509.568 38c.04 0 .074-.014.102-.042a.139.139 0 0 0 .042-.102V34.58c0-.312.1-.562.3-.75.2-.188.444-.294.732-.318.112-.016.2-.024.264-.024.16 0 .3.02.42.06.104.04.16.012.168-.084l.252-1.368c.016-.088-.008-.148-.072-.18-.168-.112-.396-.168-.684-.168-.552 0-.992.24-1.32.72-.008.016-.02.02-.036.012-.016-.008-.024-.024-.024-.048v-.456a.139.139 0 0 0-.042-.102.139.139 0 0 0-.102-.042h-1.404a.139.139 0 0 0-.102.042.139.139 0 0 0-.042.102v5.88c0 .04.014.074.042.102a.139.139 0 0 0 .102.042h1.404zm3.428 2.388c.688 0 1.22-.068 1.596-.204.376-.136.668-.35.876-.642.208-.292.412-.73.612-1.314l2.076-6.24c.016-.056.014-.098-.006-.126-.02-.028-.054-.042-.102-.042h-1.464c-.088 0-.144.04-.168.12l-1.008 3.888c-.008.024-.02.036-.036.036-.016 0-.028-.012-.036-.036l-1.008-3.888c-.024-.08-.08-.12-.168-.12h-1.5c-.088 0-.132.036-.132.108 0 .024.004.044.012.06l1.968 5.976c.008.032.008.056 0 .072-.064.264-.154.464-.27.6a.866.866 0 0 1-.468.276 3.89 3.89 0 0 1-.798.084.139.139 0 0 0-.102.042.139.139 0 0 0-.042.102v1.104c0 .04.008.074.024.102.016.028.036.042.06.042h.084z"/>
            <path d="M475.967 38.9v-.6H438v.6h37.967zm3.443-.6v.6h33.801v-.6H479.41zm38.573.6v-.6h-1.329v.6h1.329z"/>
            <path d="m540.907 153.037-.29.525a2.089 2.089 0 0 0-1.017-.262v-.6c.463 0 .91.117 1.307.337zm1.393 3.49h-.6l-.001-1.197.6-.02.001 1.216zm0 3.6h-.6v-1.2h.6v1.2zm0 3.6h-.6v-1.2h.6v1.2zm0 3.6h-.6v-1.2h.6v1.2zm0 3.6h-.6v-1.2h.6v1.2zm0 3.6h-.6v-1.2h.6v1.2zm0 3.6h-.6v-1.2h.6v1.2zm-1.193 3.514-.335-.498c.294-.198.535-.47.697-.785l.534.274a2.711 2.711 0 0 1-.896 1.009zm-3.76.459v-.6h1.2v.6h-1.2zm-3.6 0v-.6h1.2v.6h-1.2zm-3.6 0v-.6h1.2v.6h-1.2zm-3.6 0v-.6h1.2v.6h-1.2zm-3.6 0v-.6h1.2v.6h-1.2zm-3.6 0v-.6h1.2v.6h-1.2zm-3.6 0v-.6h1.2v.6h-1.2zm-3.6 0v-.6h1.2v.6h-1.2zm-3.6 0v-.6h1.2v.6h-1.2zm-3.6 0v-.6h1.2v.6h-1.2zm-3.6 0v-.6h1.2v.6h-1.2zm-3.6 0v-.6h1.2v.6h-1.2zm-3.6 0v-.6h1.2v.6h-1.2zm-3.6 0v-.6h1.2v.6h-1.2zm-3.6 0v-.6h1.2v.6h-1.2zm-3.6 0v-.6h1.2v.6h-1.2zm-3.6 0v-.6h1.2v.6h-1.2zm-3.6 0v-.6h1.2v.6h-1.2zm-3.6 0v-.6h1.2v.6h-1.2zm-3.6 0v-.6h1.2v.6h-1.2zm-3.6 0v-.6h1.2v.6h-1.2zm-3.6 0v-.6h1.2v.6h-1.2zm-3.6 0v-.6h1.2v.6h-1.2zm-3.6 0v-.6h1.2v.6h-1.2zm-3.6 0v-.6h1.2v.6h-1.2zm-3.6 0v-.6h1.2v.6h-1.2zm-3.6 0v-.6h1.2v.6h-1.2zm-3.6 0v-.6h1.2v.6h-1.2zm-3.6 0v-.6h1.2v.6h-1.2zm-3.6 0v-.6h1.2v.6h-1.2zm-3.703-.26.257-.541c.279.132.584.201.899.201h.148v.6h-.148a2.69 2.69 0 0 1-1.156-.26zm-1.544-3.419h.6v.994c0 .065.004.13.01.194l-.597.058a2.736 2.736 0 0 1-.013-.25v-.996zm0-3.6h.6v1.2h-.6v-1.2zm0-3.6h.6v1.2h-.6v-1.2zm0-3.6h.6v1.2h-.6v-1.2zm0-3.6h.6v1.2h-.6v-1.2zm0-3.6h.6v1.2h-.6v-1.2zm0-3.6h.6v1.2h-.6v-1.2zm1.055-3.562.366.475a2.108 2.108 0 0 0-.647.828l-.55-.24c.183-.419.47-.785.831-1.063zm3.75-.559v.6h-1.2v-.6h1.2zm3.6 0v.6h-1.2v-.6h1.2zm3.6 0v.6h-1.2v-.6h1.2zm3.6 0v.6h-1.2v-.6h1.2zm3.6 0v.6h-1.2v-.6h1.2zm3.6 0v.6h-1.2v-.6h1.2zm3.6 0v.6h-1.2v-.6h1.2zm3.6 0v.6h-1.2v-.6h1.2zm3.6 0v.6h-1.2v-.6h1.2zm3.6 0v.6h-1.2v-.6h1.2zm3.6 0v.6h-1.2v-.6h1.2zm3.6 0v.6h-1.2v-.6h1.2zm3.6 0v.6h-1.2v-.6h1.2zm3.6 0v.6h-1.2v-.6h1.2zm3.6 0v.6h-1.2v-.6h1.2zm3.6 0v.6h-1.2v-.6h1.2zm3.6 0v.6h-1.2v-.6h1.2zm3.6 0v.6h-1.2v-.6h1.2zm3.6 0v.6h-1.2v-.6h1.2zm3.6 0v.6h-1.2v-.6h1.2zm3.6 0v.6h-1.2v-.6h1.2zm3.6 0v.6h-1.2v-.6h1.2zm3.6 0v.6h-1.2v-.6h1.2zm3.6 0v.6h-1.2v-.6h1.2zm3.6 0v.6h-1.2v-.6h1.2zm3.6 0v.6h-1.2v-.6h1.2zm3.6 0v.6h-1.2v-.6h1.2zm3.6 0v.6h-1.2v-.6h1.2zm3.6 0v.6h-1.2v-.6h1.2zm3.6 0v.6h-1.2v-.6h1.2zm2.695 0v.6h-.295v-.6h.295z" fill-opacity=".4"/>
            <path d="M439.98 172c.08 0 .132-.04.156-.12l.348-1.176c.016-.032.036-.048.06-.048h2.952c.024 0 .044.016.06.048l.36 1.176c.024.08.076.12.156.12h1.524c.088 0 .132-.036.132-.108a.134.134 0 0 0-.012-.06l-2.592-8.112c-.024-.08-.076-.12-.156-.12h-1.884c-.08 0-.132.04-.156.12l-2.592 8.112c-.016.056-.012.098.012.126.024.028.06.042.108.042h1.524zm3.096-2.652h-2.112c-.04 0-.056-.024-.048-.072l1.056-3.564c.008-.024.02-.038.036-.042.016-.004.028.01.036.042l1.08 3.564c.016.048 0 .072-.048.072zm5.768 5.016c.952 0 1.73-.224 2.334-.672.604-.448.906-1.196.906-2.244v-5.472a.139.139 0 0 0-.042-.102.139.139 0 0 0-.102-.042h-1.404a.139.139 0 0 0-.102.042.139.139 0 0 0-.042.102v.288c0 .024-.008.038-.024.042-.016.004-.032-.002-.048-.018-.328-.368-.8-.552-1.416-.552-.528 0-.992.148-1.392.444-.4.296-.684.688-.852 1.176-.144.392-.216.9-.216 1.524 0 .584.06 1.06.18 1.428.184.56.494.966.93 1.218.436.252.914.378 1.434.378.584 0 1.028-.164 1.332-.492.016-.016.032-.022.048-.018s.024.018.024.042c0 .496-.138.856-.414 1.08-.276.224-.67.336-1.182.336-.24 0-.504-.024-.792-.072-.112-.016-.168.028-.168.132l-.048 1.236c0 .096.04.148.12.156.344.04.656.06.936.06zm.468-3.804a1.038 1.038 0 0 1-1.02-.72c-.096-.192-.144-.512-.144-.96 0-.408.056-.732.168-.972.08-.216.204-.39.372-.522a.96.96 0 0 1 .612-.198c.248 0 .456.066.624.198.168.132.288.306.36.522.04.12.068.248.084.384s.024.328.024.576c0 .416-.032.744-.096.984-.064.208-.18.378-.348.51a.998.998 0 0 1-.636.198zm7.076 1.536c.496 0 .952-.09 1.368-.27.416-.18.756-.434 1.02-.762.032-.048.048-.08.048-.096 0-.032-.02-.068-.06-.108l-.864-.852c-.032-.032-.06-.048-.084-.048-.04 0-.076.024-.108.072-.296.408-.7.616-1.212.624-.64 0-1.064-.224-1.272-.672a2.149 2.149 0 0 1-.132-.48c-.016-.04 0-.06.048-.06h3.708c.096 0 .148-.048.156-.144.016-.376 0-.716-.048-1.02-.104-.776-.398-1.396-.882-1.86-.484-.464-1.126-.696-1.926-.696-.632 0-1.178.168-1.638.504-.46.336-.782.788-.966 1.356-.12.336-.18.724-.18 1.164 0 .648.084 1.172.252 1.572.208.56.55.996 1.026 1.308.476.312 1.058.468 1.746.468zm.828-3.756h-2.076c-.04 0-.06-.02-.06-.06.024-.152.052-.28.084-.384.16-.472.492-.708.996-.708.264 0 .486.066.666.198.18.132.306.318.378.558 0-.008.02.104.06.336.016.04 0 .06-.048.06z"/>
            <path d="M447.237 172.9v-.6H438v.6h9.237zm5.367-.6v.6h5.934v-.6h-5.934z"/>
            <g>
                <path d="m540.907 86.037-.29.525a2.089 2.089 0 0 0-1.017-.262v-.6c.463 0 .91.117 1.307.337zm1.393 3.49h-.6l-.001-1.197.6-.02.001 1.216zm0 3.6h-.6v-1.2h.6v1.2zm0 3.6h-.6v-1.2h.6v1.2zm0 3.6h-.6v-1.2h.6v1.2zm0 3.6h-.6v-1.2h.6v1.2zm0 3.6h-.6v-1.2h.6v1.2zm0 3.6h-.6v-1.2h.6v1.2zm-1.193 3.514-.335-.498c.294-.198.535-.47.697-.785l.534.274a2.711 2.711 0 0 1-.896 1.009zm-3.76.459v-.6h1.2v.6h-1.2zm-3.6 0v-.6h1.2v.6h-1.2zm-3.6 0v-.6h1.2v.6h-1.2zm-3.6 0v-.6h1.2v.6h-1.2zm-3.6 0v-.6h1.2v.6h-1.2zm-3.6 0v-.6h1.2v.6h-1.2zm-3.6 0v-.6h1.2v.6h-1.2zm-3.6 0v-.6h1.2v.6h-1.2zm-3.6 0v-.6h1.2v.6h-1.2zm-3.6 0v-.6h1.2v.6h-1.2zm-3.6 0v-.6h1.2v.6h-1.2zm-3.6 0v-.6h1.2v.6h-1.2zm-3.6 0v-.6h1.2v.6h-1.2zm-3.6 0v-.6h1.2v.6h-1.2zm-3.6 0v-.6h1.2v.6h-1.2zm-3.6 0v-.6h1.2v.6h-1.2zm-3.6 0v-.6h1.2v.6h-1.2zm-3.6 0v-.6h1.2v.6h-1.2zm-3.6 0v-.6h1.2v.6h-1.2zm-3.6 0v-.6h1.2v.6h-1.2zm-3.6 0v-.6h1.2v.6h-1.2zm-3.6 0v-.6h1.2v.6h-1.2zm-3.6 0v-.6h1.2v.6h-1.2zm-3.6 0v-.6h1.2v.6h-1.2zm-3.6 0v-.6h1.2v.6h-1.2zm-3.6 0v-.6h1.2v.6h-1.2zm-3.6 0v-.6h1.2v.6h-1.2zm-3.6 0v-.6h1.2v.6h-1.2zm-3.6 0v-.6h1.2v.6h-1.2zm-3.6 0v-.6h1.2v.6h-1.2zm-3.703-.26.257-.541c.279.132.584.201.899.201h.148v.6h-.148a2.69 2.69 0 0 1-1.156-.26zm-1.544-3.419h.6v.994c0 .065.004.13.01.194l-.597.058a2.736 2.736 0 0 1-.013-.25v-.996zm0-3.6h.6v1.2h-.6v-1.2zm0-3.6h.6v1.2h-.6v-1.2zm0-3.6h.6v1.2h-.6v-1.2zm0-3.6h.6v1.2h-.6v-1.2zm0-3.6h.6v1.2h-.6v-1.2zm0-3.6h.6v1.2h-.6v-1.2zm1.055-3.562.366.475a2.108 2.108 0 0 0-.647.828l-.55-.24c.183-.419.47-.785.831-1.063zm3.75-.559v.6h-1.2v-.6h1.2zm3.6 0v.6h-1.2v-.6h1.2zm3.6 0v.6h-1.2v-.6h1.2zm3.6 0v.6h-1.2v-.6h1.2zm3.6 0v.6h-1.2v-.6h1.2zm3.6 0v.6h-1.2v-.6h1.2zm3.6 0v.6h-1.2v-.6h1.2zm3.6 0v.6h-1.2v-.6h1.2zm3.6 0v.6h-1.2v-.6h1.2zm3.6 0v.6h-1.2v-.6h1.2zm3.6 0v.6h-1.2v-.6h1.2zm3.6 0v.6h-1.2v-.6h1.2zm3.6 0v.6h-1.2v-.6h1.2zm3.6 0v.6h-1.2v-.6h1.2zm3.6 0v.6h-1.2v-.6h1.2zm3.6 0v.6h-1.2v-.6h1.2zm3.6 0v.6h-1.2v-.6h1.2zm3.6 0v.6h-1.2v-.6h1.2zm3.6 0v.6h-1.2v-.6h1.2zm3.6 0v.6h-1.2v-.6h1.2zm3.6 0v.6h-1.2v-.6h1.2zm3.6 0v.6h-1.2v-.6h1.2zm3.6 0v.6h-1.2v-.6h1.2zm3.6 0v.6h-1.2v-.6h1.2zm3.6 0v.6h-1.2v-.6h1.2zm3.6 0v.6h-1.2v-.6h1.2zm3.6 0v.6h-1.2v-.6h1.2zm3.6 0v.6h-1.2v-.6h1.2zm3.6 0v.6h-1.2v-.6h1.2zm3.6 0v.6h-1.2v-.6h1.2zm2.695 0v.6h-.295v-.6h.295z" fill-opacity=".4"/>
                <path d="M441.552 105.096c.88 0 1.568-.2 2.064-.6.496-.4.744-.936.744-1.608 0-.432-.11-.798-.33-1.098a2.81 2.81 0 0 0-.864-.762 11.633 11.633 0 0 0-1.41-.672 15.418 15.418 0 0 1-1.278-.546 1.867 1.867 0 0 1-.636-.492c-.148-.188-.222-.426-.222-.714 0-.44.152-.776.456-1.008.304-.232.74-.348 1.308-.348.648 0 1.154.148 1.518.444.364.296.546.676.546 1.14v.216c0 .08.04.12.12.12h.6c.08 0 .12-.04.12-.12v-.264c0-.688-.256-1.24-.768-1.656-.512-.416-1.212-.624-2.1-.624-.816 0-1.458.186-1.926.558-.468.372-.702.894-.702 1.566 0 .432.102.79.306 1.074.204.284.472.516.804.696.332.18.798.39 1.398.63.56.232.994.436 1.302.612.308.176.536.364.684.564.148.2.222.44.222.72 0 .432-.16.778-.48 1.038-.32.26-.788.39-1.404.39-.68 0-1.212-.142-1.596-.426-.384-.284-.576-.658-.576-1.122v-.324c0-.08-.04-.12-.12-.12h-.588c-.08 0-.12.04-.12.12v.372c0 .68.262 1.224.786 1.632.524.408 1.238.612 2.142.612zm6.632-.012c.728 0 1.26-.248 1.596-.744.008-.016.02-.02.036-.012.016.008.024.02.024.036v.516c0 .08.04.12.12.12h.612c.08 0 .12-.04.12-.12v-5.832c0-.08-.04-.12-.12-.12h-.612c-.08 0-.12.04-.12.12v3.804c0 .448-.134.808-.402 1.08s-.63.408-1.086.408c-.44 0-.788-.134-1.044-.402s-.384-.63-.384-1.086v-3.804c0-.08-.04-.12-.12-.12h-.612c-.08 0-.12.04-.12.12v4.056c0 .416.094.772.282 1.068.188.296.444.522.768.678.324.156.678.234 1.062.234zm5.348-.084c.08 0 .12-.04.12-.12v-3.876c0-.432.126-.776.378-1.032s.59-.384 1.014-.384c.416 0 .748.13.996.39s.372.61.372 1.05v3.852c0 .08.04.12.12.12h.612c.08 0 .12-.04.12-.12v-3.876c0-.432.13-.776.39-1.032s.602-.384 1.026-.384c.408 0 .738.13.99.39s.378.61.378 1.05v3.852c0 .08.04.12.12.12h.6c.08 0 .12-.04.12-.12v-4.02c0-.624-.174-1.116-.522-1.476-.348-.36-.822-.54-1.422-.54a2.36 2.36 0 0 0-1.092.246c-.32.164-.568.41-.744.738-.024.04-.044.04-.06 0a1.615 1.615 0 0 0-.672-.732c-.296-.168-.652-.252-1.068-.252-.336 0-.642.058-.918.174-.276.116-.502.29-.678.522-.016.016-.03.022-.042.018-.012-.004-.018-.014-.018-.03v-.48c0-.08-.04-.12-.12-.12h-.612c-.08 0-.12.04-.12.12v5.832c0 .08.04.12.12.12h.612zm13.252 0c.04 0 .074-.014.102-.042a.139.139 0 0 0 .042-.102v-3.06c0-.04.02-.06.06-.06h1.704c.536 0 1.01-.106 1.422-.318a2.33 2.33 0 0 0 .96-.894c.228-.384.342-.828.342-1.332 0-.512-.11-.966-.33-1.362a2.284 2.284 0 0 0-.93-.918c-.4-.216-.864-.324-1.392-.324h-3.384a.139.139 0 0 0-.102.042.139.139 0 0 0-.042.102v8.124c0 .04.014.074.042.102a.139.139 0 0 0 .102.042h1.404zm1.728-4.62h-1.524c-.04 0-.06-.02-.06-.06v-2.208c0-.04.02-.06.06-.06h1.524c.368 0 .664.108.888.324.224.216.336.5.336.852 0 .344-.112.622-.336.834-.224.212-.52.318-.888.318zM474.1 105c.04 0 .074-.014.102-.042a.139.139 0 0 0 .042-.102v-3.276c0-.312.1-.562.3-.75.2-.188.444-.294.732-.318.112-.016.2-.024.264-.024.16 0 .3.02.42.06.104.04.16.012.168-.084l.252-1.368c.016-.088-.008-.148-.072-.18-.168-.112-.396-.168-.684-.168-.552 0-.992.24-1.32.72-.008.016-.02.02-.036.012-.016-.008-.024-.024-.024-.048v-.456a.139.139 0 0 0-.042-.102.139.139 0 0 0-.102-.042h-1.404a.139.139 0 0 0-.102.042.139.139 0 0 0-.042.102v5.88c0 .04.014.074.042.102a.139.139 0 0 0 .102.042h1.404zm5.816.096c.672 0 1.246-.178 1.722-.534.476-.356.802-.846.978-1.47.112-.376.168-.78.168-1.212 0-.44-.064-.86-.192-1.26-.192-.592-.52-1.054-.984-1.386-.464-.332-1.024-.498-1.68-.498-.672 0-1.248.168-1.728.504-.48.336-.812.8-.996 1.392-.112.376-.168.8-.168 1.272 0 .44.056.848.168 1.224.176.608.504 1.088.984 1.44.48.352 1.056.528 1.728.528zm0-1.452c-.272 0-.502-.08-.69-.24a1.314 1.314 0 0 1-.402-.66c-.056-.2-.084-.48-.084-.84 0-.376.032-.66.096-.852.08-.272.21-.484.39-.636.18-.152.406-.228.678-.228.264 0 .488.076.672.228.184.152.32.364.408.636.064.232.096.516.096.852 0 .304-.032.584-.096.84-.08.28-.212.5-.396.66a.989.989 0 0 1-.672.24zm9.716-5.508a.92.92 0 0 0 .948-.948.925.925 0 0 0-.264-.684.925.925 0 0 0-.684-.264.925.925 0 0 0-.684.264.925.925 0 0 0-.264.684.92.92 0 0 0 .948.948zM486.224 105c.04 0 .074-.014.102-.042a.139.139 0 0 0 .042-.102v-4.548c0-.04.02-.06.06-.06h1.164c.04 0 .074-.014.102-.042a.139.139 0 0 0 .042-.102v-1.14a.139.139 0 0 0-.042-.102.139.139 0 0 0-.102-.042h-1.164c-.04 0-.06-.02-.06-.06v-.132c0-.288.054-.486.162-.594.108-.108.302-.166.582-.174h.396c.04 0 .074-.014.102-.042a.139.139 0 0 0 .042-.102v-.972a.139.139 0 0 0-.042-.102.139.139 0 0 0-.102-.042h-.456c-.6-.016-1.07.034-1.41.15-.34.116-.586.312-.738.588-.152.276-.228.662-.228 1.158v.264c0 .04-.02.06-.06.06h-.708a.139.139 0 0 0-.102.042.139.139 0 0 0-.042.102v1.14c0 .04.014.074.042.102a.139.139 0 0 0 .102.042h.708c.04 0 .06.02.06.06v4.548c0 .04.014.074.042.102a.139.139 0 0 0 .102.042h1.404zm4.092 0c.04 0 .074-.014.102-.042a.139.139 0 0 0 .042-.102v-5.892a.139.139 0 0 0-.042-.102.139.139 0 0 0-.102-.042h-1.404a.139.139 0 0 0-.102.042.139.139 0 0 0-.042.102v5.892c0 .04.014.074.042.102a.139.139 0 0 0 .102.042h1.404zm4.196.036c.144 0 .384-.008.72-.024.096-.016.144-.068.144-.156v-1.14a.139.139 0 0 0-.042-.102.139.139 0 0 0-.102-.042h-.396c-.24 0-.414-.064-.522-.192-.108-.128-.162-.324-.162-.588v-2.544c0-.04.02-.06.06-.06h1.152c.04 0 .074-.014.102-.042a.139.139 0 0 0 .042-.102v-1.068a.139.139 0 0 0-.042-.102.139.139 0 0 0-.102-.042h-1.152c-.04 0-.06-.02-.06-.06v-1.428a.139.139 0 0 0-.042-.102.139.139 0 0 0-.102-.042h-1.344a.139.139 0 0 0-.102.042.139.139 0 0 0-.042.102v1.428c0 .04-.02.06-.06.06h-.684a.139.139 0 0 0-.102.042.139.139 0 0 0-.042.102v1.068c0 .04.014.074.042.102a.139.139 0 0 0 .102.042h.684c.04 0 .06.02.06.06v3.216c.008.608.176 1.022.504 1.242.328.22.824.33 1.488.33zM461.984 105.9v-.6H438v.6h23.984zm2.58-.6v.6h30.676v-.6h-30.676z"/>
            </g>
            <path d="M433.476 76c.08 0 .132-.04.156-.12l2.508-8.112c.016-.048.012-.088-.012-.12s-.06-.048-.108-.048h-1.476c-.088 0-.144.04-.168.12l-1.572 5.856c-.008.024-.02.036-.036.036-.016 0-.028-.012-.036-.036l-1.596-5.856c-.024-.08-.08-.12-.168-.12h-1.512c-.088 0-.132.04-.132.12l.012.048 2.472 8.112c.024.08.076.12.156.12h1.512zm5.17.096c.744 0 1.284-.22 1.62-.66.016-.024.032-.032.048-.024s.024.024.024.048v.396c0 .04.014.074.042.102a.139.139 0 0 0 .102.042h1.404c.04 0 .074-.014.102-.042a.139.139 0 0 0 .042-.102v-4.068c0-.384-.114-.732-.342-1.044-.228-.312-.546-.558-.954-.738a3.416 3.416 0 0 0-1.392-.27c-.48 0-.914.076-1.302.228-.388.152-.7.364-.936.636-.236.272-.37.576-.402.912-.008.056.036.092.132.108l1.452.192c.08.008.132-.032.156-.12a.616.616 0 0 1 .318-.372c.164-.088.37-.132.618-.132.32 0 .56.074.72.222.16.148.24.354.24.618v.264c0 .04-.02.06-.06.06h-1.224c-.8 0-1.416.17-1.848.51-.432.34-.648.818-.648 1.434 0 .592.192 1.04.576 1.344.384.304.888.456 1.512.456zm.456-1.26c-.256 0-.46-.062-.612-.186a.623.623 0 0 1-.228-.51c0-.248.102-.44.306-.576.204-.136.486-.204.846-.204h.864c.04 0 .06.02.06.06v.432c0 .288-.12.524-.36.708-.24.184-.532.276-.876.276zM445.281 76c.04 0 .074-.014.102-.042a.139.139 0 0 0 .042-.102v-8.112a.139.139 0 0 0-.042-.102.139.139 0 0 0-.102-.042h-1.404a.139.139 0 0 0-.102.042.139.139 0 0 0-.042.102v8.112c0 .04.014.074.042.102a.139.139 0 0 0 .102.042h1.404zm3.934.084c.672 0 1.168-.216 1.488-.648.016-.024.032-.034.048-.03.016.004.024.018.024.042v.408c0 .04.014.074.042.102a.139.139 0 0 0 .102.042h1.404c.04 0 .074-.014.102-.042a.139.139 0 0 0 .042-.102v-5.88a.139.139 0 0 0-.042-.102.139.139 0 0 0-.102-.042h-1.404a.139.139 0 0 0-.102.042.139.139 0 0 0-.042.102v3.78c-.04.264-.148.478-.324.642a.947.947 0 0 1-.672.246c-.304 0-.542-.1-.714-.3-.172-.2-.258-.46-.258-.78v-3.588a.139.139 0 0 0-.042-.102.139.139 0 0 0-.102-.042h-1.392a.139.139 0 0 0-.102.042.139.139 0 0 0-.042.102v4.008c0 .664.196 1.18.588 1.548.392.368.892.552 1.5.552zm7.906.012c.496 0 .952-.09 1.368-.27.416-.18.756-.434 1.02-.762.032-.048.048-.08.048-.096 0-.032-.02-.068-.06-.108l-.864-.852c-.032-.032-.06-.048-.084-.048-.04 0-.076.024-.108.072-.296.408-.7.616-1.212.624-.64 0-1.064-.224-1.272-.672a2.149 2.149 0 0 1-.132-.48c-.016-.04 0-.06.048-.06h3.708c.096 0 .148-.048.156-.144.016-.376 0-.716-.048-1.02-.104-.776-.398-1.396-.882-1.86-.484-.464-1.126-.696-1.926-.696-.632 0-1.178.168-1.638.504-.46.336-.782.788-.966 1.356-.12.336-.18.724-.18 1.164 0 .648.084 1.172.252 1.572.208.56.55.996 1.026 1.308.476.312 1.058.468 1.746.468zm.828-3.756h-2.076c-.04 0-.06-.02-.06-.06.024-.152.052-.28.084-.384.16-.472.492-.708.996-.708.264 0 .486.066.666.198.18.132.306.318.378.558 0-.008.02.104.06.336.016.04 0 .06-.048.06z"/>
        </g>
    </g>
</svg>
