<svg width="515" height="124" xmlns="http://www.w3.org/2000/svg">
    <g fill="none" fill-rule="evenodd">
        <g fill-rule="nonzero">
            <path d="M49.515 106.094c3.207 0 5.808 2.556 5.808 5.71 0 3.153-2.6 5.71-5.808 5.71-3.207 0-5.807-2.557-5.807-5.71 0-3.154 2.6-5.71 5.807-5.71zm-14.594-.006c3.207 0 5.807 2.557 5.807 5.71s-2.6 5.71-5.807 5.71c-3.208 0-5.808-2.557-5.808-5.71s2.6-5.71 5.808-5.71zm-14.566-.005c3.208 0 5.808 2.556 5.808 5.71 0 3.153-2.6 5.709-5.808 5.709-3.207 0-5.807-2.556-5.807-5.71 0-3.153 2.6-5.71 5.807-5.71zm-14.547-.006c3.207 0 5.807 2.556 5.807 5.71 0 3.153-2.6 5.71-5.807 5.71-3.208 0-5.808-2.557-5.808-5.71 0-3.154 2.6-5.71 5.808-5.71zM8.566 88.81c3.208 0 5.808 2.556 5.808 5.71 0 3.153-2.6 5.71-5.808 5.71-3.207 0-5.807-2.557-5.807-5.71 0-3.154 2.6-5.71 5.807-5.71zm15.222-.468c3.207 0 5.807 2.556 5.807 5.71 0 3.153-2.6 5.71-5.807 5.71-3.208 0-5.808-2.557-5.808-5.71 0-3.154 2.6-5.71 5.808-5.71zm15.663-.697c3.207 0 5.807 2.557 5.807 5.71s-2.6 5.71-5.807 5.71c-3.208 0-5.808-2.557-5.808-5.71s2.6-5.71 5.808-5.71zm16.714-1.13c3.207 0 5.807 2.556 5.807 5.71 0 3.153-2.6 5.709-5.807 5.709-3.208 0-5.808-2.556-5.808-5.71 0-3.153 2.6-5.71 5.808-5.71zM14.57 72.362c3.208 0 5.808 2.556 5.808 5.71 0 3.153-2.6 5.709-5.808 5.709-3.207 0-5.807-2.556-5.807-5.71 0-3.153 2.6-5.71 5.807-5.71zm16.68-.514c3.207 0 5.807 2.556 5.807 5.71 0 3.153-2.6 5.71-5.808 5.71-3.207 0-5.807-2.557-5.807-5.71 0-3.154 2.6-5.71 5.807-5.71zm18.014-.537c3.208 0 5.808 2.557 5.808 5.71s-2.6 5.71-5.808 5.71c-3.207 0-5.807-2.557-5.807-5.71s2.6-5.71 5.807-5.71zm21.03-.063c3.207 0 5.807 2.557 5.807 5.71s-2.6 5.71-5.808 5.71c-3.207 0-5.807-2.557-5.807-5.71s2.6-5.71 5.807-5.71zM63.5 58.51c3.207 0 5.807 2.557 5.807 5.71s-2.6 5.71-5.807 5.71c-3.208 0-5.808-2.557-5.808-5.71s2.6-5.71 5.808-5.71zm-21.151-1.05c3.207 0 5.807 2.556 5.807 5.71 0 3.153-2.6 5.709-5.807 5.709-3.208 0-5.808-2.556-5.808-5.71 0-3.153 2.6-5.71 5.808-5.71zm-18.741-.154c3.207 0 5.807 2.556 5.807 5.71 0 3.153-2.6 5.709-5.807 5.709-3.208 0-5.808-2.556-5.808-5.71 0-3.153 2.6-5.71 5.808-5.71zm57.308-6.955c3.208 0 5.808 2.557 5.808 5.71s-2.6 5.71-5.808 5.71c-3.207 0-5.807-2.557-5.807-5.71s2.6-5.71 5.807-5.71zM56.49 45.95c3.207 0 5.807 2.557 5.807 5.71s-2.6 5.71-5.807 5.71c-3.207 0-5.808-2.557-5.808-5.71s2.6-5.71 5.808-5.71zm-21.14-1.758c3.208 0 5.808 2.556 5.808 5.71 0 3.153-2.6 5.709-5.808 5.709-3.207 0-5.807-2.556-5.807-5.71 0-3.153 2.6-5.71 5.807-5.71zm37.587-6.27c3.207 0 5.807 2.557 5.807 5.71s-2.6 5.71-5.807 5.71c-3.208 0-5.808-2.557-5.808-5.71s2.6-5.71 5.808-5.71zm-23.544-4.453c3.208 0 5.808 2.556 5.808 5.71 0 3.153-2.6 5.71-5.808 5.71-3.207 0-5.807-2.557-5.807-5.71 0-3.154 2.6-5.71 5.807-5.71zm15.837-7.942c3.208 0 5.808 2.556 5.808 5.71 0 3.153-2.6 5.71-5.808 5.71-3.207 0-5.807-2.557-5.807-5.71 0-3.154 2.6-5.71 5.807-5.71z" fill="#57F"/>
            <path d="M89.5 62.901c3.207 0 5.808 2.556 5.808 5.71 0 3.153-2.6 5.71-5.808 5.71-3.207 0-5.808-2.557-5.808-5.71 0-3.154 2.6-5.71 5.808-5.71zm21 0c3.207 0 5.808 2.556 5.808 5.71 0 3.153-2.6 5.71-5.808 5.71-3.207 0-5.808-2.557-5.808-5.71 0-3.154 2.6-5.71 5.808-5.71zm26-4.39c3.208 0 5.808 2.556 5.808 5.709 0 3.153-2.6 5.71-5.808 5.71-3.207 0-5.807-2.557-5.807-5.71s2.6-5.71 5.807-5.71zm-17.416-8.16c3.207 0 5.807 2.557 5.807 5.71s-2.6 5.71-5.807 5.71c-3.208 0-5.808-2.557-5.808-5.71s2.6-5.71 5.808-5.71zM100 47.548c3.207 0 5.808 2.556 5.808 5.71 0 3.153-2.6 5.71-5.808 5.71-3.207 0-5.808-2.557-5.808-5.71 0-3.154 2.6-5.71 5.808-5.71zm43.51-1.599c3.207 0 5.808 2.557 5.808 5.71s-2.6 5.71-5.808 5.71c-3.207 0-5.807-2.557-5.807-5.71s2.6-5.71 5.807-5.71zm-16.447-8.027c3.208 0 5.808 2.556 5.808 5.71 0 3.152-2.6 5.709-5.808 5.709-3.207 0-5.807-2.557-5.807-5.71s2.6-5.71 5.807-5.71zm-36.245-4.128c3.208 0 5.808 2.556 5.808 5.71 0 3.152-2.6 5.709-5.808 5.709-3.207 0-5.807-2.557-5.807-5.71s2.6-5.71 5.807-5.71zm18.364 0c3.207 0 5.807 2.556 5.807 5.71 0 3.152-2.6 5.709-5.807 5.709-3.208 0-5.808-2.557-5.808-5.71s2.6-5.71 5.808-5.71zm41.425-.326c3.207 0 5.807 2.556 5.807 5.71 0 3.153-2.6 5.71-5.807 5.71-3.208 0-5.808-2.557-5.808-5.71 0-3.154 2.6-5.71 5.808-5.71zm-15.837-7.942c3.207 0 5.807 2.556 5.807 5.71 0 3.153-2.6 5.71-5.807 5.71-3.208 0-5.808-2.557-5.808-5.71 0-3.154 2.6-5.71 5.808-5.71zm-52.471-4.882c3.207 0 5.807 2.557 5.807 5.71s-2.6 5.71-5.807 5.71c-3.208 0-5.808-2.557-5.808-5.71s2.6-5.71 5.808-5.71zm35.402 0c3.208 0 5.808 2.557 5.808 5.71s-2.6 5.71-5.808 5.71c-3.207 0-5.807-2.557-5.807-5.71s2.6-5.71 5.807-5.71zM100 19c3.207 0 5.808 2.556 5.808 5.71 0 3.153-2.6 5.71-5.808 5.71-3.207 0-5.808-2.557-5.808-5.71 0-3.154 2.6-5.71 5.808-5.71z" fill="#B7C5FF"/>
            <path d="M150.485 106.094c3.207 0 5.807 2.556 5.807 5.71 0 3.153-2.6 5.71-5.807 5.71-3.207 0-5.808-2.557-5.808-5.71 0-3.154 2.6-5.71 5.808-5.71zm14.594-.006c3.208 0 5.808 2.557 5.808 5.71s-2.6 5.71-5.808 5.71c-3.207 0-5.807-2.557-5.807-5.71s2.6-5.71 5.807-5.71zm14.566-.005c3.207 0 5.807 2.556 5.807 5.71 0 3.153-2.6 5.709-5.807 5.709-3.208 0-5.808-2.556-5.808-5.71 0-3.153 2.6-5.71 5.808-5.71zm14.547-.006c3.208 0 5.808 2.556 5.808 5.71 0 3.153-2.6 5.71-5.808 5.71-3.207 0-5.807-2.557-5.807-5.71 0-3.154 2.6-5.71 5.807-5.71zm-2.758-17.266c3.207 0 5.807 2.556 5.807 5.71 0 3.153-2.6 5.71-5.807 5.71-3.208 0-5.808-2.557-5.808-5.71 0-3.154 2.6-5.71 5.808-5.71zm-15.222-.468c3.208 0 5.808 2.556 5.808 5.71 0 3.153-2.6 5.71-5.808 5.71-3.207 0-5.807-2.557-5.807-5.71 0-3.154 2.6-5.71 5.807-5.71zm-15.663-.697c3.208 0 5.808 2.557 5.808 5.71s-2.6 5.71-5.808 5.71c-3.207 0-5.807-2.557-5.807-5.71s2.6-5.71 5.807-5.71zm-16.714-1.13c3.208 0 5.808 2.556 5.808 5.71 0 3.153-2.6 5.709-5.808 5.709-3.207 0-5.807-2.556-5.807-5.71 0-3.153 2.6-5.71 5.807-5.71zm41.594-14.154c3.207 0 5.807 2.556 5.807 5.71 0 3.153-2.6 5.709-5.807 5.709-3.208 0-5.808-2.556-5.808-5.71 0-3.153 2.6-5.71 5.808-5.71zm-16.68-.514c3.208 0 5.808 2.556 5.808 5.71 0 3.153-2.6 5.71-5.807 5.71-3.208 0-5.808-2.557-5.808-5.71 0-3.154 2.6-5.71 5.808-5.71zm-18.014-.537c3.207 0 5.807 2.557 5.807 5.71s-2.6 5.71-5.807 5.71c-3.208 0-5.808-2.557-5.808-5.71s2.6-5.71 5.808-5.71zm-21.03-.063c3.208 0 5.808 2.557 5.808 5.71s-2.6 5.71-5.807 5.71c-3.208 0-5.808-2.557-5.808-5.71s2.6-5.71 5.808-5.71zm27.946-13.788c3.208 0 5.808 2.556 5.808 5.71 0 3.153-2.6 5.709-5.808 5.709-3.207 0-5.807-2.556-5.807-5.71 0-3.153 2.6-5.71 5.807-5.71zm18.741-.154c3.208 0 5.808 2.556 5.808 5.71 0 3.153-2.6 5.709-5.808 5.709-3.207 0-5.807-2.556-5.807-5.71 0-3.153 2.6-5.71 5.807-5.71zM164.65 44.19c3.207 0 5.807 2.556 5.807 5.71 0 3.153-2.6 5.709-5.807 5.709-3.208 0-5.808-2.556-5.808-5.71 0-3.153 2.6-5.71 5.808-5.71z" fill="#7F98FE"/>
        </g>
        <g fill="#FFF" fill-rule="nonzero">
            <path d="M381.406 11a.162.162 0 0 0 .119-.049.162.162 0 0 0 .049-.119V9.768a.162.162 0 0 0-.049-.119.162.162 0 0 0-.119-.049h-4.69c-.047 0-.07-.023-.07-.07V1.368a.162.162 0 0 0-.049-.119.162.162 0 0 0-.119-.049h-1.288a.162.162 0 0 0-.119.049.162.162 0 0 0-.049.119v9.464c0 .047.016.086.049.119a.162.162 0 0 0 .119.049h6.216zm5.178.126c.588 0 1.122-.112 1.603-.336a2.86 2.86 0 0 0 1.155-.952c.056-.084.042-.159-.042-.224l-.868-.714a.134.134 0 0 0-.098-.042c-.056 0-.103.028-.14.084-.373.523-.877.784-1.512.784-.868-.01-1.414-.35-1.638-1.022-.056-.112-.098-.322-.126-.63 0-.047.023-.07.07-.07h4.382c.112 0 .168-.056.168-.168l.014-.434c0-.29-.019-.55-.056-.784-.233-1.923-1.27-2.884-3.108-2.884-.728 0-1.351.189-1.869.567-.518.378-.87.894-1.057 1.547-.112.336-.168.775-.168 1.316 0 .896.107 1.596.322 2.1a2.82 2.82 0 0 0 1.113 1.372c.509.327 1.127.49 1.855.49zM387.83 6.8h-2.842c-.056 0-.075-.023-.056-.07a2.43 2.43 0 0 1 .112-.616c.093-.308.254-.548.483-.721.229-.173.516-.259.861-.259.373 0 .684.093.931.28.247.187.413.448.497.784.037.121.065.299.084.532 0 .047-.023.07-.07.07zm6.186 6.972c1.083 0 1.958-.25 2.625-.749.667-.5 1.001-1.332 1.001-2.499v-6.51a.162.162 0 0 0-.049-.119.162.162 0 0 0-.119-.049h-1.288a.162.162 0 0 0-.119.049.162.162 0 0 0-.049.119v.336c0 .028-.01.047-.028.056-.019.01-.037 0-.056-.028-.41-.43-.985-.644-1.722-.644-.616 0-1.153.17-1.61.511-.457.34-.78.796-.966 1.365-.15.41-.224 1.003-.224 1.778 0 .69.06 1.255.182 1.694.196.635.546 1.106 1.05 1.414.504.308 1.06.462 1.666.462.7 0 1.241-.205 1.624-.616.019-.019.037-.026.056-.021.019.005.028.021.028.049v.112c0 .653-.166 1.118-.497 1.393-.331.275-.847.413-1.547.413-.215 0-.457-.014-.728-.042-.13 0-.196.051-.196.154l-.042 1.148c0 .112.051.173.154.182.28.028.565.042.854.042zm.574-4.144a1.41 1.41 0 0 1-.889-.287 1.458 1.458 0 0 1-.511-.735c-.093-.233-.14-.64-.14-1.218 0-.56.056-.97.168-1.232.103-.308.27-.555.504-.742.233-.187.518-.28.854-.28.355 0 .646.093.875.28.229.187.38.434.455.742.047.15.077.301.091.455.014.154.021.408.021.763 0 .364-.007.628-.021.791-.014.163-.04.315-.077.455a1.345 1.345 0 0 1-.448.728c-.224.187-.518.28-.882.28zm8.454 1.498c.588 0 1.122-.112 1.603-.336a2.86 2.86 0 0 0 1.155-.952c.056-.084.042-.159-.042-.224l-.868-.714a.134.134 0 0 0-.098-.042c-.056 0-.103.028-.14.084-.373.523-.877.784-1.512.784-.868-.01-1.414-.35-1.638-1.022-.056-.112-.098-.322-.126-.63 0-.047.023-.07.07-.07h4.382c.112 0 .168-.056.168-.168l.014-.434c0-.29-.019-.55-.056-.784-.233-1.923-1.27-2.884-3.108-2.884-.728 0-1.351.189-1.869.567-.518.378-.87.894-1.057 1.547-.112.336-.168.775-.168 1.316 0 .896.107 1.596.322 2.1a2.82 2.82 0 0 0 1.113 1.372c.509.327 1.127.49 1.855.49zM404.29 6.8h-2.842c-.056 0-.075-.023-.056-.07a2.43 2.43 0 0 1 .112-.616c.093-.308.254-.548.483-.721.229-.173.516-.259.861-.259.373 0 .684.093.931.28.247.187.413.448.497.784.037.121.065.299.084.532 0 .047-.023.07-.07.07zm5.262 4.2a.162.162 0 0 0 .119-.049.162.162 0 0 0 .049-.119v-4.27c0-.43.124-.775.371-1.036s.572-.392.973-.392.723.133.966.399.364.614.364 1.043v4.256c0 .047.016.086.049.119a.162.162 0 0 0 .119.049h1.288a.162.162 0 0 0 .119-.049.162.162 0 0 0 .049-.119V6.24c0-.775-.226-1.386-.679-1.834-.453-.448-1.057-.672-1.813-.672-.775 0-1.353.252-1.736.756-.01.028-.023.037-.042.028-.019-.01-.028-.028-.028-.056v-.448a.162.162 0 0 0-.049-.119.162.162 0 0 0-.119-.049h-1.288a.162.162 0 0 0-.119.049.162.162 0 0 0-.049.119v6.818c0 .047.016.086.049.119a.162.162 0 0 0 .119.049h1.288zm9.448.112c.663 0 1.2-.243 1.61-.728.019-.028.037-.037.056-.028.019.01.028.028.028.056v.42c0 .047.016.086.049.119a.162.162 0 0 0 .119.049h1.288a.162.162 0 0 0 .119-.049.162.162 0 0 0 .049-.119V1.368a.162.162 0 0 0-.049-.119.162.162 0 0 0-.119-.049h-1.288a.162.162 0 0 0-.119.049.162.162 0 0 0-.049.119v3.038c0 .028-.01.044-.028.049-.019.005-.037-.002-.056-.021-.41-.467-.938-.7-1.582-.7-.69 0-1.265.173-1.722.518-.457.345-.789.826-.994 1.442-.159.476-.238 1.045-.238 1.708 0 .644.084 1.227.252 1.75.205.616.537 1.097.994 1.442.457.345 1.017.518 1.68.518zm.252-1.4c-.532 0-.929-.224-1.19-.672-.224-.42-.336-.957-.336-1.61 0-.728.14-1.297.42-1.708.27-.392.644-.588 1.12-.588.457 0 .812.205 1.064.616.233.383.35.938.35 1.666 0 .7-.107 1.241-.322 1.624-.261.448-.63.672-1.106.672z"/>
            <path d="m512.179 22.062-.485.875A3.482 3.482 0 0 0 510 22.5v-1c.772 0 1.518.195 2.179.562zm2.321 5.815h-1l-.002-1.993 1-.033.002.14v1.886zm0 6h-1v-2h1v2zm0 6h-1v-2h1v2zm0 6h-1v-2h1v2zm-1.989 5.858-.558-.83c.49-.33.892-.782 1.163-1.309l.89.457a4.518 4.518 0 0 1-1.495 1.682zm-6.265.765v-1h2v1h-2zm-6 0v-1h2v1h-2zm-6 0v-1h2v1h-2zm-6 0v-1h2v1h-2zm-6 0v-1h2v1h-2zm-6 0v-1h2v1h-2zm-6 0v-1h2v1h-2zm-6 0v-1h2v1h-2zm-6 0v-1h2v1h-2zm-6 0v-1h2v1h-2zm-6 0v-1h2v1h-2zm-6 0v-1h2v1h-2zm-6 0v-1h2v1h-2zm-6 0v-1h2v1h-2zm-6 0v-1h2v1h-2zm-6 0v-1h2v1h-2zm-6 0v-1h2v1h-2zm-6 0v-1h2v1h-2zm-6 0v-1h2v1h-2zm-6 0v-1h2v1h-2zm-6 0v-1h2v1h-2zm-6 0v-1h2v1h-2zm-5.9-1.872.812-.585c.346.48.81.868 1.344 1.121l-.428.904a4.516 4.516 0 0 1-1.727-1.44zm-.846-6.26h1v2h-1v-2zm0-6h1v2h-1v-2zm0-6h1v2h-1v-2zm0-6h1v2h-1v-2zm3.948-4.834.121.992a3.478 3.478 0 0 0-1.627.642l-.588-.808a4.478 4.478 0 0 1 2.094-.826zm6.06-.034v1h-2v-1h2zm6 0v1h-2v-1h2zm6 0v1h-2v-1h2zm6 0v1h-2v-1h2zm6 0v1h-2v-1h2zm6 0v1h-2v-1h2zm6 0v1h-2v-1h2zm6 0v1h-2v-1h2zm6 0v1h-2v-1h2zm6 0v1h-2v-1h2zm6 0v1h-2v-1h2zm6 0v1h-2v-1h2zm6 0v1h-2v-1h2zm6 0v1h-2v-1h2zm6 0v1h-2v-1h2zm6 0v1h-2v-1h2zm6 0v1h-2v-1h2zm6 0v1h-2v-1h2zm6 0v1h-2v-1h2zm6 0v1h-2v-1h2zm6 0v1h-2v-1h2zm6 0v1h-2v-1h2z" opacity=".4"/>
            <path d="M387.684 42.096c.856 0 1.538-.24 2.046-.72.508-.48.762-1.148.762-2.004v-1.548c0-.08-.04-.12-.12-.12h-2.544c-.08 0-.12.04-.12.12v.504c0 .08.04.12.12.12h1.764c.032 0 .048.016.048.048v1.092c0 .536-.174.964-.522 1.284-.348.32-.814.48-1.398.48-.6 0-1.084-.172-1.452-.516-.368-.344-.552-.796-.552-1.356v-3.36c0-.56.18-1.012.54-1.356.36-.344.836-.516 1.428-.516s1.066.168 1.422.504c.356.336.534.772.534 1.308v.144c0 .08.04.12.12.12h.612c.08 0 .12-.04.12-.12v-.156a2.51 2.51 0 0 0-.348-1.314 2.364 2.364 0 0 0-.99-.906c-.428-.216-.918-.324-1.47-.324-.56 0-1.052.11-1.476.33-.424.22-.754.53-.99.93s-.354.86-.354 1.38v3.312c0 .52.118.98.354 1.38.236.4.566.71.99.93.424.22.916.33 1.476.33zm5.535-.096c.08 0 .12-.04.12-.12v-3.54c0-.448.136-.818.408-1.11a1.43 1.43 0 0 1 1.032-.462l.156-.012c.176 0 .332.028.468.084.08.032.132.008.156-.072l.132-.588c.016-.072-.008-.124-.072-.156a1.416 1.416 0 0 0-.684-.156c-.344 0-.646.082-.906.246a1.91 1.91 0 0 0-.642.69c-.008.016-.018.022-.03.018s-.018-.018-.018-.042v-.732c0-.08-.04-.12-.12-.12h-.612c-.08 0-.12.04-.12.12v5.832c0 .08.04.12.12.12h.612zm6.064.096c.576 0 1.07-.148 1.482-.444.412-.296.694-.704.846-1.224.112-.336.168-.828.168-1.476 0-.64-.056-1.132-.168-1.476a2.224 2.224 0 0 0-.846-1.2c-.412-.296-.902-.444-1.47-.444-.592 0-1.096.148-1.512.444-.416.296-.7.7-.852 1.212-.112.36-.168.848-.168 1.464s.056 1.108.168 1.476c.16.52.448.928.864 1.224.416.296.912.444 1.488.444zm0-.744c-.4 0-.738-.106-1.014-.318a1.492 1.492 0 0 1-.546-.858c-.064-.28-.096-.684-.096-1.212 0-.528.032-.932.096-1.212.096-.36.28-.646.552-.858.272-.212.604-.318.996-.318s.726.106 1.002.318c.276.212.462.498.558.858.064.28.096.684.096 1.212 0 .52-.036.924-.108 1.212-.096.36-.28.646-.552.858-.272.212-.6.318-.984.318zm6.411.732c.728 0 1.26-.248 1.596-.744.008-.016.02-.02.036-.012.016.008.024.02.024.036v.516c0 .08.04.12.12.12h.612c.08 0 .12-.04.12-.12v-5.832c0-.08-.04-.12-.12-.12h-.612c-.08 0-.12.04-.12.12v3.804c0 .448-.134.808-.402 1.08s-.63.408-1.086.408c-.44 0-.788-.134-1.044-.402s-.384-.63-.384-1.086v-3.804c0-.08-.04-.12-.12-.12h-.612c-.08 0-.12.04-.12.12v4.056c0 .416.094.772.282 1.068.188.296.444.522.768.678.324.156.678.234 1.062.234zm5.404 2.244c.08 0 .12-.04.12-.12v-2.82c0-.016.006-.026.018-.03.012-.004.026.002.042.018.176.232.396.41.66.534.264.124.552.186.864.186.576 0 1.054-.146 1.434-.438.38-.292.642-.694.786-1.206.104-.352.156-.848.156-1.488 0-.632-.06-1.14-.18-1.524a2.196 2.196 0 0 0-.786-1.176c-.38-.288-.85-.432-1.41-.432-.32 0-.61.064-.87.192s-.478.308-.654.54c-.016.016-.03.022-.042.018-.012-.004-.018-.014-.018-.03v-.504c0-.08-.04-.12-.12-.12h-.612c-.08 0-.12.04-.12.12v8.16c0 .08.04.12.12.12h.612zm1.608-2.976c-.304 0-.566-.082-.786-.246a1.358 1.358 0 0 1-.474-.654 2.028 2.028 0 0 1-.168-.582 6.64 6.64 0 0 1-.048-.906c0-.384.016-.684.048-.9.032-.216.084-.404.156-.564.104-.28.264-.504.48-.672.216-.168.484-.252.804-.252.336 0 .626.084.87.252.244.168.414.396.51.684.08.168.136.358.168.57.032.212.048.506.048.882 0 .392-.022.698-.066.918-.044.22-.11.418-.198.594a1.35 1.35 0 0 1-.51.636 1.45 1.45 0 0 1-.834.24zM422.84 42c.752 0 1.358-.2 1.818-.6.46-.4.69-.96.69-1.68 0-.488-.112-.904-.336-1.248-.224-.344-.552-.604-.984-.78-.04-.024-.04-.048 0-.072.392-.16.694-.394.906-.702.212-.308.318-.682.318-1.122 0-.696-.222-1.236-.666-1.62-.444-.384-1.054-.576-1.83-.576h-2.82c-.08 0-.12.04-.12.12v8.16c0 .08.04.12.12.12h2.904zm-.084-4.68h-2.04c-.032 0-.048-.016-.048-.048v-2.88c0-.032.016-.048.048-.048h2.04c.504 0 .906.138 1.206.414.3.276.45.646.45 1.11 0 .44-.15.792-.45 1.056-.3.264-.702.396-1.206.396zm.084 3.924h-2.124c-.032 0-.048-.016-.048-.048v-3.108c0-.032.016-.048.048-.048h2.076c.52 0 .934.146 1.242.438.308.292.462.682.462 1.17 0 .488-.15.876-.45 1.164-.3.288-.702.432-1.206.432zm4.227 3.156c.456 0 .81-.05 1.062-.15.252-.1.462-.278.63-.534.168-.256.348-.652.54-1.188l2.22-6.468c.024-.088-.008-.132-.096-.132h-.624c-.072 0-.12.032-.144.096l-1.536 4.848c-.008.016-.02.024-.036.024-.016 0-.028-.008-.036-.024l-1.56-4.848c-.024-.064-.072-.096-.144-.096h-.636c-.072 0-.108.028-.108.084l.012.048 2.028 5.904c.016.016.016.04 0 .072-.144.464-.278.81-.402 1.038-.124.228-.272.384-.444.468-.172.084-.414.13-.726.138h-.048c-.08 0-.12.04-.12.12v.48c0 .08.028.12.084.12h.084zm9.63-2.4c.04 0 .075-.014.103-.042a.139.139 0 0 0 .042-.102v-3.408c0-.04.02-.06.06-.06h1.44c.032 0 .056.016.072.048l1.584 3.456a.17.17 0 0 0 .168.108h1.152c.088 0 .132-.032.132-.096a.184.184 0 0 0-.024-.072l-1.692-3.492a.051.051 0 0 1 0-.048c.008-.016.02-.024.036-.024.504-.152.898-.422 1.182-.81.284-.388.426-.858.426-1.41 0-.48-.104-.906-.312-1.278-.208-.372-.5-.66-.876-.864a2.674 2.674 0 0 0-1.296-.306h-3.3a.139.139 0 0 0-.102.042.139.139 0 0 0-.042.102v8.112c0 .04.014.074.042.102a.139.139 0 0 0 .102.042h1.104zm2.005-4.692h-1.8c-.04 0-.06-.02-.06-.06V34.86c0-.04.02-.06.06-.06h1.8c.384 0 .694.116.93.348.236.232.354.536.354.912s-.118.678-.354.906c-.236.228-.546.342-.93.342zm6.747 4.8c.504 0 .962-.096 1.374-.288.412-.192.742-.464.99-.816.048-.072.036-.136-.036-.192l-.744-.612a.115.115 0 0 0-.084-.036c-.048 0-.088.024-.12.072-.32.448-.752.672-1.296.672-.744-.008-1.212-.3-1.404-.876-.048-.096-.084-.276-.108-.54 0-.04.02-.06.06-.06h3.756c.096 0 .144-.048.144-.144l.012-.372c0-.248-.016-.472-.048-.672-.2-1.648-1.088-2.472-2.664-2.472-.624 0-1.158.162-1.602.486a2.407 2.407 0 0 0-.906 1.326c-.096.288-.144.664-.144 1.128 0 .768.092 1.368.276 1.8.2.504.518.896.954 1.176.436.28.966.42 1.59.42zm1.068-3.708h-2.436c-.048 0-.064-.02-.048-.06.016-.216.048-.392.096-.528.08-.264.218-.47.414-.618.196-.148.442-.222.738-.222.32 0 .586.08.798.24.212.16.354.384.426.672.032.104.056.256.072.456 0 .04-.02.06-.06.06zm4.96 5.976c.928 0 1.678-.214 2.25-.642.572-.428.858-1.142.858-2.142v-5.58a.139.139 0 0 0-.042-.102.139.139 0 0 0-.102-.042h-1.104a.139.139 0 0 0-.102.042.139.139 0 0 0-.042.102v.288c0 .024-.008.04-.024.048s-.032 0-.048-.024c-.352-.368-.844-.552-1.476-.552-.528 0-.988.146-1.38.438a2.32 2.32 0 0 0-.828 1.17c-.128.352-.192.86-.192 1.524 0 .592.052 1.076.156 1.452.168.544.468.948.9 1.212s.908.396 1.428.396c.6 0 1.064-.176 1.392-.528.016-.016.032-.022.048-.018s.024.018.024.042v.096c0 .56-.142.958-.426 1.194-.284.236-.726.354-1.326.354-.184 0-.392-.012-.624-.036-.112 0-.168.044-.168.132l-.036.984c0 .096.044.148.132.156.24.024.484.036.732.036zm.492-3.552c-.296 0-.55-.082-.762-.246a1.25 1.25 0 0 1-.438-.63c-.08-.2-.12-.548-.12-1.044 0-.48.048-.832.144-1.056.088-.264.232-.476.432-.636.2-.16.444-.24.732-.24.304 0 .554.08.75.24.196.16.326.372.39.636.04.128.066.258.078.39.012.132.018.35.018.654 0 .312-.006.538-.018.678-.012.14-.034.27-.066.39a1.153 1.153 0 0 1-.384.624c-.192.16-.444.24-.756.24zm5.02-5.796c.247 0 .451-.08.611-.24.16-.16.24-.364.24-.612a.829.829 0 0 0-.24-.612.829.829 0 0 0-.612-.24.829.829 0 0 0-.612.24.829.829 0 0 0-.24.612c0 .248.08.452.24.612.16.16.364.24.612.24zm.527 6.972c.04 0 .074-.014.102-.042a.139.139 0 0 0 .042-.102V36a.139.139 0 0 0-.042-.102.139.139 0 0 0-.102-.042h-1.104a.139.139 0 0 0-.102.042.139.139 0 0 0-.042.102v5.856c0 .04.014.074.042.102a.139.139 0 0 0 .102.042h1.104zm4.516.096c.616 0 1.148-.162 1.596-.486.448-.324.764-.77.948-1.338a4.31 4.31 0 0 0 .204-1.368c0-.528-.072-.984-.216-1.368-.184-.552-.498-.984-.942-1.296-.444-.312-.97-.468-1.578-.468-.64 0-1.188.156-1.644.468-.456.312-.776.748-.96 1.308-.128.4-.192.856-.192 1.368 0 .48.068.936.204 1.368.184.568.502 1.012.954 1.332.452.32.994.48 1.626.48zm0-1.2c-.312 0-.578-.084-.798-.252a1.322 1.322 0 0 1-.462-.708c-.08-.28-.12-.616-.12-1.008s.04-.728.12-1.008c.096-.304.252-.538.468-.702.216-.164.472-.246.768-.246.312 0 .576.082.792.246.216.164.368.398.456.702.08.24.12.576.12 1.008 0 .408-.04.744-.12 1.008-.096.304-.25.54-.462.708a1.19 1.19 0 0 1-.762.252zM467.52 42c.04 0 .074-.014.102-.042a.139.139 0 0 0 .042-.102v-3.66c0-.368.106-.664.318-.888.212-.224.49-.336.834-.336s.62.114.828.342c.208.228.312.526.312.894v3.648c0 .04.014.074.042.102a.139.139 0 0 0 .102.042h1.104c.04 0 .074-.014.102-.042a.139.139 0 0 0 .042-.102V37.92c0-.664-.194-1.188-.582-1.572-.388-.384-.906-.576-1.554-.576-.664 0-1.16.216-1.488.648-.008.024-.02.032-.036.024-.016-.008-.024-.024-.024-.048v-.384a.139.139 0 0 0-.042-.102.139.139 0 0 0-.102-.042h-1.104a.139.139 0 0 0-.102.042.139.139 0 0 0-.042.102v5.844c0 .04.014.074.042.102a.139.139 0 0 0 .102.042h1.104z"/>
            <path d="M409.765 42.9v-.6H384v.6h25.765zm2.052-.6v.6h15.906v-.6h-15.906zm20.206.6v-.6h-2.045v.6h2.045z"/>
        </g>
        <g fill="#FFF" fill-rule="nonzero">
            <path d="M378.956 82c.093 0 .154-.047.182-.14l2.982-9.464c.019-.056.014-.103-.014-.14-.028-.037-.07-.056-.126-.056h-1.358c-.103 0-.168.047-.196.14l-2.086 7.308c-.01.028-.023.042-.042.042-.019 0-.033-.014-.042-.042l-2.1-7.308c-.028-.093-.093-.14-.196-.14h-1.386c-.103 0-.154.047-.154.14l.014.056 2.94 9.464c.028.093.089.14.182.14h1.4zm6.256.112c.868 0 1.53-.252 1.988-.756.019-.019.037-.026.056-.021.019.005.028.021.028.049v.448c0 .047.016.086.049.119a.162.162 0 0 0 .119.049h1.288a.162.162 0 0 0 .119-.049.162.162 0 0 0 .049-.119v-4.718c0-.457-.121-.866-.364-1.225-.243-.36-.588-.642-1.036-.847-.448-.205-.966-.308-1.554-.308-.812 0-1.486.182-2.023.546-.537.364-.842.83-.917 1.4-.01.037.002.068.035.091.033.023.072.04.119.049l1.358.168c.103.019.168-.028.196-.14a.822.822 0 0 1 .413-.525c.22-.126.506-.189.861-.189.43 0 .751.1.966.301.215.2.322.483.322.847v.336c0 .047-.023.07-.07.07h-1.498c-.924 0-1.64.203-2.149.609-.509.406-.763.973-.763 1.701 0 .7.226 1.227.679 1.582.453.355 1.029.532 1.729.532zm.406-1.288c-.345 0-.628-.082-.847-.245-.22-.163-.329-.394-.329-.693 0-.345.142-.611.427-.798.285-.187.674-.28 1.169-.28h1.176c.047 0 .07.023.07.07v.658c0 .373-.163.681-.49.924-.327.243-.719.364-1.176.364zm6.97 1.176a.162.162 0 0 0 .119-.049.162.162 0 0 0 .049-.119v-9.464a.162.162 0 0 0-.049-.119.162.162 0 0 0-.119-.049H391.3a.162.162 0 0 0-.119.049.162.162 0 0 0-.049.119v9.464c0 .047.016.086.049.119a.162.162 0 0 0 .119.049h1.288zm4.912.098c.765 0 1.34-.247 1.722-.742.019-.028.037-.037.056-.028.019.01.028.028.028.056v.448c0 .047.016.086.049.119a.162.162 0 0 0 .119.049h1.274a.162.162 0 0 0 .119-.049.162.162 0 0 0 .049-.119v-6.818a.162.162 0 0 0-.049-.119.162.162 0 0 0-.119-.049h-1.274a.162.162 0 0 0-.119.049.162.162 0 0 0-.049.119v4.256c0 .439-.126.789-.378 1.05s-.588.392-1.008.392c-.41 0-.73-.13-.959-.392-.229-.261-.343-.611-.343-1.05v-4.256a.162.162 0 0 0-.049-.119.162.162 0 0 0-.119-.049h-1.288a.162.162 0 0 0-.119.049.162.162 0 0 0-.049.119v4.718c0 .756.24 1.34.721 1.75.48.41 1.076.616 1.785.616zm8.874.028c.588 0 1.122-.112 1.603-.336a2.86 2.86 0 0 0 1.155-.952c.056-.084.042-.159-.042-.224l-.868-.714a.134.134 0 0 0-.098-.042c-.056 0-.103.028-.14.084-.373.523-.877.784-1.512.784-.868-.01-1.414-.35-1.638-1.022-.056-.112-.098-.322-.126-.63 0-.047.023-.07.07-.07h4.382c.112 0 .168-.056.168-.168l.014-.434c0-.29-.019-.55-.056-.784-.233-1.923-1.27-2.884-3.108-2.884-.728 0-1.351.189-1.869.567-.518.378-.87.894-1.057 1.547-.112.336-.168.775-.168 1.316 0 .896.107 1.596.322 2.1a2.82 2.82 0 0 0 1.113 1.372c.509.327 1.127.49 1.855.49zm1.246-4.326h-2.842c-.056 0-.075-.023-.056-.07a2.43 2.43 0 0 1 .112-.616c.093-.308.254-.548.483-.721.229-.173.516-.259.861-.259.373 0 .684.093.931.28.247.187.413.448.497.784.037.121.065.299.084.532 0 .047-.023.07-.07.07z"/>
            <path d="m512.179 93.062-.485.875A3.482 3.482 0 0 0 510 93.5v-1c.772 0 1.518.195 2.179.562zm2.321 5.815h-1l-.002-1.993 1-.033.002.14v1.886zm0 6h-1v-2h1v2zm0 6h-1v-2h1v2zm0 6h-1v-2h1v2zm-1.989 5.858-.558-.83c.49-.33.892-.782 1.163-1.309l.89.457a4.518 4.518 0 0 1-1.495 1.682zm-6.265.765v-1h2v1h-2zm-6 0v-1h2v1h-2zm-6 0v-1h2v1h-2zm-6 0v-1h2v1h-2zm-6 0v-1h2v1h-2zm-6 0v-1h2v1h-2zm-6 0v-1h2v1h-2zm-6 0v-1h2v1h-2zm-6 0v-1h2v1h-2zm-6 0v-1h2v1h-2zm-6 0v-1h2v1h-2zm-6 0v-1h2v1h-2zm-6 0v-1h2v1h-2zm-6 0v-1h2v1h-2zm-6 0v-1h2v1h-2zm-6 0v-1h2v1h-2zm-6 0v-1h2v1h-2zm-6 0v-1h2v1h-2zm-6 0v-1h2v1h-2zm-6 0v-1h2v1h-2zm-6 0v-1h2v1h-2zm-6 0v-1h2v1h-2zm-5.9-1.872.812-.585c.346.48.81.868 1.344 1.121l-.428.904a4.516 4.516 0 0 1-1.727-1.44zm-.846-6.26h1v2h-1v-2zm0-6h1v2h-1v-2zm0-6h1v2h-1v-2zm0-6h1v2h-1v-2zm3.948-4.834.121.992a3.478 3.478 0 0 0-1.627.642l-.588-.808a4.478 4.478 0 0 1 2.094-.826zm6.06-.034v1h-2v-1h2zm6 0v1h-2v-1h2zm6 0v1h-2v-1h2zm6 0v1h-2v-1h2zm6 0v1h-2v-1h2zm6 0v1h-2v-1h2zm6 0v1h-2v-1h2zm6 0v1h-2v-1h2zm6 0v1h-2v-1h2zm6 0v1h-2v-1h2zm6 0v1h-2v-1h2zm6 0v1h-2v-1h2zm6 0v1h-2v-1h2zm6 0v1h-2v-1h2zm6 0v1h-2v-1h2zm6 0v1h-2v-1h2zm6 0v1h-2v-1h2zm6 0v1h-2v-1h2zm6 0v1h-2v-1h2zm6 0v1h-2v-1h2zm6 0v1h-2v-1h2zm6 0v1h-2v-1h2z" opacity=".4"/>
            <path d="M385.176 113c.072 0 .12-.032.144-.096l.48-1.512c.008-.024.024-.036.048-.036h3.588c.024 0 .04.012.048.036l.48 1.512c.024.064.072.096.144.096h.648c.072 0 .108-.028.108-.084l-.012-.048-2.664-8.172c-.024-.064-.072-.096-.144-.096h-.816c-.072 0-.12.032-.144.096l-2.652 8.172c-.024.088.008.132.096.132h.648zm4.008-2.34h-3.096a.058.058 0 0 1-.042-.018c-.012-.012-.014-.026-.006-.042l1.56-4.896c.008-.016.02-.024.036-.024.016 0 .028.008.036.024l1.56 4.896c.008.016.006.03-.006.042a.058.058 0 0 1-.042.018zm4.671 4.728c.904 0 1.614-.208 2.13-.624.516-.416.774-1.072.774-1.968v-5.748c0-.08-.04-.12-.12-.12h-.612c-.08 0-.12.04-.12.12v.468a.04.04 0 0 1-.018.036c-.012.008-.026.004-.042-.012-.368-.472-.908-.708-1.62-.708-.528 0-.98.146-1.356.438a2.24 2.24 0 0 0-.78 1.158 2.78 2.78 0 0 0-.126.648c-.02.24-.03.536-.03.888 0 .648.048 1.136.144 1.464.136.512.406.908.81 1.188.404.28.866.42 1.386.42.68 0 1.204-.24 1.572-.72.016-.016.03-.022.042-.018.012.004.018.014.018.03v.444c0 .632-.168 1.094-.504 1.386-.336.292-.876.438-1.62.438l-.324-.012a.09.09 0 0 0-.084.018c-.024.02-.036.05-.036.09l-.024.552c0 .08.04.124.12.132.096.008.236.012.42.012zm.552-3.072c-.384 0-.71-.11-.978-.33a1.502 1.502 0 0 1-.522-.834c-.08-.224-.12-.628-.12-1.212 0-.544.04-.944.12-1.2.104-.344.286-.624.546-.84.26-.216.578-.324.954-.324.384 0 .702.11.954.33.252.22.41.498.474.834.032.12.052.25.06.39s.012.414.012.822c0 .336-.004.592-.012.768a3.011 3.011 0 0 1-.048.444 1.404 1.404 0 0 1-.474.828c-.252.216-.574.324-.966.324zm6.04 3.072c.904 0 1.614-.208 2.13-.624.516-.416.774-1.072.774-1.968v-5.748c0-.08-.04-.12-.12-.12h-.612c-.08 0-.12.04-.12.12v.468a.04.04 0 0 1-.018.036c-.012.008-.026.004-.042-.012-.368-.472-.908-.708-1.62-.708-.528 0-.98.146-1.356.438a2.24 2.24 0 0 0-.78 1.158 2.78 2.78 0 0 0-.126.648c-.02.24-.03.536-.03.888 0 .648.048 1.136.144 1.464.136.512.406.908.81 1.188.404.28.866.42 1.386.42.68 0 1.204-.24 1.572-.72.016-.016.03-.022.042-.018.012.004.018.014.018.03v.444c0 .632-.168 1.094-.504 1.386-.336.292-.876.438-1.62.438l-.324-.012a.09.09 0 0 0-.084.018c-.024.02-.036.05-.036.09l-.024.552c0 .08.04.124.12.132.096.008.236.012.42.012zm.552-3.072c-.384 0-.71-.11-.978-.33a1.502 1.502 0 0 1-.522-.834c-.08-.224-.12-.628-.12-1.212 0-.544.04-.944.12-1.2.104-.344.286-.624.546-.84.26-.216.578-.324.954-.324.384 0 .702.11.954.33.252.22.41.498.474.834.032.12.052.25.06.39s.012.414.012.822v.192c-.002.243-.006.435-.012.576a3.011 3.011 0 0 1-.048.444 1.404 1.404 0 0 1-.474.828c-.252.216-.574.324-.966.324zm5.08.684c.08 0 .12-.04.12-.12v-3.54c0-.448.135-.818.407-1.11a1.43 1.43 0 0 1 1.032-.462l.156-.012c.176 0 .332.028.468.084.08.032.132.008.156-.072l.132-.588c.016-.072-.008-.124-.072-.156a1.416 1.416 0 0 0-.684-.156c-.344 0-.646.082-.906.246a1.91 1.91 0 0 0-.642.69c-.008.016-.018.022-.03.018s-.018-.018-.018-.042v-.732c0-.08-.04-.12-.12-.12h-.612c-.08 0-.12.04-.12.12v5.832c0 .08.04.12.12.12h.612zm6.039.108c.52 0 .98-.11 1.38-.33.4-.22.7-.522.9-.906.032-.072.016-.128-.048-.168l-.468-.276c-.064-.04-.12-.024-.168.048-.144.28-.344.496-.6.648a1.706 1.706 0 0 1-.888.228c-.448 0-.816-.104-1.104-.312a1.435 1.435 0 0 1-.564-.852c-.032-.128-.056-.412-.072-.852 0-.032.016-.048.048-.048h3.876c.08 0 .12-.04.12-.12v-.384c0-.336-.016-.616-.048-.84-.096-.672-.34-1.192-.732-1.56-.392-.368-.952-.552-1.68-.552-.584 0-1.082.156-1.494.468a2.223 2.223 0 0 0-.822 1.248 2.618 2.618 0 0 0-.09.57c-.012.212-.018.486-.018.822 0 .72.072 1.272.216 1.656.168.472.444.84.828 1.104.384.264.86.4 1.428.408zm1.524-3.54h-3.108c-.032 0-.048-.016-.048-.048.016-.376.048-.648.096-.816.08-.344.25-.618.51-.822.26-.204.586-.306.978-.306.408 0 .746.106 1.014.318.268.212.446.498.534.858.032.152.056.408.072.768 0 .032-.016.048-.048.048zm4.443 5.82c.904 0 1.614-.208 2.13-.624.516-.416.774-1.072.774-1.968v-5.748c0-.08-.04-.12-.12-.12h-.612c-.08 0-.12.04-.12.12v.468a.04.04 0 0 1-.018.036c-.012.008-.026.004-.042-.012-.368-.472-.908-.708-1.62-.708-.528 0-.98.146-1.356.438a2.24 2.24 0 0 0-.78 1.158 2.78 2.78 0 0 0-.126.648c-.02.24-.03.536-.03.888 0 .648.048 1.136.144 1.464.136.512.406.908.81 1.188.404.28.866.42 1.386.42.68 0 1.204-.24 1.572-.72.016-.016.03-.022.042-.018.012.004.018.014.018.03v.444c0 .632-.168 1.094-.504 1.386-.336.292-.876.438-1.62.438l-.324-.012a.09.09 0 0 0-.084.018c-.024.02-.036.05-.036.09l-.024.552c0 .08.04.124.12.132.096.008.236.012.42.012zm.552-3.072c-.384 0-.71-.11-.978-.33a1.502 1.502 0 0 1-.522-.834c-.08-.224-.12-.628-.12-1.212 0-.544.04-.944.12-1.2.104-.344.286-.624.546-.84.26-.216.578-.324.954-.324.384 0 .702.11.954.33.252.22.41.498.474.834.032.12.052.25.06.39s.012.414.012.822c0 .336-.004.592-.012.768a3.011 3.011 0 0 1-.048.444 1.404 1.404 0 0 1-.474.828c-.252.216-.574.324-.966.324zm5.944.78c.392 0 .748-.062 1.068-.186.32-.124.58-.306.78-.546.016-.016.03-.02.042-.012a.04.04 0 0 1 .018.036v.492c0 .08.04.12.12.12h.612c.08 0 .12-.04.12-.12v-4.032c0-.608-.196-1.096-.588-1.464-.392-.368-.948-.552-1.668-.552-.624 0-1.144.14-1.56.42-.416.28-.656.644-.72 1.092-.016.048.02.08.108.096l.648.084c.072.008.12-.028.144-.108a.93.93 0 0 1 .444-.618c.24-.148.552-.222.936-.222.48 0 .834.118 1.062.354.228.236.342.558.342.966v.456c0 .032-.016.048-.048.048h-1.392c-.776 0-1.382.174-1.818.522-.436.348-.654.822-.654 1.422 0 .592.192 1.032.576 1.32.384.288.86.432 1.428.432zm.168-.732c-.392 0-.71-.09-.954-.27-.244-.18-.366-.446-.366-.798 0-.384.16-.684.48-.9.32-.216.744-.324 1.272-.324h1.26c.032 0 .048.016.048.048v.936c0 .4-.172.718-.516.954-.344.236-.752.354-1.224.354zm6.615.648c.2 0 .348-.004.444-.012.08 0 .12-.04.12-.12v-.492c0-.08-.04-.12-.12-.12h-.3c-.368 0-.638-.078-.81-.234-.172-.156-.258-.426-.258-.81v-3.54c0-.032.016-.048.048-.048h1.356c.08 0 .12-.04.12-.12v-.468c0-.08-.04-.12-.12-.12h-1.356c-.032 0-.048-.016-.048-.048v-1.392c0-.08-.04-.12-.12-.12h-.588c-.08 0-.12.04-.12.12v1.392c0 .032-.016.048-.048.048h-.732c-.08 0-.12.04-.12.12v.468c0 .08.04.12.12.12h.732c.032 0 .048.016.048.048v3.804c0 .584.148.984.444 1.2.296.216.732.324 1.308.324zm2.991-7.188a.651.651 0 0 0 .48-.192.651.651 0 0 0 .192-.48.646.646 0 0 0-.672-.672.646.646 0 0 0-.672.672c0 .192.064.352.192.48a.651.651 0 0 0 .48.192zm.276 7.164c.08 0 .12-.04.12-.12v-5.832c0-.08-.04-.12-.12-.12h-.612c-.08 0-.12.04-.12.12v5.832c0 .08.04.12.12.12h.612zm4.696.108c.576 0 1.07-.148 1.482-.444.412-.296.694-.704.846-1.224.112-.336.168-.828.168-1.476 0-.64-.056-1.132-.168-1.476a2.224 2.224 0 0 0-.846-1.2c-.412-.296-.902-.444-1.47-.444-.592 0-1.096.148-1.512.444-.416.296-.7.7-.852 1.212-.112.36-.168.848-.168 1.464s.056 1.108.168 1.476c.16.52.448.928.864 1.224.416.296.912.444 1.488.444zm0-.744c-.4 0-.738-.106-1.014-.318a1.492 1.492 0 0 1-.546-.858c-.064-.28-.096-.684-.096-1.212 0-.528.032-.932.096-1.212.096-.36.28-.646.552-.858.272-.212.604-.318.996-.318s.726.106 1.002.318c.276.212.462.498.558.858.064.28.096.684.096 1.212 0 .52-.036.924-.108 1.212-.096.36-.28.646-.552.858-.272.212-.6.318-.984.318zm5.127.648c.08 0 .12-.04.12-.12v-3.816c0-.44.136-.796.408-1.068.272-.272.628-.408 1.068-.408.424 0 .77.14 1.038.42.268.28.402.64.402 1.08v3.792c0 .08.04.12.12.12h.612c.08 0 .12-.04.12-.12v-3.96c0-.632-.19-1.136-.57-1.512-.38-.376-.89-.564-1.53-.564-.728 0-1.268.248-1.62.744-.008.016-.018.02-.03.012a.04.04 0 0 1-.018-.036v-.516c0-.08-.04-.12-.12-.12h-.612c-.08 0-.12.04-.12.12v5.832c0 .08.04.12.12.12h.612zm9.643 0c.04 0 .074-.014.102-.042a.139.139 0 0 0 .042-.102v-8.112a.139.139 0 0 0-.042-.102.139.139 0 0 0-.102-.042h-1.104a.139.139 0 0 0-.102.042.139.139 0 0 0-.042.102v8.112c0 .04.014.074.042.102a.139.139 0 0 0 .102.042h1.104zm4.324.024.624-.012c.096-.016.144-.068.144-.156v-.9a.139.139 0 0 0-.042-.102.139.139 0 0 0-.102-.042h-.36c-.288 0-.498-.068-.63-.204-.132-.136-.198-.356-.198-.66v-2.892c0-.04.02-.06.06-.06h1.224c.04 0 .074-.014.102-.042a.139.139 0 0 0 .042-.102v-.84a.139.139 0 0 0-.042-.102.139.139 0 0 0-.102-.042h-1.224c-.04 0-.06-.02-.06-.06v-1.404a.139.139 0 0 0-.042-.102.139.139 0 0 0-.102-.042h-1.044a.139.139 0 0 0-.102.042.139.139 0 0 0-.042.102v1.404c0 .04-.02.06-.06.06h-.684a.139.139 0 0 0-.102.042.139.139 0 0 0-.042.102v.84c0 .04.014.074.042.102a.139.139 0 0 0 .102.042h.684c.04 0 .06.02.06.06v3.42c.008.6.168 1.008.48 1.224.312.216.784.324 1.416.324zm4.827.084c.504 0 .962-.096 1.374-.288.412-.192.742-.464.99-.816.048-.072.036-.136-.036-.192l-.744-.612a.115.115 0 0 0-.084-.036c-.048 0-.088.024-.12.072-.32.448-.752.672-1.296.672-.744-.008-1.212-.3-1.404-.876-.048-.096-.084-.276-.108-.54 0-.04.02-.06.06-.06h3.756c.096 0 .144-.048.144-.144l.012-.372c0-.248-.016-.472-.048-.672-.2-1.648-1.088-2.472-2.664-2.472-.624 0-1.158.162-1.602.486a2.407 2.407 0 0 0-.906 1.326c-.096.288-.144.664-.144 1.128 0 .768.092 1.368.276 1.8.2.504.518.896.954 1.176.436.28.966.42 1.59.42zm1.068-3.708h-2.436c-.048 0-.064-.02-.048-.06.016-.216.048-.392.096-.528.08-.264.218-.47.414-.618.196-.148.442-.222.738-.222.32 0 .586.08.798.24.212.16.354.384.426.672.032.104.056.256.072.456 0 .04-.02.06-.06.06zm4.167 3.6c.04 0 .074-.014.102-.042a.139.139 0 0 0 .042-.102v-3.9c.032-.304.146-.544.342-.72.196-.176.446-.264.75-.264.328 0 .592.108.792.324.2.216.3.508.3.876v3.684c0 .04.014.074.042.102a.139.139 0 0 0 .102.042h1.092c.04 0 .074-.014.102-.042a.139.139 0 0 0 .042-.102v-3.696c0-.36.104-.648.312-.864.208-.216.476-.324.804-.324.328 0 .59.108.786.324.196.216.294.508.294.876v3.684c0 .04.014.074.042.102a.139.139 0 0 0 .102.042h1.092c.04 0 .074-.014.102-.042a.139.139 0 0 0 .042-.102v-3.972c0-.664-.174-1.182-.522-1.554-.348-.372-.83-.558-1.446-.558-.384 0-.732.076-1.044.228a1.646 1.646 0 0 0-.732.708c-.032.032-.06.032-.084 0a1.64 1.64 0 0 0-.684-.696c-.296-.16-.64-.24-1.032-.24-.32 0-.61.054-.87.162a1.6 1.6 0 0 0-.654.498c-.016.024-.032.032-.048.024s-.024-.024-.024-.048v-.396a.139.139 0 0 0-.042-.102.139.139 0 0 0-.102-.042h-1.104a.139.139 0 0 0-.102.042.139.139 0 0 0-.042.102v5.844c0 .04.014.074.042.102a.139.139 0 0 0 .102.042h1.104zm14.683 0c.04 0 .074-.014.102-.042a.139.139 0 0 0 .042-.102v-6.984c0-.04.02-.06.06-.06h2.208c.04 0 .074-.014.102-.042a.139.139 0 0 0 .042-.102v-.924a.139.139 0 0 0-.042-.102.139.139 0 0 0-.102-.042h-5.844a.139.139 0 0 0-.102.042.139.139 0 0 0-.042.102v.924c0 .04.014.074.042.102a.139.139 0 0 0 .102.042h2.124c.04 0 .06.02.06.06v6.984c0 .04.014.074.042.102a.139.139 0 0 0 .102.042h1.104zm3.268 2.388c.608 0 1.078-.06 1.41-.18.332-.12.594-.32.786-.6.192-.28.388-.704.588-1.272l2.112-6.312c.016-.056.014-.098-.006-.126-.02-.028-.054-.042-.102-.042h-1.14c-.088 0-.144.04-.168.12l-1.2 4.224c-.008.024-.02.036-.036.036-.016 0-.028-.012-.036-.036l-1.2-4.224c-.024-.08-.08-.12-.168-.12h-1.176c-.08 0-.12.036-.12.108 0 .024.004.044.012.06l1.98 5.94c.008.032.008.056 0 .072-.096.336-.204.588-.324.756a.89.89 0 0 1-.456.342c-.184.06-.44.094-.768.102h-.012a.139.139 0 0 0-.102.042.139.139 0 0 0-.042.102v.864c0 .04.008.074.024.102.016.028.036.042.06.042h.084zm7.383-.12c.04 0 .074-.014.102-.042a.139.139 0 0 0 .042-.102v-2.604c0-.024.008-.04.024-.048s.032-.004.048.012c.344.408.8.612 1.368.612.592 0 1.082-.148 1.47-.444.388-.296.67-.708.846-1.236.136-.408.204-.896.204-1.464 0-.592-.072-1.092-.216-1.5-.176-.528-.46-.94-.852-1.236-.392-.296-.872-.444-1.44-.444s-1.028.208-1.38.624c-.016.024-.032.032-.048.024s-.024-.024-.024-.048v-.36a.139.139 0 0 0-.042-.102.139.139 0 0 0-.102-.042h-1.104a.139.139 0 0 0-.102.042.139.139 0 0 0-.042.102v8.112c0 .04.014.074.042.102a.139.139 0 0 0 .102.042h1.104zm1.368-3.372c-.392 0-.692-.176-.9-.528-.2-.328-.3-.808-.3-1.44 0-.616.092-1.08.276-1.392.208-.384.52-.576.936-.576.456 0 .796.196 1.02.588.192.336.288.796.288 1.38 0 .608-.12 1.096-.36 1.464-.216.336-.536.504-.96.504zm6.88 1.212c.504 0 .962-.096 1.374-.288.412-.192.742-.464.99-.816.048-.072.036-.136-.036-.192l-.744-.612a.115.115 0 0 0-.084-.036c-.048 0-.088.024-.12.072-.32.448-.752.672-1.296.672-.744-.008-1.212-.3-1.404-.876-.048-.096-.084-.276-.108-.54 0-.04.02-.06.06-.06h3.756c.096 0 .144-.048.144-.144l.012-.372c0-.248-.016-.472-.048-.672-.2-1.648-1.088-2.472-2.664-2.472-.624 0-1.158.162-1.602.486a2.407 2.407 0 0 0-.906 1.326c-.096.288-.144.664-.144 1.128 0 .768.092 1.368.276 1.8.2.504.518.896.954 1.176.436.28.966.42 1.59.42zm1.068-3.708h-2.436c-.048 0-.064-.02-.048-.06.016-.216.048-.392.096-.528.08-.264.218-.47.414-.618.196-.148.442-.222.738-.222.32 0 .586.08.798.24.212.16.354.384.426.672.032.104.056.256.072.456 0 .04-.02.06-.06.06z"/>
            <path d="M395.028 113.9v-.6H384v.6h11.028zm6.591 0v-.6h-4.291v.6h4.291zm17.639 0v-.6H403.92v.6h15.338zm2.3-.6v.6h27.864v-.6h-27.864z"/>
        </g>
        <path fill="#FFF" fill-rule="nonzero" opacity=".5" d="m368.498 74.407 6 3.375.387.218-.387.218-6 3.375-.246-.436 5.169-2.907H254.067l-56.698 33.768-.256-.43 56.76-33.803.127-.035h119.421l-5.169-2.907z"/>
        <rect fill-opacity=".1" fill="#FFF" x="227" y="22" width="77" height="18" rx="4"/>
        <g fill-rule="nonzero">
            <path fill="#57F" d="M231 4h10v10h-10z"/>
            <path d="M256.518 14c.093 0 .14-.047.14-.14v-.588c0-.093-.047-.14-.14-.14h-5.152c-.037 0-.056-.019-.056-.056V9.562c0-.037.019-.056.056-.056h3.612c.093 0 .14-.047.14-.14v-.588c0-.093-.047-.14-.14-.14h-3.612c-.037 0-.056-.019-.056-.056V5.124c0-.037.019-.056.056-.056h5.152c.093 0 .14-.047.14-.14V4.34c0-.093-.047-.14-.14-.14h-6.062c-.093 0-.14.047-.14.14v9.52c0 .093.047.14.14.14h6.062zm5.024.098c.85 0 1.47-.29 1.862-.868.01-.019.023-.023.042-.014.019.01.028.023.028.042v.602c0 .093.047.14.14.14h.714c.093 0 .14-.047.14-.14V7.056c0-.093-.047-.14-.14-.14h-.714c-.093 0-.14.047-.14.14v4.438c0 .523-.156.943-.469 1.26-.313.317-.735.476-1.267.476-.513 0-.92-.156-1.218-.469-.299-.313-.448-.735-.448-1.267V7.056c0-.093-.047-.14-.14-.14h-.714c-.093 0-.14.047-.14.14v4.732c0 .485.11.9.329 1.246.22.345.518.609.896.791.378.182.791.273 1.239.273zm6.606-.098c.093 0 .14-.047.14-.14V9.73c0-.523.159-.954.476-1.295.317-.34.719-.52 1.204-.539l.182-.014c.205 0 .387.033.546.098.093.037.154.01.182-.084l.154-.686c.019-.084-.01-.145-.084-.182a1.652 1.652 0 0 0-.798-.182c-.401 0-.754.096-1.057.287a2.23 2.23 0 0 0-.749.805c-.01.019-.021.026-.035.021-.014-.005-.021-.021-.021-.049v-.854c0-.093-.047-.14-.14-.14h-.714c-.093 0-.14.047-.14.14v6.804c0 .093.047.14.14.14h.714zm7.474.112c.672 0 1.248-.173 1.729-.518.48-.345.81-.821.987-1.428.13-.392.196-.966.196-1.722 0-.747-.065-1.32-.196-1.722a2.595 2.595 0 0 0-.987-1.4c-.48-.345-1.052-.518-1.715-.518-.69 0-1.279.173-1.764.518a2.583 2.583 0 0 0-.994 1.414c-.13.42-.196.99-.196 1.708 0 .719.065 1.293.196 1.722.187.607.523 1.083 1.008 1.428s1.064.518 1.736.518zm0-.868c-.467 0-.861-.124-1.183-.371a1.741 1.741 0 0 1-.637-1.001c-.075-.327-.112-.798-.112-1.414 0-.616.037-1.087.112-1.414.112-.42.327-.754.644-1.001.317-.247.705-.371 1.162-.371.457 0 .847.124 1.169.371.322.247.539.581.651 1.001.075.327.112.798.112 1.414 0 .607-.042 1.078-.126 1.414-.112.42-.327.754-.644 1.001-.317.247-.7.371-1.148.371zm6.48 3.472c.093 0 .14-.047.14-.14v-3.29c0-.019.007-.03.021-.035.014-.005.03.002.049.021.205.27.462.478.77.623.308.145.644.217 1.008.217.672 0 1.23-.17 1.673-.511.443-.34.749-.81.917-1.407.121-.41.182-.99.182-1.736 0-.737-.07-1.33-.21-1.778-.168-.579-.474-1.036-.917-1.372-.443-.336-.992-.504-1.645-.504-.373 0-.712.075-1.015.224-.303.15-.558.36-.763.63-.019.019-.035.026-.049.021-.014-.005-.021-.016-.021-.035v-.588c0-.093-.047-.14-.14-.14h-.714c-.093 0-.14.047-.14.14v9.52c0 .093.047.14.14.14h.714zm1.876-3.472c-.355 0-.66-.096-.917-.287a1.585 1.585 0 0 1-.553-.763 2.366 2.366 0 0 1-.196-.679 7.746 7.746 0 0 1-.056-1.057c0-.448.019-.798.056-1.05.037-.252.098-.471.182-.658a1.73 1.73 0 0 1 .56-.784c.252-.196.565-.294.938-.294.392 0 .73.098 1.015.294.285.196.483.462.595.798.093.196.159.418.196.665.037.247.056.59.056 1.029 0 .457-.026.814-.077 1.071a2.748 2.748 0 0 1-.231.693c-.121.308-.32.555-.595.742-.275.187-.6.28-.973.28zm8.076.882c.607 0 1.143-.128 1.61-.385a2.52 2.52 0 0 0 1.05-1.057c.037-.084.019-.15-.056-.196l-.546-.322c-.075-.047-.14-.028-.196.056a1.83 1.83 0 0 1-.7.756 1.99 1.99 0 0 1-1.036.266c-.523 0-.952-.121-1.288-.364a1.674 1.674 0 0 1-.658-.994c-.037-.15-.065-.48-.084-.994 0-.037.019-.056.056-.056h4.522c.093 0 .14-.047.14-.14v-.448a7.12 7.12 0 0 0-.056-.98c-.112-.784-.397-1.39-.854-1.82-.457-.43-1.11-.644-1.96-.644-.681 0-1.262.182-1.743.546-.48.364-.8.85-.959 1.456a3.055 3.055 0 0 0-.105.665c-.014.247-.021.567-.021.959 0 .84.084 1.484.252 1.932.196.55.518.98.966 1.288.448.308 1.003.467 1.666.476zm1.778-4.13h-3.626c-.037 0-.056-.019-.056-.056.019-.439.056-.756.112-.952.093-.401.292-.721.595-.959s.684-.357 1.141-.357c.476 0 .87.124 1.183.371.313.247.52.581.623 1.001.037.177.065.476.084.896 0 .037-.019.056-.056.056zM250.372 36c.084 0 .14-.037.168-.112l.56-1.764c.01-.028.028-.042.056-.042h4.186c.028 0 .047.014.056.042l.56 1.764c.028.075.084.112.168.112h.756c.084 0 .126-.033.126-.098l-.014-.056-3.108-9.534c-.028-.075-.084-.112-.168-.112h-.952c-.084 0-.14.037-.168.112l-3.094 9.534c-.028.103.01.154.112.154h.756zm4.676-2.73h-3.612a.067.067 0 0 1-.049-.021c-.014-.014-.016-.03-.007-.049l1.82-5.712c.01-.019.023-.028.042-.028.019 0 .033.01.042.028l1.82 5.712c.01.019.007.035-.007.049a.067.067 0 0 1-.049.021zm6.494 2.8c.784 0 1.414-.182 1.89-.546.476-.364.714-.85.714-1.456 0-.43-.121-.777-.364-1.043a2.42 2.42 0 0 0-.868-.609c-.336-.14-.775-.29-1.316-.448-.588-.168-1.022-.336-1.302-.504a.802.802 0 0 1-.42-.728.9.9 0 0 1 .434-.791c.29-.191.672-.287 1.148-.287.513 0 .922.107 1.225.322.303.215.455.48.455.798v.042c0 .093.047.14.14.14h.658c.093 0 .14-.047.14-.14v-.042c0-.364-.107-.693-.322-.987-.215-.294-.52-.525-.917-.693-.397-.168-.852-.252-1.365-.252-.765 0-1.381.177-1.848.532-.467.355-.7.83-.7 1.428 0 .41.114.749.343 1.015.229.266.511.474.847.623.336.15.765.299 1.288.448.439.13.763.238.973.322.21.084.392.2.546.35.154.15.231.34.231.574 0 .336-.15.614-.448.833-.299.22-.69.329-1.176.329-.485 0-.889-.114-1.211-.343-.322-.229-.483-.497-.483-.805v-.112c0-.093-.047-.14-.14-.14h-.672c-.093 0-.14.047-.14.14v.168c0 .345.11.658.329.938.22.28.532.504.938.672.406.168.87.252 1.393.252zm5.682-8.442a.76.76 0 0 0 .56-.224.76.76 0 0 0 .224-.56.754.754 0 0 0-.784-.784.754.754 0 0 0-.784.784c0 .224.075.41.224.56a.76.76 0 0 0 .56.224zm.322 8.358c.093 0 .14-.047.14-.14v-6.804c0-.093-.047-.14-.14-.14h-.714c-.093 0-.14.047-.14.14v6.804c0 .093.047.14.14.14h.714zm5.038.126c.457 0 .873-.072 1.246-.217.373-.145.677-.357.91-.637.019-.019.035-.023.049-.014.014.01.021.023.021.042v.574c0 .093.047.14.14.14h.714c.093 0 .14-.047.14-.14v-4.704c0-.71-.229-1.279-.686-1.708-.457-.43-1.106-.644-1.946-.644-.728 0-1.335.163-1.82.49-.485.327-.765.751-.84 1.274-.019.056.023.093.126.112l.756.098c.084.01.14-.033.168-.126.065-.308.238-.548.518-.721.28-.173.644-.259 1.092-.259.56 0 .973.138 1.239.413.266.275.399.651.399 1.127v.532c0 .037-.019.056-.056.056h-1.624c-.905 0-1.612.203-2.121.609-.509.406-.763.959-.763 1.659 0 .69.224 1.204.672 1.54.448.336 1.003.504 1.666.504zm.196-.854c-.457 0-.828-.105-1.113-.315-.285-.21-.427-.52-.427-.931 0-.448.187-.798.56-1.05.373-.252.868-.378 1.484-.378h1.47c.037 0 .056.019.056.056v1.092c0 .467-.2.838-.602 1.113-.401.275-.877.413-1.428.413zM250.372 58c.084 0 .14-.037.168-.112l.56-1.764c.01-.028.028-.042.056-.042h4.186c.028 0 .047.014.056.042l.56 1.764c.028.075.084.112.168.112h.756c.084 0 .126-.033.126-.098l-.014-.056-3.108-9.534c-.028-.075-.084-.112-.168-.112h-.952c-.084 0-.14.037-.168.112l-3.094 9.534c-.028.103.01.154.112.154h.756zm4.676-2.73h-3.612a.067.067 0 0 1-.049-.021c-.014-.014-.016-.03-.007-.049l1.82-5.712c.01-.019.023-.028.042-.028.019 0 .033.01.042.028l1.82 5.712c.01.019.007.035-.007.049a.067.067 0 0 1-.049.021zm5.024 2.73c.093 0 .14-.047.14-.14v-4.522c0-.504.147-.905.441-1.204.294-.299.688-.448 1.183-.448.485 0 .873.152 1.162.455.29.303.434.712.434 1.225v4.494c0 .093.047.14.14.14h.714c.093 0 .14-.047.14-.14v-4.522c0-.504.152-.905.455-1.204.303-.299.702-.448 1.197-.448.476 0 .861.152 1.155.455.294.303.441.712.441 1.225v4.494c0 .093.047.14.14.14h.7c.093 0 .14-.047.14-.14v-4.69c0-.728-.203-1.302-.609-1.722-.406-.42-.959-.63-1.659-.63-.476 0-.9.096-1.274.287a2.008 2.008 0 0 0-.868.861c-.028.047-.051.047-.07 0a1.884 1.884 0 0 0-.784-.854c-.345-.196-.76-.294-1.246-.294-.392 0-.749.068-1.071.203a1.895 1.895 0 0 0-.791.609c-.019.019-.035.026-.049.021-.014-.005-.021-.016-.021-.035v-.56c0-.093-.047-.14-.14-.14h-.714c-.093 0-.14.047-.14.14v6.804c0 .093.047.14.14.14h.714zm13.9.126c.607 0 1.143-.128 1.61-.385a2.52 2.52 0 0 0 1.05-1.057c.037-.084.019-.15-.056-.196l-.546-.322c-.075-.047-.14-.028-.196.056a1.83 1.83 0 0 1-.7.756 1.99 1.99 0 0 1-1.036.266c-.523 0-.952-.121-1.288-.364a1.674 1.674 0 0 1-.658-.994c-.037-.15-.065-.48-.084-.994 0-.037.019-.056.056-.056h4.522c.093 0 .14-.047.14-.14v-.448a7.12 7.12 0 0 0-.056-.98c-.112-.784-.397-1.39-.854-1.82-.457-.43-1.11-.644-1.96-.644-.681 0-1.262.182-1.743.546-.48.364-.8.85-.959 1.456a3.055 3.055 0 0 0-.105.665c-.014.247-.021.567-.021.959 0 .84.084 1.484.252 1.932.196.55.518.98.966 1.288.448.308 1.003.467 1.666.476zm1.778-4.13h-3.626c-.037 0-.056-.019-.056-.056.019-.439.056-.756.112-.952.093-.401.292-.721.595-.959s.684-.357 1.141-.357c.476 0 .87.124 1.183.371.313.247.52.581.623 1.001.037.177.065.476.084.896 0 .037-.019.056-.056.056zM280.214 58c.093 0 .14-.047.14-.14v-4.13c0-.523.159-.954.476-1.295.317-.34.719-.52 1.204-.539l.182-.014c.205 0 .387.033.546.098.093.037.154.01.182-.084l.154-.686c.019-.084-.01-.145-.084-.182a1.652 1.652 0 0 0-.798-.182c-.401 0-.754.096-1.057.287a2.23 2.23 0 0 0-.749.805c-.01.019-.021.026-.035.021-.014-.005-.021-.021-.021-.049v-.854c0-.093-.047-.14-.14-.14h-.714c-.093 0-.14.047-.14.14v6.804c0 .093.047.14.14.14h.714zm5.514-8.372a.76.76 0 0 0 .56-.224.76.76 0 0 0 .224-.56.754.754 0 0 0-.784-.784.754.754 0 0 0-.784.784c0 .224.075.41.224.56a.76.76 0 0 0 .56.224zm.322 8.358c.093 0 .14-.047.14-.14v-6.804c0-.093-.047-.14-.14-.14h-.714c-.093 0-.14.047-.14.14v6.804c0 .093.047.14.14.14h.714zm5.85.126c.681 0 1.274-.168 1.778-.504.504-.336.826-.775.966-1.316l.056-.28c.01-.084-.033-.135-.126-.154l-.686-.112c-.103-.019-.159.019-.168.112l-.014.056v.056a1.512 1.512 0 0 1-.623.917c-.331.238-.726.357-1.183.357-.467 0-.856-.124-1.169-.371a1.703 1.703 0 0 1-.609-1.001c-.084-.336-.126-.812-.126-1.428 0-.588.042-1.06.126-1.414.093-.41.296-.74.609-.987s.702-.371 1.169-.371c.467 0 .863.124 1.19.371.327.247.532.548.616.903l.042.21c.019.084.06.126.126.126h.028l.7-.098c.084-.019.126-.06.126-.126v-.028a2.363 2.363 0 0 0-.084-.42c-.15-.513-.474-.943-.973-1.288-.5-.345-1.09-.518-1.771-.518-.672 0-1.25.175-1.736.525-.485.35-.812.814-.98 1.393-.121.467-.182 1.036-.182 1.708 0 .747.06 1.325.182 1.736a2.63 2.63 0 0 0 .987 1.421c.48.35 1.057.525 1.729.525zm7.068 0c.457 0 .873-.072 1.246-.217.373-.145.677-.357.91-.637.019-.019.035-.023.049-.014.014.01.021.023.021.042v.574c0 .093.047.14.14.14h.714c.093 0 .14-.047.14-.14v-4.704c0-.71-.229-1.279-.686-1.708-.457-.43-1.106-.644-1.946-.644-.728 0-1.335.163-1.82.49-.485.327-.765.751-.84 1.274-.019.056.023.093.126.112l.756.098c.084.01.14-.033.168-.126.065-.308.238-.548.518-.721.28-.173.644-.259 1.092-.259.56 0 .973.138 1.239.413.266.275.399.651.399 1.127v.532c0 .037-.019.056-.056.056h-1.624c-.905 0-1.612.203-2.121.609-.509.406-.763.959-.763 1.659 0 .69.224 1.204.672 1.54.448.336 1.003.504 1.666.504zm.196-.854c-.457 0-.828-.105-1.113-.315-.285-.21-.427-.52-.427-.931 0-.448.187-.798.56-1.05.373-.252.868-.378 1.484-.378h1.47c.037 0 .056.019.056.056v1.092c0 .467-.2.838-.602 1.113-.401.275-.877.413-1.428.413z" fill="#FFF" opacity=".8"/>
            <path fill="#B7C5FF" d="M231 26h10v10h-10z"/>
            <path fill="#7F98FE" d="M231 48h10v10h-10z"/>
        </g>
        <path fill="#FFF" fill-rule="nonzero" opacity=".5" d="m370.767 6.513-.227.382-3.523 5.915-.43-.256 3.034-5.095-4.373 2.512-37.001 21.246-.125.033H304v-.5h24.054l36.945-21.213 4.373-2.511-5.928.052-.005-.5 6.884-.06z"/>
    </g>
</svg>
