<svg xmlns="http://www.w3.org/2000/svg" width="543" height="201" viewBox="0 0 543 201">
    <g fill="none" fill-rule="evenodd">
        <g>
            <g>
                <g>
                    <g>
                        <g transform="translate(-776.000000, -432.000000) translate(75.000000, 145.000000) translate(671.000000, 60.000000) translate(30.000000, 227.240000) translate(0.000000, 24.834000)">
                            <g transform="translate(0.000000, 30.926000)">
                                <path fill="#FFF" d="M.091 114.529H252.091V115.735H.091zM.091 78.353H252.091V79.353H.091zM.091 42.176H252.091V43.176H.091zM0 6H252V7H0z" opacity=".2"/>
                                <path fill="#FFF" d="M196.591 60.5H306.591V61.706H196.591z" opacity=".2" transform="translate(251.590731, 61.102941) rotate(90.000000) translate(-251.590731, -61.102941)"/>
                                <path fill="#FFF" fill-rule="nonzero" d="M21.68 134c.067 0 .1-.033.1-.1v-.42c0-.067-.033-.1-.1-.1h-3.14c-.033 0-.04-.017-.02-.05l.22-.26c.933-1.127 1.563-1.9 1.89-2.32.627-.8.94-1.483.94-2.05 0-.34-.083-.645-.25-.915-.167-.27-.403-.482-.71-.635-.307-.153-.66-.23-1.06-.23-.567 0-1.035.157-1.405.47-.37.313-.562.727-.575 1.24v.4c0 .067.033.1.1.1h.52c.067 0 .1-.033.1-.1v-.31c-.007-.353.107-.638.34-.855.233-.217.54-.325.92-.325.387 0 .7.107.94.32.24.213.36.497.36.85 0 .44-.313 1.057-.94 1.85l-.74.92c-.793.987-1.303 1.613-1.53 1.88-.033.033-.05.073-.05.12v.42c0 .067.033.1.1.1h3.99zm3.657.1c.646 0 1.163-.183 1.55-.55.386-.367.58-.857.58-1.47v-3.16c0-.607-.194-1.093-.58-1.46-.387-.367-.904-.55-1.55-.55-.64 0-1.15.182-1.53.545-.38.363-.57.852-.57 1.465v3.16c0 .613.19 1.103.57 1.47.38.367.89.55 1.53.55zm0-.62c-.42 0-.757-.123-1.01-.37-.254-.247-.38-.577-.38-.99v-3.23c0-.407.126-.733.38-.98.253-.247.59-.37 1.01-.37.433 0 .778.123 1.035.37.256.247.385.573.385.98v3.23c0 .413-.13.743-.39.99s-.604.37-1.03.37zm5.196.52c.067 0 .1-.033.1-.1v-6.8c0-.067-.033-.1-.1-.1h-.54c-.046 0-.09.01-.13.03l-1.15.61c-.046.033-.07.067-.07.1v.02l.05.38c.014.053.04.08.08.08l.04-.01 1.06-.43c.014-.007.025-.007.035 0 .01.007.015.017.015.03v6.09c0 .067.034.1.1.1h.51zm3.267 0c.06 0 .1-.027.12-.08l2.3-6.24c.013-.053.02-.093.02-.12v-.46c0-.067-.033-.1-.1-.1H32.2c-.067 0-.1.033-.1.1l-.01 1.02c0 .067.033.1.1.1h.41c.067 0 .1-.033.1-.1v-.46c0-.027.013-.04.04-.04h2.7c.013 0 .023.005.03.015.007.01.007.022 0 .035l-2.31 6.21c-.013.033-.012.062.005.085.017.023.042.035.075.035h.56z" opacity=".6"/>
                                <path fill="#9CAFFF" fill-rule="nonzero" d="M25.5 114.529L25.5 99.618 85.284 92.006 143.926 68.956 209.5 17.618 209.5 114.529" opacity=".1"/>
                                <path fill="#FFF" fill-rule="nonzero" d="M81.68 134c.067 0 .1-.033.1-.1v-.42c0-.067-.033-.1-.1-.1h-3.14c-.033 0-.04-.017-.02-.05l.22-.26c.933-1.127 1.563-1.9 1.89-2.32.627-.8.94-1.483.94-2.05 0-.34-.083-.645-.25-.915-.167-.27-.403-.482-.71-.635-.307-.153-.66-.23-1.06-.23-.567 0-1.035.157-1.405.47-.37.313-.562.727-.575 1.24v.4c0 .067.033.1.1.1h.52c.067 0 .1-.033.1-.1v-.31c-.007-.353.107-.638.34-.855.233-.217.54-.325.92-.325.387 0 .7.107.94.32.24.213.36.497.36.85 0 .44-.313 1.057-.94 1.85l-.74.92c-.793.987-1.303 1.613-1.53 1.88-.033.033-.05.073-.05.12v.42c0 .067.033.1.1.1h3.99zm3.657.1c.646 0 1.163-.183 1.55-.55.386-.367.58-.857.58-1.47v-3.16c0-.607-.194-1.093-.58-1.46-.387-.367-.904-.55-1.55-.55-.64 0-1.15.182-1.53.545-.38.363-.57.852-.57 1.465v3.16c0 .613.19 1.103.57 1.47.38.367.89.55 1.53.55zm0-.62c-.42 0-.757-.123-1.01-.37-.254-.247-.38-.577-.38-.99v-3.23c0-.407.126-.733.38-.98.253-.247.59-.37 1.01-.37.433 0 .778.123 1.035.37.256.247.385.573.385.98v3.23c0 .413-.13.743-.39.99s-.604.37-1.03.37zm5.196.52c.067 0 .1-.033.1-.1v-6.8c0-.067-.033-.1-.1-.1h-.54c-.046 0-.09.01-.13.03l-1.15.61c-.046.033-.07.067-.07.1v.02l.05.38c.014.053.04.08.08.08l.04-.01 1.06-.43c.014-.007.025-.007.035 0 .01.007.015.017.015.03v6.09c0 .067.034.1.1.1h.51zm3.807.08c.387 0 .727-.077 1.02-.23.293-.153.52-.367.68-.64.193-.32.29-.71.29-1.17 0-.38-.063-.707-.19-.98-.147-.353-.39-.613-.73-.78-.033-.013-.033-.03 0-.05.233-.147.41-.31.53-.49.2-.3.3-.633.3-1s-.097-.707-.29-1.02c-.16-.26-.377-.462-.65-.605-.273-.143-.593-.215-.96-.215-.353 0-.672.072-.955.215-.283.143-.505.345-.665.605-.2.307-.3.647-.3 1.02 0 .367.1.693.3.98.14.213.32.383.54.51.033.02.033.037 0 .05-.333.167-.577.417-.73.75-.14.313-.21.647-.21 1 0 .42.093.797.28 1.13.16.3.39.528.69.685.3.157.65.235 1.05.235zm-.01-4.1c-.22 0-.415-.043-.585-.13-.17-.087-.308-.213-.415-.38-.14-.207-.21-.45-.21-.73 0-.193.053-.39.16-.59.1-.193.24-.347.42-.46.18-.113.387-.17.62-.17.247 0 .46.055.64.165.18.11.32.258.42.445.1.18.15.38.15.6 0 .307-.063.55-.19.73-.107.167-.247.295-.42.385-.173.09-.37.135-.59.135zm.01 3.48c-.487 0-.843-.183-1.07-.55-.147-.233-.22-.537-.22-.91 0-.36.06-.647.18-.86.207-.413.573-.62 1.1-.62.553 0 .93.22 1.13.66.107.227.16.497.16.81 0 .38-.083.697-.25.95-.213.347-.557.52-1.03.52zM142.68 134c.067 0 .1-.033.1-.1v-.42c0-.067-.033-.1-.1-.1h-3.14c-.033 0-.04-.017-.02-.05l.22-.26c.933-1.127 1.563-1.9 1.89-2.32.627-.8.94-1.483.94-2.05 0-.34-.083-.645-.25-.915-.167-.27-.403-.482-.71-.635-.307-.153-.66-.23-1.06-.23-.567 0-1.035.157-1.405.47-.37.313-.562.727-.575 1.24v.4c0 .067.033.1.1.1h.52c.067 0 .1-.033.1-.1v-.31c-.007-.353.107-.638.34-.855.233-.217.54-.325.92-.325.387 0 .7.107.94.32.24.213.36.497.36.85 0 .44-.313 1.057-.94 1.85l-.74.92c-.793.987-1.303 1.613-1.53 1.88-.033.033-.05.073-.05.12v.42c0 .067.033.1.1.1h3.99zm3.657.1c.646 0 1.163-.183 1.55-.55.386-.367.58-.857.58-1.47v-3.16c0-.607-.194-1.093-.58-1.46-.387-.367-.904-.55-1.55-.55-.64 0-1.15.182-1.53.545-.38.363-.57.852-.57 1.465v3.16c0 .613.19 1.103.57 1.47.38.367.89.55 1.53.55zm0-.62c-.42 0-.757-.123-1.01-.37-.254-.247-.38-.577-.38-.99v-3.23c0-.407.126-.733.38-.98.253-.247.59-.37 1.01-.37.433 0 .778.123 1.035.37.256.247.385.573.385.98v3.23c0 .413-.13.743-.39.99s-.604.37-1.03.37zm5.196.52c.067 0 .1-.033.1-.1v-6.8c0-.067-.033-.1-.1-.1h-.54c-.046 0-.09.01-.13.03l-1.15.61c-.046.033-.07.067-.07.1v.02l.05.38c.014.053.04.08.08.08l.04-.01 1.06-.43c.014-.007.025-.007.035 0 .01.007.015.017.015.03v6.09c0 .067.034.1.1.1h.51zm3.807.08c.58 0 1.05-.162 1.41-.485.36-.323.54-.758.54-1.305v-3.12c0-.36-.04-.673-.12-.94-.127-.407-.355-.725-.685-.955-.33-.23-.735-.345-1.215-.345-.453 0-.835.107-1.145.32-.31.213-.535.513-.675.9-.1.26-.15.593-.15 1 0 .48.07.86.21 1.14.147.34.362.603.645.79.283.187.635.28 1.055.28.587 0 1.027-.197 1.32-.59.007-.013.017-.018.03-.015.013.003.02.012.02.025v1.46c0 .367-.117.662-.35.885-.233.223-.53.335-.89.335-.347 0-.63-.107-.85-.32-.22-.213-.33-.49-.33-.83v-.08c0-.067-.033-.1-.1-.1h-.51c-.067 0-.1.033-.1.1v.14c0 .507.175.918.525 1.235.35.317.805.475 1.365.475zm-.04-3.34c-.293 0-.54-.072-.74-.215-.2-.143-.34-.335-.42-.575-.087-.193-.13-.46-.13-.8 0-.32.037-.573.11-.76.087-.273.233-.482.44-.625.207-.143.453-.215.74-.215.3 0 .553.077.76.23.207.153.35.357.43.61.06.2.09.443.09.73 0 .347-.037.617-.11.81-.08.253-.222.452-.425.595-.203.143-.452.215-.745.215z" opacity=".6"/>
                                <rect width="231" height="20" x="5" y="120" fill="#FFF" fill-opacity=".1" rx="4"/>
                                <path fill="#FFF" fill-rule="nonzero" d="M204.68 134c.067 0 .1-.033.1-.1v-.42c0-.067-.033-.1-.1-.1h-3.14c-.033 0-.04-.017-.02-.05l.22-.26c.933-1.127 1.563-1.9 1.89-2.32.627-.8.94-1.483.94-2.05 0-.34-.083-.645-.25-.915-.167-.27-.403-.482-.71-.635-.307-.153-.66-.23-1.06-.23-.567 0-1.035.157-1.405.47-.37.313-.562.727-.575 1.24v.4c0 .067.033.1.1.1h.52c.067 0 .1-.033.1-.1v-.31c-.007-.353.107-.638.34-.855.233-.217.54-.325.92-.325.387 0 .7.107.94.32.24.213.36.497.36.85 0 .44-.313 1.057-.94 1.85l-.74.92c-.793.987-1.303 1.613-1.53 1.88-.033.033-.05.073-.05.12v.42c0 .067.033.1.1.1h3.99zm3.657.1c.646 0 1.163-.183 1.55-.55.386-.367.58-.857.58-1.47v-3.16c0-.607-.194-1.093-.58-1.46-.387-.367-.904-.55-1.55-.55-.64 0-1.15.182-1.53.545-.38.363-.57.852-.57 1.465v3.16c0 .613.19 1.103.57 1.47.38.367.89.55 1.53.55zm0-.62c-.42 0-.757-.123-1.01-.37-.254-.247-.38-.577-.38-.99v-3.23c0-.407.126-.733.38-.98.253-.247.59-.37 1.01-.37.433 0 .778.123 1.035.37.256.247.385.573.385.98v3.23c0 .413-.13.743-.39.99s-.604.37-1.03.37zm7.686.52c.067 0 .1-.033.1-.1v-.42c0-.067-.033-.1-.1-.1h-3.14c-.033 0-.04-.017-.02-.05l.22-.26c.934-1.127 1.564-1.9 1.89-2.32.627-.8.94-1.483.94-2.05 0-.34-.083-.645-.25-.915-.166-.27-.403-.482-.71-.635-.306-.153-.66-.23-1.06-.23-.566 0-1.035.157-1.405.47-.37.313-.561.727-.575 1.24v.4c0 .067.034.1.1.1h.52c.067 0 .1-.033.1-.1v-.31c-.006-.353.107-.638.34-.855.234-.217.54-.325.92-.325.387 0 .7.107.94.32.24.213.36.497.36.85 0 .44-.313 1.057-.94 1.85l-.74.92c-.793.987-1.303 1.613-1.53 1.88-.033.033-.05.073-.05.12v.42c0 .067.034.1.1.1h3.99zm3.657.1c.647 0 1.163-.183 1.55-.55.387-.367.58-.857.58-1.47v-3.16c0-.607-.193-1.093-.58-1.46-.387-.367-.903-.55-1.55-.55-.64 0-1.15.182-1.53.545-.38.363-.57.852-.57 1.465v3.16c0 .613.19 1.103.57 1.47.38.367.89.55 1.53.55zm0-.62c-.42 0-.757-.123-1.01-.37s-.38-.577-.38-.99v-3.23c0-.407.127-.733.38-.98s.59-.37 1.01-.37c.433 0 .778.123 1.035.37.257.247.385.573.385.98v3.23c0 .413-.13.743-.39.99s-.603.37-1.03.37zM263.81 115.1c.647 0 1.163-.183 1.55-.55.387-.367.58-.857.58-1.47v-3.16c0-.607-.193-1.093-.58-1.46-.387-.367-.903-.55-1.55-.55-.64 0-1.15.182-1.53.545-.38.363-.57.852-.57 1.465v3.16c0 .613.19 1.103.57 1.47.38.367.89.55 1.53.55zm0-.62c-.42 0-.757-.123-1.01-.37s-.38-.577-.38-.99v-3.23c0-.407.127-.733.38-.98s.59-.37 1.01-.37c.433 0 .778.123 1.035.37.257.247.385.573.385.98v3.23c0 .413-.13.743-.39.99s-.603.37-1.03.37zM264.03 82.93c.067 0 .1-.033.1-.1l-.01-.72c0-.027.013-.04.04-.04.593-.06 1.055-.253 1.385-.58.33-.327.495-.743.495-1.25 0-.36-.085-.665-.255-.915-.17-.25-.397-.462-.68-.635-.283-.173-.655-.36-1.115-.56-.453-.187-.788-.338-1.005-.455-.217-.117-.383-.253-.5-.41-.117-.157-.175-.355-.175-.595 0-.367.12-.647.36-.84.24-.193.583-.29 1.03-.29.507 0 .903.123 1.19.37.287.247.43.563.43.95v.18c0 .067.033.1.1.1h.47c.067 0 .1-.033.1-.1v-.22c0-.52-.167-.947-.5-1.28-.333-.333-.793-.533-1.38-.6-.027 0-.04-.013-.04-.04l.01-.79c0-.067-.033-.1-.1-.1h-.43c-.067 0-.1.033-.1.1l.01.78c0 .027-.013.04-.04.04-.553.053-.987.232-1.3.535-.313.303-.47.712-.47 1.225 0 .36.082.658.245.895.163.237.373.43.63.58.257.15.625.325 1.105.525.447.193.79.363 1.03.51.24.147.418.303.535.47.117.167.175.367.175.6 0 .36-.127.648-.38.865-.253.217-.62.325-1.1.325-.533 0-.952-.118-1.255-.355-.303-.237-.455-.548-.455-.935v-.27c0-.067-.033-.1-.1-.1h-.45c-.067 0-.1.033-.1.1v.31c0 .513.17.935.51 1.265.34.33.813.528 1.42.595.027 0 .04.013.04.04l-.01.72c0 .067.033.1.1.1h.44zm5.367-.86c.48 0 .89-.125 1.23-.375.34-.25.566-.588.68-1.015.06-.233.09-.513.09-.84 0-.307-.03-.607-.09-.9-.094-.42-.304-.745-.63-.975-.327-.23-.727-.345-1.2-.345-.254 0-.494.042-.72.125-.227.083-.424.202-.59.355-.014.013-.025.017-.035.01-.01-.007-.015-.017-.015-.03l.01-2.42c0-.027.013-.04.04-.04h2.85c.066 0 .1-.033.1-.1v-.42c0-.067-.034-.1-.1-.1h-3.5c-.067 0-.1.033-.1.1v3.87c0 .067.033.1.1.1h.54c.053 0 .09-.03.11-.09.066-.22.216-.397.45-.53.233-.133.496-.2.79-.2.326 0 .6.08.82.24.22.16.353.393.4.7.033.207.05.423.05.65 0 .247-.02.447-.06.6-.067.313-.209.56-.425.74-.217.18-.485.27-.805.27-.314 0-.575-.085-.785-.255-.21-.17-.349-.398-.415-.685-.027-.093-.04-.16-.04-.2-.007-.067-.044-.1-.11-.1h-.53c-.06 0-.09.027-.09.08v.02c.013.147.043.293.09.44.12.4.346.72.68.96.333.24.736.36 1.21.36zm5.476.03c.647 0 1.164-.183 1.55-.55.387-.367.58-.857.58-1.47v-3.16c0-.607-.193-1.093-.58-1.46-.386-.367-.903-.55-1.55-.55-.64 0-1.15.182-1.53.545-.38.363-.57.852-.57 1.465v3.16c0 .613.19 1.103.57 1.47.38.367.89.55 1.53.55zm0-.62c-.42 0-.756-.123-1.01-.37-.253-.247-.38-.577-.38-.99v-3.23c0-.407.127-.733.38-.98.254-.247.59-.37 1.01-.37.434 0 .779.123 1.035.37.257.247.385.573.385.98v3.23c0 .413-.13.743-.39.99s-.603.37-1.03.37zm5.817.62c.647 0 1.163-.183 1.55-.55.387-.367.58-.857.58-1.47v-3.16c0-.607-.193-1.093-.58-1.46-.387-.367-.903-.55-1.55-.55-.64 0-1.15.182-1.53.545-.38.363-.57.852-.57 1.465v3.16c0 .613.19 1.103.57 1.47.38.367.89.55 1.53.55zm0-.62c-.42 0-.757-.123-1.01-.37s-.38-.577-.38-.99v-3.23c0-.407.127-.733.38-.98s.59-.37 1.01-.37c.433 0 .778.123 1.035.37.257.247.385.573.385.98v3.23c0 .413-.13.743-.39.99s-.603.37-1.03.37zM264.03 46.93c.067 0 .1-.033.1-.1l-.01-.72c0-.027.013-.04.04-.04.593-.06 1.055-.253 1.385-.58.33-.327.495-.743.495-1.25 0-.36-.085-.665-.255-.915-.17-.25-.397-.462-.68-.635-.283-.173-.655-.36-1.115-.56-.453-.187-.788-.338-1.005-.455-.217-.117-.383-.253-.5-.41-.117-.157-.175-.355-.175-.595 0-.367.12-.647.36-.84.24-.193.583-.29 1.03-.29.507 0 .903.123 1.19.37.287.247.43.563.43.95v.18c0 .067.033.1.1.1h.47c.067 0 .1-.033.1-.1v-.22c0-.52-.167-.947-.5-1.28-.333-.333-.793-.533-1.38-.6-.027 0-.04-.013-.04-.04l.01-.79c0-.067-.033-.1-.1-.1h-.43c-.067 0-.1.033-.1.1l.01.78c0 .027-.013.04-.04.04-.553.053-.987.232-1.3.535-.313.303-.47.712-.47 1.225 0 .36.082.658.245.895.163.237.373.43.63.58.257.15.625.325 1.105.525.447.193.79.363 1.03.51.24.147.418.303.535.47.117.167.175.367.175.6 0 .36-.127.648-.38.865-.253.217-.62.325-1.1.325-.533 0-.952-.118-1.255-.355-.303-.237-.455-.548-.455-.935v-.27c0-.067-.033-.1-.1-.1h-.45c-.067 0-.1.033-.1.1v.31c0 .513.17.935.51 1.265.34.33.813.528 1.42.595.027 0 .04.013.04.04l-.01.72c0 .067.033.1.1.1h.44zm5.197-.93c.066 0 .1-.033.1-.1v-6.8c0-.067-.034-.1-.1-.1h-.54c-.047 0-.09.01-.13.03l-1.15.61c-.047.033-.07.067-.07.1v.02l.05.38c.013.053.04.08.08.08l.04-.01 1.06-.43c.013-.007.025-.007.035 0 .01.007.015.017.015.03v6.09c0 .067.033.1.1.1h.51zm2.276.79c.06 0 .097-.03.11-.09l.56-2.14c.007-.033.002-.06-.015-.08-.016-.02-.041-.03-.075-.03h-.44c-.06 0-.096.03-.11.09l-.44 2.14c-.006.033-.001.06.015.08.017.02.042.03.075.03h.32zm4.197-.69c.647 0 1.163-.183 1.55-.55.387-.367.58-.857.58-1.47v-3.16c0-.607-.193-1.093-.58-1.46-.387-.367-.903-.55-1.55-.55-.64 0-1.15.182-1.53.545-.38.363-.57.852-.57 1.465v3.16c0 .613.19 1.103.57 1.47.38.367.89.55 1.53.55zm0-.62c-.42 0-.757-.123-1.01-.37s-.38-.577-.38-.99v-3.23c0-.407.127-.733.38-.98s.59-.37 1.01-.37c.433 0 .778.123 1.035.37.257.247.385.573.385.98v3.23c0 .413-.13.743-.39.99s-.603.37-1.03.37zm5.817.62c.646 0 1.163-.183 1.55-.55.386-.367.58-.857.58-1.47v-3.16c0-.607-.194-1.093-.58-1.46-.387-.367-.904-.55-1.55-.55-.64 0-1.15.182-1.53.545-.38.363-.57.852-.57 1.465v3.16c0 .613.19 1.103.57 1.47.38.367.89.55 1.53.55zm0-.62c-.42 0-.757-.123-1.01-.37-.254-.247-.38-.577-.38-.99v-3.23c0-.407.126-.733.38-.98.253-.247.59-.37 1.01-.37.433 0 .778.123 1.035.37.256.247.385.573.385.98v3.23c0 .413-.13.743-.39.99s-.604.37-1.03.37zm5.816.62c.647 0 1.164-.183 1.55-.55.387-.367.58-.857.58-1.47v-3.16c0-.607-.193-1.093-.58-1.46-.386-.367-.903-.55-1.55-.55-.64 0-1.15.182-1.53.545-.38.363-.57.852-.57 1.465v3.16c0 .613.19 1.103.57 1.47.38.367.89.55 1.53.55zm0-.62c-.42 0-.756-.123-1.01-.37-.253-.247-.38-.577-.38-.99v-3.23c0-.407.127-.733.38-.98.254-.247.59-.37 1.01-.37.434 0 .779.123 1.035.37.257.247.385.573.385.98v3.23c0 .413-.13.743-.39.99s-.603.37-1.03.37z" opacity=".6"/>
                                <rect width="38" height="120" x="257" fill="#FFF" fill-opacity=".1" rx="4"/>
                                <path fill="#FFF" fill-rule="nonzero" d="M264.03 15.93c.067 0 .1-.033.1-.1l-.01-.72c0-.027.013-.04.04-.04.593-.06 1.055-.253 1.385-.58.33-.327.495-.743.495-1.25 0-.36-.085-.665-.255-.915-.17-.25-.397-.462-.68-.635-.283-.173-.655-.36-1.115-.56-.453-.187-.788-.338-1.005-.455-.217-.117-.383-.253-.5-.41-.117-.157-.175-.355-.175-.595 0-.367.12-.647.36-.84.24-.193.583-.29 1.03-.29.507 0 .903.123 1.19.37.287.247.43.563.43.95v.18c0 .067.033.1.1.1h.47c.067 0 .1-.033.1-.1v-.22c0-.52-.167-.947-.5-1.28-.333-.333-.793-.533-1.38-.6-.027 0-.04-.013-.04-.04l.01-.79c0-.067-.033-.1-.1-.1h-.43c-.067 0-.1.033-.1.1l.01.78c0 .027-.013.04-.04.04-.553.053-.987.232-1.3.535-.313.303-.47.712-.47 1.225 0 .36.082.658.245.895.163.237.373.43.63.58.257.15.625.325 1.105.525.447.193.79.363 1.03.51.24.147.418.303.535.47.117.167.175.367.175.6 0 .36-.127.648-.38.865-.253.217-.62.325-1.1.325-.533 0-.952-.118-1.255-.355-.303-.237-.455-.548-.455-.935v-.27c0-.067-.033-.1-.1-.1h-.45c-.067 0-.1.033-.1.1v.31c0 .513.17.935.51 1.265.34.33.813.528 1.42.595.027 0 .04.013.04.04l-.01.72c0 .067.033.1.1.1h.44zm5.197-.93c.066 0 .1-.033.1-.1V8.1c0-.067-.034-.1-.1-.1h-.54c-.047 0-.09.01-.13.03l-1.15.61c-.047.033-.07.067-.07.1v.02l.05.38c.013.053.04.08.08.08l.04-.01 1.06-.43c.013-.007.025-.007.035 0 .01.007.015.017.015.03v6.09c0 .067.033.1.1.1h.51zm2.276.79c.06 0 .097-.03.11-.09l.56-2.14c.007-.033.002-.06-.015-.08-.016-.02-.041-.03-.075-.03h-.44c-.06 0-.096.03-.11.09l-.44 2.14c-.006.033-.001.06.015.08.017.02.042.03.075.03h.32zm4.367-.72c.48 0 .89-.125 1.23-.375.34-.25.567-.588.68-1.015.06-.233.09-.513.09-.84 0-.307-.03-.607-.09-.9-.093-.42-.303-.745-.63-.975-.327-.23-.727-.345-1.2-.345-.253 0-.493.042-.72.125-.227.083-.423.202-.59.355-.013.013-.025.017-.035.01-.01-.007-.015-.017-.015-.03l.01-2.42c0-.027.013-.04.04-.04h2.85c.067 0 .1-.033.1-.1V8.1c0-.067-.033-.1-.1-.1h-3.5c-.067 0-.1.033-.1.1v3.87c0 .067.033.1.1.1h.54c.053 0 .09-.03.11-.09.067-.22.217-.397.45-.53s.497-.2.79-.2c.327 0 .6.08.82.24.22.16.353.393.4.7.033.207.05.423.05.65 0 .247-.02.447-.06.6-.067.313-.208.56-.425.74-.217.18-.485.27-.805.27-.313 0-.575-.085-.785-.255-.21-.17-.348-.398-.415-.685-.027-.093-.04-.16-.04-.2-.007-.067-.043-.1-.11-.1h-.53c-.06 0-.09.027-.09.08v.02c.013.147.043.293.09.44.12.4.347.72.68.96.333.24.737.36 1.21.36zm5.477.03c.646 0 1.163-.183 1.55-.55.386-.367.58-.857.58-1.47V9.92c0-.607-.194-1.093-.58-1.46-.387-.367-.904-.55-1.55-.55-.64 0-1.15.182-1.53.545-.38.363-.57.852-.57 1.465v3.16c0 .613.19 1.103.57 1.47.38.367.89.55 1.53.55zm0-.62c-.42 0-.757-.123-1.01-.37-.254-.247-.38-.577-.38-.99V9.89c0-.407.126-.733.38-.98.253-.247.59-.37 1.01-.37.433 0 .778.123 1.035.37.256.247.385.573.385.98v3.23c0 .413-.13.743-.39.99s-.604.37-1.03.37zm5.816.62c.647 0 1.164-.183 1.55-.55.387-.367.58-.857.58-1.47V9.92c0-.607-.193-1.093-.58-1.46-.386-.367-.903-.55-1.55-.55-.64 0-1.15.182-1.53.545-.38.363-.57.852-.57 1.465v3.16c0 .613.19 1.103.57 1.47.38.367.89.55 1.53.55zm0-.62c-.42 0-.756-.123-1.01-.37-.253-.247-.38-.577-.38-.99V9.89c0-.407.127-.733.38-.98.254-.247.59-.37 1.01-.37.434 0 .779.123 1.035.37.257.247.385.573.385.98v3.23c0 .413-.13.743-.39.99s-.603.37-1.03.37z" opacity=".6"/>
                                <path fill="#57F" fill-rule="nonzero" d="M25.618 114.529L25.618 93.382 87.5 58.924 148.5 45.618 209.618 72.779 209.618 114.529" opacity=".5"/>
                                <path fill="#FFF" fill-rule="nonzero" d="M295 5.75L370.087 5.766 413.077 21.814 417.761 23.562 413.937 19.032 414.319 18.71 418.76 23.97 419.046 24.309 418.607 24.378 411.806 25.442 411.729 24.948 417.587 24.032 412.902 22.283 370 6.25 295 6.25z" opacity=".5"/>
                            </g>
                            <path fill="#FFF" fill-rule="nonzero" d="M21.961 9.926c.093 0 .14-.047.14-.14V5.39c0-.037.019-.056.056-.056h2.646c.028 0 .047.014.056.042l2.142 4.452c.028.065.084.098.168.098h.462c.075 0 .112-.033.112-.098 0-.028-.005-.051-.014-.07l-2.142-4.41c-.019-.028-.005-.051.042-.07.616-.112 1.106-.394 1.47-.847.364-.453.546-1.01.546-1.673 0-.784-.24-1.419-.721-1.904-.48-.485-1.113-.728-1.897-.728h-3.528c-.093 0-.14.047-.14.14v9.52c0 .093.047.14.14.14h.462zm2.996-5.208h-2.8c-.037 0-.056-.019-.056-.056V.84c0-.037.019-.056.056-.056h2.8c.579 0 1.048.182 1.407.546.36.364.539.84.539 1.428 0 .579-.18 1.05-.539 1.414-.36.364-.828.546-1.407.546zm7.908 5.32c.597 0 1.118-.135 1.561-.406.443-.27.768-.635.973-1.092.037-.075.014-.135-.07-.182l-.364-.182c-.075-.037-.135-.014-.182.07-.177.355-.422.632-.735.833-.313.2-.688.301-1.127.301-.55 0-1.006-.133-1.365-.399-.36-.266-.59-.628-.693-1.085-.047-.196-.07-.593-.07-1.19 0-.037.019-.056.056-.056h4.564c.093 0 .14-.047.14-.14 0-.355-.005-.651-.014-.889-.01-.238-.028-.446-.056-.623-.112-.7-.397-1.248-.854-1.645-.457-.397-1.069-.595-1.834-.595-.672 0-1.239.177-1.701.532-.462.355-.768.826-.917 1.414-.047.196-.077.41-.091.644-.014.233-.021.579-.021 1.036 0 .439.014.803.042 1.092.028.29.08.55.154.784.168.55.48.985.938 1.302.457.317 1.013.476 1.666.476zm1.89-4.018h-3.906c-.037 0-.056-.019-.056-.056.019-.55.051-.915.098-1.092.093-.439.308-.791.644-1.057.336-.266.756-.399 1.26-.399s.929.138 1.274.413c.345.275.57.637.672 1.085.047.233.07.583.07 1.05 0 .037-.019.056-.056.056zm5.724 3.906c.084 0 .14-.037.168-.112l2.31-6.776c.028-.103-.01-.154-.112-.154l-.518-.014c-.084 0-.14.037-.168.112l-1.904 5.796c-.01.019-.023.028-.042.028-.019 0-.033-.01-.042-.028l-1.904-5.796c-.028-.075-.084-.112-.168-.112h-.532c-.084 0-.126.033-.126.098l.014.056 2.324 6.79c.028.075.084.112.168.112h.532zm7.194.112c.597 0 1.118-.135 1.561-.406.443-.27.768-.635.973-1.092.037-.075.014-.135-.07-.182l-.364-.182c-.075-.037-.135-.014-.182.07-.177.355-.422.632-.735.833-.313.2-.688.301-1.127.301-.55 0-1.006-.133-1.365-.399-.36-.266-.59-.628-.693-1.085-.047-.196-.07-.593-.07-1.19 0-.037.019-.056.056-.056h4.564c.093 0 .14-.047.14-.14 0-.355-.005-.651-.014-.889-.01-.238-.028-.446-.056-.623-.112-.7-.397-1.248-.854-1.645-.457-.397-1.069-.595-1.834-.595-.672 0-1.239.177-1.701.532-.462.355-.768.826-.917 1.414-.047.196-.077.41-.091.644-.014.233-.021.579-.021 1.036 0 .439.014.803.042 1.092.028.29.08.55.154.784.168.55.48.985.938 1.302.457.317 1.013.476 1.666.476zm1.89-4.018h-3.906c-.037 0-.056-.019-.056-.056.019-.55.051-.915.098-1.092.093-.439.308-.791.644-1.057.336-.266.756-.399 1.26-.399s.929.138 1.274.413c.345.275.57.637.672 1.085.047.233.07.583.07 1.05 0 .037-.019.056-.056.056zm4.156 3.906c.093 0 .14-.047.14-.14V5.278c0-.55.173-.996.518-1.337.345-.34.798-.511 1.358-.511.541 0 .98.175 1.316.525.336.35.504.8.504 1.351v4.48c0 .093.047.14.14.14h.462c.093 0 .14-.047.14-.14v-4.62c0-.719-.222-1.297-.665-1.736-.443-.439-1.024-.658-1.743-.658-.439 0-.826.082-1.162.245-.336.163-.607.399-.812.707-.01.019-.021.026-.035.021-.014-.005-.021-.021-.021-.049V3.01c0-.093-.047-.14-.14-.14h-.462c-.093 0-.14.047-.14.14v6.776c0 .093.047.14.14.14h.462zm9.812.098c.448 0 .838-.08 1.169-.238.331-.159.595-.392.791-.7.01-.028.023-.04.042-.035.019.005.028.021.028.049v.686c0 .093.047.14.14.14h.448c.093 0 .14-.047.14-.14V3.01c0-.093-.047-.14-.14-.14h-.448c-.093 0-.14.047-.14.14v4.508c0 .55-.173.996-.518 1.337-.345.34-.803.511-1.372.511-.55 0-.992-.168-1.323-.504-.331-.336-.497-.784-.497-1.344V3.01c0-.093-.047-.14-.14-.14h-.448c-.093 0-.14.047-.14.14v4.704c0 .719.229 1.283.686 1.694.457.41 1.031.616 1.722.616zm8.37.014c.597 0 1.118-.135 1.561-.406.443-.27.768-.635.973-1.092.037-.075.014-.135-.07-.182l-.364-.182c-.075-.037-.135-.014-.182.07-.177.355-.422.632-.735.833-.313.2-.688.301-1.127.301-.55 0-1.006-.133-1.365-.399-.36-.266-.59-.628-.693-1.085-.047-.196-.07-.593-.07-1.19 0-.037.019-.056.056-.056h4.564c.093 0 .14-.047.14-.14 0-.355-.005-.651-.014-.889-.01-.238-.028-.446-.056-.623-.112-.7-.397-1.248-.854-1.645-.457-.397-1.069-.595-1.834-.595-.672 0-1.239.177-1.701.532-.462.355-.768.826-.917 1.414-.047.196-.077.41-.091.644-.014.233-.021.579-.021 1.036 0 .439.014.803.042 1.092.028.29.08.55.154.784.168.55.48.985.938 1.302.457.317 1.013.476 1.666.476zm1.89-4.018h-3.906c-.037 0-.056-.019-.056-.056.019-.55.051-.915.098-1.092.093-.439.308-.791.644-1.057.336-.266.756-.399 1.26-.399s.929.138 1.274.413c.345.275.57.637.672 1.085.047.233.07.583.07 1.05 0 .037-.019.056-.056.056zm7.668 3.906c.093 0 .14-.047.14-.14V5.474c0-.037.019-.056.056-.056h2.912c.803 0 1.449-.243 1.939-.728s.735-1.125.735-1.918c0-.803-.243-1.449-.728-1.939S85.388.098 84.595.098h-3.598c-.093 0-.14.047-.14.14v9.548c0 .093.047.14.14.14h.462zm3.08-5.138h-2.884c-.037 0-.056-.019-.056-.056V.826c0-.037.019-.056.056-.056h2.884c.588 0 1.062.184 1.421.553.36.369.539.856.539 1.463 0 .597-.18 1.08-.539 1.449-.36.369-.833.553-1.421.553zm7.432 5.25c.597 0 1.118-.135 1.561-.406.443-.27.768-.635.973-1.092.037-.075.014-.135-.07-.182l-.364-.182c-.075-.037-.135-.014-.182.07-.177.355-.422.632-.735.833-.313.2-.688.301-1.127.301-.55 0-1.006-.133-1.365-.399-.36-.266-.59-.628-.693-1.085-.047-.196-.07-.593-.07-1.19 0-.037.019-.056.056-.056h4.564c.093 0 .14-.047.14-.14 0-.355-.005-.651-.014-.889-.01-.238-.028-.446-.056-.623-.112-.7-.397-1.248-.854-1.645-.457-.397-1.069-.595-1.834-.595-.672 0-1.239.177-1.701.532-.462.355-.768.826-.917 1.414-.047.196-.077.41-.091.644-.014.233-.021.579-.021 1.036 0 .439.014.803.042 1.092.028.29.08.55.154.784.168.55.48.985.938 1.302.457.317 1.013.476 1.666.476zm1.89-4.018h-3.906c-.037 0-.056-.019-.056-.056.019-.55.051-.915.098-1.092.093-.439.308-.791.644-1.057.336-.266.756-.399 1.26-.399s.929.138 1.274.413c.345.275.57.637.672 1.085.047.233.07.583.07 1.05 0 .037-.019.056-.056.056zm4.156 3.906c.093 0 .14-.047.14-.14V5.614c0-.56.17-1.034.511-1.421.34-.387.772-.586 1.295-.595.28-.01.513.023.7.098.093.037.154.01.182-.084l.126-.448c.019-.093-.01-.154-.084-.182-.224-.112-.495-.168-.812-.168-.42 0-.786.103-1.099.308-.313.205-.567.49-.763.854-.01.028-.021.04-.035.035-.014-.005-.021-.021-.021-.049V3.01c0-.093-.047-.14-.14-.14h-.462c-.093 0-.14.047-.14.14v6.776c0 .093.047.14.14.14h.462zm11.518.126c.625 0 1.18-.126 1.666-.378.485-.252.861-.604 1.127-1.057.266-.453.399-.973.399-1.561 0-.084-.047-.126-.14-.126l-.462-.028c-.093 0-.14.042-.14.126v.028c0 .7-.224 1.265-.672 1.694-.448.43-1.04.644-1.778.644-.737 0-1.332-.215-1.785-.644-.453-.43-.679-.994-.679-1.694v-4.06c0-.7.224-1.262.672-1.687.448-.425 1.045-.637 1.792-.637.737 0 1.33.212 1.778.637.448.425.672.987.672 1.687v.042c0 .093.047.14.14.14l.462-.028c.037 0 .07-.014.098-.042.028-.028.042-.065.042-.112v-.014c0-.588-.133-1.106-.399-1.554-.266-.448-.642-.796-1.127-1.043-.485-.247-1.04-.371-1.666-.371-.635 0-1.195.126-1.68.378-.485.252-.861.604-1.127 1.057-.266.453-.399.978-.399 1.575v3.99c0 .597.133 1.127.399 1.589.266.462.642.819 1.127 1.071s1.045.378 1.68.378zm8.552-.014c.663 0 1.23-.173 1.701-.518.471-.345.786-.807.945-1.386.056-.215.093-.453.112-.714.019-.261.028-.607.028-1.036 0-.41-.01-.749-.028-1.015-.019-.266-.056-.506-.112-.721-.159-.57-.474-1.027-.945-1.372-.471-.345-1.034-.518-1.687-.518-.672 0-1.239.17-1.701.511-.462.34-.777.8-.945 1.379-.103.364-.154.943-.154 1.736s.051 1.377.154 1.75c.168.579.485 1.04.952 1.386.467.345 1.027.518 1.68.518zm0-.658c-.504 0-.929-.135-1.274-.406-.345-.27-.57-.635-.672-1.092-.065-.29-.098-.784-.098-1.484s.033-1.195.098-1.484c.103-.457.327-.821.672-1.092.345-.27.77-.406 1.274-.406s.931.135 1.281.406c.35.27.576.635.679 1.092.056.243.084.737.084 1.484 0 .737-.033 1.232-.098 1.484-.103.448-.329.81-.679 1.085-.35.275-.772.413-1.267.413zm7.894.644c.448 0 .838-.08 1.169-.238.331-.159.595-.392.791-.7.01-.028.023-.04.042-.035.019.005.028.021.028.049v.686c0 .093.047.14.14.14h.448c.093 0 .14-.047.14-.14V3.01c0-.093-.047-.14-.14-.14h-.448c-.093 0-.14.047-.14.14v4.508c0 .55-.173.996-.518 1.337-.345.34-.803.511-1.372.511-.55 0-.992-.168-1.323-.504-.331-.336-.497-.784-.497-1.344V3.01c0-.093-.047-.14-.14-.14h-.448c-.093 0-.14.047-.14.14v4.704c0 .719.229 1.283.686 1.694.457.41 1.031.616 1.722.616zm6.396-.098c.093 0 .14-.047.14-.14V5.278c0-.55.173-.996.518-1.337.345-.34.798-.511 1.358-.511.541 0 .98.175 1.316.525.336.35.504.8.504 1.351v4.48c0 .093.047.14.14.14h.462c.093 0 .14-.047.14-.14v-4.62c0-.719-.222-1.297-.665-1.736-.443-.439-1.024-.658-1.743-.658-.439 0-.826.082-1.162.245-.336.163-.607.399-.812.707-.01.019-.021.026-.035.021-.014-.005-.021-.021-.021-.049V3.01c0-.093-.047-.14-.14-.14h-.462c-.093 0-.14.047-.14.14v6.776c0 .093.047.14.14.14h.462zm9.882.014l.42-.014c.093 0 .14-.047.14-.14v-.378c0-.093-.047-.14-.14-.14h-.322c-.476 0-.821-.096-1.036-.287-.215-.191-.322-.525-.322-1.001V3.556c0-.037.019-.056.056-.056h1.638c.093 0 .14-.047.14-.14v-.35c0-.093-.047-.14-.14-.14h-1.638c-.037 0-.056-.019-.056-.056V1.218c0-.093-.047-.14-.14-.14h-.448c-.093 0-.14.047-.14.14v1.596c0 .037-.019.056-.056.056h-.84c-.093 0-.14.047-.14.14v.35c0 .093.047.14.14.14h.84c.037 0 .056.019.056.056v4.62c.01.672.18 1.134.511 1.386s.824.378 1.477.378zm3.862-.014c.093 0 .14-.047.14-.14V5.614c0-.56.17-1.034.511-1.421.34-.387.772-.586 1.295-.595.28-.01.513.023.7.098.093.037.154.01.182-.084l.126-.448c.019-.093-.01-.154-.084-.182-.224-.112-.495-.168-.812-.168-.42 0-.786.103-1.099.308-.313.205-.567.49-.763.854-.01.028-.021.04-.035.035-.014-.005-.021-.021-.021-.049V3.01c0-.093-.047-.14-.14-.14h-.462c-.093 0-.14.047-.14.14v6.776c0 .093.047.14.14.14h.462zm5.192 2.8c.457 0 .814-.051 1.071-.154.257-.103.478-.299.665-.588.187-.29.387-.737.602-1.344l2.646-7.616c.028-.103-.01-.154-.112-.154h-.476c-.084 0-.14.037-.168.112l-1.932 5.936c-.01.019-.023.028-.042.028-.019 0-.033-.01-.042-.028l-1.988-5.936c-.028-.075-.084-.112-.168-.112h-.476c-.084 0-.126.033-.126.098l.014.056 2.394 6.86c.019.019.019.047 0 .084-.196.607-.366 1.055-.511 1.344-.145.29-.317.488-.518.595-.2.107-.478.166-.833.175h-.056c-.093 0-.14.047-.14.14v.364c0 .093.033.14.098.14h.098zm6.774-1.764c.093 0 .145-.042.154-.126l.756-2.912c.01-.047.002-.084-.021-.112-.023-.028-.058-.042-.105-.042h-.392c-.084 0-.135.042-.154.126l-.658 2.912c-.01.047-.002.084.021.112.023.028.058.042.105.042h.294zm12.652-1.036c.093 0 .14-.047.14-.14v-.378c0-.093-.047-.14-.14-.14h-4.536c-.047 0-.056-.023-.028-.07l.28-.35c1.185-1.465 2.1-2.618 2.744-3.458.896-1.167 1.344-2.151 1.344-2.954 0-.467-.112-.884-.336-1.253-.224-.369-.539-.656-.945-.861-.406-.205-.88-.308-1.421-.308-.775 0-1.407.217-1.897.651-.49.434-.74 1.001-.749 1.701v.532c0 .093.047.14.14.14h.462c.093 0 .14-.047.14-.14V2.45c-.01-.532.161-.961.511-1.288.35-.327.814-.49 1.393-.49.579 0 1.048.163 1.407.49.36.327.539.756.539 1.288 0 .663-.439 1.563-1.316 2.702l-1.274 1.624c-.252.317-.537.681-.854 1.092-.317.41-.677.863-1.078 1.358-.037.047-.056.103-.056.168v.392c0 .093.047.14.14.14h5.39zm5.528.14c.868 0 1.566-.25 2.093-.749.527-.5.791-1.164.791-1.995V2.73c0-.821-.264-1.482-.791-1.981-.527-.5-1.225-.749-2.093-.749-.859 0-1.547.247-2.065.742s-.777 1.157-.777 1.988v4.592c0 .83.259 1.496.777 1.995.518.5 1.206.749 2.065.749zm0-.672c-.635 0-1.143-.184-1.526-.553-.383-.369-.574-.856-.574-1.463v-4.69c0-.607.191-1.097.574-1.47.383-.373.891-.56 1.526-.56.653 0 1.174.187 1.561.56.387.373.581.863.581 1.47v4.69c0 .607-.194 1.094-.581 1.463-.387.369-.908.553-1.561.553zm7.404.532c.093 0 .14-.047.14-.14V.266c0-.093-.047-.14-.14-.14h-.504c-.075 0-.135.014-.182.042l-1.638.91c-.056.028-.084.075-.084.14v.028l.056.336c.01.065.042.098.098.098.028 0 .051-.005.07-.014l1.512-.672c.019-.01.035-.01.049 0 .014.01.021.023.021.042v8.75c0 .093.047.14.14.14h.462zm4.926 0c.084 0 .14-.037.168-.112l3.262-8.946c.019-.075.028-.13.028-.168V.266c0-.093-.047-.14-.14-.14h-5.348c-.093 0-.14.047-.14.14V1.47c0 .093.047.14.14.14h.364c.093 0 .14-.047.14-.14V.84c0-.037.019-.056.056-.056h4.074c.019 0 .033.007.042.021.01.014.01.03 0 .049l-3.276 8.918c-.028.103.01.154.112.154h.518zm9.14-4.074c.093 0 .14-.047.14-.14v-.378c0-.093-.047-.14-.14-.14h-4.018c-.093 0-.14.047-.14.14v.378c0 .093.047.14.14.14h4.018zm7.74 4.074c.093 0 .14-.047.14-.14v-.378c0-.093-.047-.14-.14-.14h-4.536c-.047 0-.056-.023-.028-.07l.28-.35c1.185-1.465 2.1-2.618 2.744-3.458.896-1.167 1.344-2.151 1.344-2.954 0-.467-.112-.884-.336-1.253-.224-.369-.539-.656-.945-.861-.406-.205-.88-.308-1.421-.308-.775 0-1.407.217-1.897.651-.49.434-.74 1.001-.749 1.701v.532c0 .093.047.14.14.14h.462c.093 0 .14-.047.14-.14V2.45c-.01-.532.161-.961.511-1.288.35-.327.814-.49 1.393-.49.579 0 1.048.163 1.407.49.36.327.539.756.539 1.288 0 .663-.439 1.563-1.316 2.702l-1.274 1.624c-.252.317-.537.681-.854 1.092-.317.41-.677.863-1.078 1.358-.037.047-.056.103-.056.168v.392c0 .093.047.14.14.14h5.39zm5.528.14c.868 0 1.566-.25 2.093-.749.527-.5.791-1.164.791-1.995V2.73c0-.821-.264-1.482-.791-1.981-.527-.5-1.225-.749-2.093-.749-.859 0-1.547.247-2.065.742s-.777 1.157-.777 1.988v4.592c0 .83.259 1.496.777 1.995.518.5 1.206.749 2.065.749zm0-.672c-.635 0-1.143-.184-1.526-.553-.383-.369-.574-.856-.574-1.463v-4.69c0-.607.191-1.097.574-1.47.383-.373.891-.56 1.526-.56.653 0 1.174.187 1.561.56.387.373.581.863.581 1.47v4.69c0 .607-.194 1.094-.581 1.463-.387.369-.908.553-1.561.553zm10.974.532c.093 0 .14-.047.14-.14v-.378c0-.093-.047-.14-.14-.14h-4.536c-.047 0-.056-.023-.028-.07l.28-.35c1.185-1.465 2.1-2.618 2.744-3.458.896-1.167 1.344-2.151 1.344-2.954 0-.467-.112-.884-.336-1.253-.224-.369-.539-.656-.945-.861-.406-.205-.88-.308-1.421-.308-.775 0-1.407.217-1.897.651-.49.434-.74 1.001-.749 1.701v.532c0 .093.047.14.14.14h.462c.093 0 .14-.047.14-.14V2.45c-.01-.532.161-.961.511-1.288.35-.327.814-.49 1.393-.49.579 0 1.048.163 1.407.49.36.327.539.756.539 1.288 0 .663-.439 1.563-1.316 2.702l-1.274 1.624c-.252.317-.537.681-.854 1.092-.317.41-.677.863-1.078 1.358-.037.047-.056.103-.056.168v.392c0 .093.047.14.14.14h5.39zm5.528.14c.868 0 1.566-.25 2.093-.749.527-.5.791-1.164.791-1.995V2.73c0-.821-.264-1.482-.791-1.981-.527-.5-1.225-.749-2.093-.749-.859 0-1.547.247-2.065.742s-.777 1.157-.777 1.988v4.592c0 .83.259 1.496.777 1.995.518.5 1.206.749 2.065.749zm0-.672c-.635 0-1.143-.184-1.526-.553-.383-.369-.574-.856-.574-1.463v-4.69c0-.607.191-1.097.574-1.47.383-.373.891-.56 1.526-.56.653 0 1.174.187 1.561.56.387.373.581.863.581 1.47v4.69c0 .607-.194 1.094-.581 1.463-.387.369-.908.553-1.561.553z" opacity=".6"/>
                            <g>
                                <path fill="#FFF" fill-rule="nonzero" d="M21.24 9.08c.473 0 .89-.093 1.25-.28.36-.187.638-.448.835-.785.197-.337.295-.728.295-1.175V2.1c0-.067-.033-.1-.1-.1h-.51c-.067 0-.1.033-.1.1v4.76c0 .473-.153.858-.46 1.155-.307.297-.71.445-1.21.445s-.903-.148-1.21-.445c-.307-.297-.46-.682-.46-1.155V2.1c0-.067-.033-.1-.1-.1h-.51c-.067 0-.1.033-.1.1v4.74c0 .447.1.838.3 1.175.2.337.48.598.84.785.36.187.773.28 1.24.28zm6.367 0c.733 0 1.306-.167 1.72-.5.413-.333.62-.78.62-1.34 0-.36-.092-.665-.275-.915-.184-.25-.424-.462-.72-.635-.297-.173-.689-.36-1.175-.56-.48-.187-.835-.338-1.065-.455-.23-.117-.407-.253-.53-.41-.124-.157-.185-.355-.185-.595 0-.367.126-.647.38-.84.253-.193.616-.29 1.09-.29.54 0 .961.123 1.265.37.303.247.455.563.455.95v.18c0 .067.033.1.1.1h.5c.066 0 .1-.033.1-.1v-.22c0-.573-.214-1.033-.64-1.38-.427-.347-1.01-.52-1.75-.52-.68 0-1.215.155-1.605.465-.39.31-.585.745-.585 1.305 0 .36.085.658.255.895.17.237.393.43.67.58.276.15.665.325 1.165.525.466.193.828.363 1.085.51.256.147.446.303.57.47.123.167.185.367.185.6 0 .36-.134.648-.4.865-.267.217-.657.325-1.17.325-.567 0-1.01-.118-1.33-.355-.32-.237-.48-.548-.48-.935V6.9c0-.067-.034-.1-.1-.1h-.49c-.067 0-.1.033-.1.1v.31c0 .567.218 1.02.655 1.36.436.34 1.031.51 1.785.51zM31.633 9c.06 0 .1-.027.12-.08l.4-1.26c.007-.02.02-.03.04-.03h2.99c.02 0 .034.01.04.03l.4 1.26c.02.053.06.08.12.08h.54c.06 0 .09-.023.09-.07l-.01-.04-2.22-6.81c-.02-.053-.06-.08-.12-.08h-.68c-.06 0-.1.027-.12.08l-2.21 6.81c-.02.073.007.11.08.11h.54zm3.34-1.95h-2.58c-.013 0-.025-.005-.035-.015-.01-.01-.011-.022-.005-.035l1.3-4.08c.007-.013.017-.02.03-.02.014 0 .024.007.03.02l1.3 4.08c.007.013.005.025-.005.035-.01.01-.021.015-.035.015z" opacity=".8" transform="translate(310.000000, 72.926000)"/>
                                <g fill="#57F" opacity=".5">
                                    <path d="M0 0H10V10H0z" transform="translate(310.000000, 72.926000)"/>
                                </g>
                            </g>
                            <rect width="65" height="18" x="306" y="92.926" fill="#FFF" fill-opacity=".1" rx="4"/>
                            <g>
                                <path fill="#FFF" fill-rule="nonzero" d="M21.21 9c.06 0 .1-.027.12-.08l2.2-6.81c.02-.073-.007-.11-.08-.11h-.53c-.06 0-.1.027-.12.08l-1.82 5.86c-.007.013-.017.02-.03.02-.013 0-.023-.007-.03-.02L19.1 2.08c-.02-.053-.06-.08-.12-.08h-.54c-.06 0-.09.023-.09.07l.01.04 2.18 6.81c.02.053.06.08.12.08h.55zm4.127-5.98c.16 0 .293-.053.4-.16.106-.107.16-.24.16-.4 0-.167-.054-.302-.16-.405-.107-.103-.24-.155-.4-.155-.16 0-.294.052-.4.155-.107.103-.16.238-.16.405 0 .16.053.293.16.4.106.107.24.16.4.16zm.23 5.97c.066 0 .1-.033.1-.1V4.03c0-.067-.034-.1-.1-.1h-.51c-.067 0-.1.033-.1.1v4.86c0 .067.033.1.1.1h.51zm3.916.1c.434 0 .817-.092 1.15-.275.334-.183.584-.435.75-.755.027-.06.014-.107-.04-.14l-.39-.23c-.053-.033-.1-.02-.14.04-.12.233-.286.413-.5.54-.213.127-.46.19-.74.19-.373 0-.68-.087-.92-.26-.24-.173-.396-.41-.47-.71-.026-.107-.046-.343-.06-.71 0-.027.014-.04.04-.04h3.23c.067 0 .1-.033.1-.1v-.32c0-.28-.013-.513-.04-.7-.08-.56-.283-.993-.61-1.3-.326-.307-.793-.46-1.4-.46-.486 0-.901.13-1.245.39-.343.26-.571.607-.685 1.04-.04.14-.065.298-.075.475-.01.177-.015.405-.015.685 0 .6.06 1.06.18 1.38.14.393.37.7.69.92.32.22.717.333 1.19.34zm1.27-2.95h-2.59c-.026 0-.04-.013-.04-.04.014-.313.04-.54.08-.68.067-.287.209-.515.425-.685.217-.17.489-.255.815-.255.34 0 .622.088.845.265.224.177.372.415.445.715.027.127.047.34.06.64 0 .027-.013.04-.04.04zm4.017 2.87c.167 0 .29-.003.37-.01.067 0 .1-.033.1-.1v-.41c0-.067-.033-.1-.1-.1h-.25c-.307 0-.532-.065-.675-.195-.143-.13-.215-.355-.215-.675V4.57c0-.027.013-.04.04-.04h1.13c.067 0 .1-.033.1-.1v-.39c0-.067-.033-.1-.1-.1h-1.13c-.027 0-.04-.013-.04-.04V2.74c0-.067-.033-.1-.1-.1h-.49c-.067 0-.1.033-.1.1V3.9c0 .027-.013.04-.04.04h-.61c-.067 0-.1.033-.1.1v.39c0 .067.033.1.1.1h.61c.027 0 .04.013.04.04v3.17c0 .487.123.82.37 1 .247.18.61.27 1.09.27zM37.557 9c.066 0 .1-.033.1-.1l-.01-5.51c0-.02.006-.032.02-.035.013-.003.023.005.03.025l3.41 5.55c.033.047.073.07.12.07h.5c.066 0 .1-.033.1-.1V2.1c0-.067-.034-.1-.1-.1h-.51c-.067 0-.1.033-.1.1l.01 5.51c0 .02-.007.032-.02.035-.014.003-.024-.005-.03-.025l-3.41-5.55c-.034-.047-.074-.07-.12-.07h-.5c-.067 0-.1.033-.1.1v6.8c0 .067.033.1.1.1h.51zm7.506.08c.327 0 .624-.052.89-.155.267-.103.484-.255.65-.455.014-.013.025-.017.035-.01.01.007.015.017.015.03v.41c0 .067.034.1.1.1h.51c.067 0 .1-.033.1-.1V5.54c0-.507-.163-.913-.49-1.22-.326-.307-.79-.46-1.39-.46-.52 0-.953.117-1.3.35-.346.233-.546.537-.6.91-.013.04.017.067.09.08l.54.07c.06.007.1-.023.12-.09.047-.22.17-.392.37-.515.2-.123.46-.185.78-.185.4 0 .695.098.885.295.19.197.285.465.285.805v.38c0 .027-.013.04-.04.04h-1.16c-.646 0-1.151.145-1.515.435-.363.29-.545.685-.545 1.185 0 .493.16.86.48 1.1.32.24.717.36 1.19.36zm.14-.61c-.326 0-.591-.075-.795-.225-.203-.15-.305-.372-.305-.665 0-.32.134-.57.4-.75.267-.18.62-.27 1.06-.27h1.05c.027 0 .04.013.04.04v.78c0 .333-.143.598-.43.795-.286.197-.626.295-1.02.295zM49.62 9c.067 0 .1-.033.1-.1V5.67c0-.36.105-.647.315-.86.21-.213.492-.32.845-.32.347 0 .623.108.83.325.207.217.31.508.31.875V8.9c0 .067.033.1.1.1h.51c.067 0 .1-.033.1-.1V5.67c0-.36.108-.647.325-.86.217-.213.502-.32.855-.32.34 0 .615.108.825.325.21.217.315.508.315.875V8.9c0 .067.033.1.1.1h.5c.067 0 .1-.033.1-.1V5.55c0-.52-.145-.93-.435-1.23-.29-.3-.685-.45-1.185-.45-.34 0-.643.068-.91.205-.267.137-.473.342-.62.615-.02.033-.037.033-.05 0-.127-.267-.313-.47-.56-.61-.247-.14-.543-.21-.89-.21-.28 0-.535.048-.765.145-.23.097-.418.242-.565.435-.013.013-.025.018-.035.015-.01-.003-.015-.012-.015-.025v-.4c0-.067-.033-.1-.1-.1h-.51c-.067 0-.1.033-.1.1V8.9c0 .067.033.1.1.1h.51z" opacity=".8" transform="translate(310.000000, 96.926000)"/>
                                <path fill="#9CAFFF" d="M0 0H10V10H0z" opacity=".1" transform="translate(310.000000, 96.926000)"/>
                            </g>
                        </g>
                        <g fill="#FFF" fill-rule="nonzero">
                            <path d="M222.634 84.748c.04 0 .074-.014.102-.042.028-.028.042-.062.042-.102v-3.036c0-.032.004-.056.012-.072l2.496-4.968c.024-.056.026-.098.006-.126-.02-.028-.058-.042-.114-.042h-1.536c-.08 0-.136.036-.168.108l-1.5 3.192c-.024.048-.048.048-.072 0l-1.5-3.192c-.032-.072-.088-.108-.168-.108h-1.512c-.088 0-.132.032-.132.096 0 .016.008.04.024.072l2.472 4.968c.008.016.012.04.012.072v3.036c0 .04.014.074.042.102.028.028.062.042.102.042h1.392zm6.994-2.808c.04 0 .074-.014.102-.042.028-.028.042-.062.042-.102v-1.164c0-.04-.014-.074-.042-.102-.028-.028-.062-.042-.102-.042h-3.924c-.04 0-.074.014-.102.042-.028.028-.042.062-.042.102v1.164c0 .04.014.074.042.102.028.028.062.042.102.042h3.924zm2.986 2.82c.08 0 .132-.04.156-.12l.348-1.176c.016-.032.036-.048.06-.048h2.952c.024 0 .044.016.06.048l.36 1.176c.024.08.076.12.156.12h1.524c.088 0 .132-.036.132-.108 0-.024-.004-.044-.012-.06l-2.592-8.112c-.024-.08-.076-.12-.156-.12h-1.884c-.08 0-.132.04-.156.12l-2.592 8.112c-.016.056-.012.098.012.126.024.028.06.042.108.042h1.524zm3.096-2.652h-2.112c-.04 0-.056-.024-.048-.072l1.056-3.564c.008-.024.02-.038.036-.042.016-.004.028.01.036.042l1.08 3.564c.016.048 0 .072-.048.072zm5.482 2.652c.072 0 .128-.032.168-.096l1.08-1.644c.024-.048.048-.048.072 0l1.08 1.644c.04.064.096.096.168.096h1.512c.072 0 .108-.032.108-.096 0-.032-.008-.06-.024-.084l-1.92-2.868c-.008-.024-.008-.048 0-.072l1.92-2.868c.032-.048.04-.09.024-.126-.016-.036-.052-.054-.108-.054h-1.608c-.072 0-.128.032-.168.096l-1.08 1.644c-.024.048-.052.048-.084 0l-1.08-1.644c-.04-.064-.096-.096-.168-.096h-1.5c-.08 0-.12.032-.12.096 0 .024.008.052.024.084l1.932 2.868c.016.024.016.048 0 .072l-1.932 2.868c-.032.048-.038.09-.018.126.02.036.058.054.114.054h1.608zm6.515-6.864c.272 0 .498-.09.678-.27.18-.18.27-.406.27-.678 0-.28-.088-.508-.264-.684-.176-.176-.404-.264-.684-.264s-.508.088-.684.264c-.176.176-.264.404-.264.684 0 .272.09.498.27.678.18.18.406.27.678.27zm.684 6.864c.04 0 .074-.014.102-.042.028-.028.042-.062.042-.102v-5.892c0-.04-.014-.074-.042-.102-.028-.028-.062-.042-.102-.042h-1.404c-.04 0-.074.014-.102.042-.028.028-.042.062-.042.102v5.892c0 .04.014.074.042.102.028.028.062.042.102.042h1.404zm4.438.084c.792 0 1.422-.166 1.89-.498.468-.332.702-.794.702-1.386 0-.504-.164-.888-.492-1.152-.328-.264-.776-.48-1.344-.648-.128-.04-.248-.074-.36-.102-.112-.028-.212-.054-.3-.078-.384-.088-.658-.172-.822-.252-.164-.08-.246-.2-.246-.36 0-.168.084-.3.252-.396.168-.096.384-.144.648-.144.296 0 .534.06.714.18.18.12.27.268.27.444 0 .04.014.074.042.102.028.028.062.042.102.042h1.284c.04 0 .074-.014.102-.042.028-.028.042-.062.042-.102 0-.376-.106-.712-.318-1.008-.212-.296-.51-.526-.894-.69-.384-.164-.832-.246-1.344-.246-.76 0-1.37.174-1.83.522-.46.348-.69.818-.69 1.41 0 .48.152.848.456 1.104.304.256.712.472 1.224.648.216.088.512.18.888.276.328.08.564.156.708.228.144.072.216.18.216.324 0 .16-.084.294-.252.402-.168.108-.388.162-.66.162-.296 0-.542-.062-.738-.186-.196-.124-.294-.274-.294-.45v-.012c0-.04-.014-.074-.042-.102-.028-.028-.062-.042-.102-.042h-1.332c-.04 0-.074.014-.102.042-.028.028-.042.062-.042.102v.12c0 .344.11.652.33.924.22.272.53.484.93.636.4.152.868.228 1.404.228zM220.246 8.76c.08 0 .14-.032.18-.096l1.572-2.736c.024-.048.048-.048.072 0l1.56 2.736c.04.064.1.096.18.096h1.512c.088 0 .132-.032.132-.096l-.024-.072-2.328-3.996c-.008-.024-.008-.048 0-.072L225.43.528c.032-.048.036-.088.012-.12-.024-.032-.064-.048-.12-.048h-1.512c-.08 0-.14.032-.18.096l-1.56 2.748c-.024.048-.048.048-.072 0l-1.56-2.748c-.04-.064-.1-.096-.18-.096h-1.524c-.088 0-.132.032-.132.096l.024.072 2.328 3.996c.016.024.016.048 0 .072l-2.328 3.996c-.032.048-.036.088-.012.12.024.032.064.048.12.048h1.512zm10.09-2.82c.04 0 .074-.014.102-.042.028-.028.042-.062.042-.102V4.632c0-.04-.014-.074-.042-.102-.028-.028-.062-.042-.102-.042h-3.924c-.04 0-.074.014-.102.042-.028.028-.042.062-.042.102v1.164c0 .04.014.074.042.102.028.028.062.042.102.042h3.924zm2.986 2.82c.08 0 .132-.04.156-.12l.348-1.176c.016-.032.036-.048.06-.048h2.952c.024 0 .044.016.06.048l.36 1.176c.024.08.076.12.156.12h1.524c.088 0 .132-.036.132-.108 0-.024-.004-.044-.012-.06L236.466.48c-.024-.08-.076-.12-.156-.12h-1.884c-.08 0-.132.04-.156.12l-2.592 8.112c-.016.056-.012.098.012.126.024.028.06.042.108.042h1.524zm3.096-2.652h-2.112c-.04 0-.056-.024-.048-.072l1.056-3.564c.008-.024.02-.038.036-.042.016-.004.028.01.036.042l1.08 3.564c.016.048 0 .072-.048.072zM241.9 8.76c.072 0 .128-.032.168-.096l1.08-1.644c.024-.048.048-.048.072 0l1.08 1.644c.04.064.096.096.168.096h1.512c.072 0 .108-.032.108-.096 0-.032-.008-.06-.024-.084l-1.92-2.868c-.008-.024-.008-.048 0-.072l1.92-2.868c.032-.048.04-.09.024-.126-.016-.036-.052-.054-.108-.054h-1.608c-.072 0-.128.032-.168.096l-1.08 1.644c-.024.048-.052.048-.084 0l-1.08-1.644c-.04-.064-.096-.096-.168-.096h-1.5c-.08 0-.12.032-.12.096 0 .024.008.052.024.084l1.932 2.868c.016.024.016.048 0 .072l-1.932 2.868c-.032.048-.038.09-.018.126.02.036.058.054.114.054h1.608zm6.515-6.864c.272 0 .498-.09.678-.27.18-.18.27-.406.27-.678 0-.28-.088-.508-.264-.684-.176-.176-.404-.264-.684-.264s-.508.088-.684.264c-.176.176-.264.404-.264.684 0 .272.09.498.27.678.18.18.406.27.678.27zm.684 6.864c.04 0 .074-.014.102-.042.028-.028.042-.062.042-.102V2.724c0-.04-.014-.074-.042-.102-.028-.028-.062-.042-.102-.042h-1.404c-.04 0-.074.014-.102.042-.028.028-.042.062-.042.102v5.892c0 .04.014.074.042.102.028.028.062.042.102.042h1.404zm4.438.084c.792 0 1.422-.166 1.89-.498.468-.332.702-.794.702-1.386 0-.504-.164-.888-.492-1.152-.328-.264-.776-.48-1.344-.648-.128-.04-.248-.074-.36-.102-.112-.028-.212-.054-.3-.078-.384-.088-.658-.172-.822-.252-.164-.08-.246-.2-.246-.36 0-.168.084-.3.252-.396.168-.096.384-.144.648-.144.296 0 .534.06.714.18.18.12.27.268.27.444 0 .04.014.074.042.102.028.028.062.042.102.042h1.284c.04 0 .074-.014.102-.042.028-.028.042-.062.042-.102 0-.376-.106-.712-.318-1.008-.212-.296-.51-.526-.894-.69-.384-.164-.832-.246-1.344-.246-.76 0-1.37.174-1.83.522-.46.348-.69.818-.69 1.41 0 .48.152.848.456 1.104.304.256.712.472 1.224.648.216.088.512.18.888.276.328.08.564.156.708.228.144.072.216.18.216.324 0 .16-.084.294-.252.402-.168.108-.388.162-.66.162-.296 0-.542-.062-.738-.186-.196-.124-.294-.274-.294-.45v-.012c0-.04-.014-.074-.042-.102-.028-.028-.062-.042-.102-.042h-1.332c-.04 0-.074.014-.102.042-.028.028-.042.062-.042.102v.12c0 .344.11.652.33.924.22.272.53.484.93.636.4.152.868.228 1.404.228z" transform="translate(-776.000000, -432.000000) translate(75.000000, 145.000000) translate(671.000000, 60.000000) translate(30.000000, 227.240000) translate(210.758395, 0.000000)"/>
                            <g>
                                <path fill-opacity=".4" d="M113.207.337l-.29.525C112.608.69 112.26.6 111.9.6V0c.463 0 .91.117 1.307.337zm1.393 3.49h-.6l-.001-1.197.6-.02.001 1.216zm0 3.6h-.6v-1.2h.6v1.2zm0 3.6h-.6v-1.2h.6v1.2zm0 3.6h-.6v-1.2h.6v1.2zm0 3.6h-.6v-1.2h.6v1.2zm0 3.6h-.6v-1.2h.6v1.2zm0 3.6h-.6v-1.2h.6v1.2zm-1.193 3.514l-.335-.498c.294-.198.535-.47.697-.785l.534.274c-.209.406-.518.754-.896 1.009zm-3.76.459v-.6h1.2v.6h-1.2zm-3.6 0v-.6h1.2v.6h-1.2zm-3.6 0v-.6h1.2v.6h-1.2zm-3.6 0v-.6h1.2v.6h-1.2zm-3.6 0v-.6h1.2v.6h-1.2zm-3.6 0v-.6h1.2v.6h-1.2zm-3.6 0v-.6h1.2v.6h-1.2zm-3.6 0v-.6h1.2v.6h-1.2zm-3.6 0v-.6h1.2v.6h-1.2zm-3.6 0v-.6h1.2v.6h-1.2zm-3.6 0v-.6h1.2v.6h-1.2zm-3.6 0v-.6h1.2v.6h-1.2zm-3.6 0v-.6h1.2v.6h-1.2zm-3.6 0v-.6h1.2v.6h-1.2zm-3.6 0v-.6h1.2v.6h-1.2zm-3.6 0v-.6h1.2v.6h-1.2zm-3.6 0v-.6h1.2v.6h-1.2zm-3.6 0v-.6h1.2v.6h-1.2zm-3.6 0v-.6h1.2v.6h-1.2zm-3.6 0v-.6h1.2v.6h-1.2zm-3.6 0v-.6h1.2v.6h-1.2zm-3.6 0v-.6h1.2v.6h-1.2zm-3.6 0v-.6h1.2v.6h-1.2zm-3.6 0v-.6h1.2v.6h-1.2zm-3.6 0v-.6h1.2v.6h-1.2zm-3.6 0v-.6h1.2v.6h-1.2zm-3.6 0v-.6h1.2v.6h-1.2zm-3.6 0v-.6h1.2v.6h-1.2zm-3.6 0v-.6h1.2v.6h-1.2zm-3.6 0v-.6h1.2v.6h-1.2zm-3.703-.26l.257-.541c.279.132.584.201.899.201h.148v.6H2.7c-.405 0-.797-.09-1.156-.26zM0 25.722h.6v.994c0 .065.004.13.01.194l-.597.058c-.008-.082-.012-.165-.013-.25v-.996zm0-3.6h.6v1.2H0v-1.2zm0-3.6h.6v1.2H0v-1.2zm0-3.6h.6v1.2H0v-1.2zm0-3.6h.6v1.2H0v-1.2zm0-3.6h.6v1.2H0v-1.2zm0-3.6h.6v1.2H0v-1.2zM1.055.56l.366.475c-.282.217-.505.502-.647.828l-.55-.24c.183-.419.47-.785.831-1.063zM4.805 0v.6h-1.2V0h1.2zm3.6 0v.6h-1.2V0h1.2zm3.6 0v.6h-1.2V0h1.2zm3.6 0v.6h-1.2V0h1.2zm3.6 0v.6h-1.2V0h1.2zm3.6 0v.6h-1.2V0h1.2zm3.6 0v.6h-1.2V0h1.2zm3.6 0v.6h-1.2V0h1.2zm3.6 0v.6h-1.2V0h1.2zm3.6 0v.6h-1.2V0h1.2zm3.6 0v.6h-1.2V0h1.2zm3.6 0v.6h-1.2V0h1.2zm3.6 0v.6h-1.2V0h1.2zm3.6 0v.6h-1.2V0h1.2zm3.6 0v.6h-1.2V0h1.2zm3.6 0v.6h-1.2V0h1.2zm3.6 0v.6h-1.2V0h1.2zm3.6 0v.6h-1.2V0h1.2zm3.6 0v.6h-1.2V0h1.2zm3.6 0v.6h-1.2V0h1.2zm3.6 0v.6h-1.2V0h1.2zm3.6 0v.6h-1.2V0h1.2zm3.6 0v.6h-1.2V0h1.2zm3.6 0v.6h-1.2V0h1.2zm3.6 0v.6h-1.2V0h1.2zm3.6 0v.6h-1.2V0h1.2zm3.6 0v.6h-1.2V0h1.2zm3.6 0v.6h-1.2V0h1.2zm3.6 0v.6h-1.2V0h1.2zm3.6 0v.6h-1.2V0h1.2zm2.695 0v.6h-.295V0h.295z" transform="translate(-776.000000, -432.000000) translate(75.000000, 145.000000) translate(671.000000, 60.000000) translate(30.000000, 227.240000) translate(210.758395, 0.000000) translate(216.941605, 18.460000)"/>
                                <g>
                                    <path d="M3.708 8.484c.08 0 .12-.04.12-.12V4.812c0-.032.004-.052.012-.06L6.336.24c.024-.04.028-.074.012-.102C6.332.11 6.3.096 6.252.096h-.648c-.064 0-.112.028-.144.084L3.432 3.84c-.008.008-.02.012-.036.012-.016 0-.028-.004-.036-.012L1.344.18C1.32.124 1.272.096 1.2.096H.552C.48.096.444.12.444.168c0 .016.008.04.024.072l2.496 4.512c.008.008.012.028.012.06v3.552c0 .08.04.12.12.12h.612zm5.804.12c.52 0 .98-.11 1.38-.33.4-.22.7-.522.9-.906.032-.072.016-.128-.048-.168l-.468-.276c-.064-.04-.12-.024-.168.048-.144.28-.344.496-.6.648-.256.152-.552.228-.888.228-.448 0-.816-.104-1.104-.312-.288-.208-.476-.492-.564-.852-.032-.128-.056-.412-.072-.852 0-.032.016-.048.048-.048h3.876c.08 0 .12-.04.12-.12V5.28c0-.336-.016-.616-.048-.84-.096-.672-.34-1.192-.732-1.56-.392-.368-.952-.552-1.68-.552-.584 0-1.082.156-1.494.468-.412.312-.686.728-.822 1.248-.048.168-.078.358-.09.57-.012.212-.018.486-.018.822 0 .72.072 1.272.216 1.656.168.472.444.84.828 1.104.384.264.86.4 1.428.408zm1.524-3.54H7.928c-.032 0-.048-.016-.048-.048.016-.376.048-.648.096-.816.08-.344.25-.618.51-.822.26-.204.586-.306.978-.306.408 0 .746.106 1.014.318.268.212.446.498.534.858.032.152.056.408.072.768 0 .032-.016.048-.048.048zm4.316 3.528c.392 0 .748-.062 1.068-.186.32-.124.58-.306.78-.546.016-.016.03-.02.042-.012.012.008.018.02.018.036v.492c0 .08.04.12.12.12h.612c.08 0 .12-.04.12-.12V4.344c0-.608-.196-1.096-.588-1.464-.392-.368-.948-.552-1.668-.552-.624 0-1.144.14-1.56.42-.416.28-.656.644-.72 1.092-.016.048.02.08.108.096l.648.084c.072.008.12-.028.144-.108.056-.264.204-.47.444-.618.24-.148.552-.222.936-.222.48 0 .834.118 1.062.354.228.236.342.558.342.966v.456c0 .032-.016.048-.048.048H15.82c-.776 0-1.382.174-1.818.522-.436.348-.654.822-.654 1.422 0 .592.192 1.032.576 1.32.384.288.86.432 1.428.432zm.168-.732c-.392 0-.71-.09-.954-.27-.244-.18-.366-.446-.366-.798 0-.384.16-.684.48-.9.32-.216.744-.324 1.272-.324h1.26c.032 0 .048.016.048.048v.936c0 .4-.172.718-.516.954-.344.236-.752.354-1.224.354zm5.3.636c.08 0 .12-.04.12-.12v-3.54c0-.448.136-.818.408-1.11.272-.292.616-.446 1.032-.462l.156-.012c.176 0 .332.028.468.084.08.032.132.008.156-.072l.132-.588c.016-.072-.008-.124-.072-.156-.192-.104-.42-.156-.684-.156-.344 0-.646.082-.906.246-.26.164-.474.394-.642.69-.008.016-.018.022-.03.018s-.018-.018-.018-.042v-.732c0-.08-.04-.12-.12-.12h-.612c-.08 0-.12.04-.12.12v5.832c0 .08.04.12.12.12h.612zm9.196.132c.632 0 1.186-.126 1.662-.378s.846-.61 1.11-1.074c.264-.464.396-.996.396-1.596V3.012c0-.592-.132-1.116-.396-1.572-.264-.456-.634-.81-1.11-1.062C31.202.126 30.648 0 30.016 0c-.624 0-1.174.126-1.65.378s-.846.606-1.11 1.062c-.264.456-.396.98-.396 1.572V5.58c0 .6.132 1.13.396 1.59.264.46.634.818 1.11 1.074.476.256 1.026.384 1.65.384zm0-1.452c-.44 0-.794-.14-1.062-.42-.268-.28-.402-.652-.402-1.116V3c0-.464.134-.838.402-1.122.268-.284.622-.426 1.062-.426.448 0 .806.142 1.074.426.268.284.402.658.402 1.122v2.64c0 .464-.136.836-.408 1.116-.272.28-.628.42-1.068.42zm6.104 1.32c.04 0 .074-.014.102-.042.028-.028.042-.062.042-.102V5.076c0-.312.1-.562.3-.75.2-.188.444-.294.732-.318.112-.016.2-.024.264-.024.16 0 .3.02.42.06.104.04.16.012.168-.084l.252-1.368c.016-.088-.008-.148-.072-.18-.168-.112-.396-.168-.684-.168-.552 0-.992.24-1.32.72-.008.016-.02.02-.036.012-.016-.008-.024-.024-.024-.048v-.456c0-.04-.014-.074-.042-.102-.028-.028-.062-.042-.102-.042h-1.404c-.04 0-.074.014-.102.042-.028.028-.042.062-.042.102v5.88c0 .04.014.074.042.102.028.028.062.042.102.042h1.404zm5.468.096c.584 0 1.044-.22 1.38-.66.016-.016.032-.022.048-.018s.024.018.024.042v.396c0 .04.014.074.042.102.028.028.062.042.102.042h1.404c.04 0 .074-.014.102-.042.028-.028.042-.062.042-.102V.24c0-.04-.014-.074-.042-.102-.028-.028-.062-.042-.102-.042h-1.404c-.04 0-.074.014-.102.042-.028.028-.042.062-.042.102v2.568c0 .024-.008.04-.024.048s-.032 0-.048-.024c-.32-.4-.768-.6-1.344-.6-.584 0-1.074.15-1.47.45-.396.3-.686.706-.87 1.218-.144.424-.216.92-.216 1.488 0 .552.068 1.036.204 1.452.176.544.466.972.87 1.284.404.312.886.468 1.446.468zm.36-1.452c-.392 0-.688-.172-.888-.516-.168-.32-.252-.72-.252-1.2 0-.536.1-.96.3-1.272.192-.312.476-.468.852-.468.352 0 .62.156.804.468.176.304.264.724.264 1.26 0 .512-.08.916-.24 1.212-.2.344-.48.516-.84.516zm7.148 1.452c.496 0 .952-.09 1.368-.27.416-.18.756-.434 1.02-.762.032-.048.048-.08.048-.096 0-.032-.02-.068-.06-.108l-.864-.852c-.032-.032-.06-.048-.084-.048-.04 0-.076.024-.108.072-.296.408-.7.616-1.212.624-.64 0-1.064-.224-1.272-.672-.064-.16-.108-.32-.132-.48-.016-.04 0-.06.048-.06h3.708c.096 0 .148-.048.156-.144.016-.376 0-.716-.048-1.02-.104-.776-.398-1.396-.882-1.86-.484-.464-1.126-.696-1.926-.696-.632 0-1.178.168-1.638.504-.46.336-.782.788-.966 1.356-.12.336-.18.724-.18 1.164 0 .648.084 1.172.252 1.572.208.56.55.996 1.026 1.308.476.312 1.058.468 1.746.468zm.828-3.756h-2.076c-.04 0-.06-.02-.06-.06.024-.152.052-.28.084-.384.16-.472.492-.708.996-.708.264 0 .486.066.666.198.18.132.306.318.378.558 0-.008.02.104.06.336.016.04 0 .06-.048.06zm4.58 3.66c.04 0 .074-.014.102-.042.028-.028.042-.062.042-.102V5.076c0-.312.1-.562.3-.75.2-.188.444-.294.732-.318.112-.016.2-.024.264-.024.16 0 .3.02.42.06.104.04.16.012.168-.084l.252-1.368c.016-.088-.008-.148-.072-.18-.168-.112-.396-.168-.684-.168-.552 0-.992.24-1.32.72-.008.016-.02.02-.036.012-.016-.008-.024-.024-.024-.048v-.456c0-.04-.014-.074-.042-.102-.028-.028-.062-.042-.102-.042H53.1c-.04 0-.074.014-.102.042-.028.028-.042.062-.042.102v5.88c0 .04.014.074.042.102.028.028.062.042.102.042h1.404zm6.5 0c.6 0 1.126-.106 1.578-.318.452-.212.802-.51 1.05-.894s.372-.828.372-1.332V2.64c0-.504-.124-.948-.372-1.332-.248-.384-.598-.682-1.05-.894-.452-.212-.978-.318-1.578-.318h-3c-.04 0-.074.014-.102.042-.028.028-.042.062-.042.102v8.112c0 .04.014.074.042.102.028.028.062.042.102.042h3zm.06-1.452h-1.452c-.04 0-.06-.02-.06-.06V1.608c0-.04.02-.06.06-.06h1.44c.384 0 .69.124.918.372.228.248.342.58.342.996v2.76c-.008.416-.126.748-.354.996-.228.248-.526.372-.894.372zm6.032 1.548c.744 0 1.284-.22 1.62-.66.016-.024.032-.032.048-.024s.024.024.024.048v.396c0 .04.014.074.042.102.028.028.062.042.102.042h1.404c.04 0 .074-.014.102-.042.028-.028.042-.062.042-.102V4.284c0-.384-.114-.732-.342-1.044-.228-.312-.546-.558-.954-.738-.408-.18-.872-.27-1.392-.27-.48 0-.914.076-1.302.228-.388.152-.7.364-.936.636-.236.272-.37.576-.402.912-.008.056.036.092.132.108l1.452.192c.08.008.132-.032.156-.12.048-.16.154-.284.318-.372.164-.088.37-.132.618-.132.32 0 .56.074.72.222.16.148.24.354.24.618v.264c0 .04-.02.06-.06.06h-1.224c-.8 0-1.416.17-1.848.51-.432.34-.648.818-.648 1.434 0 .592.192 1.04.576 1.344.384.304.888.456 1.512.456zm.456-1.26c-.256 0-.46-.062-.612-.186-.152-.124-.228-.294-.228-.51 0-.248.102-.44.306-.576.204-.136.486-.204.846-.204h.864c.04 0 .06.02.06.06v.432c0 .288-.12.524-.36.708-.24.184-.532.276-.876.276zm6.728 1.2c.144 0 .384-.008.72-.024.096-.016.144-.068.144-.156v-1.14c0-.04-.014-.074-.042-.102-.028-.028-.062-.042-.102-.042h-.396c-.24 0-.414-.064-.522-.192-.108-.128-.162-.324-.162-.588V3.744c0-.04.02-.06.06-.06h1.152c.04 0 .074-.014.102-.042.028-.028.042-.062.042-.102V2.472c0-.04-.014-.074-.042-.102-.028-.028-.062-.042-.102-.042H73.98c-.04 0-.06-.02-.06-.06V.84c0-.04-.014-.074-.042-.102-.028-.028-.062-.042-.102-.042h-1.344c-.04 0-.074.014-.102.042-.028.028-.042.062-.042.102v1.428c0 .04-.02.06-.06.06h-.684c-.04 0-.074.014-.102.042-.028.028-.042.062-.042.102V3.54c0 .04.014.074.042.102.028.028.062.042.102.042h.684c.04 0 .06.02.06.06V6.96c.008.608.176 1.022.504 1.242.328.22.824.33 1.488.33zm5.024.06c.496 0 .952-.09 1.368-.27.416-.18.756-.434 1.02-.762.032-.048.048-.08.048-.096 0-.032-.02-.068-.06-.108l-.864-.852c-.032-.032-.06-.048-.084-.048-.04 0-.076.024-.108.072-.296.408-.7.616-1.212.624-.64 0-1.064-.224-1.272-.672-.064-.16-.108-.32-.132-.48-.016-.04 0-.06.048-.06h3.708c.096 0 .148-.048.156-.144.016-.376 0-.716-.048-1.02-.104-.776-.398-1.396-.882-1.86-.484-.464-1.126-.696-1.926-.696-.632 0-1.178.168-1.638.504-.46.336-.782.788-.966 1.356-.12.336-.18.724-.18 1.164 0 .648.084 1.172.252 1.572.208.56.55.996 1.026 1.308.476.312 1.058.468 1.746.468zm.828-3.756h-2.076c-.04 0-.06-.02-.06-.06.024-.152.052-.28.084-.384.16-.472.492-.708.996-.708.264 0 .486.066.666.198.18.132.306.318.378.558 0-.008.02.104.06.336.016.04 0 .06-.048.06zM23.716 9.396v-.6H0v.6h23.716zm2.58-.6v.6h55.158v-.6H26.296z" transform="translate(-776.000000, -432.000000) translate(75.000000, 145.000000) translate(671.000000, 60.000000) translate(30.000000, 227.240000) translate(210.758395, 0.000000) translate(216.941605, 18.460000) translate(10.300000, 10.804000)"/>
                                </g>
                            </g>
                            <g>
                                <path fill-opacity=".4" d="M113.207.337l-.29.525C112.608.69 112.26.6 111.9.6V0c.463 0 .91.117 1.307.337zm1.393 3.49h-.6l-.001-1.197.6-.02.001 1.216zm0 3.6h-.6v-1.2h.6v1.2zm0 3.6h-.6v-1.2h.6v1.2zm0 3.6h-.6v-1.2h.6v1.2zm0 3.6h-.6v-1.2h.6v1.2zm0 3.6h-.6v-1.2h.6v1.2zm0 3.6h-.6v-1.2h.6v1.2zm-1.193 3.514l-.335-.498c.294-.198.535-.47.697-.785l.534.274c-.209.406-.518.754-.896 1.009zm-3.76.459v-.6h1.2v.6h-1.2zm-3.6 0v-.6h1.2v.6h-1.2zm-3.6 0v-.6h1.2v.6h-1.2zm-3.6 0v-.6h1.2v.6h-1.2zm-3.6 0v-.6h1.2v.6h-1.2zm-3.6 0v-.6h1.2v.6h-1.2zm-3.6 0v-.6h1.2v.6h-1.2zm-3.6 0v-.6h1.2v.6h-1.2zm-3.6 0v-.6h1.2v.6h-1.2zm-3.6 0v-.6h1.2v.6h-1.2zm-3.6 0v-.6h1.2v.6h-1.2zm-3.6 0v-.6h1.2v.6h-1.2zm-3.6 0v-.6h1.2v.6h-1.2zm-3.6 0v-.6h1.2v.6h-1.2zm-3.6 0v-.6h1.2v.6h-1.2zm-3.6 0v-.6h1.2v.6h-1.2zm-3.6 0v-.6h1.2v.6h-1.2zm-3.6 0v-.6h1.2v.6h-1.2zm-3.6 0v-.6h1.2v.6h-1.2zm-3.6 0v-.6h1.2v.6h-1.2zm-3.6 0v-.6h1.2v.6h-1.2zm-3.6 0v-.6h1.2v.6h-1.2zm-3.6 0v-.6h1.2v.6h-1.2zm-3.6 0v-.6h1.2v.6h-1.2zm-3.6 0v-.6h1.2v.6h-1.2zm-3.6 0v-.6h1.2v.6h-1.2zm-3.6 0v-.6h1.2v.6h-1.2zm-3.6 0v-.6h1.2v.6h-1.2zm-3.6 0v-.6h1.2v.6h-1.2zm-3.6 0v-.6h1.2v.6h-1.2zm-3.703-.26l.257-.541c.279.132.584.201.899.201h.148v.6H2.7c-.405 0-.797-.09-1.156-.26zM0 25.722h.6v.994c0 .065.004.13.01.194l-.597.058c-.008-.082-.012-.165-.013-.25v-.996zm0-3.6h.6v1.2H0v-1.2zm0-3.6h.6v1.2H0v-1.2zm0-3.6h.6v1.2H0v-1.2zm0-3.6h.6v1.2H0v-1.2zm0-3.6h.6v1.2H0v-1.2zm0-3.6h.6v1.2H0v-1.2zM1.055.56l.366.475c-.282.217-.505.502-.647.828l-.55-.24c.183-.419.47-.785.831-1.063zM4.805 0v.6h-1.2V0h1.2zm3.6 0v.6h-1.2V0h1.2zm3.6 0v.6h-1.2V0h1.2zm3.6 0v.6h-1.2V0h1.2zm3.6 0v.6h-1.2V0h1.2zm3.6 0v.6h-1.2V0h1.2zm3.6 0v.6h-1.2V0h1.2zm3.6 0v.6h-1.2V0h1.2zm3.6 0v.6h-1.2V0h1.2zm3.6 0v.6h-1.2V0h1.2zm3.6 0v.6h-1.2V0h1.2zm3.6 0v.6h-1.2V0h1.2zm3.6 0v.6h-1.2V0h1.2zm3.6 0v.6h-1.2V0h1.2zm3.6 0v.6h-1.2V0h1.2zm3.6 0v.6h-1.2V0h1.2zm3.6 0v.6h-1.2V0h1.2zm3.6 0v.6h-1.2V0h1.2zm3.6 0v.6h-1.2V0h1.2zm3.6 0v.6h-1.2V0h1.2zm3.6 0v.6h-1.2V0h1.2zm3.6 0v.6h-1.2V0h1.2zm3.6 0v.6h-1.2V0h1.2zm3.6 0v.6h-1.2V0h1.2zm3.6 0v.6h-1.2V0h1.2zm3.6 0v.6h-1.2V0h1.2zm3.6 0v.6h-1.2V0h1.2zm3.6 0v.6h-1.2V0h1.2zm3.6 0v.6h-1.2V0h1.2zm3.6 0v.6h-1.2V0h1.2zm2.695 0v.6h-.295V0h.295z" transform="translate(-776.000000, -432.000000) translate(75.000000, 145.000000) translate(671.000000, 60.000000) translate(30.000000, 227.240000) translate(210.758395, 0.000000) translate(216.941605, 94.460000)"/>
                                <g>
                                    <path d="M3.552 8.592c.88 0 1.568-.2 2.064-.6.496-.4.744-.936.744-1.608 0-.432-.11-.798-.33-1.098-.22-.3-.508-.554-.864-.762-.356-.208-.826-.432-1.41-.672-.576-.224-1.002-.406-1.278-.546s-.488-.304-.636-.492c-.148-.188-.222-.426-.222-.714 0-.44.152-.776.456-1.008.304-.232.74-.348 1.308-.348.648 0 1.154.148 1.518.444.364.296.546.676.546 1.14v.216c0 .08.04.12.12.12h.6c.08 0 .12-.04.12-.12V2.28c0-.688-.256-1.24-.768-1.656C5.008.208 4.308 0 3.42 0c-.816 0-1.458.186-1.926.558-.468.372-.702.894-.702 1.566 0 .432.102.79.306 1.074.204.284.472.516.804.696.332.18.798.39 1.398.63.56.232.994.436 1.302.612.308.176.536.364.684.564.148.2.222.44.222.72 0 .432-.16.778-.48 1.038-.32.26-.788.39-1.404.39-.68 0-1.212-.142-1.596-.426-.384-.284-.576-.658-.576-1.122v-.324c0-.08-.04-.12-.12-.12H.744c-.08 0-.12.04-.12.12v.372c0 .68.262 1.224.786 1.632.524.408 1.238.612 2.142.612zm6.632-.012c.728 0 1.26-.248 1.596-.744.008-.016.02-.02.036-.012.016.008.024.02.024.036v.516c0 .08.04.12.12.12h.612c.08 0 .12-.04.12-.12V2.544c0-.08-.04-.12-.12-.12h-.612c-.08 0-.12.04-.12.12v3.804c0 .448-.134.808-.402 1.08s-.63.408-1.086.408c-.44 0-.788-.134-1.044-.402s-.384-.63-.384-1.086V2.544c0-.08-.04-.12-.12-.12h-.612c-.08 0-.12.04-.12.12V6.6c0 .416.094.772.282 1.068.188.296.444.522.768.678.324.156.678.234 1.062.234zm5.348-.084c.08 0 .12-.04.12-.12V4.5c0-.432.126-.776.378-1.032s.59-.384 1.014-.384c.416 0 .748.13.996.39s.372.61.372 1.05v3.852c0 .08.04.12.12.12h.612c.08 0 .12-.04.12-.12V4.5c0-.432.13-.776.39-1.032s.602-.384 1.026-.384c.408 0 .738.13.99.39s.378.61.378 1.05v3.852c0 .08.04.12.12.12h.6c.08 0 .12-.04.12-.12v-4.02c0-.624-.174-1.116-.522-1.476-.348-.36-.822-.54-1.422-.54-.408 0-.772.082-1.092.246-.32.164-.568.41-.744.738-.024.04-.044.04-.06 0-.152-.32-.376-.564-.672-.732-.296-.168-.652-.252-1.068-.252-.336 0-.642.058-.918.174-.276.116-.502.29-.678.522-.016.016-.03.022-.042.018-.012-.004-.018-.014-.018-.03v-.48c0-.08-.04-.12-.12-.12h-.612c-.08 0-.12.04-.12.12v5.832c0 .08.04.12.12.12h.612zm13.312 0c.04 0 .074-.014.102-.042.028-.028.042-.062.042-.102V5.076c0-.04.02-.06.06-.06h1.116c.032 0 .056.016.072.048l1.5 3.324c.032.072.088.108.168.108h1.476c.088 0 .132-.032.132-.096 0-.016-.008-.04-.024-.072l-1.632-3.396c-.016-.04-.004-.068.036-.084.488-.16.868-.434 1.14-.822.272-.388.408-.854.408-1.398 0-.504-.106-.948-.318-1.332-.212-.384-.512-.68-.9-.888-.388-.208-.838-.312-1.35-.312H27.44c-.04 0-.074.014-.102.042-.028.028-.042.062-.042.102v8.112c0 .04.014.074.042.102.028.028.062.042.102.042h1.404zM30.62 3.72h-1.572c-.04 0-.06-.02-.06-.06V1.608c0-.04.02-.06.06-.06h1.572c.336 0 .61.102.822.306.212.204.318.466.318.786s-.106.58-.318.78c-.212.2-.486.3-.822.3zm6.944 4.872c.496 0 .952-.09 1.368-.27.416-.18.756-.434 1.02-.762.032-.048.048-.08.048-.096 0-.032-.02-.068-.06-.108l-.864-.852c-.032-.032-.06-.048-.084-.048-.04 0-.076.024-.108.072-.296.408-.7.616-1.212.624-.64 0-1.064-.224-1.272-.672-.064-.16-.108-.32-.132-.48-.016-.04 0-.06.048-.06h3.708c.096 0 .148-.048.156-.144.016-.376 0-.716-.048-1.02-.104-.776-.398-1.396-.882-1.86-.484-.464-1.126-.696-1.926-.696-.632 0-1.178.168-1.638.504-.46.336-.782.788-.966 1.356-.12.336-.18.724-.18 1.164 0 .648.084 1.172.252 1.572.208.56.55.996 1.026 1.308.476.312 1.058.468 1.746.468zm.828-3.756h-2.076c-.04 0-.06-.02-.06-.06.024-.152.052-.28.084-.384.16-.472.492-.708.996-.708.264 0 .486.066.666.198.18.132.306.318.378.558 0-.008.02.104.06.336.016.04 0 .06-.048.06zm5.984 3.66c.08 0 .132-.04.156-.12l1.908-5.868c.016-.056.012-.098-.012-.126-.024-.028-.06-.042-.108-.042l-1.548-.024c-.088 0-.144.04-.168.12l-.984 3.636c-.008.024-.02.036-.036.036-.016 0-.028-.012-.036-.036l-.984-3.636c-.024-.08-.08-.12-.168-.12h-1.548c-.088 0-.132.036-.132.108 0 .024.004.044.012.06l1.92 5.892c.024.08.076.12.156.12h1.572zm5.648.096c.496 0 .952-.09 1.368-.27.416-.18.756-.434 1.02-.762.032-.048.048-.08.048-.096 0-.032-.02-.068-.06-.108l-.864-.852c-.032-.032-.06-.048-.084-.048-.04 0-.076.024-.108.072-.296.408-.7.616-1.212.624-.64 0-1.064-.224-1.272-.672-.064-.16-.108-.32-.132-.48-.016-.04 0-.06.048-.06h3.708c.096 0 .148-.048.156-.144.016-.376 0-.716-.048-1.02-.104-.776-.398-1.396-.882-1.86-.484-.464-1.126-.696-1.926-.696-.632 0-1.178.168-1.638.504-.46.336-.782.788-.966 1.356-.12.336-.18.724-.18 1.164 0 .648.084 1.172.252 1.572.208.56.55.996 1.026 1.308.476.312 1.058.468 1.746.468zm.828-3.756h-2.076c-.04 0-.06-.02-.06-.06.024-.152.052-.28.084-.384.16-.472.492-.708.996-.708.264 0 .486.066.666.198.18.132.306.318.378.558 0-.008.02.104.06.336.016.04 0 .06-.048.06zm4.58 3.66c.04 0 .074-.014.102-.042.028-.028.042-.062.042-.102V4.764c0-.32.09-.58.27-.78.18-.2.418-.3.714-.3s.534.1.714.3c.18.2.27.46.27.78v3.588c0 .04.014.074.042.102.028.028.062.042.102.042h1.404c.04 0 .074-.014.102-.042.028-.028.042-.062.042-.102V4.416c0-.672-.196-1.204-.588-1.596-.392-.392-.908-.588-1.548-.588-.648 0-1.136.232-1.464.696-.008.016-.02.02-.036.012-.016-.008-.024-.024-.024-.048v-.42c0-.04-.014-.074-.042-.102-.028-.028-.062-.042-.102-.042h-1.404c-.04 0-.074.014-.102.042-.028.028-.042.062-.042.102v5.88c0 .04.014.074.042.102.028.028.062.042.102.042h1.404zm7.256.084c.672 0 1.168-.216 1.488-.648.016-.024.032-.034.048-.03.016.004.024.018.024.042v.408c0 .04.014.074.042.102.028.028.062.042.102.042h1.404c.04 0 .074-.014.102-.042.028-.028.042-.062.042-.102v-5.88c0-.04-.014-.074-.042-.102-.028-.028-.062-.042-.102-.042h-1.404c-.04 0-.074.014-.102.042-.028.028-.042.062-.042.102v3.78c-.04.264-.148.478-.324.642-.176.164-.4.246-.672.246-.304 0-.542-.1-.714-.3-.172-.2-.258-.46-.258-.78V2.472c0-.04-.014-.074-.042-.102-.028-.028-.062-.042-.102-.042h-1.392c-.04 0-.074.014-.102.042-.028.028-.042.062-.042.102V6.48c0 .664.196 1.18.588 1.548.392.368.892.552 1.5.552zm7.592.012c.496 0 .952-.09 1.368-.27.416-.18.756-.434 1.02-.762.032-.048.048-.08.048-.096 0-.032-.02-.068-.06-.108l-.864-.852c-.032-.032-.06-.048-.084-.048-.04 0-.076.024-.108.072-.296.408-.7.616-1.212.624-.64 0-1.064-.224-1.272-.672-.064-.16-.108-.32-.132-.48-.016-.04 0-.06.048-.06h3.708c.096 0 .148-.048.156-.144.016-.376 0-.716-.048-1.02-.104-.776-.398-1.396-.882-1.86-.484-.464-1.126-.696-1.926-.696-.632 0-1.178.168-1.638.504-.46.336-.782.788-.966 1.356-.12.336-.18.724-.18 1.164 0 .648.084 1.172.252 1.572.208.56.55.996 1.026 1.308.476.312 1.058.468 1.746.468zm.828-3.756h-2.076c-.04 0-.06-.02-.06-.06.024-.152.052-.28.084-.384.16-.472.492-.708.996-.708.264 0 .486.066.666.198.18.132.306.318.378.558 0-.008.02.104.06.336.016.04 0 .06-.048.06zM23.984 9.396v-.6H0v.6h23.984zm2.58-.6v.6H72.43v-.6H26.564z" transform="translate(-776.000000, -432.000000) translate(75.000000, 145.000000) translate(671.000000, 60.000000) translate(30.000000, 227.240000) translate(210.758395, 0.000000) translate(216.941605, 94.460000) translate(10.300000, 10.804000)"/>
                                </g>
                            </g>
                            <g>
                                <path fill-opacity=".4" d="M113.207.337l-.29.525C112.608.69 112.26.6 111.9.6V0c.463 0 .91.117 1.307.337zm1.393 3.49h-.6l-.001-1.197.6-.02.001 1.216zm0 3.6h-.6v-1.2h.6v1.2zm0 3.6h-.6v-1.2h.6v1.2zm0 3.6h-.6v-1.2h.6v1.2zm0 3.6h-.6v-1.2h.6v1.2zm0 3.6h-.6v-1.2h.6v1.2zm0 3.6h-.6v-1.2h.6v1.2zm-1.193 3.514l-.335-.498c.294-.198.535-.47.697-.785l.534.274c-.209.406-.518.754-.896 1.009zm-3.76.459v-.6h1.2v.6h-1.2zm-3.6 0v-.6h1.2v.6h-1.2zm-3.6 0v-.6h1.2v.6h-1.2zm-3.6 0v-.6h1.2v.6h-1.2zm-3.6 0v-.6h1.2v.6h-1.2zm-3.6 0v-.6h1.2v.6h-1.2zm-3.6 0v-.6h1.2v.6h-1.2zm-3.6 0v-.6h1.2v.6h-1.2zm-3.6 0v-.6h1.2v.6h-1.2zm-3.6 0v-.6h1.2v.6h-1.2zm-3.6 0v-.6h1.2v.6h-1.2zm-3.6 0v-.6h1.2v.6h-1.2zm-3.6 0v-.6h1.2v.6h-1.2zm-3.6 0v-.6h1.2v.6h-1.2zm-3.6 0v-.6h1.2v.6h-1.2zm-3.6 0v-.6h1.2v.6h-1.2zm-3.6 0v-.6h1.2v.6h-1.2zm-3.6 0v-.6h1.2v.6h-1.2zm-3.6 0v-.6h1.2v.6h-1.2zm-3.6 0v-.6h1.2v.6h-1.2zm-3.6 0v-.6h1.2v.6h-1.2zm-3.6 0v-.6h1.2v.6h-1.2zm-3.6 0v-.6h1.2v.6h-1.2zm-3.6 0v-.6h1.2v.6h-1.2zm-3.6 0v-.6h1.2v.6h-1.2zm-3.6 0v-.6h1.2v.6h-1.2zm-3.6 0v-.6h1.2v.6h-1.2zm-3.6 0v-.6h1.2v.6h-1.2zm-3.6 0v-.6h1.2v.6h-1.2zm-3.6 0v-.6h1.2v.6h-1.2zm-3.703-.26l.257-.541c.279.132.584.201.899.201h.148v.6H2.7c-.405 0-.797-.09-1.156-.26zM0 25.722h.6v.994c0 .065.004.13.01.194l-.597.058c-.008-.082-.012-.165-.013-.25v-.996zm0-3.6h.6v1.2H0v-1.2zm0-3.6h.6v1.2H0v-1.2zm0-3.6h.6v1.2H0v-1.2zm0-3.6h.6v1.2H0v-1.2zm0-3.6h.6v1.2H0v-1.2zm0-3.6h.6v1.2H0v-1.2zM1.055.56l.366.475c-.282.217-.505.502-.647.828l-.55-.24c.183-.419.47-.785.831-1.063zM4.805 0v.6h-1.2V0h1.2zm3.6 0v.6h-1.2V0h1.2zm3.6 0v.6h-1.2V0h1.2zm3.6 0v.6h-1.2V0h1.2zm3.6 0v.6h-1.2V0h1.2zm3.6 0v.6h-1.2V0h1.2zm3.6 0v.6h-1.2V0h1.2zm3.6 0v.6h-1.2V0h1.2zm3.6 0v.6h-1.2V0h1.2zm3.6 0v.6h-1.2V0h1.2zm3.6 0v.6h-1.2V0h1.2zm3.6 0v.6h-1.2V0h1.2zm3.6 0v.6h-1.2V0h1.2zm3.6 0v.6h-1.2V0h1.2zm3.6 0v.6h-1.2V0h1.2zm3.6 0v.6h-1.2V0h1.2zm3.6 0v.6h-1.2V0h1.2zm3.6 0v.6h-1.2V0h1.2zm3.6 0v.6h-1.2V0h1.2zm3.6 0v.6h-1.2V0h1.2zm3.6 0v.6h-1.2V0h1.2zm3.6 0v.6h-1.2V0h1.2zm3.6 0v.6h-1.2V0h1.2zm3.6 0v.6h-1.2V0h1.2zm3.6 0v.6h-1.2V0h1.2zm3.6 0v.6h-1.2V0h1.2zm3.6 0v.6h-1.2V0h1.2zm3.6 0v.6h-1.2V0h1.2zm3.6 0v.6h-1.2V0h1.2zm3.6 0v.6h-1.2V0h1.2zm2.695 0v.6h-.295V0h.295z" transform="translate(-776.000000, -432.000000) translate(75.000000, 145.000000) translate(671.000000, 60.000000) translate(30.000000, 227.240000) translate(210.758395, 0.000000) translate(216.941605, 170.460000)"/>
                                <g>
                                    <path d="M3.684 8.592c.856 0 1.538-.24 2.046-.72.508-.48.762-1.148.762-2.004V4.32c0-.08-.04-.12-.12-.12H3.828c-.08 0-.12.04-.12.12v.504c0 .08.04.12.12.12h1.764c.032 0 .048.016.048.048v1.092c0 .536-.174.964-.522 1.284-.348.32-.814.48-1.398.48-.6 0-1.084-.172-1.452-.516-.368-.344-.552-.796-.552-1.356v-3.36c0-.56.18-1.012.54-1.356.36-.344.836-.516 1.428-.516s1.066.168 1.422.504c.356.336.534.772.534 1.308V2.7c0 .08.04.12.12.12h.612c.08 0 .12-.04.12-.12v-.156c0-.488-.116-.926-.348-1.314-.232-.388-.562-.69-.99-.906C4.726.108 4.236 0 3.684 0c-.56 0-1.052.11-1.476.33-.424.22-.754.53-.99.93s-.354.86-.354 1.38v3.312c0 .52.118.98.354 1.38.236.4.566.71.99.93.424.22.916.33 1.476.33zm5.564-.096c.08 0 .12-.04.12-.12v-3.54c0-.448.136-.818.408-1.11.272-.292.616-.446 1.032-.462l.156-.012c.176 0 .332.028.468.084.08.032.132.008.156-.072l.132-.588c.016-.072-.008-.124-.072-.156-.192-.104-.42-.156-.684-.156-.344 0-.646.082-.906.246-.26.164-.474.394-.642.69-.008.016-.018.022-.03.018s-.018-.018-.018-.042v-.732c0-.08-.04-.12-.12-.12h-.612c-.08 0-.12.04-.12.12v5.832c0 .08.04.12.12.12h.612zm6.092.096c.576 0 1.07-.148 1.482-.444.412-.296.694-.704.846-1.224.112-.336.168-.828.168-1.476 0-.64-.056-1.132-.168-1.476-.152-.504-.434-.904-.846-1.2-.412-.296-.902-.444-1.47-.444-.592 0-1.096.148-1.512.444-.416.296-.7.7-.852 1.212-.112.36-.168.848-.168 1.464s.056 1.108.168 1.476c.16.52.448.928.864 1.224.416.296.912.444 1.488.444zm0-.744c-.4 0-.738-.106-1.014-.318-.276-.212-.458-.498-.546-.858-.064-.28-.096-.684-.096-1.212 0-.528.032-.932.096-1.212.096-.36.28-.646.552-.858.272-.212.604-.318.996-.318s.726.106 1.002.318c.276.212.462.498.558.858.064.28.096.684.096 1.212 0 .52-.036.924-.108 1.212-.096.36-.28.646-.552.858-.272.212-.6.318-.984.318zm6.44.732c.728 0 1.26-.248 1.596-.744.008-.016.02-.02.036-.012.016.008.024.02.024.036v.516c0 .08.04.12.12.12h.612c.08 0 .12-.04.12-.12V2.544c0-.08-.04-.12-.12-.12h-.612c-.08 0-.12.04-.12.12v3.804c0 .448-.134.808-.402 1.08s-.63.408-1.086.408c-.44 0-.788-.134-1.044-.402s-.384-.63-.384-1.086V2.544c0-.08-.04-.12-.12-.12h-.612c-.08 0-.12.04-.12.12V6.6c0 .416.094.772.282 1.068.188.296.444.522.768.678.324.156.678.234 1.062.234zm5.432 2.244c.08 0 .12-.04.12-.12v-2.82c0-.016.006-.026.018-.03.012-.004.026.002.042.018.176.232.396.41.66.534.264.124.552.186.864.186.576 0 1.054-.146 1.434-.438.38-.292.642-.694.786-1.206.104-.352.156-.848.156-1.488 0-.632-.06-1.14-.18-1.524-.144-.496-.406-.888-.786-1.176-.38-.288-.85-.432-1.41-.432-.32 0-.61.064-.87.192s-.478.308-.654.54c-.016.016-.03.022-.042.018-.012-.004-.018-.014-.018-.03v-.504c0-.08-.04-.12-.12-.12H26.6c-.08 0-.12.04-.12.12v8.16c0 .08.04.12.12.12h.612zm1.608-2.976c-.304 0-.566-.082-.786-.246-.22-.164-.378-.382-.474-.654-.08-.168-.136-.362-.168-.582-.032-.22-.048-.522-.048-.906s.016-.684.048-.9c.032-.216.084-.404.156-.564.104-.28.264-.504.48-.672.216-.168.484-.252.804-.252.336 0 .626.084.87.252.244.168.414.396.51.684.08.168.136.358.168.57.032.212.048.506.048.882 0 .392-.022.698-.066.918-.044.22-.11.418-.198.594-.104.264-.274.476-.51.636-.236.16-.514.24-.834.24zm10.192.648c.752 0 1.358-.2 1.818-.6.46-.4.69-.96.69-1.68 0-.488-.112-.904-.336-1.248-.224-.344-.552-.604-.984-.78-.04-.024-.04-.048 0-.072.392-.16.694-.394.906-.702.212-.308.318-.682.318-1.122 0-.696-.222-1.236-.666-1.62-.444-.384-1.054-.576-1.83-.576h-2.82c-.08 0-.12.04-.12.12v8.16c0 .08.04.12.12.12h2.904zm-.084-4.68h-2.04c-.032 0-.048-.016-.048-.048V.888c0-.032.016-.048.048-.048h2.04c.504 0 .906.138 1.206.414.3.276.45.646.45 1.11 0 .44-.15.792-.45 1.056-.3.264-.702.396-1.206.396zm.084 3.924h-2.124c-.032 0-.048-.016-.048-.048V4.584c0-.032.016-.048.048-.048h2.076c.52 0 .934.146 1.242.438.308.292.462.682.462 1.17 0 .488-.15.876-.45 1.164-.3.288-.702.432-1.206.432zm4.256 3.156c.456 0 .81-.05 1.062-.15.252-.1.462-.278.63-.534.168-.256.348-.652.54-1.188l2.22-6.468c.024-.088-.008-.132-.096-.132H47c-.072 0-.12.032-.144.096L45.32 7.368c-.008.016-.02.024-.036.024-.016 0-.028-.008-.036-.024l-1.56-4.848c-.024-.064-.072-.096-.144-.096h-.636c-.072 0-.108.028-.108.084l.012.048L44.84 8.46c.016.016.016.04 0 .072-.144.464-.278.81-.402 1.038-.124.228-.272.384-.444.468-.172.084-.414.13-.726.138h-.048c-.08 0-.12.04-.12.12v.48c0 .08.028.12.084.12h.084zm11.248-2.304c.616 0 1.158-.116 1.626-.348.468-.232.832-.56 1.092-.984.26-.424.39-.912.39-1.464 0-.032-.014-.06-.042-.084-.028-.024-.062-.036-.102-.036l-1.404-.06c-.096 0-.144.044-.144.132 0 .416-.13.752-.39 1.008s-.602.384-1.026.384c-.432 0-.778-.128-1.038-.384s-.39-.592-.39-1.008V2.856c0-.424.13-.764.39-1.02s.606-.384 1.038-.384c.424 0 .766.128 1.026.384s.39.596.39 1.02c0 .088.04.132.12.132h.024l1.404-.084c.096-.016.144-.06.144-.132 0-.552-.13-1.038-.39-1.458-.26-.42-.624-.744-1.092-.972C55.674.114 55.132 0 54.516 0c-.624 0-1.172.12-1.644.36s-.836.58-1.092 1.02c-.256.44-.384.948-.384 1.524v2.772c0 .576.128 1.084.384 1.524.256.44.62.782 1.092 1.026.472.244 1.02.366 1.644.366zm7.148 0c.672 0 1.246-.178 1.722-.534.476-.356.802-.846.978-1.47.112-.376.168-.78.168-1.212 0-.44-.064-.86-.192-1.26-.192-.592-.52-1.054-.984-1.386-.464-.332-1.024-.498-1.68-.498-.672 0-1.248.168-1.728.504-.48.336-.812.8-.996 1.392-.112.376-.168.8-.168 1.272 0 .44.056.848.168 1.224.176.608.504 1.088.984 1.44.48.352 1.056.528 1.728.528zm0-1.452c-.272 0-.502-.08-.69-.24-.188-.16-.322-.38-.402-.66-.056-.2-.084-.48-.084-.84 0-.376.032-.66.096-.852.08-.272.21-.484.39-.636.18-.152.406-.228.678-.228.264 0 .488.076.672.228.184.152.32.364.408.636.064.232.096.516.096.852 0 .304-.032.584-.096.84-.08.28-.212.5-.396.66-.184.16-.408.24-.672.24zm6.2 1.44c.672 0 1.168-.216 1.488-.648.016-.024.032-.034.048-.03.016.004.024.018.024.042v.408c0 .04.014.074.042.102.028.028.062.042.102.042h1.404c.04 0 .074-.014.102-.042.028-.028.042-.062.042-.102v-5.88c0-.04-.014-.074-.042-.102-.028-.028-.062-.042-.102-.042h-1.404c-.04 0-.074.014-.102.042-.028.028-.042.062-.042.102v3.78c-.04.264-.148.478-.324.642-.176.164-.4.246-.672.246-.304 0-.542-.1-.714-.3-.172-.2-.258-.46-.258-.78V2.472c0-.04-.014-.074-.042-.102-.028-.028-.062-.042-.102-.042H65.92c-.04 0-.074.014-.102.042-.028.028-.042.062-.042.102V6.48c0 .664.196 1.18.588 1.548.392.368.892.552 1.5.552zm6.248-.084c.04 0 .074-.014.102-.042.028-.028.042-.062.042-.102V4.764c0-.32.09-.58.27-.78.18-.2.418-.3.714-.3s.534.1.714.3c.18.2.27.46.27.78v3.588c0 .04.014.074.042.102.028.028.062.042.102.042h1.404c.04 0 .074-.014.102-.042.028-.028.042-.062.042-.102V4.416c0-.672-.196-1.204-.588-1.596-.392-.392-.908-.588-1.548-.588-.648 0-1.136.232-1.464.696-.008.016-.02.02-.036.012-.016-.008-.024-.024-.024-.048v-.42c0-.04-.014-.074-.042-.102-.028-.028-.062-.042-.102-.042h-1.404c-.04 0-.074.014-.102.042-.028.028-.042.062-.042.102v5.88c0 .04.014.074.042.102.028.028.062.042.102.042h1.404zm7.76.036c.144 0 .384-.008.72-.024.096-.016.144-.068.144-.156v-1.14c0-.04-.014-.074-.042-.102-.028-.028-.062-.042-.102-.042h-.396c-.24 0-.414-.064-.522-.192-.108-.128-.162-.324-.162-.588V3.744c0-.04.02-.06.06-.06h1.152c.04 0 .074-.014.102-.042.028-.028.042-.062.042-.102V2.472c0-.04-.014-.074-.042-.102-.028-.028-.062-.042-.102-.042h-1.152c-.04 0-.06-.02-.06-.06V.84c0-.04-.014-.074-.042-.102-.028-.028-.062-.042-.102-.042h-1.344c-.04 0-.074.014-.102.042-.028.028-.042.062-.042.102v1.428c0 .04-.02.06-.06.06h-.684c-.04 0-.074.014-.102.042-.028.028-.042.062-.042.102V3.54c0 .04.014.074.042.102.028.028.062.042.102.042h.684c.04 0 .06.02.06.06V6.96c.008.608.176 1.022.504 1.242.328.22.824.33 1.488.33zm3.764-.036c.04 0 .074-.014.102-.042.028-.028.042-.062.042-.102V5.076c0-.312.1-.562.3-.75.2-.188.444-.294.732-.318.112-.016.2-.024.264-.024.16 0 .3.02.42.06.104.04.16.012.168-.084l.252-1.368c.016-.088-.008-.148-.072-.18-.168-.112-.396-.168-.684-.168-.552 0-.992.24-1.32.72-.008.016-.02.02-.036.012-.016-.008-.024-.024-.024-.048v-.456c0-.04-.014-.074-.042-.102-.028-.028-.062-.042-.102-.042h-1.404c-.04 0-.074.014-.102.042-.028.028-.042.062-.042.102v5.88c0 .04.014.074.042.102.028.028.062.042.102.042h1.404zm3.428 2.388c.688 0 1.22-.068 1.596-.204.376-.136.668-.35.876-.642.208-.292.412-.73.612-1.314l2.076-6.24c.016-.056.014-.098-.006-.126-.02-.028-.054-.042-.102-.042h-1.464c-.088 0-.144.04-.168.12l-1.008 3.888c-.008.024-.02.036-.036.036-.016 0-.028-.012-.036-.036l-1.008-3.888c-.024-.08-.08-.12-.168-.12h-1.5c-.088 0-.132.036-.132.108 0 .024.004.044.012.06l1.968 5.976c.008.032.008.056 0 .072-.064.264-.154.464-.27.6-.116.136-.272.228-.468.276-.196.048-.462.076-.798.084-.04 0-.074.014-.102.042-.028.028-.042.062-.042.102v1.104c0 .04.008.074.024.102.016.028.036.042.06.042h.084z" transform="translate(-776.000000, -432.000000) translate(75.000000, 145.000000) translate(671.000000, 60.000000) translate(30.000000, 227.240000) translate(210.758395, 0.000000) translate(216.941605, 170.460000) translate(10.300000, 10.804000)"/>
                                    <path d="M25.88 9.396v-.6H0v.6h25.88zm18.043 0v-.6H27.932v.6h15.991zm4.329 0v-.6h-2.074v.6h2.074zm2.58-.6v.6h38.447v-.6H50.832zm43.219.6v-.6h-1.329v.6h1.329z" transform="translate(-776.000000, -432.000000) translate(75.000000, 145.000000) translate(671.000000, 60.000000) translate(30.000000, 227.240000) translate(210.758395, 0.000000) translate(216.941605, 170.460000) translate(10.300000, 10.804000)"/>
                                </g>
                            </g>
                            <path d="M224.65 160.76c.04 0 .074-.014.102-.042.028-.028.042-.062.042-.102v-1.164c0-.04-.014-.074-.042-.102-.028-.028-.062-.042-.102-.042h-3.924c-.04 0-.06-.02-.06-.06v-6.744c0-.04-.014-.074-.042-.102-.028-.028-.062-.042-.102-.042h-1.404c-.04 0-.074.014-.102.042-.028.028-.042.062-.042.102v8.112c0 .04.014.074.042.102.028.028.062.042.102.042h5.532zm4.486.096c.496 0 .952-.09 1.368-.27.416-.18.756-.434 1.02-.762.032-.048.048-.08.048-.096 0-.032-.02-.068-.06-.108l-.864-.852c-.032-.032-.06-.048-.084-.048-.04 0-.076.024-.108.072-.296.408-.7.616-1.212.624-.64 0-1.064-.224-1.272-.672-.064-.16-.108-.32-.132-.48-.016-.04 0-.06.048-.06h3.708c.096 0 .148-.048.156-.144.016-.376 0-.716-.048-1.02-.104-.776-.398-1.396-.882-1.86-.484-.464-1.126-.696-1.926-.696-.632 0-1.178.168-1.638.504-.46.336-.782.788-.966 1.356-.12.336-.18.724-.18 1.164 0 .648.084 1.172.252 1.572.208.56.55.996 1.026 1.308.476.312 1.058.468 1.746.468zm.828-3.756h-2.076c-.04 0-.06-.02-.06-.06.024-.152.052-.28.084-.384.16-.472.492-.708.996-.708.264 0 .486.066.666.198.18.132.306.318.378.558 0-.008.02.104.06.336.016.04 0 .06-.048.06zm5.566 6.024c.952 0 1.73-.224 2.334-.672.604-.448.906-1.196.906-2.244v-5.472c0-.04-.014-.074-.042-.102-.028-.028-.062-.042-.102-.042h-1.404c-.04 0-.074.014-.102.042-.028.028-.042.062-.042.102v.288c0 .024-.008.038-.024.042-.016.004-.032-.002-.048-.018-.328-.368-.8-.552-1.416-.552-.528 0-.992.148-1.392.444-.4.296-.684.688-.852 1.176-.144.392-.216.9-.216 1.524 0 .584.06 1.06.18 1.428.184.56.494.966.93 1.218.436.252.914.378 1.434.378.584 0 1.028-.164 1.332-.492.016-.016.032-.022.048-.018s.024.018.024.042c0 .496-.138.856-.414 1.08-.276.224-.67.336-1.182.336-.24 0-.504-.024-.792-.072-.112-.016-.168.028-.168.132l-.048 1.236c0 .096.04.148.12.156.344.04.656.06.936.06zm.468-3.804c-.248 0-.462-.066-.642-.198s-.306-.306-.378-.522c-.096-.192-.144-.512-.144-.96 0-.408.056-.732.168-.972.08-.216.204-.39.372-.522s.372-.198.612-.198c.248 0 .456.066.624.198.168.132.288.306.36.522.04.12.068.248.084.384s.024.328.024.576c0 .416-.032.744-.096.984-.064.208-.18.378-.348.51-.168.132-.38.198-.636.198zm7.39 1.536c.496 0 .952-.09 1.368-.27.416-.18.756-.434 1.02-.762.032-.048.048-.08.048-.096 0-.032-.02-.068-.06-.108l-.864-.852c-.032-.032-.06-.048-.084-.048-.04 0-.076.024-.108.072-.296.408-.7.616-1.212.624-.64 0-1.064-.224-1.272-.672-.064-.16-.108-.32-.132-.48-.016-.04 0-.06.048-.06h3.708c.096 0 .148-.048.156-.144.016-.376 0-.716-.048-1.02-.104-.776-.398-1.396-.882-1.86-.484-.464-1.126-.696-1.926-.696-.632 0-1.178.168-1.638.504-.46.336-.782.788-.966 1.356-.12.336-.18.724-.18 1.164 0 .648.084 1.172.252 1.572.208.56.55.996 1.026 1.308.476.312 1.058.468 1.746.468zm.828-3.756h-2.076c-.04 0-.06-.02-.06-.06.024-.152.052-.28.084-.384.16-.472.492-.708.996-.708.264 0 .486.066.666.198.18.132.306.318.378.558 0-.008.02.104.06.336.016.04 0 .06-.048.06zm4.895 3.66c.04 0 .074-.014.102-.042.028-.028.042-.062.042-.102v-3.588c0-.32.09-.58.27-.78.18-.2.418-.3.714-.3s.534.1.714.3c.18.2.27.46.27.78v3.588c0 .04.014.074.042.102.028.028.062.042.102.042h1.404c.04 0 .074-.014.102-.042.028-.028.042-.062.042-.102v-3.936c0-.672-.196-1.204-.588-1.596-.392-.392-.908-.588-1.548-.588-.648 0-1.136.232-1.464.696-.008.016-.02.02-.036.012-.016-.008-.024-.024-.024-.048v-.42c0-.04-.014-.074-.042-.102-.028-.028-.062-.042-.102-.042h-1.404c-.04 0-.074.014-.102.042-.028.028-.042.062-.042.102v5.88c0 .04.014.074.042.102.028.028.062.042.102.042h1.404zm7.87.096c.584 0 1.044-.22 1.38-.66.016-.016.032-.022.048-.018s.024.018.024.042v.396c0 .04.014.074.042.102.028.028.062.042.102.042h1.404c.04 0 .074-.014.102-.042.028-.028.042-.062.042-.102v-8.112c0-.04-.014-.074-.042-.102-.028-.028-.062-.042-.102-.042h-1.404c-.04 0-.074.014-.102.042-.028.028-.042.062-.042.102v2.568c0 .024-.008.04-.024.048s-.032 0-.048-.024c-.32-.4-.768-.6-1.344-.6-.584 0-1.074.15-1.47.45-.396.3-.686.706-.87 1.218-.144.424-.216.92-.216 1.488 0 .552.068 1.036.204 1.452.176.544.466.972.87 1.284.404.312.886.468 1.446.468zm.36-1.452c-.392 0-.688-.172-.888-.516-.168-.32-.252-.72-.252-1.2 0-.536.1-.96.3-1.272.192-.312.476-.468.852-.468.352 0 .62.156.804.468.176.304.264.724.264 1.26 0 .512-.08.916-.24 1.212-.2.344-.48.516-.84.516z" transform="translate(-776.000000, -432.000000) translate(75.000000, 145.000000) translate(671.000000, 60.000000) translate(30.000000, 227.240000) translate(210.758395, 0.000000)"/>
                            <path d="M201.957.167L207.957 3.542 208.344 3.76 207.957 3.978 201.957 7.353 201.711 6.917 206.878 4.01 46.434 4.01.483 176.824 0 176.696 46 3.696 46.049 3.51 206.881 3.51 201.711.603zM129.766 135.904L144.58 158.745 206.879 158.745 201.711 155.838 201.957 155.402 207.957 158.777 208.344 158.995 207.957 159.213 201.957 162.588 201.711 162.152 206.879 159.245 144.308 159.245 144.234 159.131 129.346 136.176z" opacity=".5" transform="translate(-776.000000, -432.000000) translate(75.000000, 145.000000) translate(671.000000, 60.000000) translate(30.000000, 227.240000) translate(210.758395, 0.000000)"/>
                        </g>
                    </g>
                </g>
            </g>
        </g>
    </g>
</svg>
