<svg width="60" height="42" viewBox="0 0 60 42" fill="none" xmlns="http://www.w3.org/2000/svg">
<g clip-path="url(#clip0_2222_16756)">
<path d="M10.8862 10.8743H0V0.0270996L10.8862 10.8743Z" fill="white"/>
<path d="M49.1138 10.8472L30.0612 29.8316L11.0086 10.8472H49.1138Z" fill="white"/>
<path d="M49.1138 10.8472H60V0L49.1138 10.8472Z" fill="white"/>
<path d="M37.6496 42L29.9524 34.3304L22.2484 42H37.6496Z" fill="white"/>
<path d="M43.6536 34.974C40.4642 34.9824 37.3976 33.7499 35.1065 31.539L37.4728 29.1337C39.1743 30.768 41.4576 31.6619 43.8205 31.6187C46.1834 31.5755 48.4323 30.5988 50.0725 28.9034C51.7127 27.208 52.6098 24.9328 52.5664 22.5784C52.523 20.2239 51.5428 17.9831 49.8413 16.3488L52.2008 13.9164C53.9621 15.6127 55.1747 17.7946 55.683 20.1823C56.1913 22.5699 55.9722 25.0545 55.0538 27.3172C54.1354 29.5799 52.5595 31.5177 50.5283 32.8819C48.4971 34.2461 46.1032 34.9747 43.6536 34.974Z" fill="white"/>
<path d="M47.2303 25.7461C48.0755 24.8743 48.5388 23.7038 48.5184 22.4918C48.498 21.2799 47.9956 20.1255 47.1215 19.2825L40.7434 25.8545C41.6183 26.6967 42.793 27.1584 44.0094 27.138C45.2257 27.1177 46.3842 26.6171 47.2303 25.7461Z" fill="white"/>
<path d="M16.9991 34.913C14.5689 34.9092 12.1943 34.1877 10.1754 32.8397C8.15646 31.4917 6.5838 29.5778 5.65607 27.3396C4.72834 25.1014 4.48716 22.6395 4.963 20.2648C5.43885 17.8902 6.61037 15.7093 8.32956 13.9977L10.7366 16.3962C9.49413 17.6339 8.64739 19.2107 8.30322 20.9274C7.95906 22.6441 8.1329 24.424 8.80281 26.0424C9.47271 27.6608 10.6087 29.0453 12.0674 30.0211C13.5261 30.9969 15.2422 31.5203 16.9991 31.5254C18.1733 31.5331 19.3372 31.3075 20.423 30.862C21.5087 30.4165 22.4945 29.7598 23.3228 28.9305L25.7298 31.3221C24.5899 32.463 23.2344 33.3677 21.7418 33.9841C20.2492 34.6004 18.6488 34.9161 17.0331 34.913H16.9991Z" fill="white"/>
<path d="M13.5109 25.7461C13.0847 25.3225 12.7466 24.8193 12.5159 24.2654C12.2851 23.7114 12.1664 23.1175 12.1664 22.5177C12.1664 21.9179 12.2851 21.324 12.5159 20.77C12.7466 20.216 13.0847 19.7128 13.5109 19.2892L19.991 25.7461C19.1315 26.6021 17.9661 27.083 16.7509 27.083C15.5358 27.083 14.3703 26.6021 13.5109 25.7461Z" fill="white"/>
</g>
<defs>
<clipPath id="clip0_2222_16756">
<rect width="60" height="42" fill="white"/>
</clipPath>
</defs>
</svg>
