<svg width="16" height="16" xmlns="http://www.w3.org/2000/svg">
    <g fill="none" fill-rule="evenodd">
        <path d="M0 0h16v16H0z"/>
        <path d="M9.456 0c.44 0 .86.167 1.18.47l3.014 2.85c.342.324.537.78.537 1.25v9.711A1.72 1.72 0 0 1 12.47 16h-8.75A1.72 1.72 0 0 1 2 14.281V1.72A1.72 1.72 0 0 1 3.719 0zm-.143.938H3.718c-.431 0-.781.35-.781.78v12.563c0 .431.35.781.78.781h8.75c.432 0 .782-.35.782-.78V4.686h-2.844c-.603 0-1.094-.49-1.094-1.093V.938zM6.835 11.25a.469.469 0 0 1 0 .938H4.563a.469.469 0 0 1 0-.938zm4.603-2.5a.469.469 0 0 1 0 .938H4.561a.469.469 0 0 1 0-.938zm0-2.5a.469.469 0 0 1 0 .938H4.561a.469.469 0 0 1 0-.938zM10.25 1.395v2.199c0 .086.07.156.156.156h2.333L10.25 1.395z" fill="#9F9F9F" fill-rule="nonzero"/>
    </g>
</svg>
