<svg xmlns="http://www.w3.org/2000/svg" width="16" height="16" viewBox="0 0 16 16">
    <g fill="none" fill-rule="evenodd">
        <g>
            <g>
                <g>
                    <g>
                        <path d="M0 0H16V16H0z" transform="translate(-439.000000, -426.000000) translate(415.000000, 320.000000) translate(24.000000, 104.000000) translate(0.000000, 2.000000)"/>
                        <g fill-rule="nonzero">
                            <path fill="#CFD2FC" d="M11.034 16H1.655C.741 16 0 15.259 0 14.345V1.655C0 .741.741 0 1.655 0H9.38l3.31 3.31v11.035c0 .914-.74 1.655-1.655 1.655z" transform="translate(-439.000000, -426.000000) translate(415.000000, 320.000000) translate(24.000000, 104.000000) translate(0.000000, 2.000000) translate(1.600000, 0.000000)"/>
                            <path fill="#5153FF" d="M0 11.586h12.69v2.759c0 .914-.741 1.655-1.656 1.655H1.655C.741 16 0 15.259 0 14.345v-2.759z" transform="translate(-439.000000, -426.000000) translate(415.000000, 320.000000) translate(24.000000, 104.000000) translate(0.000000, 2.000000) translate(1.600000, 0.000000)"/>
                            <path fill="#8690FA" d="M12.69 3.31h-1.656c-.914 0-1.655-.74-1.655-1.655V0l3.31 3.31zM9.655 6.897c.153 0 .276-.124.276-.276 0-.153-.123-.276-.276-.276h-.827V5.24h.827c.153 0 .276-.123.276-.275 0-.153-.123-.276-.276-.276h-.827v-.828c0-.152-.124-.276-.276-.276-.153 0-.276.124-.276.276v.828H6.62v-.828c0-.152-.124-.276-.276-.276-.153 0-.276.124-.276.276v.828H4.414v-.828c0-.152-.124-.276-.276-.276-.152 0-.276.124-.276.276v.828h-.828c-.152 0-.275.123-.275.276 0 .152.123.275.275.275h.828v1.104h-.828c-.152 0-.275.123-.275.276 0 .152.123.276.275.276h.828V8h-.828c-.152 0-.275.124-.275.276 0 .152.123.276.275.276h.828v.827c0 .153.124.276.276.276.152 0 .276-.123.276-.276v-.827h1.655v.827c0 .153.123.276.276.276.152 0 .276-.123.276-.276v-.827h1.655v.827c0 .153.123.276.276.276.152 0 .276-.123.276-.276v-.827h.827c.153 0 .276-.124.276-.276 0-.152-.123-.276-.276-.276h-.827V6.897h.827zM8.275 5.24v1.104H6.622V5.24h1.655zm-3.861 0h1.655v1.104H4.414V5.24zm0 2.759V6.897h1.655V8H4.414zm3.862 0H6.62V6.897h1.655V8z" transform="translate(-439.000000, -426.000000) translate(415.000000, 320.000000) translate(24.000000, 104.000000) translate(0.000000, 2.000000) translate(1.600000, 0.000000)"/>
                            <g fill="#FFF">
                                <path d="M3.034.586h.552c.153 0 .276-.123.276-.276 0-.152-.123-.276-.276-.276h-.552c-.457 0-.827.371-.827.828 0 .457.37.828.827.828.153 0 .276.123.276.276 0 .152-.123.275-.276.275h-.551c-.153 0-.276.124-.276.276 0 .153.123.276.276.276h.551c.458 0 .828-.37.828-.827 0-.458-.37-.828-.828-.828-.152 0-.275-.124-.275-.276 0-.152.123-.276.275-.276zM5.86.043c-.148-.037-.298.053-.334.2L5.24 1.38 4.957.243c-.023-.096-.096-.172-.191-.2-.095-.027-.198-.001-.269.068-.071.069-.1.17-.075.266l.552 2.207c.03.123.14.21.267.21s.237-.087.268-.21L6.061.377C6.098.23 6.008.08 5.86.043zM1.103.586c.055 0 .11.013.159.037.137.065.302.006.367-.132s.006-.302-.132-.367c-.123-.059-.257-.09-.394-.09C.495.034 0 .654 0 1.414c0 .76.495 1.38 1.103 1.38.137-.001.271-.031.394-.09.138-.065.197-.23.132-.367-.065-.138-.23-.197-.367-.132-.05.024-.104.036-.159.036-.299 0-.551-.379-.551-.827 0-.449.252-.828.551-.828z" transform="translate(-439.000000, -426.000000) translate(415.000000, 320.000000) translate(24.000000, 104.000000) translate(0.000000, 2.000000) translate(1.600000, 0.000000) translate(3.310345, 12.379310)"/>
                            </g>
                        </g>
                    </g>
                </g>
            </g>
        </g>
    </g>
</svg>
