<svg width="26" height="26" viewBox="0 0 26 26" xmlns="http://www.w3.org/2000/svg" xmlns:xlink="http://www.w3.org/1999/xlink">
    <defs>
        <rect id="a" x="0" y="0" width="24" height="24" rx="4"/>
    </defs>
    <g transform="translate(1 1)" fill="none" fill-rule="evenodd">
        <mask id="b" fill="#fff">
            <use xlink:href="#a"/>
        </mask>
        <use stroke="#F2F2F7" fill="#FFF" xlink:href="#a"/>
        <path d="M18 5a1 1 0 0 1 1 1v12a1 1 0 0 1-1 1H6a1 1 0 0 1-1-1V6a1 1 0 0 1 1-1zm-.82.82H6.82a1 1 0 0 0-1 1v8.896l2.968-5.236a.41.41 0 0 1 .673-.058l3.552 4.32 2.014-1.735a.41.41 0 0 1 .583.048l2.57 3.084V6.82a1 1 0 0 0-1-1zm-2.544 1.816a1.73 1.73 0 0 1 1.728 1.728 1.73 1.73 0 0 1-1.728 1.728 1.73 1.73 0 0 1-1.728-1.728 1.73 1.73 0 0 1 1.728-1.728z" fill="#597FFF" fill-rule="nonzero" mask="url(#b)"/>
    </g>
</svg>
