<svg width="26" height="26" viewBox="0 0 26 26" xmlns="http://www.w3.org/2000/svg" xmlns:xlink="http://www.w3.org/1999/xlink">
    <defs>
        <rect id="a" x="0" y="0" width="24" height="24" rx="4"/>
    </defs>
    <g transform="translate(1 1)" fill="none" fill-rule="evenodd">
        <mask id="b" fill="#fff">
            <use xlink:href="#a"/>
        </mask>
        <use stroke="#F2F2F7" fill="#FFF" xlink:href="#a"/>
        <path d="M14.822 4a.342.342 0 0 1 .079.017l.009.003a.29.29 0 0 1 .036.017.226.226 0 0 1 .036.021l.009.006a.324.324 0 0 1 .03.028l3.11 3.106a.357.357 0 0 1 .055.074l.015.037.003.01a.264.264 0 0 1 .016.079v3.364l.78.786a.313.313 0 0 1 .132.255v4.79a.313.313 0 0 1-.312.313h-.6v2.782a.313.313 0 0 1-.312.312H6.225a.313.313 0 0 1-.313-.313v-2.78h-.6A.313.313 0 0 1 5 16.593v-4.807l.002-.015.001-.013.003-.017.004-.015.004-.015a.133.133 0 0 1 .005-.014l.005-.015.006-.013.007-.014.007-.013.009-.014.01-.013.008-.011a.287.287 0 0 1 .02-.023l.821-.82v-6.45A.313.313 0 0 1 6.225 4zm2.773 12.906H6.538v2.469h11.057v-2.469zm.912-4.79H5.625v4.165h12.882v-4.165zm-5.7 1.14a.265.265 0 0 1 .19.08.25.25 0 0 1 .017.355l-.585.678.597.692a.256.256 0 0 1 .048.274.25.25 0 0 1-.062.085.261.261 0 0 1-.186.08.246.246 0 0 1-.19-.094l-.538-.643-.545.644a.243.243 0 0 1-.375.012.255.255 0 0 1-.084-.188c.001-.062.024-.122.066-.168l.6-.694-.585-.678a.26.26 0 0 1-.069-.17.25.25 0 0 1 .083-.185.266.266 0 0 1 .19-.08.246.246 0 0 1 .19.094l.529.625.525-.625a.228.228 0 0 1 .184-.094zm-2.041.019c.091 0 .16.018.204.056.045.037.068.096.068.175 0 .08-.023.138-.068.177-.044.038-.113.058-.204.058h-.441v1.472a.27.27 0 0 1-.08.205.33.33 0 0 1-.422 0 .27.27 0 0 1-.08-.205v-1.472h-.44c-.092 0-.16-.02-.205-.058-.045-.039-.068-.098-.068-.177 0-.08.023-.138.068-.175.045-.038.113-.056.205-.056zm4.12 0c.092 0 .16.018.205.056.045.037.067.096.067.175 0 .08-.022.138-.067.177-.045.038-.113.058-.205.058h-.44v1.472a.27.27 0 0 1-.08.205.33.33 0 0 1-.422 0 .27.27 0 0 1-.08-.205v-1.472h-.44c-.093 0-.16-.02-.206-.058-.045-.039-.067-.098-.067-.177 0-.08.022-.138.067-.175.045-.038.113-.056.205-.056zm-.398-8.65h-7.95v6.865h11.057V7.732H14.8a.313.313 0 0 1-.313-.313V4.625zm.625.442v2.04h2.04l-2.04-2.04z" fill="#000" fill-rule="nonzero" mask="url(#b)"/>
    </g>
</svg>
