<svg width="16" height="16" viewBox="0 0 16 16" xmlns="http://www.w3.org/2000/svg">
    <g fill="none" fill-rule="evenodd" opacity=".8">
        <path d="M0 0h16v16H0z"/>
        <path d="M15 10a1 1 0 0 1 1 1v4a1 1 0 0 1-1 1h-4a1 1 0 0 1-1-1v-4a1 1 0 0 1 1-1h4zM5 5a1 1 0 0 1 1 1v4a1 1 0 0 1-1 1H1a1 1 0 0 1-1-1V6a1 1 0 0 1 1-1h4zm10-5a1 1 0 0 1 1 1v4a1 1 0 0 1-1 1h-4a1 1 0 0 1-1-1V1a1 1 0 0 1 1-1h4z" fill="#7C8085"/>
        <path d="M15 10a1 1 0 0 1 1 1v1h-6v-1a1 1 0 0 1 1-1h4zM5 5a1 1 0 0 1 1 1v1H0V6a1 1 0 0 1 1-1h4zm10-5a1 1 0 0 1 1 1v1h-6V1a1 1 0 0 1 1-1h4z" fill="#7C8085"/>
        <path d="M3.5 11v.983a.5.5 0 0 0 .41.492l.09.008h6v1H4a1.5 1.5 0 0 1-1.493-1.355l-.007-.145V11h1zm10-5v4h-1V6h1zM10 2.5v1H4a.5.5 0 0 0-.492.41L3.5 4v1h-1V4a1.5 1.5 0 0 1 1.356-1.493L4 2.5h6z" fill="#94979C" fill-rule="nonzero"/>
    </g>
</svg>
