<svg xmlns="http://www.w3.org/2000/svg" width="16" height="16" viewBox="0 0 16 16">
    <g fill="none" fill-rule="evenodd">
        <g fill="#9799AC" fill-rule="nonzero">
            <g>
                <g>
                    <path d="M14.167 0C15.178 0 16 .822 16 1.833v12.334C16 15.178 15.178 16 14.167 16H1.833C.822 16 0 15.178 0 14.167V1.833C0 .822.822 0 1.833 0zm0 1.333H1.833c-.276 0-.5.224-.5.5v12.334c0 .276.224.5.5.5h12.334c.276 0 .5-.224.5-.5V1.833c0-.276-.224-.5-.5-.5zm-5.334 2c.46 0 .834.374.834.834V8H11.5c.44 0 .665.528.361.845l-3.5 3.667c-.094.099-.224.155-.361.155-.137 0-.267-.056-.361-.155l-3.5-3.667C3.835 8.528 4.06 8 4.5 8h1.833V4.167c0-.46.374-.834.834-.834h1.666z" transform="translate(-1328 -553) translate(1320 548) translate(8 5)"/>
                </g>
            </g>
        </g>
    </g>
</svg>
