<svg width="200" height="140" viewBox="0 0 200 140" fill="none" xmlns="http://www.w3.org/2000/svg">
<g clip-path="url(#clip0_118_1070)">
<path d="M185.286 87.6586C185.286 89.8193 185.197 91.9584 185.023 94.075C184.991 94.478 184.954 94.8795 184.915 95.2815C184.576 98.7586 184.008 102.168 183.223 105.495C183.131 105.886 183.037 106.274 182.939 106.662C180.404 116.728 175.9 126.009 169.861 134.076H45.6532C35.9662 121.136 30.2277 105.068 30.2277 87.6586C30.2277 44.841 64.9386 10.1296 107.757 10.1296C127.598 10.1296 145.7 17.5842 159.413 29.8457C159.993 30.362 160.566 30.8902 161.129 31.4275C164.012 34.1622 166.684 37.1187 169.118 40.2669C169.447 40.6885 169.769 41.1144 170.085 41.5437C170.738 42.4247 171.374 43.3195 171.989 44.2282C172.309 44.6986 172.621 45.1718 172.929 45.6498C174.793 48.5342 176.47 51.55 177.942 54.6819C178.233 55.2971 178.516 55.9185 178.79 56.5433C178.93 56.8626 179.067 57.1814 179.203 57.5022C179.39 57.9482 179.575 58.3956 179.755 58.8444C181.212 62.4802 182.4 66.2532 183.298 70.138C183.397 70.5639 183.492 70.9932 183.583 71.4239C184.095 73.8259 184.496 76.269 184.779 78.7489C184.96 80.334 185.093 81.9325 185.177 83.5434C185.249 84.9067 185.286 86.2781 185.286 87.6586Z" fill="#ECF3FE"/>
<path d="M185.177 83.5434C185.093 81.9325 184.96 80.3335 184.778 78.7489L184.09 82.0916L176.517 80.5343L175.035 80.2288H175.032L173.957 80.0075L174.474 77.5065V77.5051L174.598 76.8866L176.043 69.8731L179.533 70.5906L182.163 71.1327H182.164L183.583 71.4243C183.491 70.9936 183.397 70.5648 183.298 70.1384L182.994 70.0758L180.361 69.5338H180.36L176.288 68.6939L178.374 58.561L179.756 58.8449C179.575 58.396 179.39 57.9486 179.203 57.5026L178.618 57.3822L178.791 56.5437C178.516 55.919 178.234 55.2976 177.942 54.6824L177.437 57.1393L167.304 55.0552L169.39 44.9223L172.929 45.6508C172.623 45.1728 172.31 44.6995 171.99 44.2292L169.633 43.7435L170.086 41.5446C169.77 41.1154 169.448 40.6895 169.12 40.2679L168.454 43.5007L158.321 41.4146L160.408 31.2783L161.131 31.428C160.567 30.8907 159.994 30.362 159.414 29.8462L125.535 22.8725L111.321 91.9191L182.941 106.662C183.038 106.274 183.133 105.886 183.224 105.495L180.614 104.958L182.7 94.825L184.917 95.2815C184.956 94.8799 184.993 94.4784 185.025 94.075L182.942 93.6457L185.03 83.5128L185.177 83.5434ZM173.285 77.2886L173.126 78.0582V78.061L172.777 79.7623L171.147 79.4296L170.366 79.2695H170.364L162.644 77.6801L164.218 70.0328V70.0299L164.389 69.2101L164.729 67.5428L166.395 67.8865H166.398L167.235 68.0576L174.865 69.6289L173.285 77.2886ZM152.242 64.9706L150.61 72.8971V72.8985L150.274 74.5414L150.155 75.1064L147.823 74.6256H147.82L142.48 73.5261L140.022 73.0209L140.136 72.4559V72.4544L140.481 70.7857L142.109 62.8884L152.242 64.9706ZM142.353 61.7077L144.436 51.5748L154.569 53.6608L152.486 63.7933L142.353 61.7077ZM151.674 73.7006V73.6977L151.796 73.1069L153.42 65.2154L161.084 66.7914L161.883 66.9577L163.554 67.2981L163.21 68.964L163.04 69.7809V69.7838L161.466 77.4353L153.851 75.867L153.016 75.6958H153.015L151.333 75.3478L151.674 73.7006ZM163.3 66.0213L161.323 65.615L153.665 64.0361L155.748 53.9032L165.881 55.9892L164.308 63.6379L163.899 65.6246V65.626L163.798 66.1222L163.3 66.0213ZM154.813 52.483L144.68 50.3955L146.766 40.2626L156.899 42.3486L154.813 52.483ZM143.504 50.1546L133.368 48.0686L135.454 37.9356L145.587 40.0217L143.504 50.1546ZM143.26 51.332L141.174 61.4663L131.041 59.3803L133.125 49.244L143.26 51.332ZM140.932 62.6437L139.301 70.5562V70.5577L138.954 72.2465L138.846 72.7795L138.314 72.6681L136.45 72.2862L128.713 70.6905L130.799 60.5562L140.932 62.6437ZM136.106 73.4425H136.109L136.897 73.6059H136.898L138.602 73.9573L138.27 75.5835V75.5849L138.039 76.6982L136.515 84.0902L128.042 82.3464L126.382 82.0027L126.728 80.3278L128.47 71.8698L136.106 73.4425ZM139.214 76.9511L139.655 74.8134L139.782 74.1963L142.338 74.7245H142.339L147.479 75.7828L149.914 76.2838L149.787 76.899V76.9004L149.352 79.0137V79.0152L147.827 86.4162L137.694 84.3321L139.214 76.9511ZM150.523 79.2891L150.987 77.0338V77.0324L151.09 76.5285L151.594 76.6323H151.596L153.708 77.0658H153.709L161.226 78.6127L159.137 88.7456L149.004 86.6595L150.523 79.2891ZM162.402 78.8555L170.124 80.4449L172.086 80.8464L172.535 80.9411L172.445 81.3885V81.3899L172.027 83.4134L170.449 91.074L160.315 88.9879L162.402 78.8555ZM177.192 58.3162L175.106 68.4491L167.476 66.8779H167.475L165.459 66.4625H165.455L164.974 66.3664L165.073 65.8856V65.8827L165.489 63.8746L167.06 56.2306L177.192 58.3162ZM168.208 44.6771L166.125 54.8114L155.993 52.7225L158.075 42.5924L168.208 44.6771ZM159.226 31.0398L157.144 41.1727L147.008 39.0838L149.095 28.9509L159.226 31.0398ZM147.915 28.7095L145.832 38.8458L135.699 36.7568L137.782 26.6239L147.915 28.7095ZM126.471 24.295L136.606 26.3792L134.518 36.5121L124.385 34.4294L126.471 24.295ZM124.141 35.6053L134.274 37.6914L132.191 47.8243L122.055 45.7382L124.141 35.6053ZM121.811 46.9175L131.947 49.005L129.86 59.1365L119.728 57.0504L121.811 46.9175ZM119.484 58.2292L129.617 60.3153L127.531 70.4496L117.398 68.3636L119.484 58.2292ZM117.157 69.5424L127.29 71.6251L125.303 81.2695L125.202 81.758L125.15 81.7489L115.069 79.6753L117.157 69.5424ZM112.742 90.9875L114.83 80.8512L124.963 82.9387L122.875 93.0702L112.742 90.9875ZM124.055 93.3144L126.132 83.2351L126.142 83.1815L126.627 83.2809H126.628L136.271 85.2676L134.188 95.4019L124.055 93.3144ZM135.367 95.6414L137.453 85.5085L147.586 87.596L145.5 97.7289L135.367 95.6414ZM146.676 97.9732L148.764 87.8402L158.896 89.9229L156.81 100.056L146.676 97.9732ZM157.986 100.3L160.075 90.1672L170.208 92.2499L168.121 102.386L157.986 100.3ZM179.434 104.715L169.301 102.627L171.389 92.4942L181.52 94.5817L179.434 104.715ZM181.763 93.4014L171.628 91.3187L173.201 83.6791L173.513 82.1691V82.1676L173.716 81.1829L174.204 81.2867H174.206L176.277 81.7111L183.849 83.2719L181.763 93.4014Z" fill="white"/>
<path d="M52.006 125.575C80.728 125.575 104.012 102.291 104.012 73.5692C104.012 44.8471 80.728 21.5632 52.006 21.5632C23.2839 21.5632 0 44.8471 0 73.5692C0 102.291 23.2839 125.575 52.006 125.575Z" fill="#ECF3FE"/>
<path d="M100.137 139.019C155.29 139.019 200 137.135 200 134.811C200 132.487 155.29 130.603 100.137 130.603C44.9838 130.603 0.273437 132.487 0.273437 134.811C0.273437 137.135 44.9838 139.019 100.137 139.019Z" fill="#D7E4F9"/>
<path d="M147.435 52.1431L136.503 50.4973L116.172 47.4356L54.8559 38.2033C54.4993 38.1497 54.1451 38.1306 53.798 38.1416C53.6737 38.1454 53.5514 38.1531 53.4276 38.166C50.852 38.4165 48.6771 40.3859 48.2746 43.0628L47.0585 51.1417L45.1465 63.842L37.5996 113.957C37.124 117.116 39.2989 120.063 42.4596 120.539L135.037 134.477C135.236 134.507 135.434 134.527 135.631 134.536C135.778 134.542 135.926 134.544 136.071 134.54C136.195 134.536 136.318 134.528 136.441 134.516C139.028 134.277 141.216 132.302 141.62 129.619L142.449 124.115L149.676 76.1083L152.293 58.7254C152.768 55.5657 150.594 52.6187 147.435 52.1431Z" fill="#597FFF"/>
<path d="M158.263 59.5743L154.718 76.7924L144.931 124.343L143.808 129.795C143.261 132.453 140.97 134.307 138.374 134.407C138.25 134.414 138.127 134.415 138.003 134.412C137.858 134.407 137.71 134.398 137.564 134.385C137.368 134.365 137.171 134.335 136.974 134.294L45.2764 115.418C42.1459 114.774 40.1321 111.715 40.776 108.586L50.9949 58.9467L53.5848 46.3673L55.232 38.3654C55.7774 35.7138 58.0552 33.8634 60.6398 33.7516C60.7641 33.7454 60.8869 33.7439 61.0112 33.7468C61.3583 33.7544 61.7115 33.7922 62.0643 33.8649L122.798 46.3673L142.936 50.5131L153.764 52.7421C156.893 53.386 158.906 56.4453 158.263 59.5743Z" fill="white"/>
<path d="M62.397 87.8031L51.9877 85.6607L47.8632 105.7L58.2725 107.842L62.397 87.8031Z" fill="#E4ECF9"/>
<path d="M74.497 73.4248L58.9328 70.2207C58.0466 70.0381 57.4759 69.1714 57.658 68.2852C57.8406 67.399 58.7072 66.8282 59.5935 67.0103L75.1576 70.2144C76.0438 70.397 76.6146 71.2637 76.4324 72.1499C76.2498 73.0361 75.3832 73.6069 74.497 73.4248Z" fill="#597FFF"/>
<path d="M82.3489 80.6997L57.8153 75.6495C56.929 75.4669 56.3583 74.6003 56.5404 73.714C56.723 72.8278 57.5896 72.2571 58.4759 72.4392L83.0095 77.4894C83.8957 77.672 84.4665 78.5386 84.2843 79.4249C84.1017 80.3116 83.2351 80.8823 82.3489 80.6997Z" fill="#E4ECF9"/>
<path d="M99.553 76.8001L91.5037 115.9L137.011 125.268L145.059 86.1677L99.553 76.8001ZM137.849 85.3794L136.669 91.1175L130.931 89.9363L132.111 84.1983L137.849 85.3794ZM135.64 96.1147V96.1161L135.351 97.5234L133.977 97.2394L129.613 96.3422L130.793 90.6041L136.531 91.7867L135.64 96.1147ZM134.926 99.585V99.5874L134.836 100.027V100.029L134.032 103.93L132.091 103.53L130.601 103.223H130.6L128.294 102.747L129.475 97.009L133.84 97.9077H133.841L134.636 98.0726H134.638L135.213 98.1902L134.926 99.585ZM100.229 109.336L101.216 104.546L105.541 105.437H105.542L105.988 105.529H105.989L106.955 105.728L106.765 106.649V106.65L106.635 107.28L105.772 111.467L100.973 110.478L100.033 110.284L100.229 109.336ZM126.593 107.615L126.504 108.051V108.052L126.306 109.016L125.382 108.826L124.94 108.736H124.939L120.567 107.836L121.458 103.505V103.503L121.555 103.039L121.749 102.095L122.692 102.289H122.693L123.167 102.386L127.488 103.275L126.593 107.615ZM115.589 106.81L115.116 106.713H115.115L114.163 106.516L114.356 105.583V105.581L114.424 105.246L115.345 100.777L119.685 101.67L120.137 101.764L121.083 101.957L120.889 102.901L120.793 103.364V103.365L119.901 107.698L115.589 106.81ZM109.149 105.484L107.757 105.198L107.822 104.878V104.877L108.018 103.932L108.939 99.4593L114.677 100.639L113.753 105.127V105.129L113.563 106.059L113.495 106.379L112.175 106.107H112.174L109.149 105.484ZM121.51 99.8838L121.278 101.009V101.01L121.221 101.291L120.94 101.234L119.82 101.004L115.483 100.11L116.663 94.3723L122.401 95.5535L121.51 99.8838ZM114.816 99.9722L109.077 98.7911L110.257 93.053L115.995 94.2342L114.816 99.9722ZM123.305 101.72H123.303L122.162 101.485H122.159L121.887 101.43L121.943 101.157V101.156L122.178 100.018L123.068 95.6897L128.806 96.8709L127.625 102.609L123.305 101.72ZM123.206 95.0243L124.387 89.2862L130.124 90.466L128.944 96.2041L123.206 95.0243ZM122.539 94.8862L116.801 93.7036L117.98 87.9669L123.719 89.1481L122.539 94.8862ZM116.133 93.5683L110.395 92.3857L111.576 86.6476L117.315 87.8288L116.133 93.5683ZM109.729 92.249L103.99 91.0678L105.171 85.3297L110.909 86.5109L109.729 92.249ZM109.591 92.9163L108.41 98.6544L102.672 97.4732L103.852 91.7337L109.591 92.9163ZM108.272 99.3217L107.349 103.802V103.804L107.152 104.76L107.091 105.061L106.791 104.999L105.735 104.782L101.353 103.879L102.534 98.1391L108.272 99.3217ZM107.299 107.423L107.55 106.213L107.621 105.864L109.068 106.163H109.07L111.98 106.762L113.359 107.046L113.288 107.394V107.395L113.041 108.592V108.593L112.177 112.784L106.439 111.603L107.299 107.423ZM113.703 108.748L113.967 107.471V107.469L114.025 107.185L114.31 107.243H114.312L115.507 107.489H115.508L119.765 108.364L118.582 114.102L112.844 112.921L113.703 108.748ZM120.431 108.502L124.804 109.402L125.915 109.63L126.169 109.683L126.118 109.936V109.937L125.881 111.083L124.988 115.421L119.248 114.24L120.431 108.502ZM126.546 111.234L126.722 110.379V110.377L126.838 109.82L127.114 109.879H127.115L128.287 110.119L132.576 111.002L131.395 116.739L125.655 115.559L126.546 111.234ZM128.424 109.452L127.584 109.279H127.582L126.974 109.154L127.266 107.738V107.736L127.337 107.386L128.154 103.414L130.131 103.821L131.62 104.128H131.621L133.894 104.596L132.711 110.334L128.424 109.452ZM131.444 84.0606L130.262 89.8001L124.523 88.6189L125.706 82.8809L131.444 84.0606ZM125.039 82.7427L123.856 88.4808L118.118 87.2996L119.301 81.5601L125.039 82.7427ZM118.632 81.4248L117.453 87.1629L111.713 85.9803L112.896 80.2422L118.632 81.4248ZM112.227 80.1055L111.047 85.845L105.309 84.6624L106.489 78.9243L112.227 80.1055ZM100.084 77.6055L105.823 78.7867L104.641 84.5248L98.9024 83.345L100.084 77.6055ZM98.7643 84.0104L104.502 85.1916L103.323 90.9297L97.5831 89.7485L98.7643 84.0104ZM97.445 90.4158L103.184 91.5984L102.003 97.335L96.2652 96.1539L97.445 90.4158ZM96.1271 96.8212L101.865 98.0023L100.684 103.742L94.9459 102.561L96.1271 96.8212ZM94.8097 103.228L100.548 104.408L99.423 109.869L99.3656 110.146L99.3365 110.141L93.6276 108.966L94.8097 103.228ZM92.3092 115.371L93.4918 109.632L99.2299 110.815L98.0473 116.551L92.3092 115.371ZM98.716 116.689L99.8919 110.982L99.8981 110.951L100.172 111.008H100.173L105.634 112.132L104.454 117.872L98.716 116.689ZM105.121 118.007L106.302 112.269L112.04 113.452L110.859 119.19L105.121 118.007ZM111.525 119.327L112.708 113.589L118.446 114.769L117.265 120.507L111.525 119.327ZM117.931 120.645L119.113 114.907L124.851 116.087L123.669 121.827L117.931 120.645ZM124.337 121.963L125.52 116.225L131.256 117.408L130.075 123.146L124.337 121.963ZM136.481 124.464L130.742 123.283L131.924 117.544L137.663 118.726L136.481 124.464ZM137.798 118.06L132.06 116.877L133.243 111.139L138.981 112.32L137.798 118.06ZM139.118 111.654L133.378 110.472L134.561 104.732L140.299 105.913L139.118 111.654ZM140.437 105.248L134.699 104.065L135.59 99.7371L135.776 98.8284V98.8269L135.879 98.3269L136.128 98.3781H136.129L137.323 98.6233L141.618 99.509L140.437 105.248ZM141.756 98.8422L137.462 97.9588H137.461L136.016 97.661L136.309 96.2394V96.238L137.197 91.9215L142.935 93.1041L141.756 98.8422ZM137.336 91.2557L138.517 85.5176L144.255 86.6988L143.074 92.4368L137.336 91.2557Z" fill="#C4D7F2"/>
<path d="M136.017 96.1534C135.038 95.9516 134.08 96.5821 133.878 97.5621C133.788 98.0019 133.866 98.4364 134.067 98.8006L127.103 107.685C127.062 107.674 127.022 107.662 126.979 107.653C126.728 107.601 126.478 107.605 126.242 107.655L122.982 102.728C123.117 102.532 123.216 102.308 123.267 102.061C123.469 101.082 122.838 100.124 121.859 99.922C120.879 99.7203 119.921 100.351 119.72 101.331C119.67 101.573 119.672 101.814 119.716 102.043L114.68 105.368C114.518 105.275 114.34 105.206 114.147 105.166C113.456 105.023 112.777 105.297 112.366 105.814L109.089 105.139C108.915 104.502 108.4 103.983 107.708 103.84C106.729 103.639 105.771 104.269 105.569 105.249C105.529 105.443 105.523 105.636 105.545 105.823L99.2376 109.992L99.989 111.129L106.204 107.021C106.422 107.197 106.684 107.327 106.978 107.388C107.772 107.552 108.55 107.168 108.925 106.497L111.98 107.126C112.059 107.891 112.623 108.551 113.417 108.714C114.396 108.915 115.354 108.285 115.556 107.305C115.617 107.009 115.601 106.715 115.523 106.444L120.461 103.184C120.656 103.319 120.881 103.419 121.129 103.47C121.372 103.52 121.613 103.519 121.842 103.474L125.112 108.417C124.983 108.607 124.889 108.824 124.84 109.062C124.638 110.042 125.269 111 126.249 111.201C127.228 111.403 128.186 110.772 128.387 109.793C128.481 109.339 128.394 108.892 128.179 108.522L135.125 99.6606C135.178 99.6763 135.232 99.6912 135.287 99.7026C136.266 99.9044 137.224 99.2739 137.426 98.2939C137.627 97.3126 136.997 96.3546 136.017 96.1534Z" fill="#33DA82"/>
<path d="M85.9172 113.245L75.5085 111.103L80.9884 84.1672L91.3972 86.3097L85.9172 113.245Z" fill="#E4ECF9"/>
<path d="M72.1882 110.416L61.7795 108.273L64.2107 96.3217L74.6194 98.4646L72.1882 110.416Z" fill="#33DA82"/>
<path opacity="0.18" d="M177.722 128.871L170.314 75.8789C170.133 74.5844 168.937 73.6815 167.642 73.8626L138.609 77.9215C137.314 78.1026 136.411 79.2986 136.592 80.5931L144.001 133.586C144.182 134.88 145.378 135.783 146.672 135.602L175.706 131.543C177.001 131.362 177.904 130.166 177.722 128.871Z" fill="#003889"/>
<path d="M179.911 128.011L151.342 134.586C150.068 134.879 148.797 134.084 148.504 132.81L136.503 80.6653C136.21 79.3914 137.005 78.1208 138.279 77.8278L166.848 71.2527C168.122 70.9597 169.393 71.7547 169.686 73.0286L181.687 125.173C181.98 126.447 181.185 127.717 179.911 128.011Z" fill="#597FFF"/>
<path d="M164.854 87.2046C162.136 85.1615 158.569 84.2858 155.001 85.1046C151.945 85.8068 149.43 87.6285 147.795 90.0387C145.987 92.6936 145.247 96.0664 146.022 99.4369C147.251 104.792 151.918 108.481 157.158 108.709C158.208 108.757 159.281 108.663 160.354 108.416C166.781 106.941 170.81 100.512 169.333 94.0841C168.677 91.2251 167.039 88.8408 164.854 87.2046ZM165.729 94.912C166.748 99.3523 163.965 103.792 159.526 104.811C158.781 104.982 158.037 105.046 157.308 105.012C153.692 104.851 150.474 102.304 149.625 98.609C149.091 96.2806 149.602 93.9527 150.851 92.1171C151.982 90.4517 153.719 89.1936 155.829 88.7084C158.292 88.1429 160.758 88.7495 162.636 90.1587C164.143 91.2887 165.275 92.9364 165.729 94.912Z" fill="#F4B545"/>
<path d="M164.855 87.204L162.636 90.1591C160.757 88.7494 158.292 88.1433 155.829 88.7088C153.718 89.1935 151.982 90.4521 150.85 92.117L147.795 90.0386C149.43 87.6284 151.945 85.8062 155.001 85.1045C158.569 84.2857 162.136 85.1614 164.855 87.204Z" fill="white"/>
<path d="M169.333 94.085C170.809 100.512 166.781 106.942 160.353 108.417C159.281 108.663 158.208 108.757 157.157 108.709C157.204 107.524 157.256 106.259 157.308 105.013C158.036 105.046 158.781 104.983 159.526 104.812C163.965 103.793 166.748 99.3522 165.729 94.9125C165.275 92.9363 164.143 91.2891 162.636 90.1596L164.854 87.2045C167.039 88.8407 168.677 91.2251 169.333 94.085Z" fill="#134DA3"/>
<path d="M171.377 113.045L152.452 117.391C151.587 117.589 150.716 117.044 150.518 116.178C150.319 115.313 150.864 114.442 151.73 114.244L170.655 109.899C171.52 109.7 172.391 110.245 172.59 111.111C172.788 111.976 172.243 112.847 171.377 113.045Z" fill="white"/>
<path d="M170.577 119.338L155.918 122.704C155.053 122.903 154.182 122.358 153.983 121.492C153.785 120.627 154.33 119.756 155.196 119.557L169.854 116.192C170.72 115.993 171.591 116.538 171.789 117.404C171.987 118.269 171.442 119.14 170.577 119.338Z" fill="white"/>
<path d="M167.082 74.6662L160.17 76.257C159.74 76.356 159.311 76.0878 159.212 75.6576C159.113 75.2274 159.382 74.7986 159.812 74.6997L166.723 73.1088C167.154 73.0099 167.582 73.2781 167.681 73.7083C167.78 74.1385 167.512 74.5672 167.082 74.6662Z" fill="white"/>
<path opacity="0.18" d="M140.107 48.1972L139.871 41.4768C139.815 39.8611 138.459 38.5972 136.843 38.6536L36.5479 42.168C34.9322 42.2244 33.6684 43.5805 33.7248 45.1962L33.9604 51.9166C34.0168 53.5323 35.373 54.7961 36.9886 54.7397L137.284 51.2259C138.9 51.1685 140.163 49.8129 140.107 48.1972Z" fill="#003889"/>
<path d="M135.764 47.5805L35.5642 53.1814C33.95 53.2717 32.5685 52.0361 32.4782 50.4218L32.1029 43.7081C32.0126 42.0939 33.2483 40.7124 34.8625 40.6221L135.063 35.0212C136.677 34.9308 138.058 36.1665 138.149 37.7807L138.524 44.4944C138.614 46.1087 137.379 47.4902 135.764 47.5805Z" fill="#F4B545"/>
<path d="M41.1723 47.1374C41.4172 45.875 40.5925 44.6531 39.3301 44.4081C38.0676 44.1631 36.8457 44.9879 36.6007 46.2503C36.3557 47.5127 37.1805 48.7347 38.4429 48.9797C39.7053 49.2247 40.9273 48.3999 41.1723 47.1374Z" fill="white"/>
<path d="M48.7789 47.1208C49.2513 45.9247 48.6647 44.5721 47.4687 44.0997C46.2726 43.6272 44.92 44.2138 44.4476 45.4099C43.9751 46.6059 44.5617 47.9585 45.7578 48.431C46.9538 48.9034 48.3064 48.3168 48.7789 47.1208Z" fill="white"/>
<path d="M55.101 48.0304C56.3157 47.6082 56.9582 46.2812 56.536 45.0665C56.1139 43.8518 54.7869 43.2093 53.5722 43.6315C52.3575 44.0537 51.715 45.3806 52.1372 46.5953C52.5594 47.8101 53.8863 48.4525 55.101 48.0304Z" fill="white"/>
<path d="M45.5991 126.309H11.88V134.082H45.5991V126.309Z" fill="#F4B545"/>
<path d="M16.4043 134.081H20.1262V126.309H16.4043V134.081Z" fill="white"/>
<path d="M27.6191 126.309H23.8968V134.08H27.6191V126.309Z" fill="white"/>
<path opacity="0.2" d="M45.5991 132.954H11.8801V134.082H45.5991V132.954Z" fill="#003889"/>
<path d="M44.2459 118.537H10.5268V126.31H44.2459V118.537Z" fill="#F4B545"/>
<path d="M15.051 126.309H18.7729V118.536H15.051V126.309Z" fill="white"/>
<path d="M26.2654 118.537H22.5431V126.308H26.2654V118.537Z" fill="white"/>
<path opacity="0.2" d="M44.2459 125.181H10.5268V126.309H44.2459V125.181Z" fill="#003889"/>
<path d="M46.0084 110.764H12.2883V118.537H46.0084V110.764Z" fill="#F4B545"/>
<path d="M16.8128 118.535H20.5346V110.763H16.8128V118.535Z" fill="white"/>
<path d="M28.0274 110.764H24.3051V118.535H28.0274V110.764Z" fill="white"/>
<path opacity="0.2" d="M46.0083 117.408H12.2883V118.536H46.0083V117.408Z" fill="#003889"/>
<path opacity="0.18" d="M63.8549 129.884C63.7522 129.68 62.9955 129.461 62.1948 129.212C62.0791 129.177 61.9649 129.141 61.8492 129.105C60.8186 128.773 60.2158 127.932 59.3941 127.183C59.1384 126.95 58.8793 126.529 58.6465 126.067C58.5342 125.844 58.4285 125.611 58.3324 125.386L58.778 125.201C58.778 125.201 55.4969 101.249 50.9012 100.843C50.0963 100.772 49.1025 100.646 47.9677 100.499H52.6312L52.6317 100.49L59.0241 90.6433L57.9127 89.9741L51.8415 99.3259H50.1269C50.2464 99.1194 50.1718 98.7858 49.7784 98.2801C48.2158 96.2691 45.742 97.2858 45.0776 97.5243C44.7722 97.6328 44.3295 97.271 43.9385 96.8446C43.8525 96.7514 43.7693 96.6553 43.6904 96.5602L44.1426 95.9588L39.3042 92.6314C38.8806 92.3398 38.6827 91.8326 38.7917 91.3202C39.1784 89.4942 39.3477 85.2518 37.9232 82.1337C37.9284 81.9936 37.9323 81.8536 37.9394 81.7135C37.9528 81.4501 37.9399 81.1906 37.9045 80.9372L37.906 80.9377C37.9686 80.9358 39.6053 79.5625 39.6053 79.5625L37.1593 78.5127L37.3567 77.9998L37.5207 77.5754C38.1569 77.7398 38.8171 77.6509 39.4361 77.191C41.4887 75.6671 41.5269 72.1509 41.4155 70.4749C41.6808 70.4807 41.9251 70.4534 42.0819 70.2943C42.6063 69.7627 41.2033 68.408 41.2033 68.408C36.9729 64.8989 30.9537 72.4444 29.8835 74.3512C28.8132 76.258 26.905 75.5782 24.9767 78.1342C23.6726 79.8627 26.2319 81.9893 28.719 81.9181C26.2859 88.1854 24.7783 99.8642 26.632 101.144C25.6879 102.97 24.3094 107.861 27.2119 110.295C27.4695 110.512 27.7606 110.709 28.089 110.883H28.0904C29.1158 111.426 30.5025 111.742 32.3505 111.715C39.993 111.598 44.8104 110.016 46.9184 109.134C46.896 110.381 46.9347 111.952 47.0083 113.639C47.2616 119.397 47.9199 126.493 47.9199 126.493H48.4294C48.428 126.792 48.4247 127.077 48.4189 127.316C48.4175 127.402 48.4141 127.482 48.4118 127.555C48.3898 128.147 48.0107 128.736 47.6971 129.178H47.6966C47.6249 129.279 47.5537 129.383 47.4863 129.489C47.3941 129.633 47.3095 129.783 47.2492 129.943C46.9495 130.731 47.9964 131.162 49.2535 131.497C49.3104 131.513 49.3625 131.527 49.4122 131.542C50.4734 131.851 50.1254 132.048 51.7086 132.711C53.3664 133.405 54.2038 133.068 54.3979 132.856C54.4194 132.832 54.4271 132.804 54.4223 132.77C54.3907 132.54 53.7574 132.091 53.0915 131.6C52.9949 131.529 52.9003 131.459 52.8042 131.387C51.9514 130.744 51.6546 129.739 51.1269 128.754C50.9624 128.448 50.8539 127.958 50.7822 127.436C50.7397 127.121 50.7105 126.796 50.6904 126.494H51.516L52.0929 120.697L52.3138 118.48L55.669 126.494L56.18 126.281C56.2273 126.427 56.2712 126.566 56.31 126.691C56.3358 126.771 56.3573 126.847 56.3778 126.915C56.5418 127.471 56.3568 128.135 56.19 128.643H56.1895C56.1517 128.76 56.1145 128.878 56.0824 128.996C56.038 129.159 56.0026 129.324 55.9935 129.492C55.9481 130.317 57.1016 130.39 58.429 130.311C58.4658 130.308 58.5007 130.307 58.5346 130.305C58.5389 130.305 58.5442 130.305 58.5485 130.304C58.5624 130.304 58.5753 130.303 58.5891 130.303C59.7273 130.258 59.4453 130.55 61.1967 130.673C63.0261 130.802 63.7354 130.229 63.8578 129.971C63.8717 129.943 63.8698 129.914 63.8549 129.884ZM47.1799 98.9445C47.3224 99.0774 47.5853 99.2122 47.8969 99.3259H46.5341C46.4815 99.2299 46.3945 99.1381 46.2908 99.0803C45.9017 98.8632 46.4901 98.3016 47.1799 98.9445ZM43.5843 98.6419C44.091 98.8838 44.6225 99.1319 45.0704 99.3259H39.7038C39.7043 99.1634 39.7009 98.9937 39.6923 98.813C39.667 98.304 39.6048 97.7232 39.5183 97.0836L42.09 98.6892L42.5155 98.1233C42.8233 98.2753 43.1957 98.4569 43.5843 98.6419Z" fill="#003889"/>
<path d="M63.5772 129.971C63.4745 130.229 62.8062 130.802 60.9678 130.673C59.1288 130.545 59.4964 130.232 58.1733 130.311C56.8516 130.391 55.6929 130.317 55.679 129.492C55.6733 129.203 55.744 128.92 55.8143 128.643C55.9448 128.135 56.082 127.471 55.8778 126.915C55.8525 126.847 55.8253 126.771 55.7937 126.691C55.4022 125.661 54.5934 123.762 54.5934 123.762L57.0997 124.014C57.0997 124.014 57.5433 125.123 58.0853 126.066C58.3511 126.529 58.6408 126.95 58.9128 127.183C59.788 127.932 60.4515 128.773 61.506 129.104C61.6241 129.141 61.7412 129.177 61.8593 129.212C62.7957 129.496 63.6705 129.742 63.5772 129.971Z" fill="#FDC8AA"/>
<path d="M58.1737 130.311C59.4964 130.232 59.1283 130.545 60.9672 130.673C62.8056 130.802 63.4744 130.229 63.5776 129.971C63.6704 129.742 62.7951 129.496 61.8597 129.212L61.8472 129.229C61.8472 129.229 60.6269 129.799 59.1202 129.562C57.8922 129.369 56.6608 128.783 55.8138 128.643C55.744 128.919 55.6737 129.202 55.679 129.492C55.6938 130.316 56.8511 130.39 58.1737 130.311Z" fill="#233862"/>
<path d="M58.0857 126.067C57.7712 126.275 56.9337 126.741 55.7942 126.691C55.4027 125.661 54.5939 123.762 54.5939 123.762L57.1001 124.014C57.1006 124.014 57.5442 125.123 58.0857 126.067Z" fill="#FBB188"/>
<path d="M54.3244 132.855C54.1465 133.068 53.3334 133.404 51.626 132.71C49.9185 132.016 50.365 131.833 49.0829 131.497C47.8018 131.162 46.7239 130.731 46.9672 129.943C47.0523 129.666 47.2072 129.419 47.3602 129.179C47.6422 128.737 47.9792 128.148 47.9582 127.556C47.9553 127.483 47.9529 127.403 47.9481 127.317C47.8965 126.216 47.7187 124.16 47.7187 124.16L50.0222 125.179C50.0222 125.179 50.0992 126.371 50.3205 127.436C50.4295 127.958 50.5734 128.449 50.7598 128.755C51.3588 129.739 51.7278 130.745 52.6264 131.388C52.7273 131.459 52.8272 131.53 52.9286 131.6C53.7292 132.161 54.484 132.667 54.3244 132.855Z" fill="#FDC8AA"/>
<path d="M49.0834 131.497C50.365 131.834 49.918 132.017 51.6255 132.711C53.333 133.405 54.1461 133.069 54.3248 132.856C54.484 132.667 53.7288 132.161 52.9281 131.6L52.9114 131.612C52.9114 131.612 51.5743 131.774 50.2158 131.08C49.1087 130.515 48.1207 129.575 47.3592 129.179C47.2067 129.419 47.0523 129.666 46.9668 129.944C46.7244 130.731 47.8014 131.161 49.0834 131.497Z" fill="#233862"/>
<path d="M50.32 127.436C49.9562 127.536 49.015 127.719 47.9476 127.316C47.896 126.216 47.7182 124.159 47.7182 124.159L50.0217 125.179C50.0217 125.179 50.0987 126.371 50.32 127.436Z" fill="#FBB188"/>
<path d="M51.9232 106.979C51.6742 107.731 51.4863 108.502 51.4634 109.293L51.146 120.698L50.9858 126.494H47.3897C47.3897 126.494 46.2215 119.399 45.5542 113.64C45.1053 109.752 44.884 106.474 45.4046 106.395C51.4834 105.463 52.1383 106.323 51.9232 106.979Z" fill="#15315E"/>
<path d="M51.9232 106.979C51.6742 107.731 51.4863 108.502 51.4634 109.293L51.146 120.698C49.7626 118.959 46.9557 115.427 45.5542 113.64C45.1053 109.752 44.884 106.474 45.4046 106.395C51.4834 105.463 52.1383 106.323 51.9232 106.979Z" fill="#072542"/>
<path d="M44.6703 98.9445C43.9342 98.3015 43.3864 98.8637 43.7908 99.0802C44.1937 99.2953 44.4108 99.9827 43.3085 99.607C42.8061 99.4359 41.8959 99.0315 41.0532 98.6419C40.0456 98.1777 39.1354 97.7332 39.1354 97.7332L40.3462 95.7513C40.3462 95.7513 40.7784 96.3421 41.2779 96.8445C41.6995 97.2704 42.1679 97.6323 42.4657 97.5243C43.113 97.2862 45.5135 96.269 47.2205 98.28C48.9289 100.291 45.4046 99.5855 44.6703 98.9445Z" fill="#FDC8AA"/>
<path d="M41.2774 96.8445L41.0527 98.6419C40.0451 98.1777 39.1349 97.7332 39.1349 97.7332L40.3457 95.7513C40.3457 95.7513 40.7779 96.3421 41.2774 96.8445Z" fill="#EFA37D"/>
<path d="M58.1546 125.2L55.1388 126.494L46.3357 108.55C46.3357 108.55 41.3869 111.552 30.7578 111.716C28.9117 111.743 27.502 111.427 26.438 110.883H26.4365C26.0962 110.709 25.7907 110.512 25.5173 110.295C21.7333 107.303 24.1554 100.595 24.7539 100.437C28.1148 99.5472 31.9031 99.3804 35.5269 99.5229C35.8964 99.5382 36.263 99.5549 36.6278 99.5764C37.9088 99.6481 39.1593 99.7538 40.3553 99.8742C43.7191 100.215 46.6417 100.677 48.5279 100.842C53.1527 101.249 58.1546 125.2 58.1546 125.2Z" fill="#1F3A6F"/>
<path d="M55.917 90.6433L54.7578 89.9741L49.3582 99.3259H37.1794V100.498H50.2325V100.489L55.917 90.6433Z" fill="#597FFF"/>
<path d="M36.6278 99.5764V101.227C36.6278 101.227 35.5881 103.238 30.0235 103.136C24.8046 103.04 23.5856 107.064 26.4365 110.883C26.0962 110.709 25.7907 110.512 25.5173 110.295C21.7333 107.303 24.1554 100.595 24.7539 100.437C28.1148 99.5472 31.9031 99.3804 35.5269 99.5229C35.8959 99.5382 36.2626 99.5549 36.6278 99.5764Z" fill="#15315E"/>
<path d="M33.72 76.7957L33.3414 78.0003L32.8988 79.4128L29.034 77.7699L29.8371 75.8L30.6464 73.8148L33.72 76.7957Z" fill="#FDC8AA"/>
<path d="M33.72 76.7958L33.3414 78.0004C30.8586 77.475 30.0966 76.5161 29.8371 75.8L30.6464 73.8148L33.72 76.7958Z" fill="#EFA37D"/>
<path d="M37.0656 100.741C35.9968 102.933 27.5813 101.219 24.6607 101.259C21.7395 101.3 23.294 82.465 26.5388 78.6524C28.5039 76.3421 30.9011 77.3206 32.4862 78.4526C33.5398 79.2054 34.1626 80.421 34.1904 81.714C34.21 82.6423 34.2745 83.574 34.3691 84.4994C34.589 86.6328 34.98 88.7308 35.4031 90.682C35.6397 91.7738 35.8854 92.8183 36.1191 93.7972C36.5972 95.8034 37.0168 97.5324 37.1727 98.8135C37.2778 99.6772 37.2645 100.337 37.0656 100.741Z" fill="#F4B545"/>
<path d="M36.7014 69.5548C36.7014 69.5548 37.9604 75.1542 35.3624 77.1915C32.523 79.4186 28.0904 72.9625 30.4637 70.9845C32.8376 69.007 36.7014 69.5548 36.7014 69.5548Z" fill="#FDC8AA"/>
<path d="M29.1855 76.8497L35.7018 79.5634C35.7018 79.5634 34.164 80.9368 34.1009 80.9387C34.0383 80.9406 28.578 78.1624 28.578 78.1624L29.1855 76.8497Z" fill="white"/>
<path d="M37.1727 98.813L31.7061 95.281C31.7061 95.281 31.3715 95.0166 29.9212 88.159C28.9255 83.453 30.3978 82.0787 31.5537 81.6815C32.1612 81.4721 32.8319 81.6905 33.1923 82.2054C33.6765 82.897 34.0642 83.6791 34.3696 84.4989C35.1545 86.5983 35.4064 88.9487 35.4036 90.6815C35.4021 91.3426 35.3639 91.9138 35.3027 92.3488C35.231 92.8603 35.4648 93.3675 35.9088 93.6591L36.1196 93.7967C36.5972 95.8034 37.0169 97.5319 37.1727 98.813Z" fill="#E59D29"/>
<path d="M33.6239 81.1776C33.2639 80.6628 32.5928 80.4443 31.9843 80.6537C30.8285 81.0514 29.3571 82.4252 30.3528 87.1313C31.8031 93.9889 32.1377 94.2528 32.1377 94.2528L39.5618 98.6892L41.4179 95.9588L36.3404 92.6313C35.8959 92.3397 35.6617 91.8326 35.7334 91.3201C36.0163 89.2996 35.8199 84.3186 33.6239 81.1776Z" fill="#F4B545"/>
<path d="M36.4988 68.4085C36.4988 68.4085 37.9988 69.7632 37.5131 70.2947C37.027 70.8263 35.4643 69.8889 35.525 71.1466C35.5857 72.4042 35.3831 74.0065 34.4906 73.4993C33.5982 72.9922 33.9227 71.5318 32.5432 72.2011C31.1636 72.8703 32.7664 74.4525 32.2999 74.899C31.8333 75.3454 29.8859 75.9234 27.939 80.0209C25.9915 84.1184 19.2272 80.6901 20.9714 78.1346C22.7157 75.5787 24.6732 76.2584 25.6063 74.3516C26.5393 72.4453 32.0159 64.8994 36.4988 68.4085Z" fill="#1F3A6F"/>
<path d="M34.0857 80.2312C34.2861 80.2312 34.4485 80.0688 34.4485 79.8684C34.4485 79.668 34.2861 79.5056 34.0857 79.5056C33.8853 79.5056 33.7229 79.668 33.7229 79.8684C33.7229 80.0688 33.8853 80.2312 34.0857 80.2312Z" fill="#1F3A6F"/>
<path opacity="0.18" d="M125.298 68.9157L96.825 61.495C96.1998 61.332 95.5606 61.7068 95.3976 62.332L90.4096 81.4721C90.2466 82.0974 90.6213 82.7365 91.2466 82.8995L119.72 90.3201C120.345 90.4831 120.984 90.1084 121.147 89.4831L126.135 70.343C126.298 69.7178 125.923 69.0787 125.298 68.9157Z" fill="#003889"/>
<path d="M118.873 87.3957L90.0673 81.3976C89.4344 81.2657 89.0286 80.6462 89.16 80.0133L93.192 60.6494C93.324 60.0165 93.9435 59.6107 94.5764 59.7421L123.382 65.7403C124.015 65.8722 124.421 66.4917 124.29 67.1246L120.258 86.4885C120.126 87.1214 119.506 87.5277 118.873 87.3957Z" fill="#597FFF"/>
<path d="M99.9989 65.8772L95.5396 64.9484L92.5832 79.1435L97.0425 80.0723L99.9989 65.8772Z" fill="white"/>
<path d="M105.193 75.0325L100.734 74.1037L99.3892 80.5613L103.848 81.49L105.193 75.0325Z" fill="white"/>
<path d="M113.017 71.5661L108.557 70.6373L106.195 81.9787L110.654 82.9074L113.017 71.5661Z" fill="white"/>
<path d="M119.526 74.41L115.066 73.4812L113.001 83.3958L117.461 84.3245L119.526 74.41Z" fill="white"/>
<path opacity="0.18" d="M184.537 132.656C188.479 128.714 188.479 122.321 184.537 118.379C180.594 114.436 174.201 114.436 170.259 118.379C166.316 122.321 166.316 128.714 170.259 132.656C174.201 136.599 180.594 136.599 184.537 132.656Z" fill="#003889"/>
<path d="M186.871 132.407C190.814 128.464 190.814 122.072 186.871 118.129C182.928 114.187 176.536 114.186 172.593 118.129C168.65 122.072 168.65 128.464 172.593 132.407C176.536 136.35 182.928 136.35 186.871 132.407Z" fill="#F4B545"/>
<path d="M182.8 121.099L180.862 122.421C180.333 121.652 179.603 121.399 178.671 121.662C177.676 121.943 177.27 122.406 177.452 123.052C177.525 123.309 177.679 123.5 177.916 123.626C178.153 123.752 178.617 123.788 179.309 123.735C180.467 123.647 181.331 123.643 181.904 123.726C182.476 123.808 183.007 124.05 183.497 124.453C183.987 124.856 184.32 125.366 184.494 125.986C184.768 126.957 184.632 127.901 184.084 128.821C183.537 129.74 182.529 130.407 181.061 130.822C179.96 131.132 178.952 131.146 178.037 130.864C177.122 130.581 176.402 129.981 175.877 129.064L178.058 127.879C178.603 128.807 179.472 129.103 180.667 128.765C181.243 128.603 181.641 128.37 181.861 128.067C182.08 127.764 182.146 127.458 182.059 127.148C181.97 126.833 181.773 126.625 181.467 126.524C181.161 126.424 180.62 126.401 179.843 126.456C178.396 126.558 177.311 126.446 176.591 126.12C175.871 125.794 175.377 125.158 175.11 124.214C174.841 123.259 174.96 122.355 175.47 121.503C175.979 120.651 176.829 120.057 178.019 119.721C180.129 119.126 181.722 119.585 182.8 121.099Z" fill="white"/>
<path d="M108.06 23.5717C108.443 21.9505 107.439 20.3259 105.818 19.9431C104.197 19.5603 102.572 20.5642 102.189 22.1854C101.807 23.8066 102.811 25.4312 104.432 25.814C106.053 26.1968 107.677 25.1929 108.06 23.5717Z" fill="#C4D7F2"/>
<path d="M19.5202 64.8215C21.8759 64.8215 23.7855 62.9118 23.7855 60.5562C23.7855 58.2005 21.8759 56.2909 19.5202 56.2909C17.1645 56.2909 15.2549 58.2005 15.2549 60.5562C15.2549 62.9118 17.1645 64.8215 19.5202 64.8215Z" fill="white"/>
<path d="M61.7794 10.1291C64.5765 10.1291 66.844 7.86163 66.844 5.06456C66.844 2.26748 64.5765 0 61.7794 0C58.9824 0 56.7149 2.26748 56.7149 5.06456C56.7149 7.86163 58.9824 10.1291 61.7794 10.1291Z" fill="#C4D7F2"/>
</g>
<defs>
<clipPath id="clip0_118_1070">
<rect width="200" height="140" fill="white"/>
</clipPath>
</defs>
</svg>
