<svg width="18" height="18" viewBox="0 0 18 18" fill="none" xmlns="http://www.w3.org/2000/svg">
<path d="M13.9385 12.2834C13.9385 12.5129 13.7524 12.699 13.5229 12.699C13.2935 12.699 13.1074 12.5129 13.1074 12.2834C13.1074 12.2859 13.1074 12.2871 13.1075 12.2871C13.1085 12.2872 13.1219 12.1736 13.2934 11.9164C13.3554 11.8234 13.4315 11.7214 13.5229 11.6103C13.6144 11.7214 13.6905 11.8234 13.7525 11.9164C13.924 12.1736 13.9374 12.2872 13.9384 12.2871C13.9385 12.2871 13.9385 12.2859 13.9385 12.2834Z" fill="#344054" stroke="#344054" stroke-width="2"/>
<path d="M7.80908 2.55273L9.06023 3.8039" stroke="#344054" stroke-width="2" stroke-linecap="round"/>
<path d="M8.80977 3.55469L3.30469 9.0598L7.3084 13.0635L12.8135 7.55839L8.80977 3.55469Z" stroke="#344054" stroke-width="2" stroke-linejoin="round"/>
<path d="M4.67578 7.70898L10.678 9.68237" stroke="#344054" stroke-width="2" stroke-linecap="round"/>
<path d="M1.84473 15.8223H16" stroke="#344054" stroke-width="1.41553" stroke-linecap="round"/>
</svg>
