<svg xmlns="http://www.w3.org/2000/svg" width="16" height="16" viewBox="0 0 16 16">
    <g fill="none" fill-rule="evenodd">
      <path fill="#D8D8D8" d="M0 0H16V16H0z" opacity=".1" />
      <path fill="#9799AD" fill-rule="nonzero" d="M8.398 12c.126 0 .19-.063.19-.19V8.74c0-.051.025-.076.076-.076h3.146c.127 0 .19-.064.19-.19v-.796c0-.127-.063-.19-.19-.19H8.664c-.051 0-.076-.025-.076-.076V4.19c0-.127-.064-.19-.19-.19h-.796c-.126 0-.19.063-.19.19v3.222c0 .05-.025.076-.076.076H4.19c-.127 0-.19.063-.19.19v.796c0 .126.063.19.19.19h3.146c.051 0 .076.025.076.075v3.071c0 .127.064.19.19.19h.796z"/>
    </g>
</svg>
