<svg xmlns="http://www.w3.org/2000/svg" width="24" height="24" viewBox="0 0 24 24">
    <g fill="none" fill-rule="evenodd">
        <g>
            <g>
                <g>
                    <path d="M0 0H24V24H0z" transform="translate(-32 -75) translate(32 72) translate(0 3)"/>
                    <path fill="#9799AC" fill-rule="nonzero" d="M23.582 8.38c-.228-.25-.552-.393-.891-.393H1.206c-.34 0-.663.143-.891.393-.229.251-.341.587-.31.924l1.147 12.314c.057.62.578 1.094 1.2 1.094h19.192c.623 0 1.143-.474 1.201-1.094l1.147-12.314c.031-.337-.081-.673-.31-.924zm-7.611 11.806H7.929c-.667 0-1.207-.54-1.207-1.206 0-1.637 1.333-2.97 2.97-2.97h.866c-.89-.492-1.495-1.44-1.495-2.527 0-1.59 1.295-2.885 2.886-2.885 1.59 0 2.885 1.294 2.885 2.885 0 1.087-.605 2.035-1.495 2.527h.866c1.604 0 2.915 1.279 2.968 2.87.003.034.004.067.004.1 0 .667-.54 1.206-1.206 1.206zm5.606-14.445c0 .5-.405.905-.905.905H3.225c-.5 0-.905-.405-.905-.905s.405-.904.905-.904h17.447c.5 0 .905.405.905.904zm-2.388-3.336c0 .5-.405.904-.905.904H5.613c-.5 0-.905-.405-.905-.904 0-.5.405-.905.905-.905h12.671c.5 0 .905.405.905.905z" transform="translate(-32 -75) translate(32 72) translate(0 3)"/>
                </g>
            </g>
        </g>
    </g>
</svg>
