<svg width="18" height="20" viewBox="0 0 18 20" xmlns="http://www.w3.org/2000/svg">
    <g fill="none" fill-rule="evenodd">
        <path d="M0 1h18v18H0z"/>
        <path d="M10.37 6.337a.993.993 0 0 1 .363 1.356l-.811 1.404a.995.995 0 0 1 .976 1.176.995.995 0 0 1 1.04 1.174.993.993 0 0 1 .925 1.486l-2.109 3.652a3.229 3.229 0 0 1-4.405 1.18 3.815 3.815 0 0 1-1.79-2.332l-1.173-4.382a.95.95 0 0 1 1.39-1.069c.199.115.371.277.498.469l.84 1.273 2.9-5.023a.993.993 0 0 1 1.355-.364zm-.249.43a.497.497 0 0 0-.677.182l-3.101 5.37a.248.248 0 0 1-.422.013L4.86 10.725a.998.998 0 0 0-.332-.313.452.452 0 0 0-.663.51l1.175 4.383c.23.863.783 1.584 1.557 2.03a2.732 2.732 0 0 0 3.728-.998l2.108-3.652a.497.497 0 0 0-.859-.496l-.62 1.074a.248.248 0 0 1-.43-.248l.868-1.504a.497.497 0 0 0-.859-.496l-.868 1.504a.248.248 0 0 1-.43-.248l1.117-1.934a.497.497 0 0 0-.86-.496l-1.116 1.934a.248.248 0 0 1-.43-.248l2.357-4.082a.497.497 0 0 0-.182-.678zm2.402-3.912a4.465 4.465 0 0 1 .375 7.493l-.195.132-.401-.627a3.72 3.72 0 1 0-5.717-3.471l-.013.2-.744-.027a4.465 4.465 0 0 1 6.695-3.7zm-.818 1.418a2.828 2.828 0 0 1 .284 4.71l-.155.109-.406-.624a2.084 2.084 0 1 0-3.206-2.004l-.013.165-.744-.033a2.828 2.828 0 0 1 4.24-2.324z" fill="#4F4F4F" fill-rule="nonzero"/>
    </g>
</svg>
