<svg xmlns="http://www.w3.org/2000/svg" width="24" height="24" viewBox="0 0 24 24">
    <g fill="none" fill-rule="evenodd">
        <g>
            <g>
                <g>
                    <g>
                        <path d="M0 0H24V24H0z" transform="translate(-568 -246) translate(496 114) translate(48 108) translate(24 24)"/>
                        <g fill="#9799AC" fill-rule="nonzero">
                            <path d="M9.465 9.277l2.123 1.4c.126.082.268.123.412.123.144 0 .287-.04.412-.123l2.123-1.398 9.417 5.955c-.116.713-.707 1.266-1.452 1.266h-21c-.746 0-1.337-.553-1.452-1.266l9.417-5.957zM24 3.042v10.446l-8.091-5.115L24 3.042zm-24 0l8.091 5.331L0 13.488V3.042zM22.5 0c.748 0 1.343.558 1.455 1.276L12 9.153.045 1.276C.158.559.751 0 1.5 0z" transform="translate(-568 -246) translate(496 114) translate(48 108) translate(24 24) translate(0 4)"/>
                        </g>
                    </g>
                </g>
            </g>
        </g>
    </g>
</svg>
