<svg xmlns="http://www.w3.org/2000/svg" width="24" height="24" viewBox="0 0 24 24">
    <g fill="none" fill-rule="evenodd">
        <g>
            <g>
                <g>
                    <path d="M0 0H24V24H0z" opacity=".4" transform="translate(-32.000000, -94.000000) translate(32.000000, 92.000000) translate(0.000000, 2.000000)"/>
                    <g fill="#9799AC" fill-rule="nonzero">
                        <path d="M21.18 12.82c-.093-3.097-1.725-5.908-4.345-7.528C17.09 2.446 14.845 0 12 0 9.16 0 6.91 2.443 7.165 5.292c-2.62 1.62-4.252 4.431-4.346 7.528C.216 14.03-.77 17.19.653 19.655c1.413 2.448 4.65 3.194 7 1.541 2.707 1.457 5.986 1.457 8.694 0 2.35 1.653 5.587.907 7-1.541 1.421-2.461.442-5.623-2.166-6.835zM12 1.875c1.644 0 2.98 1.337 2.98 2.98s-1.336 2.98-2.98 2.98c-1.643 0-2.98-1.336-2.98-2.98 0-1.643 1.337-2.98 2.98-2.98zM2.276 18.717c-.823-1.426-.336-3.247 1.091-4.071 1.427-.824 3.248-.335 4.071 1.09.822 1.424.333 3.25-1.09 4.072-1.424.822-3.25.332-4.072-1.09zm6.717 1.051c.9-1.47.99-3.374.069-4.969-.925-1.601-2.616-2.471-4.336-2.427.208-2.095 1.303-3.983 3.005-5.205.823 1.513 2.428 2.543 4.27 2.543 1.84 0 3.445-1.03 4.268-2.543 1.702 1.222 2.797 3.11 3.005 5.205-1.715-.044-3.409.822-4.336 2.427-.92 1.595-.83 3.5.069 4.97-1.905.86-4.107.86-6.014 0zm12.731-1.05c-.822 1.422-2.648 1.912-4.071 1.09-1.423-.822-1.913-2.648-1.091-4.071.823-1.426 2.644-1.915 4.071-1.091 1.427.824 1.915 2.645 1.091 4.071z" transform="translate(-32.000000, -94.000000) translate(32.000000, 92.000000) translate(0.000000, 2.000000) translate(0.000000, 1.500000)"/>
                    </g>
                </g>
            </g>
        </g>
    </g>
</svg>
