<svg width="20" height="20" viewBox="0 0 20 20" fill="none" xmlns="http://www.w3.org/2000/svg">
<path fill-rule="evenodd" clip-rule="evenodd" d="M16.4583 4.0199L8.54167 0.568237L0.625 4.0199V9.20284C0.625 13.8869 3.91635 18.2848 8.39608 19.3579L8.5407 19.3925L8.68543 19.3583C9.26533 19.2212 9.81749 19.0225 10.35 18.7869L11.047 18.4787L10.6083 17.8555C10.0076 17.0024 9.65278 15.97 9.65278 14.8612C9.65278 11.9883 11.9882 9.65284 14.8611 9.65284C15.1445 9.65284 15.4288 9.68617 15.7397 9.73328L16.4583 9.84217V4.0199ZM1.875 9.20284V4.83855L8.54167 1.93188L15.2083 4.83855V8.41463C15.0947 8.40716 14.9789 8.40284 14.8611 8.40284C11.2979 8.40284 8.40278 11.2979 8.40278 14.8612C8.40278 15.9628 8.68468 17.0016 9.17531 17.9112C8.96557 17.9856 8.75486 18.0509 8.54224 18.106C4.7331 17.1159 1.875 13.2948 1.875 9.20284ZM10.9722 14.8612C10.9722 12.7126 12.7125 10.9723 14.8611 10.9723C17.0097 10.9723 18.75 12.7126 18.75 14.8612C18.75 17.0098 17.0097 18.7501 14.8611 18.7501C12.7125 18.7501 10.9722 17.0098 10.9722 14.8612ZM15.95 13.4028C15.95 12.8098 15.4639 12.314 14.8611 12.314C14.2583 12.314 13.7722 12.8098 13.7722 13.4028C13.7722 13.9959 14.2681 14.4917 14.8611 14.4917C15.4542 14.4917 15.95 13.9959 15.95 13.4028ZM14.8611 17.5348C13.957 17.5348 13.1695 17.0876 12.6834 16.3973C12.732 15.6973 14.1514 15.3473 14.8611 15.3473C15.5709 15.3473 16.9903 15.6973 17.0389 16.3973C16.5528 17.0876 15.7653 17.5348 14.8611 17.5348Z" fill="#5F6368"/>
</svg>
