<svg xmlns="http://www.w3.org/2000/svg" width="16" height="16" viewBox="0 0 16 16">
    <g fill="none" fill-rule="evenodd">
        <path d="M0 0H16V16H0z"/>
        <g fill="#9799AD" fill-rule="nonzero">
            <path d="M3.952 7.273l1.97-3.284c.142-.237.407-.373.682-.35.276.022.515.198.617.455l2.364 5.911 1.428-2.38c.132-.218.368-.352.623-.352H16V.727C16 .326 15.674 0 15.273 0H.727C.326 0 0 .326 0 .727v6.546h3.952z"/>
            <path d="M12.048 8.727l-1.97 3.284c-.132.219-.368.353-.623.353h-.059c-.275-.022-.515-.199-.617-.456L6.415 5.995l-1.428 2.38c-.132.218-.368.352-.623.352H0v6.546c0 .401.326.727.727.727h14.546c.401 0 .727-.326.727-.727V8.727h-3.952z"/>
        </g>
    </g>
</svg>
