<svg xmlns="http://www.w3.org/2000/svg" width="32" height="32" viewBox="0 0 32 32">
    <g fill="none" fill-rule="evenodd">
        <g>
            <g>
                <g>
                    <g>
                        <path d="M0 0H32V32H0z" transform="translate(-704 -339) translate(504 233) translate(166 72) translate(34 34)"/>
                        <path fill="#9799AC" fill-rule="nonzero" d="M18.827 4c.746 0 1.466.32 1.96.867l1.653 1.8h4.227c1.466 0 2.666 1.2 2.666 2.666v16c0 1.467-1.2 2.667-2.666 2.667H5.333c-1.466 0-2.666-1.2-2.666-2.667v-16c0-1.466 1.2-2.666 2.666-2.666H9.56l1.64-1.8C11.707 4.32 12.427 4 13.173 4zM16 10.667c-3.68 0-6.667 2.986-6.667 6.666S12.32 24 16 24c3.68 0 6.667-2.987 6.667-6.667 0-3.68-2.987-6.666-6.667-6.666zm0 2.666c2.21 0 4 1.791 4 4 0 2.21-1.79 4-4 4s-4-1.79-4-4c0-2.209 1.79-4 4-4z" transform="translate(-704 -339) translate(504 233) translate(166 72) translate(34 34)"/>
                    </g>
                </g>
            </g>
        </g>
    </g>
</svg>
