<svg width="20" height="20" viewBox="0 0 20 20" fill="none" xmlns="http://www.w3.org/2000/svg">
<path fill-rule="evenodd" clip-rule="evenodd" d="M0 10C0 4.47 4.47 0 10 0C15.53 0 20 4.47 20 10C20 15.53 15.53 20 10 20C4.47 20 0 15.53 0 10ZM12.89 14.3C13.28 14.69 13.91 14.69 14.3 14.3C14.68 13.91 14.68 13.27 14.3 12.89L11.41 10L14.3 7.11C14.69 6.72 14.69 6.09 14.3 5.7C13.91 5.31 13.28 5.31 12.89 5.7L10 8.59L7.11 5.7C6.72 5.31 6.09 5.31 5.7 5.7C5.51275 5.88683 5.40751 6.14048 5.40751 6.405C5.40751 6.66952 5.51275 6.92317 5.7 7.11L8.59 10L5.7 12.89C5.51275 13.0768 5.40751 13.3305 5.40751 13.595C5.40751 13.8595 5.51275 14.1132 5.7 14.3C6.09 14.69 6.72 14.69 7.11 14.3L10 11.41L12.89 14.3Z" fill="#DE3618"/>
</svg>
