<svg width="24" height="24" viewBox="0 0 24 24" fill="none" xmlns="http://www.w3.org/2000/svg">
<path fill-rule="evenodd" clip-rule="evenodd" d="M13.1 4.07389L14.6132 2.5606L13.0223 0.969604L12.2268 1.7651L9.11921 4.87265L13.0223 8.77569L14.6132 7.1847L13.1985 5.76997C13.5801 5.81703 13.9587 5.89184 14.3314 5.99422C15.4182 6.29284 16.4291 6.81919 17.297 7.53835C18.1649 8.25751 18.8699 9.15302 19.3652 10.1655C19.8606 11.1779 20.1349 12.2841 20.1701 13.4107C20.2052 14.5373 20.0004 15.6585 19.5691 16.6998C19.1379 17.7412 18.4901 18.6789 17.6687 19.4508C16.8473 20.2226 15.8712 20.811 14.8051 21.1768C13.739 21.5426 12.6072 21.6774 11.485 21.5724L11.1059 21.5369L11.0041 22.8386L11.3598 22.8664L11.3426 23.2412C11.6355 23.2682 11.9318 23.2817 12.2316 23.2817C17.5464 23.2817 21.8548 18.9733 21.8548 13.6585C21.8548 8.63626 18.0079 4.51283 13.1 4.07389ZM8.29422 6.74207L7.41834 5.31522L7.0971 5.51851C6.20633 6.08221 5.4145 6.78645 4.75339 7.60249L4.51941 7.8913L5.81124 8.95694L6.04935 8.66258C6.59573 7.98716 7.24857 7.40534 7.98218 6.94L8.29422 6.74207ZM5.00642 10.3209L3.45777 9.68136L3.31572 10.0306C2.9391 10.9565 2.70987 11.9353 2.6361 12.9316L2.14697 13.4207L4.27508 13.5529L4.2973 13.1775C4.34836 12.315 4.54044 11.4668 4.86592 10.6664L5.00642 10.3209ZM4.49603 15.4895L4.40957 15.1229L2.78034 15.5147L2.86624 15.8783C3.10749 16.8991 3.51495 17.8734 4.07231 18.762L4.27285 19.0818L5.68588 18.1827L5.48842 17.8672C5.02975 17.1343 4.69449 16.3311 4.49603 15.4895ZM6.99994 19.642L6.71451 19.3921L5.62563 20.6652L5.90503 20.9094C6.69945 21.6035 7.60259 22.1624 8.57833 22.5636L8.93026 22.7083L9.54455 21.1499L9.20343 21.0091C8.39906 20.6771 7.65466 20.2152 6.99994 19.642Z" fill="#FFC14E"/>
</svg>
