<svg width="16" height="16" viewBox="0 0 16 16" xmlns="http://www.w3.org/2000/svg">
  <g fill="none" fill-rule="evenodd">
    <path d="M0 0h16v16H0z"/>
    <path d="M6.417 0c3.548 0 6.418 2.932 6.418 6.542 0 1.55-.53 2.975-1.414 4.097l4.064 4.153a.71.71 0 1 1-1.015.994l-4.045-4.134a6.314 6.314 0 0 1-4.008 1.432C2.87 13.084 0 10.152 0 6.542S2.87 0 6.417 0zm0 1.421c-2.755 0-4.996 2.29-4.996 5.121 0 2.832 2.24 5.12 4.996 5.12 2.756 0 4.996-2.288 4.996-5.12 0-2.831-2.24-5.12-4.996-5.12z" fill="#5F6368" fill-rule="nonzero"/>
  </g>
</svg>
