<svg xmlns="http://www.w3.org/2000/svg" width="24" height="25" viewBox="0 0 24 25">
    <g fill="none" fill-rule="evenodd">
        <g fill="#FFE659" fill-rule="nonzero">
            <g>
                <g>
                    <g>
                        <path d="M14.841 21.78v.728c0 .58-.426 1.061-.98 1.143l-.179.662c-.097.359-.42.61-.795.61h-1.78c-.374 0-.697-.251-.794-.61l-.175-.662c-.559-.087-.984-.564-.984-1.148v-.729c0-.39.313-.702.702-.702h4.282c.39.005.703.318.703.707zm3.297-9.816c0 1.657-.656 3.16-1.723 4.262-.81.84-1.333 1.912-1.507 3.056-.077.492-.503.856-1.005.856h-3.81c-.498 0-.929-.359-1-.85-.18-1.144-.708-2.232-1.519-3.067-1.046-1.088-1.697-2.565-1.712-4.19-.036-3.416 2.682-6.18 6.097-6.205 3.41-.026 6.18 2.733 6.18 6.138zm-5.446-3.718c0-.38-.307-.692-.692-.692-2.441 0-4.43 1.984-4.43 4.43 0 .38.307.693.692.693.379 0 .692-.308.692-.692 0-1.682 1.37-3.047 3.046-3.047.385 0 .692-.307.692-.692zM12 3.81c.38 0 .692-.307.692-.692V.692C12.692.312 12.385 0 12 0c-.385 0-.692.308-.692.692v2.426c0 .385.313.692.692.692zM3.851 11.96c0-.38-.307-.692-.692-.692H.733c-.38 0-.692.307-.692.692 0 .38.308.692.692.692H3.16c.385 0 .692-.307.692-.692zm19.416-.692H20.84c-.38 0-.692.307-.692.692 0 .38.307.692.692.692h2.426c.38 0 .692-.307.692-.692 0-.38-.308-.692-.692-.692zM5.262 17.723l-1.718 1.718c-.272.272-.272.708 0 .98.133.133.312.2.487.2.174 0 .354-.067.487-.2l1.718-1.718c.272-.272.272-.708 0-.98-.267-.272-.708-.272-.974 0zM18.252 6.4c.174 0 .353-.067.486-.2l1.718-1.718c.272-.272.272-.708 0-.98-.271-.271-.707-.271-.98 0L17.76 5.222c-.272.271-.272.707 0 .979.138.133.313.2.492.2zm-12.99-.205c.133.133.312.2.487.2.174 0 .354-.067.487-.2.272-.272.272-.708 0-.98L4.518 3.497c-.272-.271-.708-.271-.98 0-.271.272-.271.708 0 .98l1.724 1.718zm13.476 11.528c-.271-.272-.707-.272-.979 0s-.272.708 0 .98l1.718 1.718c.133.133.313.2.487.2s.354-.067.487-.2c.272-.272.272-.708 0-.98l-1.713-1.718z" transform="translate(-592 -353) translate(560) translate(16 341) translate(16 12)"/>
                    </g>
                </g>
            </g>
        </g>
    </g>
</svg>
