<svg width="24" height="24" viewBox="0 0 24 24" xmlns="http://www.w3.org/2000/svg">
    <defs>
        <linearGradient x1="4.997%" y1="40.45%" x2="90.268%" y2="57.421%" id="a">
            <stop stop-color="#55BCFF" offset="0%"/>
            <stop stop-color="#57F" offset="16.368%"/>
            <stop stop-color="#57F" stop-opacity="0" offset="100%"/>
        </linearGradient>
        <linearGradient x1="4.997%" y1="40.45%" x2="94.743%" y2="59.581%" id="b">
            <stop stop-color="#57F" stop-opacity="0" offset="0%"/>
            <stop stop-color="#57F" offset="83.632%"/>
            <stop stop-color="#55BCFF" offset="100%"/>
        </linearGradient>
    </defs>
    <g fill="none" fill-rule="evenodd">
        <path d="M0 0h24v24H0z"/>
        <path d="M2.046 10.815h.048c.539.025.977.46.995 1.008l.001.033v.037l-.004.154a9.51 9.51 0 0 0 .545 3.34l.051.14a9.588 9.588 0 0 0 1.761 2.95l.1.114a9.74 9.74 0 0 0 2.76 2.13l.137.07a9.84 9.84 0 0 0 3.394.975l.155.016a9.923 9.923 0 0 0 3.565-.337l.145-.042a10.124 10.124 0 0 0 3.236-1.65l.12-.095a10.313 10.313 0 0 0 2.44-2.754l.079-.133a10.256 10.256 0 0 0 1.268-3.502l-.016.156a10.386 10.386 0 0 1-1.104 3.606l-.074.141a10.7 10.7 0 0 1-2.383 2.984l-.117.1a10.768 10.768 0 0 1-3.355 1.934l-.148.052c-1.238.42-2.56.615-3.88.565l-.158-.006a11.005 11.005 0 0 1-3.864-.903l-.146-.065A11.185 11.185 0 0 1 4.3 19.547l-.11-.111a11.282 11.282 0 0 1-2.258-3.378l-.065-.152a11.491 11.491 0 0 1-.866-4.013L1 11.847a1.044 1.044 0 0 1 1.046-1.032" fill="url(#a)"/>
        <path d="M12.053 1c.09.002.18.004.27.008l.158.006c1.32.063 2.637.367 3.863.903l.147.065c1.22.551 2.342 1.329 3.297 2.286l.11.111c.943.972 1.715 2.12 2.258 3.378l.065.151c.525 1.264.82 2.632.866 4.013l.001.047a1.044 1.044 0 0 1-1.01 1.031l-.046.001a1.044 1.044 0 0 1-1.033-1.008V11.92l.003-.154a9.519 9.519 0 0 0-.545-3.339l-.051-.14a9.58 9.58 0 0 0-1.762-2.95l-.1-.114a9.728 9.728 0 0 0-2.759-2.13l-.137-.07a9.83 9.83 0 0 0-3.394-.976l-.155-.015a9.924 9.924 0 0 0-3.565.337l-.145.042c-1.16.346-2.262.907-3.235 1.65l-.122.094A10.306 10.306 0 0 0 2.593 6.91l-.079.133a10.262 10.262 0 0 0-1.269 3.502l.017-.156a10.395 10.395 0 0 1 1.104-3.606l.074-.14a10.703 10.703 0 0 1 2.382-2.984l.118-.1A10.766 10.766 0 0 1 11.918 1h.135z" fill="url(#b)"/>
    </g>
</svg>
