<?xml version="1.0" encoding="iso-8859-1"?>
<!-- Generator: Adobe Illustrator 19.0.0, SVG Export Plug-In . SVG Version: 6.00 Build 0)  -->
<svg version="1.1" id="Capa_1" xmlns="http://www.w3.org/2000/svg" xmlns:xlink="http://www.w3.org/1999/xlink" x="0px" y="0px"
	 viewBox="0 0 421.285 421.285" style="enable-background:new 0 0 421.285 421.285;" xml:space="preserve">
<g>
	<g stroke="DimGray" fill="DimGray">
		<path d="M418.742,203.942c-0.3-0.2-0.5-0.5-0.8-0.8l-50.6-44.8c-4.1-3.6-10.5-3.2-14.1,0.9c-3.6,4.1-3.2,10.4,0.8,14l30.9,27.4
			h-164.3v-164.3l27.3,30.8c3.7,4.1,10,4.5,14.1,0.8s4.5-10,0.8-14.1l-44.8-50.5c-3.7-4.1-10-4.5-14.1-0.8c-0.3,0.3-0.6,0.5-0.8,0.8
			l-44.8,50.5c-3.6,4.1-3.2,10.5,0.9,14.1c4.1,3.6,10.4,3.2,14-0.8l27.3-30.8v164.3h-164.2l30.8-27.3c4.1-3.7,4.5-10,0.8-14.1
			c-3.7-4.1-10-4.5-14.1-0.8l-50.5,44.8c-4.1,3.7-4.5,10-0.8,14.1c0.3,0.3,0.5,0.6,0.8,0.8l50.5,44.8c4.1,3.6,10.5,3.2,14.1-0.9
			c3.6-4.1,3.2-10.4-0.8-14l-30.8-27.4h164.3v164.3l-27.3-30.8c-3.7-4.1-10-4.5-14.1-0.8c-4.1,3.7-4.5,10-0.8,14.1l44.8,50.5
			c3.7,4.1,10,4.5,14.1,0.8c0.3-0.3,0.6-0.5,0.8-0.8l44.8-50.5c3.6-4.1,3.2-10.5-0.9-14.1c-4.1-3.6-10.4-3.2-14,0.8l-27.4,30.8
			v-164.3h164.3l-30.8,27.3c-4.1,3.7-4.5,10-0.8,14.1c3.7,4.1,10,4.5,14.1,0.8l50.5-44.8
			C422.042,214.342,422.442,208.042,418.742,203.942z"/>
	</g>
</g>
</svg>
