<svg xmlns="http://www.w3.org/2000/svg" width="114" height="99" viewBox="0 0 114 99">
    <g fill="none" fill-rule="evenodd" opacity=".04">
        <g fill="#FFF" fill-rule="nonzero">
            <g>
                <g>
                    <path d="M.01 49.513c.14 2.368 1.697 4.36 3.953 5.04l41.76 12.73 1.535 29.021c.07 1.149.837 2.157 1.93 2.532.302.117.628.164.93.164.814 0 1.581-.328 2.14-.961l14.764-16.48L87.95 96.163c.93.657 2.023 1.008 3.162 1.008 2.628 0 4.906-1.875 5.464-4.5l17.37-89.246c.209-1.031-.186-2.11-.977-2.766-.814-.68-1.907-.844-2.883-.445L3.358 44.004c-2.162.985-3.487 3.141-3.348 5.51zm52.55 39.594L51.605 70.8l10.696 7.455-9.743 10.853zm38.458 2.227L52.931 64.751l53.41-52.09-15.323 78.673zm9.464-80.97L47.677 61.867 5.963 49.162l94.519-38.798z" transform="translate(-731.000000, -453.000000) translate(338.000000, 136.000000) translate(24.000000, 164.000000) translate(369.000000, 153.000000)"/>
                </g>
            </g>
        </g>
    </g>
</svg>
