<svg xmlns="http://www.w3.org/2000/svg" width="32" height="32" viewBox="0 0 32 32">
    <g fill="none" fill-rule="evenodd">
        <g fill-rule="nonzero">
            <g>
                <g>
                    <path fill="#000" d="M16 0C7.165 0 0 7.165 0 16s7.165 16 16 16 16-7.165 16-16S24.835 0 16 0z" transform="translate(-351 -300) translate(128 300) translate(223)"/>
                    <path fill="#FFF" d="M24.027 12.242v2.166c-1.022 0-2.014-.2-2.95-.594-.602-.254-1.163-.582-1.676-.978l.015 6.669c-.006 1.501-.6 2.912-1.675 3.975-.875.865-1.984 1.415-3.186 1.593-.282.042-.57.063-.86.063-1.287 0-2.508-.416-3.507-1.185-.188-.145-.368-.302-.54-.471-1.164-1.152-1.765-2.713-1.664-4.355.077-1.25.578-2.442 1.412-3.376 1.104-1.236 2.648-1.923 4.299-1.923.29 0 .578.022.86.064V16.92c-.268-.09-.554-.138-.851-.138-1.509 0-2.729 1.23-2.706 2.74.014.966.541 1.81 1.32 2.276.365.219.786.354 1.235.379.352.02.69-.03 1.002-.133 1.078-.356 1.855-1.368 1.855-2.562l.004-4.466V6.864h2.983c.003.295.033.584.089.863.225 1.132.863 2.113 1.75 2.782.774.584 1.738.93 2.782.93h.009v.803z" transform="translate(-351 -300) translate(128 300) translate(223)"/>
                </g>
            </g>
        </g>
    </g>
</svg>
