<svg xmlns="http://www.w3.org/2000/svg" width="32" height="32" viewBox="0 0 32 32">
    <g fill="none" fill-rule="evenodd">
        <g fill-rule="nonzero">
            <g>
                <g transform="translate(-216 -300) translate(128 300) translate(88)">
                    <circle cx="15.886" cy="15.886" r="15.886" fill="#55ACEE"/>
                    <path fill="#F1F2F2" d="M25.617 11.417c-.68.302-1.413.506-2.18.597.783-.47 1.385-1.213 1.67-2.1-.735.435-1.548.75-2.412.921-.693-.738-1.68-1.199-2.773-1.199-2.096 0-3.797 1.7-3.797 3.797 0 .298.034.588.099.866-3.156-.158-5.954-1.67-7.827-3.968-.327.56-.514 1.213-.514 1.91 0 1.316.67 2.479 1.689 3.16-.622-.02-1.208-.19-1.72-.476v.048c0 1.84 1.31 3.375 3.046 3.723-.318.088-.654.134-1 .134-.245 0-.483-.024-.715-.068.484 1.508 1.886 2.606 3.548 2.637-1.3 1.019-2.937 1.626-4.717 1.626-.306 0-.609-.018-.905-.054 1.68 1.078 3.676 1.707 5.82 1.707 6.985 0 10.804-5.786 10.804-10.805 0-.164-.003-.328-.01-.49.742-.536 1.385-1.205 1.894-1.966z"/>
                </g>
            </g>
        </g>
    </g>
</svg>
