<svg width="40" height="40" xmlns="http://www.w3.org/2000/svg">
    <path d="M37.931 17.931c1.143 0 2.069.926 2.069 2.07v16.55a3.448 3.448 0 0 1-3.448 3.45H3.448A3.448 3.448 0 0 1 0 36.55v-16.55a2.069 2.069 0 0 1 4.138 0v15.861h31.724V20c0-1.143.926-2.069 2.069-2.069zM20 0c.549 0 1.075.218 1.463.606l7.803 7.803a2.069 2.069 0 1 1-2.926 2.926l-4.271-4.271v22.591a2.069 2.069 0 1 1-4.138 0V7.064l-4.27 4.27a2.069 2.069 0 1 1-2.927-2.925L18.537.606A2.069 2.069 0 0 1 20 0z" fill="#5F6368" fill-rule="nonzero"/>
</svg>
