<svg width="20" height="20" xmlns="http://www.w3.org/2000/svg">
    <g fill="none" fill-rule="evenodd">
        <path d="M0 0h20v20H0z"/>
        <path d="M16.214 9.705a4.99 4.99 0 0 0-6.21-7.791 4.993 4.993 0 0 0-6.218 7.791A7.094 7.094 0 0 0 0 16.01v2.143c0 .394.32.714.714.714h18.572c.394 0 .714-.32.714-.714v-2.143a7.094 7.094 0 0 0-3.786-6.304zm-3.357-7.267a3.566 3.566 0 0 1 1.468 6.818 3.501 3.501 0 0 1-.71.24c-.035.009-.07.013-.107.02-.207.04-.418.061-.629.064-.095 0-.19-.008-.286-.016-.035 0-.071 0-.107-.007a3.608 3.608 0 0 1-1.168-.344c-.013-.007-.029-.006-.042-.012-.072-.034-.143-.064-.207-.103.006-.007.01-.015.015-.022a5.01 5.01 0 0 0 .765-1.393l.022-.06c.082-.24.145-.486.19-.736l.017-.11a5.02 5.02 0 0 0 .065-.768 5.024 5.024 0 0 0-.065-.767l-.017-.11a5.04 5.04 0 0 0-.19-.735l-.022-.06a5.012 5.012 0 0 0-.765-1.394c-.006-.007-.01-.015-.015-.022a3.548 3.548 0 0 1 1.788-.483zM3.571 6.009a3.562 3.562 0 0 1 6.15-2.459c.123.129.236.266.339.411.031.044.06.092.09.137.1.154.187.315.261.482.018.041.032.083.048.123.075.185.134.376.177.572.005.021.006.042.01.065.09.443.09.9 0 1.344-.004.022-.005.043-.01.065a3.483 3.483 0 0 1-.177.571c-.016.041-.03.082-.048.123a3.526 3.526 0 0 1-.262.482c-.029.045-.058.092-.089.137a3.664 3.664 0 0 1-.46.532 3.565 3.565 0 0 1-1.693.901c-.045.01-.091.016-.137.024-.194.036-.39.056-.588.06h-.078a3.54 3.54 0 0 1-.588-.06c-.046-.008-.092-.014-.137-.024a3.591 3.591 0 0 1-.53-.164l-.176-.071a3.571 3.571 0 0 1-2.102-3.251zm9.286 11.428H1.43V16.01a5.679 5.679 0 0 1 3.798-5.383c1.226.51 2.605.51 3.832 0 .238.087.47.19.695.308.149.076.286.163.429.251.093.058.187.115.276.178.138.098.268.204.396.314a5.322 5.322 0 0 1 .797.831 5.136 5.136 0 0 1 .464.7c.071.122.137.245.197.373s.113.268.164.404c.045.119.093.237.13.357.05.166.085.338.12.509.021.101.05.2.065.304.042.282.064.568.065.854v1.428zm5.714 0h-4.285V16.01c0-.224-.013-.445-.033-.664-.006-.065-.016-.128-.023-.193a6.818 6.818 0 0 0-.232-1.141c-.014-.051-.028-.104-.044-.154-.2-.64-.49-1.247-.86-1.805l-.028-.041a7.071 7.071 0 0 0-.394-.53l-.005-.006a6.483 6.483 0 0 0-.46-.512h.029c.201.027.404.041.608.043h.039c.188-.002.376-.014.563-.036.058-.008.116-.018.175-.028.152-.023.302-.053.45-.09.042-.01.085-.02.128-.033.194-.053.385-.118.571-.194a5.679 5.679 0 0 1 3.801 5.384v1.428z" fill="#959595" fill-rule="nonzero"/>
    </g>
</svg>
