<?xml version="1.0" standalone="no"?>
<!DOCTYPE svg PUBLIC "-//W3C//DTD SVG 20010904//EN"
 "http://www.w3.org/TR/2001/REC-SVG-20010904/DTD/svg10.dtd">
<svg version="1.0" xmlns="http://www.w3.org/2000/svg"
 width="32" height="32" viewBox="0 0 300.000000 285.000000"
 preserveAspectRatio="xMidYMid meet">

<g transform="translate(0.000000,285.000000) scale(0.100000,-0.100000)"
fill="#0374bf" stroke="none">
<path d="M275 2820 c-109 -35 -203 -126 -244 -234 -20 -54 -20 -73 -23 -1158
l-2 -1103 21 -58 c29 -78 82 -147 146 -191 106 -73 26 -69 1286 -73 830 -4
1151 -2 1199 7 130 22 245 110 300 228 27 56 27 60 30 310 2 162 0 252 -6 252
-6 0 -12 -4 -14 -8 -6 -18 -135 -126 -203 -172 -156 -105 -304 -171 -490 -220
-309 -81 -596 -75 -907 20 -53 17 -112 30 -131 30 -19 0 -91 -16 -159 -36
-177 -51 -254 -64 -386 -63 -177 2 -203 14 -126 63 134 85 234 203 234 276 0
32 -10 48 -71 116 -179 201 -276 368 -328 567 -63 241 -50 512 34 747 98 271
315 532 569 684 l60 36 -365 -1 c-331 0 -369 -2 -424 -19z"/>
<path d="M2029 2061 l-24 -19 -3 -314 c-2 -172 0 -328 3 -346 13 -70 82 -95
130 -47 l25 24 0 340 c0 337 0 340 -22 361 -28 25 -78 26 -109 1z"/>
<path d="M913 2023 c-64 -3 -75 -7 -93 -30 -23 -30 -19 -59 12 -85 17 -15 41
-18 165 -18 118 0 144 -3 140 -13 -3 -8 -79 -108 -170 -223 -90 -115 -168
-219 -172 -232 -9 -32 11 -77 41 -91 16 -7 108 -11 264 -11 l239 0 20 26 c27
35 26 59 -4 89 -24 24 -28 25 -185 25 -88 0 -160 2 -160 5 0 3 60 80 134 173
220 276 238 308 202 358 -12 15 -32 20 -108 26 -96 6 -199 7 -325 1z"/>
<path d="M1531 1838 c-56 -27 -108 -79 -132 -132 -23 -51 -25 -162 -4 -232 42
-142 202 -215 325 -148 l49 26 27 -21 c45 -36 105 -20 124 32 14 40 13 395 -1
436 -19 54 -75 68 -124 29 -22 -17 -31 -19 -44 -9 -63 46 -149 53 -220 19z
m187 -144 c35 -23 55 -80 48 -132 -13 -92 -87 -142 -160 -107 -46 22 -70 66
-69 126 1 110 96 169 181 113z"/>
<path d="M2420 1851 c-74 -23 -136 -78 -169 -151 -32 -69 -29 -190 5 -258 49
-99 142 -148 263 -140 82 6 136 33 188 92 47 53 63 101 63 186 0 92 -17 137
-75 197 -38 39 -63 55 -104 67 -57 17 -129 20 -171 7z m125 -145 c42 -18 69
-66 69 -126 0 -60 -25 -103 -71 -125 -33 -16 -41 -16 -78 -4 -103 36 -110 211
-10 255 39 17 48 17 90 0z"/>
</g>
</svg>
