<svg width="553" height="236" xmlns="http://www.w3.org/2000/svg" xmlns:xlink="http://www.w3.org/1999/xlink">
    <defs>
        <path id="a" d="M0 0h100.397v89.212H0z"/>
        <path id="c" d="M0 0h41.92v78.001H0z"/>
    </defs>
    <g fill="none" fill-rule="evenodd">
        <path d="M137.172 29.794c-.445-1.365-2.723-.529-3.863-.662-.675-.079-1.457-.008-1.876.527-.175.223-.286.525-.547.636-.395.167-.788-.21-1.097-.507-.737-.71-1.819-1.152-2.801-.861-.437.129-.878.641-.583.987.127.148.338.186.53.214.79.114 1.579.23 2.368.345l-.994 1.196c.609-.21 1.171.418 1.448.998.278.582.575 1.285 1.207 1.412.62.125 1.162-.393 1.647-.803a6.6 6.6 0 0 1 1.749-1.06c.917-.375 3.311-.891 2.812-2.422m17.364-22.709c1.119.15 1.896.684 2.976.426.695-.166.91-.74 1.808-.826.845-.079 1.35.458 2.272.14 1.116-.385 1.78-1.855 3.126-1.65.087 1.513-1.31 2.94-2.825 2.885-.568-.02-1.35-.09-1.494.46-.096.365.228.714.572.866.345.153.739.2 1.052.41.313.211.5.694.234.962l-2.299.032c-.215-.434.328-.884.338-1.368.008-.402-.374-.726-.77-.794-.396-.067-.798.057-1.179.184-.194.065-.395.136-.543.279-.342.334-.26.89-.257 1.368.003.61-.2 1.256-.685 1.624-.486.367-1.286.33-1.62-.179-.23-.35-.193-.805-.266-1.219a2.262 2.262 0 0 0-1.179-1.595c-.52-.267-1.133-.322-1.637-.62-2.286-1.343 1.506-1.5 2.376-1.385" fill="#B1C7EF"/>
        <path d="M137.172 29.794c-.445-1.365-2.723-.529-3.863-.662-.675-.079-1.457-.008-1.876.527-.175.223-.286.525-.547.636-.395.167-.788-.21-1.097-.507-.737-.71-1.819-1.152-2.801-.861-.437.129-.878.641-.583.987.127.148.338.186.53.214.79.114 1.579.23 2.368.345l-.994 1.196c.609-.21 1.171.418 1.448.998.278.582.575 1.285 1.207 1.412.62.125 1.162-.393 1.647-.803a6.6 6.6 0 0 1 1.749-1.06c.917-.375 3.311-.891 2.812-2.422m17.364-22.709c1.119.15 1.896.684 2.976.426.695-.166.91-.74 1.808-.826.845-.079 1.35.458 2.272.14 1.116-.385 1.78-1.855 3.126-1.65.087 1.513-1.31 2.94-2.825 2.885-.568-.02-1.35-.09-1.494.46-.096.365.228.714.572.866.345.153.739.2 1.052.41.313.211.5.694.234.962l-2.299.032c-.215-.434.328-.884.338-1.368.008-.402-.374-.726-.77-.794-.396-.067-.798.057-1.179.184-.194.065-.395.136-.543.279-.342.334-.26.89-.257 1.368.003.61-.2 1.256-.685 1.624-.486.367-1.286.33-1.62-.179-.23-.35-.193-.805-.266-1.219a2.262 2.262 0 0 0-1.179-1.595c-.52-.267-1.133-.322-1.637-.62-2.286-1.343 1.506-1.5 2.376-1.385" fill="#B1C7EF"/>
        <path d="M251.719 94.242c.235.033.47.21.569.463.173.443-.312 1.04-.736.822.054.38.068.79-.12 1.123-.19.333-.648.538-.973.334l-.448-1.152c-.419-.034-.69.518-.535.909.154.39.562.616.959.757a1.33 1.33 0 0 0-.723 1.212c.33.06.689-.1.864-.385.118-.19.155-.42.274-.61.12-.188.384-.324.564-.193.176.129.14.394.12.61-.02.218.068.508.285.5.184.17.051.503-.172.617-.223.113-.488.088-.738.107-1.141.085-2.062 1.297-1.838 2.42.294-.163.434-.506.528-.829.093-.323.173-.67.409-.91s.693-.297.881-.019c.117.173.09.401.055.606-.092.552-.201 1.133-.01 1.659.19.526.816.939 1.315.689a4.038 4.038 0 0 1-.264-1.483.762.762 0 0 1 .058-.326c.049-.102.136-.18.216-.26.845-.858.729-2.46-.232-3.186-.306-.231-.732-.553-.549-.89.054-.099.151-.164.237-.236.384-.318.591-.835.534-1.33-.044-.382-.263-.748-.53-1.02m-4.572-3.134c-.05.148-.103.3-.1.458.01.539.631.905.677 1.442.018.214-.06.425-.059.64 0 .214.132.462.347.464.185.002.314-.173.446-.303.133-.13.38-.212.483-.059.046.068.041.157.033.239a5.029 5.029 0 0 1-.46 1.661c.308.123.671-.077.843-.363.172-.285.2-.632.225-.964.01-.166.022-.338-.045-.49-.1-.229-.348-.351-.51-.54-.305-.354-.273-.89-.103-1.324.17-.433.454-.813.626-1.245a.692.692 0 0 0 .064-.353c-.018-.124-.093-.232-.147-.344-.136-.28-.15-.6-.21-.906-.519-2.668-1.948 1.519-2.11 1.987m48.55 63.757c0 .058 0 .12.032.17.078.122.272.074.384-.019.647-.53.255-1.663.752-2.337.165-.222.41-.368.626-.54a3.044 3.044 0 0 0 1.133-2.314c-.32.174-.65.35-1.01.401-.361.051-.767-.051-.982-.345-.265-.361-.177-.892-.428-1.263-.29-.427-.915-.488-1.263-.87-.32-.35-.327-.87-.4-1.339-.072-.467-.313-1-.782-1.066-.928 1.065.895 2.4 1.131 3.308.227.872-.222 1.115-.57 1.847-.364.761-.606 1.362.116 1.953.464.38.847-.2 1.251.504.233.405.015 1.46.01 1.91m-6.944 4.07c-.374.123-.785.177-1.098.417-.313.24-.454.767-.148 1.015.236.19.585.113.873.206.646.206.706 1.085.639 1.76.453.194.945-.202 1.195-.626.25-.424.423-.934.841-1.193.273-.169.63-.215.833-.464.285-.351.096-.877.202-1.317.264-1.102 1.852-1.198 2.276-2.273.294-.747.833-2.21-.05-2.364-2.208-.386-3.651 4.206-5.563 4.839m-18.604-2.362c-.005.17-.01.377.136.465.059.035.129.04.198.045.498.034 1.128-.032 1.299-.502.137-.378-.123-.815.017-1.192.046-.124.132-.228.205-.339.182-.277.288-.622.2-.941-.09-.319-.415-.58-.74-.517-.178.034-.329.154-.504.2-.562.148-2.174-1.055-2.035.293.044.423.627.755.842 1.1.258.412.397.9.382 1.388m-1.583-27.654.227-.15m-11.229-8.012c-.215-.452-.85-.64-1.276-.378.372.31.407.944.073 1.294-.171.18-.409.278-.605.429-.646.5-.674 1.61-.054 2.143l-.9.467a2.656 2.656 0 0 0-1.577-1.761 4.87 4.87 0 0 0-2.111 2.896l-.362.063-.166 1.052a1.617 1.617 0 0 1-.29-1.264c-.626.125-.979.79-1.15 1.406-.173.614-.276 1.294-.728 1.744-.332.33-.798.479-1.245.616l-2.058.63c-.566.175-1.182.386-1.488.893-.247.411-.407 1.068-.882 1.01-.2-.024-.358-.19-.554-.239-.405-.102-.767.344-.784.761-.017.417.18.808.287 1.212.11.402.1.9-.228 1.157.38.024.773.173.998.48.225.31.224.792-.066 1.04-.29.248-.839.106-.905-.27a33.807 33.807 0 0 1 1.756 7.041c.136.981.215 2.038-.26 2.907.825.623 2.032.688 2.922.158.498-.297.892-.755 1.414-1.01.908-.444 2.01-.187 2.977-.48.887-.267 1.608-.982 2.52-1.143.689-.12 1.455.078 2.058-.275.284-.166.493-.439.767-.622.306-.206.68-.29 1.048-.31 1.464-.084 2.963.923 3.293 2.35.082.358.097.733.238 1.072.14.338.46.644.825.61.091-1.118 1.154-2.067 2.276-2.032.054.36-.205.69-.479.93-.273.24-.593.457-.735.792-.143.336.016.827.38.853.184-.348.438-.658.741-.908.571.508.302 1.628-.437 1.821.71-.21 1.714-.28 1.952.42.067.198.045.414.065.622.105 1.082 1.237 1.715 2.229 2.162.201.09.417.183.635.147.375-.064.575-.46.793-.772.218-.311.665-.583.952-.333.247.217.145.645.34.91.266.357.858.166 1.148-.172.291-.338.464-.79.84-1.028.701-.442 1.973-.097 2.18-.9.113-.436-.255-.838-.374-1.273-.187-.679.252-1.372.755-1.864.504-.493 1.111-.918 1.41-1.555.5-1.067-.024-2.335.177-3.495.202-1.164 1.123-2.322.64-3.4-.189-.424-.574-.742-.733-1.177-.154-.42-.09-.931-.376-1.275-.182-.219-.465-.318-.695-.484-.764-.552-.785-1.652-1.077-2.547-.532-1.631-2.063-2.692-3.12-4.042-.196-.25-.38-.518-.463-.824-.098-.354-.054-.732-.083-1.099a2.799 2.799 0 0 0-1.39-2.178c-.17-.096-.358-.18-.477-.335-.17-.22-.16-.523-.17-.801a4.522 4.522 0 0 0-1.15-2.854l-1.393 6.89c-.269.206-.597.333-.934.363l-.402-1.76c-.662.033-1.357.061-1.953-.231-.594-.293-1.03-1.023-.763-1.63.145-.332.474-.7.258-.99.593.222 1.11-.74.675-1.201-.683-.726-1.43.326-2.134.288-.873-.046-1.655-1.27-2.595-.717m2.698-6.7-.17 1.316c.291.097.593-.217.584-.523-.008-.306-.229-.567-.474-.751m-2.753 1.734a7.427 7.427 0 0 0-1.12 1.19c.249.122.577.057.76-.15a.658.658 0 0 0 .058-.774m23.605-.05c.143.646.957.96 1.197 1.598.03.079.052.163.107.226.167.189.483.063.72.144.247.084.359.37.39.63.033.259.021.536.15.762.13.227.483.35.651.15.136-.159.063-.41-.071-.57-.135-.16-.32-.273-.444-.441-.262-.358-.196-.898-.505-1.216-.313-.323-.845-.257-1.26-.434-.413-.176-.61-.599-.935-.849m8.184 9.642c.247.602.426 1.232.531 1.874.298-.17.381-.624.163-.888.214.19.216.512.265.793a2.01 2.01 0 0 0 1.436 1.564c.11-.216.019-.488-.137-.675-.156-.187-.367-.319-.543-.486a1.805 1.805 0 0 1-.553-1.223c-.017-.413.058-.936-.303-1.136l-.188.536c-.103-.011-.172-.114-.212-.21-.25-.598.003-1.456-.562-1.89-.088.265-.257.54-.55.576-.003.43.485.755.653 1.165m-1.755 5.362c-.067-.307-.175-.615-.379-.855-.204-.24-.519-.402-.83-.36-.268.588.197 1.258.729 1.622.375.257.802.42 1.225.566-.534.09-.655-.566-.745-.973m-7.86-14.346c.274.09.565.132.834.24.269.108.525.303.605.58a.741.741 0 0 0-.004-.038c-.095-.74-.849-1.204-1.517-1.553-.088-.046-.18-.097-.228-.185-.029-.054-.923.549.31.956m-7.42-2.354c.052.08.149.115.24.14a3.194 3.194 0 0 0 2.283-.235c.224-.116.443-.26.694-.287.164-.017.33.019.495 0 .164-.016.34-.11.372-.272.03-.16-.087-.344.007-.475.099-.138.34-.085.45-.214.121-.145-.024-.356-.161-.485-.56-.528-1.102-1.098-1.7-1.577-.054.755.496 1.623-.093 2.27-.343.375-2.766.858-2.587 1.135m-14.083-5.711c-.45.034-.94.022-1.293-.26-.332.278-.114.854.252 1.084.366.23.824.27 1.204.478.38.207.665.731.389 1.065l.913.236c.07.287-.254.492-.5.655-.245.162-.445.562-.19.709.12.254.498.213.744.078.246-.134.51-.328.778-.245.174.053.292.21.42.34.538.548 1.359.68 2.049 1.017.689.338 1.312 1.156.939 1.827-.142.255-.396.422-.589.64-.192.218-.318.554-.153.793a2.485 2.485 0 0 0 1.701-.532c.488.524 1.065 1.011 1.764 1.163.7.152 1.536-.135 1.809-.797.054-.13.09-.28.2-.37.153-.126.38-.084.572-.03.588.166 1.162.38 1.716.638.106.049.218.107.268.213.072.153-.016.328-.04.495-.088.62.678.978 1.295 1.087.836.148 1.684.225 2.534.228.028-.425-.432-.716-.848-.81-.417-.094-.883-.107-1.2-.392-.373-.337-.408-.947-.8-1.262-.293-.236-.81-.393-.731-.76.085-.395.778-.344.911-.725.083-.236-.122-.486-.356-.574-.233-.088-.492-.072-.737-.118a1.502 1.502 0 0 1-1.181-1.288c-.024-.235.008-.483-.088-.7-.145-.327-.523-.469-.863-.579l-5.433-1.751c-.26-.084-.543-.168-.801-.078-.695.244-.647 1.493-1.371 1.625-.376.068-.71-.232-.973-.508-.258-.271-.63-.66-.664-1.057-.023-.272.255-.51.229-.75-.102-.925-1.162-.84-1.876-.785m-4.028.592c-.005.123-.008.252.048.361.056.109.191.188.304.139.084-.038.127-.131.162-.216.115-.276.229-.592.1-.86-.057-.122-.159-.22-.204-.347-.131-.376.325-.582.619-.552-.07-.477-.475-.14-.476-.658 0-.078.895-.421.15-.546-.972-.164-.68 2.047-.703 2.68m1.878 2.075a.652.652 0 0 0-.7.08.652.652 0 0 0-.197.677c.441.112.888-.41 1.31-.238.276.113.417.494.715.51.254.013.434-.344.271-.54-.136-.166-.396-.164-.562-.3-.3-.25-.114-.733.091-1.065-.335-.073-.586.32-.63.662-.02.15-.022.307-.092.441-.07.135-.236.236-.372.172m-1.729-.166a2.688 2.688 0 0 0-1.347.03c-.078.022-.17.066-.175.148-.003.088.096.14.18.163.42.114.88.066 1.268-.132a.329.329 0 0 0-.447-.176m-6.704.716c.166.75.517 1.532.245 2.25.3.137.663-.118.764-.433.102-.314.022-.656-.056-.977-.077-.322-.152-.665-.04-.977.026-.072.07-.147.145-.164a.228.228 0 0 1 .11.01c.41.117.688.505.817.91.128.405.138.836.195 1.256.036.263.11.549.329.696.362.242.878-.082 1.014-.496s.026-.863-.032-1.295c-.081-.6-.126-1.323-.656-1.614-.219-.12-.524-.173-.594-.413-.086-.286.254-.507.54-.591a5 5 0 0 1 .798-.165c.32-.04.738-.131.77-.453.035-.335-.389-.503-.72-.559-.4-.068-.807-.136-1.209-.083-.401.051-.805.242-1.018.587-.045.073-.087.157-.166.19-.111.045-.237-.038-.302-.138-.066-.101-.099-.221-.174-.315-.867-1.072-.825 2.483-.76 2.774m5.567-5.852.226-.076c-.16-.106-.379-.073-.536.039-.157.112-.269.275-.397.418a2.189 2.189 0 0 1-1.797.709c-.418-.038-.835-.196-1.247-.117-.506.098-.888.549-1.037 1.042-.076.248-.004.625.255.605.143-.443.546-.769.99-.91.445-.14.924-.117 1.383-.035.36.065.722.166 1.085.119.362-.048.731-.296.775-.658.032-.264-.109-.546.004-.786.098-.209.375-.394.266-.596-.119.023.148.223.03.246m-11.374 5.127c.456.007.92-.41 1.23.283.076.171.091.368.186.532.179.311.594.408.949.354.843-.127 1.497-1.003 1.38-1.848-.046-.337-.184-.727.038-.986.275-.324.897-.157 1.13-.512.224-.342-.138-.771-.137-1.179.002-.648.833-.9 1.477-.962a2.25 2.25 0 0 1-1.452-1.557c-.18-.718.03-1.523.54-2.06.147-.152.324-.304.349-.514.063-.53-.76-.614-1.137-.993-.245-.247-.285-.627-.445-.937-.159-.31-.6-.548-.84-.294a8.98 8.98 0 0 1-3.066 3.515c-.524.35-1.083.644-1.642.937l-1.279.672c-.11.058-.224.118-.31.209-.136.142-.188.344-.22.539a3.671 3.671 0 0 0 .363 2.267c.205.394.491.782.48 1.227-.007.271-.125.554-.02.804.177.425.777.385 1.234.336.427-.045.874.162 1.192.167m5.61 7.188c.167-.188.49-.07.655.119.166.19.27.441.484.573a.602.602 0 0 0 .703-.065c.11-.102.18-.265.124-.403-.058-.139-.216-.203-.359-.254l-.416-.146c-.243-.086-.498-.173-.753-.138-.255.035-.508.233-.512.491m.286-1.34c.397.007.785.32 1.157.183.094-.034.18-.097.28-.106.124-.01.237.063.35.115 1.089.503 2.34-.933 3.458-.496-.26 1.06-1.661 1.394-2.213 2.336a4.15 4.15 0 0 0 2.482-1.342c.174-.196.332-.411.553-.55.126-.081.269-.134.395-.216a1.01 1.01 0 0 0 .447-.9 1.854 1.854 0 0 0-.935.23c-.21.116-.403.276-.638.33-.39.088-.778-.137-1.175-.193-.837-.118-1.643.755-2.406.61-.3-.057-.456-.395-.838-.492-.31-.078-.802.055-1.152.005-.39-.055-1.196-.451-1.49-.035-.87 1.227 1.51.516 1.725.52m-10.698-2.68-.687.959c-.05.069-.1.144-.1.229.002.238.341.272.577.24a6.085 6.085 0 0 1 2.236.11c1.231.296 2.404.982 3.668.902.192-.012.385-.042.575-.013.205.03.393.127.592.186.46.137.978.06 1.378-.204-.341-.328-.873-.304-1.345-.34-.471-.034-1.032-.25-1.089-.72-.015-.127.011-.258-.021-.382-.068-.265-.372-.396-.644-.412-.272-.016-.548.045-.816-.007-.452-.086-.798-.505-1.246-.567-.454-.063-.654.283-1.02.3-.756.036-1.352-1.266-2.058-.28m-8.862-12.691c1.099.438 1.284 1.862 2.245 2.352.31.158.682.156.988.322.638.346.724 1.242 1.235 1.758.256.259.603.405.897.62.294.214.551.555.487.914-.031.17-.132.325-.148.498-.02.207.086.403.188.584.136.24.292.499.551.593.26.095.623-.105.568-.375a13.041 13.041 0 0 1 1.934 2.03c-.312.2-.687-.134-.911-.43-.223-.297-.615-.62-.915-.4.176.659.815 1.129.945 1.798.054.276.014.562.02.844.012.478.159.952.42 1.352-.734.402-1.752.172-2.242-.507-.173-.24-.285-.525-.487-.742-.41-.44-1.145-.556-1.4-1.1-.134-.286-.097-.62-.162-.928-.191-.903-1.197-1.415-1.524-2.278-.23-.609-.124-1.383-.604-1.824-.204-.189-.485-.278-.686-.47-.378-.358-.378-.955-.622-1.413-.317-.594-.992-.88-1.534-1.28-1.133-.834-.804-2.541.757-1.918" fill="#57F" fill-rule="nonzero"/>
        <path d="M171.927 35.744c-.01-.477-.212-.922-.523-1.295m.248 2.445a4.28 4.28 0 0 0 .145-.363m-8.344 35.288c.673.172 1.347.347 2.02.523.436-1.973-1.109-3.812-1.455-5.8-.202-1.155.03-2.332.544-3.388m102.945-46.187a4.096 4.096 0 0 0-1.139-.353c-.208-.033-.517.052-.466.258.022.088.108.142.189.185.54.293 1.114.524 1.707.685.274.074.655.081.747-.187.065-.188-.072-.386-.226-.512a1.523 1.523 0 0 0-1.369-.28m6.52-2.155a4.679 4.679 0 0 0-1.592-.853.778.778 0 0 0-.254-.044c-.309.013-.503.397-.404.69.1.293.401.477.705.535.303.059.615.016.924-.005a6.59 6.59 0 0 1 1.936.154c.12-.405-.28-.814-.699-.87-.419-.057-.829.128-1.212.309m-8.776.417c.148-.089.283-.205.449-.253.661-.192 1.228.784 1.897.625.284-.067.484-.324.756-.427.636-.243 1.346.423 1.949.013.788-.535.449-.993-.171-1.235-.569-.222-1.45.011-2.09-.172-.473-.136-.884-.398-1.334-.59-1.055-.451-2.728-1.207-3.446.154-.646 1.224.786 2.608 1.99 1.885m-30.433-7.038c-.019-.498-.707-.716-1.157-.503-.45.214-.722.671-1.027 1.065-.367.472-.81.877-1.252 1.28l3.481-.45c.449-.057.986-.186 1.12-.618-.45-.307-.976-.5-1.518-.56m-10.35-2.16-1.017.325a1.37 1.37 0 0 0 1.507.549c.574-.177 1.133-.738 1.672-.473.139.258-.179.515-.436.656-.258.141-.533.476-.323.682.051.05.12.075.188.096 1.181.38 2.53.057 3.66.57.355.16.7.406 1.09.39.391-.018.757-.511.487-.794-.176-.185-.534-.188-.605-.433-.128-.45.931-.63.724-1.05l-2.298.07c-.26.01-.579-.016-.692-.25-.064-.134-.039-.303-.128-.42-.107-.146-.32-.142-.5-.123l-1.214.122c.886-.09 2.046-.56 2.935-.776-1.18-1.335-4.59-1.173-5.05.86m-31.804 16.176c.412-.482-.332-1.828-.323-2.45.017-1.185.714-2.283 1.634-3.032.919-.749 2.043-1.197 3.167-1.576a35.459 35.459 0 0 1 2.68-.79c1.344-.34 2.967-.847 3.254-2.203-1.353.56-2.808.87-4.27.909-1.117.03-2.325-.072-3.257.543-.359.238-.648.568-.994.825-1.101.817-2.726.863-3.586 1.93-.621.772-.683 1.912-1.391 2.605-.456.446-1.153.68-1.4 1.266a.614.614 0 0 0-.055.306c.038.352.465.52.819.51.354-.011.719-.122 1.055-.01.335.113.554.613.266.818.53.237 1.915.916 2.4.349m76.621 24.554c-.26.266-.994.903-1.16 1.242-.09.186.104.373.225.542.387.54.037 1.277.013 1.94-.014.358.074.711.13 1.065.13.823.09 1.674-.117 2.483-.101.392-.242.79-.187 1.191.075.55.498.98.898 1.366.084.082.175.167.29.194.297.07.528-.28.555-.585.058-.647-.321-1.24-.613-1.82-.293-.579-.498-1.315-.128-1.848.314-.17.673.102.964.31.291.208.794.309.928-.023-.43-.488-.216-1.278-.516-1.855-.179-.345-.519-.57-.799-.84-.28-.269-.521-.655-.413-1.028.062-.214.232-.39.266-.612a1.04 1.04 0 0 0-.024-.347c-.086-.465-.143-.944-.312-1.375M257.52 73.1c.052-.51.106-1.106.537-1.385.139.354.398.66.725.854.295-.171.455-.496.627-.79.172-.294.407-.596.742-.65.336-.056.714.32.537.61.877.346 1.46-.932 2.274-1.408.429-.251.95-.27 1.432-.393s.99-.43 1.06-.923c.039-.288-.084-.574-.093-.864-.02-.62.455-1.127.76-1.667a3.344 3.344 0 0 0 .064-3.118c-.268-.522-.68-.982-.813-1.554-.133-.572.199-1.319.786-1.31.162.499.38 1.059.871 1.246.49.186 1.147-.437.792-.824a4.729 4.729 0 0 1 1.7-.148.94.94 0 0 0-.128-1.173c1.8-.627 3.348-1.866 4.535-3.357l-4.92 3.057c-.195.12-.426.246-.64.164-.194-.074-.288-.288-.386-.471a2.615 2.615 0 0 0-2.309-1.356l.228 2.352c-.559-.102-1.064.424-1.194.977-.13.553 0 1.128.047 1.695.164 1.988-.777 4.034-2.395 5.202l-.02-.964c-.855.125-.463 1.72-1.232 2.113-.217.11-.474.09-.715.115-1.206.126-1.186 1.366-2.49.872-.129 1.582-2.14 1.303-1.995 2.896.122 1.346 1.39 2.373 1.613.202M150.148 62.843l-.287-.238c.297-.071.495-.38.513-.685.017-.305-.114-.602-.285-.855-.206-.305-.561-.59-.908-.47-.441.152-.449.778-.301 1.22.148.443.358.96.088 1.341a.507.507 0 0 1 .468.135c-.642.412-.793 1.722.156 1.798.946.077 1.132-1.14.174-1.36.019-.06.391-.878.382-.886m-17.613-16.476c-.004.575.55 1.093.397 1.646-.151.547-.925.795-.958 1.36-.037.633.843.861 1.464.735a4.577 4.577 0 0 0 2.848-1.903c.32-.474.446-1.289-.095-1.478l2.221-.78c.583.496 1.208 1.331.728 1.926-.31.383-1.038.65-.818 1.09.09.18.327.27.37.467.043.208-.155.379-.317.515a3.097 3.097 0 0 0-1.088 2.421 5.514 5.514 0 0 1 3.932-1.44c.335.014.71.047.966-.17.256-.216.143-.773-.188-.719l1.203-.864c.09-.064.185-.134.229-.237.103-.239-.13-.5-.377-.585-.247-.084-.523-.072-.76-.182-.522-.246-.61-.93-.79-1.478-.18-.548-.824-1.104-1.267-.734.112-.527.22-1.093.012-1.59-.208-.496-.872-.834-1.304-.514-.251-.371.33-.715.634-1.044.332-.357.325-.979-.02-1.324-.346-.344-.976-.343-1.314.009.046-1.015.261-2.264 1.228-2.574.267-.085.556-.08.82-.17.265-.09.517-.332.473-.609.046.324.568.34.762.078.193-.262.153-.624.103-.946-.754-.217-1.079 1.053-1.825 1.293-.343.11-.736-.02-1.069.118-.789.33-.576 1.798-1.4 2.026-.194.053-.41.017-.595.097-.375.16-.416.679-.326 1.077.092.398.253.826.08 1.196-.094.203-.288.405-.21.615.103.277.511.202.79.301.703.25.32 1.075-.045 1.4-.455.409-1.224.302-1.762.227-.806-.113-2.722-.817-2.732.744m44.276 2.952c-1.414-1.864-4.045-2.45-6.35-2.056-.124.021-.249.047-.373.073.519-.901.757-2.062.725-3.103-.067-2.03-.668-4.164.156-6.024.197-.445.477-.87.683-1.315-.13-.01-.258-.015-.388-.02.088.222-.135.47-.373.496-.575.062-.808-.315-1.305.275-1.119-1.631 1.217-1.15 2.211-1.113.068-.197.115-.4.13-.612a.969.969 0 0 0 0-.176c-.212-.42-.58-.844-.523-1.295a3.096 3.096 0 0 0-1.616-1c-1.145-.29-2.351-.036-3.507.223 1.228-2.346-2.129-4.511-2.72-7.095-.382-1.679.52-3.346 1.845-4.522-.673-.031-1.352-.031-2.025 0-.6.031-1.212.088-1.76.326-.638.274-1.167.767-1.83.968-.813.244-1.698 0-2.543.114-.844.12-1.73.943-1.372 1.71-.86-.275-1.89.14-2.326.937l2.86-.233c-.105 1.041-1.43 1.357-2.295 1.943-1.446.978-1.771 3.045-3.119 4.158-1.201.995-3.02 1.062-4.101 2.192-.814.849-1.016 2.144-.809 3.304.213 1.16.778 2.217 1.337 3.253.202.383.435.787.833.953 1.414.585 2.202-2.295 3.725-2.17.75 1.123 1.527 2.501.989 3.739-.176.42-.497.891-.253 1.274.248.389.864.27 1.206-.036.337-.31.544-.746.912-1.02.538-.405 1.393-.425 1.693-1.026.295-.596-.186-1.352.063-1.968.347-.844 1.812-.855 1.999-1.75.207-.974-1.321-1.436-1.575-2.394-.29-1.092 1.104-1.766 1.958-2.501a3.42 3.42 0 0 0 1.14-2.942c1.036-1.331 3.408-1.218 4.314.207-1.373.787-2.838 1.683-3.429 3.149-.585 1.47.331 3.584 1.911 3.507 1.544-.073 2.797-2.078 4.227-1.503-.409.332.119.943.596 1.166.476.228 1.035.797.647 1.16a11.143 11.143 0 0 0-6.47.777c-.584.264-1.252.87-.931 1.43a4.458 4.458 0 0 0 3.045-.897c.689.912-.202 2.47-1.336 2.342-.674-.073-1.3-.611-1.953-.435-.595.16-.89.839-.953 1.45-.072.705.047 1.44-.321 2.077-.171.31-.476.533-.829.58-.637.078-.787-.45-1.16-.71-1.108-.771-2.377 1.383-3.688 1.057-.29-.068-.544-.264-.839-.326-.647-.135-1.403.373-1.932-.021-.663-.497-.016-1.518.622-2.046-.296-.068-.586-.13-.881-.197.166-.59.176-1.222.02-1.813-1.004-.093-1.828.953-1.874 1.963-.047 1.016.45 1.963.932 2.854a8.42 8.42 0 0 0-3.994.757c.317.973-.253 2.149-1.216 2.512-.39.144-.855.191-1.125.507-.202.238-.243.56-.347.85-.284.844-1.154 1.455-2.046 1.434.063-.543-.585-1.02-1.087-.813a3.05 3.05 0 0 0 .399 1.828c-.684.451-1.72.239-2.17-.45-.55.327-.264 1.238.28 1.57.553.33 1.238.357 1.802.662 1.072.586 1.352 2.17.678 3.19-.673 1.016-2.081 1.41-3.252 1.057-.415-.124-.803-.326-1.212-.46-.943-.317-2-.275-2.906.124.119.425.357.813.684 1.103-.606.223-.425 1.103-.275 1.73a4.078 4.078 0 0 1-.647 3.289c.435.062.875.124 1.31.191-.073.586-.15 1.176-.228 1.767a4.456 4.456 0 0 1 3.574 1.025c-.093-.668.927-.74 1.595-.865 1.14-.212 1.818-1.362 2.347-2.393.212-.419.43-.859.434-1.325.006-.311-.082-.622-.015-.917.166-.74 1.082-.959 1.756-1.3.674-.347 1.088-1.518.357-1.725.321-.28.642-.555.963-.834-.035.658.85 1.015 1.472.803.626-.213 1.072-.746 1.606-1.135.533-.383 1.325-.605 1.817-.165.13 1.144 1.45 1.662 2.528 2.072 1.077.409 2.3 1.362 1.917 2.45.911.103 1.533 1.232 1.139 2.066-.393.823-1.668 1.052-2.326.414-.357.482-.098 1.223.384 1.585.481.363 1.108.451 1.709.523.393-1 .787-1.999 1.186-2.993.26-.668.575-1.394 1.212-1.715a10.84 10.84 0 0 1-4.646-4.532c-.27-.507-.352-1.346.212-1.45a3.965 3.965 0 0 0 2.207 2.134c.31.119.647.207.89.44.477.451.41 1.295.902 1.735.585.513 1.714.26 2.051.953.342.71-.59 1.554-.27 2.274.192.43.725.555 1.12.813.802.529 1.01 1.59 1.304 2.502.301.917 1 1.917 1.953 1.802.518-.03.067-1.01-.46-.932-.249.036-.508-.047-.637-.259-.369-.58.046-.756.3-1.01.487-.481.419-1.28.222-1.932-.197-.653-.486-1.33-.331-1.994.155-.663 1.046-1.175 1.533-.694l.078.228a7.221 7.221 0 0 1 1.378-1.927c.02-.119.056-.233.108-.342.083-.176.197-.336.254-.523.16-.533-.212-1.14.015-1.646.891.294.317-3.047 2.311-3.062 2.045-.015 1.227 2.72 3.413 1.476.124-.067.249-.14.373-.207.104-.347.332-.679.637-.865.751-.472 1.71-.46 2.533-.793 2.165-.875 2.636-4.08 1.227-5.946m5.758 75.834c1.381-.555.693-1.276 1.388-2.347 1.708-2.63 3.638 2.568 2.065 3.06l-.18-1.163c-.554.249-.673 1-.532 1.59.14.591.456 1.143.487 1.75.06 1.214-1.002 2.157-1.48 3.274-.33.768-.379 1.622-.503 2.448-.125.827-.353 1.686-.946 2.274-.592.59-1.647.782-2.258.21-.197-.185-.33-.427-.45-.67a10.85 10.85 0 0 1-.85-2.371c-.1-.429-.172-.877-.072-1.304.243-1.04 1.434-1.707 1.519-2.77.083-1.039-.938-2.098-.439-3.012.45-.822 1.506-.67 2.25-.97" fill="#D4DEEF"/>
        <path d="M167.882 48.884c.984-.072 1.719-.694 2.206-1.548-.932.222-1.848.678-2.206 1.548m4.045-13.14a.969.969 0 0 1 0 .176 2.412 2.412 0 0 1-.13.611c.083.005.16.005.223 0 .124-.264.047-.523-.093-.787m66.23 9.562c-.088.17-.196.341-.253.528-.062.207-.062.43-.114.637-.156.621-.73 1.025-1.248 1.403-.363.26-.72.55-.939.938-.087.16-.15.336-.248.497-.512.865-2.05 1.042-1.082-.166.596-.75 1.486-1.854 2.227-2.507.254-.222.564-.409.736-.699.28-.476.124-1.072.144-1.62.016-.55.436-1.208.964-1.052.197.668.13 1.414-.186 2.04m-48.621 18.113c-.42.378-1.025.482-1.584.394-.135.114-.037.347.113.44.15.093.337.12.467.244.233.222.14.605.175.922.068.517.508.91.628 1.414.212.906-.767 1.74-1.7 1.745-1.947.015-3.314-1.564-3.817-3.263-.29-.969-.844-3.605.648-3.755-.451-.59.02-1.243-.26-1.876-.154-.341-.538-.507-.797-.781-.518-.55-.44-1.477 0-2.093.44-.617 1.144-.979 1.849-1.253.69-.27 1.466-.477 2.144-.197.684.28 1.093 1.248.585 1.782-.549.575-1.672.243-2.175.865-.315.383-.206.989.11 1.372.32.384.797.596 1.258.777.258.104.538.223.642.477.16.378-.166.761-.373 1.113-.202.357-.161.98.249.98.399-.006.46-.57.683-.902.312-.466 1.114-.394 1.424.078.306.466.146 1.144-.27 1.517m110.45-29.974c-.042-.176-.182-.315-.322-.44a15.094 15.094 0 0 0-3.139-2.222c.715-.062 1.456-.13 2.093-.472.637-.336 1.15-1.02 1.057-1.735-.161-1.222-1.891-1.931-1.715-3.149.083-.549.56-1.103.3-1.595-.181-.337-.616-.425-.999-.476-2-.27-3.998-.54-6.003-.803.088.761-.124 1.61-.74 2.072-.622.455-1.669.305-1.964-.404-.099-.249-.109-.539-.28-.751-.357-.456-1.077-.192-1.626.02a5.14 5.14 0 0 1-3.698-.005c-.228-.093-.476-.218-.57-.446-.14-.336.094-.704.114-1.066.031-.622-.61-1.104-1.233-1.16-.616-.052-1.217.196-1.813.388-1.724.56-3.77.632-5.19-.497-.419-.332-.766-.756-1.217-1.041-.637-.405-1.418-.487-2.17-.565l-5.79-.59c-.187-.021-.4-.031-.555.077-.248.182-.206.56-.29.855-.155.575-.808.875-1.398.917-.596.041-1.197-.099-1.787-.032-.44.047-.87.213-1.31.187-.446-.026-.927-.336-.917-.777a2.043 2.043 0 0 0-.943 1.637c-1.124.124-2.538-.679-2.294-1.787.067-.285.232-.539.259-.829.15-1.802-4.305-2.201-5.31-1.424-.274.212-.486.497-.746.725-1.092.953-3.05.575-3.713-.72a18.736 18.736 0 0 0-4.755.02c-.642-1.087-2.31-.574-3.377.105-1.067.678-2.62 1.346-3.434.377a18.738 18.738 0 0 0 7.417-3.543c.217-.17.456-.403.404-.683-.03-.192-.197-.326-.357-.44a5.83 5.83 0 0 0-3.444-1.03c-.892.02-1.948.18-2.512-.504-.353-.419-.39-1.066-.819-1.413-.41-.332-.995-.254-1.512-.166l-3.44.621c-.176.032-.372.073-.496.203-.162.176-.15.445-.167.688-.098 1.512-2 2.58-3.346 1.875-.419-.222-.777-.575-1.232-.715-.575-.17-1.192.027-1.756.223l-7.122 2.47a2.75 2.75 0 0 0 2.217.38c.223.398-.358.75-.803.843-1.813.378-3.62.756-5.433 1.13a44.474 44.474 0 0 1 3.004 2.496c.466-.326.906.523.73 1.066-.171.545-.497 1.218-.082 1.606a2.294 2.294 0 0 1-1.3-1.123c.289-.213.569-.43.859-.648-.632.13-1.326-.285-1.518-.901a7.498 7.498 0 0 1-3.185-1.445c-.186.435.067 1.004.518 1.165-.425.057-.854.109-1.28.16.14.664.736 1.202 1.41 1.28a2.945 2.945 0 0 1-2.492-.523c.632-.953-.295-2.466-1.434-2.33.652.087.76 1.025.476 1.615-.29.596-.798 1.13-.788 1.787.01.808.762 1.777.135 2.29.762.637 2.181-.524 2.818.233.197.238.217.564.3.86.25.885 1.222 1.501 2.129 1.346-.523.829-1.766.01-2.336-.787-.565-.798-1.838-1.59-2.33-.746-.161.28-.13.616-.13.932-.031 2.305-2.735 4.133-4.884 3.3.818-1.01 2.74-.611 3.366-1.746.254-.466.187-1.036.11-1.56-.255-1.708-.504-3.417-.757-5.127.15-.787.207-1.595.171-2.393-.901.316-2.352.275-2.32-.679-.767 1.27-1.534 2.534-2.3 3.802-.466.762-.819 1.963-.02 2.362.533-.217 1.154.233 1.304.793.155.554-.042 1.144-.295 1.663-1.15-3.18-6.967-1.715-8.48-4.74-.693.27-.06 1.336.639 1.59.704.254 1.667.705 1.408 1.404-.197.549-.953.549-1.533.507a8.725 8.725 0 0 0-4.863 1.098c-.13-.59-.265-1.175-.394-1.76-1.223.864-2.45 1.73-3.673 2.6-.595.42-1.227.855-1.952.932-.726.072-1.56-.362-1.653-1.082-.093-.726.959-1.358 1.425-.798.202-1.326-1.611-2.435-2.699-1.647.72 1.222.74 2.828.042 4.066-.26.46-.658.895-1.176.979-.523.077-1.124-.373-1.016-.891a2.99 2.99 0 0 0-.99 2.361c-1.076.353-2.36-.067-3.029-.989l.249 1.533c-.777.834-2.476.233-2.553-.906-.021-.336.067-.668.067-1.005 0-1.15-1.016-2.004-1.938-2.693 1.379.523 2.767 1.046 4.144 1.569.777.295 1.606.596 2.419.44 1.191-.227 1.958-1.828.901-2.657a18.956 18.956 0 0 0-6.412-3.273c-.668-.191-1.383-.347-2.041-.135-.538.17-1.258.513-1.549.031.54.078 1.12-.13 1.487-.539a20.592 20.592 0 0 0-3.413-.466c-1.326 1.176-2.227 2.844-1.844 4.522.59 2.585 3.947 4.75 2.72 7.096 1.155-.258 2.36-.513 3.506-.222.617.15 1.212.512 1.616 1a.19.19 0 0 1 .005-.078c.342-.115.71-.234 1.062-.135.347.093.632.502.456.823-.12.223-.43.41-.321.637.072.146.264.166.414.213.425.13.663.678.466 1.077-.61-.036-1.223-.067-1.834-.093-.206.445-.486.87-.683 1.316-.824 1.86-.223 3.993-.156 6.023.032 1.041-.206 2.201-.725 3.103.125-.026.25-.052.373-.072 2.305-.394 4.936.19 6.35 2.056 1.41 1.864.938 5.07-1.227 5.946-.824.33-1.782.32-2.533.792-.306.187-.534.518-.637.865 1.399-.793 2.838-1.554 4.418-1.85a2.788 2.788 0 0 1-1.829 1.513c.265.171.176.617-.087.787-.264.171-.611.14-.917.078-.31-.062-.632-.145-.938-.067a.877.877 0 0 0-.585.528.882.882 0 0 0-.078.363.82.82 0 0 0 .041.248c.804-.673 2.088-.694 2.907-.036.315.254.564.586.9.813.374.249.86.363 1.146.715.279.358.082 1.072-.358.979-.015.223.217.384.435.425.218.041.456.026.653.124.456.239.372.974-.026 1.295-.4.32-.953.347-1.466.352-1.346.021-2.74.031-3.973-.518-.58-.254-1.103-.632-1.703-.844-.596-.212-1.322-.233-1.808.176-.228.192-.379.46-.596.668-.523.503-1.409.57-2 .15-.486-.352-.725-1.004-.61-1.595a7.187 7.187 0 0 0-1.378 1.927c.295.84.59 1.689.885 2.528.1.274.192.543.29.813.285.823.751 1.786 1.616 1.844 1.099.072 2.196-1.42 3.066-.073.166.26.218.57.218.88-.004.612.835 1.379 1.285.902-.052-.44-.099-.912.103-1.31.202-.394.757-.637 1.109-.363.238.186.285.523.3.818.02.44 0 .886-.057 1.32-.134 1.042-.549 2.124-1.43 2.684-.688.435-1.672.746-1.113 1.668.13.202.652-.031.798.165.326.456.098.938.145 1.477.088 1.144 1.388 1.72 2.097 2.62.984 1.244.778 3.026 1.264 4.538.99 3.092 4.885 5.076 4.667 8.313-.088 1.259-.705 2.838.332 3.563.694.482 1.642.14 2.408-.217 1.435-.663 2.874-1.331 4.315-2 .585-.269 1.206-.574 1.507-1.15.155-.3.207-.652.425-.911.32-.378.875-.43 1.346-.585 1.062-.357 1.771-1.357 2.305-2.346a16.26 16.26 0 0 0 1.347-3.388c.083-.31.16-.637.083-.953-.28-1.144-2.285-1.253-2.388-2.429-.042-.492.3-.927.46-1.393.161-.466-.015-1.155-.507-1.15-.295.87-.616 1.776-1.274 2.414-.663.642-1.782.91-2.507.347-.539-.415-.714-1.135-1.083-1.705-.559-.88-1.574-1.413-2.06-2.335-.487-.922.227-2.476 1.19-2.078a6.855 6.855 0 0 0 3.253 4.16 13.449 13.449 0 0 0 2.802-1.327c.44-.351 1.02.306 1.067.866.047.564-.041 1.248.414 1.574.234.171.545.181.834.181 2.372 0 4.74-.274 7.045-.818-.472 1.378.797 3.035 2.253 2.932-.176.564-.74.984-1.331.989.285.554.585 1.134 1.092 1.508.509.367 1.28.45 1.725.01.42-.41.477-1.171 1.02-1.399.633-.264 1.26.529 1.208 1.213-.052.683-.482 1.268-.71 1.915-.461 1.322-.031 2.772.393 4.103.824 2.569 1.679 5.205 3.362 7.318.606-.57 1.212-1.134 1.818-1.704.819.14.845 1.316.585 2.098-.264.792-.507 1.854.202 2.284.637.383 1.493-.233 1.632-.958.14-.73-.192-1.45-.512-2.118-.42-.855-.834-1.715-1.25-2.575-.144-.295-.294-.61-.269-.942.02-.285.161-.539.28-.798a4.602 4.602 0 0 0 .327-2.688 12.072 12.072 0 0 0 5.226-5.18c.176-.331.341-.683.647-.906.912-.663 2.445.27 3.253-.523a4.82 4.82 0 0 1 2.605 2.357c.389.787.751 1.833 1.626 1.9-1.34.55-2.252 2.01-2.15 3.455 1.353.342 2.844-.937 2.71-2.32.528-.3 1.228.067 1.507.606.28.538.249 1.18.213 1.782-.104 1.828-.213 3.651-.316 5.475-.031.543-.052 1.128.248 1.579.285.425.823.663 1.02 1.14.295.699-.295 1.58.089 2.237.206.347.616.502.932.746.673.518.901 1.425 1.388 2.123.487.7 1.61 1.156 2.139.488a5.081 5.081 0 0 1-1.916-3.688c-.016-.327-.006-.668-.14-.964-.166-.373-.523-.616-.824-.89-1.761-1.611-1.543-4.393-1.185-6.754a5.501 5.501 0 0 0 3.558 2.288c-.462.948-.063 2.217.854 2.735.062-.927.756-1.777 1.652-2.02.389-.108.804-.114 1.172-.274 1.102-.477 1.221-1.968 1.164-3.165-.02-.471-.046-.963-.3-1.357-.424-.647-1.284-.798-1.958-1.18-1.207-.684-1.797-2.295-1.31-3.6.481-1.3 1.978-2.14 3.341-1.865.45.197.249.911-.146 1.207-.394.295-.932.47-1.113.932-.26.632.507 1.336 1.175 1.192.669-.14 1.098-.85 1.146-1.534.04-.684-.208-1.347-.456-1.989 1.44.316 3.024-.192 4.014-1.279.28-.305.528-.663.885-.87.7-.41 1.7-.187 2.274-.762.44-.44.41-1.145.544-1.75.254-1.13 1.124-1.994 1.642-3.025.507-1.03 1.015-2.616.74-3.755-.196-.829-.626-1.58-.922-2.378a7.818 7.818 0 0 1-.434-1.75c-.032-.244-.052-.513.061-.73.203-.39.7-.483 1.073-.71.554-.342.844-1.062.678-1.689-1.537.513-3.34.124-4.526-.984.341-.663 1.102-.974 1.76-1.326.663-.347 1.353-.917 1.322-1.668.419 0 .833 0 1.247-.005a2.184 2.184 0 0 1-.828 1.792c.57.492 1.424.026 2.098-.326.668-.352 1.787-.352 1.87.399.077.72-1.016 1.207-.866 1.916.767-.259 1.586.762 1.171 1.456-.114.186-.295.367-.264.585.036.264.347.367.58.497.647.342.927 1.233.596 1.885.45-.352.9-.699 1.351-1.051.104.415.57.694.99.601.414-.099.704-.565.611-.98-.088-.408-.466-.693-.59-1.087-.187-.595.238-1.258.03-1.85-.16-.46-.652-.704-1.051-.993-.399-.29-.756-.813-.518-1.243.145-.264.456-.373.71-.529 1.269-.787 1.538-3.03 3.03-3.082.3-.01.595.084.891.042.849-.12 1.144-1.15 1.543-1.911.88-1.694 2.932-2.518 3.859-4.19.71-1.285.626-2.854 1.046-4.269.306-1.025.886-2.092.528-3.102-.445-1.258-2.48-1.507-3.216-.389.119-.631.238-1.263.363-1.9-.446 1.434-3.404.14-.83-1.264a15.215 15.215 0 0 0 4.497-3.724c.42-.513.818-1.068 1.368-1.44 2.024-1.368 4.811.326 7.183-.27.083.233.16.467.243.7-.637.264-1.268.533-1.9.797 1.336.627 2.776-.86 4.252-.797.43.015 1.051.02 1.077-.405-.399-.062-.912-.279-.839-.673.026-.144.13-.259.233-.362.384-.41.772-.813 1.16-1.223.648-.683 1.694-1.408 2.435-.818.56.45.3 1.533-.404 1.683.46.461 1.243.042 1.704-.424.46-.461 1.056-1.02 1.668-.782.17-.342.17-.762.01-1.103a2.11 2.11 0 0 1 1.632-.172 1.822 1.822 0 0 0-.617 1.098c-.046.275-.026.555-.109.819-.295.984-1.61 1.098-2.537 1.549-1.638.792-2.207 2.89-3.678 3.952-.362.264-.772.46-1.072.792-.647.715-.565 1.829-.264 2.745.31.917.802 1.797.86 2.761a3.7 3.7 0 0 1-.01.538c-.069.643.72 1 1.17.544.109-.114.217-.223.326-.331.524-.539 1.067-1.093 1.331-1.797.181-.498.264-1.104.726-1.362.336-.192.755-.11 1.138-.177.384-.062.793-.45.602-.792-.628-.446-.519-1.57.176-1.896.29.135.58.274.87.415.689-.317-.352-1.446.026-2.104.145-.253.492-.409.481-.699-.01-.363-.523-.425-.88-.367-.239-1.176.575-2.466 1.735-2.756l-.062.735c.575-.362 1.15-.725 1.725-1.092.103.28.202.56.3.844.689.357 1.228-1.212 1.942-.922.156.068.26.207.389.31.513.42 1.434.1 1.574-.549.534-2.455 3.517-2.568 6.02-2.776.58-.046 1.382-.3 1.247-.87" fill="#C2CEFF" fill-rule="nonzero"/>
        <path d="M172.693 124.142c-.066.48-.606.929-1.021.68-.016-1.282-.29-2.545-.566-3.799l-.395-1.8c-.06-.279-.147-.59-.396-.725-.179-.097-.408-.08-.571-.2-.247-.18-.229-.565-.434-.793-.267-.295-.768-.19-1.106-.402-.335-.21-.414-.654-.46-1.048l-.51-4.341c-.02-.167-.037-.35.052-.494.098-.16.296-.223.472-.29a3.237 3.237 0 0 0 1.75-1.604c.15-.311.252-.648.455-.926.738-1.001 1.728-.703 1.812.28.118 1.364-.424 1.19-1.188 1.67-.586.368-1.595.986-1.999 1.597-.608.923-.068 1.182.352 2.08.387.832.017 1.952.627 2.64.394.446 1.057.526 1.56.845.786.498 1.077 1.507 1.13 2.435.052.929-.07 1.877.165 2.778.12.47.338.937.271 1.417m14.284-28.406c-2.333 1.58-5.385 2.051-8.087 1.25-.303-.088-.632-.219-.77-.505-.208-.427.123-.91.184-1.382.171-1.355-1.757-1.94-2.371-3.157-.244-.482-.263-1.04-.304-1.578-.375-4.767-2.857-9.062-4.95-13.362-.15-.313-.305-.653-.242-.997.064-.34.457-.636.762-.468-.228.81.27 1.755 1.065 2.027.364-1.387.561-3.209-.681-3.922-.423-.243-.93-.286-1.417-.31a27.33 27.33 0 0 0-5.742.321c-.318.051-.664.103-.94-.06-.244-.145-.37-.423-.54-.65-.466-.623-1.707-.96-2.366-.418-.73.604-.173 1.916-1.572 2.099-.795.103-1.555-.305-2.252-.7-.745-.423-1.506-.86-2.049-1.52-.192-.238-.362-.503-.62-.665-.495-.312-1.132-.143-1.716-.15-.585-.004-1.299-.43-1.141-.992.049-.175.176-.315.276-.467.736-1.128-.238-2.734-1.52-3.142-1.284-.408-2.668-.002-3.953.403a5492.11 5492.11 0 0 1-5.78 1.824c-.727.23-1.49.462-2.24.326-.644-.118-1.32-.499-1.907-.213-.798.387-.67 1.575-1.15 2.32-.46.712-1.443.94-1.917 1.645-.55.815-.223 1.902-.28 2.884-.113 1.892-1.668 3.328-3.035 4.642-1.368 1.312-2.757 3.023-2.405 4.886.107.572.377 1.112.417 1.692.032.481-.095.956-.223 1.42-.4 1.466-.8 2.932-1.202 4.399a68.374 68.374 0 0 0 4.454 6.876c.8 1.085 1.648 2.164 2.755 2.93 1.106.77 2.518 1.199 3.82.852.583-.155 1.128-.459 1.729-.52.837-.088 1.66.306 2.498.27.98-.042 1.831-.653 2.62-1.238.787-.585 1.644-1.19 2.624-1.219.981-.028 2.038.824 1.83 1.781-.046.21-.148.418-.117.63.063.457.653.614 1.108.552.456-.062.942-.23 1.355-.028.562.276.625 1.069.44 1.667-.253.812-.796 1.497-1.156 2.265-.361.77-.51 1.746.003 2.423.265.351.669.567.997.86.548.484.876 1.168 1.14 1.85 1.141 2.916 1.394 6.168.76 9.233-.28 1.353-1.142 2.457-1.413 3.707-.305 1.41.82 2.986 1.479 4.135a13.263 13.263 0 0 1 1.728 5.745c.049.802.035 1.643.401 2.358.277.535.74.945 1.124 1.41 1.464 1.787 1.648 4.267 1.77 6.575.308.411.944.407 1.41.19.465-.22.84-.596 1.293-.84 1.135-.61 2.524-.292 3.804-.437 2.205-.25 4.14-2.07 4.52-4.255.108-.607.11-1.244.371-1.8.392-.839 1.336-1.408 1.463-2.325.05-.364-.042-.742.038-1.101.251-1.133 1.985-1.49 2.134-2.64.073-.553-.265-1.063-.48-1.578-.637-1.528-.1-3.458 1.233-4.438.498-.367 1.08-.606 1.59-.958 2.45-1.7 2.395-5.386 1.363-8.184-.404-1.091-.922-2.193-.847-3.355.05-.765.355-1.491.713-2.17a14.467 14.467 0 0 1 3.633-4.449c.972-.794 2.089-1.509 2.644-2.635.34-.688.435-1.471.7-2.19.483-1.313 1.493-2.345 2.281-3.499.786-1.153 1.37-2.63.856-3.93" fill="#57F" fill-rule="nonzero"/>
        <g transform="translate(38.207)">
            <mask id="b" fill="#fff">
                <use xlink:href="#a"/>
            </mask>
            <path d="M36.118 84.456c.517.52 1.316-.263 2.044-.354.703-.087 1.279.503 1.806.977.528.473 1.35.87 1.899.422.263 1.096 1.787 1.643 2.687.964-.082.387.428.652.817.584.389-.068.737-.314 1.13-.343.571-.04 1.121.464 1.128 1.036.013.209-.28.286-.483.233-.203-.053-.428-.158-.606-.048-.126.077-.174.232-.262.351-.317.432-.985.268-1.491.093-.507-.175-1.229-.225-1.422.275 1.593.314 3.25.29 4.831-.072-.13.125-.034.365.13.438.166.073.356.032.53-.01l2.026-.487c.407.247.949.248 1.357.004l-.084.557c.793.343 1.816.015 2.26-.726l-3.369-.558c-.806-.134-1.632-.275-2.336-.689-.694-.408-1.246-1.07-2.012-1.319-1.069-.347-2.298.198-3.338-.23-1.006-.414-1.64-1.667-2.728-1.688-.354-.006-.727.125-1.049-.023-.815-.374-.708-1.147-1.764-.744-.198.076-1.523 1.536-1.701 1.357m-8.777-71.54c.341-.235.959-.037 1.116-.42.119-.289-.19-.564-.462-.717-.272-.153-.596-.39-.522-.693a1.076 1.076 0 0 1-.706-.147l1.563-.41c.198-.053.45-.232.332-.4-.04-.058-.112-.082-.18-.1-.323-.083-.674-.093-.958-.268-.283-.176-.441-.616-.194-.84l-.535-.048a51.247 51.247 0 0 1-.023-.425c-.924-.025-1.845-.1-2.76-.225-.134.617.46 1.275 1.088 1.205.101-.012.214-.036.297.022.075.052.098.15.137.231a.544.544 0 0 0 .69.25 1.053 1.053 0 0 1-.349.449c.298.158.626.261.96.3-.263.21-.576.358-.905.43l.407.33-1.044.021c-.107.328.213.642.533.77.354.14 2.077 1.237 1.044 1.726-.587.278-.833-.69-.626-1.06.329.758.228 1.816.803 2.48.42.484 1.058.574 1.466-.065.705-1.103-1.001-1.435-1.172-2.396m13.66 1.34a5.191 5.191 0 0 0-3.882-.58c-.941.234-1.822.737-2.79.805-1.415.099-2.77-.789-3.54-1.979 1.072-.735 2.64.706 3.77.064.326-.186.553-.522.895-.674.35-.155.752-.09 1.128-.023l5.43.972c.213-.774-.448-1.659-1.251-1.674l2.845-1.145c.478-.193.99-.414 1.251-.86.261-.444.076-1.166-.436-1.23a38.93 38.93 0 0 0 6.313-2.85l-.608-1.052a5.48 5.48 0 0 0 3.95-1.166 13.52 13.52 0 0 0-4.688.438c2.616.33 5.323-.11 7.7-1.25-.854-.745-2.407.224-3.248-.535-.253-.227-.378-.571-.635-.793C52.889.45 52.44.413 52.022.39A78.493 78.493 0 0 0 39.22.752c-.7.077-1.586.348-1.626 1.052l-3.051-.126c-.732.986-2.174 1.368-3.298.876l-.764 1.21c.712.49 1.6.715 2.457.623.525 1.08 2.225 1.318 3.025.421.356 1.225 2.187.995 3.274.327 1.086-.668 2.48-1.52 3.498-.752a7.285 7.285 0 0 1-4.79 1.499l1.283 1.543c-1.049.064-1.979-.602-2.895-1.114-.917-.512-2.12-.872-2.966-.252l2.297 1.875-6.332-3.336c-.619-.325-1.334-.66-1.99-.417-.655.244-.853 1.39-.178 1.573a1.44 1.44 0 0 0-1.109 1.028c1.25.1 2.48.448 3.6 1.017l-1.58.506 3.607 1.175c.245.08.524.157.75.033.227-.126.309-.404.435-.63.378-.677 1.348-.938 2.014-.54l-.458 1.088 1.704.01.029.935c.823.127 1.67.103 2.485-.07-.298 1.105-1.901 1.202-2.901.646-1-.556-1.787-1.508-2.889-1.82a5.319 5.319 0 0 0 1.62 2.1 8.8 8.8 0 0 0-4.395.42l-.41-.884c-1.149.478-.975 2.14-.6 3.327.109.348.224.706.455.99.523.64 1.458.715 2.286.738l3.736.108c1.733.05 5.526.864 5.46-1.676m-16.689 3.036c.368-.266.125-.921-.31-1.05-.434-.128-.894.102-1.252.38l-.068 1.117c-.43-.091-.895 0-1.26.245.636.17 1.157.712 1.303 1.353-.605.415-1.564.124-1.835-.558-.127-.316-.172-.742-.496-.847-.458-.149-.726.577-.515 1.01.56 1.145 2.264 1.07 3.215 1.918.341.306.86.74 1.15.386.23-.282-.07-.68-.349-.916.338.043.696.074 1.002-.074.305-.147.517-.54.351-.837-.086-.154-.248-.246-.385-.357a1.527 1.527 0 0 1-.424-1.756l-.545-.23m.793-3.432c.238-.277.092-.74-.205-.952-.296-.212-.685-.24-1.05-.241a11.887 11.887 0 0 0-3.16.406c-.32.085-.65.185-.972.116-.323-.068-.623-.376-.55-.698-.442.496.089 1.32.73 1.49.64.172 1.319-.025 1.981.01.662.036 1.421.491 1.351 1.15-.016.158-.08.324-.014.468.077.172.298.224.487.215.881-.041 1.556-1.08 1.235-1.903a.509.509 0 0 1-.527-.285c.387-.152.69-.503.784-.908a2.668 2.668 0 0 0-2.227.174m-.016-3.336c-.29.015-.464-.33-.477-.62-.013-.291.05-.605-.093-.858-.353-.623-1.308-.162-2.016-.276-.42-.068-.766-.36-1.165-.51-.399-.148-.965-.065-1.08.345-.128.46.432.827.908.838.477.009.968-.16 1.42-.01.085.028.169.07.222.141.336.45-.872.777-.761 1.327.055.27.393.354.667.384l1.22.13c.424.046.893.08 1.233-.176.341-.256.35-.918-.064-1.02m-9.362.105a7.161 7.161 0 0 0-3.93.654l1.967.888c.149.067.305.136.468.133.145-.002.282-.06.415-.118l1.896-.815-.328-.48c.282.191.707-.087.725-.428.019-.34-.268-.638-.594-.74-.325-.1-.677-.045-1.01.033a7.353 7.353 0 0 0-1.129.368c.192.403.573.713 1.007.82l.02.477m-.528 4.397a.457.457 0 0 0 .22-.506c-.886.03-1.73-.706-1.822-1.588-.504-.322-1.276-.072-1.494.486-.219.557.176 1.265.765 1.372L7.26 15.203c1.64.884 3.586-1.04 5.409-.655-.002.22-.002.44-.003.661a2.812 2.812 0 0 0-2.073.97 6.288 6.288 0 0 0 3.9-.95c.325-.207.648-.45 1.03-.504.335-.048.67.058 1.004.106.793.112 1.798-.337 1.77-1.137a4.21 4.21 0 0 0-1.668-.204c-.172-1.04-1.471-1.714-2.42-1.256.015.716.35 1.419.895 1.884a1.782 1.782 0 0 1-2.004.202c-.295-.169-.567-.432-.907-.434-.365-.002-.838.262-1.024-.053m-3.456-3.465c-.847-.423-1.879.036-2.597.653S3.8 12.429 2.94 12.829c-.406.19-.887.307-1.138.678a39.69 39.69 0 0 0 4.267-.29c-.08.482-.321.935-.676 1.27.663.242 1.215-.593 1.306-1.293.028-.219.055-.464.228-.6.14-.108.33-.108.505-.137.6-.096 1.128-.666 1.055-1.27-.073-.603-.867-1.029-1.356-.668m-4.846 4.93c-.902.097-1.405 1.108-1.52 2.007-.116.9-.028 1.867-.471 2.658-.11.196-.252.382-.287.602-.1.633.72 1.038 1.353.937 1.843-.295 3-2.813 4.84-2.5l.054 1.482c1.212.01 2.425-.165 3.585-.518.353.228.155.827-.222 1.014-.377.187-.822.124-1.24.163-.42.038-.896.265-.941.683.81-.235 1.655-.472 2.483-.313.826.158 1.618.846 1.59 1.688a21.674 21.674 0 0 0-3.516.128c.642.762 1.807.672 2.797.779.992.106 2.168.901 1.818 1.834 1.342-1.414 3.583-1.89 5.383-1.14.45.186.877.443 1.355.54.477.095 1.043-.015 1.31-.423.267-.407.001-1.099-.487-1.084a1.634 1.634 0 0 0 1.333-1.209c-1.086.353-2.393-.248-2.83-1.303-.398-.956-.162-2.185-.875-2.937.622.187 1.24-.552 1.09-1.184-.15-.63-.83-1.026-1.48-1.042-.426-.01-.884.132-1.136.476-.252.346-.205.912.165 1.125l-1.501-.73c-.199 1.224 2.208 1.955 1.643 3.06-.36.704-1.585.26-1.73-.518-.095-.512.023-1.193-.445-1.419-.894-.432-1.546 1.76-2.4 1.255l.161-1.475a4.02 4.02 0 0 0-3.035 1.067l.3-1.428c-1.194-.663-2.379 1.684-3.669 1.238 1.242.43 4.019-1.994 1.834-3.02-.523-.247-1.616.137-2.198.096-1.022-.071-2.084-.699-3.111-.588m98.111-13.401a6.73 6.73 0 0 1-3.95 3.075c-.777.22-1.64.322-2.226.877-.363.343-.568.816-.764 1.276-.383.905-.774 1.837-.795 2.82-.021.982.415 2.04 1.299 2.47-1.233.61-1.353 2.648-.202 3.4-.47 1.173-2.44.518-3.37 1.375-.721.666-.441 1.86-.006 2.74.435.88.987 1.866.636 2.784l-3.965-1.546c-.5 1.078.936 2.414 1.975 1.84-1 1.798-3.669 1.444-5.543 2.295-2.002.91-3.078 3.247-5.1 4.106-.996.424-2.129.441-3.12.873-.992.432-1.85 1.577-1.383 2.553.093.193.236.382.21.595-.026.223-.226.377-.397.523-1.625 1.386-1.643 3.845-1.53 5.976-.579.435-1.396-.155-1.715-.804-.32-.649-.484-1.445-1.095-1.833-.609-.385-1.425-.2-2.091-.475-.609-.251-.997-.839-1.349-1.394L63.94 32.45c-.554-.877-1.122-1.787-1.278-2.813-.154-1.027.216-2.207 1.137-2.685.651-.337 1.708-.848 1.237-1.41-.105-.125-.267-.184-.421-.24L61.03 24.03c.465-1.44 2.134-2.37 3.602-2.01.542-.864-.71-1.813-1.729-1.796-1.02.017-2.156.387-2.983-.209.77-1.073.73-2.593.11-3.758-.621-1.166-1.738-2.006-2.946-2.538-.54-.238-1.112-.424-1.7-.432-.93-.014-1.823.413-2.752.42-1.317.007-2.52-.846-3.275-1.925-.755-1.08-1.141-2.367-1.516-3.63 1.06.587 2.46.62 3.446-.085.986-.704 1.392-2.187.747-3.213l4.023-.9c.34-.076.686-.156.98-.341.374-.237.627-.625.967-.91.653-.547 1.551-.663 2.397-.757l6.789-.754c.435-.049.882-.096 1.304.016 1.113.296 2.121 1.644 3.12 1.07.04-.437-.092-.889-.36-1.237 1.272-.586 2.743-.406 4.143-.386 2.823.042 5.616-.611 8.437-.653 2.77-.04 5.545.517 8.084 1.624-.85.587-1.82.999-2.831 1.202a4.317 4.317 0 0 1 1.94.33c-.486-.205-2.684 1.53-3.034 1.842 1.196.93 3.825-.994 5.061-1.584 2.34-1.115 4.73-1.754 7.343-1.367" fill="#98ABF6" fill-rule="nonzero" mask="url(#b)"/>
        </g>
        <path d="M36.088 21.707c-2.983 1.242-6.079 2.479-9.31 2.44-1.402-.018-2.787-.276-4.164-.534-2.995-.56-6.02-1.129-8.807-2.36-.744-.33-1.492-.711-2.305-.761-.908-.056-1.785.311-2.6.715a24.741 24.741 0 0 0-6.66 4.838 7.89 7.89 0 0 1 5.075 3.089c-.95.46-2.228.036-2.713-.9-1.273-.369-2.757.638-2.883 1.958-.126 1.32 1.14 2.59 2.46 2.468a2.974 2.974 0 0 1 1.964-1.145l1.09 1.837c-.634.765-1.75.844-2.718 1.064-.97.22-2.062.903-1.95 1.89.186 1.646 3.346 1.785 3.208 3.435.047-.56 6.579-.996 3.419 2.754-.495.587-1.24 1.013-2.005.945.213.602.165 1.35-.308 1.778-.473.427-1.402.274-1.551-.347-.507 1.082-1.902 1.338-3.09 1.456l-.423 1.435c-.096-.597-.884-.95-1.398-.633-.515.316-.565 1.165-.096 1.547.435.356 1.069.27 1.62.165.206-.04.442-.1.53-.29.056-.117.04-.252.043-.38.021-.629.57-1.126 1.157-1.349.588-.223 1.23-.247 1.842-.39 1.01-.236 1.922-.79 2.73-1.442.882-.708 1.674-1.548 2.672-2.078.383-.203.79-.357 1.159-.586 2.708-1.68.981-4.587 4.989-5.087a1.25 1.25 0 0 1-.86 1.284c1.283.949 2.688-2.038 4.192-1.503.424.15.698.554 1.062.818.676.488 1.579.454 2.41.525 3.307.281 6.325 2.734 7.276 5.914 1.447-.427 2.651 1.118 3.372 2.444l3.566 6.565c.755 1.39 1.517 2.797 1.91 4.33.56 2.19.334 4.52.858 6.72.524 2.201 2.219 4.439 4.48 4.38a28.29 28.29 0 0 0 2.96 9.908c-.772.784.47 1.945 1.528 2.253 1.058.308 2.45 1.09 1.988 2.09 1.247-1.387-.34-3.48-1.86-4.564-1.518-1.085-3.3-2.88-2.35-4.486.518-.522 1.425.088 1.67.781.244.694.221 1.516.712 2.065.43.48 1.124.601 1.677.93 2.01 1.193 1.587 4.581 3.532 5.876.71.474 1.643.584 2.259 1.174.442.425.648 1.031.936 1.572 1.022 1.908 3.075 2.99 5.01 3.959l1.695.847 9.697 4.855c.311.156.67.314.993.186 1.33-.525-1.385-2.888-.257-3.764L70.758 90.1c.992-.884 1.123-2.57.28-3.598a1.633 1.633 0 0 0 1.196-1.222c-.7-.727-1.979-.126-2.522.724-.543.85-.761 1.92-1.493 2.614-1.657 1.571-4.59-.096-5.23-2.288-.64-2.191.092-4.515.337-6.785.098-.917.176-1.963.903-2.531 1.66-1.3 4.105 1.442 6.031.584.738-.328 1.173-1.114 1.868-1.524 1.198-.71 2.827-.052 3.657 1.065.83 1.118 1.062 2.555 1.27 3.931.393.644 1.483-.067 1.421-.818-.06-.75-.679-1.313-1.087-1.946-1.043-1.616-.57-4.02 1.006-5.121 1.402-.98 3.71-1.363 3.8-3.07.06-1.104-.99-2.008-1.032-3.112-.038-.971.697-1.78 1.384-2.47l5.818-5.842c.456-.457 1.008-.95 1.648-.878.642.072.999 1.132.389 1.342 2.286.088 5.351-.464 5.534-2.745a8.778 8.778 0 0 1-3.193 1.785 4.287 4.287 0 0 1 .868-3.079c-.851-1.468-2.89-1.872-4.51-1.366-1.62.505-2.918 1.7-4.159 2.858 1.863-2.198 4.355-4.039 7.216-4.373 1.078-.126 2.233-.051 3.17-.598 1.305-.76 2.46-2.675 3.774-1.933l-2.879 5.052 3.105-.23c.42.717.626 1.559.582 2.39 1.267-.089 3.009-.924 2.443-2.06-.287-.578-1.037-.722-1.536-1.131-1.37-1.123-.303-3.43-.99-5.063-.343-.817-1.093-1.376-1.778-1.937a22.111 22.111 0 0 1-6.559-9.045c-.333.833-.698 1.71-1.418 2.245-.72.535-1.91.544-2.383-.218-.26-.418-.245-.944-.38-1.418-.307-1.071-1.332-1.75-2.281-2.334-1.153-.708-2.51-1.444-3.79-1.002-1.278.441-1.574 2.743-.238 2.955-1.245.045-1.204 1.98-.494 3.003.71 1.024 1.708 2.299 1.027 3.342-.603.925-2.133.834-2.74 1.757-.586.889.05 2.034.496 3.001.445.967.434 2.488-.61 2.694-.892.177-1.54-.856-1.706-1.75-.262-1.407-.077-2.933-.734-4.204-.658-1.27-2.769-1.87-3.43-.601a4.129 4.129 0 0 0-2.694-2.773c-1.042-.325-2.202-.227-3.192-.688-1.48-.69-2.145-2.394-2.673-3.94 1.932-1.105 3.992-2.349 4.853-4.401.232-.553.383-1.172.821-1.58.394-.37.954-.5 1.392-.815.439-.315.717-1.006.324-1.375a2.817 2.817 0 0 1 1.918-.37c1.123 1.522-2.32 4.116-.698 5.092.872.525 1.817-.554 2.268-1.468l2.118.853c.91-.739-.159-2.153-1.201-2.69-1.043-.537-2.364-1.504-1.84-2.554l2.8-.05c.057-.892-.534-1.787-1.377-2.082l1.441-2.223a1.85 1.85 0 0 0-1.775-.541 18.255 18.255 0 0 0 5.446-1.705 61.76 61.76 0 0 1 3.945 5.004c.198.278.4.584.394.924-.017.744-.916 1.063-1.567 1.426-.65.363-1.042 1.517-.32 1.7-.1.551-.926.546-1.392.235-.465-.31-.891-.8-1.45-.767-1.056.062-.882 1.924.128 2.238 1.01.315 2.042-.337 2.9-.957a19.016 19.016 0 0 0 6.856 3.957c-1.021-.213-1.764-1.32-1.576-2.345 1.184.342 2.313.877 3.326 1.578.86-1.046-.243-2.567-1.37-3.318-1.128-.751-2.54-1.68-2.363-3.024 1.48-.037 2.948.807 3.661 2.104l1.683-2.392c-.634-2.097-4.68-1.455-5.102-3.605-.081-.416 0-.892-.26-1.226-.404-.518-1.212-.264-1.87-.285-2.3-.071-3.692-3.923-5.815-3.034.887-1.662-1.636-3.766-3.11-2.594.81.301 1.691.72 1.987 1.532.294.813-.567 1.924-1.32 1.5-.763-.427-.399-1.635-.82-2.402-.512-.933-2.053-.747-2.673.118-.62.865-.543 2.045-.294 3.08l-1.537-.038a8.242 8.242 0 0 1 .807-4.231c-.6-.896-1.964-.036-2.625.816-.694.896-1.409 1.835-1.626 2.947-.216 1.112.238 2.443 1.297 2.844.68.257 1.466.092 2.141.36 1.547.608.938 3.495-.724 3.428a6.023 6.023 0 0 1-.865-2.802c-.8.234-1.547.651-2.167 1.21a20.659 20.659 0 0 0-3.334-5.535l.993-1.92c1.332.582 3.04-.844 2.704-2.26-1.108-.31-2.271-.622-3.394-.37-1.121.254-2.16 1.28-2.003 2.419.094.683.58 1.25.759 1.916.179.666-.221 1.598-.902 1.486-.356 1.618 3.075 1.657 3.228 3.308.109 1.157-1.462 1.613-2.625 1.597a5.218 5.218 0 0 1-.147 3.43c-.872-1.638-.395-3.871 1.07-5.01-.879-1.351-2.913-1.777-4.26-.891a3.78 3.78 0 0 0 2.193 1.573l-1.41 1.636c-1.018-.733-2.414-.158-3.667-.086-1.252.071-2.775-1.312-1.89-2.201-.753-.456-1.775-.612-2.49-.099-.716.513-.775 1.816.022 2.187-1.663.428-4.421-2.632-5.625-.288-.754-2.385-1.966-3.096-4.355-3.218-1.585-.081-6.284-1.256-7.094.077-.071-.172-.735-1.853-.704-1.866" fill="#57F" fill-rule="nonzero"/>
        <g transform="translate(75.328 94.982)">
            <mask id="d" fill="#fff">
                <use xlink:href="#c"/>
            </mask>
            <path d="M.535 3.364C.125 4.46 1.445 5.74 2.529 5.3c.313-.128.585-.36.918-.419.931-.162 1.467 1.01 1.664 1.935.225 1.058.445 2.188.051 3.196-.472 1.207-1.766 2.05-1.917 3.338-.124 1.052.57 2.138.213 3.136-.16.452-.52.812-.69 1.262-.304.806.059 1.695.416 2.48l3.56 7.817c.267.587.553 1.197 1.065 1.588.408.31.92.452 1.352.727.705.45 1.136 1.214 1.54 1.947.745 1.356 1.5 2.737 1.819 4.252.435 2.065.025 4.204-.383 6.275-.599 3.028-1.198 6.056-1.795 9.084-.66 3.331-1.317 6.662-1.975 9.993a3.164 3.164 0 0 0 1.418-1.943 9.772 9.772 0 0 1-1.19 6.339c-.094-.818-.19-1.636-.285-2.453a13.096 13.096 0 0 0-1.209 5.571c.003.344.033.723.272.971.227.235.58.287.87.44.63.329.9 1.205.565 1.833l1 .23c.516.41-.702.982-.698 1.64.002.268.22.479.42.655l2.829 2.492c.656.195 1.34.391 2.016.286.677-.106 1.344-.605 1.406-1.287.086-.936-.888-1.562-1.517-2.26-.977-1.083-1.215-2.678-.969-4.116.246-1.438.916-2.764 1.578-4.064l-1.284-.483c.032-.96 1.012-1.556 1.632-2.291 1.126-1.335 1.002-3.546-.266-4.748l1.407-.991 1.155 1.844c.962-.771 1.322-2.207.839-3.343 2.18.56 4.644-1.227 4.79-3.473-.54-.018-.966-.638-.79-1.149.176-.51.894-.736 1.33-.418-.24.624.472 1.304 1.135 1.223.664-.083 1.16-.678 1.383-1.308.223-.63.242-1.312.366-1.968a6.253 6.253 0 0 1 1.369-2.87c.576-.68 1.315-1.26 1.65-2.085.247-.605.249-1.276.354-1.92.34-2.102 1.89-3.965 3.896-4.682.083.94 1.567.746 2.263.108a6.29 6.29 0 0 0 1.954-3.659c.186-1.222.02-2.541.6-3.634.245-.463.616-.866.756-1.37.12-.432.057-.891.08-1.34.128-2.404 2.704-4.303 2.403-6.692-.195-1.552-1.544-2.662-2.791-3.605-1.906-1.44-3.93-2.93-6.3-3.227-1.505-.188-3.124.11-4.477-.576.601-.036 1.028-.664 1.059-1.267.03-.602-.23-1.176-.485-1.723l-.516-1.106c-.699-1.5-1.845-3.259-3.482-3.023-.487.07-1.02.314-1.435.05-.381-.244-.423-.772-.63-1.173-.806-1.57-3.866-.93-4.33-2.634-.12-.444-.02-.982-.339-1.313-.258-.268-.68-.273-1.052-.26l-5.077.188a1.938 1.938 0 0 1-1.095 1.561l.264 1.169c-.138.691-1.3.607-1.605-.03-.304-.637-.01-1.392.346-2 .359-.61.797-1.23.787-1.935C9.97-.274 9.192.524 8.638 1.17c-.554.646-1.64 1.205-2.148.523L6.686 3.8c-1.091.953-3.056.537-3.668-.776-.421.52-.885 1.07-1.53 1.252-.645.181-1.49-.223-1.488-.894.33 1.45 1.764 2.566 3.25 2.531" fill="#C2CEFF" fill-rule="nonzero" mask="url(#d)"/>
        </g>
        <g fill="#FFF" fill-rule="nonzero">
            <path d="M383.406 28a.162.162 0 0 0 .119-.049.162.162 0 0 0 .049-.119v-1.064a.162.162 0 0 0-.049-.119.162.162 0 0 0-.119-.049h-4.69c-.047 0-.07-.023-.07-.07v-8.162a.162.162 0 0 0-.049-.119.162.162 0 0 0-.119-.049h-1.288a.162.162 0 0 0-.119.049.162.162 0 0 0-.049.119v9.464c0 .047.016.086.049.119a.162.162 0 0 0 .119.049h6.216zm5.094.112c.719 0 1.34-.189 1.862-.567.523-.378.891-.898 1.106-1.561a5.028 5.028 0 0 0 .238-1.596c0-.616-.084-1.148-.252-1.596-.215-.644-.581-1.148-1.099-1.512-.518-.364-1.132-.546-1.841-.546-.747 0-1.386.182-1.918.546-.532.364-.905.873-1.12 1.526-.15.467-.224.999-.224 1.596 0 .56.08 1.092.238 1.596.215.663.586 1.18 1.113 1.554.527.373 1.16.56 1.897.56zm0-1.4c-.364 0-.674-.098-.931-.294-.257-.196-.436-.471-.539-.826a4.32 4.32 0 0 1-.14-1.176c0-.457.047-.85.14-1.176.112-.355.294-.628.546-.819a1.44 1.44 0 0 1 .896-.287c.364 0 .672.096.924.287.252.191.43.464.532.819.093.28.14.672.14 1.176 0 .476-.047.868-.14 1.176-.112.355-.292.63-.539.826a1.388 1.388 0 0 1-.889.294zm8.328 1.4c.728 0 1.363-.175 1.904-.525.541-.35.9-.824 1.078-1.421.019-.065.042-.173.07-.322.01-.056-.002-.1-.035-.133a.227.227 0 0 0-.119-.063l-1.26-.196c-.103-.019-.168.028-.196.14 0 .019-.005.033-.014.042a.156.156 0 0 1-.014.07c-.075.308-.24.553-.497.735a1.544 1.544 0 0 1-.917.273c-.364 0-.667-.096-.91-.287a1.474 1.474 0 0 1-.504-.777c-.084-.317-.126-.733-.126-1.246 0-.532.047-.947.14-1.246.084-.317.25-.567.497-.749.247-.182.548-.273.903-.273.345 0 .644.084.896.252.252.168.42.383.504.644.019.056.037.121.056.196.01.028.014.065.014.112.028.093.084.14.168.14h.028l1.26-.182c.103-.019.154-.075.154-.168V23.1a2.568 2.568 0 0 0-.098-.448c-.177-.55-.537-1.008-1.078-1.372-.541-.364-1.176-.546-1.904-.546-.719 0-1.342.18-1.869.539-.527.36-.889.847-1.085 1.463-.15.43-.224.98-.224 1.652 0 .7.075 1.26.224 1.68.205.625.57 1.122 1.092 1.491.523.369 1.143.553 1.862.553zm7.04 0c.868 0 1.53-.252 1.988-.756.019-.019.037-.026.056-.021.019.005.028.021.028.049v.448c0 .047.016.086.049.119a.162.162 0 0 0 .119.049h1.288a.162.162 0 0 0 .119-.049.162.162 0 0 0 .049-.119v-4.718c0-.457-.121-.866-.364-1.225-.243-.36-.588-.642-1.036-.847-.448-.205-.966-.308-1.554-.308-.812 0-1.486.182-2.023.546-.537.364-.842.83-.917 1.4-.01.037.002.068.035.091.033.023.072.04.119.049l1.358.168c.103.019.168-.028.196-.14a.822.822 0 0 1 .413-.525c.22-.126.506-.189.861-.189.43 0 .751.1.966.301.215.2.322.483.322.847v.336c0 .047-.023.07-.07.07h-1.498c-.924 0-1.64.203-2.149.609-.509.406-.763.973-.763 1.701 0 .7.226 1.227.679 1.582.453.355 1.029.532 1.729.532zm.406-1.288c-.345 0-.628-.082-.847-.245-.22-.163-.329-.394-.329-.693 0-.345.142-.611.427-.798.285-.187.674-.28 1.169-.28h1.176c.047 0 .07.023.07.07v.658c0 .373-.163.681-.49.924-.327.243-.719.364-1.176.364zm8.188 1.204.728-.014c.112-.019.168-.08.168-.182v-1.05a.162.162 0 0 0-.049-.119.162.162 0 0 0-.119-.049h-.42c-.336 0-.581-.08-.735-.238-.154-.159-.231-.415-.231-.77v-3.374c0-.047.023-.07.07-.07h1.428a.162.162 0 0 0 .119-.049.162.162 0 0 0 .049-.119v-.98a.162.162 0 0 0-.049-.119.162.162 0 0 0-.119-.049h-1.428c-.047 0-.07-.023-.07-.07v-1.638a.162.162 0 0 0-.049-.119.162.162 0 0 0-.119-.049h-1.218a.162.162 0 0 0-.119.049.162.162 0 0 0-.049.119v1.638c0 .047-.023.07-.07.07h-.798a.162.162 0 0 0-.119.049.162.162 0 0 0-.049.119v.98c0 .047.016.086.049.119a.162.162 0 0 0 .119.049h.798c.047 0 .07.023.07.07v3.99c.01.7.196 1.176.56 1.428.364.252.915.378 1.652.378zm3.974-8.162c.29 0 .527-.093.714-.28a.967.967 0 0 0 .28-.714.967.967 0 0 0-.28-.714.967.967 0 0 0-.714-.28.967.967 0 0 0-.714.28.967.967 0 0 0-.28.714c0 .29.093.527.28.714.187.187.425.28.714.28zm.616 8.134a.162.162 0 0 0 .119-.049.162.162 0 0 0 .049-.119V21a.162.162 0 0 0-.049-.119.162.162 0 0 0-.119-.049h-1.288a.162.162 0 0 0-.119.049.162.162 0 0 0-.049.119v6.832c0 .047.016.086.049.119a.162.162 0 0 0 .119.049h1.288zm5.668.112c.719 0 1.34-.189 1.862-.567.523-.378.891-.898 1.106-1.561a5.028 5.028 0 0 0 .238-1.596c0-.616-.084-1.148-.252-1.596-.215-.644-.581-1.148-1.099-1.512-.518-.364-1.132-.546-1.841-.546-.747 0-1.386.182-1.918.546-.532.364-.905.873-1.12 1.526-.15.467-.224.999-.224 1.596 0 .56.08 1.092.238 1.596.215.663.586 1.18 1.113 1.554.527.373 1.16.56 1.897.56zm0-1.4c-.364 0-.674-.098-.931-.294-.257-.196-.436-.471-.539-.826a4.32 4.32 0 0 1-.14-1.176c0-.457.047-.85.14-1.176.112-.355.294-.628.546-.819a1.44 1.44 0 0 1 .896-.287c.364 0 .672.096.924.287.252.191.43.464.532.819.093.28.14.672.14 1.176 0 .476-.047.868-.14 1.176-.112.355-.292.63-.539.826a1.388 1.388 0 0 1-.889.294zM429.522 28a.162.162 0 0 0 .119-.049.162.162 0 0 0 .049-.119v-4.27c0-.43.124-.775.371-1.036s.572-.392.973-.392.723.133.966.399.364.614.364 1.043v4.256c0 .047.016.086.049.119a.162.162 0 0 0 .119.049h1.288a.162.162 0 0 0 .119-.049.162.162 0 0 0 .049-.119V23.24c0-.775-.226-1.386-.679-1.834-.453-.448-1.057-.672-1.813-.672-.775 0-1.353.252-1.736.756-.01.028-.023.037-.042.028-.019-.01-.028-.028-.028-.056v-.448a.162.162 0 0 0-.049-.119.162.162 0 0 0-.119-.049h-1.288a.162.162 0 0 0-.119.049.162.162 0 0 0-.049.119v6.818c0 .047.016.086.049.119a.162.162 0 0 0 .119.049h1.288z"/>
            <path d="m550.179 39.062-.485.875A3.482 3.482 0 0 0 548 39.5v-1c.772 0 1.518.195 2.179.562zm2.321 5.815h-1l-.002-1.993 1-.033.002.14v1.886zm0 6h-1v-2h1v2zm0 6h-1v-2h1v2zm0 6h-1v-2h1v2zm-1.989 5.858-.558-.83c.49-.33.892-.782 1.163-1.309l.89.457a4.518 4.518 0 0 1-1.495 1.682zm-6.265.765v-1h2v1h-2zm-6 0v-1h2v1h-2zm-6 0v-1h2v1h-2zm-6 0v-1h2v1h-2zm-6 0v-1h2v1h-2zm-6 0v-1h2v1h-2zm-6 0v-1h2v1h-2zm-6 0v-1h2v1h-2zm-6 0v-1h2v1h-2zm-6 0v-1h2v1h-2zm-6 0v-1h2v1h-2zm-6 0v-1h2v1h-2zm-6 0v-1h2v1h-2zm-6 0v-1h2v1h-2zm-6 0v-1h2v1h-2zm-6 0v-1h2v1h-2zm-6 0v-1h2v1h-2zm-6 0v-1h2v1h-2zm-6 0v-1h2v1h-2zm-6 0v-1h2v1h-2zm-6 0v-1h2v1h-2zm-6 0v-1h2v1h-2zm-6 0v-1h2v1h-2zm-6 0v-1h2v1h-2zm-6 0v-1h2v1h-2zm-6 0v-1h2v1h-2zm-6 0v-1h2v1h-2zm-6 0v-1h2v1h-2zm-5.9-1.872.812-.585c.346.48.81.868 1.344 1.121l-.428.904a4.516 4.516 0 0 1-1.727-1.44zm-.846-6.26h1v2h-1v-2zm0-6h1v2h-1v-2zm0-6h1v2h-1v-2zm0-6h1v2h-1v-2zm3.948-4.834.121.992a3.478 3.478 0 0 0-1.627.642l-.588-.808a4.478 4.478 0 0 1 2.094-.826zm6.06-.034v1h-2v-1h2zm6 0v1h-2v-1h2zm6 0v1h-2v-1h2zm6 0v1h-2v-1h2zm6 0v1h-2v-1h2zm6 0v1h-2v-1h2zm6 0v1h-2v-1h2zm6 0v1h-2v-1h2zm6 0v1h-2v-1h2zm6 0v1h-2v-1h2zm6 0v1h-2v-1h2zm6 0v1h-2v-1h2zm6 0v1h-2v-1h2zm6 0v1h-2v-1h2zm6 0v1h-2v-1h2zm6 0v1h-2v-1h2zm6 0v1h-2v-1h2zm6 0v1h-2v-1h2zm6 0v1h-2v-1h2zm6 0v1h-2v-1h2zm6 0v1h-2v-1h2zm6 0v1h-2v-1h2zm6 0v1h-2v-1h2zm6 0v1h-2v-1h2zm6 0v1h-2v-1h2zm6 0v1h-2v-1h2zm6 0v1h-2v-1h2zm6 0v1h-2v-1h2z" opacity=".4"/>
            <path d="M389.684 59.096c.856 0 1.538-.24 2.046-.72.508-.48.762-1.148.762-2.004v-1.548c0-.08-.04-.12-.12-.12h-2.544c-.08 0-.12.04-.12.12v.504c0 .08.04.12.12.12h1.764c.032 0 .048.016.048.048v1.092c0 .536-.174.964-.522 1.284-.348.32-.814.48-1.398.48-.6 0-1.084-.172-1.452-.516-.368-.344-.552-.796-.552-1.356v-3.36c0-.56.18-1.012.54-1.356.36-.344.836-.516 1.428-.516s1.066.168 1.422.504c.356.336.534.772.534 1.308v.144c0 .08.04.12.12.12h.612c.08 0 .12-.04.12-.12v-.156a2.51 2.51 0 0 0-.348-1.314 2.364 2.364 0 0 0-.99-.906c-.428-.216-.918-.324-1.47-.324-.56 0-1.052.11-1.476.33-.424.22-.754.53-.99.93s-.354.86-.354 1.38v3.312c0 .52.118.98.354 1.38.236.4.566.71.99.93.424.22.916.33 1.476.33zm5.535-.096c.08 0 .12-.04.12-.12v-3.54c0-.448.136-.818.408-1.11a1.43 1.43 0 0 1 1.032-.462l.156-.012c.176 0 .332.028.468.084.08.032.132.008.156-.072l.132-.588c.016-.072-.008-.124-.072-.156a1.416 1.416 0 0 0-.684-.156c-.344 0-.646.082-.906.246a1.91 1.91 0 0 0-.642.69c-.008.016-.018.022-.03.018s-.018-.018-.018-.042v-.732c0-.08-.04-.12-.12-.12h-.612c-.08 0-.12.04-.12.12v5.832c0 .08.04.12.12.12h.612zm6.064.096c.576 0 1.07-.148 1.482-.444.412-.296.694-.704.846-1.224.112-.336.168-.828.168-1.476 0-.64-.056-1.132-.168-1.476a2.224 2.224 0 0 0-.846-1.2c-.412-.296-.902-.444-1.47-.444-.592 0-1.096.148-1.512.444-.416.296-.7.7-.852 1.212-.112.36-.168.848-.168 1.464s.056 1.108.168 1.476c.16.52.448.928.864 1.224.416.296.912.444 1.488.444zm0-.744c-.4 0-.738-.106-1.014-.318a1.492 1.492 0 0 1-.546-.858c-.064-.28-.096-.684-.096-1.212 0-.528.032-.932.096-1.212.096-.36.28-.646.552-.858.272-.212.604-.318.996-.318s.726.106 1.002.318c.276.212.462.498.558.858.064.28.096.684.096 1.212 0 .52-.036.924-.108 1.212-.096.36-.28.646-.552.858-.272.212-.6.318-.984.318zm6.411.732c.728 0 1.26-.248 1.596-.744.008-.016.02-.02.036-.012.016.008.024.02.024.036v.516c0 .08.04.12.12.12h.612c.08 0 .12-.04.12-.12v-5.832c0-.08-.04-.12-.12-.12h-.612c-.08 0-.12.04-.12.12v3.804c0 .448-.134.808-.402 1.08s-.63.408-1.086.408c-.44 0-.788-.134-1.044-.402s-.384-.63-.384-1.086v-3.804c0-.08-.04-.12-.12-.12h-.612c-.08 0-.12.04-.12.12v4.056c0 .416.094.772.282 1.068.188.296.444.522.768.678.324.156.678.234 1.062.234zm5.404 2.244c.08 0 .12-.04.12-.12v-2.82c0-.016.006-.026.018-.03.012-.004.026.002.042.018.176.232.396.41.66.534.264.124.552.186.864.186.576 0 1.054-.146 1.434-.438.38-.292.642-.694.786-1.206.104-.352.156-.848.156-1.488 0-.632-.06-1.14-.18-1.524a2.196 2.196 0 0 0-.786-1.176c-.38-.288-.85-.432-1.41-.432-.32 0-.61.064-.87.192s-.478.308-.654.54c-.016.016-.03.022-.042.018-.012-.004-.018-.014-.018-.03v-.504c0-.08-.04-.12-.12-.12h-.612c-.08 0-.12.04-.12.12v8.16c0 .08.04.12.12.12h.612zm1.608-2.976c-.304 0-.566-.082-.786-.246a1.358 1.358 0 0 1-.474-.654 2.028 2.028 0 0 1-.168-.582 6.64 6.64 0 0 1-.048-.906c0-.384.016-.684.048-.9.032-.216.084-.404.156-.564.104-.28.264-.504.48-.672.216-.168.484-.252.804-.252.336 0 .626.084.87.252.244.168.414.396.51.684.08.168.136.358.168.57.032.212.048.506.048.882 0 .392-.022.698-.066.918-.044.22-.11.418-.198.594a1.35 1.35 0 0 1-.51.636 1.45 1.45 0 0 1-.834.24zM424.84 59c.752 0 1.358-.2 1.818-.6.46-.4.69-.96.69-1.68 0-.488-.112-.904-.336-1.248-.224-.344-.552-.604-.984-.78-.04-.024-.04-.048 0-.072.392-.16.694-.394.906-.702.212-.308.318-.682.318-1.122 0-.696-.222-1.236-.666-1.62-.444-.384-1.054-.576-1.83-.576h-2.82c-.08 0-.12.04-.12.12v8.16c0 .08.04.12.12.12h2.904zm-.084-4.68h-2.04c-.032 0-.048-.016-.048-.048v-2.88c0-.032.016-.048.048-.048h2.04c.504 0 .906.138 1.206.414.3.276.45.646.45 1.11 0 .44-.15.792-.45 1.056-.3.264-.702.396-1.206.396zm.084 3.924h-2.124c-.032 0-.048-.016-.048-.048v-3.108c0-.032.016-.048.048-.048h2.076c.52 0 .934.146 1.242.438.308.292.462.682.462 1.17 0 .488-.15.876-.45 1.164-.3.288-.702.432-1.206.432zm4.227 3.156c.456 0 .81-.05 1.062-.15.252-.1.462-.278.63-.534.168-.256.348-.652.54-1.188l2.22-6.468c.024-.088-.008-.132-.096-.132h-.624c-.072 0-.12.032-.144.096l-1.536 4.848c-.008.016-.02.024-.036.024-.016 0-.028-.008-.036-.024l-1.56-4.848c-.024-.064-.072-.096-.144-.096h-.636c-.072 0-.108.028-.108.084l.012.048 2.028 5.904c.016.016.016.04 0 .072-.144.464-.278.81-.402 1.038-.124.228-.272.384-.444.468-.172.084-.414.13-.726.138h-.048c-.08 0-.12.04-.12.12v.48c0 .08.028.12.084.12h.084zm11.19-2.304c.593 0 1.117-.112 1.573-.336a2.472 2.472 0 0 0 1.056-.954c.248-.412.372-.89.372-1.434a.108.108 0 0 0-.042-.084.151.151 0 0 0-.102-.036l-1.104-.048c-.096 0-.144.044-.144.132 0 .472-.146.85-.438 1.134-.292.284-.682.426-1.17.426-.488 0-.88-.144-1.176-.432-.296-.288-.444-.664-.444-1.128v-3.06c0-.472.148-.852.444-1.14.296-.288.688-.432 1.176-.432s.878.144 1.17.432c.292.288.438.668.438 1.14 0 .088.048.132.144.132l1.104-.06c.04 0 .074-.014.102-.042a.139.139 0 0 0 .042-.102c0-.536-.124-1.008-.372-1.416a2.484 2.484 0 0 0-1.056-.948c-.456-.224-.98-.336-1.572-.336-.6 0-1.128.116-1.584.348-.456.232-.808.56-1.056.984-.248.424-.372.916-.372 1.476v2.964c0 .56.124 1.052.372 1.476.248.424.6.754 1.056.99.456.236.984.354 1.584.354zm7.12 0c.616 0 1.148-.162 1.596-.486.448-.324.764-.77.948-1.338a4.31 4.31 0 0 0 .204-1.368c0-.528-.072-.984-.216-1.368-.184-.552-.498-.984-.942-1.296-.444-.312-.97-.468-1.578-.468-.64 0-1.188.156-1.644.468-.456.312-.776.748-.96 1.308-.128.4-.192.856-.192 1.368 0 .48.068.936.204 1.368.184.568.502 1.012.954 1.332.452.32.994.48 1.626.48zm0-1.2c-.312 0-.578-.084-.798-.252a1.322 1.322 0 0 1-.462-.708c-.08-.28-.12-.616-.12-1.008s.04-.728.12-1.008c.096-.304.252-.538.468-.702.216-.164.472-.246.768-.246.312 0 .576.082.792.246.216.164.368.398.456.702.08.24.12.576.12 1.008 0 .408-.04.744-.12 1.008-.096.304-.25.54-.462.708a1.19 1.19 0 0 1-.762.252zm6.316 1.188c.656 0 1.148-.212 1.476-.636.016-.024.032-.032.048-.024s.024.024.024.048v.384c0 .04.014.074.042.102a.139.139 0 0 0 .102.042h1.092c.04 0 .074-.014.102-.042a.139.139 0 0 0 .042-.102v-5.844a.139.139 0 0 0-.042-.102.139.139 0 0 0-.102-.042h-1.092a.139.139 0 0 0-.102.042.139.139 0 0 0-.042.102v3.648c0 .376-.108.676-.324.9-.216.224-.504.336-.864.336-.352 0-.626-.112-.822-.336-.196-.224-.294-.524-.294-.9v-3.648a.139.139 0 0 0-.042-.102.139.139 0 0 0-.102-.042h-1.104a.139.139 0 0 0-.102.042.139.139 0 0 0-.042.102v4.044c0 .648.206 1.148.618 1.5.412.352.922.528 1.53.528zm5.835-.084c.04 0 .074-.014.102-.042a.139.139 0 0 0 .042-.102v-3.66c0-.368.106-.664.318-.888.212-.224.49-.336.834-.336s.62.114.828.342c.208.228.312.526.312.894v3.648c0 .04.014.074.042.102a.139.139 0 0 0 .102.042h1.104c.04 0 .074-.014.102-.042a.139.139 0 0 0 .042-.102V54.92c0-.664-.194-1.188-.582-1.572-.388-.384-.906-.576-1.554-.576-.664 0-1.16.216-1.488.648-.008.024-.02.032-.036.024-.016-.008-.024-.024-.024-.048v-.384a.139.139 0 0 0-.042-.102.139.139 0 0 0-.102-.042h-1.104a.139.139 0 0 0-.102.042.139.139 0 0 0-.042.102v5.844c0 .04.014.074.042.102a.139.139 0 0 0 .102.042h1.104zm7.84.024.624-.012c.096-.016.144-.068.144-.156v-.9a.139.139 0 0 0-.042-.102.139.139 0 0 0-.102-.042h-.36c-.288 0-.498-.068-.63-.204-.132-.136-.198-.356-.198-.66v-2.892c0-.04.02-.06.06-.06h1.224c.04 0 .074-.014.102-.042a.139.139 0 0 0 .042-.102v-.84a.139.139 0 0 0-.042-.102.139.139 0 0 0-.102-.042h-1.224c-.04 0-.06-.02-.06-.06v-1.404a.139.139 0 0 0-.042-.102.139.139 0 0 0-.102-.042h-1.044a.139.139 0 0 0-.102.042.139.139 0 0 0-.042.102v1.404c0 .04-.02.06-.06.06h-.684a.139.139 0 0 0-.102.042.139.139 0 0 0-.042.102v.84c0 .04.014.074.042.102a.139.139 0 0 0 .102.042h.684c.04 0 .06.02.06.06v3.42c.008.6.168 1.008.48 1.224.312.216.784.324 1.416.324zm3.519-.024c.04 0 .074-.014.102-.042a.139.139 0 0 0 .042-.102V55.46c0-.352.112-.638.336-.858a1.24 1.24 0 0 1 .84-.354c.056-.008.136-.012.24-.012.16 0 .3.02.42.06.104.04.16.012.168-.084l.204-1.08c.016-.088-.008-.148-.072-.18a1.39 1.39 0 0 0-.672-.156c-.6 0-1.068.26-1.404.78-.016.024-.03.034-.042.03-.012-.004-.018-.022-.018-.054v-.54a.139.139 0 0 0-.042-.102.139.139 0 0 0-.102-.042h-1.104a.139.139 0 0 0-.102.042.139.139 0 0 0-.042.102v5.844c0 .04.014.074.042.102a.139.139 0 0 0 .102.042h1.104zm3.603 2.388c.608 0 1.078-.06 1.41-.18.332-.12.594-.32.786-.6.192-.28.388-.704.588-1.272l2.112-6.312c.016-.056.014-.098-.006-.126-.02-.028-.054-.042-.102-.042h-1.14c-.088 0-.144.04-.168.12l-1.2 4.224c-.008.024-.02.036-.036.036-.016 0-.028-.012-.036-.036l-1.2-4.224c-.024-.08-.08-.12-.168-.12h-1.176c-.08 0-.12.036-.12.108 0 .024.004.044.012.06l1.98 5.94c.008.032.008.056 0 .072-.096.336-.204.588-.324.756a.89.89 0 0 1-.456.342c-.184.06-.44.094-.768.102h-.012a.139.139 0 0 0-.102.042.139.139 0 0 0-.042.102v.864c0 .04.008.074.024.102.016.028.036.042.06.042h.084z"/>
            <path d="M411.765 59.9v-.6H386v.6h25.765zm2.052-.6v.6h15.906v-.6h-15.906zm20.206.6v-.6h-2.045v.6h2.045z"/>
        </g>
        <g>
            <path fill="#D4DEEF" d="M60 203h44v10H60z"/>
            <path fill="#98ABF6" fill-rule="nonzero" d="M150 203h44v10h-44z"/>
            <path fill="#C2CEFF" fill-rule="nonzero" d="M105 203h44v10h-44z"/>
            <path fill="#57F" fill-rule="nonzero" d="M195 203h44v10h-44z"/>
            <path d="M73.458 233c.093 0 .14-.047.14-.14v-9.52c0-.093-.047-.14-.14-.14h-.756a.401.401 0 0 0-.182.042l-1.61.854c-.065.047-.098.093-.098.14v.028l.07.532c.019.075.056.112.112.112l.056-.014 1.484-.602c.019-.01.035-.01.049 0 .014.01.021.023.021.042v8.526c0 .093.047.14.14.14h.714zm5.696.112c.541 0 1.017-.107 1.428-.322.41-.215.728-.513.952-.896.27-.448.406-.994.406-1.638 0-.532-.089-.99-.266-1.372a2.053 2.053 0 0 0-1.022-1.092c-.047-.019-.047-.042 0-.07.327-.205.574-.434.742-.686.28-.42.42-.887.42-1.4 0-.513-.135-.99-.406-1.428a2.306 2.306 0 0 0-.91-.847c-.383-.2-.83-.301-1.344-.301-.495 0-.94.1-1.337.301-.397.2-.707.483-.931.847-.28.43-.42.905-.42 1.428 0 .513.14.97.42 1.372.196.299.448.537.756.714.047.028.047.051 0 .07a2.149 2.149 0 0 0-1.022 1.05 3.393 3.393 0 0 0-.294 1.4c0 .588.13 1.115.392 1.582.224.42.546.74.966.959.42.22.91.329 1.47.329zm-.014-5.74c-.308 0-.581-.06-.819-.182a1.478 1.478 0 0 1-.581-.532 1.778 1.778 0 0 1-.294-1.022c0-.27.075-.546.224-.826a1.594 1.594 0 0 1 1.456-.882c.345 0 .644.077.896.231.252.154.448.362.588.623.14.252.21.532.21.84 0 .43-.089.77-.266 1.022-.15.233-.345.413-.588.539a1.766 1.766 0 0 1-.826.189zm.014 4.872c-.681 0-1.18-.257-1.498-.77-.205-.327-.308-.751-.308-1.274 0-.504.084-.905.252-1.204.29-.579.803-.868 1.54-.868.775 0 1.302.308 1.582.924.15.317.224.695.224 1.134 0 .532-.117.975-.35 1.33-.299.485-.78.728-1.442.728zm6.41.756c.093 0 .14-.047.14-.14v-7.742c0-.028.01-.047.028-.056.019-.01.033 0 .042.028l2.282 3.472a.212.212 0 0 0 .168.084h.364c.065 0 .121-.033.168-.098l2.282-3.5c.01-.028.023-.037.042-.028.019.01.028.028.028.056v7.784c0 .093.047.14.14.14h.714c.093 0 .14-.047.14-.14v-9.52c0-.093-.047-.14-.14-.14h-.728c-.065 0-.121.033-.168.098l-2.604 3.976c-.01.01-.023.014-.042.014-.019 0-.033-.005-.042-.014l-2.632-3.99a.188.188 0 0 0-.168-.084h-.728c-.093 0-.14.047-.14.14v9.52c0 .093.047.14.14.14h.714zM118.458 233c.093 0 .14-.047.14-.14v-9.52c0-.093-.047-.14-.14-.14h-.756a.401.401 0 0 0-.182.042l-1.61.854c-.065.047-.098.093-.098.14v.028l.07.532c.019.075.056.112.112.112l.056-.014 1.484-.602c.019-.01.035-.01.049 0 .014.01.021.023.021.042v8.526c0 .093.047.14.14.14h.714zm5.696.112c.812 0 1.47-.226 1.974-.679.504-.453.756-1.062.756-1.827v-4.368a4.6 4.6 0 0 0-.168-1.316 2.473 2.473 0 0 0-.959-1.337c-.462-.322-1.029-.483-1.701-.483-.635 0-1.169.15-1.603.448-.434.299-.749.719-.945 1.26-.14.364-.21.83-.21 1.4 0 .672.098 1.204.294 1.596.205.476.506.845.903 1.106.397.261.889.392 1.477.392.821 0 1.437-.275 1.848-.826.01-.019.023-.026.042-.021.019.005.028.016.028.035v2.044c0 .513-.163.926-.49 1.239-.327.313-.742.469-1.246.469-.485 0-.882-.15-1.19-.448-.308-.299-.462-.686-.462-1.162v-.112c0-.093-.047-.14-.14-.14h-.714c-.093 0-.14.047-.14.14v.196c0 .71.245 1.286.735 1.729.49.443 1.127.665 1.911.665zm-.056-4.676c-.41 0-.756-.1-1.036-.301-.28-.2-.476-.469-.588-.805-.121-.27-.182-.644-.182-1.12 0-.448.051-.803.154-1.064.121-.383.327-.674.616-.875.29-.2.635-.301 1.036-.301.42 0 .775.107 1.064.322.29.215.49.5.602.854.084.28.126.62.126 1.022 0 .485-.051.863-.154 1.134-.112.355-.31.632-.595.833-.285.2-.632.301-1.043.301zm6.466 4.564c.093 0 .14-.047.14-.14v-7.742c0-.028.01-.047.028-.056.019-.01.033 0 .042.028l2.282 3.472a.212.212 0 0 0 .168.084h.364c.065 0 .121-.033.168-.098l2.282-3.5c.01-.028.023-.037.042-.028.019.01.028.028.028.056v7.784c0 .093.047.14.14.14h.714c.093 0 .14-.047.14-.14v-9.52c0-.093-.047-.14-.14-.14h-.728c-.065 0-.121.033-.168.098l-2.604 3.976c-.01.01-.023.014-.042.014-.019 0-.033-.005-.042-.014l-2.632-3.99a.188.188 0 0 0-.168-.084h-.728c-.093 0-.14.047-.14.14v9.52c0 .093.047.14.14.14h.714zM165.552 233c.093 0 .14-.047.14-.14v-.588c0-.093-.047-.14-.14-.14h-4.396c-.047 0-.056-.023-.028-.07l.308-.364c.922-1.113 1.633-1.98 2.132-2.6l.232-.29.282-.358c.877-1.12 1.316-2.077 1.316-2.87 0-.476-.117-.903-.35-1.281a2.395 2.395 0 0 0-.994-.889c-.43-.215-.924-.322-1.484-.322-.793 0-1.449.22-1.967.658-.518.439-.786 1.017-.805 1.736v.56c0 .093.047.14.14.14h.728c.093 0 .14-.047.14-.14v-.434c-.01-.495.15-.894.476-1.197.327-.303.756-.455 1.288-.455.541 0 .98.15 1.316.448.336.299.504.695.504 1.19 0 .616-.439 1.48-1.316 2.59l-1.036 1.288a168.534 168.534 0 0 1-2.142 2.632.23.23 0 0 0-.07.168v.588c0 .093.047.14.14.14h5.586zm5.486.14c.905 0 1.629-.257 2.17-.77.541-.513.812-1.2.812-2.058v-4.424c0-.85-.27-1.53-.812-2.044-.541-.513-1.265-.77-2.17-.77-.896 0-1.61.254-2.142.763-.532.509-.798 1.192-.798 2.051v4.424c0 .859.266 1.545.798 2.058.532.513 1.246.77 2.142.77zm0-.868c-.588 0-1.06-.173-1.414-.518-.355-.345-.532-.807-.532-1.386v-4.522c0-.57.177-1.027.532-1.372.355-.345.826-.518 1.414-.518.607 0 1.09.173 1.449.518.36.345.539.803.539 1.372v4.522c0 .579-.182 1.04-.546 1.386-.364.345-.845.518-1.442.518zm6.746.728c.093 0 .14-.047.14-.14v-7.742c0-.028.01-.047.028-.056.019-.01.033 0 .042.028l2.282 3.472a.212.212 0 0 0 .168.084h.364c.065 0 .121-.033.168-.098l2.282-3.5c.01-.028.023-.037.042-.028.019.01.028.028.028.056v7.784c0 .093.047.14.14.14h.714c.093 0 .14-.047.14-.14v-9.52c0-.093-.047-.14-.14-.14h-.728c-.065 0-.121.033-.168.098l-2.604 3.976c-.01.01-.023.014-.042.014-.019 0-.033-.005-.042-.014l-2.632-3.99a.188.188 0 0 0-.168-.084h-.728c-.093 0-.14.047-.14.14v9.52c0 .093.047.14.14.14h.714zM209.552 233c.093 0 .14-.047.14-.14v-.588c0-.093-.047-.14-.14-.14h-4.396c-.047 0-.056-.023-.028-.07l.308-.364c.922-1.113 1.633-1.98 2.132-2.6l.232-.29.282-.358c.877-1.12 1.316-2.077 1.316-2.87 0-.476-.117-.903-.35-1.281a2.395 2.395 0 0 0-.994-.889c-.43-.215-.924-.322-1.484-.322-.793 0-1.449.22-1.967.658-.518.439-.786 1.017-.805 1.736v.56c0 .093.047.14.14.14h.728c.093 0 .14-.047.14-.14v-.434c-.01-.495.15-.894.476-1.197.327-.303.756-.455 1.288-.455.541 0 .98.15 1.316.448.336.299.504.695.504 1.19 0 .616-.439 1.48-1.316 2.59l-1.036 1.288a168.534 168.534 0 0 1-2.142 2.632.23.23 0 0 0-.07.168v.588c0 .093.047.14.14.14h5.586zm4.814 0c.093 0 .14-.047.14-.14v-9.52c0-.093-.047-.14-.14-.14h-.756a.401.401 0 0 0-.182.042l-1.61.854c-.065.047-.098.093-.098.14v.028l.07.532c.019.075.056.112.112.112l.056-.014 1.484-.602c.019-.01.035-.01.049 0 .014.01.021.023.021.042v8.526c0 .093.047.14.14.14h.714zm4.212 0c.093 0 .14-.047.14-.14v-7.742c0-.028.01-.047.028-.056.019-.01.033 0 .042.028l2.282 3.472a.212.212 0 0 0 .168.084h.364c.065 0 .121-.033.168-.098l2.282-3.5c.01-.028.023-.037.042-.028.019.01.028.028.028.056v7.784c0 .093.047.14.14.14h.714c.093 0 .14-.047.14-.14v-9.52c0-.093-.047-.14-.14-.14h-.728c-.065 0-.121.033-.168.098l-2.604 3.976c-.01.01-.023.014-.042.014-.019 0-.033-.005-.042-.014l-2.632-3.99a.188.188 0 0 0-.168-.084h-.728c-.093 0-.14.047-.14.14v9.52c0 .093.047.14.14.14h.714z" fill="#FFF" fill-rule="nonzero" opacity=".5"/>
        </g>
        <path fill="#FFF" fill-rule="nonzero" opacity=".5" d="m370.762 23.495-.194.4-2.998 6.197-.45-.218 2.581-5.337-4.106 2.856-34.952 24.312-.142.045-77 .204-.002-.5 76.921-.204 34.89-24.267 4.107-2.858-5.903.565-.047-.498 6.853-.655zM366.498 90.649l6 3.375.387.218-.387.218-6 3.375-.246-.436 5.168-2.908h-56.421L315 227.75h-81.04v-.5l80.539-.001.001-133.257 56.92-.001-5.168-2.906z"/>
        <path d="M379.956 98c.093 0 .154-.047.182-.14l2.982-9.464c.019-.056.014-.103-.014-.14-.028-.037-.07-.056-.126-.056h-1.358c-.103 0-.168.047-.196.14l-2.086 7.308c-.01.028-.023.042-.042.042-.019 0-.033-.014-.042-.042l-2.1-7.308c-.028-.093-.093-.14-.196-.14h-1.386c-.103 0-.154.047-.154.14l.014.056 2.94 9.464c.028.093.089.14.182.14h1.4zm6.256.112c.868 0 1.53-.252 1.988-.756.019-.019.037-.026.056-.021.019.005.028.021.028.049v.448c0 .047.016.086.049.119a.162.162 0 0 0 .119.049h1.288a.162.162 0 0 0 .119-.049.162.162 0 0 0 .049-.119v-4.718c0-.457-.121-.866-.364-1.225-.243-.36-.588-.642-1.036-.847-.448-.205-.966-.308-1.554-.308-.812 0-1.486.182-2.023.546-.537.364-.842.83-.917 1.4-.01.037.002.068.035.091.033.023.072.04.119.049l1.358.168c.103.019.168-.028.196-.14a.822.822 0 0 1 .413-.525c.22-.126.506-.189.861-.189.43 0 .751.1.966.301.215.2.322.483.322.847v.336c0 .047-.023.07-.07.07h-1.498c-.924 0-1.64.203-2.149.609-.509.406-.763.973-.763 1.701 0 .7.226 1.227.679 1.582.453.355 1.029.532 1.729.532zm.406-1.288c-.345 0-.628-.082-.847-.245-.22-.163-.329-.394-.329-.693 0-.345.142-.611.427-.798.285-.187.674-.28 1.169-.28h1.176c.047 0 .07.023.07.07v.658c0 .373-.163.681-.49.924-.327.243-.719.364-1.176.364zm6.97 1.176a.162.162 0 0 0 .119-.049.162.162 0 0 0 .049-.119v-9.464a.162.162 0 0 0-.049-.119.162.162 0 0 0-.119-.049H392.3a.162.162 0 0 0-.119.049.162.162 0 0 0-.049.119v9.464c0 .047.016.086.049.119a.162.162 0 0 0 .119.049h1.288zm4.912.098c.765 0 1.34-.247 1.722-.742.019-.028.037-.037.056-.028.019.01.028.028.028.056v.448c0 .047.016.086.049.119a.162.162 0 0 0 .119.049h1.274a.162.162 0 0 0 .119-.049.162.162 0 0 0 .049-.119v-6.818a.162.162 0 0 0-.049-.119.162.162 0 0 0-.119-.049h-1.274a.162.162 0 0 0-.119.049.162.162 0 0 0-.049.119v4.256c0 .439-.126.789-.378 1.05s-.588.392-1.008.392c-.41 0-.73-.13-.959-.392-.229-.261-.343-.611-.343-1.05v-4.256a.162.162 0 0 0-.049-.119.162.162 0 0 0-.119-.049h-1.288a.162.162 0 0 0-.119.049.162.162 0 0 0-.049.119v4.718c0 .756.24 1.34.721 1.75.48.41 1.076.616 1.785.616zm8.874.028c.588 0 1.122-.112 1.603-.336a2.86 2.86 0 0 0 1.155-.952c.056-.084.042-.159-.042-.224l-.868-.714a.134.134 0 0 0-.098-.042c-.056 0-.103.028-.14.084-.373.523-.877.784-1.512.784-.868-.01-1.414-.35-1.638-1.022-.056-.112-.098-.322-.126-.63 0-.047.023-.07.07-.07h4.382c.112 0 .168-.056.168-.168l.014-.434c0-.29-.019-.55-.056-.784-.233-1.923-1.27-2.884-3.108-2.884-.728 0-1.351.189-1.869.567-.518.378-.87.894-1.057 1.547-.112.336-.168.775-.168 1.316 0 .896.107 1.596.322 2.1a2.82 2.82 0 0 0 1.113 1.372c.509.327 1.127.49 1.855.49zm1.246-4.326h-2.842c-.056 0-.075-.023-.056-.07a2.43 2.43 0 0 1 .112-.616c.093-.308.254-.548.483-.721.229-.173.516-.259.861-.259.373 0 .684.093.931.28.247.187.413.448.497.784.037.121.065.299.084.532 0 .047-.023.07-.07.07z" fill="#FFF" fill-rule="nonzero"/>
        <path d="m549.179 109.062-.485.875A3.482 3.482 0 0 0 547 109.5v-1c.772 0 1.518.195 2.179.562zm2.321 5.815h-1l-.002-1.993 1-.033.002.14v1.886zm0 6h-1v-2h1v2zm0 6h-1v-2h1v2zm0 6h-1v-2h1v2zm-1.989 5.858-.558-.83c.49-.33.892-.782 1.163-1.309l.89.457a4.518 4.518 0 0 1-1.495 1.682zm-6.265.765v-1h2v1h-2zm-6 0v-1h2v1h-2zm-6 0v-1h2v1h-2zm-6 0v-1h2v1h-2zm-6 0v-1h2v1h-2zm-6 0v-1h2v1h-2zm-6 0v-1h2v1h-2zm-6 0v-1h2v1h-2zm-6 0v-1h2v1h-2zm-6 0v-1h2v1h-2zm-6 0v-1h2v1h-2zm-6 0v-1h2v1h-2zm-6 0v-1h2v1h-2zm-6 0v-1h2v1h-2zm-6 0v-1h2v1h-2zm-6 0v-1h2v1h-2zm-6 0v-1h2v1h-2zm-6 0v-1h2v1h-2zm-6 0v-1h2v1h-2zm-6 0v-1h2v1h-2zm-6 0v-1h2v1h-2zm-6 0v-1h2v1h-2zm-6 0v-1h2v1h-2zm-6 0v-1h2v1h-2zm-6 0v-1h2v1h-2zm-6 0v-1h2v1h-2zm-6 0v-1h2v1h-2zm-6 0v-1h2v1h-2zm-5.9-1.872.812-.585c.346.48.81.868 1.344 1.121l-.428.904a4.516 4.516 0 0 1-1.727-1.44zm-.846-6.26h1v2h-1v-2zm0-6h1v2h-1v-2zm0-6h1v2h-1v-2zm0-6h1v2h-1v-2zm3.948-4.834.121.992a3.478 3.478 0 0 0-1.627.642l-.588-.808a4.478 4.478 0 0 1 2.094-.826zm6.06-.034v1h-2v-1h2zm6 0v1h-2v-1h2zm6 0v1h-2v-1h2zm6 0v1h-2v-1h2zm6 0v1h-2v-1h2zm6 0v1h-2v-1h2zm6 0v1h-2v-1h2zm6 0v1h-2v-1h2zm6 0v1h-2v-1h2zm6 0v1h-2v-1h2zm6 0v1h-2v-1h2zm6 0v1h-2v-1h2zm6 0v1h-2v-1h2zm6 0v1h-2v-1h2zm6 0v1h-2v-1h2zm6 0v1h-2v-1h2zm6 0v1h-2v-1h2zm6 0v1h-2v-1h2zm6 0v1h-2v-1h2zm6 0v1h-2v-1h2zm6 0v1h-2v-1h2zm6 0v1h-2v-1h2zm6 0v1h-2v-1h2zm6 0v1h-2v-1h2zm6 0v1h-2v-1h2zm6 0v1h-2v-1h2zm6 0v1h-2v-1h2zm6 0v1h-2v-1h2z" fill="#FFF" fill-rule="nonzero" opacity=".4"/>
        <path d="M386.176 129c.072 0 .12-.032.144-.096l.48-1.512c.008-.024.024-.036.048-.036h3.588c.024 0 .04.012.048.036l.48 1.512c.024.064.072.096.144.096h.648c.072 0 .108-.028.108-.084l-.012-.048-2.664-8.172c-.024-.064-.072-.096-.144-.096h-.816c-.072 0-.12.032-.144.096l-2.652 8.172c-.024.088.008.132.096.132h.648zm4.008-2.34h-3.096a.058.058 0 0 1-.042-.018c-.012-.012-.014-.026-.006-.042l1.56-4.896c.008-.016.02-.024.036-.024.016 0 .028.008.036.024l1.56 4.896c.008.016.006.03-.006.042a.058.058 0 0 1-.042.018zm4.671 4.728c.904 0 1.614-.208 2.13-.624.516-.416.774-1.072.774-1.968v-5.748c0-.08-.04-.12-.12-.12h-.612c-.08 0-.12.04-.12.12v.468a.04.04 0 0 1-.018.036c-.012.008-.026.004-.042-.012-.368-.472-.908-.708-1.62-.708-.528 0-.98.146-1.356.438a2.24 2.24 0 0 0-.78 1.158 2.78 2.78 0 0 0-.126.648c-.02.24-.03.536-.03.888 0 .648.048 1.136.144 1.464.136.512.406.908.81 1.188.404.28.866.42 1.386.42.68 0 1.204-.24 1.572-.72.016-.016.03-.022.042-.018.012.004.018.014.018.03v.444c0 .632-.168 1.094-.504 1.386-.336.292-.876.438-1.62.438l-.324-.012a.09.09 0 0 0-.084.018c-.024.02-.036.05-.036.09l-.024.552c0 .08.04.124.12.132.096.008.236.012.42.012zm.552-3.072c-.384 0-.71-.11-.978-.33a1.502 1.502 0 0 1-.522-.834c-.08-.224-.12-.628-.12-1.212 0-.544.04-.944.12-1.2.104-.344.286-.624.546-.84.26-.216.578-.324.954-.324.384 0 .702.11.954.33.252.22.41.498.474.834.032.12.052.25.06.39s.012.414.012.822c0 .336-.004.592-.012.768a3.011 3.011 0 0 1-.048.444 1.404 1.404 0 0 1-.474.828c-.252.216-.574.324-.966.324zm6.04 3.072c.904 0 1.614-.208 2.13-.624.516-.416.774-1.072.774-1.968v-5.748c0-.08-.04-.12-.12-.12h-.612c-.08 0-.12.04-.12.12v.468a.04.04 0 0 1-.018.036c-.012.008-.026.004-.042-.012-.368-.472-.908-.708-1.62-.708-.528 0-.98.146-1.356.438a2.24 2.24 0 0 0-.78 1.158 2.78 2.78 0 0 0-.126.648c-.02.24-.03.536-.03.888 0 .648.048 1.136.144 1.464.136.512.406.908.81 1.188.404.28.866.42 1.386.42.68 0 1.204-.24 1.572-.72.016-.016.03-.022.042-.018.012.004.018.014.018.03v.444c0 .632-.168 1.094-.504 1.386-.336.292-.876.438-1.62.438l-.324-.012a.09.09 0 0 0-.084.018c-.024.02-.036.05-.036.09l-.024.552c0 .08.04.124.12.132.096.008.236.012.42.012zm.552-3.072c-.384 0-.71-.11-.978-.33a1.502 1.502 0 0 1-.522-.834c-.08-.224-.12-.628-.12-1.212 0-.544.04-.944.12-1.2.104-.344.286-.624.546-.84.26-.216.578-.324.954-.324.384 0 .702.11.954.33.252.22.41.498.474.834.032.12.052.25.06.39s.012.414.012.822v.192c-.002.243-.006.435-.012.576a3.011 3.011 0 0 1-.048.444 1.404 1.404 0 0 1-.474.828c-.252.216-.574.324-.966.324zm5.08.684c.08 0 .12-.04.12-.12v-3.54c0-.448.135-.818.407-1.11a1.43 1.43 0 0 1 1.032-.462l.156-.012c.176 0 .332.028.468.084.08.032.132.008.156-.072l.132-.588c.016-.072-.008-.124-.072-.156a1.416 1.416 0 0 0-.684-.156c-.344 0-.646.082-.906.246a1.91 1.91 0 0 0-.642.69c-.008.016-.018.022-.03.018s-.018-.018-.018-.042v-.732c0-.08-.04-.12-.12-.12h-.612c-.08 0-.12.04-.12.12v5.832c0 .08.04.12.12.12h.612zm6.039.108c.52 0 .98-.11 1.38-.33.4-.22.7-.522.9-.906.032-.072.016-.128-.048-.168l-.468-.276c-.064-.04-.12-.024-.168.048-.144.28-.344.496-.6.648a1.706 1.706 0 0 1-.888.228c-.448 0-.816-.104-1.104-.312a1.435 1.435 0 0 1-.564-.852c-.032-.128-.056-.412-.072-.852 0-.032.016-.048.048-.048h3.876c.08 0 .12-.04.12-.12v-.384c0-.336-.016-.616-.048-.84-.096-.672-.34-1.192-.732-1.56-.392-.368-.952-.552-1.68-.552-.584 0-1.082.156-1.494.468a2.223 2.223 0 0 0-.822 1.248 2.618 2.618 0 0 0-.09.57c-.012.212-.018.486-.018.822 0 .72.072 1.272.216 1.656.168.472.444.84.828 1.104.384.264.86.4 1.428.408zm1.524-3.54h-3.108c-.032 0-.048-.016-.048-.048.016-.376.048-.648.096-.816.08-.344.25-.618.51-.822.26-.204.586-.306.978-.306.408 0 .746.106 1.014.318.268.212.446.498.534.858.032.152.056.408.072.768 0 .032-.016.048-.048.048zm4.443 5.82c.904 0 1.614-.208 2.13-.624.516-.416.774-1.072.774-1.968v-5.748c0-.08-.04-.12-.12-.12h-.612c-.08 0-.12.04-.12.12v.468a.04.04 0 0 1-.018.036c-.012.008-.026.004-.042-.012-.368-.472-.908-.708-1.62-.708-.528 0-.98.146-1.356.438a2.24 2.24 0 0 0-.78 1.158 2.78 2.78 0 0 0-.126.648c-.02.24-.03.536-.03.888 0 .648.048 1.136.144 1.464.136.512.406.908.81 1.188.404.28.866.42 1.386.42.68 0 1.204-.24 1.572-.72.016-.016.03-.022.042-.018.012.004.018.014.018.03v.444c0 .632-.168 1.094-.504 1.386-.336.292-.876.438-1.62.438l-.324-.012a.09.09 0 0 0-.084.018c-.024.02-.036.05-.036.09l-.024.552c0 .08.04.124.12.132.096.008.236.012.42.012zm.552-3.072c-.384 0-.71-.11-.978-.33a1.502 1.502 0 0 1-.522-.834c-.08-.224-.12-.628-.12-1.212 0-.544.04-.944.12-1.2.104-.344.286-.624.546-.84.26-.216.578-.324.954-.324.384 0 .702.11.954.33.252.22.41.498.474.834.032.12.052.25.06.39s.012.414.012.822c0 .336-.004.592-.012.768a3.011 3.011 0 0 1-.048.444 1.404 1.404 0 0 1-.474.828c-.252.216-.574.324-.966.324zm5.944.78c.392 0 .748-.062 1.068-.186.32-.124.58-.306.78-.546.016-.016.03-.02.042-.012a.04.04 0 0 1 .018.036v.492c0 .08.04.12.12.12h.612c.08 0 .12-.04.12-.12v-4.032c0-.608-.196-1.096-.588-1.464-.392-.368-.948-.552-1.668-.552-.624 0-1.144.14-1.56.42-.416.28-.656.644-.72 1.092-.016.048.02.08.108.096l.648.084c.072.008.12-.028.144-.108a.93.93 0 0 1 .444-.618c.24-.148.552-.222.936-.222.48 0 .834.118 1.062.354.228.236.342.558.342.966v.456c0 .032-.016.048-.048.048h-1.392c-.776 0-1.382.174-1.818.522-.436.348-.654.822-.654 1.422 0 .592.192 1.032.576 1.32.384.288.86.432 1.428.432zm.168-.732c-.392 0-.71-.09-.954-.27-.244-.18-.366-.446-.366-.798 0-.384.16-.684.48-.9.32-.216.744-.324 1.272-.324h1.26c.032 0 .048.016.048.048v.936c0 .4-.172.718-.516.954-.344.236-.752.354-1.224.354zm6.615.648c.2 0 .348-.004.444-.012.08 0 .12-.04.12-.12v-.492c0-.08-.04-.12-.12-.12h-.3c-.368 0-.638-.078-.81-.234-.172-.156-.258-.426-.258-.81v-3.54c0-.032.016-.048.048-.048h1.356c.08 0 .12-.04.12-.12v-.468c0-.08-.04-.12-.12-.12h-1.356c-.032 0-.048-.016-.048-.048v-1.392c0-.08-.04-.12-.12-.12h-.588c-.08 0-.12.04-.12.12v1.392c0 .032-.016.048-.048.048h-.732c-.08 0-.12.04-.12.12v.468c0 .08.04.12.12.12h.732c.032 0 .048.016.048.048v3.804c0 .584.148.984.444 1.2.296.216.732.324 1.308.324zm2.991-7.188a.651.651 0 0 0 .48-.192.651.651 0 0 0 .192-.48.646.646 0 0 0-.672-.672.646.646 0 0 0-.672.672c0 .192.064.352.192.48a.651.651 0 0 0 .48.192zm.276 7.164c.08 0 .12-.04.12-.12v-5.832c0-.08-.04-.12-.12-.12h-.612c-.08 0-.12.04-.12.12v5.832c0 .08.04.12.12.12h.612zm4.696.108c.576 0 1.07-.148 1.482-.444.412-.296.694-.704.846-1.224.112-.336.168-.828.168-1.476 0-.64-.056-1.132-.168-1.476a2.224 2.224 0 0 0-.846-1.2c-.412-.296-.902-.444-1.47-.444-.592 0-1.096.148-1.512.444-.416.296-.7.7-.852 1.212-.112.36-.168.848-.168 1.464s.056 1.108.168 1.476c.16.52.448.928.864 1.224.416.296.912.444 1.488.444zm0-.744c-.4 0-.738-.106-1.014-.318a1.492 1.492 0 0 1-.546-.858c-.064-.28-.096-.684-.096-1.212 0-.528.032-.932.096-1.212.096-.36.28-.646.552-.858.272-.212.604-.318.996-.318s.726.106 1.002.318c.276.212.462.498.558.858.064.28.096.684.096 1.212 0 .52-.036.924-.108 1.212-.096.36-.28.646-.552.858-.272.212-.6.318-.984.318zm5.127.648c.08 0 .12-.04.12-.12v-3.816c0-.44.136-.796.408-1.068.272-.272.628-.408 1.068-.408.424 0 .77.14 1.038.42.268.28.402.64.402 1.08v3.792c0 .08.04.12.12.12h.612c.08 0 .12-.04.12-.12v-3.96c0-.632-.19-1.136-.57-1.512-.38-.376-.89-.564-1.53-.564-.728 0-1.268.248-1.62.744-.008.016-.018.02-.03.012a.04.04 0 0 1-.018-.036v-.516c0-.08-.04-.12-.12-.12h-.612c-.08 0-.12.04-.12.12v5.832c0 .08.04.12.12.12h.612zm11.071.096c.88 0 1.568-.2 2.064-.6.496-.4.744-.936.744-1.608 0-.432-.11-.798-.33-1.098a2.81 2.81 0 0 0-.864-.762 11.633 11.633 0 0 0-1.41-.672 15.418 15.418 0 0 1-1.278-.546 1.867 1.867 0 0 1-.636-.492c-.148-.188-.222-.426-.222-.714 0-.44.152-.776.456-1.008.304-.232.74-.348 1.308-.348.648 0 1.154.148 1.518.444.364.296.546.676.546 1.14v.216c0 .08.04.12.12.12h.6c.08 0 .12-.04.12-.12v-.264c0-.688-.256-1.24-.768-1.656-.512-.416-1.212-.624-2.1-.624-.816 0-1.458.186-1.926.558-.468.372-.702.894-.702 1.566 0 .432.102.79.306 1.074.204.284.472.516.804.696.332.18.798.39 1.398.63.56.232.994.436 1.302.612.308.176.536.364.684.564.148.2.222.44.222.72 0 .432-.16.778-.48 1.038-.32.26-.788.39-1.404.39-.68 0-1.212-.142-1.596-.426-.384-.284-.576-.658-.576-1.122v-.324c0-.08-.04-.12-.12-.12h-.588c-.08 0-.12.04-.12.12v.372c0 .68.262 1.224.786 1.632.524.408 1.238.612 2.142.612zm6.604-.012c.728 0 1.26-.248 1.596-.744.008-.016.02-.02.036-.012.016.008.024.02.024.036v.516c0 .08.04.12.12.12h.612c.08 0 .12-.04.12-.12v-5.832c0-.08-.04-.12-.12-.12h-.612c-.08 0-.12.04-.12.12v3.804c0 .448-.134.808-.402 1.08s-.63.408-1.086.408c-.44 0-.788-.134-1.044-.402s-.384-.63-.384-1.086v-3.804c0-.08-.04-.12-.12-.12h-.612c-.08 0-.12.04-.12.12v4.056c0 .416.094.772.282 1.068.188.296.444.522.768.678.324.156.678.234 1.062.234zm5.319-.084c.08 0 .12-.04.12-.12v-3.876c0-.432.126-.776.378-1.032s.59-.384 1.014-.384c.416 0 .748.13.996.39s.372.61.372 1.05v3.852c0 .08.04.12.12.12h.612c.08 0 .12-.04.12-.12v-3.876c0-.432.13-.776.39-1.032s.602-.384 1.026-.384c.408 0 .738.13.99.39s.378.61.378 1.05v3.852c0 .08.04.12.12.12h.6c.08 0 .12-.04.12-.12v-4.02c0-.624-.174-1.116-.522-1.476-.348-.36-.822-.54-1.422-.54a2.36 2.36 0 0 0-1.092.246c-.32.164-.568.41-.744.738-.024.04-.044.04-.06 0a1.615 1.615 0 0 0-.672-.732c-.296-.168-.652-.252-1.068-.252-.336 0-.642.058-.918.174-.276.116-.502.29-.678.522-.016.016-.03.022-.042.018-.012-.004-.018-.014-.018-.03v-.48c0-.08-.04-.12-.12-.12h-.612c-.08 0-.12.04-.12.12v5.832c0 .08.04.12.12.12h.612zm14.959 0c.04 0 .074-.014.102-.042a.139.139 0 0 0 .042-.102v-6.984c0-.04.02-.06.06-.06h2.208c.04 0 .074-.014.102-.042a.139.139 0 0 0 .042-.102v-.924a.139.139 0 0 0-.042-.102.139.139 0 0 0-.102-.042h-5.844a.139.139 0 0 0-.102.042.139.139 0 0 0-.042.102v.924c0 .04.014.074.042.102a.139.139 0 0 0 .102.042h2.124c.04 0 .06.02.06.06v6.984c0 .04.014.074.042.102a.139.139 0 0 0 .102.042h1.104zm5.535.096c.616 0 1.148-.162 1.596-.486.448-.324.764-.77.948-1.338a4.31 4.31 0 0 0 .204-1.368c0-.528-.072-.984-.216-1.368-.184-.552-.498-.984-.942-1.296-.444-.312-.97-.468-1.578-.468-.64 0-1.188.156-1.644.468-.456.312-.776.748-.96 1.308-.128.4-.192.856-.192 1.368 0 .48.068.936.204 1.368.184.568.502 1.012.954 1.332.452.32.994.48 1.626.48zm0-1.2c-.312 0-.578-.084-.798-.252a1.322 1.322 0 0 1-.462-.708c-.08-.28-.12-.616-.12-1.008s.04-.728.12-1.008c.096-.304.252-.538.468-.702.216-.164.472-.246.768-.246.312 0 .576.082.792.246.216.164.368.398.456.702.08.24.12.576.12 1.008 0 .408-.04.744-.12 1.008-.096.304-.25.54-.462.708a1.19 1.19 0 0 1-.762.252zm6.496 1.128.624-.012c.096-.016.144-.068.144-.156v-.9a.139.139 0 0 0-.042-.102.139.139 0 0 0-.102-.042h-.36c-.288 0-.498-.068-.63-.204-.132-.136-.198-.356-.198-.66v-2.892c0-.04.02-.06.06-.06h1.224c.04 0 .074-.014.102-.042a.139.139 0 0 0 .042-.102v-.84a.139.139 0 0 0-.042-.102.139.139 0 0 0-.102-.042h-1.224c-.04 0-.06-.02-.06-.06v-1.404a.139.139 0 0 0-.042-.102.139.139 0 0 0-.102-.042h-1.044a.139.139 0 0 0-.102.042.139.139 0 0 0-.042.102v1.404c0 .04-.02.06-.06.06h-.684a.139.139 0 0 0-.102.042.139.139 0 0 0-.042.102v.84c0 .04.014.074.042.102a.139.139 0 0 0 .102.042h.684c.04 0 .06.02.06.06v3.42c.008.6.168 1.008.48 1.224.312.216.784.324 1.416.324zm3.975.072c.744 0 1.312-.216 1.704-.648.016-.016.032-.022.048-.018s.024.018.024.042v.384c0 .04.014.074.042.102a.139.139 0 0 0 .102.042h1.104c.04 0 .074-.014.102-.042a.139.139 0 0 0 .042-.102v-4.044c0-.392-.104-.742-.312-1.05a2.09 2.09 0 0 0-.888-.726c-.384-.176-.828-.264-1.332-.264-.696 0-1.274.156-1.734.468-.46.312-.722.712-.786 1.2-.008.032.002.058.03.078.028.02.062.034.102.042l1.164.144c.088.016.144-.024.168-.12a.705.705 0 0 1 .354-.45c.188-.108.434-.162.738-.162.368 0 .644.086.828.258.184.172.276.414.276.726v.288c0 .04-.02.06-.06.06h-1.284c-.792 0-1.406.174-1.842.522-.436.348-.654.834-.654 1.458 0 .6.194 1.052.582 1.356.388.304.882.456 1.482.456zm.348-1.104c-.296 0-.538-.07-.726-.21-.188-.14-.282-.338-.282-.594a.77.77 0 0 1 .366-.684c.244-.16.578-.24 1.002-.24h1.008c.04 0 .06.02.06.06v.564c0 .32-.14.584-.42.792-.28.208-.616.312-1.008.312zm5.632 1.008c.04 0 .074-.014.102-.042a.139.139 0 0 0 .042-.102v-8.112a.139.139 0 0 0-.042-.102.139.139 0 0 0-.102-.042h-1.104a.139.139 0 0 0-.102.042.139.139 0 0 0-.042.102v8.112c0 .04.014.074.042.102a.139.139 0 0 0 .102.042h1.104zm5.67 0c.04 0 .074-.014.102-.042a.139.139 0 0 0 .042-.102v-3.228c0-.04.02-.06.06-.06h1.92c.52 0 .978-.102 1.374-.306a2.19 2.19 0 0 0 .918-.87c.216-.376.324-.808.324-1.296 0-.496-.106-.934-.318-1.314a2.207 2.207 0 0 0-.894-.882c-.384-.208-.828-.312-1.332-.312h-3.3a.139.139 0 0 0-.102.042.139.139 0 0 0-.042.102v8.124c0 .04.014.074.042.102a.139.139 0 0 0 .102.042h1.104zm1.992-4.56h-1.788c-.04 0-.06-.02-.06-.06v-2.532c0-.04.02-.06.06-.06h1.788c.408 0 .736.124.984.372s.372.572.372.972c0 .392-.124.708-.372.948s-.576.36-.984.36zm5.26 4.56c.04 0 .074-.014.102-.042a.139.139 0 0 0 .042-.102v-3.396c0-.352.112-.638.336-.858a1.24 1.24 0 0 1 .84-.354c.056-.008.136-.012.24-.012.16 0 .3.02.42.06.104.04.16.012.168-.084l.204-1.08c.016-.088-.008-.148-.072-.18a1.39 1.39 0 0 0-.672-.156c-.6 0-1.068.26-1.404.78-.016.024-.03.034-.042.03-.012-.004-.018-.022-.018-.054v-.54a.139.139 0 0 0-.042-.102.139.139 0 0 0-.102-.042h-1.104a.139.139 0 0 0-.102.042.139.139 0 0 0-.042.102v5.844c0 .04.014.074.042.102a.139.139 0 0 0 .102.042h1.104zm5.92.096c.615 0 1.147-.162 1.595-.486.448-.324.764-.77.948-1.338a4.31 4.31 0 0 0 .204-1.368c0-.528-.072-.984-.216-1.368-.184-.552-.498-.984-.942-1.296-.444-.312-.97-.468-1.578-.468-.64 0-1.188.156-1.644.468-.456.312-.776.748-.96 1.308-.128.4-.192.856-.192 1.368 0 .48.068.936.204 1.368.184.568.502 1.012.954 1.332.452.32.994.48 1.626.48zm0-1.2c-.313 0-.579-.084-.799-.252a1.322 1.322 0 0 1-.462-.708c-.08-.28-.12-.616-.12-1.008s.04-.728.12-1.008c.096-.304.252-.538.468-.702.216-.164.472-.246.768-.246.312 0 .576.082.792.246.216.164.368.398.456.702.08.24.12.576.12 1.008 0 .408-.04.744-.12 1.008-.096.304-.25.54-.462.708a1.19 1.19 0 0 1-.762.252zm9.543-5.868c.248 0 .452-.08.612-.24.16-.16.24-.364.24-.612a.829.829 0 0 0-.24-.612.829.829 0 0 0-.612-.24.829.829 0 0 0-.612.24.829.829 0 0 0-.24.612c0 .248.08.452.24.612.16.16.364.24.612.24zM530.274 129c.04 0 .074-.014.102-.042a.139.139 0 0 0 .042-.102v-4.704c0-.04.02-.06.06-.06h1.188c.04 0 .074-.014.102-.042a.139.139 0 0 0 .042-.102V123a.139.139 0 0 0-.042-.102.139.139 0 0 0-.102-.042h-1.188c-.04 0-.06-.02-.06-.06v-.12c0-.36.066-.608.198-.744s.37-.204.714-.204h.312c.04 0 .074-.014.102-.042a.139.139 0 0 0 .042-.102v-.84a.139.139 0 0 0-.042-.102.139.139 0 0 0-.102-.042h-.42c-.568-.008-1.008.048-1.32.168-.312.12-.536.322-.672.606s-.204.686-.204 1.206v.216c0 .04-.02.06-.06.06h-.744a.139.139 0 0 0-.102.042.139.139 0 0 0-.042.102v.948c0 .04.014.074.042.102a.139.139 0 0 0 .102.042h.744c.04 0 .06.02.06.06v4.704c0 .04.014.074.042.102a.139.139 0 0 0 .102.042h1.104zm4.032 0c.04 0 .074-.014.102-.042a.139.139 0 0 0 .042-.102V123a.139.139 0 0 0-.042-.102.139.139 0 0 0-.102-.042h-1.104a.139.139 0 0 0-.102.042.139.139 0 0 0-.042.102v5.856c0 .04.014.074.042.102a.139.139 0 0 0 .102.042h1.104zm4.3.024.623-.012c.096-.016.144-.068.144-.156v-.9a.139.139 0 0 0-.042-.102.139.139 0 0 0-.102-.042h-.36c-.288 0-.498-.068-.63-.204-.132-.136-.198-.356-.198-.66v-2.892c0-.04.02-.06.06-.06h1.224c.04 0 .074-.014.102-.042a.139.139 0 0 0 .042-.102v-.84a.139.139 0 0 0-.042-.102.139.139 0 0 0-.102-.042h-1.224c-.04 0-.06-.02-.06-.06v-1.404a.139.139 0 0 0-.042-.102.139.139 0 0 0-.102-.042h-1.044a.139.139 0 0 0-.102.042.139.139 0 0 0-.042.102v1.404c0 .04-.02.06-.06.06h-.684a.139.139 0 0 0-.102.042.139.139 0 0 0-.042.102v.84c0 .04.014.074.042.102a.139.139 0 0 0 .102.042h.684c.04 0 .06.02.06.06v3.42c.008.6.168 1.008.48 1.224.312.216.784.324 1.416.324z" fill="#FFF" fill-rule="nonzero"/>
        <path d="M396.028 129.9v-.6H385v.6h11.028zm6.591 0v-.6h-4.291v.6h4.291zm17.639 0v-.6H404.92v.6h15.338zm30.164 0v-.6h-27.864v.6h27.864zm2.551-.6v.6h23.898v-.6h-23.898z" fill="#FFF" fill-rule="nonzero"/>
    </g>
</svg>
