<svg width="524" height="238" xmlns="http://www.w3.org/2000/svg">
    <g fill="none" fill-rule="evenodd">
        <path d="M201 218a4 4 0 0 1 4 4v12a4 4 0 0 1-4 4h-64a4 4 0 0 1-4-4v-12a4 4 0 0 1 4-4h64zm49-44a4 4 0 0 1 4 4v12a4 4 0 0 1-4 4H6a4 4 0 0 1-4-4v-12a4 4 0 0 1 4-4h244zm26-122a4 4 0 0 1 4 4v114a4 4 0 0 1-4 4h-18a4 4 0 0 1-4-4V56a4 4 0 0 1 4-4h18z" fill-opacity=".1" fill="#FFF"/>
        <path d="M252 170.53v1.205H0v-1.206h252zm0-36.177v.5H0v-.5h252zm0-36.177v.5H0v-.5h252zm0-36.647v1.206H0V61.53h252z" fill="#FFF" opacity=".2"/>
        <path d="M37 156v15H19v-15h18zm69-17.4V171H88v-32.4h18zm63-16.2V171h-18v-48.6h18zm69-10.2V171h-18v-58.8h18z" fill="#57F" fill-rule="nonzero"/>
        <path d="M37 146v10H19v-10h18zm69-29v21.6H88V117h18zm63-27v32.4h-18V90h18zm69-17v39.2h-18V73h18z" fill="#98ABF6" fill-rule="nonzero"/>
        <path d="M10.98 188c.06 0 .1-.027.12-.08l.4-1.26c.007-.02.02-.03.04-.03h2.99c.02 0 .033.01.04.03l.4 1.26c.02.053.06.08.12.08h.54c.06 0 .09-.023.09-.07l-.01-.04-2.22-6.81c-.02-.053-.06-.08-.12-.08h-.68c-.06 0-.1.027-.12.08l-2.21 6.81c-.02.073.007.11.08.11h.54zm3.34-1.95h-2.58a.048.048 0 0 1-.035-.015c-.01-.01-.012-.022-.005-.035l1.3-4.08c.007-.013.017-.02.03-.02.013 0 .023.007.03.02l1.3 4.08c.007.013.005.025-.005.035a.048.048 0 0 1-.035.015zm3.589 1.95c.066 0 .1-.033.1-.1v-3.23c0-.36.105-.647.315-.86.21-.213.491-.32.845-.32.346 0 .623.108.83.325.206.217.31.508.31.875v3.21c0 .067.033.1.1.1h.51c.066 0 .1-.033.1-.1v-3.23c0-.36.108-.647.325-.86.216-.213.501-.32.855-.32.34 0 .615.108.825.325.21.217.315.508.315.875v3.21c0 .067.033.1.1.1h.5c.066 0 .1-.033.1-.1v-3.35c0-.52-.145-.93-.435-1.23-.29-.3-.685-.45-1.185-.45-.34 0-.644.068-.91.205a1.434 1.434 0 0 0-.62.615c-.02.033-.037.033-.05 0a1.346 1.346 0 0 0-.56-.61c-.247-.14-.544-.21-.89-.21-.28 0-.535.048-.765.145-.23.097-.419.242-.565.435-.014.013-.025.018-.035.015-.01-.003-.015-.012-.015-.025v-.4c0-.067-.034-.1-.1-.1h-.51c-.067 0-.1.033-.1.1v4.86c0 .067.033.1.1.1h.51zm9.928.09c.433 0 .817-.092 1.15-.275a1.8 1.8 0 0 0 .75-.755c.027-.06.013-.107-.04-.14l-.39-.23c-.053-.033-.1-.02-.14.04-.12.233-.287.413-.5.54-.213.127-.46.19-.74.19-.373 0-.68-.087-.92-.26a1.196 1.196 0 0 1-.47-.71c-.027-.107-.047-.343-.06-.71 0-.027.013-.04.04-.04h3.23c.067 0 .1-.033.1-.1v-.32c0-.28-.013-.513-.04-.7-.08-.56-.283-.993-.61-1.3-.327-.307-.793-.46-1.4-.46-.487 0-.902.13-1.245.39-.343.26-.572.607-.685 1.04-.04.14-.065.298-.075.475-.01.177-.015.405-.015.685 0 .6.06 1.06.18 1.38.14.393.37.7.69.92.32.22.717.333 1.19.34zm1.27-2.95h-2.59c-.027 0-.04-.013-.04-.04.013-.313.04-.54.08-.68.067-.287.208-.515.425-.685.217-.17.488-.255.815-.255.34 0 .622.088.845.265.223.177.372.415.445.715.027.127.047.34.06.64 0 .027-.013.04-.04.04zm3.189 2.86c.066 0 .1-.033.1-.1v-2.95c0-.373.113-.682.34-.925.226-.243.513-.372.86-.385l.13-.01c.146 0 .276.023.39.07.066.027.11.007.13-.06l.11-.49c.013-.06-.007-.103-.06-.13a1.18 1.18 0 0 0-.57-.13c-.287 0-.539.068-.755.205a1.592 1.592 0 0 0-.535.575c-.007.013-.015.018-.025.015-.01-.003-.015-.015-.015-.035v-.61c0-.067-.034-.1-.1-.1h-.51c-.067 0-.1.033-.1.1v4.86c0 .067.033.1.1.1h.51zm3.938-5.98c.16 0 .294-.053.4-.16a.543.543 0 0 0 .16-.4.539.539 0 0 0-.56-.56.539.539 0 0 0-.56.56c0 .16.054.293.16.4.107.107.24.16.4.16zm.23 5.97c.067 0 .1-.033.1-.1v-4.86c0-.067-.033-.1-.1-.1h-.51c-.066 0-.1.033-.1.1v4.86c0 .067.034.1.1.1h.51zm4.179.09c.487 0 .91-.12 1.27-.36s.59-.553.69-.94l.04-.2c.007-.06-.023-.097-.09-.11l-.49-.08c-.073-.013-.113.013-.12.08l-.01.04v.04a1.08 1.08 0 0 1-.445.655 1.41 1.41 0 0 1-.845.255c-.333 0-.612-.088-.835-.265a1.216 1.216 0 0 1-.435-.715c-.06-.24-.09-.58-.09-1.02 0-.42.03-.757.09-1.01.067-.293.212-.528.435-.705.223-.177.502-.265.835-.265.333 0 .617.088.85.265.233.177.38.392.44.645l.03.15c.013.06.043.09.09.09h.02l.5-.07c.06-.013.09-.043.09-.09v-.02a1.688 1.688 0 0 0-.06-.3c-.107-.367-.338-.673-.695-.92-.357-.247-.778-.37-1.265-.37-.48 0-.893.125-1.24.375s-.58.582-.7.995c-.087.333-.13.74-.13 1.22 0 .533.043.947.13 1.24.127.427.362.765.705 1.015.343.25.755.375 1.235.375zm5.048 0c.327 0 .624-.052.89-.155.267-.103.484-.255.65-.455.014-.013.025-.017.035-.01.01.007.015.017.015.03v.41c0 .067.034.1.1.1h.51c.067 0 .1-.033.1-.1v-3.36c0-.507-.163-.913-.49-1.22-.326-.307-.79-.46-1.39-.46-.52 0-.953.117-1.3.35-.346.233-.546.537-.6.91-.013.04.017.067.09.08l.54.07c.06.007.1-.023.12-.09a.775.775 0 0 1 .37-.515c.2-.123.46-.185.78-.185.4 0 .695.098.885.295.19.197.285.465.285.805v.38c0 .027-.013.04-.04.04h-1.16c-.646 0-1.151.145-1.515.435-.363.29-.545.685-.545 1.185 0 .493.16.86.48 1.1.32.24.717.36 1.19.36zm.14-.61c-.326 0-.591-.075-.795-.225-.203-.15-.305-.372-.305-.665 0-.32.134-.57.4-.75.267-.18.62-.27 1.06-.27h1.05c.027 0 .04.013.04.04v.78c0 .333-.143.598-.43.795a1.759 1.759 0 0 1-1.02.295zM88.89 188c.06 0 .1-.027.12-.08l.4-1.26c.006-.02.02-.03.04-.03h2.99c.02 0 .033.01.04.03l.4 1.26c.02.053.06.08.12.08h.54c.06 0 .09-.023.09-.07l-.01-.04-2.22-6.81c-.02-.053-.06-.08-.12-.08h-.68c-.06 0-.1.027-.12.08l-2.21 6.81c-.02.073.006.11.08.11h.54zm3.34-1.95h-2.58a.048.048 0 0 1-.036-.015c-.01-.01-.011-.022-.005-.035l1.3-4.08c.007-.013.017-.02.03-.02.014 0 .024.007.03.02l1.3 4.08c.007.013.005.025-.005.035a.048.048 0 0 1-.035.015zm4.638 2c.56 0 1.01-.13 1.35-.39.34-.26.51-.607.51-1.04 0-.307-.087-.555-.26-.745a1.729 1.729 0 0 0-.62-.435c-.24-.1-.553-.207-.94-.32-.42-.12-.73-.24-.93-.36a.573.573 0 0 1-.3-.52c0-.24.103-.428.31-.565.207-.137.48-.205.82-.205.367 0 .658.077.875.23.217.153.325.343.325.57v.03c0 .067.033.1.1.1h.47c.067 0 .1-.033.1-.1v-.03c0-.26-.077-.495-.23-.705a1.521 1.521 0 0 0-.655-.495 2.481 2.481 0 0 0-.975-.18c-.547 0-.987.127-1.32.38-.333.253-.5.593-.5 1.02 0 .293.082.535.245.725.163.19.365.338.605.445.24.107.547.213.92.32.313.093.545.17.695.23.15.06.28.143.39.25.11.107.165.243.165.41 0 .24-.107.438-.32.595-.213.157-.493.235-.84.235s-.635-.082-.865-.245c-.23-.163-.345-.355-.345-.575v-.08c0-.067-.033-.1-.1-.1h-.48c-.067 0-.1.033-.1.1v.12c0 .247.078.47.235.67.157.2.38.36.67.48.29.12.622.18.995.18zm4.058-6.03c.16 0 .294-.053.4-.16a.543.543 0 0 0 .16-.4.539.539 0 0 0-.56-.56.539.539 0 0 0-.56.56c0 .16.054.293.16.4.107.107.24.16.4.16zm.23 5.97c.067 0 .1-.033.1-.1v-4.86c0-.067-.033-.1-.1-.1h-.51c-.066 0-.1.033-.1.1v4.86c0 .067.034.1.1.1h.51zm3.599.09c.327 0 .623-.052.89-.155.267-.103.483-.255.65-.455.013-.013.025-.017.035-.01.01.007.015.017.015.03v.41c0 .067.033.1.1.1h.51c.067 0 .1-.033.1-.1v-3.36c0-.507-.163-.913-.49-1.22-.327-.307-.79-.46-1.39-.46-.52 0-.953.117-1.3.35-.347.233-.547.537-.6.91-.013.04.017.067.09.08l.54.07c.06.007.1-.023.12-.09a.775.775 0 0 1 .37-.515c.2-.123.46-.185.78-.185.4 0 .695.098.885.295.19.197.285.465.285.805v.38c0 .027-.013.04-.04.04h-1.16c-.647 0-1.152.145-1.515.435-.363.29-.545.685-.545 1.185 0 .493.16.86.48 1.1.32.24.717.36 1.19.36zm.14-.61c-.327 0-.592-.075-.795-.225-.203-.15-.305-.372-.305-.665 0-.32.133-.57.4-.75.267-.18.62-.27 1.06-.27h1.05c.027 0 .04.013.04.04v.78c0 .333-.143.598-.43.795a1.759 1.759 0 0 1-1.02.295zM261.81 170.1c.647 0 1.163-.183 1.55-.55.387-.367.58-.857.58-1.47v-3.16c0-.607-.193-1.093-.58-1.46-.387-.367-.903-.55-1.55-.55-.64 0-1.15.182-1.53.545-.38.363-.57.852-.57 1.465v3.16c0 .613.19 1.103.57 1.47.38.367.89.55 1.53.55zm0-.62c-.42 0-.757-.123-1.01-.37s-.38-.577-.38-.99v-3.23c0-.407.127-.733.38-.98s.59-.37 1.01-.37c.433 0 .778.123 1.035.37.257.247.385.573.385.98v3.23c0 .413-.13.743-.39.99s-.603.37-1.03.37zM261.47 138c.067 0 .1-.033.1-.1v-6.8c0-.067-.033-.1-.1-.1h-.54c-.047 0-.09.01-.13.03l-1.15.61c-.047.033-.07.067-.07.1v.02l.05.38c.013.053.04.08.08.08l.04-.01 1.06-.43c.013-.007.025-.007.035 0 .01.007.015.017.015.03v6.09c0 .067.033.1.1.1h.51zm4.269.1c.646 0 1.163-.183 1.55-.55.386-.367.58-.857.58-1.47v-3.16c0-.607-.194-1.093-.58-1.46-.387-.367-.904-.55-1.55-.55-.64 0-1.15.182-1.53.545-.38.363-.57.852-.57 1.465v3.16c0 .613.19 1.103.57 1.47.38.367.89.55 1.53.55zm0-.62c-.42 0-.757-.123-1.01-.37-.254-.247-.38-.577-.38-.99v-3.23c0-.407.126-.733.38-.98.253-.247.59-.37 1.01-.37.433 0 .778.123 1.035.37.256.247.385.573.385.98v3.23c0 .413-.13.743-.39.99s-.604.37-1.03.37zm6.728.52c.627 0 1.132-.167 1.515-.5.383-.333.575-.8.575-1.4 0-.407-.093-.753-.28-1.04a1.718 1.718 0 0 0-.82-.65c-.033-.02-.033-.04 0-.06a1.64 1.64 0 0 0 .755-.585c.177-.257.265-.568.265-.935 0-.58-.185-1.03-.555-1.35-.37-.32-.878-.48-1.525-.48h-2.35c-.067 0-.1.033-.1.1v6.8c0 .067.033.1.1.1h2.42zm-.07-3.9h-1.7c-.027 0-.04-.013-.04-.04v-2.4c0-.027.013-.04.04-.04h1.7c.42 0 .755.115 1.005.345.25.23.375.538.375.925 0 .367-.125.66-.375.88-.25.22-.585.33-1.005.33zm.07 3.27h-1.77c-.027 0-.04-.013-.04-.04v-2.59c0-.027.013-.04.04-.04h1.73c.433 0 .778.122 1.035.365.257.243.385.568.385.975 0 .407-.125.73-.375.97s-.585.36-1.005.36zM263.68 102c.067 0 .1-.033.1-.1v-.42c0-.067-.033-.1-.1-.1h-3.14c-.033 0-.04-.017-.02-.05l.22-.26c.933-1.127 1.563-1.9 1.89-2.32.627-.8.94-1.483.94-2.05 0-.34-.083-.645-.25-.915a1.71 1.71 0 0 0-.71-.635 2.34 2.34 0 0 0-1.06-.23c-.567 0-1.035.157-1.405.47-.37.313-.562.727-.575 1.24v.4c0 .067.033.1.1.1h.52c.067 0 .1-.033.1-.1v-.31c-.007-.353.107-.638.34-.855.233-.217.54-.325.92-.325.387 0 .7.107.94.32.24.213.36.497.36.85 0 .44-.313 1.057-.94 1.85l-.74.92c-.793.987-1.303 1.613-1.53 1.88a.164.164 0 0 0-.05.12v.42c0 .067.033.1.1.1h3.99zm3.919.1c.646 0 1.163-.183 1.55-.55.386-.367.58-.857.58-1.47v-3.16c0-.607-.194-1.093-.58-1.46-.387-.367-.904-.55-1.55-.55-.64 0-1.15.182-1.53.545-.38.363-.57.852-.57 1.465v3.16c0 .613.19 1.103.57 1.47.38.367.89.55 1.53.55zm0-.62c-.42 0-.757-.123-1.01-.37-.254-.247-.38-.577-.38-.99v-3.23c0-.407.126-.733.38-.98.253-.247.59-.37 1.01-.37.433 0 .778.123 1.035.37.256.247.385.573.385.98v3.23c0 .413-.13.743-.39.99s-.604.37-1.03.37zm6.728.52c.627 0 1.132-.167 1.515-.5.383-.333.575-.8.575-1.4 0-.407-.093-.753-.28-1.04a1.718 1.718 0 0 0-.82-.65c-.033-.02-.033-.04 0-.06a1.64 1.64 0 0 0 .755-.585c.177-.257.265-.568.265-.935 0-.58-.185-1.03-.555-1.35-.37-.32-.878-.48-1.525-.48h-2.35c-.067 0-.1.033-.1.1v6.8c0 .067.033.1.1.1h2.42zm-.07-3.9h-1.7c-.027 0-.04-.013-.04-.04v-2.4c0-.027.013-.04.04-.04h1.7c.42 0 .755.115 1.005.345.25.23.375.538.375.925 0 .367-.125.66-.375.88-.25.22-.585.33-1.005.33zm.07 3.27h-1.77c-.027 0-.04-.013-.04-.04v-2.59c0-.027.013-.04.04-.04h1.73c.433 0 .778.122 1.035.365.257.243.385.568.385.975 0 .407-.125.73-.375.97s-.585.36-1.005.36zM261.5 66.08c.467 0 .858-.108 1.175-.325.317-.217.542-.525.675-.925.1-.28.15-.603.15-.97 0-.453-.067-.843-.2-1.17-.26-.627-.747-.963-1.46-1.01-.02 0-.033-.005-.04-.015-.007-.01-.003-.022.01-.035l1.6-1.92c.033-.047.05-.087.05-.12v-.49c0-.067-.033-.1-.1-.1h-3.7c-.067 0-.1.033-.1.1v.42c0 .067.033.1.1.1h2.82c.033 0 .04.017.02.05l-1.76 2.06c-.04.04-.043.087-.01.14l.26.35c.02.033.043.05.07.05a.154.154 0 0 0 .06-.02.868.868 0 0 1 .37-.11c.54 0 .917.24 1.13.72.107.253.16.58.16.98 0 .327-.04.6-.12.82-.18.533-.57.8-1.17.8-.313 0-.575-.085-.785-.255a1.255 1.255 0 0 1-.425-.695 4.248 4.248 0 0 1-.07-.54c0-.067-.033-.1-.1-.1h-.51c-.067 0-.1.033-.1.1.013.32.05.573.11.76.127.413.357.742.69.985.333.243.733.365 1.2.365zm5.889.02c.646 0 1.163-.183 1.55-.55.386-.367.58-.857.58-1.47v-3.16c0-.607-.194-1.093-.58-1.46-.387-.367-.904-.55-1.55-.55-.64 0-1.15.182-1.53.545-.38.363-.57.852-.57 1.465v3.16c0 .613.19 1.103.57 1.47.38.367.89.55 1.53.55zm0-.62c-.42 0-.757-.123-1.01-.37-.254-.247-.38-.577-.38-.99v-3.23c0-.407.126-.733.38-.98.253-.247.59-.37 1.01-.37.433 0 .778.123 1.035.37.256.247.385.573.385.98v3.23c0 .413-.13.743-.39.99s-.604.37-1.03.37zm6.728.52c.627 0 1.132-.167 1.515-.5.383-.333.575-.8.575-1.4 0-.407-.093-.753-.28-1.04a1.718 1.718 0 0 0-.82-.65c-.033-.02-.033-.04 0-.06a1.64 1.64 0 0 0 .755-.585c.177-.257.265-.568.265-.935 0-.58-.185-1.03-.555-1.35-.37-.32-.878-.48-1.525-.48h-2.35c-.067 0-.1.033-.1.1v6.8c0 .067.033.1.1.1h2.42zm-.07-3.9h-1.7c-.027 0-.04-.013-.04-.04v-2.4c0-.027.013-.04.04-.04h1.7c.42 0 .755.115 1.005.345.25.23.375.538.375.925 0 .367-.125.66-.375.88-.25.22-.585.33-1.005.33zm.07 3.27h-1.77c-.027 0-.04-.013-.04-.04v-2.59c0-.027.013-.04.04-.04h1.73c.433 0 .778.122 1.035.365.257.243.385.568.385.975 0 .407-.125.73-.375.97s-.585.36-1.005.36zM148.37 188c.067 0 .1-.033.1-.1v-.42c0-.067-.033-.1-.1-.1h-3.68c-.027 0-.04-.013-.04-.04v-2.51c0-.027.013-.04.04-.04h2.58c.067 0 .1-.033.1-.1v-.42c0-.067-.033-.1-.1-.1h-2.58c-.027 0-.04-.013-.04-.04v-2.47c0-.027.013-.04.04-.04h3.68c.067 0 .1-.033.1-.1v-.42c0-.067-.033-.1-.1-.1h-4.33c-.067 0-.1.033-.1.1v6.8c0 .067.033.1.1.1h4.33zm3.589.07c.606 0 1.05-.207 1.33-.62.006-.013.016-.017.03-.01.013.007.02.017.02.03v.43c0 .067.033.1.1.1h.51c.066 0 .1-.033.1-.1v-4.86c0-.067-.034-.1-.1-.1h-.51c-.067 0-.1.033-.1.1v3.17c0 .373-.112.673-.335.9-.224.227-.525.34-.905.34-.367 0-.657-.112-.87-.335-.214-.223-.32-.525-.32-.905v-3.17c0-.067-.034-.1-.1-.1h-.51c-.067 0-.1.033-.1.1v3.38c0 .347.078.643.235.89.156.247.37.435.64.565.27.13.565.195.885.195zm4.718-.07c.067 0 .1-.033.1-.1v-2.95c0-.373.113-.682.34-.925.227-.243.513-.372.86-.385l.13-.01c.147 0 .277.023.39.07.067.027.11.007.13-.06l.11-.49c.013-.06-.007-.103-.06-.13a1.18 1.18 0 0 0-.57-.13c-.287 0-.538.068-.755.205a1.592 1.592 0 0 0-.535.575c-.007.013-.015.018-.025.015-.01-.003-.015-.015-.015-.035v-.61c0-.067-.033-.1-.1-.1h-.51c-.067 0-.1.033-.1.1v4.86c0 .067.033.1.1.1h.51zm5.339.08c.48 0 .891-.123 1.235-.37.343-.247.578-.587.705-1.02.093-.28.14-.69.14-1.23 0-.533-.047-.943-.14-1.23a1.853 1.853 0 0 0-.705-1c-.344-.247-.752-.37-1.225-.37-.494 0-.914.123-1.26.37a1.845 1.845 0 0 0-.71 1.01c-.094.3-.14.707-.14 1.22s.046.923.14 1.23c.133.433.373.773.72 1.02.346.247.76.37 1.24.37zm0-.62c-.334 0-.615-.088-.845-.265a1.244 1.244 0 0 1-.455-.715c-.054-.233-.08-.57-.08-1.01 0-.44.026-.777.08-1.01.08-.3.233-.538.46-.715a1.31 1.31 0 0 1 .83-.265c.326 0 .605.088.835.265.23.177.385.415.465.715.053.233.08.57.08 1.01 0 .433-.03.77-.09 1.01-.08.3-.234.538-.46.715-.227.177-.5.265-.82.265zm4.628 2.48c.067 0 .1-.033.1-.1v-2.35c0-.013.005-.022.015-.025.01-.003.022.002.035.015.147.193.33.342.55.445.22.103.46.155.72.155.48 0 .879-.122 1.195-.365.317-.243.535-.578.655-1.005.087-.293.13-.707.13-1.24 0-.527-.05-.95-.15-1.27a1.83 1.83 0 0 0-.655-.98c-.316-.24-.708-.36-1.175-.36a1.62 1.62 0 0 0-.725.16 1.516 1.516 0 0 0-.545.45c-.013.013-.025.018-.035.015-.01-.003-.015-.012-.015-.025v-.42c0-.067-.033-.1-.1-.1h-.51c-.066 0-.1.033-.1.1v6.8c0 .067.034.1.1.1h.51zm1.34-2.48c-.253 0-.471-.068-.655-.205a1.132 1.132 0 0 1-.395-.545 1.69 1.69 0 0 1-.14-.485 5.533 5.533 0 0 1-.04-.755c0-.32.014-.57.04-.75.027-.18.07-.337.13-.47.087-.233.22-.42.4-.56.18-.14.404-.21.67-.21.28 0 .522.07.725.21.204.14.345.33.425.57.067.14.114.298.14.475.027.177.04.422.04.735 0 .327-.018.582-.055.765a1.963 1.963 0 0 1-.165.495c-.086.22-.228.397-.425.53-.196.133-.428.2-.695.2zm5.769.63c.433 0 .817-.092 1.15-.275a1.8 1.8 0 0 0 .75-.755c.027-.06.013-.107-.04-.14l-.39-.23c-.053-.033-.1-.02-.14.04-.12.233-.287.413-.5.54-.213.127-.46.19-.74.19-.373 0-.68-.087-.92-.26a1.196 1.196 0 0 1-.47-.71c-.027-.107-.047-.343-.06-.71 0-.027.013-.04.04-.04h3.23c.067 0 .1-.033.1-.1v-.32c0-.28-.013-.513-.04-.7-.08-.56-.283-.993-.61-1.3-.327-.307-.793-.46-1.4-.46-.487 0-.902.13-1.245.39-.343.26-.572.607-.685 1.04-.04.14-.065.298-.075.475-.01.177-.015.405-.015.685 0 .6.06 1.06.18 1.38.14.393.37.7.69.92.32.22.717.333 1.19.34zm1.27-2.95h-2.59c-.027 0-.04-.013-.04-.04.013-.313.04-.54.08-.68.067-.287.208-.515.425-.685.217-.17.488-.255.815-.255.34 0 .622.088.845.265.223.177.372.415.445.715.027.127.047.34.06.64 0 .027-.013.04-.04.04zM209.98 188c.06 0 .1-.027.12-.08l.4-1.26c.007-.02.02-.03.04-.03h2.99c.02 0 .033.01.04.03l.4 1.26c.02.053.06.08.12.08h.54c.06 0 .09-.023.09-.07l-.01-.04-2.22-6.81c-.02-.053-.06-.08-.12-.08h-.68c-.06 0-.1.027-.12.08l-2.21 6.81c-.02.073.007.11.08.11h.54zm3.34-1.95h-2.58a.048.048 0 0 1-.035-.015c-.01-.01-.012-.022-.005-.035l1.3-4.08c.007-.013.017-.02.03-.02.013 0 .023.007.03.02l1.3 4.08c.007.013.005.025-.005.035a.048.048 0 0 1-.035.015zm4.659 2.02c.606 0 1.05-.207 1.33-.62.006-.013.016-.017.03-.01.013.007.02.017.02.03v.43c0 .067.033.1.1.1h.51c.066 0 .1-.033.1-.1v-4.86c0-.067-.034-.1-.1-.1h-.51c-.067 0-.1.033-.1.1v3.17c0 .373-.112.673-.335.9-.224.227-.525.34-.905.34-.367 0-.657-.112-.87-.335-.214-.223-.32-.525-.32-.905v-3.17c0-.067-.034-.1-.1-.1h-.51c-.067 0-.1.033-.1.1v3.38c0 .347.078.643.235.89.156.247.37.435.64.565.27.13.565.195.885.195zm5.768-.02c.56 0 1.01-.13 1.35-.39.34-.26.51-.607.51-1.04 0-.307-.087-.555-.26-.745a1.729 1.729 0 0 0-.62-.435c-.24-.1-.553-.207-.94-.32-.42-.12-.73-.24-.93-.36a.573.573 0 0 1-.3-.52c0-.24.103-.428.31-.565.207-.137.48-.205.82-.205.367 0 .658.077.875.23.217.153.325.343.325.57v.03c0 .067.033.1.1.1h.47c.067 0 .1-.033.1-.1v-.03c0-.26-.077-.495-.23-.705a1.521 1.521 0 0 0-.655-.495 2.481 2.481 0 0 0-.975-.18c-.547 0-.987.127-1.32.38-.333.253-.5.593-.5 1.02 0 .293.082.535.245.725.163.19.365.338.605.445.24.107.547.213.92.32.313.093.545.17.695.23.15.06.28.143.39.25.11.107.165.243.165.41 0 .24-.107.438-.32.595-.213.157-.493.235-.84.235s-.635-.082-.865-.245c-.23-.163-.345-.355-.345-.575v-.08c0-.067-.033-.1-.1-.1h-.48c-.067 0-.1.033-.1.1v.12c0 .247.078.47.235.67.157.2.38.36.67.48.29.12.622.18.995.18zm5.339-.04c.166 0 .29-.003.37-.01.066 0 .1-.033.1-.1v-.41c0-.067-.034-.1-.1-.1h-.25c-.307 0-.532-.065-.675-.195-.144-.13-.215-.355-.215-.675v-2.95c0-.027.013-.04.04-.04h1.13c.066 0 .1-.033.1-.1v-.39c0-.067-.034-.1-.1-.1h-1.13c-.027 0-.04-.013-.04-.04v-1.16c0-.067-.034-.1-.1-.1h-.49c-.067 0-.1.033-.1.1v1.16c0 .027-.014.04-.04.04h-.61c-.067 0-.1.033-.1.1v.39c0 .067.033.1.1.1h.61c.026 0 .04.013.04.04v3.17c0 .487.123.82.37 1 .246.18.61.27 1.09.27zm2.908-.01c.067 0 .1-.033.1-.1v-2.95c0-.373.114-.682.34-.925.227-.243.514-.372.86-.385l.13-.01c.147 0 .277.023.39.07.067.027.11.007.13-.06l.11-.49c.014-.06-.006-.103-.06-.13a1.18 1.18 0 0 0-.57-.13c-.286 0-.538.068-.755.205a1.592 1.592 0 0 0-.535.575c-.006.013-.015.018-.025.015-.01-.003-.015-.015-.015-.035v-.61c0-.067-.033-.1-.1-.1h-.51c-.066 0-.1.033-.1.1v4.86c0 .067.034.1.1.1h.51zm4.769.08c.327 0 .623-.052.89-.155.267-.103.483-.255.65-.455.013-.013.025-.017.035-.01.01.007.015.017.015.03v.41c0 .067.033.1.1.1h.51c.067 0 .1-.033.1-.1v-3.36c0-.507-.163-.913-.49-1.22-.327-.307-.79-.46-1.39-.46-.52 0-.953.117-1.3.35-.347.233-.547.537-.6.91-.013.04.017.067.09.08l.54.07c.06.007.1-.023.12-.09a.775.775 0 0 1 .37-.515c.2-.123.46-.185.78-.185.4 0 .695.098.885.295.19.197.285.465.285.805v.38c0 .027-.013.04-.04.04h-1.16c-.647 0-1.152.145-1.515.435-.363.29-.545.685-.545 1.185 0 .493.16.86.48 1.1.32.24.717.36 1.19.36zm.14-.61c-.327 0-.592-.075-.795-.225-.203-.15-.305-.372-.305-.665 0-.32.133-.57.4-.75.267-.18.62-.27 1.06-.27h1.05c.027 0 .04.013.04.04v.78c0 .333-.143.598-.43.795a1.759 1.759 0 0 1-1.02.295zm4.678.53c.067 0 .1-.033.1-.1v-6.8c0-.067-.033-.1-.1-.1h-.51c-.066 0-.1.033-.1.1v6.8c0 .067.034.1.1.1h.51zm2.599-5.98c.16 0 .293-.053.4-.16a.543.543 0 0 0 .16-.4.539.539 0 0 0-.56-.56.539.539 0 0 0-.56.56c0 .16.053.293.16.4.107.107.24.16.4.16zm.23 5.97c.067 0 .1-.033.1-.1v-4.86c0-.067-.033-.1-.1-.1h-.51c-.067 0-.1.033-.1.1v4.86c0 .067.033.1.1.1h.51zm3.599.09c.326 0 .623-.052.89-.155.266-.103.483-.255.65-.455.013-.013.025-.017.035-.01.01.007.015.017.015.03v.41c0 .067.033.1.1.1h.51c.066 0 .1-.033.1-.1v-3.36c0-.507-.164-.913-.49-1.22-.327-.307-.79-.46-1.39-.46-.52 0-.954.117-1.3.35-.347.233-.547.537-.6.91-.014.04.016.067.09.08l.54.07c.06.007.1-.023.12-.09a.775.775 0 0 1 .37-.515c.2-.123.46-.185.78-.185.4 0 .695.098.885.295.19.197.285.465.285.805v.38c0 .027-.014.04-.04.04h-1.16c-.647 0-1.152.145-1.515.435-.364.29-.545.685-.545 1.185 0 .493.16.86.48 1.1.32.24.716.36 1.19.36zm.14-.61c-.327 0-.592-.075-.795-.225-.204-.15-.305-.372-.305-.665 0-.32.133-.57.4-.75.266-.18.62-.27 1.06-.27h1.05c.026 0 .04.013.04.04v.78c0 .333-.144.598-.43.795a1.759 1.759 0 0 1-1.02.295z" fill="#FFF" fill-rule="nonzero" opacity=".8"/>
        <g fill-rule="nonzero">
            <path fill="#57F" d="M47 223h10v10H47z"/>
            <path d="M69.34 233.112c.663 0 1.248-.135 1.757-.406.509-.27.9-.651 1.176-1.141.275-.49.413-1.057.413-1.701v-3.528c0-.644-.138-1.211-.413-1.701a2.857 2.857 0 0 0-1.176-1.141c-.509-.27-1.094-.406-1.757-.406-.663 0-1.246.135-1.75.406-.504.27-.894.651-1.169 1.141s-.413 1.057-.413 1.701v3.528c0 .644.138 1.211.413 1.701.275.49.665.87 1.169 1.141.504.27 1.087.406 1.75.406zm0-.854c-.7 0-1.265-.215-1.694-.644-.43-.43-.644-.999-.644-1.708v-3.584c0-.71.215-1.281.644-1.715.43-.434.994-.651 1.694-.651.71 0 1.279.217 1.708.651.43.434.644 1.006.644 1.715v3.584c0 .71-.215 1.279-.644 1.708-.43.43-.999.644-1.708.644zm6.942.742c.093 0 .14-.047.14-.14v-4.452c0-.513.159-.929.476-1.246.317-.317.733-.476 1.246-.476.495 0 .898.163 1.211.49.313.327.469.747.469 1.26v4.424c0 .093.047.14.14.14h.714c.093 0 .14-.047.14-.14v-4.62c0-.737-.222-1.325-.665-1.764-.443-.439-1.038-.658-1.785-.658-.85 0-1.48.29-1.89.868-.01.019-.021.023-.035.014a.047.047 0 0 1-.021-.042v-.602c0-.093-.047-.14-.14-.14h-.714c-.093 0-.14.047-.14.14v6.804c0 .093.047.14.14.14h.714zm8.146 0c.093 0 .14-.047.14-.14v-9.52c0-.093-.047-.14-.14-.14h-.714c-.093 0-.14.047-.14.14v9.52c0 .093.047.14.14.14h.714zm3.638-8.372a.76.76 0 0 0 .56-.224.76.76 0 0 0 .224-.56.754.754 0 0 0-.784-.784.754.754 0 0 0-.784.784c0 .224.075.41.224.56a.76.76 0 0 0 .56.224zm.322 8.358c.093 0 .14-.047.14-.14v-6.804c0-.093-.047-.14-.14-.14h-.714c-.093 0-.14.047-.14.14v6.804c0 .093.047.14.14.14h.714zm4.03.014c.093 0 .14-.047.14-.14v-4.452c0-.513.159-.929.476-1.246.317-.317.733-.476 1.246-.476.495 0 .898.163 1.211.49.313.327.469.747.469 1.26v4.424c0 .093.047.14.14.14h.714c.093 0 .14-.047.14-.14v-4.62c0-.737-.222-1.325-.665-1.764-.443-.439-1.038-.658-1.785-.658-.85 0-1.48.29-1.89.868-.01.019-.021.023-.035.014a.047.047 0 0 1-.021-.042v-.602c0-.093-.047-.14-.14-.14h-.714c-.093 0-.14.047-.14.14v6.804c0 .093.047.14.14.14h.714zm9.868.126c.607 0 1.143-.128 1.61-.385a2.52 2.52 0 0 0 1.05-1.057c.037-.084.019-.15-.056-.196l-.546-.322c-.075-.047-.14-.028-.196.056a1.83 1.83 0 0 1-.7.756 1.99 1.99 0 0 1-1.036.266c-.523 0-.952-.121-1.288-.364a1.674 1.674 0 0 1-.658-.994c-.037-.15-.065-.48-.084-.994 0-.037.019-.056.056-.056h4.522c.093 0 .14-.047.14-.14v-.448a7.12 7.12 0 0 0-.056-.98c-.112-.784-.397-1.39-.854-1.82-.457-.43-1.11-.644-1.96-.644-.681 0-1.262.182-1.743.546-.48.364-.8.85-.959 1.456a3.055 3.055 0 0 0-.105.665c-.014.247-.021.567-.021.959 0 .84.084 1.484.252 1.932.196.55.518.98.966 1.288.448.308 1.003.467 1.666.476zm1.778-4.13h-3.626c-.037 0-.056-.019-.056-.056.019-.439.056-.756.112-.952.093-.401.292-.721.595-.959s.684-.357 1.141-.357c.476 0 .87.124 1.183.371.313.247.52.581.623 1.001.037.177.065.476.084.896 0 .037-.019.056-.056.056zM162.34 233.112c.663 0 1.248-.135 1.757-.406.509-.27.9-.651 1.176-1.141.275-.49.413-1.057.413-1.701v-3.528c0-.644-.138-1.211-.413-1.701a2.857 2.857 0 0 0-1.176-1.141c-.509-.27-1.094-.406-1.757-.406-.663 0-1.246.135-1.75.406-.504.27-.894.651-1.169 1.141s-.413 1.057-.413 1.701v3.528c0 .644.138 1.211.413 1.701.275.49.665.87 1.169 1.141.504.27 1.087.406 1.75.406zm0-.854c-.7 0-1.265-.215-1.694-.644-.43-.43-.644-.999-.644-1.708v-3.584c0-.71.215-1.281.644-1.715.43-.434.994-.651 1.694-.651.71 0 1.279.217 1.708.651.43.434.644 1.006.644 1.715v3.584c0 .71-.215 1.279-.644 1.708-.43.43-.999.644-1.708.644zm7.362.742c.093 0 .14-.047.14-.14v-6.062c0-.037.019-.056.056-.056h3.598c.037 0 .056.019.056.056v6.062c0 .093.047.14.14.14h.714c.093 0 .14-.047.14-.14v-6.062c0-.037.019-.056.056-.056h1.624c.093 0 .14-.047.14-.14v-.546c0-.093-.047-.14-.14-.14h-1.624c-.037 0-.056-.019-.056-.056v-.42c0-.513.089-.891.266-1.134.177-.243.513-.369 1.008-.378h.406c.093 0 .14-.047.14-.14v-.448c0-.093-.047-.14-.14-.14h-.406c-.84-.01-1.428.161-1.764.511-.336.35-.504.903-.504 1.659v.49c0 .037-.019.056-.056.056h-3.598c-.037 0-.056-.019-.056-.056v-.42c0-.513.089-.891.266-1.134.177-.243.513-.369 1.008-.378h.406c.093 0 .14-.047.14-.14v-.448c0-.093-.047-.14-.14-.14h-.406c-.84-.01-1.426.161-1.757.511-.331.35-.497.903-.497 1.659v.49c0 .037-.019.056-.056.056h-.882c-.093 0-.14.047-.14.14v.546c0 .093.047.14.14.14h.882c.037 0 .056.019.056.056v6.062c0 .093.047.14.14.14h.7zm9.212 0c.093 0 .14-.047.14-.14v-9.52c0-.093-.047-.14-.14-.14h-.714c-.093 0-.14.047-.14.14v9.52c0 .093.047.14.14.14h.714zm3.652-8.372a.76.76 0 0 0 .56-.224.76.76 0 0 0 .224-.56.754.754 0 0 0-.784-.784.754.754 0 0 0-.784.784c0 .224.075.41.224.56a.76.76 0 0 0 .56.224zm.322 8.358c.093 0 .14-.047.14-.14v-6.804c0-.093-.047-.14-.14-.14h-.714c-.093 0-.14.047-.14.14v6.804c0 .093.047.14.14.14h.714zm4.03.014c.093 0 .14-.047.14-.14v-4.452c0-.513.159-.929.476-1.246.317-.317.733-.476 1.246-.476.495 0 .898.163 1.211.49.313.327.469.747.469 1.26v4.424c0 .093.047.14.14.14h.714c.093 0 .14-.047.14-.14v-4.62c0-.737-.222-1.325-.665-1.764-.443-.439-1.038-.658-1.785-.658-.85 0-1.48.29-1.89.868-.01.019-.021.023-.035.014a.047.047 0 0 1-.021-.042v-.602c0-.093-.047-.14-.14-.14h-.714c-.093 0-.14.047-.14.14v6.804c0 .093.047.14.14.14h.714zm9.868.126c.607 0 1.143-.128 1.61-.385a2.52 2.52 0 0 0 1.05-1.057c.037-.084.019-.15-.056-.196l-.546-.322c-.075-.047-.14-.028-.196.056a1.83 1.83 0 0 1-.7.756 1.99 1.99 0 0 1-1.036.266c-.523 0-.952-.121-1.288-.364a1.674 1.674 0 0 1-.658-.994c-.037-.15-.065-.48-.084-.994 0-.037.019-.056.056-.056h4.522c.093 0 .14-.047.14-.14v-.448a7.12 7.12 0 0 0-.056-.98c-.112-.784-.397-1.39-.854-1.82-.457-.43-1.11-.644-1.96-.644-.681 0-1.262.182-1.743.546-.48.364-.8.85-.959 1.456a3.055 3.055 0 0 0-.105.665c-.014.247-.021.567-.021.959 0 .84.084 1.484.252 1.932.196.55.518.98.966 1.288.448.308 1.003.467 1.666.476zm1.778-4.13h-3.626c-.037 0-.056-.019-.056-.056.019-.439.056-.756.112-.952.093-.401.292-.721.595-.959s.684-.357 1.141-.357c.476 0 .87.124 1.183.371.313.247.52.581.623 1.001.037.177.065.476.084.896 0 .037-.019.056-.056.056z" fill="#FFF" opacity=".5"/>
            <path fill="#98ABF6" d="M140 223h10v10h-10z"/>
        </g>
        <g fill="#FFF" fill-rule="nonzero">
            <path d="M350.925 11c.094 0 .159-.037.196-.112l2.058-3.458c.028-.056.056-.056.084 0l2.058 3.458c.038.075.103.112.196.112h1.4c.094 0 .14-.033.14-.098 0-.01-.01-.042-.028-.098l-2.786-4.662a.13.13 0 0 1 0-.084l2.786-4.662c.038-.065.045-.114.021-.147-.023-.033-.067-.049-.133-.049h-1.4c-.093 0-.158.037-.196.112l-2.058 3.472c-.028.056-.056.056-.084 0l-2.044-3.472c-.037-.075-.107-.112-.21-.112h-1.4c-.093 0-.14.033-.14.098 0 .01.01.042.028.098l2.786 4.662a.07.07 0 0 1 0 .084l-2.786 4.662c-.037.065-.044.114-.02.147.023.033.067.049.132.049h1.4zm11.828-3.514a.162.162 0 0 0 .12-.049.162.162 0 0 0 .048-.119V6.254a.162.162 0 0 0-.049-.119.162.162 0 0 0-.119-.049h-4.41a.162.162 0 0 0-.119.049.162.162 0 0 0-.049.119v1.064c0 .047.017.086.05.119a.162.162 0 0 0 .118.049h4.41zM365.957 11c.094 0 .154-.047.182-.14l.462-1.498c.019-.037.042-.056.07-.056h3.696c.028 0 .052.019.07.056l.462 1.498c.028.093.089.14.182.14h1.4c.103 0 .154-.042.154-.126a.156.156 0 0 0-.014-.07L369.57 1.34c-.028-.093-.088-.14-.182-.14h-1.75c-.093 0-.154.047-.182.14l-3.038 9.464c-.018.065-.014.114.014.147.028.033.07.049.126.049h1.4zm3.976-2.968h-2.842c-.046 0-.065-.028-.056-.084l1.428-4.69c.01-.037.024-.056.042-.056.019 0 .033.019.042.056l1.442 4.69c.019.056 0 .084-.056.084zM375.615 11a.22.22 0 0 0 .196-.112l1.456-2.156c.019-.019.038-.028.056-.028.019 0 .033.01.042.028l1.456 2.156a.22.22 0 0 0 .196.112h1.372c.094 0 .14-.037.14-.112 0-.028-.01-.06-.028-.098l-2.268-3.332a.13.13 0 0 1 0-.084l2.268-3.318c.038-.056.045-.105.021-.147-.023-.042-.067-.063-.133-.063h-1.47a.22.22 0 0 0-.196.112l-1.456 2.156c-.01.019-.023.028-.042.028-.018 0-.037-.01-.056-.028l-1.456-2.156a.22.22 0 0 0-.196-.112h-1.372c-.093 0-.14.037-.14.112 0 .028.01.06.028.098l2.268 3.318a.07.07 0 0 1 0 .084l-2.268 3.332c-.037.056-.044.105-.02.147.023.042.067.063.132.063h1.47zm7.656-8.134c.29 0 .528-.093.714-.28a.967.967 0 0 0 .28-.714.967.967 0 0 0-.28-.714.967.967 0 0 0-.714-.28.967.967 0 0 0-.714.28.967.967 0 0 0-.28.714c0 .29.094.527.28.714.187.187.425.28.714.28zm.616 8.134a.162.162 0 0 0 .12-.049.162.162 0 0 0 .048-.119V4a.162.162 0 0 0-.049-.119.162.162 0 0 0-.119-.049H382.6a.162.162 0 0 0-.119.049.162.162 0 0 0-.049.119v6.832c0 .047.017.086.05.119a.162.162 0 0 0 .118.049h1.288zm5.29.084c.868 0 1.564-.189 2.086-.567.523-.378.784-.898.784-1.561 0-.439-.116-.796-.35-1.071a2.433 2.433 0 0 0-.854-.644 9.915 9.915 0 0 0-1.246-.455l-.308-.084c-.513-.14-.88-.268-1.099-.385-.22-.117-.329-.287-.329-.511 0-.243.115-.432.343-.567.229-.135.525-.203.89-.203.41 0 .734.082.972.245.238.163.357.366.357.609 0 .047.017.086.05.119a.162.162 0 0 0 .118.049h1.19a.162.162 0 0 0 .12-.049.162.162 0 0 0 .048-.119c0-.41-.116-.777-.35-1.099-.233-.322-.564-.574-.994-.756-.43-.182-.928-.273-1.498-.273-.84 0-1.516.194-2.03.581-.513.387-.77.908-.77 1.561 0 .43.112.782.336 1.057.224.275.5.492.826.651.327.159.728.308 1.204.448l.532.168c.43.121.74.236.931.343a.52.52 0 0 1 .287.483c0 .233-.116.427-.35.581-.233.154-.536.231-.91.231-.392 0-.716-.086-.973-.259-.256-.173-.385-.376-.385-.609V8.97a.162.162 0 0 0-.049-.119.162.162 0 0 0-.119-.049h-1.232a.162.162 0 0 0-.119.049.162.162 0 0 0-.049.119v.126c0 .373.122.712.364 1.015.243.303.586.541 1.03.714.443.173.958.259 1.546.259z"/>
            <path d="m521.088 22.062-.485.875a3.482 3.482 0 0 0-1.694-.437v-1c.773 0 1.518.195 2.18.562zm2.321 5.815h-1l-.002-1.993 1-.033.002.14v1.886zm0 6h-1v-2h1v2zm0 6h-1v-2h1v2zm0 6h-1v-2h1v2zm-1.988 5.858-.56-.83c.492-.33.893-.782 1.164-1.309l.89.457a4.518 4.518 0 0 1-1.494 1.682zm-6.266.765v-1h2v1h-2zm-6 0v-1h2v1h-2zm-6 0v-1h2v1h-2zm-6 0v-1h2v1h-2zm-6 0v-1h2v1h-2zm-6 0v-1h2v1h-2zm-6 0v-1h2v1h-2zm-6 0v-1h2v1h-2zm-6 0v-1h2v1h-2zm-6 0v-1h2v1h-2zm-6 0v-1h2v1h-2zm-6 0v-1h2v1h-2zm-6 0v-1h2v1h-2zm-6 0v-1h2v1h-2zm-6 0v-1h2v1h-2zm-6 0v-1h2v1h-2zm-6 0v-1h2v1h-2zm-6 0v-1h2v1h-2zm-6 0v-1h2v1h-2zm-6 0v-1h2v1h-2zm-6 0v-1h2v1h-2zm-6 0v-1h2v1h-2zm-6 0v-1h2v1h-2zm-6 0v-1h2v1h-2zm-6 0v-1h2v1h-2zm-6 0v-1h2v1h-2zm-6 0v-1h2v1h-2zm-6 0v-1h2v1h-2zm-4.717-3.993.993-.111c.067.593.283 1.152.626 1.633l-.814.58a4.478 4.478 0 0 1-.805-2.102zm-.029-6.138h1v2h-1v-2zm0-6h1v2h-1v-2zm0-6h1v2h-1v-2zm.373-6.166.917.4c-.19.436-.29.91-.29 1.397v.369h-1V26c0-.626.128-1.235.373-1.797zm5.635-2.703v1h-1.54a3.534 3.534 0 0 0-.43.03l-.13-.991a4.55 4.55 0 0 1 .555-.039h1.545zm6 0v1h-2v-1h2zm6 0v1h-2v-1h2zm6 0v1h-2v-1h2zm6 0v1h-2v-1h2zm6 0v1h-2v-1h2zm6 0v1h-2v-1h2zm6 0v1h-2v-1h2zm6 0v1h-2v-1h2zm6 0v1h-2v-1h2zm6 0v1h-2v-1h2zm6 0v1h-2v-1h2zm6 0v1h-2v-1h2zm6 0v1h-2v-1h2zm6 0v1h-2v-1h2zm6 0v1h-2v-1h2zm6 0v1h-2v-1h2zm6 0v1h-2v-1h2zm6 0v1h-2v-1h2zm6 0v1h-2v-1h2zm6 0v1h-2v-1h2zm6 0v1h-2v-1h2zm6 0v1h-2v-1h2zm6 0v1h-2v-1h2zm6 0v1h-2v-1h2zm6 0v1h-2v-1h2zm6 0v1h-2v-1h2zm6 0v1h-2v-1h2z" opacity=".4"/>
            <path d="M362.593 42.096c.856 0 1.538-.24 2.046-.72.508-.48.762-1.148.762-2.004v-1.548c0-.08-.04-.12-.12-.12h-2.544c-.08 0-.12.04-.12.12v.504c0 .08.04.12.12.12h1.764c.032 0 .048.016.048.048v1.092c0 .536-.174.964-.522 1.284-.348.32-.814.48-1.398.48-.6 0-1.084-.172-1.452-.516-.368-.344-.552-.796-.552-1.356v-3.36c0-.56.18-1.012.54-1.356.36-.344.836-.516 1.428-.516s1.066.168 1.422.504c.356.336.534.772.534 1.308v.144c0 .08.04.12.12.12h.612c.08 0 .12-.04.12-.12v-.156a2.51 2.51 0 0 0-.348-1.314 2.364 2.364 0 0 0-.99-.906c-.428-.216-.918-.324-1.47-.324-.56 0-1.052.11-1.476.33-.424.22-.754.53-.99.93s-.354.86-.354 1.38v3.312c0 .52.118.98.354 1.38.236.4.566.71.99.93.424.22.916.33 1.476.33zM368.13 42c.08 0 .12-.04.12-.12v-3.54c0-.448.136-.818.408-1.11a1.43 1.43 0 0 1 1.032-.462l.156-.012c.176 0 .332.028.468.084.08.032.132.008.156-.072l.132-.588c.016-.072-.008-.124-.072-.156a1.416 1.416 0 0 0-.684-.156c-.344 0-.646.082-.906.246a1.91 1.91 0 0 0-.642.69c-.008.016-.018.022-.03.018s-.018-.018-.018-.042v-.732c0-.08-.04-.12-.12-.12h-.612c-.08 0-.12.04-.12.12v5.832c0 .08.04.12.12.12h.612zm6.063.096c.576 0 1.07-.148 1.482-.444.412-.296.694-.704.846-1.224.112-.336.168-.828.168-1.476 0-.64-.056-1.132-.168-1.476a2.224 2.224 0 0 0-.846-1.2c-.412-.296-.902-.444-1.47-.444-.592 0-1.096.148-1.512.444-.416.296-.7.7-.852 1.212-.112.36-.168.848-.168 1.464s.056 1.108.168 1.476c.16.52.448.928.864 1.224.416.296.912.444 1.488.444zm0-.744c-.4 0-.738-.106-1.014-.318a1.492 1.492 0 0 1-.546-.858c-.064-.28-.096-.684-.096-1.212 0-.528.032-.932.096-1.212.096-.36.28-.646.552-.858.272-.212.604-.318.996-.318s.726.106 1.002.318c.276.212.462.498.558.858.064.28.096.684.096 1.212 0 .52-.036.924-.108 1.212-.096.36-.28.646-.552.858-.272.212-.6.318-.984.318zm6.412.732c.728 0 1.26-.248 1.596-.744.008-.016.02-.02.036-.012.016.008.024.02.024.036v.516c0 .08.04.12.12.12h.612c.08 0 .12-.04.12-.12v-5.832c0-.08-.04-.12-.12-.12h-.612c-.08 0-.12.04-.12.12v3.804c0 .448-.134.808-.402 1.08s-.63.408-1.086.408c-.44 0-.788-.134-1.044-.402s-.384-.63-.384-1.086v-3.804c0-.08-.04-.12-.12-.12h-.612c-.08 0-.12.04-.12.12v4.056c0 .416.094.772.282 1.068.188.296.444.522.768.678.324.156.678.234 1.062.234zm5.403 2.244c.08 0 .12-.04.12-.12v-2.82c0-.016.006-.026.018-.03.012-.004.026.002.042.018.176.232.396.41.66.534.264.124.552.186.864.186.576 0 1.054-.146 1.434-.438.38-.292.642-.694.786-1.206.104-.352.156-.848.156-1.488 0-.632-.06-1.14-.18-1.524a2.196 2.196 0 0 0-.786-1.176c-.38-.288-.85-.432-1.41-.432-.32 0-.61.064-.87.192s-.478.308-.654.54c-.016.016-.03.022-.042.018-.012-.004-.018-.014-.018-.03v-.504c0-.08-.04-.12-.12-.12h-.612c-.08 0-.12.04-.12.12v8.16c0 .08.04.12.12.12h.612zm1.608-2.976c-.304 0-.566-.082-.786-.246a1.358 1.358 0 0 1-.474-.654 2.028 2.028 0 0 1-.168-.582 6.64 6.64 0 0 1-.048-.906c0-.384.016-.684.048-.9.032-.216.084-.404.156-.564.104-.28.264-.504.48-.672.216-.168.484-.252.804-.252.336 0 .626.084.87.252.244.168.414.396.51.684.08.168.136.358.168.57.032.212.048.506.048.882 0 .392-.022.698-.066.918-.044.22-.11.418-.198.594a1.35 1.35 0 0 1-.51.636 1.45 1.45 0 0 1-.834.24zM397.75 42c.752 0 1.358-.2 1.818-.6.46-.4.69-.96.69-1.68 0-.488-.112-.904-.336-1.248-.224-.344-.552-.604-.984-.78-.04-.024-.04-.048 0-.072.392-.16.694-.394.906-.702.212-.308.318-.682.318-1.122 0-.696-.222-1.236-.666-1.62-.444-.384-1.054-.576-1.83-.576h-2.82c-.08 0-.12.04-.12.12v8.16c0 .08.04.12.12.12h2.904zm-.084-4.68h-2.04c-.032 0-.048-.016-.048-.048v-2.88c0-.032.016-.048.048-.048h2.04c.504 0 .906.138 1.206.414.3.276.45.646.45 1.11 0 .44-.15.792-.45 1.056-.3.264-.702.396-1.206.396zm.084 3.924h-2.124c-.032 0-.048-.016-.048-.048v-3.108c0-.032.016-.048.048-.048h2.076c.52 0 .934.146 1.242.438.308.292.462.682.462 1.17 0 .488-.15.876-.45 1.164-.3.288-.702.432-1.206.432zm4.227 3.156c.456 0 .81-.05 1.062-.15.252-.1.462-.278.63-.534.168-.256.348-.652.54-1.188l2.22-6.468c.024-.088-.008-.132-.096-.132h-.624c-.072 0-.12.032-.144.096l-1.536 4.848c-.008.016-.02.024-.036.024-.016 0-.028-.008-.036-.024l-1.56-4.848c-.024-.064-.072-.096-.144-.096h-.636c-.072 0-.108.028-.108.084l.012.048 2.028 5.904c.016.016.016.04 0 .072-.144.464-.278.81-.402 1.038-.124.228-.272.384-.444.468-.172.084-.414.13-.726.138h-.048c-.08 0-.12.04-.12.12v.48c0 .08.028.12.084.12h.084zm9.631-2.4c.04 0 .074-.014.102-.042a.139.139 0 0 0 .042-.102v-3.408c0-.04.02-.06.06-.06h1.44c.032 0 .056.016.072.048l1.584 3.456a.17.17 0 0 0 .168.108h1.152c.088 0 .132-.032.132-.096a.184.184 0 0 0-.024-.072l-1.692-3.492a.051.051 0 0 1 0-.048c.008-.016.02-.024.036-.024.504-.152.898-.422 1.182-.81.284-.388.426-.858.426-1.41 0-.48-.104-.906-.312-1.278-.208-.372-.5-.66-.876-.864a2.674 2.674 0 0 0-1.296-.306h-3.3a.139.139 0 0 0-.102.042.139.139 0 0 0-.042.102v8.112c0 .04.014.074.042.102a.139.139 0 0 0 .102.042h1.104zm2.004-4.692h-1.8c-.04 0-.06-.02-.06-.06V34.86c0-.04.02-.06.06-.06h1.8c.384 0 .694.116.93.348.236.232.354.536.354.912s-.118.678-.354.906c-.236.228-.546.342-.93.342zm6.748 4.8c.504 0 .962-.096 1.374-.288.412-.192.742-.464.99-.816.048-.072.036-.136-.036-.192l-.744-.612a.115.115 0 0 0-.084-.036c-.048 0-.088.024-.12.072-.32.448-.752.672-1.296.672-.744-.008-1.212-.3-1.404-.876-.048-.096-.084-.276-.108-.54 0-.04.02-.06.06-.06h3.756c.096 0 .144-.048.144-.144l.012-.372c0-.248-.016-.472-.048-.672-.2-1.648-1.088-2.472-2.664-2.472-.624 0-1.158.162-1.602.486a2.407 2.407 0 0 0-.906 1.326c-.096.288-.144.664-.144 1.128 0 .768.092 1.368.276 1.8.2.504.518.896.954 1.176.436.28.966.42 1.59.42zm1.068-3.708h-2.436c-.048 0-.064-.02-.048-.06.016-.216.048-.392.096-.528.08-.264.218-.47.414-.618.196-.148.442-.222.738-.222.32 0 .586.08.798.24.212.16.354.384.426.672.032.104.056.256.072.456 0 .04-.02.06-.06.06zm4.959 5.976c.928 0 1.678-.214 2.25-.642.572-.428.858-1.142.858-2.142v-5.58a.139.139 0 0 0-.042-.102.139.139 0 0 0-.102-.042h-1.104a.139.139 0 0 0-.102.042.139.139 0 0 0-.042.102v.288c0 .024-.008.04-.024.048s-.032 0-.048-.024c-.352-.368-.844-.552-1.476-.552-.528 0-.988.146-1.38.438a2.32 2.32 0 0 0-.828 1.17c-.128.352-.192.86-.192 1.524 0 .592.052 1.076.156 1.452.168.544.468.948.9 1.212s.908.396 1.428.396c.6 0 1.064-.176 1.392-.528.016-.016.032-.022.048-.018s.024.018.024.042v.096c0 .56-.142.958-.426 1.194-.284.236-.726.354-1.326.354-.184 0-.392-.012-.624-.036-.112 0-.168.044-.168.132l-.036.984c0 .096.044.148.132.156.24.024.484.036.732.036zm.492-3.552c-.296 0-.55-.082-.762-.246a1.25 1.25 0 0 1-.438-.63c-.08-.2-.12-.548-.12-1.044 0-.48.048-.832.144-1.056.088-.264.232-.476.432-.636.2-.16.444-.24.732-.24.304 0 .554.08.75.24.196.16.326.372.39.636.04.128.066.258.078.39.012.132.018.35.018.654 0 .312-.006.538-.018.678-.012.14-.034.27-.066.39a1.153 1.153 0 0 1-.384.624c-.192.16-.444.24-.756.24zm5.02-5.796c.247 0 .451-.08.611-.24.16-.16.24-.364.24-.612a.829.829 0 0 0-.24-.612.829.829 0 0 0-.612-.24.829.829 0 0 0-.612.24.829.829 0 0 0-.24.612c0 .248.08.452.24.612.16.16.364.24.612.24zm.527 6.972c.04 0 .074-.014.102-.042a.139.139 0 0 0 .042-.102V36a.139.139 0 0 0-.042-.102.139.139 0 0 0-.102-.042h-1.104a.139.139 0 0 0-.102.042.139.139 0 0 0-.042.102v5.856c0 .04.014.074.042.102a.139.139 0 0 0 .102.042h1.104zm4.516.096c.616 0 1.148-.162 1.596-.486.448-.324.764-.77.948-1.338a4.31 4.31 0 0 0 .204-1.368c0-.528-.072-.984-.216-1.368-.184-.552-.498-.984-.942-1.296-.444-.312-.97-.468-1.578-.468-.64 0-1.188.156-1.644.468-.456.312-.776.748-.96 1.308-.128.4-.192.856-.192 1.368 0 .48.068.936.204 1.368.184.568.502 1.012.954 1.332.452.32.994.48 1.626.48zm0-1.2c-.312 0-.578-.084-.798-.252a1.322 1.322 0 0 1-.462-.708c-.08-.28-.12-.616-.12-1.008s.04-.728.12-1.008c.096-.304.252-.538.468-.702.216-.164.472-.246.768-.246.312 0 .576.082.792.246.216.164.368.398.456.702.08.24.12.576.12 1.008 0 .408-.04.744-.12 1.008-.096.304-.25.54-.462.708a1.19 1.19 0 0 1-.762.252zM442.429 42c.04 0 .074-.014.102-.042a.139.139 0 0 0 .042-.102v-3.66c0-.368.106-.664.318-.888.212-.224.49-.336.834-.336s.62.114.828.342c.208.228.312.526.312.894v3.648c0 .04.014.074.042.102a.139.139 0 0 0 .102.042h1.104c.04 0 .074-.014.102-.042a.139.139 0 0 0 .042-.102V37.92c0-.664-.194-1.188-.582-1.572-.388-.384-.906-.576-1.554-.576-.664 0-1.16.216-1.488.648-.008.024-.02.032-.036.024-.016-.008-.024-.024-.024-.048v-.384a.139.139 0 0 0-.042-.102.139.139 0 0 0-.102-.042h-1.104a.139.139 0 0 0-.102.042.139.139 0 0 0-.042.102v5.844c0 .04.014.074.042.102a.139.139 0 0 0 .102.042h1.104z"/>
            <path d="M384.674 42.9v-.6H358.91v.6h25.765zm2.052-.6v.6h15.906v-.6h-15.906zm20.207.6v-.6h-2.046v.6h2.046z"/>
        </g>
        <g fill="#FFF" fill-rule="nonzero">
            <path d="M353.74 81.986a.162.162 0 0 0 .118-.049.162.162 0 0 0 .05-.119v-3.752c0-.019.009-.047.027-.084l2.898-5.586c.028-.056.03-.103.007-.14-.023-.037-.067-.056-.133-.056h-1.4c-.084 0-.15.042-.196.126l-1.974 3.906c-.028.037-.056.037-.084 0l-1.96-3.906a.198.198 0 0 0-.196-.126h-1.386c-.102 0-.154.037-.154.112 0 .019.01.047.028.084l2.884 5.586c.01.019.014.047.014.084v3.752c0 .047.017.086.05.119a.162.162 0 0 0 .118.049h1.288zm8.16-3.5a.162.162 0 0 0 .118-.049.162.162 0 0 0 .05-.119v-1.064a.162.162 0 0 0-.05-.119.162.162 0 0 0-.119-.049h-4.41a.162.162 0 0 0-.119.049.162.162 0 0 0-.049.119v1.064c0 .047.017.086.05.119a.162.162 0 0 0 .118.049h4.41zM365.102 82c.094 0 .154-.047.182-.14l.462-1.498c.019-.037.042-.056.07-.056h3.696c.028 0 .052.019.07.056l.462 1.498c.028.093.089.14.182.14h1.4c.103 0 .154-.042.154-.126a.156.156 0 0 0-.014-.07l-3.052-9.464c-.028-.093-.088-.14-.182-.14h-1.75c-.093 0-.154.047-.182.14l-3.038 9.464c-.018.065-.014.114.014.147.028.033.07.049.126.049h1.4zm3.976-2.968h-2.842c-.046 0-.065-.028-.056-.084l1.428-4.69c.01-.037.024-.056.042-.056.019 0 .033.019.042.056l1.442 4.69c.019.056 0 .084-.056.084zM374.761 82a.22.22 0 0 0 .196-.112l1.456-2.156c.019-.019.038-.028.056-.028.019 0 .033.01.042.028l1.456 2.156a.22.22 0 0 0 .196.112h1.372c.094 0 .14-.037.14-.112 0-.028-.01-.06-.028-.098l-2.268-3.332a.13.13 0 0 1 0-.084l2.268-3.318c.038-.056.045-.105.021-.147-.023-.042-.067-.063-.133-.063h-1.47a.22.22 0 0 0-.196.112l-1.456 2.156c-.01.019-.023.028-.042.028-.018 0-.037-.01-.056-.028l-1.456-2.156a.22.22 0 0 0-.196-.112h-1.372c-.093 0-.14.037-.14.112 0 .028.01.06.028.098l2.268 3.318a.07.07 0 0 1 0 .084l-2.268 3.332c-.037.056-.044.105-.02.147.023.042.067.063.132.063h1.47zm7.656-8.134c.29 0 .528-.093.714-.28a.967.967 0 0 0 .28-.714.967.967 0 0 0-.28-.714.967.967 0 0 0-.714-.28.967.967 0 0 0-.714.28.967.967 0 0 0-.28.714c0 .29.094.527.28.714.187.187.425.28.714.28zm.616 8.134a.162.162 0 0 0 .12-.049.162.162 0 0 0 .048-.119V75a.162.162 0 0 0-.049-.119.162.162 0 0 0-.119-.049h-1.288a.162.162 0 0 0-.119.049.162.162 0 0 0-.049.119v6.832c0 .047.017.086.05.119a.162.162 0 0 0 .118.049h1.288zm5.29.084c.868 0 1.564-.189 2.086-.567.523-.378.784-.898.784-1.561 0-.439-.116-.796-.35-1.071a2.433 2.433 0 0 0-.854-.644 9.915 9.915 0 0 0-1.246-.455l-.308-.084c-.513-.14-.88-.268-1.099-.385-.22-.117-.329-.287-.329-.511 0-.243.115-.432.343-.567.229-.135.525-.203.89-.203.41 0 .734.082.972.245.238.163.357.366.357.609 0 .047.017.086.05.119a.162.162 0 0 0 .118.049h1.19a.162.162 0 0 0 .12-.049.162.162 0 0 0 .048-.119c0-.41-.116-.777-.35-1.099-.233-.322-.564-.574-.994-.756-.43-.182-.928-.273-1.498-.273-.84 0-1.516.194-2.03.581-.513.387-.77.908-.77 1.561 0 .43.112.782.336 1.057.224.275.5.492.826.651.327.159.728.308 1.204.448l.532.168c.43.121.74.236.931.343a.52.52 0 0 1 .287.483c0 .233-.116.427-.35.581-.233.154-.536.231-.91.231-.392 0-.716-.086-.973-.259-.256-.173-.385-.376-.385-.609v-.028a.162.162 0 0 0-.049-.119.162.162 0 0 0-.119-.049h-1.232a.162.162 0 0 0-.119.049.162.162 0 0 0-.049.119v.126c0 .373.122.712.364 1.015.243.303.586.541 1.03.714.443.173.958.259 1.546.259z"/>
            <path d="m521.088 93.062-.485.875a3.482 3.482 0 0 0-1.694-.437v-1c.773 0 1.518.195 2.18.562zm2.321 5.815h-1l-.002-1.993 1-.033.002.14v1.886zm0 6h-1v-2h1v2zm0 6h-1v-2h1v2zm0 6h-1v-2h1v2zm-1.988 5.858-.56-.83c.492-.33.893-.782 1.164-1.309l.89.457a4.518 4.518 0 0 1-1.494 1.682zm-6.266.765v-1h2v1h-2zm-6 0v-1h2v1h-2zm-6 0v-1h2v1h-2zm-6 0v-1h2v1h-2zm-6 0v-1h2v1h-2zm-6 0v-1h2v1h-2zm-6 0v-1h2v1h-2zm-6 0v-1h2v1h-2zm-6 0v-1h2v1h-2zm-6 0v-1h2v1h-2zm-6 0v-1h2v1h-2zm-6 0v-1h2v1h-2zm-6 0v-1h2v1h-2zm-6 0v-1h2v1h-2zm-6 0v-1h2v1h-2zm-6 0v-1h2v1h-2zm-6 0v-1h2v1h-2zm-6 0v-1h2v1h-2zm-6 0v-1h2v1h-2zm-6 0v-1h2v1h-2zm-6 0v-1h2v1h-2zm-6 0v-1h2v1h-2zm-6 0v-1h2v1h-2zm-6 0v-1h2v1h-2zm-6 0v-1h2v1h-2zm-6 0v-1h2v1h-2zm-6 0v-1h2v1h-2zm-6 0v-1h2v1h-2zm-4.717-3.993.993-.111c.067.593.283 1.152.626 1.633l-.814.58a4.478 4.478 0 0 1-.805-2.102zm-.029-6.138h1v2h-1v-2zm0-6h1v2h-1v-2zm0-6h1v2h-1v-2zm.373-6.166.917.4c-.19.436-.29.91-.29 1.397v.369h-1V97c0-.626.128-1.235.373-1.797zm5.635-2.703v1h-1.54a3.534 3.534 0 0 0-.43.03l-.13-.991a4.55 4.55 0 0 1 .555-.039h1.545zm6 0v1h-2v-1h2zm6 0v1h-2v-1h2zm6 0v1h-2v-1h2zm6 0v1h-2v-1h2zm6 0v1h-2v-1h2zm6 0v1h-2v-1h2zm6 0v1h-2v-1h2zm6 0v1h-2v-1h2zm6 0v1h-2v-1h2zm6 0v1h-2v-1h2zm6 0v1h-2v-1h2zm6 0v1h-2v-1h2zm6 0v1h-2v-1h2zm6 0v1h-2v-1h2zm6 0v1h-2v-1h2zm6 0v1h-2v-1h2zm6 0v1h-2v-1h2zm6 0v1h-2v-1h2zm6 0v1h-2v-1h2zm6 0v1h-2v-1h2zm6 0v1h-2v-1h2zm6 0v1h-2v-1h2zm6 0v1h-2v-1h2zm6 0v1h-2v-1h2zm6 0v1h-2v-1h2zm6 0v1h-2v-1h2zm6 0v1h-2v-1h2z" opacity=".4"/>
            <path d="M360.085 113c.072 0 .12-.032.144-.096l.48-1.512c.008-.024.024-.036.048-.036h3.588c.024 0 .04.012.048.036l.48 1.512c.024.064.072.096.144.096h.648c.072 0 .108-.028.108-.084l-.012-.048-2.664-8.172c-.024-.064-.072-.096-.144-.096h-.816c-.072 0-.12.032-.144.096l-2.652 8.172c-.024.088.008.132.096.132h.648zm4.008-2.34h-3.096a.058.058 0 0 1-.042-.018c-.012-.012-.014-.026-.006-.042l1.56-4.896c.008-.016.02-.024.036-.024.016 0 .028.008.036.024l1.56 4.896c.008.016.006.03-.006.042a.058.058 0 0 1-.042.018zm4.672 4.728c.904 0 1.614-.208 2.13-.624.516-.416.774-1.072.774-1.968v-5.748c0-.08-.04-.12-.12-.12h-.612c-.08 0-.12.04-.12.12v.468a.04.04 0 0 1-.018.036c-.012.008-.026.004-.042-.012-.368-.472-.908-.708-1.62-.708-.528 0-.98.146-1.356.438a2.24 2.24 0 0 0-.78 1.158 2.78 2.78 0 0 0-.126.648c-.02.24-.03.536-.03.888 0 .648.048 1.136.144 1.464.136.512.406.908.81 1.188.404.28.866.42 1.386.42.68 0 1.204-.24 1.572-.72.016-.016.03-.022.042-.018.012.004.018.014.018.03v.444c0 .632-.168 1.094-.504 1.386-.336.292-.876.438-1.62.438l-.324-.012a.09.09 0 0 0-.084.018c-.024.02-.036.05-.036.09l-.024.552c0 .08.04.124.12.132.096.008.236.012.42.012zm.552-3.072c-.384 0-.71-.11-.978-.33a1.502 1.502 0 0 1-.522-.834c-.08-.224-.12-.628-.12-1.212 0-.544.04-.944.12-1.2.104-.344.286-.624.546-.84.26-.216.578-.324.954-.324.384 0 .702.11.954.33.252.22.41.498.474.834.032.12.052.25.06.39s.012.414.012.822c0 .336-.004.592-.012.768a3.011 3.011 0 0 1-.048.444 1.404 1.404 0 0 1-.474.828c-.252.216-.574.324-.966.324zm6.04 3.072c.903 0 1.613-.208 2.13-.624.515-.416.773-1.072.773-1.968v-5.748c0-.08-.04-.12-.12-.12h-.612c-.08 0-.12.04-.12.12v.468a.04.04 0 0 1-.018.036c-.012.008-.026.004-.042-.012-.368-.472-.908-.708-1.62-.708-.528 0-.98.146-1.356.438a2.24 2.24 0 0 0-.78 1.158 2.78 2.78 0 0 0-.126.648c-.02.24-.03.536-.03.888 0 .648.048 1.136.144 1.464.136.512.406.908.81 1.188.404.28.866.42 1.386.42.68 0 1.204-.24 1.572-.72.016-.016.03-.022.042-.018.012.004.018.014.018.03v.444c0 .632-.168 1.094-.504 1.386-.336.292-.876.438-1.62.438l-.324-.012a.09.09 0 0 0-.084.018c-.024.02-.036.05-.036.09l-.024.552c0 .08.04.124.12.132.096.008.236.012.42.012zm.551-3.072c-.384 0-.71-.11-.978-.33a1.502 1.502 0 0 1-.522-.834c-.08-.224-.12-.628-.12-1.212 0-.544.04-.944.12-1.2.104-.344.286-.624.546-.84.26-.216.578-.324.954-.324.384 0 .702.11.954.33.252.22.41.498.474.834.032.12.052.25.06.39s.012.414.012.822v.192c-.002.243-.005.435-.012.576a3.011 3.011 0 0 1-.048.444 1.404 1.404 0 0 1-.474.828c-.252.216-.574.324-.966.324zm5.08.684c.08 0 .12-.04.12-.12v-3.54c0-.448.136-.818.408-1.11a1.43 1.43 0 0 1 1.032-.462l.156-.012c.176 0 .332.028.468.084.08.032.132.008.156-.072l.132-.588c.016-.072-.008-.124-.072-.156a1.416 1.416 0 0 0-.684-.156c-.344 0-.646.082-.906.246a1.91 1.91 0 0 0-.642.69c-.008.016-.018.022-.03.018s-.018-.018-.018-.042v-.732c0-.08-.04-.12-.12-.12h-.612c-.08 0-.12.04-.12.12v5.832c0 .08.04.12.12.12h.612zm6.039.108c.52 0 .98-.11 1.38-.33.4-.22.7-.522.9-.906.032-.072.016-.128-.048-.168l-.468-.276c-.064-.04-.12-.024-.168.048-.144.28-.344.496-.6.648a1.706 1.706 0 0 1-.888.228c-.448 0-.816-.104-1.104-.312a1.435 1.435 0 0 1-.564-.852c-.032-.128-.056-.412-.072-.852 0-.032.016-.048.048-.048h3.876c.08 0 .12-.04.12-.12v-.384c0-.336-.016-.616-.048-.84-.096-.672-.34-1.192-.732-1.56-.392-.368-.952-.552-1.68-.552-.584 0-1.082.156-1.494.468a2.223 2.223 0 0 0-.822 1.248 2.618 2.618 0 0 0-.09.57c-.012.212-.018.486-.018.822 0 .72.072 1.272.216 1.656.168.472.444.84.828 1.104.384.264.86.4 1.428.408zm1.524-3.54h-3.108c-.032 0-.048-.016-.048-.048.016-.376.048-.648.096-.816.08-.344.25-.618.51-.822.26-.204.586-.306.978-.306.408 0 .746.106 1.014.318.268.212.446.498.534.858.032.152.056.408.072.768 0 .032-.016.048-.048.048zm4.443 5.82c.904 0 1.614-.208 2.13-.624.516-.416.774-1.072.774-1.968v-5.748c0-.08-.04-.12-.12-.12h-.612c-.08 0-.12.04-.12.12v.468a.04.04 0 0 1-.018.036c-.012.008-.026.004-.042-.012-.368-.472-.908-.708-1.62-.708-.528 0-.98.146-1.356.438a2.24 2.24 0 0 0-.78 1.158 2.78 2.78 0 0 0-.126.648c-.02.24-.03.536-.03.888 0 .648.048 1.136.144 1.464.136.512.406.908.81 1.188.404.28.866.42 1.386.42.68 0 1.204-.24 1.572-.72.016-.016.03-.022.042-.018.012.004.018.014.018.03v.444c0 .632-.168 1.094-.504 1.386-.336.292-.876.438-1.62.438l-.324-.012a.09.09 0 0 0-.084.018c-.024.02-.036.05-.036.09l-.024.552c0 .08.04.124.12.132.096.008.236.012.42.012zm.552-3.072c-.384 0-.71-.11-.978-.33a1.502 1.502 0 0 1-.522-.834c-.08-.224-.12-.628-.12-1.212 0-.544.04-.944.12-1.2.104-.344.286-.624.546-.84.26-.216.578-.324.954-.324.384 0 .702.11.954.33.252.22.41.498.474.834.032.12.052.25.06.39s.012.414.012.822c0 .336-.004.592-.012.768a3.011 3.011 0 0 1-.048.444 1.404 1.404 0 0 1-.474.828c-.252.216-.574.324-.966.324zm5.944.78c.392 0 .748-.062 1.068-.186.32-.124.58-.306.78-.546.016-.016.03-.02.042-.012a.04.04 0 0 1 .018.036v.492c0 .08.04.12.12.12h.612c.08 0 .12-.04.12-.12v-4.032c0-.608-.196-1.096-.588-1.464-.392-.368-.948-.552-1.668-.552-.624 0-1.144.14-1.56.42-.416.28-.656.644-.72 1.092-.016.048.02.08.108.096l.648.084c.072.008.12-.028.144-.108a.93.93 0 0 1 .444-.618c.24-.148.552-.222.936-.222.48 0 .834.118 1.062.354.228.236.342.558.342.966v.456c0 .032-.016.048-.048.048h-1.392c-.776 0-1.382.174-1.818.522-.436.348-.654.822-.654 1.422 0 .592.192 1.032.576 1.32.384.288.86.432 1.428.432zm.168-.732c-.392 0-.71-.09-.954-.27-.244-.18-.366-.446-.366-.798 0-.384.16-.684.48-.9.32-.216.744-.324 1.272-.324h1.26c.032 0 .048.016.048.048v.936c0 .4-.172.718-.516.954-.344.236-.752.354-1.224.354zm6.615.648c.2 0 .348-.004.444-.012.08 0 .12-.04.12-.12v-.492c0-.08-.04-.12-.12-.12h-.3c-.368 0-.638-.078-.81-.234-.172-.156-.258-.426-.258-.81v-3.54c0-.032.016-.048.048-.048h1.356c.08 0 .12-.04.12-.12v-.468c0-.08-.04-.12-.12-.12h-1.356c-.032 0-.048-.016-.048-.048v-1.392c0-.08-.04-.12-.12-.12h-.588c-.08 0-.12.04-.12.12v1.392c0 .032-.016.048-.048.048h-.732c-.08 0-.12.04-.12.12v.468c0 .08.04.12.12.12h.732c.032 0 .048.016.048.048v3.804c0 .584.148.984.444 1.2.296.216.732.324 1.308.324zm2.992-7.188a.651.651 0 0 0 .48-.192.651.651 0 0 0 .192-.48.646.646 0 0 0-.672-.672.646.646 0 0 0-.672.672c0 .192.064.352.192.48a.651.651 0 0 0 .48.192zm.276 7.164c.08 0 .12-.04.12-.12v-5.832c0-.08-.04-.12-.12-.12h-.612c-.08 0-.12.04-.12.12v5.832c0 .08.04.12.12.12h.612zm4.695.108c.576 0 1.07-.148 1.482-.444.412-.296.694-.704.846-1.224.112-.336.168-.828.168-1.476 0-.64-.056-1.132-.168-1.476a2.224 2.224 0 0 0-.846-1.2c-.412-.296-.902-.444-1.47-.444-.592 0-1.096.148-1.512.444-.416.296-.7.7-.852 1.212-.112.36-.168.848-.168 1.464s.056 1.108.168 1.476c.16.52.448.928.864 1.224.416.296.912.444 1.488.444zm0-.744c-.4 0-.738-.106-1.014-.318a1.492 1.492 0 0 1-.546-.858c-.064-.28-.096-.684-.096-1.212 0-.528.032-.932.096-1.212.096-.36.28-.646.552-.858.272-.212.604-.318.996-.318s.726.106 1.002.318c.276.212.462.498.558.858.064.28.096.684.096 1.212 0 .52-.036.924-.108 1.212-.096.36-.28.646-.552.858-.272.212-.6.318-.984.318zm5.128.648c.08 0 .12-.04.12-.12v-3.816c0-.44.136-.796.408-1.068.272-.272.628-.408 1.068-.408.424 0 .77.14 1.038.42.268.28.402.64.402 1.08v3.792c0 .08.04.12.12.12h.612c.08 0 .12-.04.12-.12v-3.96c0-.632-.19-1.136-.57-1.512-.38-.376-.89-.564-1.53-.564-.728 0-1.268.248-1.62.744-.008.016-.018.02-.03.012a.04.04 0 0 1-.018-.036v-.516c0-.08-.04-.12-.12-.12h-.612c-.08 0-.12.04-.12.12v5.832c0 .08.04.12.12.12h.612zm11.07.096c.88 0 1.568-.2 2.064-.6.496-.4.744-.936.744-1.608 0-.432-.11-.798-.33-1.098a2.81 2.81 0 0 0-.864-.762 11.633 11.633 0 0 0-1.41-.672 15.418 15.418 0 0 1-1.278-.546 1.867 1.867 0 0 1-.636-.492c-.148-.188-.222-.426-.222-.714 0-.44.152-.776.456-1.008.304-.232.74-.348 1.308-.348.648 0 1.154.148 1.518.444.364.296.546.676.546 1.14v.216c0 .08.04.12.12.12h.6c.08 0 .12-.04.12-.12v-.264c0-.688-.256-1.24-.768-1.656-.512-.416-1.212-.624-2.1-.624-.816 0-1.458.186-1.926.558-.468.372-.702.894-.702 1.566 0 .432.102.79.306 1.074.204.284.472.516.804.696.332.18.798.39 1.398.63.56.232.994.436 1.302.612.308.176.536.364.684.564.148.2.222.44.222.72 0 .432-.16.778-.48 1.038-.32.26-.788.39-1.404.39-.68 0-1.212-.142-1.596-.426-.384-.284-.576-.658-.576-1.122v-.324c0-.08-.04-.12-.12-.12h-.588c-.08 0-.12.04-.12.12v.372c0 .68.262 1.224.786 1.632.524.408 1.238.612 2.142.612zm6.604-.012c.728 0 1.26-.248 1.596-.744.008-.016.02-.02.036-.012.016.008.024.02.024.036v.516c0 .08.04.12.12.12h.612c.08 0 .12-.04.12-.12v-5.832c0-.08-.04-.12-.12-.12h-.612c-.08 0-.12.04-.12.12v3.804c0 .448-.134.808-.402 1.08s-.63.408-1.086.408c-.44 0-.788-.134-1.044-.402s-.384-.63-.384-1.086v-3.804c0-.08-.04-.12-.12-.12h-.612c-.08 0-.12.04-.12.12v4.056c0 .416.094.772.282 1.068.188.296.444.522.768.678.324.156.678.234 1.062.234zm5.32-.084c.08 0 .12-.04.12-.12v-3.876c0-.432.125-.776.377-1.032s.59-.384 1.014-.384c.416 0 .748.13.996.39s.372.61.372 1.05v3.852c0 .08.04.12.12.12h.612c.08 0 .12-.04.12-.12v-3.876c0-.432.13-.776.39-1.032s.602-.384 1.026-.384c.408 0 .738.13.99.39s.378.61.378 1.05v3.852c0 .08.04.12.12.12h.6c.08 0 .12-.04.12-.12v-4.02c0-.624-.174-1.116-.522-1.476-.348-.36-.822-.54-1.422-.54a2.36 2.36 0 0 0-1.092.246c-.32.164-.568.41-.744.738-.024.04-.044.04-.06 0a1.615 1.615 0 0 0-.672-.732c-.296-.168-.652-.252-1.068-.252-.336 0-.642.058-.918.174-.276.116-.502.29-.678.522-.016.016-.03.022-.042.018-.012-.004-.018-.014-.018-.03v-.48c0-.08-.04-.12-.12-.12h-.612c-.08 0-.12.04-.12.12v5.832c0 .08.04.12.12.12h.612zm14.958 0c.04 0 .074-.014.102-.042a.139.139 0 0 0 .042-.102v-6.984c0-.04.02-.06.06-.06h2.208c.04 0 .074-.014.102-.042a.139.139 0 0 0 .042-.102v-.924a.139.139 0 0 0-.042-.102.139.139 0 0 0-.102-.042h-5.844a.139.139 0 0 0-.102.042.139.139 0 0 0-.042.102v.924c0 .04.014.074.042.102a.139.139 0 0 0 .102.042h2.124c.04 0 .06.02.06.06v6.984c0 .04.014.074.042.102a.139.139 0 0 0 .102.042h1.104zm5.536.096c.616 0 1.148-.162 1.596-.486.448-.324.764-.77.948-1.338a4.31 4.31 0 0 0 .204-1.368c0-.528-.072-.984-.216-1.368-.184-.552-.498-.984-.942-1.296-.444-.312-.97-.468-1.578-.468-.64 0-1.188.156-1.644.468-.456.312-.776.748-.96 1.308-.128.4-.192.856-.192 1.368 0 .48.068.936.204 1.368.184.568.502 1.012.954 1.332.452.32.994.48 1.626.48zm0-1.2c-.312 0-.578-.084-.798-.252a1.322 1.322 0 0 1-.462-.708c-.08-.28-.12-.616-.12-1.008s.04-.728.12-1.008c.096-.304.252-.538.468-.702.216-.164.472-.246.768-.246.312 0 .576.082.792.246.216.164.368.398.456.702.08.24.12.576.12 1.008 0 .408-.04.744-.12 1.008-.096.304-.25.54-.462.708a1.19 1.19 0 0 1-.762.252zm6.495 1.128.624-.012c.096-.016.144-.068.144-.156v-.9a.139.139 0 0 0-.042-.102.139.139 0 0 0-.102-.042h-.36c-.288 0-.498-.068-.63-.204-.132-.136-.198-.356-.198-.66v-2.892c0-.04.02-.06.06-.06h1.224c.04 0 .074-.014.102-.042a.139.139 0 0 0 .042-.102v-.84a.139.139 0 0 0-.042-.102.139.139 0 0 0-.102-.042h-1.224c-.04 0-.06-.02-.06-.06v-1.404a.139.139 0 0 0-.042-.102.139.139 0 0 0-.102-.042h-1.044a.139.139 0 0 0-.102.042.139.139 0 0 0-.042.102v1.404c0 .04-.02.06-.06.06h-.684a.139.139 0 0 0-.102.042.139.139 0 0 0-.042.102v.84c0 .04.014.074.042.102a.139.139 0 0 0 .102.042h.684c.04 0 .06.02.06.06v3.42c.008.6.168 1.008.48 1.224.312.216.784.324 1.416.324zm3.975.072c.744 0 1.312-.216 1.704-.648.016-.016.032-.022.048-.018s.024.018.024.042v.384c0 .04.014.074.042.102a.139.139 0 0 0 .102.042h1.104c.04 0 .074-.014.102-.042a.139.139 0 0 0 .042-.102v-4.044c0-.392-.104-.742-.312-1.05a2.09 2.09 0 0 0-.888-.726c-.384-.176-.828-.264-1.332-.264-.696 0-1.274.156-1.734.468-.46.312-.722.712-.786 1.2-.008.032.002.058.03.078.028.02.062.034.102.042l1.164.144c.088.016.144-.024.168-.12a.705.705 0 0 1 .354-.45c.188-.108.434-.162.738-.162.368 0 .644.086.828.258.184.172.276.414.276.726v.288c0 .04-.02.06-.06.06h-1.284c-.792 0-1.406.174-1.842.522-.436.348-.654.834-.654 1.458 0 .6.194 1.052.582 1.356.388.304.882.456 1.482.456zm.348-1.104c-.296 0-.538-.07-.726-.21-.188-.14-.282-.338-.282-.594a.77.77 0 0 1 .366-.684c.244-.16.578-.24 1.002-.24h1.008c.04 0 .06.02.06.06v.564c0 .32-.14.584-.42.792-.28.208-.616.312-1.008.312zm5.632 1.008c.04 0 .074-.014.102-.042a.139.139 0 0 0 .042-.102v-8.112a.139.139 0 0 0-.042-.102.139.139 0 0 0-.102-.042h-1.104a.139.139 0 0 0-.102.042.139.139 0 0 0-.042.102v8.112c0 .04.014.074.042.102a.139.139 0 0 0 .102.042h1.104zm5.67 0c.04 0 .075-.014.103-.042a.139.139 0 0 0 .042-.102v-3.228c0-.04.02-.06.06-.06h1.92c.52 0 .978-.102 1.374-.306a2.19 2.19 0 0 0 .918-.87c.216-.376.324-.808.324-1.296 0-.496-.106-.934-.318-1.314a2.207 2.207 0 0 0-.894-.882c-.384-.208-.828-.312-1.332-.312h-3.3a.139.139 0 0 0-.102.042.139.139 0 0 0-.042.102v8.124c0 .04.014.074.042.102a.139.139 0 0 0 .102.042h1.104zm1.993-4.56h-1.788c-.04 0-.06-.02-.06-.06v-2.532c0-.04.02-.06.06-.06h1.788c.408 0 .736.124.984.372s.372.572.372.972c0 .392-.124.708-.372.948s-.576.36-.984.36zm5.26 4.56c.04 0 .073-.014.101-.042a.139.139 0 0 0 .042-.102v-3.396c0-.352.112-.638.336-.858a1.24 1.24 0 0 1 .84-.354c.056-.008.136-.012.24-.012.16 0 .3.02.42.06.104.04.16.012.168-.084l.204-1.08c.016-.088-.008-.148-.072-.18a1.39 1.39 0 0 0-.672-.156c-.6 0-1.068.26-1.404.78-.016.024-.03.034-.042.03-.012-.004-.018-.022-.018-.054v-.54a.139.139 0 0 0-.042-.102.139.139 0 0 0-.102-.042h-1.104a.139.139 0 0 0-.102.042.139.139 0 0 0-.042.102v5.844c0 .04.014.074.042.102a.139.139 0 0 0 .102.042h1.104zm5.919.096c.616 0 1.148-.162 1.596-.486.448-.324.764-.77.948-1.338a4.31 4.31 0 0 0 .204-1.368c0-.528-.072-.984-.216-1.368-.184-.552-.498-.984-.942-1.296-.444-.312-.97-.468-1.578-.468-.64 0-1.188.156-1.644.468-.456.312-.776.748-.96 1.308-.128.4-.192.856-.192 1.368 0 .48.068.936.204 1.368.184.568.502 1.012.954 1.332.452.32.994.48 1.626.48zm0-1.2c-.312 0-.578-.084-.798-.252a1.322 1.322 0 0 1-.462-.708c-.08-.28-.12-.616-.12-1.008s.04-.728.12-1.008c.096-.304.252-.538.468-.702.216-.164.472-.246.768-.246.312 0 .576.082.792.246.216.164.368.398.456.702.08.24.12.576.12 1.008 0 .408-.04.744-.12 1.008-.096.304-.25.54-.462.708a1.19 1.19 0 0 1-.762.252zm9.543-5.868c.248 0 .452-.08.612-.24.16-.16.24-.364.24-.612a.829.829 0 0 0-.24-.612.829.829 0 0 0-.612-.24.829.829 0 0 0-.612.24.829.829 0 0 0-.24.612c0 .248.08.452.24.612.16.16.364.24.612.24zM504.183 113c.04 0 .074-.014.102-.042a.139.139 0 0 0 .042-.102v-4.704c0-.04.02-.06.06-.06h1.188c.04 0 .074-.014.102-.042a.139.139 0 0 0 .042-.102V107a.139.139 0 0 0-.042-.102.139.139 0 0 0-.102-.042h-1.188c-.04 0-.06-.02-.06-.06v-.12c0-.36.066-.608.198-.744s.37-.204.714-.204h.312c.04 0 .074-.014.102-.042a.139.139 0 0 0 .042-.102v-.84a.139.139 0 0 0-.042-.102.139.139 0 0 0-.102-.042h-.42c-.568-.008-1.008.048-1.32.168-.312.12-.536.322-.672.606s-.204.686-.204 1.206v.216c0 .04-.02.06-.06.06h-.744a.139.139 0 0 0-.102.042.139.139 0 0 0-.042.102v.948c0 .04.014.074.042.102a.139.139 0 0 0 .102.042h.744c.04 0 .06.02.06.06v4.704c0 .04.014.074.042.102a.139.139 0 0 0 .102.042h1.104zm4.032 0c.04 0 .074-.014.102-.042a.139.139 0 0 0 .042-.102V107a.139.139 0 0 0-.042-.102.139.139 0 0 0-.102-.042h-1.104a.139.139 0 0 0-.102.042.139.139 0 0 0-.042.102v5.856c0 .04.014.074.042.102a.139.139 0 0 0 .102.042h1.104zm4.3.024.623-.012c.096-.016.144-.068.144-.156v-.9a.139.139 0 0 0-.042-.102.139.139 0 0 0-.102-.042h-.36c-.288 0-.498-.068-.63-.204-.132-.136-.198-.356-.198-.66v-2.892c0-.04.02-.06.06-.06h1.224c.04 0 .074-.014.102-.042a.139.139 0 0 0 .042-.102v-.84a.139.139 0 0 0-.042-.102.139.139 0 0 0-.102-.042h-1.224c-.04 0-.06-.02-.06-.06v-1.404a.139.139 0 0 0-.042-.102.139.139 0 0 0-.102-.042h-1.044a.139.139 0 0 0-.102.042.139.139 0 0 0-.042.102v1.404c0 .04-.02.06-.06.06h-.684a.139.139 0 0 0-.102.042.139.139 0 0 0-.042.102v.84c0 .04.014.074.042.102a.139.139 0 0 0 .102.042h.684c.04 0 .06.02.06.06v3.42c.008.6.168 1.008.48 1.224.312.216.784.324 1.416.324z"/>
            <path d="M369.937 113.9v-.6H358.91v.6h11.028zm6.591 0v-.6h-4.29v.6h4.29zm17.64 0v-.6h-15.339v.6h15.338zm30.163 0v-.6h-27.864v.6h27.864zm2.551-.6v.6h23.899v-.6h-23.899z"/>
        </g>
        <g fill="#FFF" fill-rule="nonzero">
            <path d="M356.315 153a.162.162 0 0 0 .12-.049.162.162 0 0 0 .048-.119v-1.064a.162.162 0 0 0-.049-.119.162.162 0 0 0-.119-.049h-4.69c-.046 0-.07-.023-.07-.07v-8.162a.162.162 0 0 0-.049-.119.162.162 0 0 0-.119-.049H350.1a.162.162 0 0 0-.119.049.162.162 0 0 0-.049.119v9.464c0 .047.017.086.05.119a.162.162 0 0 0 .118.049h6.216zm5.178.126c.588 0 1.123-.112 1.603-.336a2.86 2.86 0 0 0 1.155-.952c.056-.084.042-.159-.042-.224l-.868-.714a.134.134 0 0 0-.098-.042c-.056 0-.102.028-.14.084-.373.523-.877.784-1.512.784-.868-.01-1.414-.35-1.638-1.022-.056-.112-.098-.322-.126-.63 0-.047.024-.07.07-.07h4.382c.112 0 .168-.056.168-.168l.014-.434c0-.29-.018-.55-.056-.784-.233-1.923-1.27-2.884-3.108-2.884-.728 0-1.35.189-1.869.567-.518.378-.87.894-1.057 1.547-.112.336-.168.775-.168 1.316 0 .896.108 1.596.322 2.1a2.82 2.82 0 0 0 1.113 1.372c.509.327 1.127.49 1.855.49zm1.246-4.326h-2.842c-.056 0-.074-.023-.056-.07a2.43 2.43 0 0 1 .112-.616c.094-.308.255-.548.483-.721.229-.173.516-.259.861-.259.374 0 .684.093.931.28.248.187.413.448.497.784.038.121.066.299.084.532 0 .047-.023.07-.07.07zm6.186 6.972c1.083 0 1.958-.25 2.625-.749.668-.5 1.001-1.332 1.001-2.499v-6.51a.162.162 0 0 0-.049-.119.162.162 0 0 0-.119-.049h-1.288a.162.162 0 0 0-.119.049.162.162 0 0 0-.049.119v.336c0 .028-.01.047-.028.056-.018.01-.037 0-.056-.028-.41-.43-.984-.644-1.722-.644-.616 0-1.152.17-1.61.511-.457.34-.78.796-.966 1.365-.15.41-.224 1.003-.224 1.778 0 .69.06 1.255.182 1.694.196.635.546 1.106 1.05 1.414.504.308 1.06.462 1.666.462.7 0 1.242-.205 1.624-.616.019-.019.038-.026.056-.021.019.005.028.021.028.049v.112c0 .653-.165 1.118-.497 1.393-.331.275-.847.413-1.547.413-.214 0-.457-.014-.728-.042-.13 0-.196.051-.196.154l-.042 1.148c0 .112.052.173.154.182.28.028.565.042.854.042zm.574-4.144a1.41 1.41 0 0 1-.889-.287 1.458 1.458 0 0 1-.51-.735c-.094-.233-.14-.64-.14-1.218 0-.56.055-.97.167-1.232.103-.308.27-.555.504-.742.234-.187.518-.28.854-.28.355 0 .647.093.875.28.229.187.38.434.455.742.047.15.077.301.091.455.014.154.021.408.021.763 0 .364-.007.628-.02.791-.015.163-.04.315-.078.455a1.345 1.345 0 0 1-.448.728c-.224.187-.518.28-.882.28zm8.454 1.498c.588 0 1.123-.112 1.603-.336a2.86 2.86 0 0 0 1.155-.952c.056-.084.042-.159-.042-.224l-.868-.714a.134.134 0 0 0-.098-.042c-.056 0-.102.028-.14.084-.373.523-.877.784-1.512.784-.868-.01-1.414-.35-1.638-1.022-.056-.112-.098-.322-.126-.63 0-.047.024-.07.07-.07h4.382c.112 0 .168-.056.168-.168l.014-.434c0-.29-.018-.55-.056-.784-.233-1.923-1.27-2.884-3.108-2.884-.728 0-1.35.189-1.869.567-.518.378-.87.894-1.057 1.547-.112.336-.168.775-.168 1.316 0 .896.108 1.596.322 2.1a2.82 2.82 0 0 0 1.113 1.372c.509.327 1.127.49 1.855.49zm1.246-4.326h-2.842c-.056 0-.074-.023-.056-.07a2.43 2.43 0 0 1 .112-.616c.094-.308.255-.548.483-.721.229-.173.516-.259.861-.259.374 0 .684.093.931.28.248.187.413.448.497.784.038.121.066.299.084.532 0 .047-.023.07-.07.07zm5.262 4.2a.162.162 0 0 0 .12-.049.162.162 0 0 0 .048-.119v-4.27c0-.43.124-.775.371-1.036.248-.261.572-.392.973-.392.402 0 .724.133.966.399.243.266.364.614.364 1.043v4.256c0 .047.017.086.05.119a.162.162 0 0 0 .118.049h1.288a.162.162 0 0 0 .12-.049.162.162 0 0 0 .048-.119v-4.592c0-.775-.226-1.386-.679-1.834-.452-.448-1.057-.672-1.813-.672-.774 0-1.353.252-1.736.756-.01.028-.023.037-.042.028-.018-.01-.028-.028-.028-.056v-.448a.162.162 0 0 0-.049-.119.162.162 0 0 0-.119-.049h-1.288a.162.162 0 0 0-.119.049.162.162 0 0 0-.049.119v6.818c0 .047.017.086.05.119a.162.162 0 0 0 .118.049h1.288zm9.448.112c.663 0 1.2-.243 1.61-.728.019-.028.038-.037.056-.028.019.01.028.028.028.056v.42c0 .047.017.086.05.119a.162.162 0 0 0 .118.049h1.288a.162.162 0 0 0 .12-.049.162.162 0 0 0 .048-.119v-9.464a.162.162 0 0 0-.049-.119.162.162 0 0 0-.119-.049h-1.288a.162.162 0 0 0-.119.049.162.162 0 0 0-.049.119v3.038c0 .028-.01.044-.028.049-.018.005-.037-.002-.056-.021-.41-.467-.938-.7-1.582-.7-.69 0-1.264.173-1.722.518-.457.345-.788.826-.994 1.442-.158.476-.238 1.045-.238 1.708 0 .644.084 1.227.252 1.75.206.616.537 1.097.994 1.442.458.345 1.018.518 1.68.518zm.252-1.4c-.532 0-.928-.224-1.19-.672-.224-.42-.336-.957-.336-1.61 0-.728.14-1.297.42-1.708.27-.392.644-.588 1.12-.588.458 0 .812.205 1.064.616.234.383.35.938.35 1.666 0 .7-.107 1.241-.322 1.624-.261.448-.63.672-1.106.672z"/>
            <path d="m521.088 164.062-.485.875a3.482 3.482 0 0 0-1.694-.437v-1c.773 0 1.518.195 2.18.562zm2.321 5.815h-1l-.002-1.993 1-.033.002.14v1.886zm0 6h-1v-2h1v2zm0 6h-1v-2h1v2zm0 6h-1v-2h1v2zm-1.988 5.858-.56-.83c.492-.33.893-.782 1.164-1.309l.89.457a4.518 4.518 0 0 1-1.494 1.682zm-6.266.765v-1h2v1h-2zm-6 0v-1h2v1h-2zm-6 0v-1h2v1h-2zm-6 0v-1h2v1h-2zm-6 0v-1h2v1h-2zm-6 0v-1h2v1h-2zm-6 0v-1h2v1h-2zm-6 0v-1h2v1h-2zm-6 0v-1h2v1h-2zm-6 0v-1h2v1h-2zm-6 0v-1h2v1h-2zm-6 0v-1h2v1h-2zm-6 0v-1h2v1h-2zm-6 0v-1h2v1h-2zm-6 0v-1h2v1h-2zm-6 0v-1h2v1h-2zm-6 0v-1h2v1h-2zm-6 0v-1h2v1h-2zm-6 0v-1h2v1h-2zm-6 0v-1h2v1h-2zm-6 0v-1h2v1h-2zm-6 0v-1h2v1h-2zm-6 0v-1h2v1h-2zm-6 0v-1h2v1h-2zm-6 0v-1h2v1h-2zm-6 0v-1h2v1h-2zm-6 0v-1h2v1h-2zm-6 0v-1h2v1h-2zm-4.717-3.993.993-.111c.067.593.283 1.152.626 1.633l-.814.58a4.478 4.478 0 0 1-.805-2.102zm-.029-6.138h1v2h-1v-2zm0-6h1v2h-1v-2zm0-6h1v2h-1v-2zm.373-6.166.917.4c-.19.436-.29.91-.29 1.397v.369h-1V168c0-.626.128-1.235.373-1.797zm5.635-2.703v1h-1.54a3.534 3.534 0 0 0-.43.03l-.13-.991a4.55 4.55 0 0 1 .555-.039h1.545zm6 0v1h-2v-1h2zm6 0v1h-2v-1h2zm6 0v1h-2v-1h2zm6 0v1h-2v-1h2zm6 0v1h-2v-1h2zm6 0v1h-2v-1h2zm6 0v1h-2v-1h2zm6 0v1h-2v-1h2zm6 0v1h-2v-1h2zm6 0v1h-2v-1h2zm6 0v1h-2v-1h2zm6 0v1h-2v-1h2zm6 0v1h-2v-1h2zm6 0v1h-2v-1h2zm6 0v1h-2v-1h2zm6 0v1h-2v-1h2zm6 0v1h-2v-1h2zm6 0v1h-2v-1h2zm6 0v1h-2v-1h2zm6 0v1h-2v-1h2zm6 0v1h-2v-1h2zm6 0v1h-2v-1h2zm6 0v1h-2v-1h2zm6 0v1h-2v-1h2zm6 0v1h-2v-1h2zm6 0v1h-2v-1h2zm6 0v1h-2v-1h2z" opacity=".4"/>
            <path d="M362.593 184.096c.856 0 1.538-.24 2.046-.72.508-.48.762-1.148.762-2.004v-1.548c0-.08-.04-.12-.12-.12h-2.544c-.08 0-.12.04-.12.12v.504c0 .08.04.12.12.12h1.764c.032 0 .048.016.048.048v1.092c0 .536-.174.964-.522 1.284-.348.32-.814.48-1.398.48-.6 0-1.084-.172-1.452-.516-.368-.344-.552-.796-.552-1.356v-3.36c0-.56.18-1.012.54-1.356.36-.344.836-.516 1.428-.516s1.066.168 1.422.504c.356.336.534.772.534 1.308v.144c0 .08.04.12.12.12h.612c.08 0 .12-.04.12-.12v-.156a2.51 2.51 0 0 0-.348-1.314 2.364 2.364 0 0 0-.99-.906c-.428-.216-.918-.324-1.47-.324-.56 0-1.052.11-1.476.33-.424.22-.754.53-.99.93s-.354.86-.354 1.38v3.312c0 .52.118.98.354 1.38.236.4.566.71.99.93.424.22.916.33 1.476.33zm5.536-.096c.08 0 .12-.04.12-.12v-3.54c0-.448.136-.818.408-1.11a1.43 1.43 0 0 1 1.032-.462l.156-.012c.176 0 .332.028.468.084.08.032.132.008.156-.072l.132-.588c.016-.072-.008-.124-.072-.156a1.416 1.416 0 0 0-.684-.156c-.344 0-.646.082-.906.246a1.91 1.91 0 0 0-.642.69c-.008.016-.018.022-.03.018s-.018-.018-.018-.042v-.732c0-.08-.04-.12-.12-.12h-.612c-.08 0-.12.04-.12.12v5.832c0 .08.04.12.12.12h.612zm6.063.096c.576 0 1.07-.148 1.482-.444.412-.296.694-.704.846-1.224.112-.336.168-.828.168-1.476 0-.64-.056-1.132-.168-1.476a2.224 2.224 0 0 0-.846-1.2c-.412-.296-.902-.444-1.47-.444-.592 0-1.096.148-1.512.444-.416.296-.7.7-.852 1.212-.112.36-.168.848-.168 1.464s.056 1.108.168 1.476c.16.52.448.928.864 1.224.416.296.912.444 1.488.444zm0-.744c-.4 0-.738-.106-1.014-.318a1.492 1.492 0 0 1-.546-.858c-.064-.28-.096-.684-.096-1.212 0-.528.032-.932.096-1.212.096-.36.28-.646.552-.858.272-.212.604-.318.996-.318s.726.106 1.002.318c.276.212.462.498.558.858.064.28.096.684.096 1.212 0 .52-.036.924-.108 1.212-.096.36-.28.646-.552.858-.272.212-.6.318-.984.318zm6.412.732c.728 0 1.26-.248 1.596-.744.008-.016.02-.02.036-.012.016.008.024.02.024.036v.516c0 .08.04.12.12.12h.612c.08 0 .12-.04.12-.12v-5.832c0-.08-.04-.12-.12-.12h-.612c-.08 0-.12.04-.12.12v3.804c0 .448-.134.808-.402 1.08s-.63.408-1.086.408c-.44 0-.788-.134-1.044-.402s-.384-.63-.384-1.086v-3.804c0-.08-.04-.12-.12-.12h-.612c-.08 0-.12.04-.12.12v4.056c0 .416.094.772.282 1.068.188.296.444.522.768.678.324.156.678.234 1.062.234zm5.403 2.244c.08 0 .12-.04.12-.12v-2.82c0-.016.006-.026.018-.03.012-.004.026.002.042.018.176.232.396.41.66.534.264.124.552.186.864.186.576 0 1.054-.146 1.434-.438.38-.292.642-.694.786-1.206.104-.352.156-.848.156-1.488 0-.632-.06-1.14-.18-1.524a2.196 2.196 0 0 0-.786-1.176c-.38-.288-.85-.432-1.41-.432-.32 0-.61.064-.87.192s-.478.308-.654.54c-.016.016-.03.022-.042.018-.012-.004-.018-.014-.018-.03v-.504c0-.08-.04-.12-.12-.12h-.612c-.08 0-.12.04-.12.12v8.16c0 .08.04.12.12.12h.612zm1.608-2.976c-.304 0-.566-.082-.786-.246a1.358 1.358 0 0 1-.474-.654 2.028 2.028 0 0 1-.168-.582 6.64 6.64 0 0 1-.048-.906c0-.384.016-.684.048-.9.032-.216.084-.404.156-.564.104-.28.264-.504.48-.672.216-.168.484-.252.804-.252.336 0 .626.084.87.252.244.168.414.396.51.684.08.168.136.358.168.57.032.212.048.506.048.882 0 .392-.022.698-.066.918-.044.22-.11.418-.198.594a1.35 1.35 0 0 1-.51.636 1.45 1.45 0 0 1-.834.24zm10.135.648c.752 0 1.358-.2 1.818-.6.46-.4.69-.96.69-1.68 0-.488-.112-.904-.336-1.248-.224-.344-.552-.604-.984-.78-.04-.024-.04-.048 0-.072.392-.16.694-.394.906-.702.212-.308.318-.682.318-1.122 0-.696-.222-1.236-.666-1.62-.444-.384-1.054-.576-1.83-.576h-2.82c-.08 0-.12.04-.12.12v8.16c0 .08.04.12.12.12h2.904zm-.084-4.68h-2.04c-.032 0-.048-.016-.048-.048v-2.88c0-.032.016-.048.048-.048h2.04c.504 0 .906.138 1.206.414.3.276.45.646.45 1.11 0 .44-.15.792-.45 1.056-.3.264-.702.396-1.206.396zm.084 3.924h-2.124c-.032 0-.048-.016-.048-.048v-3.108c0-.032.016-.048.048-.048h2.076c.52 0 .934.146 1.242.438.308.292.462.682.462 1.17 0 .488-.15.876-.45 1.164-.3.288-.702.432-1.206.432zm4.227 3.156c.456 0 .81-.05 1.062-.15.252-.1.462-.278.63-.534.168-.256.348-.652.54-1.188l2.22-6.468c.024-.088-.008-.132-.096-.132h-.624c-.072 0-.12.032-.144.096l-1.536 4.848c-.008.016-.02.024-.036.024-.016 0-.028-.008-.036-.024l-1.56-4.848c-.024-.064-.072-.096-.144-.096h-.636c-.072 0-.108.028-.108.084l.012.048 2.028 5.904c.016.016.016.04 0 .072-.144.464-.278.81-.402 1.038-.124.228-.272.384-.444.468-.172.084-.414.13-.726.138h-.048c-.08 0-.12.04-.12.12v.48c0 .08.028.12.084.12h.084zm11.095-2.304c.92 0 1.646-.212 2.178-.636.532-.424.798-.996.798-1.716 0-.472-.122-.866-.366-1.182a2.62 2.62 0 0 0-.876-.738c-.34-.176-.794-.372-1.362-.588-.536-.192-.932-.35-1.188-.474-.256-.124-.448-.262-.576-.414-.128-.152-.192-.348-.192-.588 0-.336.122-.596.366-.78.244-.184.586-.276 1.026-.276.544 0 .97.13 1.278.39.308.26.462.578.462.954v.132c0 .04.014.074.042.102a.139.139 0 0 0 .102.042h1.08c.04 0 .074-.014.102-.042a.139.139 0 0 0 .042-.102v-.204a2.22 2.22 0 0 0-.384-1.29 2.535 2.535 0 0 0-1.074-.87c-.46-.208-.99-.312-1.59-.312-.856 0-1.54.204-2.052.612-.512.408-.768.964-.768 1.668 0 .472.118.866.354 1.182.236.316.53.566.882.75.352.184.812.38 1.38.588.504.192.882.352 1.134.48.252.128.446.27.582.426a.837.837 0 0 1 .204.57c0 .328-.124.596-.372.804-.248.208-.616.312-1.104.312-.568 0-1.016-.122-1.344-.366-.328-.244-.492-.55-.492-.918v-.228a.139.139 0 0 0-.042-.102.139.139 0 0 0-.102-.042h-1.068a.139.139 0 0 0-.102.042.139.139 0 0 0-.042.102v.3c0 .488.126.912.378 1.272s.61.64 1.074.84c.464.2 1.008.3 1.632.3zm6.064 0c.744 0 1.312-.216 1.704-.648.016-.016.032-.022.048-.018s.024.018.024.042v.384c0 .04.014.074.042.102a.139.139 0 0 0 .102.042h1.104c.04 0 .074-.014.102-.042a.139.139 0 0 0 .042-.102v-4.044c0-.392-.104-.742-.312-1.05a2.09 2.09 0 0 0-.888-.726c-.384-.176-.828-.264-1.332-.264-.696 0-1.274.156-1.734.468-.46.312-.722.712-.786 1.2-.008.032.002.058.03.078.028.02.062.034.102.042l1.164.144c.088.016.144-.024.168-.12a.705.705 0 0 1 .354-.45c.188-.108.434-.162.738-.162.368 0 .644.086.828.258.184.172.276.414.276.726v.288c0 .04-.02.06-.06.06h-1.284c-.792 0-1.406.174-1.842.522-.436.348-.654.834-.654 1.458 0 .6.194 1.052.582 1.356.388.304.882.456 1.482.456zm.348-1.104c-.296 0-.538-.07-.726-.21-.188-.14-.282-.338-.282-.594a.77.77 0 0 1 .366-.684c.244-.16.578-.24 1.002-.24h1.008c.04 0 .06.02.06.06v.564c0 .32-.14.584-.42.792-.28.208-.616.312-1.008.312zm5.631 1.008c.04 0 .074-.014.102-.042a.139.139 0 0 0 .042-.102v-8.112a.139.139 0 0 0-.042-.102.139.139 0 0 0-.102-.042h-1.104a.139.139 0 0 0-.102.042.139.139 0 0 0-.042.102v8.112c0 .04.014.074.042.102a.139.139 0 0 0 .102.042h1.104zm4.467.108c.504 0 .962-.096 1.374-.288.412-.192.742-.464.99-.816.048-.072.036-.136-.036-.192l-.744-.612a.115.115 0 0 0-.084-.036c-.048 0-.088.024-.12.072-.32.448-.752.672-1.296.672-.744-.008-1.212-.3-1.404-.876-.048-.096-.084-.276-.108-.54 0-.04.02-.06.06-.06h3.756c.096 0 .144-.048.144-.144l.012-.372c0-.248-.016-.472-.048-.672-.2-1.648-1.088-2.472-2.664-2.472-.624 0-1.158.162-1.602.486a2.407 2.407 0 0 0-.906 1.326c-.096.288-.144.664-.144 1.128 0 .768.092 1.368.276 1.8.2.504.518.896.954 1.176.436.28.966.42 1.59.42zm1.068-3.708h-2.436c-.048 0-.064-.02-.048-.06.016-.216.048-.392.096-.528.08-.264.218-.47.414-.618.196-.148.442-.222.738-.222.32 0 .586.08.798.24.212.16.354.384.426.672.032.104.056.256.072.456 0 .04-.02.06-.06.06zm5.104 3.672c.744 0 1.34-.162 1.788-.486.448-.324.672-.77.672-1.338 0-.376-.1-.682-.3-.918-.2-.236-.444-.42-.732-.552a8.499 8.499 0 0 0-1.068-.39l-.264-.072c-.44-.12-.754-.23-.942-.33-.188-.1-.282-.246-.282-.438 0-.208.098-.37.294-.486.196-.116.45-.174.762-.174.352 0 .63.07.834.21.204.14.306.314.306.522 0 .04.014.074.042.102a.139.139 0 0 0 .102.042h1.02c.04 0 .074-.014.102-.042a.139.139 0 0 0 .042-.102c0-.352-.1-.666-.3-.942-.2-.276-.484-.492-.852-.648-.368-.156-.796-.234-1.284-.234-.72 0-1.3.166-1.74.498-.44.332-.66.778-.66 1.338 0 .368.096.67.288.906.192.236.428.422.708.558.28.136.624.264 1.032.384l.456.144c.368.104.634.202.798.294.164.092.246.23.246.414 0 .2-.1.366-.3.498-.2.132-.46.198-.78.198-.336 0-.614-.074-.834-.222-.22-.148-.33-.322-.33-.522v-.024a.139.139 0 0 0-.042-.102.139.139 0 0 0-.102-.042h-1.056a.139.139 0 0 0-.102.042.139.139 0 0 0-.042.102v.108c0 .32.104.61.312.87.208.26.502.464.882.612.38.148.822.222 1.326.222zm9.319.024c.592 0 1.116-.112 1.572-.336a2.472 2.472 0 0 0 1.056-.954c.248-.412.372-.89.372-1.434a.108.108 0 0 0-.042-.084.151.151 0 0 0-.102-.036l-1.104-.048c-.096 0-.144.044-.144.132 0 .472-.146.85-.438 1.134-.292.284-.682.426-1.17.426-.488 0-.88-.144-1.176-.432-.296-.288-.444-.664-.444-1.128v-3.06c0-.472.148-.852.444-1.14.296-.288.688-.432 1.176-.432s.878.144 1.17.432c.292.288.438.668.438 1.14 0 .088.048.132.144.132l1.104-.06c.04 0 .074-.014.102-.042a.139.139 0 0 0 .042-.102c0-.536-.124-1.008-.372-1.416a2.484 2.484 0 0 0-1.056-.948c-.456-.224-.98-.336-1.572-.336-.6 0-1.128.116-1.584.348-.456.232-.808.56-1.056.984-.248.424-.372.916-.372 1.476v2.964c0 .56.124 1.052.372 1.476.248.424.6.754 1.056.99.456.236.984.354 1.584.354zm5.775-.096c.04 0 .074-.014.102-.042a.139.139 0 0 0 .042-.102v-3.66c0-.368.106-.664.318-.888.212-.224.49-.336.834-.336s.62.114.828.342c.208.228.312.526.312.894v3.648c0 .04.014.074.042.102a.139.139 0 0 0 .102.042h1.104c.04 0 .074-.014.102-.042a.139.139 0 0 0 .042-.102v-3.936c0-.664-.194-1.188-.582-1.572-.388-.384-.906-.576-1.554-.576-.664 0-1.16.216-1.488.648-.008.024-.02.032-.036.024-.016-.008-.024-.024-.024-.048v-2.652a.139.139 0 0 0-.042-.102.139.139 0 0 0-.102-.042h-1.104a.139.139 0 0 0-.102.042.139.139 0 0 0-.042.102v8.112c0 .04.014.074.042.102a.139.139 0 0 0 .102.042h1.104zm7.156.096c.744 0 1.312-.216 1.704-.648.016-.016.032-.022.048-.018s.024.018.024.042v.384c0 .04.014.074.042.102a.139.139 0 0 0 .102.042h1.104c.04 0 .074-.014.102-.042a.139.139 0 0 0 .042-.102v-4.044c0-.392-.104-.742-.312-1.05a2.09 2.09 0 0 0-.888-.726c-.384-.176-.828-.264-1.332-.264-.696 0-1.274.156-1.734.468-.46.312-.722.712-.786 1.2-.008.032.002.058.03.078.028.02.062.034.102.042l1.164.144c.088.016.144-.024.168-.12a.705.705 0 0 1 .354-.45c.188-.108.434-.162.738-.162.368 0 .644.086.828.258.184.172.276.414.276.726v.288c0 .04-.02.06-.06.06h-1.284c-.792 0-1.406.174-1.842.522-.436.348-.654.834-.654 1.458 0 .6.194 1.052.582 1.356.388.304.882.456 1.482.456zm.348-1.104c-.296 0-.538-.07-.726-.21-.188-.14-.282-.338-.282-.594a.77.77 0 0 1 .366-.684c.244-.16.578-.24 1.002-.24h1.008c.04 0 .06.02.06.06v.564c0 .32-.14.584-.42.792-.28.208-.616.312-1.008.312zm5.631 1.008c.04 0 .074-.014.102-.042a.139.139 0 0 0 .042-.102v-3.66c0-.368.106-.664.318-.888.212-.224.49-.336.834-.336s.62.114.828.342c.208.228.312.526.312.894v3.648c0 .04.014.074.042.102a.139.139 0 0 0 .102.042h1.104c.04 0 .074-.014.102-.042a.139.139 0 0 0 .042-.102v-3.936c0-.664-.194-1.188-.582-1.572-.388-.384-.906-.576-1.554-.576-.664 0-1.16.216-1.488.648-.008.024-.02.032-.036.024-.016-.008-.024-.024-.024-.048v-.384a.139.139 0 0 0-.042-.102.139.139 0 0 0-.102-.042h-1.104a.139.139 0 0 0-.102.042.139.139 0 0 0-.042.102v5.844c0 .04.014.074.042.102a.139.139 0 0 0 .102.042h1.104zm6.7 0c.04 0 .073-.014.101-.042a.139.139 0 0 0 .042-.102v-3.66c0-.368.106-.664.318-.888.212-.224.49-.336.834-.336s.62.114.828.342c.208.228.312.526.312.894v3.648c0 .04.014.074.042.102a.139.139 0 0 0 .102.042h1.104c.04 0 .074-.014.102-.042a.139.139 0 0 0 .042-.102v-3.936c0-.664-.194-1.188-.582-1.572-.388-.384-.906-.576-1.554-.576-.664 0-1.16.216-1.488.648-.008.024-.02.032-.036.024-.016-.008-.024-.024-.024-.048v-.384a.139.139 0 0 0-.042-.102.139.139 0 0 0-.102-.042h-1.104a.139.139 0 0 0-.102.042.139.139 0 0 0-.042.102v5.844c0 .04.014.074.042.102a.139.139 0 0 0 .102.042h1.104zm8.079.108c.504 0 .962-.096 1.374-.288.412-.192.742-.464.99-.816.048-.072.036-.136-.036-.192l-.744-.612a.115.115 0 0 0-.084-.036c-.048 0-.088.024-.12.072-.32.448-.752.672-1.296.672-.744-.008-1.212-.3-1.404-.876-.048-.096-.084-.276-.108-.54 0-.04.02-.06.06-.06h3.756c.096 0 .144-.048.144-.144l.012-.372c0-.248-.016-.472-.048-.672-.2-1.648-1.088-2.472-2.664-2.472-.624 0-1.158.162-1.602.486a2.407 2.407 0 0 0-.906 1.326c-.096.288-.144.664-.144 1.128 0 .768.092 1.368.276 1.8.2.504.518.896.954 1.176.436.28.966.42 1.59.42zm1.068-3.708h-2.436c-.048 0-.064-.02-.048-.06.016-.216.048-.392.096-.528.08-.264.218-.47.414-.618.196-.148.442-.222.738-.222.32 0 .586.08.798.24.212.16.354.384.426.672.032.104.056.256.072.456 0 .04-.02.06-.06.06zm4.167 3.6c.04 0 .074-.014.102-.042a.139.139 0 0 0 .042-.102v-8.112a.139.139 0 0 0-.042-.102.139.139 0 0 0-.102-.042h-1.104a.139.139 0 0 0-.102.042.139.139 0 0 0-.042.102v8.112c0 .04.014.074.042.102a.139.139 0 0 0 .102.042h1.104z"/>
            <path d="M384.674 184.9v-.6H358.91v.6h25.765zm2.052-.6v.6h15.906v-.6h-15.906zm20.207.6v-.6h-2.046v.6h2.046z"/>
        </g>
        <path fill="#FFF" fill-rule="nonzero" opacity=".5" d="m341.498 3.407 6 3.375.387.218-.387.218-6 3.375-.246-.436 5.169-2.907h-46.608v177H254v-.5h45.313v-177h47.108l-5.169-2.907z"/>
        <path fill="#FFF" fill-rule="nonzero" opacity=".5" d="m320.186 61.882-.001 15.868h28.145l-5.168-2.907.245-.436 6 3.375.387.218-.387.218-6 3.375-.245-.436 5.168-2.907h-28.644l-.001-15.868H280v-.5zM343.407 145.407l6 3.375.387.218-.387.218-6 3.375-.245-.436 5.168-2.907h-26.926v79H205v-.5h115.904v-79h27.426l-5.168-2.907z"/>
    </g>
</svg>
