<svg width="396" height="150" xmlns="http://www.w3.org/2000/svg">
    <g fill-rule="nonzero" fill="none">
        <rect fill="#57F" width="150" height="150" rx="4"/>
        <g fill="#FFF" opacity=".8">
            <path d="M32.943 58c.093 0 .14-.047.14-.14v-8.946c0-.037.019-.056.056-.056h2.8c.093 0 .14-.047.14-.14v-.378c0-.093-.047-.14-.14-.14h-6.314c-.093 0-.14.047-.14.14v.378c0 .093.047.14.14.14h2.66c.037 0 .056.019.056.056v8.946c0 .093.047.14.14.14h.462zm7.236.112c.663 0 1.23-.173 1.701-.518a2.48 2.48 0 0 0 .945-1.386c.056-.215.093-.453.112-.714.019-.261.028-.607.028-1.036 0-.41-.01-.749-.028-1.015a3.964 3.964 0 0 0-.112-.721 2.478 2.478 0 0 0-.945-1.372c-.471-.345-1.034-.518-1.687-.518-.672 0-1.239.17-1.701.511-.462.34-.777.8-.945 1.379-.103.364-.154.943-.154 1.736s.051 1.377.154 1.75c.168.579.485 1.04.952 1.386.467.345 1.027.518 1.68.518zm0-.658c-.504 0-.929-.135-1.274-.406a1.856 1.856 0 0 1-.672-1.092c-.065-.29-.098-.784-.098-1.484s.033-1.195.098-1.484c.103-.457.327-.821.672-1.092.345-.27.77-.406 1.274-.406s.931.135 1.281.406c.35.27.576.635.679 1.092.056.243.084.737.084 1.484 0 .737-.033 1.232-.098 1.484-.103.448-.329.81-.679 1.085-.35.275-.772.413-1.267.413zm7.908.56.42-.014c.093 0 .14-.047.14-.14v-.378c0-.093-.047-.14-.14-.14h-.322c-.476 0-.821-.096-1.036-.287-.215-.191-.322-.525-.322-1.001V51.63c0-.037.019-.056.056-.056h1.638c.093 0 .14-.047.14-.14v-.35c0-.093-.047-.14-.14-.14h-1.638c-.037 0-.056-.019-.056-.056v-1.596c0-.093-.047-.14-.14-.14h-.448c-.093 0-.14.047-.14.14v1.596c0 .037-.019.056-.056.056h-.84c-.093 0-.14.047-.14.14v.35c0 .093.047.14.14.14h.84c.037 0 .056.019.056.056v4.62c.01.672.18 1.134.511 1.386s.824.378 1.477.378zm5.066.098c.476 0 .908-.08 1.295-.238.387-.159.702-.392.945-.7.019-.019.035-.023.049-.014.014.01.021.023.021.042v.658c0 .093.047.14.14.14h.462c.093 0 .14-.047.14-.14v-4.676c0-.719-.215-1.29-.644-1.715-.43-.425-1.055-.637-1.876-.637-.69 0-1.267.154-1.729.462-.462.308-.735.714-.819 1.218-.019.056.023.093.126.112l.49.07c.084.01.14-.033.168-.126.075-.327.266-.588.574-.784.308-.196.7-.294 1.176-.294.607 0 1.057.154 1.351.462.294.308.441.723.441 1.246v.63c0 .037-.019.056-.056.056h-1.68c-.896 0-1.6.2-2.114.602-.513.401-.77.947-.77 1.638 0 .672.224 1.171.672 1.498.448.327.994.49 1.638.49zm.126-.644c-.495 0-.9-.117-1.218-.35-.317-.233-.476-.579-.476-1.036 0-.495.203-.882.609-1.162.406-.28.94-.42 1.603-.42h1.61c.037 0 .056.019.056.056v1.274c0 .513-.217.915-.651 1.204-.434.29-.945.434-1.533.434zm6.354.532c.093 0 .14-.047.14-.14v-9.52c0-.093-.047-.14-.14-.14h-.462c-.093 0-.14.047-.14.14v9.52c0 .093.047.14.14.14h.462zm7.374 0c.093 0 .14-.047.14-.14v-4.396c0-.037.019-.056.056-.056h2.646c.028 0 .047.014.056.042l2.142 4.452c.028.065.084.098.168.098h.462c.075 0 .112-.033.112-.098a.156.156 0 0 0-.014-.07l-2.142-4.41c-.019-.028-.005-.051.042-.07.616-.112 1.106-.394 1.47-.847.364-.453.546-1.01.546-1.673 0-.784-.24-1.419-.721-1.904-.48-.485-1.113-.728-1.897-.728h-3.528c-.093 0-.14.047-.14.14v9.52c0 .093.047.14.14.14h.462zm2.996-5.208h-2.8c-.037 0-.056-.019-.056-.056v-3.822c0-.037.019-.056.056-.056h2.8c.579 0 1.048.182 1.407.546.36.364.539.84.539 1.428 0 .579-.18 1.05-.539 1.414-.36.364-.828.546-1.407.546zm7.908 5.32c.597 0 1.118-.135 1.561-.406.443-.27.768-.635.973-1.092.037-.075.014-.135-.07-.182l-.364-.182c-.075-.037-.135-.014-.182.07a2.06 2.06 0 0 1-.735.833c-.313.2-.688.301-1.127.301-.55 0-1.006-.133-1.365-.399a1.79 1.79 0 0 1-.693-1.085c-.047-.196-.07-.593-.07-1.19 0-.037.019-.056.056-.056h4.564c.093 0 .14-.047.14-.14 0-.355-.005-.651-.014-.889a5.407 5.407 0 0 0-.056-.623c-.112-.7-.397-1.248-.854-1.645-.457-.397-1.069-.595-1.834-.595-.672 0-1.239.177-1.701.532a2.505 2.505 0 0 0-.917 1.414c-.047.196-.077.41-.091.644-.014.233-.021.579-.021 1.036 0 .439.014.803.042 1.092.028.29.08.55.154.784.168.55.48.985.938 1.302.457.317 1.013.476 1.666.476zm1.89-4.018h-3.906c-.037 0-.056-.019-.056-.056.019-.55.051-.915.098-1.092.093-.439.308-.791.644-1.057.336-.266.756-.399 1.26-.399s.929.138 1.274.413c.345.275.57.637.672 1.085.047.233.07.583.07 1.05 0 .037-.019.056-.056.056zM85.525 58c.084 0 .14-.037.168-.112l2.31-6.776c.028-.103-.01-.154-.112-.154l-.518-.014c-.084 0-.14.037-.168.112l-1.904 5.796c-.01.019-.023.028-.042.028-.019 0-.033-.01-.042-.028l-1.904-5.796c-.028-.075-.084-.112-.168-.112h-.532c-.084 0-.126.033-.126.098l.014.056 2.324 6.79c.028.075.084.112.168.112h.532zm7.194.112c.597 0 1.118-.135 1.561-.406.443-.27.768-.635.973-1.092.037-.075.014-.135-.07-.182l-.364-.182c-.075-.037-.135-.014-.182.07a2.06 2.06 0 0 1-.735.833c-.313.2-.688.301-1.127.301-.55 0-1.006-.133-1.365-.399a1.79 1.79 0 0 1-.693-1.085c-.047-.196-.07-.593-.07-1.19 0-.037.019-.056.056-.056h4.564c.093 0 .14-.047.14-.14 0-.355-.005-.651-.014-.889a5.407 5.407 0 0 0-.056-.623c-.112-.7-.397-1.248-.854-1.645-.457-.397-1.069-.595-1.834-.595-.672 0-1.239.177-1.701.532a2.505 2.505 0 0 0-.917 1.414c-.047.196-.077.41-.091.644-.014.233-.021.579-.021 1.036 0 .439.014.803.042 1.092.028.29.08.55.154.784.168.55.48.985.938 1.302.457.317 1.013.476 1.666.476zm1.89-4.018h-3.906c-.037 0-.056-.019-.056-.056.019-.55.051-.915.098-1.092.093-.439.308-.791.644-1.057.336-.266.756-.399 1.26-.399s.929.138 1.274.413c.345.275.57.637.672 1.085.047.233.07.583.07 1.05 0 .037-.019.056-.056.056zM98.765 58c.093 0 .14-.047.14-.14v-4.508c0-.55.173-.996.518-1.337.345-.34.798-.511 1.358-.511.541 0 .98.175 1.316.525.336.35.504.8.504 1.351v4.48c0 .093.047.14.14.14h.462c.093 0 .14-.047.14-.14v-4.62c0-.719-.222-1.297-.665-1.736-.443-.439-1.024-.658-1.743-.658-.439 0-.826.082-1.162.245a2.019 2.019 0 0 0-.812.707c-.01.019-.021.026-.035.021-.014-.005-.021-.021-.021-.049v-.686c0-.093-.047-.14-.14-.14h-.462c-.093 0-.14.047-.14.14v6.776c0 .093.047.14.14.14h.462zm9.812.098c.448 0 .838-.08 1.169-.238.331-.159.595-.392.791-.7.01-.028.023-.04.042-.035.019.005.028.021.028.049v.686c0 .093.047.14.14.14h.448c.093 0 .14-.047.14-.14v-6.776c0-.093-.047-.14-.14-.14h-.448c-.093 0-.14.047-.14.14v4.508c0 .55-.173.996-.518 1.337-.345.34-.803.511-1.372.511-.55 0-.992-.168-1.323-.504-.331-.336-.497-.784-.497-1.344v-4.508c0-.093-.047-.14-.14-.14h-.448c-.093 0-.14.047-.14.14v4.704c0 .719.229 1.283.686 1.694.457.41 1.031.616 1.722.616zm8.37.014c.597 0 1.118-.135 1.561-.406.443-.27.768-.635.973-1.092.037-.075.014-.135-.07-.182l-.364-.182c-.075-.037-.135-.014-.182.07a2.06 2.06 0 0 1-.735.833c-.313.2-.688.301-1.127.301-.55 0-1.006-.133-1.365-.399a1.79 1.79 0 0 1-.693-1.085c-.047-.196-.07-.593-.07-1.19 0-.037.019-.056.056-.056h4.564c.093 0 .14-.047.14-.14 0-.355-.005-.651-.014-.889a5.407 5.407 0 0 0-.056-.623c-.112-.7-.397-1.248-.854-1.645-.457-.397-1.069-.595-1.834-.595-.672 0-1.239.177-1.701.532a2.505 2.505 0 0 0-.917 1.414c-.047.196-.077.41-.091.644-.014.233-.021.579-.021 1.036 0 .439.014.803.042 1.092.028.29.08.55.154.784.168.55.48.985.938 1.302.457.317 1.013.476 1.666.476zm1.89-4.018h-3.906c-.037 0-.056-.019-.056-.056.019-.55.051-.915.098-1.092.093-.439.308-.791.644-1.057.336-.266.756-.399 1.26-.399s.929.138 1.274.413c.345.275.57.637.672 1.085.047.233.07.583.07 1.05 0 .037-.019.056-.056.056zM43.398 103.464a.324.324 0 0 0 .238-.098.324.324 0 0 0 .098-.238l-.028-1.848c0-.075.047-.13.14-.168 1.624-.205 2.893-.784 3.808-1.736s1.372-2.165 1.372-3.64c0-1.101-.27-2.02-.812-2.758a5.888 5.888 0 0 0-1.946-1.722c-.756-.41-1.769-.868-3.038-1.372-1.176-.448-2.049-.817-2.618-1.106-.57-.29-.999-.611-1.288-.966-.29-.355-.434-.812-.434-1.372 0-.784.27-1.39.812-1.82.541-.43 1.307-.644 2.296-.644 1.195 0 2.133.303 2.814.91s1.022 1.349 1.022 2.226v.308c0 .093.033.173.098.238a.324.324 0 0 0 .238.098h2.38a.324.324 0 0 0 .238-.098.324.324 0 0 0 .098-.238v-.476c0-1.475-.462-2.716-1.386-3.724-.924-1.008-2.18-1.643-3.766-1.904-.093-.037-.14-.093-.14-.168l.056-2.1a.324.324 0 0 0-.098-.238.324.324 0 0 0-.238-.098H41.13a.324.324 0 0 0-.238.098.324.324 0 0 0-.098.238l.056 2.072c0 .075-.047.13-.14.168-1.493.224-2.674.793-3.542 1.708-.868.915-1.302 2.081-1.302 3.5 0 1.101.261 2.02.784 2.758a5.775 5.775 0 0 0 1.96 1.75c.784.43 1.801.887 3.052 1.372 1.12.467 1.965.845 2.534 1.134.57.29 1.003.616 1.302.98.299.364.448.807.448 1.33 0 .765-.275 1.39-.826 1.876-.55.485-1.377.728-2.478.728-1.25 0-2.24-.285-2.968-.854-.728-.57-1.092-1.283-1.092-2.142v-.532a.324.324 0 0 0-.098-.238.324.324 0 0 0-.238-.098h-2.352a.324.324 0 0 0-.238.098.324.324 0 0 0-.098.238v.7c0 1.475.462 2.693 1.386 3.654.924.961 2.198 1.573 3.822 1.834.093.037.14.093.14.168l-.028 1.876c0 .093.033.173.098.238a.324.324 0 0 0 .238.098h2.184zm15.424-2.24c1.176 0 2.217-.21 3.122-.63.905-.42 1.61-1.013 2.114-1.778.504-.765.756-1.652.756-2.66v-8.54c0-1.045-.15-1.96-.448-2.744-.43-1.157-1.143-2.058-2.142-2.702-.999-.644-2.198-.966-3.598-.966-1.325 0-2.473.299-3.444.896a5.241 5.241 0 0 0-2.128 2.492c-.373.859-.56 1.857-.56 2.996 0 1.381.261 2.539.784 3.472.467.877 1.115 1.55 1.946 2.016.83.467 1.797.7 2.898.7 1.381 0 2.473-.392 3.276-1.176.037-.037.075-.047.112-.028.037.019.056.056.056.112v3.08c0 .784-.257 1.423-.77 1.918-.513.495-1.171.742-1.974.742-.765 0-1.39-.238-1.876-.714-.485-.476-.728-1.087-.728-1.834v-.196a.324.324 0 0 0-.098-.238.324.324 0 0 0-.238-.098h-2.576a.324.324 0 0 0-.238.098.324.324 0 0 0-.098.238v.616c0 .97.247 1.83.742 2.576.495.747 1.185 1.325 2.072 1.736.887.41 1.9.616 3.038.616zm-.168-10.192c-1.083 0-1.885-.448-2.408-1.344-.336-.597-.504-1.316-.504-2.156 0-.71.14-1.372.42-1.988.485-1.008 1.325-1.512 2.52-1.512 1.232 0 2.072.513 2.52 1.54.243.541.364 1.167.364 1.876 0 .859-.15 1.587-.448 2.184-.485.933-1.307 1.4-2.464 1.4zm16.236 10.192c1.27 0 2.37-.252 3.304-.756.933-.504 1.643-1.195 2.128-2.072.485-.915.728-1.932.728-3.052 0-1.064-.205-2.007-.616-2.828-.392-.803-.943-1.41-1.652-1.82-.075-.056-.075-.121 0-.196a5.08 5.08 0 0 0 1.232-1.288c.504-.765.756-1.661.756-2.688a5.469 5.469 0 0 0-.98-3.164 5.065 5.065 0 0 0-2.002-1.694c-.83-.401-1.797-.602-2.898-.602-1.064 0-2.025.2-2.884.602-.859.401-1.54.966-2.044 1.694a5.185 5.185 0 0 0-1.036 3.164c0 .952.243 1.82.728 2.604.373.597.793 1.064 1.26 1.4.075.075.065.14-.028.196-.69.392-1.223.97-1.596 1.736a6.526 6.526 0 0 0-.644 2.856c0 1.12.243 2.119.728 2.996a4.865 4.865 0 0 0 2.184 2.17c.97.495 2.081.742 3.332.742zm-.028-11.788c-1.045 0-1.792-.383-2.24-1.148a3.138 3.138 0 0 1-.476-1.708c0-.373.112-.803.336-1.288a2.53 2.53 0 0 1 .952-1.05c.41-.252.877-.378 1.4-.378.56 0 1.045.126 1.456.378.41.252.737.593.98 1.022.205.448.308.877.308 1.288 0 .728-.14 1.297-.42 1.708-.523.784-1.288 1.176-2.296 1.176zm.028 8.988c-1.101 0-1.904-.41-2.408-1.232-.336-.541-.504-1.241-.504-2.1 0-.896.159-1.596.476-2.1.504-.821 1.307-1.232 2.408-1.232 1.176 0 1.997.43 2.464 1.288.299.485.448 1.157.448 2.016 0 .933-.196 1.67-.588 2.212-.485.765-1.25 1.148-2.296 1.148zm16.012 2.8c1.176 0 2.217-.21 3.122-.63.905-.42 1.61-1.013 2.114-1.778.504-.765.756-1.652.756-2.66v-8.54c0-1.045-.15-1.96-.448-2.744-.43-1.157-1.143-2.058-2.142-2.702-.999-.644-2.198-.966-3.598-.966-1.325 0-2.473.299-3.444.896a5.241 5.241 0 0 0-2.128 2.492c-.373.859-.56 1.857-.56 2.996 0 1.381.261 2.539.784 3.472.467.877 1.115 1.55 1.946 2.016.83.467 1.797.7 2.898.7 1.381 0 2.473-.392 3.276-1.176.037-.037.075-.047.112-.028.037.019.056.056.056.112v3.08c0 .784-.257 1.423-.77 1.918-.513.495-1.171.742-1.974.742-.765 0-1.39-.238-1.876-.714-.485-.476-.728-1.087-.728-1.834v-.196a.324.324 0 0 0-.098-.238.324.324 0 0 0-.238-.098h-2.576a.324.324 0 0 0-.238.098.324.324 0 0 0-.098.238v.616c0 .97.247 1.83.742 2.576.495.747 1.185 1.325 2.072 1.736.887.41 1.9.616 3.038.616zm-.168-10.192c-1.083 0-1.885-.448-2.408-1.344-.336-.597-.504-1.316-.504-2.156 0-.71.14-1.372.42-1.988.485-1.008 1.325-1.512 2.52-1.512 1.232 0 2.072.513 2.52 1.54.243.541.364 1.167.364 1.876 0 .859-.15 1.587-.448 2.184-.485.933-1.307 1.4-2.464 1.4zm16.236 10.192c1.27 0 2.37-.252 3.304-.756.933-.504 1.643-1.195 2.128-2.072.485-.915.728-1.932.728-3.052 0-1.064-.205-2.007-.616-2.828-.392-.803-.943-1.41-1.652-1.82-.075-.056-.075-.121 0-.196a5.08 5.08 0 0 0 1.232-1.288c.504-.765.756-1.661.756-2.688a5.469 5.469 0 0 0-.98-3.164 5.065 5.065 0 0 0-2.002-1.694c-.83-.401-1.797-.602-2.898-.602-1.064 0-2.025.2-2.884.602-.859.401-1.54.966-2.044 1.694a5.185 5.185 0 0 0-1.036 3.164c0 .952.243 1.82.728 2.604.373.597.793 1.064 1.26 1.4.075.075.065.14-.028.196-.69.392-1.223.97-1.596 1.736a6.526 6.526 0 0 0-.644 2.856c0 1.12.243 2.119.728 2.996a4.865 4.865 0 0 0 2.184 2.17c.97.495 2.081.742 3.332.742zm-.028-11.788c-1.045 0-1.792-.383-2.24-1.148a3.138 3.138 0 0 1-.476-1.708c0-.373.112-.803.336-1.288a2.53 2.53 0 0 1 .952-1.05c.41-.252.877-.378 1.4-.378.56 0 1.045.126 1.456.378.41.252.737.593.98 1.022.205.448.308.877.308 1.288 0 .728-.14 1.297-.42 1.708-.523.784-1.288 1.176-2.296 1.176zm.028 8.988c-1.101 0-1.904-.41-2.408-1.232-.336-.541-.504-1.241-.504-2.1 0-.896.159-1.596.476-2.1.504-.821 1.307-1.232 2.408-1.232 1.176 0 1.997.43 2.464 1.288.299.485.448 1.157.448 2.016 0 .933-.196 1.67-.588 2.212-.485.765-1.25 1.148-2.296 1.148z"/>
        </g>
        <g fill="#FFF">
            <path d="m393.907 66.037-.29.525a2.089 2.089 0 0 0-1.017-.262v-.6c.463 0 .91.117 1.307.337zm1.393 3.49h-.6l-.001-1.197.6-.02.001 1.216zm0 3.6h-.6v-1.2h.6v1.2zm0 3.6h-.6v-1.2h.6v1.2zm0 3.6h-.6v-1.2h.6v1.2zm0 3.6h-.6v-1.2h.6v1.2zm0 3.6h-.6v-1.2h.6v1.2zm0 3.6h-.6v-1.2h.6v1.2zm-1.193 3.514-.335-.498c.294-.198.535-.47.697-.785l.534.274a2.711 2.711 0 0 1-.896 1.009zm-3.76.459v-.6h1.2v.6h-1.2zm-3.6 0v-.6h1.2v.6h-1.2zm-3.6 0v-.6h1.2v.6h-1.2zm-3.6 0v-.6h1.2v.6h-1.2zm-3.6 0v-.6h1.2v.6h-1.2zm-3.6 0v-.6h1.2v.6h-1.2zm-3.6 0v-.6h1.2v.6h-1.2zm-3.6 0v-.6h1.2v.6h-1.2zm-3.6 0v-.6h1.2v.6h-1.2zm-3.6 0v-.6h1.2v.6h-1.2zm-3.6 0v-.6h1.2v.6h-1.2zm-3.6 0v-.6h1.2v.6h-1.2zm-3.6 0v-.6h1.2v.6h-1.2zm-3.6 0v-.6h1.2v.6h-1.2zm-3.6 0v-.6h1.2v.6h-1.2zm-3.6 0v-.6h1.2v.6h-1.2zm-3.6 0v-.6h1.2v.6h-1.2zm-3.6 0v-.6h1.2v.6h-1.2zm-3.6 0v-.6h1.2v.6h-1.2zm-3.6 0v-.6h1.2v.6h-1.2zm-3.6 0v-.6h1.2v.6h-1.2zm-3.6 0v-.6h1.2v.6h-1.2zm-3.6 0v-.6h1.2v.6h-1.2zm-3.6 0v-.6h1.2v.6h-1.2zm-3.6 0v-.6h1.2v.6h-1.2zm-3.6 0v-.6h1.2v.6h-1.2zm-3.6 0v-.6h1.2v.6h-1.2zm-3.6 0v-.6h1.2v.6h-1.2zm-3.6 0v-.6h1.2v.6h-1.2zm-3.6 0v-.6h1.2v.6h-1.2zm-3.703-.26.257-.541c.279.132.584.201.899.201h.148v.6h-.148a2.69 2.69 0 0 1-1.156-.26zm-1.544-3.419h.6v.994c0 .065.004.13.01.194l-.597.058a2.736 2.736 0 0 1-.013-.25v-.996zm0-3.6h.6v1.2h-.6v-1.2zm0-3.6h.6v1.2h-.6v-1.2zm0-3.6h.6v1.2h-.6v-1.2zm0-3.6h.6v1.2h-.6v-1.2zm0-3.6h.6v1.2h-.6v-1.2zm0-3.6h.6v1.2h-.6v-1.2zm1.055-3.562.366.475a2.108 2.108 0 0 0-.647.828l-.55-.24c.183-.419.47-.785.831-1.063zm3.75-.559v.6h-1.2v-.6h1.2zm3.6 0v.6h-1.2v-.6h1.2zm3.6 0v.6h-1.2v-.6h1.2zm3.6 0v.6h-1.2v-.6h1.2zm3.6 0v.6h-1.2v-.6h1.2zm3.6 0v.6h-1.2v-.6h1.2zm3.6 0v.6h-1.2v-.6h1.2zm3.6 0v.6h-1.2v-.6h1.2zm3.6 0v.6h-1.2v-.6h1.2zm3.6 0v.6h-1.2v-.6h1.2zm3.6 0v.6h-1.2v-.6h1.2zm3.6 0v.6h-1.2v-.6h1.2zm3.6 0v.6h-1.2v-.6h1.2zm3.6 0v.6h-1.2v-.6h1.2zm3.6 0v.6h-1.2v-.6h1.2zm3.6 0v.6h-1.2v-.6h1.2zm3.6 0v.6h-1.2v-.6h1.2zm3.6 0v.6h-1.2v-.6h1.2zm3.6 0v.6h-1.2v-.6h1.2zm3.6 0v.6h-1.2v-.6h1.2zm3.6 0v.6h-1.2v-.6h1.2zm3.6 0v.6h-1.2v-.6h1.2zm3.6 0v.6h-1.2v-.6h1.2zm3.6 0v.6h-1.2v-.6h1.2zm3.6 0v.6h-1.2v-.6h1.2zm3.6 0v.6h-1.2v-.6h1.2zm3.6 0v.6h-1.2v-.6h1.2zm3.6 0v.6h-1.2v-.6h1.2zm3.6 0v.6h-1.2v-.6h1.2zm3.6 0v.6h-1.2v-.6h1.2zm2.695 0v.6h-.295v-.6h.295z" fill-opacity=".4"/>
            <path d="M294.552 85.096c.88 0 1.568-.2 2.064-.6.496-.4.744-.936.744-1.608 0-.432-.11-.798-.33-1.098a2.81 2.81 0 0 0-.864-.762 11.633 11.633 0 0 0-1.41-.672 15.418 15.418 0 0 1-1.278-.546 1.867 1.867 0 0 1-.636-.492c-.148-.188-.222-.426-.222-.714 0-.44.152-.776.456-1.008.304-.232.74-.348 1.308-.348.648 0 1.154.148 1.518.444.364.296.546.676.546 1.14v.216c0 .08.04.12.12.12h.6c.08 0 .12-.04.12-.12v-.264c0-.688-.256-1.24-.768-1.656-.512-.416-1.212-.624-2.1-.624-.816 0-1.458.186-1.926.558-.468.372-.702.894-.702 1.566 0 .432.102.79.306 1.074.204.284.472.516.804.696.332.18.798.39 1.398.63.56.232.994.436 1.302.612.308.176.536.364.684.564.148.2.222.44.222.72 0 .432-.16.778-.48 1.038-.32.26-.788.39-1.404.39-.68 0-1.212-.142-1.596-.426-.384-.284-.576-.658-.576-1.122v-.324c0-.08-.04-.12-.12-.12h-.588c-.08 0-.12.04-.12.12v.372c0 .68.262 1.224.786 1.632.524.408 1.238.612 2.142.612zm6.632-.012c.728 0 1.26-.248 1.596-.744.008-.016.02-.02.036-.012.016.008.024.02.024.036v.516c0 .08.04.12.12.12h.612c.08 0 .12-.04.12-.12v-5.832c0-.08-.04-.12-.12-.12h-.612c-.08 0-.12.04-.12.12v3.804c0 .448-.134.808-.402 1.08s-.63.408-1.086.408c-.44 0-.788-.134-1.044-.402s-.384-.63-.384-1.086v-3.804c0-.08-.04-.12-.12-.12h-.612c-.08 0-.12.04-.12.12v4.056c0 .416.094.772.282 1.068.188.296.444.522.768.678.324.156.678.234 1.062.234zm5.348-.084c.08 0 .12-.04.12-.12v-3.876c0-.432.126-.776.378-1.032s.59-.384 1.014-.384c.416 0 .748.13.996.39s.372.61.372 1.05v3.852c0 .08.04.12.12.12h.612c.08 0 .12-.04.12-.12v-3.876c0-.432.13-.776.39-1.032s.602-.384 1.026-.384c.408 0 .738.13.99.39s.378.61.378 1.05v3.852c0 .08.04.12.12.12h.6c.08 0 .12-.04.12-.12v-4.02c0-.624-.174-1.116-.522-1.476-.348-.36-.822-.54-1.422-.54a2.36 2.36 0 0 0-1.092.246c-.32.164-.568.41-.744.738-.024.04-.044.04-.06 0a1.615 1.615 0 0 0-.672-.732c-.296-.168-.652-.252-1.068-.252-.336 0-.642.058-.918.174-.276.116-.502.29-.678.522-.016.016-.03.022-.042.018-.012-.004-.018-.014-.018-.03v-.48c0-.08-.04-.12-.12-.12h-.612c-.08 0-.12.04-.12.12v5.832c0 .08.04.12.12.12h.612zm13.312 0c.04 0 .074-.014.102-.042a.139.139 0 0 0 .042-.102V81.58c0-.04.02-.06.06-.06h1.116c.032 0 .056.016.072.048l1.5 3.324a.17.17 0 0 0 .168.108h1.476c.088 0 .132-.032.132-.096a.184.184 0 0 0-.024-.072l-1.632-3.396c-.016-.04-.004-.068.036-.084.488-.16.868-.434 1.14-.822.272-.388.408-.854.408-1.398 0-.504-.106-.948-.318-1.332a2.188 2.188 0 0 0-.9-.888c-.388-.208-.838-.312-1.35-.312h-3.432a.139.139 0 0 0-.102.042.139.139 0 0 0-.042.102v8.112c0 .04.014.074.042.102a.139.139 0 0 0 .102.042h1.404zm1.776-4.776h-1.572c-.04 0-.06-.02-.06-.06v-2.052c0-.04.02-.06.06-.06h1.572c.336 0 .61.102.822.306.212.204.318.466.318.786s-.106.58-.318.78c-.212.2-.486.3-.822.3zm6.944 4.872c.496 0 .952-.09 1.368-.27.416-.18.756-.434 1.02-.762.032-.048.048-.08.048-.096 0-.032-.02-.068-.06-.108l-.864-.852c-.032-.032-.06-.048-.084-.048-.04 0-.076.024-.108.072-.296.408-.7.616-1.212.624-.64 0-1.064-.224-1.272-.672a2.149 2.149 0 0 1-.132-.48c-.016-.04 0-.06.048-.06h3.708c.096 0 .148-.048.156-.144.016-.376 0-.716-.048-1.02-.104-.776-.398-1.396-.882-1.86-.484-.464-1.126-.696-1.926-.696-.632 0-1.178.168-1.638.504-.46.336-.782.788-.966 1.356-.12.336-.18.724-.18 1.164 0 .648.084 1.172.252 1.572.208.56.55.996 1.026 1.308.476.312 1.058.468 1.746.468zm.828-3.756h-2.076c-.04 0-.06-.02-.06-.06.024-.152.052-.28.084-.384.16-.472.492-.708.996-.708.264 0 .486.066.666.198.18.132.306.318.378.558 0-.008.02.104.06.336.016.04 0 .06-.048.06zm5.984 3.66c.08 0 .132-.04.156-.12l1.908-5.868c.016-.056.012-.098-.012-.126-.024-.028-.06-.042-.108-.042l-1.548-.024c-.088 0-.144.04-.168.12l-.984 3.636c-.008.024-.02.036-.036.036-.016 0-.028-.012-.036-.036l-.984-3.636c-.024-.08-.08-.12-.168-.12h-1.548c-.088 0-.132.036-.132.108 0 .024.004.044.012.06l1.92 5.892c.024.08.076.12.156.12h1.572zm5.648.096c.496 0 .952-.09 1.368-.27.416-.18.756-.434 1.02-.762.032-.048.048-.08.048-.096 0-.032-.02-.068-.06-.108l-.864-.852c-.032-.032-.06-.048-.084-.048-.04 0-.076.024-.108.072-.296.408-.7.616-1.212.624-.64 0-1.064-.224-1.272-.672a2.149 2.149 0 0 1-.132-.48c-.016-.04 0-.06.048-.06h3.708c.096 0 .148-.048.156-.144.016-.376 0-.716-.048-1.02-.104-.776-.398-1.396-.882-1.86-.484-.464-1.126-.696-1.926-.696-.632 0-1.178.168-1.638.504-.46.336-.782.788-.966 1.356-.12.336-.18.724-.18 1.164 0 .648.084 1.172.252 1.572.208.56.55.996 1.026 1.308.476.312 1.058.468 1.746.468zm.828-3.756h-2.076c-.04 0-.06-.02-.06-.06.024-.152.052-.28.084-.384.16-.472.492-.708.996-.708.264 0 .486.066.666.198.18.132.306.318.378.558 0-.008.02.104.06.336.016.04 0 .06-.048.06zm4.58 3.66c.04 0 .074-.014.102-.042a.139.139 0 0 0 .042-.102v-3.588c0-.32.09-.58.27-.78.18-.2.418-.3.714-.3s.534.1.714.3c.18.2.27.46.27.78v3.588c0 .04.014.074.042.102a.139.139 0 0 0 .102.042h1.404c.04 0 .074-.014.102-.042a.139.139 0 0 0 .042-.102V80.92c0-.672-.196-1.204-.588-1.596-.392-.392-.908-.588-1.548-.588-.648 0-1.136.232-1.464.696-.008.016-.02.02-.036.012-.016-.008-.024-.024-.024-.048v-.42a.139.139 0 0 0-.042-.102.139.139 0 0 0-.102-.042h-1.404a.139.139 0 0 0-.102.042.139.139 0 0 0-.042.102v5.88c0 .04.014.074.042.102a.139.139 0 0 0 .102.042h1.404zm7.256.084c.672 0 1.168-.216 1.488-.648.016-.024.032-.034.048-.03.016.004.024.018.024.042v.408c0 .04.014.074.042.102a.139.139 0 0 0 .102.042h1.404c.04 0 .074-.014.102-.042a.139.139 0 0 0 .042-.102v-5.88a.139.139 0 0 0-.042-.102.139.139 0 0 0-.102-.042h-1.404a.139.139 0 0 0-.102.042.139.139 0 0 0-.042.102v3.78c-.04.264-.148.478-.324.642a.947.947 0 0 1-.672.246c-.304 0-.542-.1-.714-.3-.172-.2-.258-.46-.258-.78v-3.588a.139.139 0 0 0-.042-.102.139.139 0 0 0-.102-.042h-1.392a.139.139 0 0 0-.102.042.139.139 0 0 0-.042.102v4.008c0 .664.196 1.18.588 1.548.392.368.892.552 1.5.552zm7.592.012c.496 0 .952-.09 1.368-.27.416-.18.756-.434 1.02-.762.032-.048.048-.08.048-.096 0-.032-.02-.068-.06-.108l-.864-.852c-.032-.032-.06-.048-.084-.048-.04 0-.076.024-.108.072-.296.408-.7.616-1.212.624-.64 0-1.064-.224-1.272-.672a2.149 2.149 0 0 1-.132-.48c-.016-.04 0-.06.048-.06h3.708c.096 0 .148-.048.156-.144.016-.376 0-.716-.048-1.02-.104-.776-.398-1.396-.882-1.86-.484-.464-1.126-.696-1.926-.696-.632 0-1.178.168-1.638.504-.46.336-.782.788-.966 1.356-.12.336-.18.724-.18 1.164 0 .648.084 1.172.252 1.572.208.56.55.996 1.026 1.308.476.312 1.058.468 1.746.468zm.828-3.756h-2.076c-.04 0-.06-.02-.06-.06.024-.152.052-.28.084-.384.16-.472.492-.708.996-.708.264 0 .486.066.666.198.18.132.306.318.378.558 0-.008.02.104.06.336.016.04 0 .06-.048.06zM314.984 85.9v-.6H291v.6h23.984zm2.58-.6v.6h45.866v-.6h-45.866z"/>
        </g>
        <path d="M285.476 56c.08 0 .132-.04.156-.12l2.508-8.112c.016-.048.012-.088-.012-.12s-.06-.048-.108-.048h-1.476c-.088 0-.144.04-.168.12l-1.572 5.856c-.008.024-.02.036-.036.036-.016 0-.028-.012-.036-.036l-1.596-5.856c-.024-.08-.08-.12-.168-.12h-1.512c-.088 0-.132.04-.132.12l.012.048 2.472 8.112c.024.08.076.12.156.12h1.512zm5.17.096c.744 0 1.284-.22 1.62-.66.016-.024.032-.032.048-.024s.024.024.024.048v.396c0 .04.014.074.042.102a.139.139 0 0 0 .102.042h1.404c.04 0 .074-.014.102-.042a.139.139 0 0 0 .042-.102v-4.068c0-.384-.114-.732-.342-1.044-.228-.312-.546-.558-.954-.738a3.416 3.416 0 0 0-1.392-.27c-.48 0-.914.076-1.302.228-.388.152-.7.364-.936.636-.236.272-.37.576-.402.912-.008.056.036.092.132.108l1.452.192c.08.008.132-.032.156-.12a.616.616 0 0 1 .318-.372c.164-.088.37-.132.618-.132.32 0 .56.074.72.222.16.148.24.354.24.618v.264c0 .04-.02.06-.06.06h-1.224c-.8 0-1.416.17-1.848.51-.432.34-.648.818-.648 1.434 0 .592.192 1.04.576 1.344.384.304.888.456 1.512.456zm.456-1.26c-.256 0-.46-.062-.612-.186a.623.623 0 0 1-.228-.51c0-.248.102-.44.306-.576.204-.136.486-.204.846-.204h.864c.04 0 .06.02.06.06v.432c0 .288-.12.524-.36.708-.24.184-.532.276-.876.276zM297.281 56c.04 0 .074-.014.102-.042a.139.139 0 0 0 .042-.102v-8.112a.139.139 0 0 0-.042-.102.139.139 0 0 0-.102-.042h-1.404a.139.139 0 0 0-.102.042.139.139 0 0 0-.042.102v8.112c0 .04.014.074.042.102a.139.139 0 0 0 .102.042h1.404zm3.934.084c.672 0 1.168-.216 1.488-.648.016-.024.032-.034.048-.03.016.004.024.018.024.042v.408c0 .04.014.074.042.102a.139.139 0 0 0 .102.042h1.404c.04 0 .074-.014.102-.042a.139.139 0 0 0 .042-.102v-5.88a.139.139 0 0 0-.042-.102.139.139 0 0 0-.102-.042h-1.404a.139.139 0 0 0-.102.042.139.139 0 0 0-.042.102v3.78c-.04.264-.148.478-.324.642a.947.947 0 0 1-.672.246c-.304 0-.542-.1-.714-.3-.172-.2-.258-.46-.258-.78v-3.588a.139.139 0 0 0-.042-.102.139.139 0 0 0-.102-.042h-1.392a.139.139 0 0 0-.102.042.139.139 0 0 0-.042.102v4.008c0 .664.196 1.18.588 1.548.392.368.892.552 1.5.552zm7.906.012c.496 0 .952-.09 1.368-.27.416-.18.756-.434 1.02-.762.032-.048.048-.08.048-.096 0-.032-.02-.068-.06-.108l-.864-.852c-.032-.032-.06-.048-.084-.048-.04 0-.076.024-.108.072-.296.408-.7.616-1.212.624-.64 0-1.064-.224-1.272-.672a2.149 2.149 0 0 1-.132-.48c-.016-.04 0-.06.048-.06h3.708c.096 0 .148-.048.156-.144.016-.376 0-.716-.048-1.02-.104-.776-.398-1.396-.882-1.86-.484-.464-1.126-.696-1.926-.696-.632 0-1.178.168-1.638.504-.46.336-.782.788-.966 1.356-.12.336-.18.724-.18 1.164 0 .648.084 1.172.252 1.572.208.56.55.996 1.026 1.308.476.312 1.058.468 1.746.468zm.828-3.756h-2.076c-.04 0-.06-.02-.06-.06.024-.152.052-.28.084-.384.16-.472.492-.708.996-.708.264 0 .486.066.666.198.18.132.306.318.378.558 0-.008.02.104.06.336.016.04 0 .06-.048.06z" fill="#FFF"/>
        <path fill="#FFF" opacity=".5" d="m264.998 47.407 6 3.375.387.218-.387.218-6 3.375-.246-.436 5.169-2.907H161.102l-38.925 38.927-.354-.354 39-39 .177-.073h108.921l-5.169-2.907z"/>
    </g>
</svg>
