<svg width="445" height="181" xmlns="http://www.w3.org/2000/svg">
    <g fill="none" fill-rule="evenodd">
        <g fill-rule="nonzero">
            <path d="M55.233 42.56C23.665 49.34 0 77.406 0 111c0 38.66 31.34 70 70 70 14.143 0 27.306-4.194 38.314-11.407L70 111 55.233 42.56z" fill="#57F"/>
            <path d="M128.396 72.386C115.864 53.472 94.388 41 70 41c-5.06 0-9.993.537-14.748 1.556L70 111l58.396-38.614z" fill="#9CAFFF"/>
            <path d="M78.03 73.93c.067 0 .1-.033.1-.1l-.01-.72c0-.027.013-.04.04-.04.593-.06 1.055-.253 1.385-.58.33-.327.495-.743.495-1.25 0-.36-.085-.665-.255-.915a2.187 2.187 0 0 0-.68-.635 9.27 9.27 0 0 0-1.115-.56 11.664 11.664 0 0 1-1.005-.455 1.49 1.49 0 0 1-.5-.41.97.97 0 0 1-.175-.595c0-.367.12-.647.36-.84.24-.193.583-.29 1.03-.29.507 0 .903.123 1.19.37.287.247.43.563.43.95v.18c0 .067.033.1.1.1h.47c.067 0 .1-.033.1-.1v-.22c0-.52-.167-.947-.5-1.28-.333-.333-.793-.533-1.38-.6-.027 0-.04-.013-.04-.04l.01-.79c0-.067-.033-.1-.1-.1h-.43c-.067 0-.1.033-.1.1l.01.78c0 .027-.013.04-.04.04-.553.053-.987.232-1.3.535-.313.303-.47.712-.47 1.225 0 .36.082.658.245.895.163.237.373.43.63.58.257.15.625.325 1.105.525.447.193.79.363 1.03.51.24.147.418.303.535.47.117.167.175.367.175.6 0 .36-.127.648-.38.865-.253.217-.62.325-1.1.325-.533 0-.952-.118-1.255-.355a1.129 1.129 0 0 1-.455-.935v-.27c0-.067-.033-.1-.1-.1h-.45c-.067 0-.1.033-.1.1v.31c0 .513.17.935.51 1.265.34.33.813.528 1.42.595.027 0 .04.013.04.04l-.01.72c0 .067.033.1.1.1h.44zm7.407-.93c.066 0 .1-.033.1-.1v-.42c0-.067-.034-.1-.1-.1h-3.14c-.034 0-.04-.017-.02-.05l.22-.26c.933-1.127 1.563-1.9 1.89-2.32.626-.8.94-1.483.94-2.05 0-.34-.084-.645-.25-.915a1.71 1.71 0 0 0-.71-.635 2.34 2.34 0 0 0-1.06-.23c-.567 0-1.035.157-1.405.47-.37.313-.562.727-.575 1.24v.4c0 .067.033.1.1.1h.52c.066 0 .1-.033.1-.1v-.31c-.007-.353.106-.638.34-.855.233-.217.54-.325.92-.325.386 0 .7.107.94.32.24.213.36.497.36.85 0 .44-.314 1.057-.94 1.85l-.74.92a120.38 120.38 0 0 1-1.53 1.88.164.164 0 0 0-.05.12v.42c0 .067.033.1.1.1h3.99zm1.926.79c.06 0 .097-.03.11-.09l.56-2.14c.007-.033.002-.06-.015-.08-.016-.02-.041-.03-.075-.03h-.44c-.06 0-.096.03-.11.09l-.44 2.14c-.006.033-.001.06.015.08.017.02.042.03.075.03h.32zm4.197-.69c.647 0 1.163-.183 1.55-.55.387-.367.58-.857.58-1.47v-3.16c0-.607-.193-1.093-.58-1.46-.387-.367-.903-.55-1.55-.55-.64 0-1.15.182-1.53.545-.38.363-.57.852-.57 1.465v3.16c0 .613.19 1.103.57 1.47.38.367.89.55 1.53.55zm0-.62c-.42 0-.757-.123-1.01-.37s-.38-.577-.38-.99v-3.23c0-.407.127-.733.38-.98s.59-.37 1.01-.37c.433 0 .778.123 1.035.37.257.247.385.573.385.98v3.23c0 .413-.13.743-.39.99s-.603.37-1.03.37zm5.817.62c.646 0 1.163-.183 1.55-.55.386-.367.58-.857.58-1.47v-3.16c0-.607-.194-1.093-.58-1.46-.387-.367-.904-.55-1.55-.55-.64 0-1.15.182-1.53.545-.38.363-.57.852-.57 1.465v3.16c0 .613.19 1.103.57 1.47.38.367.89.55 1.53.55zm0-.62c-.42 0-.757-.123-1.01-.37-.254-.247-.38-.577-.38-.99v-3.23c0-.407.126-.733.38-.98.253-.247.59-.37 1.01-.37.433 0 .778.123 1.035.37.256.247.385.573.385.98v3.23c0 .413-.13.743-.39.99s-.604.37-1.03.37zm5.816.62c.647 0 1.164-.183 1.55-.55.387-.367.58-.857.58-1.47v-3.16c0-.607-.193-1.093-.58-1.46-.386-.367-.903-.55-1.55-.55-.64 0-1.15.182-1.53.545-.38.363-.57.852-.57 1.465v3.16c0 .613.19 1.103.57 1.47.38.367.89.55 1.53.55zm0-.62c-.42 0-.756-.123-1.01-.37-.253-.247-.38-.577-.38-.99v-3.23c0-.407.127-.733.38-.98.254-.247.59-.37 1.01-.37.434 0 .779.123 1.035.37.257.247.385.573.385.98v3.23c0 .413-.13.743-.39.99s-.603.37-1.03.37z" fill="#FFF" opacity=".8"/>
            <path d="M108.408 169.531C127.438 157.02 140 135.477 140 111c0-14.261-4.265-27.527-11.589-38.59L70 111l38.408 58.531z" fill="#7F98FE"/>
            <path d="M97.03 121.93c.067 0 .1-.033.1-.1l-.01-.72c0-.027.013-.04.04-.04.593-.06 1.055-.253 1.385-.58.33-.327.495-.743.495-1.25 0-.36-.085-.665-.255-.915a2.187 2.187 0 0 0-.68-.635 9.27 9.27 0 0 0-1.115-.56 11.664 11.664 0 0 1-1.005-.455 1.49 1.49 0 0 1-.5-.41.97.97 0 0 1-.175-.595c0-.367.12-.647.36-.84.24-.193.583-.29 1.03-.29.507 0 .903.123 1.19.37.287.247.43.563.43.95v.18c0 .067.033.1.1.1h.47c.067 0 .1-.033.1-.1v-.22c0-.52-.167-.947-.5-1.28-.333-.333-.793-.533-1.38-.6-.027 0-.04-.013-.04-.04l.01-.79c0-.067-.033-.1-.1-.1h-.43c-.067 0-.1.033-.1.1l.01.78c0 .027-.013.04-.04.04-.553.053-.987.232-1.3.535-.313.303-.47.712-.47 1.225 0 .36.082.658.245.895.163.237.373.43.63.58.257.15.625.325 1.105.525.447.193.79.363 1.03.51.24.147.418.303.535.47.117.167.175.367.175.6 0 .36-.127.648-.38.865-.253.217-.62.325-1.1.325-.533 0-.952-.118-1.255-.355a1.129 1.129 0 0 1-.455-.935v-.27c0-.067-.033-.1-.1-.1h-.45c-.067 0-.1.033-.1.1v.31c0 .513.17.935.51 1.265.34.33.813.528 1.42.595.027 0 .04.013.04.04l-.01.72c0 .067.033.1.1.1h.44zm7.407-.93c.066 0 .1-.033.1-.1v-.42c0-.067-.034-.1-.1-.1h-3.14c-.034 0-.04-.017-.02-.05l.22-.26c.933-1.127 1.563-1.9 1.89-2.32.626-.8.94-1.483.94-2.05 0-.34-.084-.645-.25-.915a1.71 1.71 0 0 0-.71-.635 2.34 2.34 0 0 0-1.06-.23c-.567 0-1.035.157-1.405.47-.37.313-.562.727-.575 1.24v.4c0 .067.033.1.1.1h.52c.066 0 .1-.033.1-.1v-.31c-.007-.353.106-.638.34-.855.233-.217.54-.325.92-.325.386 0 .7.107.94.32.24.213.36.497.36.85 0 .44-.314 1.057-.94 1.85l-.74.92c-.794.987-1.304 1.613-1.53 1.88a.164.164 0 0 0-.05.12v.42c0 .067.033.1.1.1h3.99zm1.926.79c.06 0 .097-.03.11-.09l.56-2.14c.007-.033.002-.06-.015-.08-.016-.02-.041-.03-.075-.03h-.44c-.06 0-.096.03-.11.09l-.44 2.14c-.006.033-.001.06.015.08.017.02.042.03.075.03h.32zm4.367-.72c.48 0 .89-.125 1.23-.375.34-.25.567-.588.68-1.015.06-.233.09-.513.09-.84 0-.307-.03-.607-.09-.9a1.557 1.557 0 0 0-.63-.975c-.327-.23-.727-.345-1.2-.345a2.07 2.07 0 0 0-.72.125 1.755 1.755 0 0 0-.59.355c-.013.013-.025.017-.035.01a.034.034 0 0 1-.015-.03l.01-2.42c0-.027.013-.04.04-.04h2.85c.067 0 .1-.033.1-.1v-.42c0-.067-.033-.1-.1-.1h-3.5c-.067 0-.1.033-.1.1v3.87c0 .067.033.1.1.1h.54c.053 0 .09-.03.11-.09.067-.22.217-.397.45-.53s.497-.2.79-.2c.327 0 .6.08.82.24.22.16.353.393.4.7.033.207.05.423.05.65 0 .247-.02.447-.06.6a1.27 1.27 0 0 1-.425.74c-.217.18-.485.27-.805.27-.313 0-.575-.085-.785-.255a1.202 1.202 0 0 1-.415-.685.847.847 0 0 1-.04-.2c-.007-.067-.043-.1-.11-.1h-.53c-.06 0-.09.027-.09.08v.02c.013.147.043.293.09.44.12.4.347.72.68.96.333.24.737.36 1.21.36zm5.477.03c.646 0 1.163-.183 1.55-.55.386-.367.58-.857.58-1.47v-3.16c0-.607-.194-1.093-.58-1.46-.387-.367-.904-.55-1.55-.55-.64 0-1.15.182-1.53.545-.38.363-.57.852-.57 1.465v3.16c0 .613.19 1.103.57 1.47.38.367.89.55 1.53.55zm0-.62c-.42 0-.757-.123-1.01-.37-.254-.247-.38-.577-.38-.99v-3.23c0-.407.126-.733.38-.98.253-.247.59-.37 1.01-.37.433 0 .778.123 1.035.37.256.247.385.573.385.98v3.23c0 .413-.13.743-.39.99s-.604.37-1.03.37zm5.816.62c.647 0 1.164-.183 1.55-.55.387-.367.58-.857.58-1.47v-3.16c0-.607-.193-1.093-.58-1.46-.386-.367-.903-.55-1.55-.55-.64 0-1.15.182-1.53.545-.38.363-.57.852-.57 1.465v3.16c0 .613.19 1.103.57 1.47.38.367.89.55 1.53.55zm0-.62c-.42 0-.756-.123-1.01-.37-.253-.247-.38-.577-.38-.99v-3.23c0-.407.127-.733.38-.98.254-.247.59-.37 1.01-.37.434 0 .779.123 1.035.37.257.247.385.573.385.98v3.23c0 .413-.13.743-.39.99s-.603.37-1.03.37zM26.363 126.43c.067 0 .1-.033.1-.1l-.01-.72c0-.027.014-.04.04-.04.594-.06 1.055-.253 1.385-.58.33-.327.495-.743.495-1.25 0-.36-.085-.665-.255-.915a2.187 2.187 0 0 0-.68-.635 9.27 9.27 0 0 0-1.115-.56 11.664 11.664 0 0 1-1.005-.455 1.49 1.49 0 0 1-.5-.41.97.97 0 0 1-.175-.595c0-.367.12-.647.36-.84.24-.193.584-.29 1.03-.29.507 0 .904.123 1.19.37.287.247.43.563.43.95v.18c0 .067.034.1.1.1h.47c.067 0 .1-.033.1-.1v-.22c0-.52-.166-.947-.5-1.28-.333-.333-.793-.533-1.38-.6-.026 0-.04-.013-.04-.04l.01-.79c0-.067-.033-.1-.1-.1h-.43c-.066 0-.1.033-.1.1l.01.78c0 .027-.013.04-.04.04-.553.053-.986.232-1.3.535-.313.303-.47.712-.47 1.225 0 .36.082.658.245.895.164.237.374.43.63.58.257.15.625.325 1.105.525.447.193.79.363 1.03.51.24.147.419.303.535.47.117.167.175.367.175.6 0 .36-.126.648-.38.865-.253.217-.62.325-1.1.325-.533 0-.951-.118-1.255-.355a1.129 1.129 0 0 1-.455-.935v-.27c0-.067-.033-.1-.1-.1h-.45c-.066 0-.1.033-.1.1v.31c0 .513.17.935.51 1.265.34.33.814.528 1.42.595.027 0 .04.013.04.04l-.01.72c0 .067.034.1.1.1h.44zm5.367-.86c.48 0 .89-.125 1.23-.375.34-.25.567-.588.68-1.015.06-.233.09-.513.09-.84 0-.307-.03-.607-.09-.9a1.557 1.557 0 0 0-.63-.975c-.327-.23-.727-.345-1.2-.345a2.07 2.07 0 0 0-.72.125 1.755 1.755 0 0 0-.59.355c-.013.013-.025.017-.035.01a.034.034 0 0 1-.015-.03l.01-2.42c0-.027.013-.04.04-.04h2.85c.067 0 .1-.033.1-.1v-.42c0-.067-.033-.1-.1-.1h-3.5c-.067 0-.1.033-.1.1v3.87c0 .067.033.1.1.1h.54c.053 0 .09-.03.11-.09.067-.22.217-.397.45-.53s.497-.2.79-.2c.327 0 .6.08.82.24.22.16.353.393.4.7.033.207.05.423.05.65 0 .247-.02.447-.06.6a1.27 1.27 0 0 1-.425.74c-.217.18-.485.27-.805.27-.313 0-.575-.085-.785-.255a1.202 1.202 0 0 1-.415-.685.847.847 0 0 1-.04-.2c-.007-.067-.043-.1-.11-.1h-.53c-.06 0-.09.027-.09.08v.02c.013.147.043.293.09.44.12.4.347.72.68.96.333.24.737.36 1.21.36zm3.747.72c.06 0 .096-.03.11-.09l.56-2.14c.006-.033.001-.06-.015-.08-.017-.02-.042-.03-.075-.03h-.44c-.06 0-.097.03-.11.09l-.44 2.14c-.007.033-.002.06.015.08.016.02.041.03.075.03h.32zm4.196-.69c.647 0 1.164-.183 1.55-.55.387-.367.58-.857.58-1.47v-3.16c0-.607-.193-1.093-.58-1.46-.386-.367-.903-.55-1.55-.55-.64 0-1.15.182-1.53.545-.38.363-.57.852-.57 1.465v3.16c0 .613.19 1.103.57 1.47.38.367.89.55 1.53.55zm0-.62c-.42 0-.756-.123-1.01-.37-.253-.247-.38-.577-.38-.99v-3.23c0-.407.127-.733.38-.98.254-.247.59-.37 1.01-.37.434 0 .779.123 1.035.37.257.247.385.573.385.98v3.23c0 .413-.13.743-.39.99s-.603.37-1.03.37zm5.817.62c.647 0 1.163-.183 1.55-.55.387-.367.58-.857.58-1.47v-3.16c0-.607-.193-1.093-.58-1.46-.387-.367-.903-.55-1.55-.55-.64 0-1.15.182-1.53.545-.38.363-.57.852-.57 1.465v3.16c0 .613.19 1.103.57 1.47.38.367.89.55 1.53.55zm0-.62c-.42 0-.757-.123-1.01-.37s-.38-.577-.38-.99v-3.23c0-.407.127-.733.38-.98s.59-.37 1.01-.37c.433 0 .778.123 1.035.37.257.247.385.573.385.98v3.23c0 .413-.13.743-.39.99s-.603.37-1.03.37zm5.817.62c.646 0 1.163-.183 1.55-.55.386-.367.58-.857.58-1.47v-3.16c0-.607-.194-1.093-.58-1.46-.387-.367-.904-.55-1.55-.55-.64 0-1.15.182-1.53.545-.38.363-.57.852-.57 1.465v3.16c0 .613.19 1.103.57 1.47.38.367.89.55 1.53.55zm0-.62c-.42 0-.757-.123-1.01-.37-.254-.247-.38-.577-.38-.99v-3.23c0-.407.126-.733.38-.98.253-.247.59-.37 1.01-.37.433 0 .778.123 1.035.37.256.247.385.573.385.98v3.23c0 .413-.13.743-.39.99s-.604.37-1.03.37z" fill="#FFF" opacity=".8"/>
            <path fill="#FFF" opacity=".5" d="m314.694 113.407 6 3.375.388.218-.388.218-6 3.375-.245-.436 5.169-2.907H130.396v-.5h189.222l-5.169-2.907z"/>
        </g>
        <text opacity=".6" font-family="Barlow-Light, Barlow" font-size="14" font-weight="300" letter-spacing=".6" fill="#FFF">
                            <tspan x="1.328" y="14">Revenue Per Country</tspan>
                        </text>
        <g transform="translate(182 36)">
            <rect fill-opacity=".1" fill="#FFF" width="50" height="18" rx="4"/>
            <g fill-rule="nonzero">
                <path fill="#57F" d="M4 4h10v10H4z"/>
                <path d="M25.888 14.096c.568 0 1.068-.112 1.5-.336a2.425 2.425 0 0 0 1.002-.942c.236-.404.354-.874.354-1.41V5.72c0-.08-.04-.12-.12-.12h-.612c-.08 0-.12.04-.12.12v5.712c0 .568-.184 1.03-.552 1.386-.368.356-.852.534-1.452.534s-1.084-.178-1.452-.534c-.368-.356-.552-.818-.552-1.386V5.72c0-.08-.04-.12-.12-.12h-.612c-.08 0-.12.04-.12.12v5.688c0 .536.12 1.006.36 1.41.24.404.576.718 1.008.942.432.224.928.336 1.488.336zm7.954 0c.88 0 1.568-.2 2.064-.6.496-.4.744-.936.744-1.608 0-.432-.11-.798-.33-1.098a2.81 2.81 0 0 0-.864-.762 11.633 11.633 0 0 0-1.41-.672 15.418 15.418 0 0 1-1.278-.546 1.867 1.867 0 0 1-.636-.492c-.148-.188-.222-.426-.222-.714 0-.44.152-.776.456-1.008.304-.232.74-.348 1.308-.348.648 0 1.154.148 1.518.444.364.296.546.676.546 1.14v.216c0 .08.04.12.12.12h.6c.08 0 .12-.04.12-.12v-.264c0-.688-.256-1.24-.768-1.656-.512-.416-1.212-.624-2.1-.624-.816 0-1.458.186-1.926.558-.468.372-.702.894-.702 1.566 0 .432.102.79.306 1.074.204.284.472.516.804.696.332.18.798.39 1.398.63.56.232.994.436 1.302.612.308.176.536.364.684.564.148.2.222.44.222.72 0 .432-.16.778-.48 1.038-.32.26-.788.39-1.404.39-.68 0-1.212-.142-1.596-.426-.384-.284-.576-.658-.576-1.122v-.324c0-.08-.04-.12-.12-.12h-.588c-.08 0-.12.04-.12.12v.372c0 .68.262 1.224.786 1.632.524.408 1.238.612 2.142.612zM38.99 14c.072 0 .12-.032.144-.096l.48-1.512c.008-.024.024-.036.048-.036h3.588c.024 0 .04.012.048.036l.48 1.512c.024.064.072.096.144.096h.648c.072 0 .108-.028.108-.084l-.012-.048L42 5.696c-.024-.064-.072-.096-.144-.096h-.816c-.072 0-.12.032-.144.096l-2.652 8.172c-.024.088.008.132.096.132h.648zm4.008-2.34H39.9a.058.058 0 0 1-.042-.018c-.012-.012-.014-.026-.006-.042l1.56-4.896c.008-.016.02-.024.036-.024.016 0 .028.008.036.024l1.56 4.896c.008.016.006.03-.006.042a.058.058 0 0 1-.042.018z" fill="#FFF" opacity=".8"/>
            </g>
            <g fill-rule="nonzero">
                <path fill="#7F98FE" d="M4 30h10v10H4z"/>
                <path d="M25.672 40c.08 0 .12-.04.12-.12v-7.476c0-.032.016-.048.048-.048h2.352c.08 0 .12-.04.12-.12v-.516c0-.08-.04-.12-.12-.12h-5.556c-.08 0-.12.04-.12.12v.516c0 .08.04.12.12.12h2.256c.032 0 .048.016.048.048v7.476c0 .08.04.12.12.12h.612zm6.046.096c.392 0 .748-.062 1.068-.186.32-.124.58-.306.78-.546.016-.016.03-.02.042-.012a.04.04 0 0 1 .018.036v.492c0 .08.04.12.12.12h.612c.08 0 .12-.04.12-.12v-4.032c0-.608-.196-1.096-.588-1.464-.392-.368-.948-.552-1.668-.552-.624 0-1.144.14-1.56.42-.416.28-.656.644-.72 1.092-.016.048.02.08.108.096l.648.084c.072.008.12-.028.144-.108a.93.93 0 0 1 .444-.618c.24-.148.552-.222.936-.222.48 0 .834.118 1.062.354.228.236.342.558.342.966v.456c0 .032-.016.048-.048.048h-1.392c-.776 0-1.382.174-1.818.522-.436.348-.654.822-.654 1.422 0 .592.192 1.032.576 1.32.384.288.86.432 1.428.432zm.168-.732c-.392 0-.71-.09-.954-.27-.244-.18-.366-.446-.366-.798 0-.384.16-.684.48-.9.32-.216.744-.324 1.272-.324h1.26c.032 0 .048.016.048.048v.936c0 .4-.172.718-.516.954-.344.236-.752.354-1.224.354zm5.459-6.54a.651.651 0 0 0 .48-.192.651.651 0 0 0 .192-.48.646.646 0 0 0-.672-.672.646.646 0 0 0-.672.672c0 .192.064.352.192.48a.651.651 0 0 0 .48.192zm.276 7.164c.08 0 .12-.04.12-.12v-5.832c0-.08-.04-.12-.12-.12h-.612c-.08 0-.12.04-.12.12v5.832c0 .08.04.12.12.12h.612zm4.63.012c.064 0 .108-.032.132-.096l1.272-4.488c.008-.016.018-.024.03-.024s.022.008.03.024l1.308 4.488c.024.064.068.096.132.096h.636c.064 0 .108-.032.132-.096l1.728-5.832c.008-.04.002-.072-.018-.096-.02-.024-.05-.036-.09-.036l-.624-.012c-.072 0-.116.036-.132.108l-1.308 4.716c-.008.016-.02.024-.036.024-.016 0-.028-.008-.036-.024l-1.308-4.728c-.016-.064-.06-.096-.132-.096h-.576c-.072 0-.116.036-.132.108l-1.296 4.728c-.008.016-.018.024-.03.024s-.022-.008-.03-.024l-1.272-4.728c-.016-.072-.06-.108-.132-.108h-.624c-.08 0-.12.032-.12.096l.012.036 1.704 5.844c.024.064.068.096.132.096h.648zm8.722.096c.392 0 .748-.062 1.068-.186.32-.124.58-.306.78-.546.016-.016.03-.02.042-.012a.04.04 0 0 1 .018.036v.492c0 .08.04.12.12.12h.612c.08 0 .12-.04.12-.12v-4.032c0-.608-.196-1.096-.588-1.464-.392-.368-.948-.552-1.668-.552-.624 0-1.144.14-1.56.42-.416.28-.656.644-.72 1.092-.016.048.02.08.108.096l.648.084c.072.008.12-.028.144-.108a.93.93 0 0 1 .444-.618c.24-.148.552-.222.936-.222.48 0 .834.118 1.062.354.228.236.342.558.342.966v.456c0 .032-.016.048-.048.048h-1.392c-.776 0-1.382.174-1.818.522-.436.348-.654.822-.654 1.422 0 .592.192 1.032.576 1.32.384.288.86.432 1.428.432zm.168-.732c-.392 0-.71-.09-.954-.27-.244-.18-.366-.446-.366-.798 0-.384.16-.684.48-.9.32-.216.744-.324 1.272-.324h1.26c.032 0 .048.016.048.048v.936c0 .4-.172.718-.516.954-.344.236-.752.354-1.224.354zm5.614.636c.08 0 .12-.04.12-.12v-3.816c0-.44.136-.796.408-1.068.272-.272.628-.408 1.068-.408.424 0 .77.14 1.038.42.268.28.402.64.402 1.08v3.792c0 .08.04.12.12.12h.612c.08 0 .12-.04.12-.12v-3.96c0-.632-.19-1.136-.57-1.512-.38-.376-.89-.564-1.53-.564-.728 0-1.268.248-1.62.744-.008.016-.018.02-.03.012a.04.04 0 0 1-.018-.036v-.516c0-.08-.04-.12-.12-.12h-.612c-.08 0-.12.04-.12.12v5.832c0 .08.04.12.12.12h.612z" fill="#FFF" opacity=".8"/>
            </g>
            <g fill-rule="nonzero">
                <path fill="#9CAFFF" d="M4 56h10v10H4z"/>
                <path d="M25.852 66c.072 0 .12-.032.144-.096l2.64-8.172c.024-.088-.008-.132-.096-.132h-.636c-.072 0-.12.032-.144.096l-2.184 7.032c-.008.016-.02.024-.036.024-.016 0-.028-.008-.036-.024l-2.184-7.032c-.024-.064-.072-.096-.144-.096h-.648c-.072 0-.108.028-.108.084l.012.048 2.616 8.172c.024.064.072.096.144.096h.66zm5.266-7.176a.651.651 0 0 0 .48-.192.651.651 0 0 0 .192-.48.646.646 0 0 0-.672-.672.646.646 0 0 0-.672.672c0 .192.064.352.192.48a.651.651 0 0 0 .48.192zm.276 7.164c.08 0 .12-.04.12-.12v-5.832c0-.08-.04-.12-.12-.12h-.612c-.08 0-.12.04-.12.12v5.832c0 .08.04.12.12.12h.612zm5.015.12c.52 0 .98-.11 1.38-.33.4-.22.7-.522.9-.906.032-.072.016-.128-.048-.168l-.468-.276c-.064-.04-.12-.024-.168.048-.144.28-.344.496-.6.648a1.706 1.706 0 0 1-.888.228c-.448 0-.816-.104-1.104-.312a1.435 1.435 0 0 1-.564-.852c-.032-.128-.056-.412-.072-.852 0-.032.016-.048.048-.048H38.7c.08 0 .12-.04.12-.12v-.384c0-.336-.016-.616-.048-.84-.096-.672-.34-1.192-.732-1.56-.392-.368-.952-.552-1.68-.552-.584 0-1.082.156-1.494.468a2.223 2.223 0 0 0-.822 1.248 2.618 2.618 0 0 0-.09.57c-.012.212-.018.486-.018.822 0 .72.072 1.272.216 1.656.168.472.444.84.828 1.104.384.264.86.4 1.428.408zm1.524-3.54h-3.108c-.032 0-.048-.016-.048-.048.016-.376.048-.648.096-.816.08-.344.25-.618.51-.822.26-.204.586-.306.978-.306.408 0 .746.106 1.014.318.268.212.446.498.534.858.032.152.056.408.072.768 0 .032-.016.048-.048.048zm5.134 3.444c.2 0 .348-.004.444-.012.08 0 .12-.04.12-.12v-.492c0-.08-.04-.12-.12-.12h-.3c-.368 0-.638-.078-.81-.234-.172-.156-.258-.426-.258-.81v-3.54c0-.032.016-.048.048-.048h1.356c.08 0 .12-.04.12-.12v-.468c0-.08-.04-.12-.12-.12H42.19c-.032 0-.048-.016-.048-.048v-1.392c0-.08-.04-.12-.12-.12h-.588c-.08 0-.12.04-.12.12v1.392c0 .032-.016.048-.048.048h-.732c-.08 0-.12.04-.12.12v.468c0 .08.04.12.12.12h.732c.032 0 .048.016.048.048v3.804c0 .584.148.984.444 1.2.296.216.732.324 1.308.324zM46.725 66c.08 0 .12-.04.12-.12l-.012-6.612c0-.024.008-.038.024-.042.016-.004.028.006.036.03l4.092 6.66c.04.056.088.084.144.084h.6c.08 0 .12-.04.12-.12v-8.16c0-.08-.04-.12-.12-.12h-.612c-.08 0-.12.04-.12.12l.012 6.612c0 .024-.008.038-.024.042-.016.004-.028-.006-.036-.03l-4.092-6.66c-.04-.056-.088-.084-.144-.084h-.6c-.08 0-.12.04-.12.12v8.16c0 .08.04.12.12.12h.612zm9.322.096c.392 0 .748-.062 1.068-.186.32-.124.58-.306.78-.546.016-.016.03-.02.042-.012a.04.04 0 0 1 .018.036v.492c0 .08.04.12.12.12h.612c.08 0 .12-.04.12-.12v-4.032c0-.608-.196-1.096-.588-1.464-.392-.368-.948-.552-1.668-.552-.624 0-1.144.14-1.56.42-.416.28-.656.644-.72 1.092-.016.048.02.08.108.096l.648.084c.072.008.12-.028.144-.108a.93.93 0 0 1 .444-.618c.24-.148.552-.222.936-.222.48 0 .834.118 1.062.354.228.236.342.558.342.966v.456c0 .032-.016.048-.048.048h-1.392c-.776 0-1.382.174-1.818.522-.436.348-.654.822-.654 1.422 0 .592.192 1.032.576 1.32.384.288.86.432 1.428.432zm.168-.732c-.392 0-.71-.09-.954-.27-.244-.18-.366-.446-.366-.798 0-.384.16-.684.48-.9.32-.216.744-.324 1.272-.324h1.26c.032 0 .048.016.048.048v.936c0 .4-.172.718-.516.954-.344.236-.752.354-1.224.354zM61.83 66c.08 0 .12-.04.12-.12v-3.876c0-.432.126-.776.378-1.032s.59-.384 1.014-.384c.416 0 .748.13.996.39s.372.61.372 1.05v3.852c0 .08.04.12.12.12h.612c.08 0 .12-.04.12-.12v-3.876c0-.432.13-.776.39-1.032s.602-.384 1.026-.384c.408 0 .738.13.99.39s.378.61.378 1.05v3.852c0 .08.04.12.12.12h.6c.08 0 .12-.04.12-.12v-4.02c0-.624-.174-1.116-.522-1.476-.348-.36-.822-.54-1.422-.54a2.36 2.36 0 0 0-1.092.246c-.32.164-.568.41-.744.738-.024.04-.044.04-.06 0a1.615 1.615 0 0 0-.672-.732c-.296-.168-.652-.252-1.068-.252-.336 0-.642.058-.918.174-.276.116-.502.29-.678.522-.016.016-.03.022-.042.018-.012-.004-.018-.014-.018-.03v-.48c0-.08-.04-.12-.12-.12h-.612c-.08 0-.12.04-.12.12v5.832c0 .08.04.12.12.12h.612z" fill="#FFF" opacity=".8"/>
            </g>
        </g>
        <path d="M336.408 49c.04 0 .074-.014.102-.042a.139.139 0 0 0 .042-.102v-1.164a.139.139 0 0 0-.042-.102.139.139 0 0 0-.102-.042h-3.924c-.04 0-.06-.02-.06-.06v-6.744a.139.139 0 0 0-.042-.102.139.139 0 0 0-.102-.042h-1.404a.139.139 0 0 0-.102.042.139.139 0 0 0-.042.102v8.112c0 .04.014.074.042.102a.139.139 0 0 0 .102.042h5.532zm4.486.096c.496 0 .952-.09 1.368-.27.416-.18.756-.434 1.02-.762.032-.048.048-.08.048-.096 0-.032-.02-.068-.06-.108l-.864-.852c-.032-.032-.06-.048-.084-.048-.04 0-.076.024-.108.072-.296.408-.7.616-1.212.624-.64 0-1.064-.224-1.272-.672a2.149 2.149 0 0 1-.132-.48c-.016-.04 0-.06.048-.06h3.708c.096 0 .148-.048.156-.144.016-.376 0-.716-.048-1.02-.104-.776-.398-1.396-.882-1.86-.484-.464-1.126-.696-1.926-.696-.632 0-1.178.168-1.638.504-.46.336-.782.788-.966 1.356-.12.336-.18.724-.18 1.164 0 .648.084 1.172.252 1.572.208.56.55.996 1.026 1.308.476.312 1.058.468 1.746.468zm.828-3.756h-2.076c-.04 0-.06-.02-.06-.06.024-.152.052-.28.084-.384.16-.472.492-.708.996-.708.264 0 .486.066.666.198.18.132.306.318.378.558 0-.008.02.104.06.336.016.04 0 .06-.048.06zm5.567 6.024c.952 0 1.73-.224 2.334-.672.604-.448.906-1.196.906-2.244v-5.472a.139.139 0 0 0-.042-.102.139.139 0 0 0-.102-.042h-1.404a.139.139 0 0 0-.102.042.139.139 0 0 0-.042.102v.288c0 .024-.008.038-.024.042-.016.004-.032-.002-.048-.018-.328-.368-.8-.552-1.416-.552-.528 0-.992.148-1.392.444-.4.296-.684.688-.852 1.176-.144.392-.216.9-.216 1.524 0 .584.06 1.06.18 1.428.184.56.494.966.93 1.218.436.252.914.378 1.434.378.584 0 1.028-.164 1.332-.492.016-.016.032-.022.048-.018s.024.018.024.042c0 .496-.138.856-.414 1.08-.276.224-.67.336-1.182.336-.24 0-.504-.024-.792-.072-.112-.016-.168.028-.168.132l-.048 1.236c0 .096.04.148.12.156.344.04.656.06.936.06zm.468-3.804a1.038 1.038 0 0 1-1.02-.72c-.096-.192-.144-.512-.144-.96 0-.408.056-.732.168-.972.08-.216.204-.39.372-.522a.96.96 0 0 1 .612-.198c.248 0 .456.066.624.198.168.132.288.306.36.522.04.12.068.248.084.384s.024.328.024.576c0 .416-.032.744-.096.984-.064.208-.18.378-.348.51a.998.998 0 0 1-.636.198zm7.39 1.536c.496 0 .952-.09 1.368-.27.416-.18.756-.434 1.02-.762.032-.048.048-.08.048-.096 0-.032-.02-.068-.06-.108l-.864-.852c-.032-.032-.06-.048-.084-.048-.04 0-.076.024-.108.072-.296.408-.7.616-1.212.624-.64 0-1.064-.224-1.272-.672a2.149 2.149 0 0 1-.132-.48c-.016-.04 0-.06.048-.06h3.708c.096 0 .148-.048.156-.144.016-.376 0-.716-.048-1.02-.104-.776-.398-1.396-.882-1.86-.484-.464-1.126-.696-1.926-.696-.632 0-1.178.168-1.638.504-.46.336-.782.788-.966 1.356-.12.336-.18.724-.18 1.164 0 .648.084 1.172.252 1.572.208.56.55.996 1.026 1.308.476.312 1.058.468 1.746.468zm.828-3.756h-2.076c-.04 0-.06-.02-.06-.06.024-.152.052-.28.084-.384.16-.472.492-.708.996-.708.264 0 .486.066.666.198.18.132.306.318.378.558 0-.008.02.104.06.336.016.04 0 .06-.048.06zm4.894 3.66c.04 0 .074-.014.102-.042a.139.139 0 0 0 .042-.102v-3.588c0-.32.09-.58.27-.78.18-.2.418-.3.714-.3s.534.1.714.3c.18.2.27.46.27.78v3.588c0 .04.014.074.042.102a.139.139 0 0 0 .102.042h1.404c.04 0 .074-.014.102-.042a.139.139 0 0 0 .042-.102V44.92c0-.672-.196-1.204-.588-1.596-.392-.392-.908-.588-1.548-.588-.648 0-1.136.232-1.464.696-.008.016-.02.02-.036.012-.016-.008-.024-.024-.024-.048v-.42a.139.139 0 0 0-.042-.102.139.139 0 0 0-.102-.042h-1.404a.139.139 0 0 0-.102.042.139.139 0 0 0-.042.102v5.88c0 .04.014.074.042.102a.139.139 0 0 0 .102.042h1.404zm7.87.096c.584 0 1.044-.22 1.38-.66.016-.016.032-.022.048-.018s.024.018.024.042v.396c0 .04.014.074.042.102a.139.139 0 0 0 .102.042h1.404c.04 0 .074-.014.102-.042a.139.139 0 0 0 .042-.102v-8.112a.139.139 0 0 0-.042-.102.139.139 0 0 0-.102-.042h-1.404a.139.139 0 0 0-.102.042.139.139 0 0 0-.042.102v2.568c0 .024-.008.04-.024.048s-.032 0-.048-.024c-.32-.4-.768-.6-1.344-.6-.584 0-1.074.15-1.47.45a2.58 2.58 0 0 0-.87 1.218c-.144.424-.216.92-.216 1.488 0 .552.068 1.036.204 1.452.176.544.466.972.87 1.284.404.312.886.468 1.446.468zm.36-1.452c-.392 0-.688-.172-.888-.516-.168-.32-.252-.72-.252-1.2 0-.536.1-.96.3-1.272.192-.312.476-.468.852-.468.352 0 .62.156.804.468.176.304.264.724.264 1.26 0 .512-.08.916-.24 1.212-.2.344-.48.516-.84.516z" fill="#FFF" fill-rule="nonzero"/>
        <path d="M332.4 59h109.2a2.4 2.4 0 0 1 2.4 2.4v24a2.4 2.4 0 0 1-2.4 2.4H332.4a2.4 2.4 0 0 1-2.4-2.4v-24a2.4 2.4 0 0 1 2.4-2.4z" stroke-opacity=".4" stroke="#FFF" stroke-width=".6" stroke-dasharray="1.2,2.4"/>
        <g fill="#FFF" fill-rule="nonzero">
            <path d="M343.684 78.096c.856 0 1.538-.24 2.046-.72.508-.48.762-1.148.762-2.004v-1.548c0-.08-.04-.12-.12-.12h-2.544c-.08 0-.12.04-.12.12v.504c0 .08.04.12.12.12h1.764c.032 0 .048.016.048.048v1.092c0 .536-.174.964-.522 1.284-.348.32-.814.48-1.398.48-.6 0-1.084-.172-1.452-.516-.368-.344-.552-.796-.552-1.356v-3.36c0-.56.18-1.012.54-1.356.36-.344.836-.516 1.428-.516s1.066.168 1.422.504c.356.336.534.772.534 1.308v.144c0 .08.04.12.12.12h.612c.08 0 .12-.04.12-.12v-.156a2.51 2.51 0 0 0-.348-1.314 2.364 2.364 0 0 0-.99-.906c-.428-.216-.918-.324-1.47-.324-.56 0-1.052.11-1.476.33-.424.22-.754.53-.99.93s-.354.86-.354 1.38v3.312c0 .52.118.98.354 1.38.236.4.566.71.99.93.424.22.916.33 1.476.33zm5.564-.096c.08 0 .12-.04.12-.12v-3.54c0-.448.136-.818.408-1.11a1.43 1.43 0 0 1 1.032-.462l.156-.012c.176 0 .332.028.468.084.08.032.132.008.156-.072l.132-.588c.016-.072-.008-.124-.072-.156a1.416 1.416 0 0 0-.684-.156c-.344 0-.646.082-.906.246a1.91 1.91 0 0 0-.642.69c-.008.016-.018.022-.03.018s-.018-.018-.018-.042v-.732c0-.08-.04-.12-.12-.12h-.612c-.08 0-.12.04-.12.12v5.832c0 .08.04.12.12.12h.612zm6.092.096c.576 0 1.07-.148 1.482-.444.412-.296.694-.704.846-1.224.112-.336.168-.828.168-1.476 0-.64-.056-1.132-.168-1.476a2.224 2.224 0 0 0-.846-1.2c-.412-.296-.902-.444-1.47-.444-.592 0-1.096.148-1.512.444-.416.296-.7.7-.852 1.212-.112.36-.168.848-.168 1.464s.056 1.108.168 1.476c.16.52.448.928.864 1.224.416.296.912.444 1.488.444zm0-.744c-.4 0-.738-.106-1.014-.318a1.492 1.492 0 0 1-.546-.858c-.064-.28-.096-.684-.096-1.212 0-.528.032-.932.096-1.212.096-.36.28-.646.552-.858.272-.212.604-.318.996-.318s.726.106 1.002.318c.276.212.462.498.558.858.064.28.096.684.096 1.212 0 .52-.036.924-.108 1.212-.096.36-.28.646-.552.858-.272.212-.6.318-.984.318zm6.44.732c.728 0 1.26-.248 1.596-.744.008-.016.02-.02.036-.012.016.008.024.02.024.036v.516c0 .08.04.12.12.12h.612c.08 0 .12-.04.12-.12v-5.832c0-.08-.04-.12-.12-.12h-.612c-.08 0-.12.04-.12.12v3.804c0 .448-.134.808-.402 1.08s-.63.408-1.086.408c-.44 0-.788-.134-1.044-.402s-.384-.63-.384-1.086v-3.804c0-.08-.04-.12-.12-.12h-.612c-.08 0-.12.04-.12.12v4.056c0 .416.094.772.282 1.068.188.296.444.522.768.678.324.156.678.234 1.062.234zm5.432 2.244c.08 0 .12-.04.12-.12v-2.82c0-.016.006-.026.018-.03.012-.004.026.002.042.018.176.232.396.41.66.534.264.124.552.186.864.186.576 0 1.054-.146 1.434-.438.38-.292.642-.694.786-1.206.104-.352.156-.848.156-1.488 0-.632-.06-1.14-.18-1.524a2.196 2.196 0 0 0-.786-1.176c-.38-.288-.85-.432-1.41-.432-.32 0-.61.064-.87.192s-.478.308-.654.54c-.016.016-.03.022-.042.018-.012-.004-.018-.014-.018-.03v-.504c0-.08-.04-.12-.12-.12h-.612c-.08 0-.12.04-.12.12v8.16c0 .08.04.12.12.12h.612zm1.608-2.976c-.304 0-.566-.082-.786-.246a1.358 1.358 0 0 1-.474-.654 2.028 2.028 0 0 1-.168-.582 6.64 6.64 0 0 1-.048-.906c0-.384.016-.684.048-.9.032-.216.084-.404.156-.564.104-.28.264-.504.48-.672.216-.168.484-.252.804-.252.336 0 .626.084.87.252.244.168.414.396.51.684.08.168.136.358.168.57.032.212.048.506.048.882 0 .392-.022.698-.066.918-.044.22-.11.418-.198.594a1.35 1.35 0 0 1-.51.636 1.45 1.45 0 0 1-.834.24zm10.192.648c.752 0 1.358-.2 1.818-.6.46-.4.69-.96.69-1.68 0-.488-.112-.904-.336-1.248-.224-.344-.552-.604-.984-.78-.04-.024-.04-.048 0-.072.392-.16.694-.394.906-.702.212-.308.318-.682.318-1.122 0-.696-.222-1.236-.666-1.62-.444-.384-1.054-.576-1.83-.576h-2.82c-.08 0-.12.04-.12.12v8.16c0 .08.04.12.12.12h2.904zm-.084-4.68h-2.04c-.032 0-.048-.016-.048-.048v-2.88c0-.032.016-.048.048-.048h2.04c.504 0 .906.138 1.206.414.3.276.45.646.45 1.11 0 .44-.15.792-.45 1.056-.3.264-.702.396-1.206.396zm.084 3.924h-2.124c-.032 0-.048-.016-.048-.048v-3.108c0-.032.016-.048.048-.048h2.076c.52 0 .934.146 1.242.438.308.292.462.682.462 1.17 0 .488-.15.876-.45 1.164-.3.288-.702.432-1.206.432zm4.256 3.156c.456 0 .81-.05 1.062-.15.252-.1.462-.278.63-.534.168-.256.348-.652.54-1.188l2.22-6.468c.024-.088-.008-.132-.096-.132H387c-.072 0-.12.032-.144.096l-1.536 4.848c-.008.016-.02.024-.036.024-.016 0-.028-.008-.036-.024l-1.56-4.848c-.024-.064-.072-.096-.144-.096h-.636c-.072 0-.108.028-.108.084l.012.048 2.028 5.904c.016.016.016.04 0 .072-.144.464-.278.81-.402 1.038-.124.228-.272.384-.444.468-.172.084-.414.13-.726.138h-.048c-.08 0-.12.04-.12.12v.48c0 .08.028.12.084.12h.084zm11.248-2.304c.616 0 1.158-.116 1.626-.348.468-.232.832-.56 1.092-.984.26-.424.39-.912.39-1.464a.108.108 0 0 0-.042-.084.151.151 0 0 0-.102-.036l-1.404-.06c-.096 0-.144.044-.144.132 0 .416-.13.752-.39 1.008s-.602.384-1.026.384c-.432 0-.778-.128-1.038-.384s-.39-.592-.39-1.008V72.36c0-.424.13-.764.39-1.02s.606-.384 1.038-.384c.424 0 .766.128 1.026.384s.39.596.39 1.02c0 .088.04.132.12.132h.024l1.404-.084c.096-.016.144-.06.144-.132 0-.552-.13-1.038-.39-1.458a2.581 2.581 0 0 0-1.092-.972c-.468-.228-1.01-.342-1.626-.342-.624 0-1.172.12-1.644.36a2.59 2.59 0 0 0-1.092 1.02c-.256.44-.384.948-.384 1.524v2.772c0 .576.128 1.084.384 1.524.256.44.62.782 1.092 1.026.472.244 1.02.366 1.644.366zm7.148 0c.672 0 1.246-.178 1.722-.534.476-.356.802-.846.978-1.47.112-.376.168-.78.168-1.212 0-.44-.064-.86-.192-1.26-.192-.592-.52-1.054-.984-1.386-.464-.332-1.024-.498-1.68-.498-.672 0-1.248.168-1.728.504-.48.336-.812.8-.996 1.392-.112.376-.168.8-.168 1.272 0 .44.056.848.168 1.224.176.608.504 1.088.984 1.44.48.352 1.056.528 1.728.528zm0-1.452c-.272 0-.502-.08-.69-.24a1.314 1.314 0 0 1-.402-.66c-.056-.2-.084-.48-.084-.84 0-.376.032-.66.096-.852.08-.272.21-.484.39-.636.18-.152.406-.228.678-.228.264 0 .488.076.672.228.184.152.32.364.408.636.064.232.096.516.096.852 0 .304-.032.584-.096.84-.08.28-.212.5-.396.66a.989.989 0 0 1-.672.24zm6.2 1.44c.672 0 1.168-.216 1.488-.648.016-.024.032-.034.048-.03.016.004.024.018.024.042v.408c0 .04.014.074.042.102a.139.139 0 0 0 .102.042h1.404c.04 0 .074-.014.102-.042a.139.139 0 0 0 .042-.102v-5.88a.139.139 0 0 0-.042-.102.139.139 0 0 0-.102-.042h-1.404a.139.139 0 0 0-.102.042.139.139 0 0 0-.042.102v3.78c-.04.264-.148.478-.324.642a.947.947 0 0 1-.672.246c-.304 0-.542-.1-.714-.3-.172-.2-.258-.46-.258-.78v-3.588a.139.139 0 0 0-.042-.102.139.139 0 0 0-.102-.042h-1.392a.139.139 0 0 0-.102.042.139.139 0 0 0-.042.102v4.008c0 .664.196 1.18.588 1.548.392.368.892.552 1.5.552zm6.248-.084c.04 0 .074-.014.102-.042a.139.139 0 0 0 .042-.102v-3.588c0-.32.09-.58.27-.78.18-.2.418-.3.714-.3s.534.1.714.3c.18.2.27.46.27.78v3.588c0 .04.014.074.042.102a.139.139 0 0 0 .102.042h1.404c.04 0 .074-.014.102-.042a.139.139 0 0 0 .042-.102V73.92c0-.672-.196-1.204-.588-1.596-.392-.392-.908-.588-1.548-.588-.648 0-1.136.232-1.464.696-.008.016-.02.02-.036.012-.016-.008-.024-.024-.024-.048v-.42a.139.139 0 0 0-.042-.102.139.139 0 0 0-.102-.042h-1.404a.139.139 0 0 0-.102.042.139.139 0 0 0-.042.102v5.88c0 .04.014.074.042.102a.139.139 0 0 0 .102.042h1.404zm7.76.036c.144 0 .384-.008.72-.024.096-.016.144-.068.144-.156v-1.14a.139.139 0 0 0-.042-.102.139.139 0 0 0-.102-.042h-.396c-.24 0-.414-.064-.522-.192-.108-.128-.162-.324-.162-.588v-2.544c0-.04.02-.06.06-.06h1.152c.04 0 .074-.014.102-.042a.139.139 0 0 0 .042-.102v-1.068a.139.139 0 0 0-.042-.102.139.139 0 0 0-.102-.042h-1.152c-.04 0-.06-.02-.06-.06v-1.428a.139.139 0 0 0-.042-.102.139.139 0 0 0-.102-.042h-1.344a.139.139 0 0 0-.102.042.139.139 0 0 0-.042.102v1.428c0 .04-.02.06-.06.06h-.684a.139.139 0 0 0-.102.042.139.139 0 0 0-.042.102v1.068c0 .04.014.074.042.102a.139.139 0 0 0 .102.042h.684c.04 0 .06.02.06.06v3.216c.008.608.176 1.022.504 1.242.328.22.824.33 1.488.33zm3.764-.036c.04 0 .074-.014.102-.042a.139.139 0 0 0 .042-.102V74.58c0-.312.1-.562.3-.75.2-.188.444-.294.732-.318.112-.016.2-.024.264-.024.16 0 .3.02.42.06.104.04.16.012.168-.084l.252-1.368c.016-.088-.008-.148-.072-.18-.168-.112-.396-.168-.684-.168-.552 0-.992.24-1.32.72-.008.016-.02.02-.036.012-.016-.008-.024-.024-.024-.048v-.456a.139.139 0 0 0-.042-.102.139.139 0 0 0-.102-.042h-1.404a.139.139 0 0 0-.102.042.139.139 0 0 0-.042.102v5.88c0 .04.014.074.042.102a.139.139 0 0 0 .102.042h1.404zm3.428 2.388c.688 0 1.22-.068 1.596-.204.376-.136.668-.35.876-.642.208-.292.412-.73.612-1.314l2.076-6.24c.016-.056.014-.098-.006-.126-.02-.028-.054-.042-.102-.042h-1.464c-.088 0-.144.04-.168.12l-1.008 3.888c-.008.024-.02.036-.036.036-.016 0-.028-.012-.036-.036l-1.008-3.888c-.024-.08-.08-.12-.168-.12h-1.5c-.088 0-.132.036-.132.108 0 .024.004.044.012.06l1.968 5.976c.008.032.008.056 0 .072-.064.264-.154.464-.27.6a.866.866 0 0 1-.468.276 3.89 3.89 0 0 1-.798.084.139.139 0 0 0-.102.042.139.139 0 0 0-.042.102v1.104c0 .04.008.074.024.102.016.028.036.042.06.042h.084z"/>
            <path d="M365.88 78.9v-.6H340v.6h25.88zm18.043 0v-.6h-15.991v.6h15.991zm4.329 0v-.6h-2.074v.6h2.074zm2.58-.6v.6h38.447v-.6h-38.447zm43.219.6v-.6h-1.329v.6h1.329z"/>
        </g>
        <path d="M332.4 131h109.2a2.4 2.4 0 0 1 2.4 2.4v24a2.4 2.4 0 0 1-2.4 2.4H332.4a2.4 2.4 0 0 1-2.4-2.4v-24a2.4 2.4 0 0 1 2.4-2.4z" stroke-opacity=".4" stroke="#FFF" stroke-width=".6" stroke-dasharray="1.2,2.4"/>
        <g fill="#FFF" fill-rule="nonzero">
            <path d="M343.552 150.096c.88 0 1.568-.2 2.064-.6.496-.4.744-.936.744-1.608 0-.432-.11-.798-.33-1.098a2.81 2.81 0 0 0-.864-.762 11.633 11.633 0 0 0-1.41-.672 15.418 15.418 0 0 1-1.278-.546 1.867 1.867 0 0 1-.636-.492c-.148-.188-.222-.426-.222-.714 0-.44.152-.776.456-1.008.304-.232.74-.348 1.308-.348.648 0 1.154.148 1.518.444.364.296.546.676.546 1.14v.216c0 .08.04.12.12.12h.6c.08 0 .12-.04.12-.12v-.264c0-.688-.256-1.24-.768-1.656-.512-.416-1.212-.624-2.1-.624-.816 0-1.458.186-1.926.558-.468.372-.702.894-.702 1.566 0 .432.102.79.306 1.074.204.284.472.516.804.696.332.18.798.39 1.398.63.56.232.994.436 1.302.612.308.176.536.364.684.564.148.2.222.44.222.72 0 .432-.16.778-.48 1.038-.32.26-.788.39-1.404.39-.68 0-1.212-.142-1.596-.426-.384-.284-.576-.658-.576-1.122v-.324c0-.08-.04-.12-.12-.12h-.588c-.08 0-.12.04-.12.12v.372c0 .68.262 1.224.786 1.632.524.408 1.238.612 2.142.612zm6.632-.012c.728 0 1.26-.248 1.596-.744.008-.016.02-.02.036-.012.016.008.024.02.024.036v.516c0 .08.04.12.12.12h.612c.08 0 .12-.04.12-.12v-5.832c0-.08-.04-.12-.12-.12h-.612c-.08 0-.12.04-.12.12v3.804c0 .448-.134.808-.402 1.08s-.63.408-1.086.408c-.44 0-.788-.134-1.044-.402s-.384-.63-.384-1.086v-3.804c0-.08-.04-.12-.12-.12h-.612c-.08 0-.12.04-.12.12v4.056c0 .416.094.772.282 1.068.188.296.444.522.768.678.324.156.678.234 1.062.234zm5.348-.084c.08 0 .12-.04.12-.12v-3.876c0-.432.126-.776.378-1.032s.59-.384 1.014-.384c.416 0 .748.13.996.39s.372.61.372 1.05v3.852c0 .08.04.12.12.12h.612c.08 0 .12-.04.12-.12v-3.876c0-.432.13-.776.39-1.032s.602-.384 1.026-.384c.408 0 .738.13.99.39s.378.61.378 1.05v3.852c0 .08.04.12.12.12h.6c.08 0 .12-.04.12-.12v-4.02c0-.624-.174-1.116-.522-1.476-.348-.36-.822-.54-1.422-.54a2.36 2.36 0 0 0-1.092.246c-.32.164-.568.41-.744.738-.024.04-.044.04-.06 0a1.615 1.615 0 0 0-.672-.732c-.296-.168-.652-.252-1.068-.252-.336 0-.642.058-.918.174-.276.116-.502.29-.678.522-.016.016-.03.022-.042.018-.012-.004-.018-.014-.018-.03v-.48c0-.08-.04-.12-.12-.12h-.612c-.08 0-.12.04-.12.12v5.832c0 .08.04.12.12.12h.612zm13.312 0c.04 0 .074-.014.102-.042a.139.139 0 0 0 .042-.102v-3.276c0-.04.02-.06.06-.06h1.116c.032 0 .056.016.072.048l1.5 3.324a.17.17 0 0 0 .168.108h1.476c.088 0 .132-.032.132-.096a.184.184 0 0 0-.024-.072l-1.632-3.396c-.016-.04-.004-.068.036-.084.488-.16.868-.434 1.14-.822.272-.388.408-.854.408-1.398 0-.504-.106-.948-.318-1.332a2.188 2.188 0 0 0-.9-.888c-.388-.208-.838-.312-1.35-.312h-3.432a.139.139 0 0 0-.102.042.139.139 0 0 0-.042.102v8.112c0 .04.014.074.042.102a.139.139 0 0 0 .102.042h1.404zm1.776-4.776h-1.572c-.04 0-.06-.02-.06-.06v-2.052c0-.04.02-.06.06-.06h1.572c.336 0 .61.102.822.306.212.204.318.466.318.786s-.106.58-.318.78c-.212.2-.486.3-.822.3zm6.944 4.872c.496 0 .952-.09 1.368-.27.416-.18.756-.434 1.02-.762.032-.048.048-.08.048-.096 0-.032-.02-.068-.06-.108l-.864-.852c-.032-.032-.06-.048-.084-.048-.04 0-.076.024-.108.072-.296.408-.7.616-1.212.624-.64 0-1.064-.224-1.272-.672a2.149 2.149 0 0 1-.132-.48c-.016-.04 0-.06.048-.06h3.708c.096 0 .148-.048.156-.144.016-.376 0-.716-.048-1.02-.104-.776-.398-1.396-.882-1.86-.484-.464-1.126-.696-1.926-.696-.632 0-1.178.168-1.638.504-.46.336-.782.788-.966 1.356-.12.336-.18.724-.18 1.164 0 .648.084 1.172.252 1.572.208.56.55.996 1.026 1.308.476.312 1.058.468 1.746.468zm.828-3.756h-2.076c-.04 0-.06-.02-.06-.06.024-.152.052-.28.084-.384.16-.472.492-.708.996-.708.264 0 .486.066.666.198.18.132.306.318.378.558 0-.008.02.104.06.336.016.04 0 .06-.048.06zm5.984 3.66c.08 0 .132-.04.156-.12l1.908-5.868c.016-.056.012-.098-.012-.126-.024-.028-.06-.042-.108-.042l-1.548-.024c-.088 0-.144.04-.168.12l-.984 3.636c-.008.024-.02.036-.036.036-.016 0-.028-.012-.036-.036l-.984-3.636c-.024-.08-.08-.12-.168-.12h-1.548c-.088 0-.132.036-.132.108 0 .024.004.044.012.06l1.92 5.892c.024.08.076.12.156.12h1.572zm5.648.096c.496 0 .952-.09 1.368-.27.416-.18.756-.434 1.02-.762.032-.048.048-.08.048-.096 0-.032-.02-.068-.06-.108l-.864-.852c-.032-.032-.06-.048-.084-.048-.04 0-.076.024-.108.072-.296.408-.7.616-1.212.624-.64 0-1.064-.224-1.272-.672a2.149 2.149 0 0 1-.132-.48c-.016-.04 0-.06.048-.06h3.708c.096 0 .148-.048.156-.144.016-.376 0-.716-.048-1.02-.104-.776-.398-1.396-.882-1.86-.484-.464-1.126-.696-1.926-.696-.632 0-1.178.168-1.638.504-.46.336-.782.788-.966 1.356-.12.336-.18.724-.18 1.164 0 .648.084 1.172.252 1.572.208.56.55.996 1.026 1.308.476.312 1.058.468 1.746.468zm.828-3.756h-2.076c-.04 0-.06-.02-.06-.06.024-.152.052-.28.084-.384.16-.472.492-.708.996-.708.264 0 .486.066.666.198.18.132.306.318.378.558 0-.008.02.104.06.336.016.04 0 .06-.048.06zm4.58 3.66c.04 0 .074-.014.102-.042a.139.139 0 0 0 .042-.102v-3.588c0-.32.09-.58.27-.78.18-.2.418-.3.714-.3s.534.1.714.3c.18.2.27.46.27.78v3.588c0 .04.014.074.042.102a.139.139 0 0 0 .102.042h1.404c.04 0 .074-.014.102-.042a.139.139 0 0 0 .042-.102v-3.936c0-.672-.196-1.204-.588-1.596-.392-.392-.908-.588-1.548-.588-.648 0-1.136.232-1.464.696-.008.016-.02.02-.036.012-.016-.008-.024-.024-.024-.048v-.42a.139.139 0 0 0-.042-.102.139.139 0 0 0-.102-.042h-1.404a.139.139 0 0 0-.102.042.139.139 0 0 0-.042.102v5.88c0 .04.014.074.042.102a.139.139 0 0 0 .102.042h1.404zm7.256.084c.672 0 1.168-.216 1.488-.648.016-.024.032-.034.048-.03.016.004.024.018.024.042v.408c0 .04.014.074.042.102a.139.139 0 0 0 .102.042h1.404c.04 0 .074-.014.102-.042a.139.139 0 0 0 .042-.102v-5.88a.139.139 0 0 0-.042-.102.139.139 0 0 0-.102-.042h-1.404a.139.139 0 0 0-.102.042.139.139 0 0 0-.042.102v3.78c-.04.264-.148.478-.324.642a.947.947 0 0 1-.672.246c-.304 0-.542-.1-.714-.3-.172-.2-.258-.46-.258-.78v-3.588a.139.139 0 0 0-.042-.102.139.139 0 0 0-.102-.042h-1.392a.139.139 0 0 0-.102.042.139.139 0 0 0-.042.102v4.008c0 .664.196 1.18.588 1.548.392.368.892.552 1.5.552zm7.592.012c.496 0 .952-.09 1.368-.27.416-.18.756-.434 1.02-.762.032-.048.048-.08.048-.096 0-.032-.02-.068-.06-.108l-.864-.852c-.032-.032-.06-.048-.084-.048-.04 0-.076.024-.108.072-.296.408-.7.616-1.212.624-.64 0-1.064-.224-1.272-.672a2.149 2.149 0 0 1-.132-.48c-.016-.04 0-.06.048-.06h3.708c.096 0 .148-.048.156-.144.016-.376 0-.716-.048-1.02-.104-.776-.398-1.396-.882-1.86-.484-.464-1.126-.696-1.926-.696-.632 0-1.178.168-1.638.504-.46.336-.782.788-.966 1.356-.12.336-.18.724-.18 1.164 0 .648.084 1.172.252 1.572.208.56.55.996 1.026 1.308.476.312 1.058.468 1.746.468zm.828-3.756h-2.076c-.04 0-.06-.02-.06-.06.024-.152.052-.28.084-.384.16-.472.492-.708.996-.708.264 0 .486.066.666.198.18.132.306.318.378.558 0-.008.02.104.06.336.016.04 0 .06-.048.06zM363.984 150.9v-.6H340v.6h23.984zm2.58-.6v.6h45.866v-.6h-45.866z"/>
        </g>
        <path d="M334.476 121c.08 0 .132-.04.156-.12l2.508-8.112c.016-.048.012-.088-.012-.12s-.06-.048-.108-.048h-1.476c-.088 0-.144.04-.168.12l-1.572 5.856c-.008.024-.02.036-.036.036-.016 0-.028-.012-.036-.036l-1.596-5.856c-.024-.08-.08-.12-.168-.12h-1.512c-.088 0-.132.04-.132.12l.012.048 2.472 8.112c.024.08.076.12.156.12h1.512zm5.17.096c.744 0 1.284-.22 1.62-.66.016-.024.032-.032.048-.024s.024.024.024.048v.396c0 .04.014.074.042.102a.139.139 0 0 0 .102.042h1.404c.04 0 .074-.014.102-.042a.139.139 0 0 0 .042-.102v-4.068c0-.384-.114-.732-.342-1.044-.228-.312-.546-.558-.954-.738a3.416 3.416 0 0 0-1.392-.27c-.48 0-.914.076-1.302.228-.388.152-.7.364-.936.636-.236.272-.37.576-.402.912-.008.056.036.092.132.108l1.452.192c.08.008.132-.032.156-.12a.616.616 0 0 1 .318-.372c.164-.088.37-.132.618-.132.32 0 .56.074.72.222.16.148.24.354.24.618v.264c0 .04-.02.06-.06.06h-1.224c-.8 0-1.416.17-1.848.51-.432.34-.648.818-.648 1.434 0 .592.192 1.04.576 1.344.384.304.888.456 1.512.456zm.456-1.26c-.256 0-.46-.062-.612-.186a.623.623 0 0 1-.228-.51c0-.248.102-.44.306-.576.204-.136.486-.204.846-.204h.864c.04 0 .06.02.06.06v.432c0 .288-.12.524-.36.708-.24.184-.532.276-.876.276zm6.179 1.164c.04 0 .074-.014.102-.042a.139.139 0 0 0 .042-.102v-8.112a.139.139 0 0 0-.042-.102.139.139 0 0 0-.102-.042h-1.404a.139.139 0 0 0-.102.042.139.139 0 0 0-.042.102v8.112c0 .04.014.074.042.102a.139.139 0 0 0 .102.042h1.404zm3.934.084c.672 0 1.168-.216 1.488-.648.016-.024.032-.034.048-.03.016.004.024.018.024.042v.408c0 .04.014.074.042.102a.139.139 0 0 0 .102.042h1.404c.04 0 .074-.014.102-.042a.139.139 0 0 0 .042-.102v-5.88a.139.139 0 0 0-.042-.102.139.139 0 0 0-.102-.042h-1.404a.139.139 0 0 0-.102.042.139.139 0 0 0-.042.102v3.78c-.04.264-.148.478-.324.642a.947.947 0 0 1-.672.246c-.304 0-.542-.1-.714-.3-.172-.2-.258-.46-.258-.78v-3.588a.139.139 0 0 0-.042-.102.139.139 0 0 0-.102-.042h-1.392a.139.139 0 0 0-.102.042.139.139 0 0 0-.042.102v4.008c0 .664.196 1.18.588 1.548.392.368.892.552 1.5.552zm7.906.012c.496 0 .952-.09 1.368-.27.416-.18.756-.434 1.02-.762.032-.048.048-.08.048-.096 0-.032-.02-.068-.06-.108l-.864-.852c-.032-.032-.06-.048-.084-.048-.04 0-.076.024-.108.072-.296.408-.7.616-1.212.624-.64 0-1.064-.224-1.272-.672a2.149 2.149 0 0 1-.132-.48c-.016-.04 0-.06.048-.06h3.708c.096 0 .148-.048.156-.144.016-.376 0-.716-.048-1.02-.104-.776-.398-1.396-.882-1.86-.484-.464-1.126-.696-1.926-.696-.632 0-1.178.168-1.638.504-.46.336-.782.788-.966 1.356-.12.336-.18.724-.18 1.164 0 .648.084 1.172.252 1.572.208.56.55.996 1.026 1.308.476.312 1.058.468 1.746.468zm.828-3.756h-2.076c-.04 0-.06-.02-.06-.06.024-.152.052-.28.084-.384.16-.472.492-.708.996-.708.264 0 .486.066.666.198.18.132.306.318.378.558 0-.008.02.104.06.336.016.04 0 .06-.048.06z" fill="#FFF" fill-rule="nonzero"/>
        <path fill="#FFF" fill-rule="nonzero" opacity=".5" d="m314.694 41.407 6 3.375.388.218-.388.218-6 3.375-.245-.436 5.167-2.907H233.08v-.5h86.539l-5.17-2.907z"/>
    </g>
</svg>
