<svg width="494" height="125" xmlns="http://www.w3.org/2000/svg">
    <g fill="none" fill-rule="evenodd">
        <g transform="translate(0 29)">
            <rect fill-opacity=".2" fill="#CB68FF" x="7" y="3" width="270" height="18" rx="4"/>
            <g fill="#57F">
                <path d="M2 0h280a2 2 0 0 1 2 2v22H0V2a2 2 0 0 1 2-2z" opacity=".3"/>
                <path opacity=".1" d="M0 24h284v24H0z"/>
                <path opacity=".15" d="M0 48h284v24H0z"/>
                <path opacity=".1" d="M0 72h284v24H0z"/>
            </g>
            <g fill="#FFF" fill-rule="nonzero">
                <path d="M18.684 17.108c.56 0 1.052-.108 1.476-.324.424-.216.754-.522.99-.918s.354-.854.354-1.374c0-.072-.04-.108-.12-.108l-.612-.036c-.08 0-.12.036-.12.108v.024c0 .568-.18 1.022-.54 1.362-.36.34-.836.51-1.428.51s-1.068-.172-1.428-.516c-.36-.344-.54-.796-.54-1.356v-3.36c0-.56.18-1.012.54-1.356.36-.344.836-.516 1.428-.516s1.068.17 1.428.51c.36.34.54.794.54 1.362v.036c0 .072.04.108.12.108l.612-.036c.032 0 .06-.012.084-.036a.13.13 0 0 0 .036-.096c0-.512-.118-.964-.354-1.356a2.4 2.4 0 0 0-.99-.912c-.424-.216-.916-.324-1.476-.324-.56 0-1.052.11-1.476.33-.424.22-.754.53-.99.93s-.354.86-.354 1.38v3.3c0 .528.118.994.354 1.398.236.404.566.716.99.936.424.22.916.33 1.476.33zm7.378-.012c.576 0 1.07-.148 1.482-.444.412-.296.694-.704.846-1.224.112-.336.168-.828.168-1.476 0-.64-.056-1.132-.168-1.476a2.224 2.224 0 0 0-.846-1.2c-.412-.296-.902-.444-1.47-.444-.592 0-1.096.148-1.512.444-.416.296-.7.7-.852 1.212-.112.36-.168.848-.168 1.464s.056 1.108.168 1.476c.16.52.448.928.864 1.224.416.296.912.444 1.488.444zm0-.744c-.4 0-.738-.106-1.014-.318a1.492 1.492 0 0 1-.546-.858c-.064-.28-.096-.684-.096-1.212 0-.528.032-.932.096-1.212.096-.36.28-.646.552-.858.272-.212.604-.318.996-.318s.726.106 1.002.318c.276.212.462.498.558.858.064.28.096.684.096 1.212 0 .52-.036.924-.108 1.212-.096.36-.28.646-.552.858-.272.212-.6.318-.984.318zm6.755.732c.728 0 1.26-.248 1.596-.744.008-.016.02-.02.036-.012.016.008.024.02.024.036v.516c0 .08.04.12.12.12h.612c.08 0 .12-.04.12-.12v-5.832c0-.08-.04-.12-.12-.12h-.612c-.08 0-.12.04-.12.12v3.804c0 .448-.134.808-.402 1.08s-.63.408-1.086.408c-.44 0-.788-.134-1.044-.402s-.384-.63-.384-1.086v-3.804c0-.08-.04-.12-.12-.12h-.612c-.08 0-.12.04-.12.12v4.056c0 .416.094.772.282 1.068.188.296.444.522.768.678.324.156.678.234 1.062.234zM38.479 17c.08 0 .12-.04.12-.12v-3.816c0-.44.136-.796.408-1.068.272-.272.628-.408 1.068-.408.424 0 .77.14 1.038.42.268.28.402.64.402 1.08v3.792c0 .08.04.12.12.12h.612c.08 0 .12-.04.12-.12v-3.96c0-.632-.19-1.136-.57-1.512-.38-.376-.89-.564-1.53-.564-.728 0-1.268.248-1.62.744-.008.016-.018.02-.03.012a.04.04 0 0 1-.018-.036v-.516c0-.08-.04-.12-.12-.12h-.612c-.08 0-.12.04-.12.12v5.832c0 .08.04.12.12.12h.612zm8.374.012c.2 0 .348-.004.444-.012.08 0 .12-.04.12-.12v-.492c0-.08-.04-.12-.12-.12h-.3c-.368 0-.638-.078-.81-.234-.172-.156-.258-.426-.258-.81v-3.54c0-.032.016-.048.048-.048h1.356c.08 0 .12-.04.12-.12v-.468c0-.08-.04-.12-.12-.12h-1.356c-.032 0-.048-.016-.048-.048V9.488c0-.08-.04-.12-.12-.12h-.588c-.08 0-.12.04-.12.12v1.392c0 .032-.016.048-.048.048h-.732c-.08 0-.12.04-.12.12v.468c0 .08.04.12.12.12h.732c.032 0 .048.016.048.048v3.804c0 .584.148.984.444 1.2.296.216.732.324 1.308.324zm3.49-.012c.08 0 .12-.04.12-.12v-3.54c0-.448.136-.818.408-1.11a1.43 1.43 0 0 1 1.032-.462l.156-.012c.176 0 .332.028.468.084.08.032.132.008.156-.072l.132-.588c.016-.072-.008-.124-.072-.156a1.416 1.416 0 0 0-.684-.156c-.344 0-.646.082-.906.246a1.91 1.91 0 0 0-.642.69c-.008.016-.018.022-.03.018s-.018-.018-.018-.042v-.732c0-.08-.04-.12-.12-.12h-.612c-.08 0-.12.04-.12.12v5.832c0 .08.04.12.12.12h.612zm4.295 2.4c.456 0 .81-.05 1.062-.15.252-.1.462-.278.63-.534.168-.256.348-.652.54-1.188l2.22-6.468c.024-.088-.008-.132-.096-.132h-.624c-.072 0-.12.032-.144.096l-1.536 4.848c-.008.016-.02.024-.036.024-.016 0-.028-.008-.036-.024l-1.56-4.848c-.024-.064-.072-.096-.144-.096h-.636c-.072 0-.108.028-.108.084l.012.048 2.028 5.904c.016.016.016.04 0 .072-.144.464-.278.81-.402 1.038-.124.228-.272.384-.444.468-.172.084-.414.13-.726.138h-.048c-.08 0-.12.04-.12.12v.48c0 .08.028.12.084.12h.084z"/>
                <path d="M18.552 41.096c.88 0 1.568-.2 2.064-.6.496-.4.744-.936.744-1.608 0-.432-.11-.798-.33-1.098a2.81 2.81 0 0 0-.864-.762 11.633 11.633 0 0 0-1.41-.672 15.418 15.418 0 0 1-1.278-.546 1.867 1.867 0 0 1-.636-.492c-.148-.188-.222-.426-.222-.714 0-.44.152-.776.456-1.008.304-.232.74-.348 1.308-.348.648 0 1.154.148 1.518.444.364.296.546.676.546 1.14v.216c0 .08.04.12.12.12h.6c.08 0 .12-.04.12-.12v-.264c0-.688-.256-1.24-.768-1.656-.512-.416-1.212-.624-2.1-.624-.816 0-1.458.186-1.926.558-.468.372-.702.894-.702 1.566 0 .432.102.79.306 1.074.204.284.472.516.804.696.332.18.798.39 1.398.63.56.232.994.436 1.302.612.308.176.536.364.684.564.148.2.222.44.222.72 0 .432-.16.778-.48 1.038-.32.26-.788.39-1.404.39-.68 0-1.212-.142-1.596-.426-.384-.284-.576-.658-.576-1.122v-.324c0-.08-.04-.12-.12-.12h-.588c-.08 0-.12.04-.12.12v.372c0 .68.262 1.224.786 1.632.524.408 1.238.612 2.142.612zm7.246 0c.576 0 1.07-.148 1.482-.444.412-.296.694-.704.846-1.224.112-.336.168-.828.168-1.476 0-.64-.056-1.132-.168-1.476a2.224 2.224 0 0 0-.846-1.2c-.412-.296-.902-.444-1.47-.444-.592 0-1.096.148-1.512.444-.416.296-.7.7-.852 1.212-.112.36-.168.848-.168 1.464s.056 1.108.168 1.476c.16.52.448.928.864 1.224.416.296.912.444 1.488.444zm0-.744c-.4 0-.738-.106-1.014-.318a1.492 1.492 0 0 1-.546-.858c-.064-.28-.096-.684-.096-1.212 0-.528.032-.932.096-1.212.096-.36.28-.646.552-.858.272-.212.604-.318.996-.318s.726.106 1.002.318c.276.212.462.498.558.858.064.28.096.684.096 1.212 0 .52-.036.924-.108 1.212-.096.36-.28.646-.552.858-.272.212-.6.318-.984.318zm6.755.732c.728 0 1.26-.248 1.596-.744.008-.016.02-.02.036-.012.016.008.024.02.024.036v.516c0 .08.04.12.12.12h.612c.08 0 .12-.04.12-.12v-5.832c0-.08-.04-.12-.12-.12h-.612c-.08 0-.12.04-.12.12v3.804c0 .448-.134.808-.402 1.08s-.63.408-1.086.408c-.44 0-.788-.134-1.044-.402s-.384-.63-.384-1.086v-3.804c0-.08-.04-.12-.12-.12h-.612c-.08 0-.12.04-.12.12v4.056c0 .416.094.772.282 1.068.188.296.444.522.768.678.324.156.678.234 1.062.234zm7.054-.072c.2 0 .348-.004.444-.012.08 0 .12-.04.12-.12v-.492c0-.08-.04-.12-.12-.12h-.3c-.368 0-.638-.078-.81-.234-.172-.156-.258-.426-.258-.81v-3.54c0-.032.016-.048.048-.048h1.356c.08 0 .12-.04.12-.12v-.468c0-.08-.04-.12-.12-.12H38.73c-.032 0-.048-.016-.048-.048v-1.392c0-.08-.04-.12-.12-.12h-.588c-.08 0-.12.04-.12.12v1.392c0 .032-.016.048-.048.048h-.732c-.08 0-.12.04-.12.12v.468c0 .08.04.12.12.12h.732c.032 0 .048.016.048.048v3.804c0 .584.148.984.444 1.2.296.216.732.324 1.308.324zm3.49-.012c.08 0 .12-.04.12-.12v-3.816c0-.44.136-.796.408-1.068.272-.272.628-.408 1.068-.408.424 0 .77.14 1.038.42.268.28.402.64.402 1.08v3.792c0 .08.04.12.12.12h.612c.08 0 .12-.04.12-.12v-3.96c0-.632-.19-1.136-.57-1.512-.38-.376-.89-.564-1.53-.564-.728 0-1.268.248-1.62.744-.008.016-.018.02-.03.012a.04.04 0 0 1-.018-.036V32.72c0-.08-.04-.12-.12-.12h-.612c-.08 0-.12.04-.12.12v8.16c0 .08.04.12.12.12h.612zm9.38 0c.073 0 .12-.032.145-.096l.48-1.512c.008-.024.024-.036.048-.036h3.588c.024 0 .04.012.048.036l.48 1.512c.024.064.072.096.144.096h.648c.072 0 .108-.028.108-.084l-.012-.048-2.664-8.172c-.024-.064-.072-.096-.144-.096h-.816c-.072 0-.12.032-.144.096l-2.652 8.172c-.024.088.008.132.096.132h.648zm4.009-2.34H53.39a.058.058 0 0 1-.042-.018c-.012-.012-.014-.026-.006-.042l1.56-4.896c.008-.016.02-.024.036-.024.016 0 .028.008.036.024l1.56 4.896c.008.016.006.03-.006.042a.058.058 0 0 1-.042.018zm4.57 2.34c.08 0 .12-.04.12-.12v-5.124c0-.032.016-.048.048-.048h1.344c.08 0 .12-.04.12-.12v-.54c0-.08-.04-.12-.12-.12h-1.344c-.032 0-.048-.016-.048-.048v-.24c0-.472.08-.806.24-1.002.16-.196.46-.294.9-.294h.276c.08 0 .12-.04.12-.12v-.504c0-.08-.04-.12-.12-.12h-.348c-.496 0-.882.066-1.158.198-.276.132-.47.34-.582.624-.112.284-.168.674-.168 1.17v.288c0 .032-.016.048-.048.048h-.804c-.08 0-.12.04-.12.12v.54c0 .08.04.12.12.12h.804c.032 0 .048.016.048.048v5.124c0 .08.04.12.12.12h.6zm4.378 0c.08 0 .12-.04.12-.12v-3.54c0-.448.136-.818.408-1.11a1.43 1.43 0 0 1 1.032-.462l.156-.012c.176 0 .332.028.468.084.08.032.132.008.156-.072l.132-.588c.016-.072-.008-.124-.072-.156a1.416 1.416 0 0 0-.684-.156c-.344 0-.646.082-.906.246a1.91 1.91 0 0 0-.642.69c-.008.016-.018.022-.03.018s-.018-.018-.018-.042v-.732c0-.08-.04-.12-.12-.12h-.612c-.08 0-.12.04-.12.12v5.832c0 .08.04.12.12.12h.612zm4.727-7.176a.651.651 0 0 0 .48-.192.651.651 0 0 0 .192-.48.646.646 0 0 0-.672-.672.646.646 0 0 0-.672.672c0 .192.064.352.192.48a.651.651 0 0 0 .48.192zm.276 7.164c.08 0 .12-.04.12-.12v-5.832c0-.08-.04-.12-.12-.12h-.612c-.08 0-.12.04-.12.12v5.832c0 .08.04.12.12.12h.612zm5.014.108c.584 0 1.092-.144 1.524-.432.432-.288.708-.664.828-1.128l.048-.24c.008-.072-.028-.116-.108-.132l-.588-.096c-.088-.016-.136.016-.144.096l-.012.048v.048c-.072.32-.25.582-.534.786a1.692 1.692 0 0 1-1.014.306c-.4 0-.734-.106-1.002-.318a1.46 1.46 0 0 1-.522-.858c-.072-.288-.108-.696-.108-1.224 0-.504.036-.908.108-1.212.08-.352.254-.634.522-.846.268-.212.602-.318 1.002-.318s.74.106 1.02.318c.28.212.456.47.528.774l.036.18c.016.072.052.108.108.108h.024l.6-.084c.072-.016.108-.052.108-.108v-.024a2.025 2.025 0 0 0-.072-.36c-.128-.44-.406-.808-.834-1.104-.428-.296-.934-.444-1.518-.444-.576 0-1.072.15-1.488.45-.416.3-.696.698-.84 1.194-.104.4-.156.888-.156 1.464 0 .64.052 1.136.156 1.488.152.512.434.918.846 1.218.412.3.906.45 1.482.45zm6.058 0c.392 0 .748-.062 1.068-.186.32-.124.58-.306.78-.546.016-.016.03-.02.042-.012a.04.04 0 0 1 .018.036v.492c0 .08.04.12.12.12h.612c.08 0 .12-.04.12-.12v-4.032c0-.608-.196-1.096-.588-1.464-.392-.368-.948-.552-1.668-.552-.624 0-1.144.14-1.56.42-.416.28-.656.644-.72 1.092-.016.048.02.08.108.096l.648.084c.072.008.12-.028.144-.108a.93.93 0 0 1 .444-.618c.24-.148.552-.222.936-.222.48 0 .834.118 1.062.354.228.236.342.558.342.966v.456c0 .032-.016.048-.048.048h-1.392c-.776 0-1.382.174-1.818.522-.436.348-.654.822-.654 1.422 0 .592.192 1.032.576 1.32.384.288.86.432 1.428.432zm.168-.732c-.392 0-.71-.09-.954-.27-.244-.18-.366-.446-.366-.798 0-.384.16-.684.48-.9.32-.216.744-.324 1.272-.324h1.26c.032 0 .048.016.048.048v.936c0 .4-.172.718-.516.954-.344.236-.752.354-1.224.354zM16.86 65c.08 0 .12-.04.12-.12v-6.636c0-.024.008-.04.024-.048s.028 0 .036.024l1.956 2.976c.04.048.088.072.144.072h.312c.056 0 .104-.028.144-.084l1.956-3c.008-.024.02-.032.036-.024.016.008.024.024.024.048v6.672c0 .08.04.12.12.12h.612c.08 0 .12-.04.12-.12v-8.16c0-.08-.04-.12-.12-.12h-.624c-.056 0-.104.028-.144.084l-2.232 3.408c-.008.008-.02.012-.036.012-.016 0-.028-.004-.036-.012l-2.256-3.42a.162.162 0 0 0-.144-.072h-.624c-.08 0-.12.04-.12.12v8.16c0 .08.04.12.12.12h.612zm10.51.096c.576 0 1.07-.148 1.482-.444.412-.296.694-.704.846-1.224.112-.336.168-.828.168-1.476 0-.64-.056-1.132-.168-1.476a2.224 2.224 0 0 0-.846-1.2c-.412-.296-.902-.444-1.47-.444-.592 0-1.096.148-1.512.444-.416.296-.7.7-.852 1.212-.112.36-.168.848-.168 1.464s.056 1.108.168 1.476c.16.52.448.928.864 1.224.416.296.912.444 1.488.444zm0-.744c-.4 0-.738-.106-1.014-.318a1.492 1.492 0 0 1-.546-.858c-.064-.28-.096-.684-.096-1.212 0-.528.032-.932.096-1.212.096-.36.28-.646.552-.858.272-.212.604-.318.996-.318s.726.106 1.002.318c.276.212.462.498.558.858.064.28.096.684.096 1.212 0 .52-.036.924-.108 1.212-.096.36-.28.646-.552.858-.272.212-.6.318-.984.318zm5.47.648c.08 0 .12-.04.12-.12v-3.54c0-.448.137-.818.409-1.11a1.43 1.43 0 0 1 1.032-.462l.156-.012c.176 0 .332.028.468.084.08.032.132.008.156-.072l.132-.588c.016-.072-.008-.124-.072-.156a1.416 1.416 0 0 0-.684-.156c-.344 0-.646.082-.906.246a1.91 1.91 0 0 0-.642.69c-.008.016-.018.022-.03.018s-.018-.018-.018-.042v-.732c0-.08-.04-.12-.12-.12h-.612c-.08 0-.12.04-.12.12v5.832c0 .08.04.12.12.12h.612zm6.407.096c.576 0 1.07-.148 1.482-.444.412-.296.694-.704.846-1.224.112-.336.168-.828.168-1.476 0-.64-.056-1.132-.168-1.476a2.224 2.224 0 0 0-.846-1.2c-.412-.296-.902-.444-1.47-.444-.592 0-1.096.148-1.512.444-.416.296-.7.7-.852 1.212-.112.36-.168.848-.168 1.464s.056 1.108.168 1.476c.16.52.448.928.864 1.224.416.296.912.444 1.488.444zm0-.744c-.4 0-.738-.106-1.014-.318a1.492 1.492 0 0 1-.546-.858c-.064-.28-.096-.684-.096-1.212 0-.528.032-.932.096-1.212.096-.36.28-.646.552-.858.272-.212.604-.318.996-.318s.726.106 1.002.318c.276.212.462.498.558.858.064.28.096.684.096 1.212 0 .52-.036.924-.108 1.212-.096.36-.28.646-.552.858-.272.212-.6.318-.984.318zm7.03.744c.584 0 1.092-.144 1.524-.432.432-.288.708-.664.828-1.128l.048-.24c.008-.072-.028-.116-.108-.132l-.588-.096c-.088-.016-.136.016-.144.096l-.012.048v.048c-.072.32-.25.582-.534.786a1.692 1.692 0 0 1-1.014.306c-.4 0-.734-.106-1.002-.318a1.46 1.46 0 0 1-.522-.858c-.072-.288-.108-.696-.108-1.224 0-.504.036-.908.108-1.212.08-.352.254-.634.522-.846.268-.212.602-.318 1.002-.318s.74.106 1.02.318c.28.212.456.47.528.774l.036.18c.016.072.052.108.108.108h.024l.6-.084c.072-.016.108-.052.108-.108v-.024a2.025 2.025 0 0 0-.072-.36c-.128-.44-.406-.808-.834-1.104-.428-.296-.934-.444-1.518-.444-.576 0-1.072.15-1.488.45-.416.3-.696.698-.84 1.194-.104.4-.156.888-.156 1.464 0 .64.052 1.136.156 1.488.152.512.434.918.846 1.218.412.3.906.45 1.482.45zm6.718 0c.584 0 1.092-.144 1.524-.432.432-.288.708-.664.828-1.128l.048-.24c.008-.072-.028-.116-.108-.132l-.588-.096c-.088-.016-.136.016-.144.096l-.012.048v.048c-.072.32-.25.582-.534.786a1.692 1.692 0 0 1-1.014.306c-.4 0-.734-.106-1.002-.318a1.46 1.46 0 0 1-.522-.858c-.072-.288-.108-.696-.108-1.224 0-.504.036-.908.108-1.212.08-.352.254-.634.522-.846.268-.212.602-.318 1.002-.318s.74.106 1.02.318c.28.212.456.47.528.774l.036.18c.016.072.052.108.108.108h.024l.6-.084c.072-.016.108-.052.108-.108v-.024a2.025 2.025 0 0 0-.072-.36c-.128-.44-.406-.808-.834-1.104-.428-.296-.934-.444-1.518-.444-.576 0-1.072.15-1.488.45-.416.3-.696.698-.84 1.194-.104.4-.156.888-.156 1.464 0 .64.052 1.136.156 1.488.152.512.434.918.846 1.218.412.3.906.45 1.482.45zm6.743 0c.576 0 1.07-.148 1.482-.444.412-.296.694-.704.846-1.224.112-.336.168-.828.168-1.476 0-.64-.056-1.132-.168-1.476a2.224 2.224 0 0 0-.846-1.2c-.412-.296-.902-.444-1.47-.444-.592 0-1.096.148-1.512.444-.416.296-.7.7-.852 1.212-.112.36-.168.848-.168 1.464s.056 1.108.168 1.476c.16.52.448.928.864 1.224.416.296.912.444 1.488.444zm0-.744c-.4 0-.738-.106-1.014-.318a1.492 1.492 0 0 1-.546-.858c-.064-.28-.096-.684-.096-1.212 0-.528.032-.932.096-1.212.096-.36.28-.646.552-.858.272-.212.604-.318.996-.318s.726.106 1.002.318c.276.212.462.498.558.858.064.28.096.684.096 1.212 0 .52-.036.924-.108 1.212-.096.36-.28.646-.552.858-.272.212-.6.318-.984.318zM18.552 89.096c.88 0 1.568-.2 2.064-.6.496-.4.744-.936.744-1.608 0-.432-.11-.798-.33-1.098a2.81 2.81 0 0 0-.864-.762 11.633 11.633 0 0 0-1.41-.672 15.418 15.418 0 0 1-1.278-.546 1.867 1.867 0 0 1-.636-.492c-.148-.188-.222-.426-.222-.714 0-.44.152-.776.456-1.008.304-.232.74-.348 1.308-.348.648 0 1.154.148 1.518.444.364.296.546.676.546 1.14v.216c0 .08.04.12.12.12h.6c.08 0 .12-.04.12-.12v-.264c0-.688-.256-1.24-.768-1.656-.512-.416-1.212-.624-2.1-.624-.816 0-1.458.186-1.926.558-.468.372-.702.894-.702 1.566 0 .432.102.79.306 1.074.204.284.472.516.804.696.332.18.798.39 1.398.63.56.232.994.436 1.302.612.308.176.536.364.684.564.148.2.222.44.222.72 0 .432-.16.778-.48 1.038-.32.26-.788.39-1.404.39-.68 0-1.212-.142-1.596-.426-.384-.284-.576-.658-.576-1.122v-.324c0-.08-.04-.12-.12-.12h-.588c-.08 0-.12.04-.12.12v.372c0 .68.262 1.224.786 1.632.524.408 1.238.612 2.142.612zM24.214 89c.08 0 .12-.04.12-.12v-8.16c0-.08-.04-.12-.12-.12h-.612c-.08 0-.12.04-.12.12v8.16c0 .08.04.12.12.12h.612zm4.859.096c.576 0 1.07-.148 1.482-.444.412-.296.694-.704.846-1.224.112-.336.168-.828.168-1.476 0-.64-.056-1.132-.168-1.476a2.224 2.224 0 0 0-.846-1.2c-.412-.296-.902-.444-1.47-.444-.592 0-1.096.148-1.512.444-.416.296-.7.7-.852 1.212-.112.36-.168.848-.168 1.464s.056 1.108.168 1.476c.16.52.448.928.864 1.224.416.296.912.444 1.488.444zm0-.744c-.4 0-.738-.106-1.014-.318a1.492 1.492 0 0 1-.546-.858c-.064-.28-.096-.684-.096-1.212 0-.528.032-.932.096-1.212.096-.36.28-.646.552-.858.272-.212.604-.318.996-.318s.726.106 1.002.318c.276.212.462.498.558.858.064.28.096.684.096 1.212 0 .52-.036.924-.108 1.212-.096.36-.28.646-.552.858-.272.212-.6.318-.984.318zm6.742.648c.072 0 .12-.032.144-.096l1.968-5.832c.024-.088-.008-.132-.096-.132l-.684-.012c-.072 0-.12.032-.144.096l-1.5 4.704c-.008.016-.02.024-.036.024-.016 0-.028-.008-.036-.024l-1.5-4.704c-.024-.064-.072-.096-.144-.096h-.684c-.072 0-.108.028-.108.084l.012.048 1.968 5.844c.024.064.072.096.144.096h.696zm5.434.096c.392 0 .748-.062 1.068-.186.32-.124.58-.306.78-.546.016-.016.03-.02.042-.012a.04.04 0 0 1 .018.036v.492c0 .08.04.12.12.12h.612c.08 0 .12-.04.12-.12v-4.032c0-.608-.196-1.096-.588-1.464-.392-.368-.948-.552-1.668-.552-.624 0-1.144.14-1.56.42-.416.28-.656.644-.72 1.092-.016.048.02.08.108.096l.648.084c.072.008.12-.028.144-.108a.93.93 0 0 1 .444-.618c.24-.148.552-.222.936-.222.48 0 .834.118 1.062.354.228.236.342.558.342.966v.456c0 .032-.016.048-.048.048h-1.392c-.776 0-1.382.174-1.818.522-.436.348-.654.822-.654 1.422 0 .592.192 1.032.576 1.32.384.288.86.432 1.428.432zm.168-.732c-.392 0-.71-.09-.954-.27-.244-.18-.366-.446-.366-.798 0-.384.16-.684.48-.9.32-.216.744-.324 1.272-.324h1.26c.032 0 .048.016.048.048v.936c0 .4-.172.718-.516.954-.344.236-.752.354-1.224.354zm5.614.636c.08 0 .12-.04.12-.12v-2.04c0-.024.008-.044.024-.06l1.32-1.392c.024-.024.044-.02.06.012l1.548 3.504c.024.064.068.096.132.096h.648c.072 0 .108-.032.108-.096l-.012-.048-1.836-4.02c-.008-.024-.004-.044.012-.06l1.536-1.704c.032-.032.04-.064.024-.096s-.048-.048-.096-.048h-.72a.196.196 0 0 0-.144.06l-2.544 2.664c-.016.016-.03.02-.042.012a.04.04 0 0 1-.018-.036V80.72c0-.08-.04-.12-.12-.12h-.612c-.08 0-.12.04-.12.12v8.16c0 .08.04.12.12.12h.612zm6.37-7.176a.651.651 0 0 0 .48-.192.651.651 0 0 0 .193-.48.646.646 0 0 0-.672-.672.646.646 0 0 0-.672.672c0 .192.064.352.192.48a.651.651 0 0 0 .48.192zm.277 7.164c.08 0 .12-.04.12-.12v-5.832c0-.08-.04-.12-.12-.12h-.612c-.08 0-.12.04-.12.12v5.832c0 .08.04.12.12.12h.612zm4.318.108c.392 0 .748-.062 1.068-.186.32-.124.58-.306.78-.546.016-.016.03-.02.042-.012a.04.04 0 0 1 .018.036v.492c0 .08.04.12.12.12h.612c.08 0 .12-.04.12-.12v-4.032c0-.608-.196-1.096-.588-1.464-.392-.368-.948-.552-1.668-.552-.624 0-1.144.14-1.56.42-.416.28-.656.644-.72 1.092-.016.048.02.08.108.096l.648.084c.072.008.12-.028.144-.108a.93.93 0 0 1 .444-.618c.24-.148.552-.222.936-.222.48 0 .834.118 1.062.354.228.236.342.558.342.966v.456c0 .032-.016.048-.048.048h-1.392c-.776 0-1.382.174-1.818.522-.436.348-.654.822-.654 1.422 0 .592.192 1.032.576 1.32.384.288.86.432 1.428.432zm.168-.732c-.392 0-.71-.09-.954-.27-.244-.18-.366-.446-.366-.798 0-.384.16-.684.48-.9.32-.216.744-.324 1.272-.324h1.26c.032 0 .048.016.048.048v.936c0 .4-.172.718-.516.954-.344.236-.752.354-1.224.354z" opacity=".5"/>
            </g>
            <g fill="#FFF" fill-rule="nonzero">
                <path d="M174.672 17c.08 0 .12-.04.12-.12V9.404c0-.032.016-.048.048-.048h2.352c.08 0 .12-.04.12-.12V8.72c0-.08-.04-.12-.12-.12h-5.556c-.08 0-.12.04-.12.12v.516c0 .08.04.12.12.12h2.256c.032 0 .048.016.048.048v7.476c0 .08.04.12.12.12h.612zm6.106.096c.576 0 1.07-.148 1.482-.444.412-.296.694-.704.846-1.224.112-.336.168-.828.168-1.476 0-.64-.056-1.132-.168-1.476a2.224 2.224 0 0 0-.846-1.2c-.412-.296-.902-.444-1.47-.444-.592 0-1.096.148-1.512.444-.416.296-.7.7-.852 1.212-.112.36-.168.848-.168 1.464s.056 1.108.168 1.476c.16.52.448.928.864 1.224.416.296.912.444 1.488.444zm0-.744c-.4 0-.738-.106-1.014-.318a1.492 1.492 0 0 1-.546-.858c-.064-.28-.096-.684-.096-1.212 0-.528.032-.932.096-1.212.096-.36.28-.646.552-.858.272-.212.604-.318.996-.318s.726.106 1.002.318c.276.212.462.498.558.858.064.28.096.684.096 1.212 0 .52-.036.924-.108 1.212-.096.36-.28.646-.552.858-.272.212-.6.318-.984.318zm6.79.66c.2 0 .349-.004.445-.012.08 0 .12-.04.12-.12v-.492c0-.08-.04-.12-.12-.12h-.3c-.368 0-.638-.078-.81-.234-.172-.156-.258-.426-.258-.81v-3.54c0-.032.016-.048.048-.048h1.356c.08 0 .12-.04.12-.12v-.468c0-.08-.04-.12-.12-.12h-1.356c-.032 0-.048-.016-.048-.048V9.488c0-.08-.04-.12-.12-.12h-.588c-.08 0-.12.04-.12.12v1.392c0 .032-.016.048-.048.048h-.732c-.08 0-.12.04-.12.12v.468c0 .08.04.12.12.12h.732c.032 0 .048.016.048.048v3.804c0 .584.148.984.444 1.2.296.216.732.324 1.308.324zm4.355.084c.392 0 .748-.062 1.068-.186.32-.124.58-.306.78-.546.016-.016.03-.02.042-.012a.04.04 0 0 1 .018.036v.492c0 .08.04.12.12.12h.612c.08 0 .12-.04.12-.12v-4.032c0-.608-.196-1.096-.588-1.464-.392-.368-.948-.552-1.668-.552-.624 0-1.144.14-1.56.42-.416.28-.656.644-.72 1.092-.016.048.02.08.108.096l.648.084c.072.008.12-.028.144-.108a.93.93 0 0 1 .444-.618c.24-.148.552-.222.936-.222.48 0 .834.118 1.062.354.228.236.342.558.342.966v.456c0 .032-.016.048-.048.048h-1.392c-.776 0-1.382.174-1.818.522-.436.348-.654.822-.654 1.422 0 .592.192 1.032.576 1.32.384.288.86.432 1.428.432zm.168-.732c-.392 0-.71-.09-.954-.27-.244-.18-.366-.446-.366-.798 0-.384.16-.684.48-.9.32-.216.744-.324 1.272-.324h1.26c.032 0 .048.016.048.048v.936c0 .4-.172.718-.516.954-.344.236-.752.354-1.224.354zm5.614.636c.08 0 .12-.04.12-.12V8.72c0-.08-.04-.12-.12-.12h-.612c-.08 0-.12.04-.12.12v8.16c0 .08.04.12.12.12h.612zm6.273 0c.08 0 .12-.04.12-.12v-3.576c0-.032.016-.048.048-.048h2.34c.712 0 1.286-.212 1.722-.636.436-.424.654-.984.654-1.68 0-.704-.214-1.272-.642-1.704-.428-.432-.994-.648-1.698-.648h-3.156c-.08 0-.12.04-.12.12v8.172c0 .08.04.12.12.12h.612zm2.448-4.452h-2.28c-.032 0-.048-.016-.048-.048V9.38c0-.032.016-.048.048-.048h2.28c.472 0 .856.148 1.152.444.296.296.444.688.444 1.176 0 .48-.148.866-.444 1.158-.296.292-.68.438-1.152.438zM211.512 17c.08 0 .12-.04.12-.12v-3.54c0-.448.136-.818.408-1.11a1.43 1.43 0 0 1 1.032-.462l.156-.012c.176 0 .332.028.468.084.08.032.132.008.156-.072l.132-.588c.016-.072-.008-.124-.072-.156a1.416 1.416 0 0 0-.684-.156c-.344 0-.646.082-.906.246a1.91 1.91 0 0 0-.642.69c-.008.016-.018.022-.03.018s-.018-.018-.018-.042v-.732c0-.08-.04-.12-.12-.12h-.612c-.08 0-.12.04-.12.12v5.832c0 .08.04.12.12.12h.612zm6.406.096c.576 0 1.07-.148 1.482-.444.412-.296.694-.704.846-1.224.112-.336.168-.828.168-1.476 0-.64-.056-1.132-.168-1.476a2.224 2.224 0 0 0-.846-1.2c-.412-.296-.902-.444-1.47-.444-.592 0-1.096.148-1.512.444-.416.296-.7.7-.852 1.212-.112.36-.168.848-.168 1.464s.056 1.108.168 1.476c.16.52.448.928.864 1.224.416.296.912.444 1.488.444zm0-.744c-.4 0-.738-.106-1.014-.318a1.492 1.492 0 0 1-.546-.858c-.064-.28-.096-.684-.096-1.212 0-.528.032-.932.096-1.212.096-.36.28-.646.552-.858.272-.212.604-.318.996-.318s.726.106 1.002.318c.276.212.462.498.558.858.064.28.096.684.096 1.212 0 .52-.036.924-.108 1.212-.096.36-.28.646-.552.858-.272.212-.6.318-.984.318zm9.587-6.528a.651.651 0 0 0 .48-.192.651.651 0 0 0 .192-.48.646.646 0 0 0-.672-.672.646.646 0 0 0-.672.672c0 .192.064.352.192.48a.651.651 0 0 0 .48.192zM223.797 17c.08 0 .12-.04.12-.12v-5.124c0-.032.016-.048.048-.048h1.344c.08 0 .12-.04.12-.12v-.54c0-.08-.04-.12-.12-.12h-1.344c-.032 0-.048-.016-.048-.048v-.24c0-.472.08-.806.24-1.002.16-.196.46-.294.9-.294h.276c.08 0 .12-.04.12-.12V8.72c0-.08-.04-.12-.12-.12h-.348c-.496 0-.882.066-1.158.198-.276.132-.47.34-.582.624-.112.284-.168.674-.168 1.17v.288c0 .032-.016.048-.048.048h-.804c-.08 0-.12.04-.12.12v.54c0 .08.04.12.12.12h.804c.032 0 .048.016.048.048v5.124c0 .08.04.12.12.12h.6zm3.984-.012c.08 0 .12-.04.12-.12v-5.832c0-.08-.04-.12-.12-.12h-.612c-.08 0-.12.04-.12.12v5.832c0 .08.04.12.12.12h.612zm4.858.024c.2 0 .348-.004.444-.012.08 0 .12-.04.12-.12v-.492c0-.08-.04-.12-.12-.12h-.3c-.368 0-.638-.078-.81-.234-.172-.156-.258-.426-.258-.81v-3.54c0-.032.016-.048.048-.048h1.356c.08 0 .12-.04.12-.12v-.468c0-.08-.04-.12-.12-.12h-1.356c-.032 0-.048-.016-.048-.048V9.488c0-.08-.04-.12-.12-.12h-.588c-.08 0-.12.04-.12.12v1.392c0 .032-.016.048-.048.048h-.732c-.08 0-.12.04-.12.12v.468c0 .08.04.12.12.12h.732c.032 0 .048.016.048.048v3.804c0 .584.148.984.444 1.2.296.216.732.324 1.308.324z"/>
                <path d="M173.964 41c.08 0 .12-.04.12-.12v-8.16c0-.08-.04-.12-.12-.12h-.648a.344.344 0 0 0-.156.036l-1.38.732c-.056.04-.084.08-.084.12v.024l.06.456c.016.064.048.096.096.096l.048-.012 1.272-.516c.016-.008.03-.008.042 0a.04.04 0 0 1 .018.036v7.308c0 .08.04.12.12.12h.612zm5.122.12c.776 0 1.396-.22 1.86-.66.464-.44.696-1.028.696-1.764v-3.792c0-.728-.232-1.312-.696-1.752-.464-.44-1.084-.66-1.86-.66-.768 0-1.38.218-1.836.654-.456.436-.684 1.022-.684 1.758v3.792c0 .736.228 1.324.684 1.764.456.44 1.068.66 1.836.66zm0-.744c-.504 0-.908-.148-1.212-.444-.304-.296-.456-.692-.456-1.188v-3.876c0-.488.152-.88.456-1.176.304-.296.708-.444 1.212-.444.52 0 .934.148 1.242.444.308.296.462.688.462 1.176v3.876c0 .496-.156.892-.468 1.188-.312.296-.724.444-1.236.444zm7.295.744c.776 0 1.396-.22 1.86-.66.464-.44.696-1.028.696-1.764v-3.792c0-.728-.232-1.312-.696-1.752-.464-.44-1.084-.66-1.86-.66-.768 0-1.38.218-1.836.654-.456.436-.684 1.022-.684 1.758v3.792c0 .736.228 1.324.684 1.764.456.44 1.068.66 1.836.66zm0-.744c-.504 0-.908-.148-1.212-.444-.304-.296-.456-.692-.456-1.188v-3.876c0-.488.152-.88.456-1.176.304-.296.708-.444 1.212-.444.52 0 .934.148 1.242.444.308.296.462.688.462 1.176v3.876c0 .496-.156.892-.468 1.188-.312.296-.724.444-1.236.444zm5.578.6a.651.651 0 0 0 .48-.192.651.651 0 0 0 .192-.48.646.646 0 0 0-.672-.672c-.2 0-.362.062-.486.186a.657.657 0 0 0-.186.486.646.646 0 0 0 .672.672zm5.158.144c.776 0 1.396-.22 1.86-.66.464-.44.696-1.028.696-1.764v-3.792c0-.728-.232-1.312-.696-1.752-.464-.44-1.084-.66-1.86-.66-.768 0-1.38.218-1.836.654-.456.436-.684 1.022-.684 1.758v3.792c0 .736.228 1.324.684 1.764.456.44 1.068.66 1.836.66zm0-.744c-.504 0-.908-.148-1.212-.444-.304-.296-.456-.692-.456-1.188v-3.876c0-.488.152-.88.456-1.176.304-.296.708-.444 1.212-.444.52 0 .934.148 1.242.444.308.296.462.688.462 1.176v3.876c0 .496-.156.892-.468 1.188-.312.296-.724.444-1.236.444zm7.294.744c.776 0 1.396-.22 1.86-.66.464-.44.696-1.028.696-1.764v-3.792c0-.728-.232-1.312-.696-1.752-.464-.44-1.084-.66-1.86-.66-.768 0-1.38.218-1.836.654-.456.436-.684 1.022-.684 1.758v3.792c0 .736.228 1.324.684 1.764.456.44 1.068.66 1.836.66zm0-.744c-.504 0-.908-.148-1.212-.444-.304-.296-.456-.692-.456-1.188v-3.876c0-.488.152-.88.456-1.176.304-.296.708-.444 1.212-.444.52 0 .934.148 1.242.444.308.296.462.688.462 1.176v3.876c0 .496-.156.892-.468 1.188-.312.296-.724.444-1.236.444zm7.295.744c.776 0 1.396-.22 1.86-.66.464-.44.696-1.028.696-1.764v-3.792c0-.728-.232-1.312-.696-1.752-.464-.44-1.084-.66-1.86-.66-.768 0-1.38.218-1.836.654-.456.436-.684 1.022-.684 1.758v3.792c0 .736.228 1.324.684 1.764.456.44 1.068.66 1.836.66zm0-.744c-.504 0-.908-.148-1.212-.444-.304-.296-.456-.692-.456-1.188v-3.876c0-.488.152-.88.456-1.176.304-.296.708-.444 1.212-.444.52 0 .934.148 1.242.444.308.296.462.688.462 1.176v3.876c0 .496-.156.892-.468 1.188-.312.296-.724.444-1.236.444zM174.168 65.084c.576 0 1.068-.15 1.476-.45.408-.3.68-.706.816-1.218.072-.28.108-.616.108-1.008 0-.368-.036-.728-.108-1.08-.112-.504-.364-.894-.756-1.17-.392-.276-.872-.414-1.44-.414-.304 0-.592.05-.864.15-.272.1-.508.242-.708.426-.016.016-.03.02-.042.012a.04.04 0 0 1-.018-.036l.012-2.904c0-.032.016-.048.048-.048h3.42c.08 0 .12-.04.12-.12v-.504c0-.08-.04-.12-.12-.12h-4.2c-.08 0-.12.04-.12.12v4.644c0 .08.04.12.12.12h.648c.064 0 .108-.036.132-.108.08-.264.26-.476.54-.636.28-.16.596-.24.948-.24.392 0 .72.096.984.288.264.192.424.472.48.84.04.248.06.508.06.78 0 .296-.024.536-.072.72-.08.376-.25.672-.51.888-.26.216-.582.324-.966.324-.376 0-.69-.102-.942-.306a1.442 1.442 0 0 1-.498-.822 1.017 1.017 0 0 1-.048-.24c-.008-.08-.052-.12-.132-.12h-.636c-.072 0-.108.032-.108.096v.024c.016.176.052.352.108.528.144.48.416.864.816 1.152.4.288.884.432 1.452.432zm6.886.036c.776 0 1.396-.22 1.86-.66.464-.44.696-1.028.696-1.764v-3.792c0-.728-.232-1.312-.696-1.752-.464-.44-1.084-.66-1.86-.66-.768 0-1.38.218-1.836.654-.456.436-.684 1.022-.684 1.758v3.792c0 .736.228 1.324.684 1.764.456.44 1.068.66 1.836.66zm0-.744c-.504 0-.908-.148-1.212-.444-.304-.296-.456-.692-.456-1.188v-3.876c0-.488.152-.88.456-1.176.304-.296.708-.444 1.212-.444.52 0 .934.148 1.242.444.308.296.462.688.462 1.176v3.876c0 .496-.156.892-.468 1.188-.312.296-.724.444-1.236.444zm5.579.6a.651.651 0 0 0 .48-.192.651.651 0 0 0 .192-.48.646.646 0 0 0-.672-.672c-.2 0-.362.062-.486.186a.657.657 0 0 0-.186.486.646.646 0 0 0 .672.672zm5.158.144c.776 0 1.396-.22 1.86-.66.464-.44.696-1.028.696-1.764v-3.792c0-.728-.232-1.312-.696-1.752-.464-.44-1.084-.66-1.86-.66-.768 0-1.38.218-1.836.654-.456.436-.684 1.022-.684 1.758v3.792c0 .736.228 1.324.684 1.764.456.44 1.068.66 1.836.66zm0-.744c-.504 0-.908-.148-1.212-.444-.304-.296-.456-.692-.456-1.188v-3.876c0-.488.152-.88.456-1.176.304-.296.708-.444 1.212-.444.52 0 .934.148 1.242.444.308.296.462.688.462 1.176v3.876c0 .496-.156.892-.468 1.188-.312.296-.724.444-1.236.444zm7.294.744c.776 0 1.396-.22 1.86-.66.464-.44.696-1.028.696-1.764v-3.792c0-.728-.232-1.312-.696-1.752-.464-.44-1.084-.66-1.86-.66-.768 0-1.38.218-1.836.654-.456.436-.684 1.022-.684 1.758v3.792c0 .736.228 1.324.684 1.764.456.44 1.068.66 1.836.66zm0-.744c-.504 0-.908-.148-1.212-.444-.304-.296-.456-.692-.456-1.188v-3.876c0-.488.152-.88.456-1.176.304-.296.708-.444 1.212-.444.52 0 .934.148 1.242.444.308.296.462.688.462 1.176v3.876c0 .496-.156.892-.468 1.188-.312.296-.724.444-1.236.444zm7.294.744c.776 0 1.396-.22 1.86-.66.464-.44.696-1.028.696-1.764v-3.792c0-.728-.232-1.312-.696-1.752-.464-.44-1.084-.66-1.86-.66-.768 0-1.38.218-1.836.654-.456.436-.684 1.022-.684 1.758v3.792c0 .736.228 1.324.684 1.764.456.44 1.068.66 1.836.66zm0-.744c-.504 0-.908-.148-1.212-.444-.304-.296-.456-.692-.456-1.188v-3.876c0-.488.152-.88.456-1.176.304-.296.708-.444 1.212-.444.52 0 .934.148 1.242.444.308.296.462.688.462 1.176v3.876c0 .496-.156.892-.468 1.188-.312.296-.724.444-1.236.444zM176.616 89c.08 0 .12-.04.12-.12v-.504c0-.08-.04-.12-.12-.12h-3.768c-.04 0-.048-.02-.024-.06l.264-.312c1.12-1.352 1.876-2.28 2.268-2.784.752-.96 1.128-1.78 1.128-2.46 0-.408-.1-.774-.3-1.098a2.053 2.053 0 0 0-.852-.762c-.368-.184-.792-.276-1.272-.276-.68 0-1.242.188-1.686.564-.444.376-.674.872-.69 1.488v.48c0 .08.04.12.12.12h.624c.08 0 .12-.04.12-.12v-.372c-.008-.424.128-.766.408-1.026.28-.26.648-.39 1.104-.39.464 0 .84.128 1.128.384.288.256.432.596.432 1.02 0 .528-.376 1.268-1.128 2.22l-.888 1.104a144.454 144.454 0 0 1-1.836 2.256.196.196 0 0 0-.06.144v.504c0 .08.04.12.12.12h4.788zm4.702.12c.776 0 1.396-.22 1.86-.66.464-.44.696-1.028.696-1.764v-3.792c0-.728-.232-1.312-.696-1.752-.464-.44-1.084-.66-1.86-.66-.768 0-1.38.218-1.836.654-.456.436-.684 1.022-.684 1.758v3.792c0 .736.228 1.324.684 1.764.456.44 1.068.66 1.836.66zm0-.744c-.504 0-.908-.148-1.212-.444-.304-.296-.456-.692-.456-1.188v-3.876c0-.488.152-.88.456-1.176.304-.296.708-.444 1.212-.444.52 0 .934.148 1.242.444.308.296.462.688.462 1.176v3.876c0 .496-.156.892-.468 1.188-.312.296-.724.444-1.236.444zm5.579.6a.651.651 0 0 0 .48-.192.651.651 0 0 0 .192-.48.646.646 0 0 0-.672-.672c-.2 0-.362.062-.486.186a.657.657 0 0 0-.186.486.646.646 0 0 0 .672.672zm5.158.144c.776 0 1.396-.22 1.86-.66.464-.44.696-1.028.696-1.764v-3.792c0-.728-.232-1.312-.696-1.752-.464-.44-1.084-.66-1.86-.66-.768 0-1.38.218-1.836.654-.456.436-.684 1.022-.684 1.758v3.792c0 .736.228 1.324.684 1.764.456.44 1.068.66 1.836.66zm0-.744c-.504 0-.908-.148-1.212-.444-.304-.296-.456-.692-.456-1.188v-3.876c0-.488.152-.88.456-1.176.304-.296.708-.444 1.212-.444.52 0 .934.148 1.242.444.308.296.462.688.462 1.176v3.876c0 .496-.156.892-.468 1.188-.312.296-.724.444-1.236.444zm7.294.744c.776 0 1.396-.22 1.86-.66.464-.44.696-1.028.696-1.764v-3.792c0-.728-.232-1.312-.696-1.752-.464-.44-1.084-.66-1.86-.66-.768 0-1.38.218-1.836.654-.456.436-.684 1.022-.684 1.758v3.792c0 .736.228 1.324.684 1.764.456.44 1.068.66 1.836.66zm0-.744c-.504 0-.908-.148-1.212-.444-.304-.296-.456-.692-.456-1.188v-3.876c0-.488.152-.88.456-1.176.304-.296.708-.444 1.212-.444.52 0 .934.148 1.242.444.308.296.462.688.462 1.176v3.876c0 .496-.156.892-.468 1.188-.312.296-.724.444-1.236.444zm7.294.744c.776 0 1.396-.22 1.86-.66.464-.44.696-1.028.696-1.764v-3.792c0-.728-.232-1.312-.696-1.752-.464-.44-1.084-.66-1.86-.66-.768 0-1.38.218-1.836.654-.456.436-.684 1.022-.684 1.758v3.792c0 .736.228 1.324.684 1.764.456.44 1.068.66 1.836.66zm0-.744c-.504 0-.908-.148-1.212-.444-.304-.296-.456-.692-.456-1.188v-3.876c0-.488.152-.88.456-1.176.304-.296.708-.444 1.212-.444.52 0 .934.148 1.242.444.308.296.462.688.462 1.176v3.876c0 .496-.156.892-.468 1.188-.312.296-.724.444-1.236.444z" opacity=".5"/>
            </g>
            <path d="M157.491 0v96" opacity=".1" stroke="#FFF"/>
        </g>
        <path d="M370.298 42.112c.69 0 1.302-.13 1.834-.392a2.884 2.884 0 0 0 1.232-1.113c.29-.48.434-1.038.434-1.673a.126.126 0 0 0-.049-.098.177.177 0 0 0-.119-.042l-1.288-.056c-.112 0-.168.051-.168.154 0 .55-.17.992-.511 1.323-.34.331-.796.497-1.365.497-.57 0-1.027-.168-1.372-.504-.345-.336-.518-.775-.518-1.316v-3.57c0-.55.173-.994.518-1.33.345-.336.803-.504 1.372-.504.57 0 1.024.168 1.365.504.34.336.511.78.511 1.33 0 .103.056.154.168.154l1.288-.07a.162.162 0 0 0 .119-.049.162.162 0 0 0 .049-.119c0-.625-.145-1.176-.434-1.652-.29-.476-.7-.845-1.232-1.106-.532-.261-1.143-.392-1.834-.392-.7 0-1.316.135-1.848.406-.532.27-.943.653-1.232 1.148-.29.495-.434 1.069-.434 1.722v3.458c0 .653.145 1.227.434 1.722.29.495.7.88 1.232 1.155s1.148.413 1.848.413zm8.706 0c.719 0 1.34-.189 1.862-.567.523-.378.891-.898 1.106-1.561a5.028 5.028 0 0 0 .238-1.596c0-.616-.084-1.148-.252-1.596-.215-.644-.581-1.148-1.099-1.512-.518-.364-1.132-.546-1.841-.546-.747 0-1.386.182-1.918.546-.532.364-.905.873-1.12 1.526-.15.467-.224.999-.224 1.596 0 .56.08 1.092.238 1.596.215.663.586 1.18 1.113 1.554.527.373 1.16.56 1.897.56zm0-1.4c-.364 0-.674-.098-.931-.294-.257-.196-.436-.471-.539-.826a4.32 4.32 0 0 1-.14-1.176c0-.457.047-.85.14-1.176.112-.355.294-.628.546-.819a1.44 1.44 0 0 1 .896-.287c.364 0 .672.096.924.287.252.191.43.464.532.819.093.28.14.672.14 1.176 0 .476-.047.868-.14 1.176-.112.355-.292.63-.539.826a1.388 1.388 0 0 1-.889.294zM385.806 42a.162.162 0 0 0 .119-.049.162.162 0 0 0 .049-.119v-9.464a.162.162 0 0 0-.049-.119.162.162 0 0 0-.119-.049h-1.288a.162.162 0 0 0-.119.049.162.162 0 0 0-.049.119v9.464c0 .047.016.086.049.119a.162.162 0 0 0 .119.049h1.288zm4.912.098c.765 0 1.34-.247 1.722-.742.019-.028.037-.037.056-.028.019.01.028.028.028.056v.448c0 .047.016.086.049.119a.162.162 0 0 0 .119.049h1.274a.162.162 0 0 0 .119-.049.162.162 0 0 0 .049-.119v-6.818a.162.162 0 0 0-.049-.119.162.162 0 0 0-.119-.049h-1.274a.162.162 0 0 0-.119.049.162.162 0 0 0-.049.119v4.256c0 .439-.126.789-.378 1.05s-.588.392-1.008.392c-.41 0-.73-.13-.959-.392-.229-.261-.343-.611-.343-1.05v-4.256a.162.162 0 0 0-.049-.119.162.162 0 0 0-.119-.049h-1.288a.162.162 0 0 0-.119.049.162.162 0 0 0-.049.119v4.718c0 .756.24 1.34.721 1.75.48.41 1.076.616 1.785.616zm7.208-.098a.162.162 0 0 0 .119-.049.162.162 0 0 0 .049-.119v-4.55c.037-.355.17-.635.399-.84.229-.205.52-.308.875-.308.383 0 .69.126.924.378.233.252.35.593.35 1.022v4.298c0 .047.016.086.049.119a.162.162 0 0 0 .119.049h1.274a.162.162 0 0 0 .119-.049.162.162 0 0 0 .049-.119V37.52c0-.42.121-.756.364-1.008s.555-.378.938-.378c.383 0 .688.126.917.378.229.252.343.593.343 1.022v4.298c0 .047.016.086.049.119a.162.162 0 0 0 .119.049h1.274a.162.162 0 0 0 .119-.049.162.162 0 0 0 .049-.119v-4.634c0-.775-.203-1.379-.609-1.813-.406-.434-.968-.651-1.687-.651-.448 0-.854.089-1.218.266a1.92 1.92 0 0 0-.854.826c-.037.037-.07.037-.098 0a1.914 1.914 0 0 0-.798-.812c-.345-.187-.747-.28-1.204-.28-.373 0-.712.063-1.015.189-.303.126-.558.32-.763.581-.019.028-.037.037-.056.028-.019-.01-.028-.028-.028-.056v-.462a.162.162 0 0 0-.049-.119.162.162 0 0 0-.119-.049h-1.288a.162.162 0 0 0-.119.049.162.162 0 0 0-.049.119v6.818c0 .047.016.086.049.119a.162.162 0 0 0 .119.049h1.288zm12.206 0a.162.162 0 0 0 .119-.049.162.162 0 0 0 .049-.119v-4.27c0-.43.124-.775.371-1.036s.572-.392.973-.392.723.133.966.399.364.614.364 1.043v4.256c0 .047.016.086.049.119a.162.162 0 0 0 .119.049h1.288a.162.162 0 0 0 .119-.049.162.162 0 0 0 .049-.119V37.24c0-.775-.226-1.386-.679-1.834-.453-.448-1.057-.672-1.813-.672-.775 0-1.353.252-1.736.756-.01.028-.023.037-.042.028-.019-.01-.028-.028-.028-.056v-.448a.162.162 0 0 0-.049-.119.162.162 0 0 0-.119-.049h-1.288a.162.162 0 0 0-.119.049.162.162 0 0 0-.049.119v6.818c0 .047.016.086.049.119a.162.162 0 0 0 .119.049h1.288z" fill="#FFF" fill-rule="nonzero"/>
        <path d="m491.179 53.062-.485.875A3.482 3.482 0 0 0 489 53.5v-1c.772 0 1.518.195 2.179.562zm2.321 5.815h-1l-.002-1.993 1-.033.002.14v1.886zm0 6h-1v-2h1v2zm0 6h-1v-2h1v2zm0 6h-1v-2h1v2zm0 6h-1v-2h1v2zm0 6h-1v-2h1v2zm0 6h-1v-2h1v2zm0 6h-1v-2h1v2zm0 6h-1v-2h1v2zm-.495 6.176-.89-.457c.252-.49.385-1.032.385-1.596v-.123h1V111c0 .723-.171 1.423-.495 2.053zm-5.76 2.447v-1h1.772c.072 0 .144-.003.215-.008l.066.998c-.092.006-.184.01-.279.01h-1.773zm-6 0v-1h2v1h-2zm-6 0v-1h2v1h-2zm-6 0v-1h2v1h-2zm-6 0v-1h2v1h-2zm-6 0v-1h2v1h-2zm-6 0v-1h2v1h-2zm-6 0v-1h2v1h-2zm-6 0v-1h2v1h-2zm-6 0v-1h2v1h-2zm-6 0v-1h2v1h-2zm-6 0v-1h2v1h-2zm-6 0v-1h2v1h-2zm-6 0v-1h2v1h-2zm-6 0v-1h2v1h-2zm-6 0v-1h2v1h-2zm-6 0v-1h2v1h-2zm-6 0v-1h2v1h-2zm-6 0v-1h2v1h-2zm-6 0v-1h2v1h-2zm-6.124-1.041.64-.769c.455.379.997.637 1.581.748l-.186.983a4.484 4.484 0 0 1-2.035-.962zm-1.621-6.09h1v2h-1v-2zm0-6h1v2h-1v-2zm0-6h1v2h-1v-2zm0-6h1v2h-1v-2zm0-6h1v2h-1v-2zm0-6h1v2h-1v-2zm0-6h1v2h-1v-2zm0-6h1v2h-1v-2zm0-6h1v2h-1v-2zm.954-6.14.788.616a3.481 3.481 0 0 0-.699 1.604l-.988-.156a4.48 4.48 0 0 1 .9-2.064zm6.054-1.729v1h-2v-1h2zm6 0v1h-2v-1h2zm6 0v1h-2v-1h2zm6 0v1h-2v-1h2zm6 0v1h-2v-1h2zm6 0v1h-2v-1h2zm6 0v1h-2v-1h2zm6 0v1h-2v-1h2zm6 0v1h-2v-1h2zm6 0v1h-2v-1h2zm6 0v1h-2v-1h2zm6 0v1h-2v-1h2zm6 0v1h-2v-1h2zm6 0v1h-2v-1h2zm6 0v1h-2v-1h2zm6 0v1h-2v-1h2zm6 0v1h-2v-1h2zm6 0v1h-2v-1h2zm6 0v1h-2v-1h2zm6 0v1h-2v-1h2z" fill="#FFF" fill-rule="nonzero" opacity=".4"/>
        <g fill="#FFF" fill-rule="nonzero">
            <path d="M378.17 73c.093 0 .14-.047.14-.14l-.014-7.714c0-.028.01-.044.028-.049.019-.005.033.007.042.035l4.774 7.77c.047.065.103.098.168.098h.7c.093 0 .14-.047.14-.14v-9.52c0-.093-.047-.14-.14-.14h-.714c-.093 0-.14.047-.14.14l.014 7.714c0 .028-.01.044-.028.049-.019.005-.033-.007-.042-.035l-4.774-7.77c-.047-.065-.103-.098-.168-.098h-.7c-.093 0-.14.047-.14.14v9.52c0 .093.047.14.14.14h.714zm11.316.112c.672 0 1.248-.173 1.729-.518.48-.345.81-.821.987-1.428.13-.392.196-.966.196-1.722 0-.747-.065-1.32-.196-1.722a2.595 2.595 0 0 0-.987-1.4c-.48-.345-1.052-.518-1.715-.518-.69 0-1.279.173-1.764.518a2.583 2.583 0 0 0-.994 1.414c-.13.42-.196.99-.196 1.708 0 .719.065 1.293.196 1.722.187.607.523 1.083 1.008 1.428s1.064.518 1.736.518zm0-.868c-.467 0-.861-.124-1.183-.371a1.741 1.741 0 0 1-.637-1.001c-.075-.327-.112-.798-.112-1.414 0-.616.037-1.087.112-1.414.112-.42.327-.754.644-1.001.317-.247.705-.371 1.162-.371.457 0 .847.124 1.169.371.322.247.539.581.651 1.001.075.327.112.798.112 1.414 0 .607-.042 1.078-.126 1.414-.112.42-.327.754-.644 1.001-.317.247-.7.371-1.148.371zm5.982.756c.093 0 .14-.047.14-.14v-4.452c0-.513.159-.929.476-1.246.317-.317.733-.476 1.246-.476.495 0 .898.163 1.211.49.313.327.469.747.469 1.26v4.424c0 .093.047.14.14.14h.714c.093 0 .14-.047.14-.14v-4.62c0-.737-.222-1.325-.665-1.764-.443-.439-1.038-.658-1.785-.658-.85 0-1.48.29-1.89.868-.01.019-.021.023-.035.014a.047.047 0 0 1-.021-.042v-.602c0-.093-.047-.14-.14-.14h-.714c-.093 0-.14.047-.14.14v6.804c0 .093.047.14.14.14h.714zm9.468.126c.607 0 1.143-.128 1.61-.385a2.52 2.52 0 0 0 1.05-1.057c.037-.084.019-.15-.056-.196l-.546-.322c-.075-.047-.14-.028-.196.056a1.83 1.83 0 0 1-.7.756 1.99 1.99 0 0 1-1.036.266c-.523 0-.952-.121-1.288-.364a1.674 1.674 0 0 1-.658-.994c-.037-.15-.065-.48-.084-.994 0-.037.019-.056.056-.056h4.522c.093 0 .14-.047.14-.14v-.448a7.12 7.12 0 0 0-.056-.98c-.112-.784-.397-1.39-.854-1.82-.457-.43-1.11-.644-1.96-.644-.681 0-1.262.182-1.743.546-.48.364-.8.85-.959 1.456a3.055 3.055 0 0 0-.105.665c-.014.247-.021.567-.021.959 0 .84.084 1.484.252 1.932.196.55.518.98.966 1.288.448.308 1.003.467 1.666.476zm1.778-4.13h-3.626c-.037 0-.056-.019-.056-.056.019-.439.056-.756.112-.952.093-.401.292-.721.595-.959s.684-.357 1.141-.357c.476 0 .87.124 1.183.371.313.247.52.581.623 1.001.037.177.065.476.084.896 0 .037-.019.056-.056.056zm9.388 4.116c.69 0 1.302-.13 1.834-.392a2.884 2.884 0 0 0 1.232-1.113c.29-.48.434-1.038.434-1.673a.126.126 0 0 0-.049-.098.177.177 0 0 0-.119-.042l-1.288-.056c-.112 0-.168.051-.168.154 0 .55-.17.992-.511 1.323-.34.331-.796.497-1.365.497-.57 0-1.027-.168-1.372-.504-.345-.336-.518-.775-.518-1.316v-3.57c0-.55.173-.994.518-1.33.345-.336.803-.504 1.372-.504.57 0 1.024.168 1.365.504.34.336.511.78.511 1.33 0 .103.056.154.168.154l1.288-.07a.162.162 0 0 0 .119-.049.162.162 0 0 0 .049-.119c0-.625-.145-1.176-.434-1.652-.29-.476-.7-.845-1.232-1.106-.532-.261-1.143-.392-1.834-.392-.7 0-1.316.135-1.848.406-.532.27-.943.653-1.232 1.148-.29.495-.434 1.069-.434 1.722v3.458c0 .653.145 1.227.434 1.722.29.495.7.88 1.232 1.155s1.148.413 1.848.413zm8.306 0c.719 0 1.34-.189 1.862-.567.523-.378.891-.898 1.106-1.561a5.028 5.028 0 0 0 .238-1.596c0-.616-.084-1.148-.252-1.596-.215-.644-.581-1.148-1.099-1.512-.518-.364-1.132-.546-1.841-.546-.747 0-1.386.182-1.918.546-.532.364-.905.873-1.12 1.526-.15.467-.224.999-.224 1.596 0 .56.08 1.092.238 1.596.215.663.586 1.18 1.113 1.554.527.373 1.16.56 1.897.56zm0-1.4c-.364 0-.674-.098-.931-.294-.257-.196-.436-.471-.539-.826a4.32 4.32 0 0 1-.14-1.176c0-.457.047-.85.14-1.176.112-.355.294-.628.546-.819a1.44 1.44 0 0 1 .896-.287c.364 0 .672.096.924.287.252.191.43.464.532.819.093.28.14.672.14 1.176 0 .476-.047.868-.14 1.176-.112.355-.292.63-.539.826a1.388 1.388 0 0 1-.889.294zm7.368 1.386c.765 0 1.34-.247 1.722-.742.019-.028.037-.037.056-.028.019.01.028.028.028.056v.448c0 .047.016.086.049.119a.162.162 0 0 0 .119.049h1.274a.162.162 0 0 0 .119-.049.162.162 0 0 0 .049-.119v-6.818a.162.162 0 0 0-.049-.119.162.162 0 0 0-.119-.049h-1.274a.162.162 0 0 0-.119.049.162.162 0 0 0-.049.119v4.256c0 .439-.126.789-.378 1.05s-.588.392-1.008.392c-.41 0-.73-.13-.959-.392-.229-.261-.343-.611-.343-1.05v-4.256a.162.162 0 0 0-.049-.119.162.162 0 0 0-.119-.049h-1.288a.162.162 0 0 0-.119.049.162.162 0 0 0-.049.119v4.718c0 .756.24 1.34.721 1.75.48.41 1.076.616 1.785.616zm6.808-.098a.162.162 0 0 0 .119-.049.162.162 0 0 0 .049-.119v-4.27c0-.43.124-.775.371-1.036s.572-.392.973-.392.723.133.966.399.364.614.364 1.043v4.256c0 .047.016.086.049.119a.162.162 0 0 0 .119.049h1.288a.162.162 0 0 0 .119-.049.162.162 0 0 0 .049-.119V68.24c0-.775-.226-1.386-.679-1.834-.453-.448-1.057-.672-1.813-.672-.775 0-1.353.252-1.736.756-.01.028-.023.037-.042.028-.019-.01-.028-.028-.028-.056v-.448a.162.162 0 0 0-.049-.119.162.162 0 0 0-.119-.049h-1.288a.162.162 0 0 0-.119.049.162.162 0 0 0-.049.119v6.818c0 .047.016.086.049.119a.162.162 0 0 0 .119.049h1.288zm9.146.028.728-.014c.112-.019.168-.08.168-.182v-1.05a.162.162 0 0 0-.049-.119.162.162 0 0 0-.119-.049h-.42c-.336 0-.581-.08-.735-.238-.154-.159-.231-.415-.231-.77v-3.374c0-.047.023-.07.07-.07h1.428a.162.162 0 0 0 .119-.049.162.162 0 0 0 .049-.119v-.98a.162.162 0 0 0-.049-.119.162.162 0 0 0-.119-.049h-1.428c-.047 0-.07-.023-.07-.07v-1.638a.162.162 0 0 0-.049-.119.162.162 0 0 0-.119-.049h-1.218a.162.162 0 0 0-.119.049.162.162 0 0 0-.049.119v1.638c0 .047-.023.07-.07.07h-.798a.162.162 0 0 0-.119.049.162.162 0 0 0-.049.119v.98c0 .047.016.086.049.119a.162.162 0 0 0 .119.049h.798c.047 0 .07.023.07.07v3.99c.01.7.196 1.176.56 1.428.364.252.915.378 1.652.378zm4.106-.028a.162.162 0 0 0 .119-.049.162.162 0 0 0 .049-.119V68.87c0-.41.13-.744.392-1.001.261-.257.588-.394.98-.413.065-.01.159-.014.28-.014.187 0 .35.023.49.07.121.047.187.014.196-.098l.238-1.26c.019-.103-.01-.173-.084-.21a1.621 1.621 0 0 0-.784-.182c-.7 0-1.246.303-1.638.91-.019.028-.035.04-.049.035-.014-.005-.021-.026-.021-.063v-.63a.162.162 0 0 0-.049-.119.162.162 0 0 0-.119-.049h-1.288a.162.162 0 0 0-.119.049.162.162 0 0 0-.049.119v6.818c0 .047.016.086.049.119a.162.162 0 0 0 .119.049h1.288zm4.204 2.786c.71 0 1.258-.07 1.645-.21.387-.14.693-.373.917-.7.224-.327.453-.821.686-1.484l2.464-7.364c.019-.065.016-.114-.007-.147-.023-.033-.063-.049-.119-.049h-1.33c-.103 0-.168.047-.196.14l-1.4 4.928c-.01.028-.023.042-.042.042-.019 0-.033-.014-.042-.042l-1.4-4.928c-.028-.093-.093-.14-.196-.14h-1.372c-.093 0-.14.042-.14.126 0 .028.005.051.014.07l2.31 6.93c.01.037.01.065 0 .084-.112.392-.238.686-.378.882a1.04 1.04 0 0 1-.532.399c-.215.07-.513.11-.896.119h-.014a.162.162 0 0 0-.119.049.162.162 0 0 0-.049.119v1.008c0 .047.01.086.028.119.019.033.042.049.07.049h.098zM376 73.35v.7h32.824v-.7z"/>
        </g>
        <g fill="#FFF" fill-rule="nonzero">
            <path d="M378.17 102c.093 0 .14-.047.14-.14l-.014-7.714c0-.028.01-.044.028-.049.019-.005.033.007.042.035l4.774 7.77c.047.065.103.098.168.098h.7c.093 0 .14-.047.14-.14v-9.52c0-.093-.047-.14-.14-.14h-.714c-.093 0-.14.047-.14.14l.014 7.714c0 .028-.01.044-.028.049-.019.005-.033-.007-.042-.035l-4.774-7.77c-.047-.065-.103-.098-.168-.098h-.7c-.093 0-.14.047-.14.14v9.52c0 .093.047.14.14.14h.714zm11.316.112c.672 0 1.248-.173 1.729-.518.48-.345.81-.821.987-1.428.13-.392.196-.966.196-1.722 0-.747-.065-1.32-.196-1.722a2.595 2.595 0 0 0-.987-1.4c-.48-.345-1.052-.518-1.715-.518-.69 0-1.279.173-1.764.518a2.583 2.583 0 0 0-.994 1.414c-.13.42-.196.99-.196 1.708 0 .719.065 1.293.196 1.722.187.607.523 1.083 1.008 1.428s1.064.518 1.736.518zm0-.868c-.467 0-.861-.124-1.183-.371a1.741 1.741 0 0 1-.637-1.001c-.075-.327-.112-.798-.112-1.414 0-.616.037-1.087.112-1.414.112-.42.327-.754.644-1.001.317-.247.705-.371 1.162-.371.457 0 .847.124 1.169.371.322.247.539.581.651 1.001.075.327.112.798.112 1.414 0 .607-.042 1.078-.126 1.414-.112.42-.327.754-.644 1.001-.317.247-.7.371-1.148.371zm5.982.756c.093 0 .14-.047.14-.14v-4.452c0-.513.159-.929.476-1.246.317-.317.733-.476 1.246-.476.495 0 .898.163 1.211.49.313.327.469.747.469 1.26v4.424c0 .093.047.14.14.14h.714c.093 0 .14-.047.14-.14v-4.62c0-.737-.222-1.325-.665-1.764-.443-.439-1.038-.658-1.785-.658-.85 0-1.48.29-1.89.868-.01.019-.021.023-.035.014a.047.047 0 0 1-.021-.042v-.602c0-.093-.047-.14-.14-.14h-.714c-.093 0-.14.047-.14.14v6.804c0 .093.047.14.14.14h.714zm9.468.126c.607 0 1.143-.128 1.61-.385a2.52 2.52 0 0 0 1.05-1.057c.037-.084.019-.15-.056-.196l-.546-.322c-.075-.047-.14-.028-.196.056a1.83 1.83 0 0 1-.7.756 1.99 1.99 0 0 1-1.036.266c-.523 0-.952-.121-1.288-.364a1.674 1.674 0 0 1-.658-.994c-.037-.15-.065-.48-.084-.994 0-.037.019-.056.056-.056h4.522c.093 0 .14-.047.14-.14v-.448a7.12 7.12 0 0 0-.056-.98c-.112-.784-.397-1.39-.854-1.82-.457-.43-1.11-.644-1.96-.644-.681 0-1.262.182-1.743.546-.48.364-.8.85-.959 1.456a3.055 3.055 0 0 0-.105.665c-.014.247-.021.567-.021.959 0 .84.084 1.484.252 1.932.196.55.518.98.966 1.288.448.308 1.003.467 1.666.476zm1.778-4.13h-3.626c-.037 0-.056-.019-.056-.056.019-.439.056-.756.112-.952.093-.401.292-.721.595-.959s.684-.357 1.141-.357c.476 0 .87.124 1.183.371.313.247.52.581.623 1.001.037.177.065.476.084.896 0 .037-.019.056-.056.056zm9.738 4.004a.162.162 0 0 0 .119-.049.162.162 0 0 0 .049-.119v-8.148c0-.047.023-.07.07-.07h2.576a.162.162 0 0 0 .119-.049.162.162 0 0 0 .049-.119v-1.078a.162.162 0 0 0-.049-.119.162.162 0 0 0-.119-.049h-6.818a.162.162 0 0 0-.119.049.162.162 0 0 0-.049.119v1.078c0 .047.016.086.049.119a.162.162 0 0 0 .119.049h2.478c.047 0 .07.023.07.07v8.148c0 .047.016.086.049.119a.162.162 0 0 0 .119.049h1.288zm6.458.112c.719 0 1.34-.189 1.862-.567.523-.378.891-.898 1.106-1.561a5.028 5.028 0 0 0 .238-1.596c0-.616-.084-1.148-.252-1.596-.215-.644-.581-1.148-1.099-1.512-.518-.364-1.132-.546-1.841-.546-.747 0-1.386.182-1.918.546-.532.364-.905.873-1.12 1.526-.15.467-.224.999-.224 1.596 0 .56.08 1.092.238 1.596.215.663.586 1.18 1.113 1.554.527.373 1.16.56 1.897.56zm0-1.4c-.364 0-.674-.098-.931-.294-.257-.196-.436-.471-.539-.826a4.32 4.32 0 0 1-.14-1.176c0-.457.047-.85.14-1.176.112-.355.294-.628.546-.819a1.44 1.44 0 0 1 .896-.287c.364 0 .672.096.924.287.252.191.43.464.532.819.093.28.14.672.14 1.176 0 .476-.047.868-.14 1.176-.112.355-.292.63-.539.826a1.388 1.388 0 0 1-.889.294zm7.578 1.316.728-.014c.112-.019.168-.08.168-.182v-1.05a.162.162 0 0 0-.049-.119.162.162 0 0 0-.119-.049h-.42c-.336 0-.581-.08-.735-.238-.154-.159-.231-.415-.231-.77v-3.374c0-.047.023-.07.07-.07h1.428a.162.162 0 0 0 .119-.049.162.162 0 0 0 .049-.119v-.98a.162.162 0 0 0-.049-.119.162.162 0 0 0-.119-.049H429.9c-.047 0-.07-.023-.07-.07v-1.638a.162.162 0 0 0-.049-.119.162.162 0 0 0-.119-.049h-1.218a.162.162 0 0 0-.119.049.162.162 0 0 0-.049.119v1.638c0 .047-.023.07-.07.07h-.798a.162.162 0 0 0-.119.049.162.162 0 0 0-.049.119v.98c0 .047.016.086.049.119a.162.162 0 0 0 .119.049h.798c.047 0 .07.023.07.07v3.99c.01.7.196 1.176.56 1.428.364.252.915.378 1.652.378zm4.638.084c.868 0 1.53-.252 1.988-.756.019-.019.037-.026.056-.021.019.005.028.021.028.049v.448c0 .047.016.086.049.119a.162.162 0 0 0 .119.049h1.288a.162.162 0 0 0 .119-.049.162.162 0 0 0 .049-.119v-4.718c0-.457-.121-.866-.364-1.225-.243-.36-.588-.642-1.036-.847-.448-.205-.966-.308-1.554-.308-.812 0-1.486.182-2.023.546-.537.364-.842.83-.917 1.4-.01.037.002.068.035.091.033.023.072.04.119.049l1.358.168c.103.019.168-.028.196-.14a.822.822 0 0 1 .413-.525c.22-.126.506-.189.861-.189.43 0 .751.1.966.301.215.2.322.483.322.847v.336c0 .047-.023.07-.07.07h-1.498c-.924 0-1.64.203-2.149.609-.509.406-.763.973-.763 1.701 0 .7.226 1.227.679 1.582.453.355 1.029.532 1.729.532zm.406-1.288c-.345 0-.628-.082-.847-.245-.22-.163-.329-.394-.329-.693 0-.345.142-.611.427-.798.285-.187.674-.28 1.169-.28h1.176c.047 0 .07.023.07.07v.658c0 .373-.163.681-.49.924-.327.243-.719.364-1.176.364zm6.57 1.176a.162.162 0 0 0 .119-.049.162.162 0 0 0 .049-.119v-9.464a.162.162 0 0 0-.049-.119.162.162 0 0 0-.119-.049h-1.288a.162.162 0 0 0-.119.049.162.162 0 0 0-.049.119v9.464c0 .047.016.086.049.119a.162.162 0 0 0 .119.049h1.288zm6.616 0a.162.162 0 0 0 .119-.049.162.162 0 0 0 .049-.119v-3.766c0-.047.023-.07.07-.07h2.24c.607 0 1.141-.119 1.603-.357a2.556 2.556 0 0 0 1.071-1.015c.252-.439.378-.943.378-1.512 0-.579-.124-1.09-.371-1.533a2.575 2.575 0 0 0-1.043-1.029c-.448-.243-.966-.364-1.554-.364h-3.85a.162.162 0 0 0-.119.049.162.162 0 0 0-.049.119v9.478c0 .047.016.086.049.119a.162.162 0 0 0 .119.049h1.288zm2.324-5.32h-2.086c-.047 0-.07-.023-.07-.07v-2.954c0-.047.023-.07.07-.07h2.086c.476 0 .859.145 1.148.434.29.29.434.667.434 1.134 0 .457-.145.826-.434 1.106-.29.28-.672.42-1.148.42zm6.136 5.32a.162.162 0 0 0 .119-.049.162.162 0 0 0 .049-.119V97.87c0-.41.13-.744.392-1.001.261-.257.588-.394.98-.413.065-.01.159-.014.28-.014.187 0 .35.023.49.07.121.047.187.014.196-.098l.238-1.26c.019-.103-.01-.173-.084-.21a1.621 1.621 0 0 0-.784-.182c-.7 0-1.246.303-1.638.91-.019.028-.035.04-.049.035-.014-.005-.021-.026-.021-.063v-.63a.162.162 0 0 0-.049-.119.162.162 0 0 0-.119-.049h-1.288a.162.162 0 0 0-.119.049.162.162 0 0 0-.049.119v6.818c0 .047.016.086.049.119a.162.162 0 0 0 .119.049h1.288zm6.906.112c.719 0 1.34-.189 1.862-.567.523-.378.891-.898 1.106-1.561a5.028 5.028 0 0 0 .238-1.596c0-.616-.084-1.148-.252-1.596-.215-.644-.581-1.148-1.099-1.512-.518-.364-1.132-.546-1.841-.546-.747 0-1.386.182-1.918.546-.532.364-.905.873-1.12 1.526-.15.467-.224.999-.224 1.596 0 .56.08 1.092.238 1.596.215.663.586 1.18 1.113 1.554.527.373 1.16.56 1.897.56zm0-1.4c-.364 0-.674-.098-.931-.294-.257-.196-.436-.471-.539-.826a4.32 4.32 0 0 1-.14-1.176c0-.457.047-.85.14-1.176.112-.355.294-.628.546-.819a1.44 1.44 0 0 1 .896-.287c.364 0 .672.096.924.287.252.191.43.464.532.819.093.28.14.672.14 1.176 0 .476-.047.868-.14 1.176-.112.355-.292.63-.539.826a1.388 1.388 0 0 1-.889.294zm11.134-6.846c.29 0 .527-.093.714-.28a.967.967 0 0 0 .28-.714.967.967 0 0 0-.28-.714.967.967 0 0 0-.714-.28.967.967 0 0 0-.714.28.967.967 0 0 0-.28.714c0 .29.093.527.28.714.187.187.425.28.714.28zM471.13 102a.162.162 0 0 0 .119-.049.162.162 0 0 0 .049-.119v-5.488c0-.047.023-.07.07-.07h1.386a.162.162 0 0 0 .119-.049.162.162 0 0 0 .049-.119V95a.162.162 0 0 0-.049-.119.162.162 0 0 0-.119-.049h-1.386c-.047 0-.07-.023-.07-.07v-.14c0-.42.077-.71.231-.868.154-.159.432-.238.833-.238h.364a.162.162 0 0 0 .119-.049.162.162 0 0 0 .049-.119v-.98a.162.162 0 0 0-.049-.119.162.162 0 0 0-.119-.049h-.731c-.548.008-.98.073-1.299.196a1.38 1.38 0 0 0-.784.707c-.159.331-.238.8-.238 1.407v.252c0 .047-.023.07-.07.07h-.868a.162.162 0 0 0-.119.049.162.162 0 0 0-.049.119v1.106c0 .047.016.086.049.119a.162.162 0 0 0 .119.049h.868c.047 0 .07.023.07.07v5.488c0 .047.016.086.049.119a.162.162 0 0 0 .119.049h1.288zm4.704 0a.162.162 0 0 0 .119-.049.162.162 0 0 0 .049-.119V95a.162.162 0 0 0-.049-.119.162.162 0 0 0-.119-.049h-1.288a.162.162 0 0 0-.119.049.162.162 0 0 0-.049.119v6.832c0 .047.016.086.049.119a.162.162 0 0 0 .119.049h1.288zm5.016.028.728-.014c.112-.019.168-.08.168-.182v-1.05a.162.162 0 0 0-.049-.119.162.162 0 0 0-.119-.049h-.42c-.336 0-.581-.08-.735-.238-.154-.159-.231-.415-.231-.77v-3.374c0-.047.023-.07.07-.07h1.428a.162.162 0 0 0 .119-.049.162.162 0 0 0 .049-.119v-.98a.162.162 0 0 0-.049-.119.162.162 0 0 0-.119-.049h-1.428c-.047 0-.07-.023-.07-.07v-1.638a.162.162 0 0 0-.049-.119.162.162 0 0 0-.119-.049h-1.218a.162.162 0 0 0-.119.049.162.162 0 0 0-.049.119v1.638c0 .047-.023.07-.07.07h-.798a.162.162 0 0 0-.119.049.162.162 0 0 0-.049.119v.98c0 .047.016.086.049.119a.162.162 0 0 0 .119.049h.798c.047 0 .07.023.07.07v3.99c.01.7.196 1.176.56 1.428.364.252.915.378 1.652.378zM376 102.35v.7h32.824v-.7z"/>
        </g>
        <path fill="#FFF" fill-rule="nonzero" opacity=".5" d="M321.25.75v66.5h44.171l-5.169-2.907.246-.436 6 3.375.387.218-.387.218-6 3.375-.246-.436 5.169-2.907H320.75V1.25h-221V30h-.5V.75z"/>
    </g>
</svg>
