<svg xmlns="http://www.w3.org/2000/svg" width="395" height="97" viewBox="0 0 395 97">
    <g fill="none" fill-rule="evenodd">
        <g fill-rule="nonzero">
            <g>
                <g>
                    <g>
                        <g fill="#FFF">
                            <path d="M4.956 9.8c.093 0 .154-.047.182-.14L8.12.196c.019-.056.014-.103-.014-.14C8.078.019 8.036 0 7.98 0H6.622c-.103 0-.168.047-.196.14L4.34 7.448c-.01.028-.023.042-.042.042-.019 0-.033-.014-.042-.042L2.156.14C2.128.047 2.063 0 1.96 0H.574C.471 0 .42.047.42.14l.014.056 2.94 9.464c.028.093.089.14.182.14h1.4zm6.256.112c.868 0 1.53-.252 1.988-.756.019-.019.037-.026.056-.021.019.005.028.021.028.049v.448c0 .047.016.086.049.119s.072.049.119.049h1.288c.047 0 .086-.016.119-.049s.049-.072.049-.119V4.914c0-.457-.121-.866-.364-1.225-.243-.36-.588-.642-1.036-.847-.448-.205-.966-.308-1.554-.308-.812 0-1.486.182-2.023.546-.537.364-.842.83-.917 1.4-.01.037.002.068.035.091.033.023.072.04.119.049l1.358.168c.103.019.168-.028.196-.14.056-.224.194-.399.413-.525.22-.126.506-.189.861-.189.43 0 .751.1.966.301.215.2.322.483.322.847v.336c0 .047-.023.07-.07.07h-1.498c-.924 0-1.64.203-2.149.609-.509.406-.763.973-.763 1.701 0 .7.226 1.227.679 1.582.453.355 1.029.532 1.729.532zm.406-1.288c-.345 0-.628-.082-.847-.245-.22-.163-.329-.394-.329-.693 0-.345.142-.611.427-.798.285-.187.674-.28 1.169-.28h1.176c.047 0 .07.023.07.07v.658c0 .373-.163.681-.49.924-.327.243-.719.364-1.176.364zm6.97 1.176c.047 0 .086-.016.119-.049s.049-.072.049-.119V.168c0-.047-.016-.086-.049-.119S18.635 0 18.588 0H17.3c-.047 0-.086.016-.119.049s-.049.072-.049.119v9.464c0 .047.016.086.049.119s.072.049.119.049h1.288zm4.912.098c.765 0 1.34-.247 1.722-.742.019-.028.037-.037.056-.028.019.01.028.028.028.056v.448c0 .047.016.086.049.119s.072.049.119.049h1.274c.047 0 .086-.016.119-.049s.049-.072.049-.119V2.814c0-.047-.016-.086-.049-.119s-.072-.049-.119-.049h-1.274c-.047 0-.086.016-.119.049s-.049.072-.049.119V7.07c0 .439-.126.789-.378 1.05s-.588.392-1.008.392c-.41 0-.73-.13-.959-.392-.229-.261-.343-.611-.343-1.05V2.814c0-.047-.016-.086-.049-.119s-.072-.049-.119-.049h-1.288c-.047 0-.086.016-.119.049s-.049.072-.049.119v4.718c0 .756.24 1.34.721 1.75.48.41 1.076.616 1.785.616zm8.874.028c.588 0 1.122-.112 1.603-.336.48-.224.866-.541 1.155-.952.056-.084.042-.159-.042-.224l-.868-.714c-.028-.028-.06-.042-.098-.042-.056 0-.103.028-.14.084-.373.523-.877.784-1.512.784-.868-.01-1.414-.35-1.638-1.022-.056-.112-.098-.322-.126-.63 0-.047.023-.07.07-.07h4.382c.112 0 .168-.056.168-.168l.014-.434c0-.29-.019-.55-.056-.784-.233-1.923-1.27-2.884-3.108-2.884-.728 0-1.351.189-1.869.567-.518.378-.87.894-1.057 1.547-.112.336-.168.775-.168 1.316 0 .896.107 1.596.322 2.1.233.588.604 1.045 1.113 1.372.509.327 1.127.49 1.855.49zM33.62 5.6h-2.842c-.056 0-.075-.023-.056-.07.019-.252.056-.457.112-.616.093-.308.254-.548.483-.721.229-.173.516-.259.861-.259.373 0 .684.093.931.28.247.187.413.448.497.784.037.121.065.299.084.532 0 .047-.023.07-.07.07z" transform="translate(-851.000000, -486.000000) translate(75.000000, 145.000000) translate(671.000000, 60.000000) translate(105.000000, 281.088000) translate(244.000000, 23.112000)"/>
                            <path d="M148.179 20.862l-.485.875c-.514-.285-1.092-.437-1.694-.437v-1c.772 0 1.518.195 2.179.562zm2.321 5.815h-1l-.002-1.993 1-.033.002.14v1.886zm0 6h-1v-2h1v2zm0 6h-1v-2h1v2zm0 6h-1v-2h1v2zm-1.132 6.107l-.748-.663c.393-.443.668-.978.797-1.558l.976.217c-.166.747-.52 1.435-1.025 2.004zm-6.122 1.516v-1h2v1h-2zm-6 0v-1h2v1h-2zm-6 0v-1h2v1h-2zm-6 0v-1h2v1h-2zm-6 0v-1h2v1h-2zm-6 0v-1h2v1h-2zm-6 0v-1h2v1h-2zm-6 0v-1h2v1h-2zm-6 0v-1h2v1h-2zm-6 0v-1h2v1h-2zm-6 0v-1h2v1h-2zm-6 0v-1h2v1h-2zm-6 0v-1h2v1h-2zm-6 0v-1h2v1h-2zm-6 0v-1h2v1h-2zm-6 0v-1h2v1h-2zm-6 0v-1h2v1h-2zm-6 0v-1h2v1h-2zm-6 0v-1h2v1h-2zm-6 0v-1h2v1h-2zm-6 0v-1h2v1h-2zm-6 0v-1h2v1h-2zm-6 0v-1h2v1h-2zm-6 0v-1h2v1h-2zm-5.454-2.904l.934-.354c.21.553.56 1.045 1.011 1.428l-.646.763c-.58-.492-1.029-1.124-1.3-1.837zM-.5 43.17h1v2h-1v-2zm0-6h1v2h-1v-2zm0-6h1v2h-1v-2zm0-6h1v2h-1v-2zm3.948-4.835l.121.992c-.592.073-1.15.295-1.627.642l-.588-.808c.614-.447 1.331-.733 2.094-.826zm6.06-.034v1h-2v-1h2zm6 0v1h-2v-1h2zm6 0v1h-2v-1h2zm6 0v1h-2v-1h2zm6 0v1h-2v-1h2zm6 0v1h-2v-1h2zm6 0v1h-2v-1h2zm6 0v1h-2v-1h2zm6 0v1h-2v-1h2zm6 0v1h-2v-1h2zm6 0v1h-2v-1h2zm6 0v1h-2v-1h2zm6 0v1h-2v-1h2zm6 0v1h-2v-1h2zm6 0v1h-2v-1h2zm6 0v1h-2v-1h2zm6 0v1h-2v-1h2zm6 0v1h-2v-1h2zm6 0v1h-2v-1h2zm6 0v1h-2v-1h2zm6 0v1h-2v-1h2zm6 0v1h-2v-1h2zm6 0v1h-2v-1h2zm4.492 0v1h-.492v-1H146z" opacity=".4" transform="translate(-851.000000, -486.000000) translate(75.000000, 145.000000) translate(671.000000, 60.000000) translate(105.000000, 281.088000) translate(244.000000, 23.112000)"/>
                            <g>
                                <path d="M3.684 8.592c.856 0 1.538-.24 2.046-.72.508-.48.762-1.148.762-2.004V4.32c0-.08-.04-.12-.12-.12H3.828c-.08 0-.12.04-.12.12v.504c0 .08.04.12.12.12h1.764c.032 0 .048.016.048.048v1.092c0 .536-.174.964-.522 1.284-.348.32-.814.48-1.398.48-.6 0-1.084-.172-1.452-.516-.368-.344-.552-.796-.552-1.356v-3.36c0-.56.18-1.012.54-1.356.36-.344.836-.516 1.428-.516s1.066.168 1.422.504c.356.336.534.772.534 1.308V2.7c0 .08.04.12.12.12h.612c.08 0 .12-.04.12-.12v-.156c0-.488-.116-.926-.348-1.314-.232-.388-.562-.69-.99-.906C4.726.108 4.236 0 3.684 0c-.56 0-1.052.11-1.476.33-.424.22-.754.53-.99.93s-.354.86-.354 1.38v3.312c0 .52.118.98.354 1.38.236.4.566.71.99.93.424.22.916.33 1.476.33zm5.535-.096c.08 0 .12-.04.12-.12v-3.54c0-.448.136-.818.408-1.11.272-.292.616-.446 1.032-.462l.156-.012c.176 0 .332.028.468.084.08.032.132.008.156-.072l.132-.588c.016-.072-.008-.124-.072-.156-.192-.104-.42-.156-.684-.156-.344 0-.646.082-.906.246-.26.164-.474.394-.642.69-.008.016-.018.022-.03.018S9.34 3.3 9.34 3.276v-.732c0-.08-.04-.12-.12-.12h-.612c-.08 0-.12.04-.12.12v5.832c0 .08.04.12.12.12h.612zm6.064.096c.576 0 1.07-.148 1.482-.444.412-.296.694-.704.846-1.224.112-.336.168-.828.168-1.476 0-.64-.056-1.132-.168-1.476-.152-.504-.434-.904-.846-1.2-.412-.296-.902-.444-1.47-.444-.592 0-1.096.148-1.512.444-.416.296-.7.7-.852 1.212-.112.36-.168.848-.168 1.464s.056 1.108.168 1.476c.16.52.448.928.864 1.224.416.296.912.444 1.488.444zm0-.744c-.4 0-.738-.106-1.014-.318-.276-.212-.458-.498-.546-.858-.064-.28-.096-.684-.096-1.212 0-.528.032-.932.096-1.212.096-.36.28-.646.552-.858.272-.212.604-.318.996-.318s.726.106 1.002.318c.276.212.462.498.558.858.064.28.096.684.096 1.212 0 .52-.036.924-.108 1.212-.096.36-.28.646-.552.858-.272.212-.6.318-.984.318zm6.411.732c.728 0 1.26-.248 1.596-.744.008-.016.02-.02.036-.012.016.008.024.02.024.036v.516c0 .08.04.12.12.12h.612c.08 0 .12-.04.12-.12V2.544c0-.08-.04-.12-.12-.12h-.612c-.08 0-.12.04-.12.12v3.804c0 .448-.134.808-.402 1.08s-.63.408-1.086.408c-.44 0-.788-.134-1.044-.402s-.384-.63-.384-1.086V2.544c0-.08-.04-.12-.12-.12h-.612c-.08 0-.12.04-.12.12V6.6c0 .416.094.772.282 1.068.188.296.444.522.768.678.324.156.678.234 1.062.234zm5.404 2.244c.08 0 .12-.04.12-.12v-2.82c0-.016.006-.026.018-.03.012-.004.026.002.042.018.176.232.396.41.66.534.264.124.552.186.864.186.576 0 1.054-.146 1.434-.438.38-.292.642-.694.786-1.206.104-.352.156-.848.156-1.488 0-.632-.06-1.14-.18-1.524-.144-.496-.406-.888-.786-1.176-.38-.288-.85-.432-1.41-.432-.32 0-.61.064-.87.192s-.478.308-.654.54c-.016.016-.03.022-.042.018-.012-.004-.018-.014-.018-.03v-.504c0-.08-.04-.12-.12-.12h-.612c-.08 0-.12.04-.12.12v8.16c0 .08.04.12.12.12h.612zm1.608-2.976c-.304 0-.566-.082-.786-.246-.22-.164-.378-.382-.474-.654-.08-.168-.136-.362-.168-.582-.032-.22-.048-.522-.048-.906s.016-.684.048-.9c.032-.216.084-.404.156-.564.104-.28.264-.504.48-.672.216-.168.484-.252.804-.252.336 0 .626.084.87.252.244.168.414.396.51.684.08.168.136.358.168.57.032.212.048.506.048.882 0 .392-.022.698-.066.918-.044.22-.11.418-.198.594-.104.264-.274.476-.51.636-.236.16-.514.24-.834.24zm10.135.648c.752 0 1.358-.2 1.818-.6.46-.4.69-.96.69-1.68 0-.488-.112-.904-.336-1.248-.224-.344-.552-.604-.984-.78-.04-.024-.04-.048 0-.072.392-.16.694-.394.906-.702.212-.308.318-.682.318-1.122 0-.696-.222-1.236-.666-1.62-.444-.384-1.054-.576-1.83-.576h-2.82c-.08 0-.12.04-.12.12v8.16c0 .08.04.12.12.12h2.904zm-.084-4.68h-2.04c-.032 0-.048-.016-.048-.048V.888c0-.032.016-.048.048-.048h2.04c.504 0 .906.138 1.206.414.3.276.45.646.45 1.11 0 .44-.15.792-.45 1.056-.3.264-.702.396-1.206.396zm.084 3.924h-2.124c-.032 0-.048-.016-.048-.048V4.584c0-.032.016-.048.048-.048h2.076c.52 0 .934.146 1.242.438.308.292.462.682.462 1.17 0 .488-.15.876-.45 1.164-.3.288-.702.432-1.206.432zm4.227 3.156c.456 0 .81-.05 1.062-.15.252-.1.462-.278.63-.534.168-.256.348-.652.54-1.188l2.22-6.468c.024-.088-.008-.132-.096-.132H46.8c-.072 0-.12.032-.144.096L45.12 7.368c-.008.016-.02.024-.036.024-.016 0-.028-.008-.036-.024l-1.56-4.848c-.024-.064-.072-.096-.144-.096h-.636c-.072 0-.108.028-.108.084l.012.048L44.64 8.46c.016.016.016.04 0 .072-.144.464-.278.81-.402 1.038-.124.228-.272.384-.444.468-.172.084-.414.13-.726.138h-.048c-.08 0-.12.04-.12.12v.48c0 .08.028.12.084.12h.084zm11.119-2.304c.944 0 1.692-.218 2.244-.654.552-.436.828-1.03.828-1.782 0-.504-.13-.914-.39-1.23-.26-.316-.552-.554-.876-.714-.324-.16-.77-.344-1.338-.552-.512-.184-.89-.33-1.134-.438-.244-.108-.428-.23-.552-.366-.124-.136-.186-.304-.186-.504 0-.28.106-.5.318-.66.212-.16.506-.24.882-.24.48 0 .858.118 1.134.354.276.236.414.522.414.858v.096c0 .04.014.074.042.102.028.028.062.042.102.042h1.38c.04 0 .074-.014.102-.042.028-.028.042-.062.042-.102v-.18c0-.512-.134-.962-.402-1.35-.268-.388-.64-.69-1.116-.906C55.205.108 54.663 0 54.055 0c-.576 0-1.084.096-1.524.288-.44.192-.784.468-1.032.828-.248.36-.372.78-.372 1.26 0 .488.126.898.378 1.23.252.332.564.594.936.786.372.192.826.38 1.362.564.48.176.83.314 1.05.414.22.1.394.216.522.348.128.132.192.294.192.486 0 .264-.104.486-.312.666-.208.18-.524.27-.948.27-.504 0-.904-.11-1.2-.33-.296-.22-.444-.49-.444-.81v-.18c0-.04-.014-.074-.042-.102-.028-.028-.062-.042-.102-.042H51.15c-.04 0-.074.014-.102.042-.028.028-.042.062-.042.102v.264c0 .504.13.946.39 1.326.26.38.63.672 1.11.876.48.204 1.04.306 1.68.306zm6.015 0c.744 0 1.284-.22 1.62-.66.016-.024.032-.032.048-.024s.024.024.024.048v.396c0 .04.014.074.042.102.028.028.062.042.102.042h1.404c.04 0 .074-.014.102-.042.028-.028.042-.062.042-.102V4.284c0-.384-.114-.732-.342-1.044-.228-.312-.546-.558-.954-.738-.408-.18-.872-.27-1.392-.27-.48 0-.914.076-1.302.228-.388.152-.7.364-.936.636-.236.272-.37.576-.402.912-.008.056.036.092.132.108l1.452.192c.08.008.132-.032.156-.12.048-.16.154-.284.318-.372.164-.088.37-.132.618-.132.32 0 .56.074.72.222.16.148.24.354.24.618v.264c0 .04-.02.06-.06.06H60.61c-.8 0-1.416.17-1.848.51-.432.34-.648.818-.648 1.434 0 .592.192 1.04.576 1.344.384.304.888.456 1.512.456zm.456-1.26c-.256 0-.46-.062-.612-.186-.152-.124-.228-.294-.228-.51 0-.248.102-.44.306-.576.204-.136.486-.204.846-.204h.864c.04 0 .06.02.06.06v.432c0 .288-.12.524-.36.708-.24.184-.532.276-.876.276zm5.836 1.164c.04 0 .074-.014.102-.042.028-.028.042-.062.042-.102V.24c0-.04-.014-.074-.042-.102-.028-.028-.062-.042-.102-.042H65.09c-.04 0-.074.014-.102.042-.028.028-.042.062-.042.102v8.112c0 .04.014.074.042.102.028.028.062.042.102.042h1.404zm4.443.096c.496 0 .952-.09 1.368-.27.416-.18.756-.434 1.02-.762.032-.048.048-.08.048-.096 0-.032-.02-.068-.06-.108l-.864-.852c-.032-.032-.06-.048-.084-.048-.04 0-.076.024-.108.072-.296.408-.7.616-1.212.624-.64 0-1.064-.224-1.272-.672-.064-.16-.108-.32-.132-.48-.016-.04 0-.06.048-.06h3.708c.096 0 .148-.048.156-.144.016-.376 0-.716-.048-1.02-.104-.776-.398-1.396-.882-1.86-.484-.464-1.126-.696-1.926-.696-.632 0-1.178.168-1.638.504-.46.336-.782.788-.966 1.356-.12.336-.18.724-.18 1.164 0 .648.084 1.172.252 1.572.208.56.55.996 1.026 1.308.476.312 1.058.468 1.746.468zm.828-3.756H69.69c-.04 0-.06-.02-.06-.06.024-.152.052-.28.084-.384.16-.472.492-.708.996-.708.264 0 .486.066.666.198.18.132.306.318.378.558 0-.008.02.104.06.336.016.04 0 .06-.048.06zM80.4 8.592c.616 0 1.158-.116 1.626-.348.468-.232.832-.56 1.092-.984.26-.424.39-.912.39-1.464 0-.032-.014-.06-.042-.084-.028-.024-.062-.036-.102-.036l-1.404-.06c-.096 0-.144.044-.144.132 0 .416-.13.752-.39 1.008s-.602.384-1.026.384c-.432 0-.778-.128-1.038-.384s-.39-.592-.39-1.008V2.856c0-.424.13-.764.39-1.02s.606-.384 1.038-.384c.424 0 .766.128 1.026.384s.39.596.39 1.02c0 .088.04.132.12.132h.024l1.404-.084c.096-.016.144-.06.144-.132 0-.552-.13-1.038-.39-1.458-.26-.42-.624-.744-1.092-.972C81.558.114 81.016 0 80.4 0c-.624 0-1.172.12-1.644.36s-.836.58-1.092 1.02c-.256.44-.384.948-.384 1.524v2.772c0 .576.128 1.084.384 1.524.256.44.62.782 1.092 1.026.472.244 1.02.366 1.644.366zm5.955-.096c.04 0 .074-.014.102-.042.028-.028.042-.062.042-.102V4.764c0-.32.09-.58.27-.78.18-.2.418-.3.714-.3s.534.1.714.3c.18.2.27.46.27.78v3.588c0 .04.014.074.042.102.028.028.062.042.102.042h1.404c.04 0 .074-.014.102-.042.028-.028.042-.062.042-.102V4.416c0-.672-.196-1.204-.588-1.596-.392-.392-.908-.588-1.548-.588-.648 0-1.136.232-1.464.696-.008.016-.02.02-.036.012-.016-.008-.024-.024-.024-.048V.24c0-.04-.014-.074-.042-.102-.028-.028-.062-.042-.102-.042h-1.404c-.04 0-.074.014-.102.042-.028.028-.042.062-.042.102v8.112c0 .04.014.074.042.102.028.028.062.042.102.042h1.404zm6.952.096c.744 0 1.284-.22 1.62-.66.016-.024.032-.032.048-.024s.024.024.024.048v.396c0 .04.014.074.042.102.028.028.062.042.102.042h1.404c.04 0 .074-.014.102-.042.028-.028.042-.062.042-.102V4.284c0-.384-.114-.732-.342-1.044-.228-.312-.546-.558-.954-.738-.408-.18-.872-.27-1.392-.27-.48 0-.914.076-1.302.228-.388.152-.7.364-.936.636-.236.272-.37.576-.402.912-.008.056.036.092.132.108l1.452.192c.08.008.132-.032.156-.12.048-.16.154-.284.318-.372.164-.088.37-.132.618-.132.32 0 .56.074.72.222.16.148.24.354.24.618v.264c0 .04-.02.06-.06.06h-1.224c-.8 0-1.416.17-1.848.51-.432.34-.648.818-.648 1.434 0 .592.192 1.04.576 1.344.384.304.888.456 1.512.456zm.456-1.26c-.256 0-.46-.062-.612-.186-.152-.124-.228-.294-.228-.51 0-.248.102-.44.306-.576.204-.136.486-.204.846-.204h.864c.04 0 .06.02.06.06v.432c0 .288-.12.524-.36.708-.24.184-.532.276-.876.276zm5.835 1.164c.04 0 .074-.014.102-.042.028-.028.042-.062.042-.102V4.764c0-.32.09-.58.27-.78.18-.2.418-.3.714-.3s.534.1.714.3c.18.2.27.46.27.78v3.588c0 .04.014.074.042.102.028.028.062.042.102.042h1.404c.04 0 .074-.014.102-.042.028-.028.042-.062.042-.102V4.416c0-.672-.196-1.204-.588-1.596-.392-.392-.908-.588-1.548-.588-.648 0-1.136.232-1.464.696-.008.016-.02.02-.036.012-.016-.008-.024-.024-.024-.048v-.42c0-.04-.014-.074-.042-.102-.028-.028-.062-.042-.102-.042h-1.404c-.04 0-.074.014-.102.042-.028.028-.042.062-.042.102v5.88c0 .04.014.074.042.102.028.028.062.042.102.042h1.404zm6.736 0c.04 0 .074-.014.102-.042.028-.028.042-.062.042-.102V4.764c0-.32.09-.58.27-.78.18-.2.418-.3.714-.3s.534.1.714.3c.18.2.27.46.27.78v3.588c0 .04.014.074.042.102.028.028.062.042.102.042h1.404c.04 0 .074-.014.102-.042.028-.028.042-.062.042-.102V4.416c0-.672-.196-1.204-.588-1.596-.392-.392-.908-.588-1.548-.588-.648 0-1.136.232-1.464.696-.008.016-.02.02-.036.012-.016-.008-.024-.024-.024-.048v-.42c0-.04-.014-.074-.042-.102-.028-.028-.062-.042-.102-.042h-1.404c-.04 0-.074.014-.102.042-.028.028-.042.062-.042.102v5.88c0 .04.014.074.042.102.028.028.062.042.102.042h1.404zm8.043.096c.496 0 .952-.09 1.368-.27.416-.18.756-.434 1.02-.762.032-.048.048-.08.048-.096 0-.032-.02-.068-.06-.108l-.864-.852c-.032-.032-.06-.048-.084-.048-.04 0-.076.024-.108.072-.296.408-.7.616-1.212.624-.64 0-1.064-.224-1.272-.672-.064-.16-.108-.32-.132-.48-.016-.04 0-.06.048-.06h3.708c.096 0 .148-.048.156-.144.016-.376 0-.716-.048-1.02-.104-.776-.398-1.396-.882-1.86-.484-.464-1.126-.696-1.926-.696-.632 0-1.178.168-1.638.504-.46.336-.782.788-.966 1.356-.12.336-.18.724-.18 1.164 0 .648.084 1.172.252 1.572.208.56.55.996 1.026 1.308.476.312 1.058.468 1.746.468zm.828-3.756h-2.076c-.04 0-.06-.02-.06-.06.024-.152.052-.28.084-.384.16-.472.492-.708.996-.708.264 0 .486.066.666.198.18.132.306.318.378.558 0-.008.02.104.06.336.016.04 0 .06-.048.06zm4.552 3.66c.04 0 .074-.014.102-.042.028-.028.042-.062.042-.102V.24c0-.04-.014-.074-.042-.102-.028-.028-.062-.042-.102-.042h-1.404c-.04 0-.074.014-.102.042-.028.028-.042.062-.042.102v8.112c0 .04.014.074.042.102.028.028.062.042.102.042h1.404z" transform="translate(-851.000000, -486.000000) translate(75.000000, 145.000000) translate(671.000000, 60.000000) translate(105.000000, 281.088000) translate(244.000000, 23.112000) translate(12.000000, 32.304000)"/>
                                <path d="M25.765 9.396v-.6H0v.6h25.765zm2.052-.6v.6h15.906v-.6H27.817zm20.206.6v-.6h-2.045v.6h2.045z" transform="translate(-851.000000, -486.000000) translate(75.000000, 145.000000) translate(671.000000, 60.000000) translate(105.000000, 281.088000) translate(244.000000, 23.112000) translate(12.000000, 32.304000)"/>
                            </g>
                        </g>
                        <path fill="#FFF" d="M225.899 29.337L231.91 32.692 232.298 32.909 231.911 33.128 225.922 36.523 225.676 36.088 230.834 33.163 225.791 33.18 77.501 33.662 77.499 33.162 225.79 32.68 230.833 32.664 225.655 29.774z" opacity=".5" transform="translate(-851.000000, -486.000000) translate(75.000000, 145.000000) translate(671.000000, 60.000000) translate(105.000000, 281.088000)"/>
                        <path fill="#FFF" d="M4.186 10.024c1.073 0 1.92-.247 2.541-.742.62-.495.931-1.162.931-2.002 0-.55-.142-1.01-.427-1.379-.285-.369-.625-.656-1.022-.861-.397-.205-.926-.434-1.589-.686-.625-.224-1.087-.408-1.386-.553-.299-.145-.523-.306-.672-.483-.15-.177-.224-.406-.224-.686 0-.392.142-.695.427-.91.285-.215.684-.322 1.197-.322.635 0 1.132.152 1.491.455.36.303.539.674.539 1.113v.154c0 .047.016.086.049.119s.072.049.119.049h1.26c.047 0 .086-.016.119-.049s.049-.072.049-.119v-.238c0-.57-.15-1.071-.448-1.505C6.841.945 6.424.607 5.887.364 5.35.121 4.732 0 4.032 0c-.999 0-1.797.238-2.394.714C1.041 1.19.742 1.839.742 2.66c0 .55.138 1.01.413 1.379.275.369.618.66 1.029.875.41.215.947.443 1.61.686.588.224 1.029.41 1.323.56.294.15.52.315.679.497.159.182.238.404.238.665 0 .383-.145.695-.434.938-.29.243-.719.364-1.288.364-.663 0-1.185-.142-1.568-.427-.383-.285-.574-.642-.574-1.071V6.86c0-.047-.016-.086-.049-.119s-.072-.049-.119-.049H.756c-.047 0-.086.016-.119.049s-.049.072-.049.119v.35c0 .57.147 1.064.441 1.484.294.42.712.747 1.253.98.541.233 1.176.35 1.904.35zm7.474 0c.868 0 1.53-.252 1.988-.756.019-.019.037-.026.056-.021.019.005.028.021.028.049v.448c0 .047.016.086.049.119s.072.049.119.049h1.288c.047 0 .086-.016.119-.049s.049-.072.049-.119V5.026c0-.457-.121-.866-.364-1.225-.243-.36-.588-.642-1.036-.847-.448-.205-.966-.308-1.554-.308-.812 0-1.486.182-2.023.546-.537.364-.842.83-.917 1.4-.01.037.002.068.035.091.033.023.072.04.119.049l1.358.168c.103.019.168-.028.196-.14.056-.224.194-.399.413-.525.22-.126.506-.189.861-.189.43 0 .751.1.966.301.215.2.322.483.322.847v.336c0 .047-.023.07-.07.07h-1.498c-.924 0-1.64.203-2.149.609-.509.406-.763.973-.763 1.701 0 .7.226 1.227.679 1.582.453.355 1.029.532 1.729.532zm.406-1.288c-.345 0-.628-.082-.847-.245-.22-.163-.329-.394-.329-.693 0-.345.142-.611.427-.798.285-.187.674-.28 1.169-.28h1.176c.047 0 .07.023.07.07v.658c0 .373-.163.681-.49.924-.327.243-.719.364-1.176.364zm6.97 1.176c.047 0 .086-.016.119-.049s.049-.072.049-.119V.28c0-.047-.016-.086-.049-.119s-.072-.049-.119-.049h-1.288c-.047 0-.086.016-.119.049s-.049.072-.049.119v9.464c0 .047.016.086.049.119s.072.049.119.049h1.288zm5.612.126c.588 0 1.122-.112 1.603-.336.48-.224.866-.541 1.155-.952.056-.084.042-.159-.042-.224l-.868-.714c-.028-.028-.06-.042-.098-.042-.056 0-.103.028-.14.084-.373.523-.877.784-1.512.784-.868-.01-1.414-.35-1.638-1.022-.056-.112-.098-.322-.126-.63 0-.047.023-.07.07-.07h4.382c.112 0 .168-.056.168-.168l.014-.434c0-.29-.019-.55-.056-.784-.233-1.923-1.27-2.884-3.108-2.884-.728 0-1.351.189-1.869.567-.518.378-.87.894-1.057 1.547-.112.336-.168.775-.168 1.316 0 .896.107 1.596.322 2.1.233.588.604 1.045 1.113 1.372.509.327 1.127.49 1.855.49zm1.246-4.326h-2.842c-.056 0-.075-.023-.056-.07.019-.252.056-.457.112-.616.093-.308.254-.548.483-.721.229-.173.516-.259.861-.259.373 0 .684.093.931.28.247.187.413.448.497.784.037.121.065.299.084.532 0 .047-.023.07-.07.07zm10.188 4.312c.728 0 1.363-.175 1.904-.525.541-.35.9-.824 1.078-1.421.019-.065.042-.173.07-.322.01-.056-.002-.1-.035-.133s-.072-.054-.119-.063l-1.26-.196c-.103-.019-.168.028-.196.14 0 .019-.005.033-.014.042 0 .028-.005.051-.014.07-.075.308-.24.553-.497.735-.257.182-.562.273-.917.273-.364 0-.667-.096-.91-.287-.243-.191-.41-.45-.504-.777-.084-.317-.126-.733-.126-1.246 0-.532.047-.947.14-1.246.084-.317.25-.567.497-.749.247-.182.548-.273.903-.273.345 0 .644.084.896.252.252.168.42.383.504.644.019.056.037.121.056.196.01.028.014.065.014.112.028.093.084.14.168.14h.028l1.26-.182c.103-.019.154-.075.154-.168v-.028c-.019-.15-.051-.299-.098-.448-.177-.55-.537-1.008-1.078-1.372-.541-.364-1.176-.546-1.904-.546-.719 0-1.342.18-1.869.539-.527.36-.889.847-1.085 1.463-.15.43-.224.98-.224 1.652 0 .7.075 1.26.224 1.68.205.625.57 1.122 1.092 1.491.523.369 1.143.553 1.862.553zm6.508-.112c.047 0 .086-.016.119-.049s.049-.072.049-.119v-4.27c0-.43.124-.775.371-1.036s.572-.392.973-.392.723.133.966.399.364.614.364 1.043v4.256c0 .047.016.086.049.119s.072.049.119.049h1.288c.047 0 .086-.016.119-.049s.049-.072.049-.119V5.152c0-.775-.226-1.386-.679-1.834-.453-.448-1.057-.672-1.813-.672-.775 0-1.353.252-1.736.756-.01.028-.023.037-.042.028-.019-.01-.028-.028-.028-.056V.28c0-.047-.016-.086-.049-.119s-.072-.049-.119-.049h-1.288c-.047 0-.086.016-.119.049s-.049.072-.049.119v9.464c0 .047.016.086.049.119s.072.049.119.049h1.288zm8.748.112c.868 0 1.53-.252 1.988-.756.019-.019.037-.026.056-.021.019.005.028.021.028.049v.448c0 .047.016.086.049.119s.072.049.119.049h1.288c.047 0 .086-.016.119-.049s.049-.072.049-.119V5.026c0-.457-.121-.866-.364-1.225-.243-.36-.588-.642-1.036-.847-.448-.205-.966-.308-1.554-.308-.812 0-1.486.182-2.023.546-.537.364-.842.83-.917 1.4-.01.037.002.068.035.091.033.023.072.04.119.049l1.358.168c.103.019.168-.028.196-.14.056-.224.194-.399.413-.525.22-.126.506-.189.861-.189.43 0 .751.1.966.301.215.2.322.483.322.847v.336c0 .047-.023.07-.07.07h-1.498c-.924 0-1.64.203-2.149.609-.509.406-.763.973-.763 1.701 0 .7.226 1.227.679 1.582.453.355 1.029.532 1.729.532zm.406-1.288c-.345 0-.628-.082-.847-.245-.22-.163-.329-.394-.329-.693 0-.345.142-.611.427-.798.285-.187.674-.28 1.169-.28h1.176c.047 0 .07.023.07.07v.658c0 .373-.163.681-.49.924-.327.243-.719.364-1.176.364zm6.97 1.176c.047 0 .086-.016.119-.049s.049-.072.049-.119v-4.27c0-.43.124-.775.371-1.036s.572-.392.973-.392.723.133.966.399.364.614.364 1.043v4.256c0 .047.016.086.049.119s.072.049.119.049h1.288c.047 0 .086-.016.119-.049s.049-.072.049-.119V5.152c0-.775-.226-1.386-.679-1.834-.453-.448-1.057-.672-1.813-.672-.775 0-1.353.252-1.736.756-.01.028-.023.037-.042.028-.019-.01-.028-.028-.028-.056v-.448c0-.047-.016-.086-.049-.119s-.072-.049-.119-.049h-1.288c-.047 0-.086.016-.119.049s-.049.072-.049.119v6.818c0 .047.016.086.049.119s.072.049.119.049h1.288zm8.216 0c.047 0 .086-.016.119-.049s.049-.072.049-.119v-4.27c0-.43.124-.775.371-1.036s.572-.392.973-.392.723.133.966.399.364.614.364 1.043v4.256c0 .047.016.086.049.119s.072.049.119.049h1.288c.047 0 .086-.016.119-.049s.049-.072.049-.119V5.152c0-.775-.226-1.386-.679-1.834-.453-.448-1.057-.672-1.813-.672-.775 0-1.353.252-1.736.756-.01.028-.023.037-.042.028-.019-.01-.028-.028-.028-.056v-.448c0-.047-.016-.086-.049-.119s-.072-.049-.119-.049h-1.288c-.047 0-.086.016-.119.049s-.049.072-.049.119v6.818c0 .047.016.086.049.119s.072.049.119.049h1.288zm9.826.126c.588 0 1.122-.112 1.603-.336.48-.224.866-.541 1.155-.952.056-.084.042-.159-.042-.224l-.868-.714c-.028-.028-.06-.042-.098-.042-.056 0-.103.028-.14.084-.373.523-.877.784-1.512.784-.868-.01-1.414-.35-1.638-1.022-.056-.112-.098-.322-.126-.63 0-.047.023-.07.07-.07h4.382c.112 0 .168-.056.168-.168l.014-.434c0-.29-.019-.55-.056-.784-.233-1.923-1.27-2.884-3.108-2.884-.728 0-1.351.189-1.869.567-.518.378-.87.894-1.057 1.547-.112.336-.168.775-.168 1.316 0 .896.107 1.596.322 2.1.233.588.604 1.045 1.113 1.372.509.327 1.127.49 1.855.49zm1.246-4.326H75.16c-.056 0-.075-.023-.056-.07.019-.252.056-.457.112-.616.093-.308.254-.548.483-.721.229-.173.516-.259.861-.259.373 0 .684.093.931.28.247.187.413.448.497.784.037.121.065.299.084.532 0 .047-.023.07-.07.07zm5.262 4.2c.047 0 .086-.016.119-.049s.049-.072.049-.119V.28c0-.047-.016-.086-.049-.119s-.072-.049-.119-.049h-1.288c-.047 0-.086.016-.119.049s-.049.072-.049.119v9.464c0 .047.016.086.049.119s.072.049.119.049h1.288z" transform="translate(-851.000000, -486.000000) translate(75.000000, 145.000000) translate(671.000000, 60.000000) translate(105.000000, 281.088000)"/>
                        <g>
                            <path fill="#FFF" d="M28.125 13.096c.568 0 1.07-.116 1.506-.348.436-.232.772-.558 1.008-.978.236-.42.354-.906.354-1.458V7.288c0-.552-.118-1.038-.354-1.458-.236-.42-.572-.746-1.008-.978-.436-.232-.938-.348-1.506-.348-.568 0-1.068.116-1.5.348-.432.232-.766.558-1.002.978-.236.42-.354.906-.354 1.458v3.024c0 .552.118 1.038.354 1.458.236.42.57.746 1.002.978.432.232.932.348 1.5.348zm0-.732c-.6 0-1.084-.184-1.452-.552-.368-.368-.552-.856-.552-1.464V7.276c0-.608.184-1.098.552-1.47.368-.372.852-.558 1.452-.558.608 0 1.096.186 1.464.558.368.372.552.862.552 1.47v3.072c0 .608-.184 1.096-.552 1.464-.368.368-.856.552-1.464.552zm5.968.636c.08 0 .12-.04.12-.12V7.684c0-.032.016-.048.048-.048h3.084c.032 0 .048.016.048.048v5.196c0 .08.04.12.12.12h.612c.08 0 .12-.04.12-.12V7.684c0-.032.016-.048.048-.048h1.392c.08 0 .12-.04.12-.12v-.468c0-.08-.04-.12-.12-.12h-1.392c-.032 0-.048-.016-.048-.048v-.36c0-.44.076-.764.228-.972.152-.208.44-.316.864-.324h.348c.08 0 .12-.04.12-.12V4.72c0-.08-.04-.12-.12-.12h-.348c-.72-.008-1.224.138-1.512.438-.288.3-.432.774-.432 1.422v.42c0 .032-.016.048-.048.048H34.26c-.032 0-.048-.016-.048-.048v-.36c0-.44.076-.764.228-.972.152-.208.44-.316.864-.324h.348c.08 0 .12-.04.12-.12V4.72c0-.08-.04-.12-.12-.12h-.348c-.72-.008-1.222.138-1.506.438-.284.3-.426.774-.426 1.422v.42c0 .032-.016.048-.048.048h-.756c-.08 0-.12.04-.12.12v.468c0 .08.04.12.12.12h.756c.032 0 .048.016.048.048v5.196c0 .08.04.12.12.12h.6zm7.896 0c.08 0 .12-.04.12-.12V4.72c0-.08-.04-.12-.12-.12h-.612c-.08 0-.12.04-.12.12v8.16c0 .08.04.12.12.12h.612zm2.787-7.176c.192 0 .352-.064.48-.192s.192-.288.192-.48c0-.2-.064-.362-.192-.486s-.288-.186-.48-.186-.352.062-.48.186-.192.286-.192.486c0 .192.064.352.192.48s.288.192.48.192zm.276 7.164c.08 0 .12-.04.12-.12V7.036c0-.08-.04-.12-.12-.12h-.612c-.08 0-.12.04-.12.12v5.832c0 .08.04.12.12.12h.612zm3.112.012c.08 0 .12-.04.12-.12V9.064c0-.44.136-.796.408-1.068.272-.272.628-.408 1.068-.408.424 0 .77.14 1.038.42.268.28.402.64.402 1.08v3.792c0 .08.04.12.12.12h.612c.08 0 .12-.04.12-.12V8.92c0-.632-.19-1.136-.57-1.512-.38-.376-.89-.564-1.53-.564-.728 0-1.268.248-1.62.744-.008.016-.018.02-.03.012s-.018-.02-.018-.036v-.516c0-.08-.04-.12-.12-.12h-.612c-.08 0-.12.04-.12.12v5.832c0 .08.04.12.12.12h.612zm8.115.108c.52 0 .98-.11 1.38-.33.4-.22.7-.522.9-.906.032-.072.016-.128-.048-.168l-.468-.276c-.064-.04-.12-.024-.168.048-.144.28-.344.496-.6.648-.256.152-.552.228-.888.228-.448 0-.816-.104-1.104-.312-.288-.208-.476-.492-.564-.852-.032-.128-.056-.412-.072-.852 0-.032.016-.048.048-.048h3.876c.08 0 .12-.04.12-.12v-.384c0-.336-.016-.616-.048-.84-.096-.672-.34-1.192-.732-1.56-.392-.368-.952-.552-1.68-.552-.584 0-1.082.156-1.494.468-.412.312-.686.728-.822 1.248-.048.168-.078.358-.09.57-.012.212-.018.486-.018.822 0 .72.072 1.272.216 1.656.168.472.444.84.828 1.104.384.264.86.4 1.428.408zm1.524-3.54h-3.108c-.032 0-.048-.016-.048-.048.016-.376.048-.648.096-.816.08-.344.25-.618.51-.822.26-.204.586-.306.978-.306.408 0 .746.106 1.014.318.268.212.446.498.534.858.032.152.056.408.072.768 0 .032-.016.048-.048.048z" transform="translate(-851.000000, -486.000000) translate(75.000000, 145.000000) translate(671.000000, 60.000000) translate(105.000000, 281.088000) translate(0.000000, 52.912000)"/>
                            <path fill="#57F" d="M14.125 16H1.875C.841 16 0 15.159 0 14.125V1.875C0 .841.841 0 1.875 0h12.25C15.159 0 16 .841 16 1.875v12.25C16 15.159 15.159 16 14.125 16z" transform="translate(-851.000000, -486.000000) translate(75.000000, 145.000000) translate(671.000000, 60.000000) translate(105.000000, 281.088000) translate(0.000000, 52.912000)"/>
                            <path fill="#FFF" d="M13.466 4.729L12.534 3.896 6.754 10.351 3.399 7.162 2.538 8.068 6.826 12.144z" transform="translate(-851.000000, -486.000000) translate(75.000000, 145.000000) translate(671.000000, 60.000000) translate(105.000000, 281.088000) translate(0.000000, 52.912000)"/>
                        </g>
                        <g>
                            <path fill="#FFF" d="M27.592 13.096c.88 0 1.568-.2 2.064-.6.496-.4.744-.936.744-1.608 0-.432-.11-.798-.33-1.098-.22-.3-.508-.554-.864-.762-.356-.208-.826-.432-1.41-.672-.576-.224-1.002-.406-1.278-.546s-.488-.304-.636-.492c-.148-.188-.222-.426-.222-.714 0-.44.152-.776.456-1.008.304-.232.74-.348 1.308-.348.648 0 1.154.148 1.518.444.364.296.546.676.546 1.14v.216c0 .08.04.12.12.12h.6c.08 0 .12-.04.12-.12v-.264c0-.688-.256-1.24-.768-1.656-.512-.416-1.212-.624-2.1-.624-.816 0-1.458.186-1.926.558-.468.372-.702.894-.702 1.566 0 .432.102.79.306 1.074.204.284.472.516.804.696.332.18.798.39 1.398.63.56.232.994.436 1.302.612.308.176.536.364.684.564.148.2.222.44.222.72 0 .432-.16.778-.48 1.038-.32.26-.788.39-1.404.39-.68 0-1.212-.142-1.596-.426-.384-.284-.576-.658-.576-1.122v-.324c0-.08-.04-.12-.12-.12h-.588c-.08 0-.12.04-.12.12v.372c0 .68.262 1.224.786 1.632.524.408 1.238.612 2.142.612zm5.32-.096c.08 0 .12-.04.12-.12V9.064c0-.44.136-.796.408-1.068.272-.272.628-.408 1.068-.408.424 0 .77.14 1.038.42.268.28.402.64.402 1.08v3.792c0 .08.04.12.12.12h.612c.08 0 .12-.04.12-.12V8.92c0-.632-.19-1.136-.57-1.512-.38-.376-.89-.564-1.53-.564-.728 0-1.268.248-1.62.744-.008.016-.018.02-.03.012s-.018-.02-.018-.036V4.72c0-.08-.04-.12-.12-.12H32.3c-.08 0-.12.04-.12.12v8.16c0 .08.04.12.12.12h.612zm8.14.096c.575 0 1.07-.148 1.481-.444.412-.296.694-.704.846-1.224.112-.336.168-.828.168-1.476 0-.64-.056-1.132-.168-1.476-.152-.504-.434-.904-.846-1.2-.412-.296-.902-.444-1.47-.444-.592 0-1.096.148-1.512.444-.416.296-.7.7-.852 1.212-.112.36-.168.848-.168 1.464s.056 1.108.168 1.476c.16.52.448.928.864 1.224.416.296.912.444 1.488.444zm0-.744c-.4 0-.739-.106-1.015-.318-.276-.212-.458-.498-.546-.858-.064-.28-.096-.684-.096-1.212 0-.528.032-.932.096-1.212.096-.36.28-.646.552-.858.272-.212.604-.318.996-.318s.726.106 1.002.318c.276.212.462.498.558.858.064.28.096.684.096 1.212 0 .52-.036.924-.108 1.212-.096.36-.28.646-.552.858-.272.212-.6.318-.984.318zm6.063.648c.064 0 .108-.032.132-.096l1.272-4.488c.008-.016.018-.024.03-.024s.022.008.03.024l1.308 4.488c.024.064.068.096.132.096h.636c.064 0 .108-.032.132-.096l1.728-5.832c.008-.04.002-.072-.018-.096-.02-.024-.05-.036-.09-.036l-.624-.012c-.072 0-.116.036-.132.108l-1.308 4.716c-.008.016-.02.024-.036.024-.016 0-.028-.008-.036-.024l-1.308-4.728c-.016-.064-.06-.096-.132-.096h-.576c-.072 0-.116.036-.132.108l-1.296 4.728c-.008.016-.018.024-.03.024s-.022-.008-.03-.024l-1.272-4.728c-.016-.072-.06-.108-.132-.108h-.624c-.08 0-.12.032-.12.096l.012.036 1.704 5.844c.024.064.068.096.132.096h.648zm9.702 0c.072 0 .12-.032.144-.096l.48-1.512c.008-.024.024-.036.048-.036h3.588c.024 0 .04.012.048.036l.48 1.512c.024.064.072.096.144.096h.648c.072 0 .108-.028.108-.084l-.012-.048-2.664-8.172c-.024-.064-.072-.096-.144-.096h-.816c-.072 0-.12.032-.144.096l-2.652 8.172c-.024.088.008.132.096.132h.648zm4.008-2.34H57.73c-.016 0-.03-.006-.042-.018-.012-.012-.014-.026-.006-.042l1.56-4.896c.008-.016.02-.024.036-.024.016 0 .028.008.036.024l1.56 4.896c.008.016.006.03-.006.042-.012.012-.026.018-.042.018zM64.79 13c.08 0 .12-.04.12-.12V4.72c0-.08-.04-.12-.12-.12h-.612c-.08 0-.12.04-.12.12v8.16c0 .08.04.12.12.12h.612zm2.931 0c.08 0 .12-.04.12-.12V4.72c0-.08-.04-.12-.12-.12h-.612c-.08 0-.12.04-.12.12v8.16c0 .08.04.12.12.12h.612z" transform="translate(-851.000000, -486.000000) translate(75.000000, 145.000000) translate(671.000000, 60.000000) translate(105.000000, 281.088000) translate(0.000000, 24.912000)"/>
                            <path fill="#57F" d="M14.125 16H1.875C.841 16 0 15.159 0 14.125V1.875C0 .841.841 0 1.875 0h12.25C15.159 0 16 .841 16 1.875v12.25C16 15.159 15.159 16 14.125 16z" transform="translate(-851.000000, -486.000000) translate(75.000000, 145.000000) translate(671.000000, 60.000000) translate(105.000000, 281.088000) translate(0.000000, 24.912000)"/>
                            <path fill="#FFF" d="M13.466 4.729L12.534 3.896 6.754 10.351 3.399 7.162 2.538 8.068 6.826 12.144z" transform="translate(-851.000000, -486.000000) translate(75.000000, 145.000000) translate(671.000000, 60.000000) translate(105.000000, 281.088000) translate(0.000000, 24.912000)"/>
                        </g>
                        <g fill="#FFF">
                            <path d="M27.94 13.096c.568 0 1.07-.116 1.506-.348.436-.232.772-.558 1.008-.978.236-.42.354-.906.354-1.458V7.288c0-.552-.118-1.038-.354-1.458-.236-.42-.572-.746-1.008-.978-.436-.232-.938-.348-1.506-.348-.568 0-1.068.116-1.5.348-.432.232-.766.558-1.002.978-.236.42-.354.906-.354 1.458v3.024c0 .552.118 1.038.354 1.458.236.42.57.746 1.002.978.432.232.932.348 1.5.348zm0-.732c-.6 0-1.084-.184-1.452-.552-.368-.368-.552-.856-.552-1.464V7.276c0-.608.184-1.098.552-1.47.368-.372.852-.558 1.452-.558.608 0 1.096.186 1.464.558.368.372.552.862.552 1.47v3.072c0 .608-.184 1.096-.552 1.464-.368.368-.856.552-1.464.552zm5.607.636c.08 0 .12-.04.12-.12V9.064c0-.44.136-.796.408-1.068.272-.272.628-.408 1.068-.408.424 0 .77.14 1.038.42.268.28.402.64.402 1.08v3.792c0 .08.04.12.12.12h.612c.08 0 .12-.04.12-.12V8.92c0-.632-.19-1.136-.57-1.512-.38-.376-.89-.564-1.53-.564-.728 0-1.268.248-1.62.744-.008.016-.018.02-.03.012s-.018-.02-.018-.036v-.516c0-.08-.04-.12-.12-.12h-.612c-.08 0-.12.04-.12.12v5.832c0 .08.04.12.12.12h.612zm6.64 0c.08 0 .12-.04.12-.12V4.72c0-.08-.04-.12-.12-.12h-.612c-.08 0-.12.04-.12.12v8.16c0 .08.04.12.12.12h.612zm2.775-7.176c.192 0 .352-.064.48-.192s.192-.288.192-.48c0-.2-.064-.362-.192-.486s-.288-.186-.48-.186-.352.062-.48.186-.192.286-.192.486c0 .192.064.352.192.48s.288.192.48.192zm.276 7.164c.08 0 .12-.04.12-.12V7.036c0-.08-.04-.12-.12-.12h-.612c-.08 0-.12.04-.12.12v5.832c0 .08.04.12.12.12h.612zm3.111.012c.08 0 .12-.04.12-.12V9.064c0-.44.136-.796.408-1.068.272-.272.628-.408 1.068-.408.424 0 .77.14 1.038.42.268.28.402.64.402 1.08v3.792c0 .08.04.12.12.12h.612c.08 0 .12-.04.12-.12V8.92c0-.632-.19-1.136-.57-1.512-.38-.376-.89-.564-1.53-.564-.728 0-1.268.248-1.62.744-.008.016-.018.02-.03.012s-.018-.02-.018-.036v-.516c0-.08-.04-.12-.12-.12h-.612c-.08 0-.12.04-.12.12v5.832c0 .08.04.12.12.12h.612zm8.116.108c.52 0 .98-.11 1.38-.33.4-.22.7-.522.9-.906.032-.072.016-.128-.048-.168l-.468-.276c-.064-.04-.12-.024-.168.048-.144.28-.344.496-.6.648-.256.152-.552.228-.888.228-.448 0-.816-.104-1.104-.312-.288-.208-.476-.492-.564-.852-.032-.128-.056-.412-.072-.852 0-.032.016-.048.048-.048h3.876c.08 0 .12-.04.12-.12v-.384c0-.336-.016-.616-.048-.84-.096-.672-.34-1.192-.732-1.56-.392-.368-.952-.552-1.68-.552-.584 0-1.082.156-1.494.468-.412.312-.686.728-.822 1.248-.048.168-.078.358-.09.57-.012.212-.018.486-.018.822 0 .72.072 1.272.216 1.656.168.472.444.84.828 1.104.384.264.86.4 1.428.408zm1.524-3.54H52.88c-.032 0-.048-.016-.048-.048.016-.376.048-.648.096-.816.08-.344.25-.618.51-.822.26-.204.586-.306.978-.306.408 0 .746.106 1.014.318.268.212.446.498.534.858.032.152.056.408.072.768 0 .032-.016.048-.048.048z" transform="translate(-851.000000, -486.000000) translate(75.000000, 145.000000) translate(671.000000, 60.000000) translate(105.000000, 281.088000) translate(0.000000, 80.912000)"/>
                            <path d="M14.125 16H1.875C.841 16 0 15.159 0 14.125V1.875C0 .841.841 0 1.875 0h12.25C15.159 0 16 .841 16 1.875v12.25C16 15.159 15.159 16 14.125 16zM1.875 1.25c-.345 0-.625.28-.625.625v12.25c0 .345.28.625.625.625h12.25c.345 0 .625-.28.625-.625V1.875c0-.345-.28-.625-.625-.625H1.875z" opacity=".4" transform="translate(-851.000000, -486.000000) translate(75.000000, 145.000000) translate(671.000000, 60.000000) translate(105.000000, 281.088000) translate(0.000000, 80.912000)"/>
                        </g>
                    </g>
                </g>
            </g>
        </g>
    </g>
</svg>
