<svg width="526" height="163" xmlns="http://www.w3.org/2000/svg">
    <g fill="none" fill-rule="evenodd">
        <g fill="#FFF">
            <path opacity=".2" d="M0 157.529h252v1.206H0zM0 48.529h252v1.206H0z"/>
            <path opacity=".2" d="M31 45h1v4h-1zM93 45h1v4h-1zM154 45h1v4h-1zM219 45h1v4h-1zM0 121.353h252v1H0zM0 85.176h252v1H0z"/>
            <path d="M289 39a4 4 0 0 1 4 4v116a4 4 0 0 1-4 4h-31a4 4 0 0 1-4-4V43a4 4 0 0 1 4-4h31zm-56-16a4 4 0 0 1 4 4v12a4 4 0 0 1-4 4H17a4 4 0 0 1-4-4V27a4 4 0 0 1 4-4h216z" fill-opacity=".1"/>
            <path d="M259.72 151.91c.646 0 1.163.183 1.55.55.386.367.58.853.58 1.46v3.16l-.008.2c-.038.52-.229.944-.573 1.27-.386.367-.903.55-1.55.55-.64 0-1.15-.183-1.53-.55-.38-.367-.57-.857-.57-1.47v-3.16l.007-.2c.038-.52.225-.942.563-1.265.38-.363.89-.545 1.53-.545zm0 .63c-.42 0-.757.123-1.01.37-.254.247-.38.573-.38.98v3.23l.005.151c.028.344.153.623.374.839.254.247.59.37 1.01.37.427 0 .77-.123 1.03-.37s.39-.577.39-.99v-3.23l-.006-.149a1.254 1.254 0 0 0-.379-.831c-.256-.247-.601-.37-1.035-.37zm0-34.63c.646 0 1.163.183 1.55.55.386.367.58.853.58 1.46v3.16l-.008.2c-.038.52-.229.944-.573 1.27-.386.367-.903.55-1.55.55-.64 0-1.15-.183-1.53-.55-.38-.367-.57-.857-.57-1.47v-3.16l.007-.2c.038-.52.225-.942.563-1.265.38-.363.89-.545 1.53-.545zm8.946 0c.647 0 1.164.183 1.55.55.387.367.58.853.58 1.46v3.16l-.007.2c-.038.52-.229.944-.573 1.27-.386.367-.903.55-1.55.55-.64 0-1.15-.183-1.53-.55-.38-.367-.57-.857-.57-1.47v-3.16l.007-.2c.038-.52.226-.942.563-1.265.38-.363.89-.545 1.53-.545zm6.079 0c.647 0 1.163.183 1.55.55.387.367.58.853.58 1.46v3.16l-.007.2c-.038.52-.23.944-.573 1.27-.387.367-.903.55-1.55.55-.64 0-1.15-.183-1.53-.55-.38-.367-.57-.857-.57-1.47v-3.16l.007-.2c.038-.52.225-.942.563-1.265.38-.363.89-.545 1.53-.545zm7.529.09.043.006c.038.013.057.044.057.094v.42l-.007.044c-.012.037-.043.056-.093.056h-2.85l-.023.004c-.012.006-.017.018-.017.036l-.01 2.42.003.017.012.013c.01.007.021.003.035-.01.166-.153.363-.272.59-.355a2.07 2.07 0 0 1 .72-.125c.473 0 .873.115 1.2.345.326.23.536.555.63.975.06.293.09.593.09.9 0 .327-.03.607-.09.84a1.79 1.79 0 0 1-.68 1.015c-.34.25-.75.375-1.23.375-.474 0-.877-.12-1.21-.36a1.78 1.78 0 0 1-.68-.96 2.065 2.065 0 0 1-.09-.44v-.02l.005-.035c.011-.03.04-.045.085-.045h.53l.044.006c.039.013.06.044.066.094 0 .04.013.107.04.2.066.287.205.515.415.685.21.17.471.255.785.255.32 0 .588-.09.805-.27a1.27 1.27 0 0 0 .425-.74c.04-.153.06-.353.06-.6a4.08 4.08 0 0 0-.05-.65c-.047-.307-.18-.54-.4-.7-.22-.16-.494-.24-.82-.24-.294 0-.557.067-.79.2-.234.133-.384.31-.45.53-.02.06-.057.09-.11.09h-.54l-.044-.006c-.038-.013-.056-.044-.056-.094v-3.87l.006-.044c.012-.037.044-.056.094-.056h3.5zm-17.906 5.86a.539.539 0 0 1 .56.56c0 .16-.053.293-.16.4a.543.543 0 0 1-.4.16.539.539 0 0 1-.56-.56c0-.167.052-.302.155-.405a.548.548 0 0 1 .405-.155zm-4.649-5.32c-.42 0-.756.123-1.01.37-.253.247-.38.573-.38.98v3.23l.006.151c.028.344.153.623.374.839.254.247.59.37 1.01.37.427 0 .77-.123 1.03-.37s.39-.577.39-.99v-3.23l-.006-.149a1.254 1.254 0 0 0-.379-.831c-.256-.247-.601-.37-1.035-.37zm8.947 0c-.42 0-.756.123-1.01.37-.253.247-.38.573-.38.98v3.23l.006.151c.028.344.153.623.374.839.254.247.59.37 1.01.37.427 0 .77-.123 1.03-.37s.39-.577.39-.99v-3.23l-.006-.149a1.254 1.254 0 0 0-.379-.831c-.256-.247-.601-.37-1.035-.37zm6.079 0c-.42 0-.757.123-1.01.37s-.38.573-.38.98v3.23l.006.151c.028.344.152.623.374.839.253.247.59.37 1.01.37.427 0 .77-.123 1.03-.37s.39-.577.39-.99v-3.23l-.006-.149a1.254 1.254 0 0 0-.379-.831c-.257-.247-.602-.37-1.035-.37zm0-36.63c.647 0 1.163.183 1.55.55.387.367.58.853.58 1.46v3.16l-.007.2c-.038.52-.23.944-.573 1.27-.387.367-.903.55-1.55.55-.64 0-1.15-.183-1.53-.55-.38-.367-.57-.857-.57-1.47v-3.16l.007-.2c.038-.52.225-.942.563-1.265.38-.363.89-.545 1.53-.545zm-6.079 0c.647 0 1.164.183 1.55.55.387.367.58.853.58 1.46v3.16l-.007.2c-.038.52-.229.944-.573 1.27-.386.367-.903.55-1.55.55-.64 0-1.15-.183-1.53-.55-.38-.367-.57-.857-.57-1.47v-3.16l.007-.2c.038-.52.226-.942.563-1.265.38-.363.89-.545 1.53-.545zm-8.947 0c.647 0 1.164.183 1.55.55.387.367.58.853.58 1.46v3.16l-.007.2c-.038.52-.229.944-.573 1.27-.386.367-.903.55-1.55.55-.64 0-1.15-.183-1.53-.55-.38-.367-.57-.857-.57-1.47v-3.16l.007-.2c.038-.52.225-.942.563-1.265.38-.363.89-.545 1.53-.545zm20.485.09.043.006c.038.013.057.044.057.094v6.8l-.007.044c-.012.037-.043.056-.093.056h-.51l-.044-.006c-.038-.013-.056-.044-.056-.094v-6.09l-.004-.018-.011-.012c-.01-.007-.022-.007-.035 0l-1.06.43-.04.01-.036-.009c-.02-.012-.036-.035-.044-.071l-.05-.38v-.02l.007-.033a.183.183 0 0 1 .063-.067l1.15-.61.062-.023.068-.007h.54zm-15.836 5.86a.539.539 0 0 1 .56.56c0 .16-.053.293-.16.4a.543.543 0 0 1-.4.16.539.539 0 0 1-.56-.56c0-.167.052-.302.155-.405a.548.548 0 0 1 .405-.155zm10.377-5.32c-.42 0-.757.123-1.01.37s-.38.573-.38.98v3.23l.006.151c.028.344.152.623.374.839.253.247.59.37 1.01.37.427 0 .77-.123 1.03-.37s.39-.577.39-.99v-3.23l-.006-.149a1.254 1.254 0 0 0-.379-.831c-.257-.247-.602-.37-1.035-.37zm-15.026 0c-.42 0-.756.123-1.01.37-.253.247-.38.573-.38.98v3.23l.006.151c.028.344.153.623.374.839.254.247.59.37 1.01.37.427 0 .77-.123 1.03-.37s.39-.577.39-.99v-3.23l-.006-.149a1.254 1.254 0 0 0-.379-.831c-.256-.247-.601-.37-1.035-.37zm8.947 0c-.42 0-.756.123-1.01.37-.253.247-.38.573-.38.98v3.23l.006.151c.028.344.153.623.374.839.254.247.59.37 1.01.37.427 0 .77-.123 1.03-.37s.39-.577.39-.99v-3.23l-.006-.149a1.254 1.254 0 0 0-.379-.831c-.256-.247-.601-.37-1.035-.37zm6.079-36.63c.647 0 1.163.183 1.55.55.387.367.58.853.58 1.46v3.16l-.007.2c-.038.52-.23.944-.573 1.27-.387.367-.903.55-1.55.55-.64 0-1.15-.183-1.53-.55-.38-.367-.57-.857-.57-1.47v-3.16l.007-.2c.038-.52.225-.942.563-1.265.38-.363.89-.545 1.53-.545zm-6.079 0c.647 0 1.164.183 1.55.55.387.367.58.853.58 1.46v3.16l-.007.2c-.038.52-.229.944-.573 1.27-.386.367-.903.55-1.55.55-.64 0-1.15-.183-1.53-.55-.38-.367-.57-.857-.57-1.47v-3.16l.007-.2c.038-.52.226-.942.563-1.265.38-.363.89-.545 1.53-.545zm-8.947 0c.647 0 1.164.183 1.55.55.387.367.58.853.58 1.46v3.16l-.007.2c-.038.52-.229.944-.573 1.27-.386.367-.903.55-1.55.55-.64 0-1.15-.183-1.53-.55-.38-.367-.57-.857-.57-1.47v-3.16l.007-.2c.038-.52.225-.942.563-1.265.38-.363.89-.545 1.53-.545zm26.203.09.044.006c.037.013.056.044.056.094v.42l-.006.044c-.013.037-.044.056-.094.056h-2.85l-.022.004c-.012.006-.018.018-.018.036l-.01 2.42.004.017.011.013c.01.007.022.003.035-.01.167-.153.363-.272.59-.355a2.07 2.07 0 0 1 .72-.125c.473 0 .873.115 1.2.345.327.23.537.555.63.975.06.293.09.593.09.9 0 .327-.03.607-.09.84a1.79 1.79 0 0 1-.68 1.015c-.34.25-.75.375-1.23.375-.473 0-.877-.12-1.21-.36a1.78 1.78 0 0 1-.68-.96 2.065 2.065 0 0 1-.09-.44v-.02l.006-.035c.011-.03.04-.045.084-.045h.53l.045.006c.038.013.06.044.065.094 0 .04.013.107.04.2.067.287.205.515.415.685.21.17.472.255.785.255.32 0 .588-.09.805-.27a1.27 1.27 0 0 0 .425-.74c.04-.153.06-.353.06-.6a4.08 4.08 0 0 0-.05-.65c-.047-.307-.18-.54-.4-.7-.22-.16-.493-.24-.82-.24-.293 0-.557.067-.79.2-.233.133-.383.31-.45.53-.02.06-.057.09-.11.09h-.54l-.044-.006c-.037-.013-.056-.044-.056-.094V46.1l.006-.044c.013-.037.044-.056.094-.056h3.5zm-5.718 0 .043.006c.038.013.057.044.057.094v6.8l-.007.044c-.012.037-.043.056-.093.056h-.51l-.044-.006c-.038-.013-.056-.044-.056-.094v-6.09l-.004-.017-.011-.013c-.01-.007-.022-.007-.035 0l-1.06.43-.04.01-.036-.009c-.02-.012-.036-.035-.044-.071l-.05-.38v-.02l.007-.033a.183.183 0 0 1 .063-.067l1.15-.61.062-.023.068-.007h.54zm-15.836 5.86a.539.539 0 0 1 .56.56c0 .16-.053.293-.16.4a.543.543 0 0 1-.4.16.539.539 0 0 1-.56-.56c0-.167.052-.302.155-.405a.548.548 0 0 1 .405-.155zm10.377-5.32c-.42 0-.757.123-1.01.37s-.38.573-.38.98v3.23l.006.151c.028.344.152.623.374.839.253.247.59.37 1.01.37.427 0 .77-.123 1.03-.37s.39-.577.39-.99v-3.23l-.006-.149a1.254 1.254 0 0 0-.379-.831c-.257-.247-.602-.37-1.035-.37zm-15.026 0c-.42 0-.756.123-1.01.37-.253.247-.38.573-.38.98v3.23l.006.151c.028.344.153.623.374.839.254.247.59.37 1.01.37.427 0 .77-.123 1.03-.37s.39-.577.39-.99v-3.23l-.006-.149a1.254 1.254 0 0 0-.379-.831c-.256-.247-.601-.37-1.035-.37zm8.947 0c-.42 0-.756.123-1.01.37-.253.247-.38.573-.38.98v3.23l.006.151c.028.344.153.623.374.839.254.247.59.37 1.01.37.427 0 .77-.123 1.03-.37s.39-.577.39-.99v-3.23l-.006-.149a1.254 1.254 0 0 0-.379-.831c-.256-.247-.601-.37-1.035-.37zM93.72 30.91c.647 0 1.164.183 1.55.55.387.367.58.853.58 1.46v3.16l-.007.2c-.038.52-.229.944-.573 1.27-.386.367-.903.55-1.55.55-.64 0-1.15-.183-1.53-.55-.38-.367-.57-.857-.57-1.47v-3.16l.007-.2c.038-.52.225-.942.563-1.265.38-.363.89-.545 1.53-.545zm-60.752 0c.647 0 1.163.183 1.55.55.387.367.58.853.58 1.46v3.16l-.007.2c-.038.52-.23.944-.573 1.27-.387.367-.903.55-1.55.55-.64 0-1.15-.183-1.53-.55-.38-.367-.57-.857-.57-1.47v-3.16l.007-.2c.038-.52.225-.942.563-1.265.38-.363.89-.545 1.53-.545zm6.079 0c.646 0 1.163.183 1.55.55.386.367.58.853.58 1.46v3.16l-.007.2c-.039.52-.23.944-.573 1.27-.387.367-.904.55-1.55.55-.64 0-1.15-.183-1.53-.55-.38-.367-.57-.857-.57-1.47v-3.16l.007-.2c.037-.52.225-.942.563-1.265.38-.363.89-.545 1.53-.545zm115.553 0c.646 0 1.163.183 1.55.55.386.367.58.853.58 1.46v3.16l-.008.2c-.038.52-.229.944-.572 1.27-.387.367-.904.55-1.55.55-.64 0-1.15-.183-1.53-.55-.38-.367-.57-.857-.57-1.47v-3.16l.007-.2c.037-.52.225-.942.563-1.265.38-.363.89-.545 1.53-.545zm6.078 0c.647 0 1.163.183 1.55.55.387.367.58.853.58 1.46v3.16l-.007.2c-.038.52-.23.944-.573 1.27-.387.367-.903.55-1.55.55-.64 0-1.15-.183-1.53-.55-.38-.367-.57-.857-.57-1.47v-3.16l.007-.2c.038-.52.225-.942.563-1.265.38-.363.89-.545 1.53-.545zm58.072 0c.646 0 1.163.183 1.55.55.386.367.58.853.58 1.46v3.16l-.008.2c-.038.52-.229.944-.572 1.27-.387.367-.904.55-1.55.55-.64 0-1.15-.183-1.53-.55-.38-.367-.57-.857-.57-1.47v-3.16l.007-.2c.037-.52.225-.942.563-1.265.38-.363.89-.545 1.53-.545zm6.078 0c.647 0 1.163.183 1.55.55.387.367.58.853.58 1.46v3.16l-.007.2c-.038.52-.23.944-.573 1.27-.387.367-.903.55-1.55.55-.64 0-1.15-.183-1.53-.55-.38-.367-.57-.857-.57-1.47v-3.16l.007-.2c.038-.52.225-.942.563-1.265.38-.363.89-.545 1.53-.545zm-197.908.01c.4 0 .753.077 1.06.23.306.153.543.365.71.635.166.27.25.575.25.915 0 .567-.314 1.25-.94 2.05-.327.42-.957 1.193-1.89 2.32l-.22.26-.01.022c-.005.019.005.028.03.028h3.14l.043.006c.038.013.057.044.057.094v.42l-.007.044c-.012.037-.043.056-.093.056h-3.99l-.044-.006c-.038-.013-.056-.044-.056-.094v-.42l.005-.044a.165.165 0 0 1 .045-.076c.226-.267.736-.893 1.53-1.88l.74-.92.15-.195c.526-.7.79-1.252.79-1.655 0-.353-.12-.637-.36-.85-.24-.213-.554-.32-.94-.32-.38 0-.687.108-.92.325-.234.217-.347.502-.34.855v.31l-.007.044c-.012.037-.043.056-.093.056h-.52l-.044-.006c-.038-.013-.056-.044-.056-.094v-.4l.01-.167c.048-.437.236-.794.565-1.073.37-.313.838-.47 1.405-.47zm121.631 0c.4 0 .753.077 1.06.23.307.153.543.365.71.635.167.27.25.575.25.915 0 .567-.313 1.25-.94 2.05-.327.42-.957 1.193-1.89 2.32l-.22.26-.01.022c-.005.019.005.028.03.028h3.14l.044.006c.037.013.056.044.056.094v.42l-.006.044c-.013.037-.044.056-.094.056h-3.99l-.044-.006c-.037-.013-.056-.044-.056-.094v-.42l.006-.044a.165.165 0 0 1 .044-.076c.227-.267.737-.893 1.53-1.88l.74-.92.15-.195c.527-.7.79-1.252.79-1.655 0-.353-.12-.637-.36-.85-.24-.213-.553-.32-.94-.32-.38 0-.687.108-.92.325-.233.217-.347.502-.34.855v.31l-.006.044c-.013.037-.044.056-.094.056h-.52l-.044-.006c-.037-.013-.056-.044-.056-.094v-.4l.011-.167c.047-.437.235-.794.564-1.073.37-.313.838-.47 1.405-.47zm64.66.08.03.004a.08.08 0 0 1 .045.031c.017.023.018.052.005.085l-1.99 4.26-.005.019.005.016c.007.01.017.015.03.015h2.25l.022-.004c.012-.006.018-.018.018-.036v-1.61l.006-.044c.013-.037.044-.056.094-.056h.51l.044.006c.037.013.056.044.056.094v1.61l.004.022c.006.012.018.018.036.018h.43l.044.006c.037.013.056.044.056.094v.44l-.006.044c-.013.037-.044.056-.094.056h-.43l-.022.004c-.012.006-.018.018-.018.036v1.79l-.006.044c-.013.037-.044.056-.094.056h-.51l-.044-.006c-.037-.013-.056-.044-.056-.094v-1.79l-.004-.022c-.006-.012-.018-.018-.036-.018h-2.99l-.044-.006c-.037-.013-.056-.044-.056-.094v-.37l.003-.036a.39.39 0 0 1 .027-.084l2.05-4.41.026-.039a.114.114 0 0 1 .084-.031h.53zm-180.243.54c-.42 0-.757.123-1.01.37s-.38.573-.38.98v3.23l.006.151c.028.344.152.623.374.839.253.247.59.37 1.01.37.427 0 .77-.123 1.03-.37s.39-.577.39-.99v-3.23l-.006-.149a1.254 1.254 0 0 0-.379-.831c-.257-.247-.602-.37-1.035-.37zm6.079 0c-.42 0-.757.123-1.01.37-.254.247-.38.573-.38.98v3.23l.006.151c.027.344.152.623.374.839.253.247.59.37 1.01.37.426 0 .77-.123 1.03-.37s.39-.577.39-.99v-3.23l-.006-.149a1.254 1.254 0 0 0-.38-.831c-.256-.247-.601-.37-1.034-.37zm54.673 0c-.42 0-.756.123-1.01.37-.253.247-.38.573-.38.98v3.23l.006.151c.028.344.153.623.374.839.254.247.59.37 1.01.37.427 0 .77-.123 1.03-.37s.39-.577.39-.99v-3.23l-.006-.149a1.254 1.254 0 0 0-.379-.831c-.256-.247-.601-.37-1.035-.37zm60.88 0c-.42 0-.757.123-1.01.37-.254.247-.38.573-.38.98v3.23l.006.151c.027.344.152.623.374.839.253.247.59.37 1.01.37.426 0 .77-.123 1.03-.37s.39-.577.39-.99v-3.23l-.006-.149a1.254 1.254 0 0 0-.38-.831c-.256-.247-.601-.37-1.034-.37zm6.078 0c-.42 0-.757.123-1.01.37s-.38.573-.38.98v3.23l.006.151c.028.344.152.623.374.839.253.247.59.37 1.01.37.427 0 .77-.123 1.03-.37s.39-.577.39-.99v-3.23l-.006-.149a1.254 1.254 0 0 0-.379-.831c-.257-.247-.602-.37-1.035-.37zm58.072 0c-.42 0-.757.123-1.01.37-.254.247-.38.573-.38.98v3.23l.006.151c.027.344.152.623.374.839.253.247.59.37 1.01.37.426 0 .77-.123 1.03-.37s.39-.577.39-.99v-3.23l-.006-.149a1.254 1.254 0 0 0-.38-.831c-.256-.247-.601-.37-1.034-.37zm6.078 0c-.42 0-.757.123-1.01.37s-.38.573-.38.98v3.23l.006.151c.028.344.152.623.374.839.253.247.59.37 1.01.37.427 0 .77-.123 1.03-.37s.39-.577.39-.99v-3.23l-.006-.149a1.254 1.254 0 0 0-.379-.831c-.257-.247-.602-.37-1.035-.37zM23.45 34.58l.044.006c.037.013.056.044.056.094v.42l-.006.044c-.013.037-.044.056-.094.056h-2.96l-.044-.006c-.037-.013-.056-.044-.056-.094v-.42l.006-.044c.013-.037.044-.056.094-.056h2.96z" fill-rule="nonzero" opacity=".5"/>
        </g>
        <path d="M125.155 63c15.266 0 16.667 24.422 41.154 52.906C178.4 129.969 196.296 143.666 220 157H31c23.161-11.782 41.806-26.733 55.936-44.853C107.438 85.854 109.89 63 125.156 63z" fill="#597FFF" opacity=".7"/>
        <g fill="#FFF" fill-rule="nonzero">
            <path d="M389.865 80c.094 0 .154-.047.182-.14l2.982-9.464c.019-.056.014-.103-.014-.14-.028-.037-.07-.056-.126-.056h-1.358c-.102 0-.168.047-.196.14l-2.086 7.308c-.01.028-.023.042-.042.042-.018 0-.032-.014-.042-.042l-2.1-7.308c-.028-.093-.093-.14-.196-.14h-1.386c-.102 0-.154.047-.154.14l.014.056 2.94 9.464c.028.093.089.14.182.14h1.4zm6.256.112c.868 0 1.53-.252 1.988-.756.019-.019.038-.026.056-.021.019.005.028.021.028.049v.448c0 .047.017.086.05.119a.162.162 0 0 0 .118.049h1.288a.162.162 0 0 0 .12-.049.162.162 0 0 0 .048-.119v-4.718c0-.457-.121-.866-.364-1.225-.242-.36-.588-.642-1.036-.847-.448-.205-.966-.308-1.554-.308-.812 0-1.486.182-2.023.546-.536.364-.842.83-.917 1.4-.01.037.003.068.035.091.033.023.073.04.12.049l1.357.168c.103.019.168-.028.196-.14a.822.822 0 0 1 .413-.525c.22-.126.507-.189.861-.189.43 0 .752.1.966.301.215.2.322.483.322.847v.336c0 .047-.023.07-.07.07h-1.498c-.924 0-1.64.203-2.149.609-.508.406-.763.973-.763 1.701 0 .7.227 1.227.68 1.582.452.355 1.028.532 1.728.532zm.406-1.288c-.345 0-.627-.082-.847-.245-.22-.163-.329-.394-.329-.693 0-.345.143-.611.427-.798.285-.187.675-.28 1.17-.28h1.175c.047 0 .07.023.07.07v.658c0 .373-.163.681-.49.924-.326.243-.718.364-1.176.364zm6.97 1.176a.162.162 0 0 0 .12-.049.162.162 0 0 0 .048-.119v-9.464a.162.162 0 0 0-.049-.119.162.162 0 0 0-.119-.049h-1.288a.162.162 0 0 0-.119.049.162.162 0 0 0-.049.119v9.464c0 .047.017.086.05.119a.162.162 0 0 0 .118.049h1.288zm4.912.098c.766 0 1.34-.247 1.722-.742.019-.028.038-.037.056-.028.019.01.028.028.028.056v.448c0 .047.017.086.05.119a.162.162 0 0 0 .118.049h1.274a.162.162 0 0 0 .12-.049.162.162 0 0 0 .048-.119v-6.818a.162.162 0 0 0-.049-.119.162.162 0 0 0-.119-.049h-1.274a.162.162 0 0 0-.119.049.162.162 0 0 0-.049.119v4.256c0 .439-.126.789-.378 1.05s-.588.392-1.008.392c-.41 0-.73-.13-.959-.392-.228-.261-.343-.611-.343-1.05v-4.256a.162.162 0 0 0-.049-.119.162.162 0 0 0-.119-.049h-1.288a.162.162 0 0 0-.119.049.162.162 0 0 0-.049.119v4.718c0 .756.24 1.34.721 1.75.48.41 1.076.616 1.785.616zm8.874.028c.588 0 1.123-.112 1.603-.336a2.86 2.86 0 0 0 1.155-.952c.056-.084.042-.159-.042-.224l-.868-.714a.134.134 0 0 0-.098-.042c-.056 0-.102.028-.14.084-.373.523-.877.784-1.512.784-.868-.01-1.414-.35-1.638-1.022-.056-.112-.098-.322-.126-.63 0-.047.024-.07.07-.07h4.382c.112 0 .168-.056.168-.168l.014-.434c0-.29-.018-.55-.056-.784-.233-1.923-1.27-2.884-3.108-2.884-.728 0-1.35.189-1.869.567-.518.378-.87.894-1.057 1.547-.112.336-.168.775-.168 1.316 0 .896.108 1.596.322 2.1a2.82 2.82 0 0 0 1.113 1.372c.509.327 1.127.49 1.855.49zm1.246-4.326h-2.842c-.056 0-.074-.023-.056-.07a2.43 2.43 0 0 1 .112-.616c.094-.308.255-.548.483-.721.229-.173.516-.259.861-.259.374 0 .684.093.931.28.248.187.413.448.497.784.038.121.066.299.084.532 0 .047-.023.07-.07.07z"/>
            <path d="m523.088 91.062-.485.875a3.482 3.482 0 0 0-1.694-.437v-1c.773 0 1.518.195 2.18.562zm2.321 5.815h-1l-.002-1.993 1-.033.002.14v1.886zm0 6h-1v-2h1v2zm0 6h-1v-2h1v2zm0 6h-1v-2h1v2zm-1.988 5.858-.56-.83c.492-.33.893-.782 1.164-1.309l.89.457a4.518 4.518 0 0 1-1.494 1.682zm-6.266.765v-1h2v1h-2zm-6 0v-1h2v1h-2zm-6 0v-1h2v1h-2zm-6 0v-1h2v1h-2zm-6 0v-1h2v1h-2zm-6 0v-1h2v1h-2zm-6 0v-1h2v1h-2zm-6 0v-1h2v1h-2zm-6 0v-1h2v1h-2zm-6 0v-1h2v1h-2zm-6 0v-1h2v1h-2zm-6 0v-1h2v1h-2zm-6 0v-1h2v1h-2zm-6 0v-1h2v1h-2zm-6 0v-1h2v1h-2zm-6 0v-1h2v1h-2zm-6 0v-1h2v1h-2zm-6 0v-1h2v1h-2zm-6 0v-1h2v1h-2zm-6 0v-1h2v1h-2zm-6 0v-1h2v1h-2zm-6 0v-1h2v1h-2zm-5.9-1.872.812-.585c.346.48.81.868 1.345 1.121l-.429.904a4.516 4.516 0 0 1-1.727-1.44zm-.846-6.26h1v2h-1v-2zm0-6h1v2h-1v-2zm0-6h1v2h-1v-2zm0-6h1v2h-1v-2zm3.948-4.834.121.992a3.478 3.478 0 0 0-1.626.642l-.589-.808a4.478 4.478 0 0 1 2.094-.826zm6.06-.034v1h-2v-1h2zm6 0v1h-2v-1h2zm6 0v1h-2v-1h2zm6 0v1h-2v-1h2zm6 0v1h-2v-1h2zm6 0v1h-2v-1h2zm6 0v1h-2v-1h2zm6 0v1h-2v-1h2zm6 0v1h-2v-1h2zm6 0v1h-2v-1h2zm6 0v1h-2v-1h2zm6 0v1h-2v-1h2zm6 0v1h-2v-1h2zm6 0v1h-2v-1h2zm6 0v1h-2v-1h2zm6 0v1h-2v-1h2zm6 0v1h-2v-1h2zm6 0v1h-2v-1h2zm6 0v1h-2v-1h2zm6 0v1h-2v-1h2zm6 0v1h-2v-1h2zm6 0v1h-2v-1h2z" opacity=".4"/>
            <path d="M396.77 111c.08 0 .12-.04.12-.12l-.013-6.612c0-.024.008-.038.024-.042.016-.004.028.006.036.03l4.092 6.66c.04.056.088.084.144.084h.6c.08 0 .12-.04.12-.12v-8.16c0-.08-.04-.12-.12-.12h-.612c-.08 0-.12.04-.12.12l.012 6.612c0 .024-.008.038-.024.042-.016.004-.028-.006-.036-.03l-4.092-6.66c-.04-.056-.088-.084-.144-.084h-.6c-.08 0-.12.04-.12.12v8.16c0 .08.04.12.12.12h.612zm9.699.096c.576 0 1.07-.148 1.482-.444.412-.296.694-.704.846-1.224.112-.336.168-.828.168-1.476 0-.64-.056-1.132-.168-1.476a2.224 2.224 0 0 0-.846-1.2c-.412-.296-.902-.444-1.47-.444-.592 0-1.096.148-1.512.444-.416.296-.7.7-.852 1.212-.112.36-.168.848-.168 1.464s.056 1.108.168 1.476c.16.52.448.928.864 1.224.416.296.912.444 1.488.444zm0-.744c-.4 0-.738-.106-1.014-.318a1.492 1.492 0 0 1-.546-.858c-.064-.28-.096-.684-.096-1.212 0-.528.032-.932.096-1.212.096-.36.28-.646.552-.858.272-.212.604-.318.996-.318s.726.106 1.002.318c.276.212.462.498.558.858.064.28.096.684.096 1.212 0 .52-.036.924-.108 1.212-.096.36-.28.646-.552.858-.272.212-.6.318-.984.318zm5.127.648c.08 0 .12-.04.12-.12v-3.816c0-.44.136-.796.408-1.068.272-.272.628-.408 1.068-.408.424 0 .77.14 1.038.42.268.28.402.64.402 1.08v3.792c0 .08.04.12.12.12h.612c.08 0 .12-.04.12-.12v-3.96c0-.632-.19-1.136-.57-1.512-.38-.376-.89-.564-1.53-.564-.728 0-1.268.248-1.62.744-.008.016-.018.02-.03.012a.04.04 0 0 1-.018-.036v-.516c0-.08-.04-.12-.12-.12h-.612c-.08 0-.12.04-.12.12v5.832c0 .08.04.12.12.12h.612zm8.116.108c.52 0 .98-.11 1.38-.33.4-.22.7-.522.9-.906.032-.072.016-.128-.048-.168l-.468-.276c-.064-.04-.12-.024-.168.048-.144.28-.344.496-.6.648a1.706 1.706 0 0 1-.888.228c-.448 0-.816-.104-1.104-.312a1.435 1.435 0 0 1-.564-.852c-.032-.128-.056-.412-.072-.852 0-.032.016-.048.048-.048h3.876c.08 0 .12-.04.12-.12v-.384c0-.336-.016-.616-.048-.84-.096-.672-.34-1.192-.732-1.56-.392-.368-.952-.552-1.68-.552-.584 0-1.082.156-1.494.468a2.223 2.223 0 0 0-.822 1.248 2.618 2.618 0 0 0-.09.57c-.012.212-.018.486-.018.822 0 .72.072 1.272.216 1.656.168.472.444.84.828 1.104.384.264.86.4 1.428.408zm1.524-3.54h-3.108c-.032 0-.048-.016-.048-.048.016-.376.048-.648.096-.816.08-.344.25-.618.51-.822.26-.204.586-.306.978-.306.408 0 .746.106 1.014.318.268.212.446.498.534.858.032.152.056.408.072.768 0 .032-.016.048-.048.048zm8.178 3.528c.6 0 1.128-.116 1.584-.348a2.502 2.502 0 0 0 1.056-.99c.248-.428.372-.922.372-1.482v-5.532a.139.139 0 0 0-.042-.102.139.139 0 0 0-.102-.042h-1.104a.139.139 0 0 0-.102.042.139.139 0 0 0-.042.102v5.556c0 .472-.148.856-.444 1.152-.296.296-.688.444-1.176.444s-.88-.148-1.176-.444c-.296-.296-.444-.68-.444-1.152v-5.556a.139.139 0 0 0-.042-.102.139.139 0 0 0-.102-.042h-1.104a.139.139 0 0 0-.102.042.139.139 0 0 0-.042.102v5.532c0 .56.126 1.054.378 1.482a2.54 2.54 0 0 0 1.062.99c.456.232.98.348 1.572.348zm5.98-.096c.04 0 .074-.014.102-.042a.139.139 0 0 0 .042-.102v-3.66c0-.368.106-.664.318-.888.212-.224.49-.336.834-.336s.62.114.828.342c.208.228.312.526.312.894v3.648c0 .04.014.074.042.102a.139.139 0 0 0 .102.042h1.104c.04 0 .074-.014.102-.042a.139.139 0 0 0 .042-.102v-3.936c0-.664-.194-1.188-.582-1.572-.388-.384-.906-.576-1.554-.576-.664 0-1.16.216-1.488.648-.008.024-.02.032-.036.024-.016-.008-.024-.024-.024-.048v-.384a.139.139 0 0 0-.042-.102.139.139 0 0 0-.102-.042h-1.104a.139.139 0 0 0-.102.042.139.139 0 0 0-.042.102v5.844c0 .04.014.074.042.102a.139.139 0 0 0 .102.042h1.104zm6.243-6.972c.248 0 .452-.08.612-.24.16-.16.24-.364.24-.612a.829.829 0 0 0-.24-.612.829.829 0 0 0-.612-.24.829.829 0 0 0-.612.24.829.829 0 0 0-.24.612c0 .248.08.452.24.612.16.16.364.24.612.24zm.528 6.972c.04 0 .074-.014.102-.042a.139.139 0 0 0 .042-.102V105a.139.139 0 0 0-.042-.102.139.139 0 0 0-.102-.042h-1.104a.139.139 0 0 0-.102.042.139.139 0 0 0-.042.102v5.856c0 .04.014.074.042.102a.139.139 0 0 0 .102.042h1.104zm4.3.024.624-.012c.096-.016.144-.068.144-.156v-.9a.139.139 0 0 0-.042-.102.139.139 0 0 0-.102-.042h-.36c-.288 0-.498-.068-.63-.204-.132-.136-.198-.356-.198-.66v-2.892c0-.04.02-.06.06-.06h1.224c.04 0 .074-.014.102-.042a.139.139 0 0 0 .042-.102v-.84a.139.139 0 0 0-.042-.102.139.139 0 0 0-.102-.042h-1.224c-.04 0-.06-.02-.06-.06v-1.404a.139.139 0 0 0-.042-.102.139.139 0 0 0-.102-.042h-1.044a.139.139 0 0 0-.102.042.139.139 0 0 0-.042.102v1.404c0 .04-.02.06-.06.06h-.684a.139.139 0 0 0-.102.042.139.139 0 0 0-.042.102v.84c0 .04.014.074.042.102a.139.139 0 0 0 .102.042h.684c.04 0 .06.02.06.06v3.42c.008.6.168 1.008.48 1.224.312.216.784.324 1.416.324zm6.15-.024c.04 0 .075-.014.103-.042a.139.139 0 0 0 .042-.102v-3.228c0-.04.02-.06.06-.06h1.92c.52 0 .978-.102 1.374-.306a2.19 2.19 0 0 0 .918-.87c.216-.376.324-.808.324-1.296 0-.496-.106-.934-.318-1.314a2.207 2.207 0 0 0-.894-.882c-.384-.208-.828-.312-1.332-.312h-3.3a.139.139 0 0 0-.102.042.139.139 0 0 0-.042.102v8.124c0 .04.014.074.042.102a.139.139 0 0 0 .102.042h1.104zm1.993-4.56h-1.788c-.04 0-.06-.02-.06-.06v-2.532c0-.04.02-.06.06-.06h1.788c.408 0 .736.124.984.372s.372.572.372.972c0 .392-.124.708-.372.948s-.576.36-.984.36zm5.259 4.56c.04 0 .074-.014.102-.042a.139.139 0 0 0 .042-.102v-3.396c0-.352.112-.638.336-.858a1.24 1.24 0 0 1 .84-.354c.056-.008.136-.012.24-.012.16 0 .3.02.42.06.104.04.16.012.168-.084l.204-1.08c.016-.088-.008-.148-.072-.18a1.39 1.39 0 0 0-.672-.156c-.6 0-1.068.26-1.404.78-.016.024-.03.034-.042.03-.012-.004-.018-.022-.018-.054v-.54a.139.139 0 0 0-.042-.102.139.139 0 0 0-.102-.042h-1.104a.139.139 0 0 0-.102.042.139.139 0 0 0-.042.102v5.844c0 .04.014.074.042.102a.139.139 0 0 0 .102.042h1.104zm4.227-6.972c.248 0 .452-.08.612-.24.16-.16.24-.364.24-.612a.829.829 0 0 0-.24-.612.829.829 0 0 0-.612-.24.829.829 0 0 0-.612.24.829.829 0 0 0-.24.612c0 .248.08.452.24.612.16.16.364.24.612.24zm.528 6.972c.04 0 .074-.014.102-.042a.139.139 0 0 0 .042-.102V105a.139.139 0 0 0-.042-.102.139.139 0 0 0-.102-.042h-1.104a.139.139 0 0 0-.102.042.139.139 0 0 0-.042.102v5.856c0 .04.014.074.042.102a.139.139 0 0 0 .102.042h1.104zm4.468.096c.624 0 1.168-.15 1.632-.45.464-.3.772-.706.924-1.218.016-.056.036-.148.06-.276.008-.048-.002-.086-.03-.114a.195.195 0 0 0-.102-.054l-1.08-.168c-.088-.016-.144.024-.168.12 0 .016-.004.028-.012.036a.134.134 0 0 1-.012.06 1.052 1.052 0 0 1-.426.63c-.22.156-.482.234-.786.234-.312 0-.572-.082-.78-.246a1.263 1.263 0 0 1-.432-.666c-.072-.272-.108-.628-.108-1.068 0-.456.04-.812.12-1.068.072-.272.214-.486.426-.642a1.27 1.27 0 0 1 .774-.234c.296 0 .552.072.768.216.216.144.36.328.432.552.016.048.032.104.048.168a.312.312 0 0 1 .012.096c.024.08.072.12.144.12h.024l1.08-.156c.088-.016.132-.064.132-.144v-.024a2.2 2.2 0 0 0-.084-.384c-.152-.472-.46-.864-.924-1.176-.464-.312-1.008-.468-1.632-.468-.616 0-1.15.154-1.602.462a2.33 2.33 0 0 0-.93 1.254c-.128.368-.192.84-.192 1.416 0 .6.064 1.08.192 1.44.176.536.488.962.936 1.278.448.316.98.474 1.596.474zm6.603.012c.504 0 .962-.096 1.374-.288.412-.192.742-.464.99-.816.048-.072.036-.136-.036-.192l-.744-.612a.115.115 0 0 0-.084-.036c-.048 0-.088.024-.12.072-.32.448-.752.672-1.296.672-.744-.008-1.212-.3-1.404-.876-.048-.096-.084-.276-.108-.54 0-.04.02-.06.06-.06h3.756c.096 0 .144-.048.144-.144l.012-.372c0-.248-.016-.472-.048-.672-.2-1.648-1.088-2.472-2.664-2.472-.624 0-1.158.162-1.602.486a2.407 2.407 0 0 0-.906 1.326c-.096.288-.144.664-.144 1.128 0 .768.092 1.368.276 1.8.2.504.518.896.954 1.176.436.28.966.42 1.59.42zm1.068-3.708h-2.436c-.048 0-.064-.02-.048-.06.016-.216.048-.392.096-.528.08-.264.218-.47.414-.618.196-.148.442-.222.738-.222.32 0 .586.08.798.24.212.16.354.384.426.672.032.104.056.256.072.456 0 .04-.02.06-.06.06zM394.91 111.3v.6h28.137v-.6z"/>
        </g>
        <path fill="#FFF" fill-rule="nonzero" opacity=".5" d="m331.16.75-.001 103h53.172l-5.17-2.907.246-.436 6 3.375.387.218-.387.218-6 3.375-.245-.436 5.166-2.907h-53.669v-103H154.75v28.69h-.5V.75z"/>
        <path fill="#FFF" fill-rule="nonzero" opacity=".5" d="M330.91 49.485v.5h-43v-.5z"/>
    </g>
</svg>
