<svg width="48" height="48" viewBox="0 0 48 48" fill="none" xmlns="http://www.w3.org/2000/svg">
<g clip-path="url(#clip0_3860_75974)">
<path fill-rule="evenodd" clip-rule="evenodd" d="M26 7C26.5304 7 27.0391 7.21071 27.4142 7.58579C27.7893 7.96086 28 8.46957 28 9V15C28 15.5304 27.7893 16.0391 27.4142 16.4142C27.0391 16.7893 26.5304 17 26 17H2C1.46957 17 0.960859 16.7893 0.585786 16.4142C0.210714 16.0391 0 15.5304 0 15V9C0 8.46957 0.210714 7.96086 0.585786 7.58579C0.960859 7.21071 1.46957 7 2 7H26ZM46 7C46.5304 7 47.0391 7.21071 47.4142 7.58579C47.7893 7.96086 48 8.46957 48 9V15C48 15.5304 47.7893 16.0391 47.4142 16.4142C47.0391 16.7893 46.5304 17 46 17H32C31.4696 17 30.9609 16.7893 30.5858 16.4142C30.2107 16.0391 30 15.5304 30 15V9C30 8.46957 30.2107 7.96086 30.5858 7.58579C30.9609 7.21071 31.4696 7 32 7H46Z" fill="url(#paint0_linear_3860_75974)"/>
<path fill-rule="evenodd" clip-rule="evenodd" d="M47 35C47.2652 35 47.5196 35.1054 47.7071 35.2929C47.8946 35.4804 48 35.7348 48 36V38C48 38.2652 47.8946 38.5196 47.7071 38.7071C47.5196 38.8946 47.2652 39 47 39H19C18.7348 39 18.4804 38.8946 18.2929 38.7071C18.1054 38.5196 18 38.2652 18 38V36C18 35.7348 18.1054 35.4804 18.2929 35.2929C18.4804 35.1054 18.7348 35 19 35H47ZM47 28C47.2652 28 47.5196 28.1054 47.7071 28.2929C47.8946 28.4804 48 28.7348 48 29V31C48 31.2652 47.8946 31.5196 47.7071 31.7071C47.5196 31.8946 47.2652 32 47 32H19C18.7348 32 18.4804 31.8946 18.2929 31.7071C18.1054 31.5196 18 31.2652 18 31V29C18 28.7348 18.1054 28.4804 18.2929 28.2929C18.4804 28.1054 18.7348 28 19 28H47Z" fill="url(#paint1_linear_3860_75974)"/>
<path d="M15 27H13V26C13 25.7348 12.8946 25.4804 12.7071 25.2929C12.5196 25.1054 12.2652 25 12 25C11.7348 25 11.4804 25.1054 11.2929 25.2929C11.1054 25.4804 11 25.7348 11 26V27H9V26C9 25.7348 8.89464 25.4804 8.70711 25.2929C8.51957 25.1054 8.26522 25 8 25C7.73478 25 7.48043 25.1054 7.29289 25.2929C7.10536 25.4804 7 25.7348 7 26V27H5V26C5 25.7348 4.89464 25.4804 4.70711 25.2929C4.51957 25.1054 4.26522 25 4 25C3.73478 25 3.48043 25.1054 3.29289 25.2929C3.10536 25.4804 3 25.7348 3 26V27H1C0.734784 27 0.48043 27.1054 0.292893 27.2929C0.105357 27.4804 0 27.7348 0 28L0 40C0 40.2652 0.105357 40.5196 0.292893 40.7071C0.48043 40.8946 0.734784 41 1 41H15C15.2652 41 15.5196 40.8946 15.7071 40.7071C15.8946 40.5196 16 40.2652 16 40V28C16 27.7348 15.8946 27.4804 15.7071 27.2929C15.5196 27.1054 15.2652 27 15 27ZM14 39H2V31H14V39Z" fill="url(#paint2_linear_3860_75974)"/>
<path d="M38.1981 10.1959C38.3138 10.0808 38.4675 10.0119 38.6304 10.0019C38.7933 9.99198 38.9542 10.0417 39.0831 10.1419L39.1471 10.1979L41.3951 12.4539L43.6051 10.2009C43.7195 10.0843 43.8725 10.0135 44.0355 10.0017C44.1984 9.98997 44.36 10.038 44.4901 10.1369L44.5531 10.1919C44.7981 10.4319 44.8201 10.8119 44.6181 11.0769L44.5631 11.1409L41.8781 13.8789C41.7628 13.9965 41.6083 14.0676 41.444 14.0787C41.2797 14.0897 41.1171 14.04 40.9871 13.9389L40.9231 13.8829L38.1961 11.1449C38.1337 11.0825 38.0843 11.0083 38.0507 10.9267C38.017 10.8452 37.9998 10.7577 38 10.6695C38.0002 10.5813 38.0178 10.4939 38.0518 10.4125C38.0857 10.331 38.1355 10.2571 38.1981 10.1949V10.1959Z" fill="white"/>
</g>
<defs>
<linearGradient id="paint0_linear_3860_75974" x1="-8.08028e-08" y1="12.0476" x2="48" y2="12.0476" gradientUnits="userSpaceOnUse">
<stop stop-color="#A855F7"/>
<stop offset="1" stop-color="#3B82F6"/>
</linearGradient>
<linearGradient id="paint1_linear_3860_75974" x1="7.68" y1="50.8937" x2="45.5602" y2="34.2817" gradientUnits="userSpaceOnUse">
<stop stop-color="#568E8B"/>
<stop offset="0.776042" stop-color="#67F5ED"/>
</linearGradient>
<linearGradient id="paint2_linear_3860_75974" x1="-2.69343e-08" y1="33.0762" x2="16" y2="33.0762" gradientUnits="userSpaceOnUse">
<stop stop-color="#A855F7"/>
<stop offset="1" stop-color="#3B82F6"/>
</linearGradient>
<clipPath id="clip0_3860_75974">
<rect width="48" height="48" fill="white"/>
</clipPath>
</defs>
</svg>
