<svg xmlns="http://www.w3.org/2000/svg" width="48" height="48" viewBox="0 0 48 48">
    <g fill="none" fill-rule="evenodd">
        <g>
            <g>
                <g>
                    <g>
                        <g transform="translate(-455 -546) translate(372 106) translate(0 109) translate(48 307) translate(35 24)">
                            <rect width="48" height="48" opacity=".1" rx="2"/>
                            <path fill="#6D6F86" fill-rule="nonzero" d="M24 0l20.785 12v24L24 48 3.215 36V12L24 0zm0 1.155L4.215 12.577v22.845L24 46.844l19.784-11.422V12.577L24 1.155zM24 8l13.856 8v16L24 40l-13.856-8V16L24 8zm0 1.155l-12.857 7.422v14.845L24 38.844l12.856-7.422V16.577L24 9.155zM24 16l6.928 4v8L24 32l-6.928-4v-8L24 16zm0 1.155l-5.929 3.422v6.845L24 30.844l5.928-3.422v-6.845L24 17.155z"/>
                            <path stroke="#6D6F86" d="M23.5.5L23.5 47.5M3.5 12.5L43.5 35.5M44.5 12.5L4.5 35.5"/>
                            <path fill="#57F" fill-rule="nonzero" d="M26 6v2.119L35.026 15H38v4h-1.613l-2.667 8H34v4h-3.002L26 34.748V37h-4v-1.436l-9-2.076V34H9v-4h1.405l2.143-10H12v-4h2.61L22 8.75V6h4zm-.833 4h-1.585L16 17.438V20h-1.407L12.45 30H13v1.435l9 2.076V33h2.998L30 29.249V27h1.612l2.667-8H34v-2.267L25.167 10z"/>
                            <path fill="#B7C5FF" fill-rule="nonzero" d="M24 12c1.105 0 2 .895 2 2 0 .125-.012.248-.034.367l4.37 3.746c.208-.073.431-.113.664-.113 1.105 0 2 .895 2 2 0 .25-.046.49-.13.71l10.218 12.51c.273-.14.583-.22.912-.22 1.105 0 2 .895 2 2s-.895 2-2 2c-.634 0-1.199-.295-1.565-.755l-16.507 4.288C25.695 41.379 24.92 42 24 42c-1.105 0-2-.895-2-2 0-.407.122-.786.33-1.101l-4.45-8.903C16.83 29.934 16 29.064 16 28c0-.84.519-1.56 1.254-1.856l.51-3.57C17.3 22.206 17 21.637 17 21c0-1.105.895-2 2-2 .065 0 .13.003.193.01l2.986-4.182C22.064 14.576 22 14.295 22 14c0-1.105.895-2 2-2zm.664 3.887c-.208.073-.431.113-.664.113-.066 0-.13-.003-.195-.01l-2.985 4.18c.116.253.18.534.18.83 0 .842-.52 1.563-1.257 1.857l-.51 3.568c.467.366.767.936.767 1.575 0 .407-.122.786-.331 1.102l4.45 8.902c.51.03.968.25 1.305.591l16.065-4.171-10.168-12.45c-.105.017-.212.026-.321.026-1.105 0-2-.895-2-2 0-.125.012-.248.034-.367z"/>
                        </g>
                    </g>
                </g>
            </g>
        </g>
    </g>
</svg>
