<svg xmlns="http://www.w3.org/2000/svg" width="48" height="48" viewBox="0 0 48 48">
    <g fill="none" fill-rule="evenodd">
        <g>
            <g>
                <g>
                    <g>
                        <g>
                            <path d="M0 0H48V48H0z" transform="translate(-696 -526) translate(329 93) translate(48 109) translate(284 300) translate(35 24)"/>
                            <path fill="#9799AE" fill-rule="nonzero" d="M1 4c.513 0 .936.386.993.883L2 5v38h44c.513 0 .936.386.993.883L47 44c0 .513-.386.936-.883.993L46 45H1c-.513 0-.936-.386-.993-.883L0 44V5c0-.552.448-1 1-1z" transform="translate(-696 -526) translate(329 93) translate(48 109) translate(284 300) translate(35 24)"/>
                            <path fill="#57F" d="M5.948 37.927c5.082-5.327 8.367-10.315 9.856-14.964C18.037 15.99 17.279 8 24.162 8c6.883 0 6.883 6.648 8.808 14.919 1.284 5.514 4.52 10.517 9.711 15.008" transform="translate(-696 -526) translate(329 93) translate(48 109) translate(284 300) translate(35 24)"/>
                        </g>
                    </g>
                </g>
            </g>
        </g>
    </g>
</svg>
