<svg xmlns="http://www.w3.org/2000/svg" width="48" height="48" viewBox="0 0 48 48">
    <g fill="none" fill-rule="evenodd">
        <g>
            <g>
                <g>
                    <g>
                        <g>
                            <path d="M0 0H48V48H0z" transform="translate(-838 -376) translate(329 93) translate(48 109) translate(426 150) translate(35 24)"/>
                            <path fill="#9799AE" fill-rule="nonzero" d="M2 4c.513 0 .936.386.993.883L3 5v38h44c.513 0 .936.386.993.883L48 44c0 .513-.386.936-.883.993L47 45H2c-.513 0-.936-.386-.993-.883L1 44V5c0-.552.448-1 1-1z" transform="translate(-838 -376) translate(329 93) translate(48 109) translate(426 150) translate(35 24)"/>
                            <g transform="translate(-838 -376) translate(329 93) translate(48 109) translate(426 150) translate(35 24) translate(7 4)">
                                <circle cx="8" cy="22" r="8" fill="#B7C5FF"/>
                                <circle cx="27" cy="31" r="5" fill="#7F98FE"/>
                                <circle cx="27" cy="10" r="10" fill="#57F"/>
                            </g>
                        </g>
                    </g>
                </g>
            </g>
        </g>
    </g>
</svg>
