<svg width="48" height="48" viewBox="0 0 48 48" fill="none" xmlns="http://www.w3.org/2000/svg">
<g clip-path="url(#clip0_3860_75950)">
<path d="M13.8267 32.6309C14.1972 31.9206 14.5746 31.2171 14.9347 30.5033C16.1224 28.1539 17.1681 25.7387 18.2553 23.3442C19.0275 21.6463 19.8031 19.9483 20.7519 18.3405C21.2921 17.4256 21.8772 16.542 22.6737 15.8178C23.1307 15.4054 23.6397 15.0901 24.2665 15.0104C24.353 15 24.4396 15.0035 24.5262 15C24.5262 23.9575 24.5262 32.9186 24.5262 41.8761C20.9597 41.8761 17.3932 41.8761 13.8267 41.8761C13.8267 38.7955 13.8267 35.715 13.8267 32.6309Z" fill="url(#paint0_linear_3860_75950)"/>
<path d="M24.5269 41.8761C24.5269 32.9187 24.5269 23.9578 24.5269 15.0004C25.0115 14.99 25.4234 15.1841 25.8007 15.4613C26.4168 15.9187 26.8738 16.5181 27.2926 17.1523C28.1995 18.5245 28.8987 20.011 29.5806 21.5045C30.7022 23.9509 31.7406 26.4389 32.9002 28.8679C33.6098 30.3579 34.3644 31.8306 35.1987 33.2548C35.209 33.2756 35.216 33.2964 35.2263 33.3172C35.2263 36.169 35.2263 39.0243 35.2229 41.8761C31.6575 41.8761 28.0922 41.8761 24.5269 41.8761Z" fill="url(#paint1_linear_3860_75950)"/>
<path d="M13.8269 32.5781C13.8269 35.6764 13.8269 38.7782 13.8269 41.8765C10.2179 41.8765 6.60896 41.8765 3 41.8765C3 41.6012 3 41.6047 3.27497 41.5942C4.96946 41.5315 6.48866 40.9529 7.87037 39.9806C9.27615 38.9943 10.4104 37.7361 11.4278 36.3595C12.263 35.2303 12.9985 34.0384 13.6825 32.8116C13.7306 32.735 13.7787 32.6583 13.8269 32.5781Z" fill="url(#paint2_linear_3860_75950)"/>
<path d="M35.2261 41.8759C35.2261 39.0324 35.2261 36.1854 35.2296 33.3418C35.6609 34.0225 36.0818 34.71 36.5445 35.3699C37.5672 36.8245 38.6978 38.1824 40.0927 39.3053C41.2789 40.2624 42.5869 40.9845 44.0827 41.3507C44.7715 41.52 45.4707 41.5995 46.1803 41.5995C46.1803 41.8759 46.1803 41.8759 45.902 41.8759C42.3469 41.8759 38.7882 41.8759 35.2261 41.8759Z" fill="url(#paint3_linear_3860_75950)"/>
<path fill-rule="evenodd" clip-rule="evenodd" d="M1.00264 45.6701C1.00089 45.657 1 45.6437 1 45.6303V4.28876C1 4.21217 1.02914 4.13873 1.08102 4.08458C1.13289 4.03042 1.20325 4 1.27661 4C1.34997 4 1.42033 4.03042 1.4722 4.08458C1.52408 4.13873 1.55322 4.21217 1.55322 4.28876V45.4225H45.7407C45.8095 45.4225 45.8754 45.4529 45.924 45.5071C45.9727 45.5612 46 45.6347 46 45.7112C46 45.7878 45.9727 45.8613 45.924 45.9154C45.8754 45.9696 45.8095 46 45.7407 46H1.25932C1.19054 46 1.12459 45.9696 1.07595 45.9154C1.02732 45.8613 1 45.7878 1 45.7112C1 45.6974 1.00089 45.6837 1.00264 45.6701Z" fill="#C7C7CC"/>
<path d="M1.00264 45.6701L1.25058 45.7021L1.25479 45.6696L1.25045 45.6371L1.00264 45.6701ZM1.08102 4.08458L0.900483 3.91164L0.900483 3.91164L1.08102 4.08458ZM1.4722 4.08458L1.65274 3.91164L1.4722 4.08458ZM1.55322 45.4225H1.30322V45.6725H1.55322V45.4225ZM45.924 45.9154L46.11 46.0825L46.11 46.0825L45.924 45.9154ZM1.07595 45.9154L0.889949 46.0825L0.889955 46.0825L1.07595 45.9154ZM1.25045 45.6371C1.25015 45.6349 1.25 45.6326 1.25 45.6303H0.75C0.75 45.6548 0.75163 45.6791 0.754836 45.7032L1.25045 45.6371ZM1.25 45.6303V4.28876H0.75V45.6303H1.25ZM1.25 4.28876C1.25 4.27509 1.2553 4.26404 1.26155 4.25751L0.900483 3.91164C0.802984 4.01342 0.75 4.14926 0.75 4.28876H1.25ZM1.26155 4.25751C1.26745 4.25135 1.2731 4.25 1.27661 4.25V3.75C1.13339 3.75 0.998332 3.80949 0.900483 3.91164L1.26155 4.25751ZM1.27661 4.25C1.28012 4.25 1.28577 4.25135 1.29167 4.25751L1.65274 3.91164C1.55489 3.80949 1.41983 3.75 1.27661 3.75V4.25ZM1.29167 4.25751C1.29792 4.26404 1.30322 4.27509 1.30322 4.28876H1.80322C1.80322 4.14926 1.75023 4.01342 1.65274 3.91164L1.29167 4.25751ZM1.30322 4.28876V45.4225H1.80322V4.28876H1.30322ZM1.55322 45.6725H45.7407V45.1725H1.55322V45.6725ZM45.7407 45.6725C45.7379 45.6725 45.736 45.6718 45.7352 45.6715C45.7345 45.6712 45.7357 45.6715 45.738 45.6741L46.11 45.34C46.0171 45.2365 45.885 45.1725 45.7407 45.1725V45.6725ZM45.738 45.6741C45.7432 45.6798 45.75 45.6928 45.75 45.7112H46.25C46.25 45.5765 46.2022 45.4426 46.11 45.34L45.738 45.6741ZM45.75 45.7112C45.75 45.7297 45.7432 45.7427 45.738 45.7484L46.11 46.0825C46.2022 45.9799 46.25 45.846 46.25 45.7112H45.75ZM45.738 45.7484C45.7357 45.7509 45.7345 45.7513 45.7352 45.751C45.736 45.7507 45.7379 45.75 45.7407 45.75V46.25C45.885 46.25 46.0171 46.1859 46.11 46.0825L45.738 45.7484ZM45.7407 45.75H1.25932V46.25H45.7407V45.75ZM1.25932 45.75C1.26209 45.75 1.26405 45.7507 1.26479 45.751C1.26547 45.7513 1.26424 45.7509 1.26195 45.7484L0.889955 46.0825C0.982874 46.1859 1.11503 46.25 1.25932 46.25V45.75ZM1.26196 45.7484C1.25682 45.7427 1.25 45.7297 1.25 45.7112H0.75C0.75 45.846 0.797818 45.9799 0.889949 46.0825L1.26196 45.7484ZM1.25 45.7112C1.25 45.7081 1.2502 45.7051 1.25058 45.7021L0.754702 45.6381C0.751585 45.6622 0.75 45.6867 0.75 45.7112H1.25Z" fill="#C7C7CC"/>
</g>
<defs>
<linearGradient id="paint0_linear_3860_75950" x1="13.8267" y1="28.566" x2="24.5262" y2="28.566" gradientUnits="userSpaceOnUse">
<stop stop-color="#A855F7"/>
<stop offset="1" stop-color="#3B82F6"/>
</linearGradient>
<linearGradient id="paint1_linear_3860_75950" x1="20.8462" y1="70.9359" x2="36.8887" y2="69.9089" gradientUnits="userSpaceOnUse">
<stop stop-color="#568E8B"/>
<stop offset="0.776042" stop-color="#67F5ED"/>
</linearGradient>
<linearGradient id="paint2_linear_3860_75950" x1="0.249976" y1="39.7844" x2="12.0886" y2="39.2534" gradientUnits="userSpaceOnUse">
<stop stop-color="#F377B3"/>
<stop offset="1" stop-color="#FEB3DD"/>
</linearGradient>
<linearGradient id="paint3_linear_3860_75950" x1="31.3921" y1="40.6491" x2="47.7818" y2="39.8759" gradientUnits="userSpaceOnUse">
<stop stop-color="#142850"/>
<stop offset="1" stop-color="#466AEC"/>
</linearGradient>
<clipPath id="clip0_3860_75950">
<rect width="48" height="48" fill="white"/>
</clipPath>
</defs>
</svg>
