<svg width="48" height="48" viewBox="0 0 48 48" fill="none" xmlns="http://www.w3.org/2000/svg">
<g clip-path="url(#clip0_3860_75951)">
<path fill-rule="evenodd" clip-rule="evenodd" d="M22 5V15H9V5L22 5Z" fill="url(#paint0_linear_3860_75951)"/>
<path fill-rule="evenodd" clip-rule="evenodd" d="M42 19V29H9V19L42 19Z" fill="url(#paint1_linear_3860_75951)"/>
<path fill-rule="evenodd" clip-rule="evenodd" d="M31 33V43H9V33H31Z" fill="url(#paint2_linear_3860_75951)"/>
<path fill-rule="evenodd" clip-rule="evenodd" d="M2.00258 47.6308C2.00087 47.6162 2 47.6013 2 47.5863V1.32313C2 1.23743 2.02849 1.15524 2.07922 1.09464C2.12994 1.03404 2.19873 1 2.27046 1C2.34219 1 2.41099 1.03404 2.46171 1.09464C2.51243 1.15524 2.54092 1.23743 2.54092 1.32313V47.3537H45.7464C45.8137 47.3537 45.8782 47.3878 45.9257 47.4484C45.9733 47.509 46 47.5912 46 47.6769C46 47.7626 45.9733 47.8448 45.9257 47.9054C45.8782 47.966 45.8137 48 45.7464 48H2.25356C2.18631 48 2.12182 47.966 2.07427 47.9054C2.02671 47.8448 2 47.7626 2 47.6769C2 47.6614 2.00087 47.646 2.00258 47.6308Z" fill="#C7C7CC"/>
<path d="M2.00258 47.6308L2.25101 47.6589L2.25422 47.6304L2.2509 47.6019L2.00258 47.6308ZM2.07922 1.09464L1.88751 0.934183L1.88751 0.934183L2.07922 1.09464ZM2.46171 1.09464L2.27 1.2551L2.27 1.2551L2.46171 1.09464ZM2.54092 47.3537H2.29092V47.6037H2.54092V47.3537ZM45.9257 47.4484L45.729 47.6027L45.7291 47.6027L45.9257 47.4484ZM45.9257 47.9054L45.7291 47.751L45.729 47.751L45.9257 47.9054ZM2.07427 47.9054L2.27094 47.751L2.07427 47.9054ZM2.2509 47.6019C2.25031 47.5968 2.25 47.5916 2.25 47.5863H1.75C1.75 47.611 1.75144 47.6355 1.75426 47.6598L2.2509 47.6019ZM2.25 47.5863V1.32313H1.75V47.5863H2.25ZM2.25 1.32313C2.25 1.29078 2.26114 1.26679 2.27093 1.2551L1.88751 0.934183C1.79585 1.0437 1.75 1.18409 1.75 1.32313H2.25ZM2.27093 1.2551C2.27537 1.24979 2.2782 1.24848 2.27785 1.24866C2.27732 1.24892 2.27464 1.25 2.27046 1.25V0.75C2.11662 0.75 1.98027 0.82336 1.88751 0.934183L2.27093 1.2551ZM2.27046 1.25C2.26629 1.25 2.26361 1.24892 2.26308 1.24866C2.26272 1.24848 2.26555 1.24979 2.27 1.2551L2.65342 0.934183C2.56066 0.82336 2.42431 0.75 2.27046 0.75V1.25ZM2.27 1.2551C2.27978 1.26679 2.29092 1.29078 2.29092 1.32313H2.79092C2.79092 1.18409 2.74508 1.0437 2.65342 0.934183L2.27 1.2551ZM2.29092 1.32313V47.3537H2.79092V1.32313H2.29092ZM2.54092 47.6037H45.7464V47.1037H2.54092V47.6037ZM45.7464 47.6037C45.7372 47.6037 45.7302 47.6012 45.7268 47.5994C45.7236 47.5977 45.7251 47.5976 45.729 47.6027L46.1224 47.294C46.0353 47.183 45.9023 47.1037 45.7464 47.1037V47.6037ZM45.7291 47.6027C45.7382 47.6143 45.75 47.6405 45.75 47.6769H46.25C46.25 47.5419 46.2084 47.4036 46.1224 47.294L45.7291 47.6027ZM45.75 47.6769C45.75 47.7133 45.7382 47.7394 45.7291 47.751L46.1224 48.0597C46.2084 47.9501 46.25 47.8119 46.25 47.6769H45.75ZM45.729 47.751C45.7251 47.7561 45.7236 47.756 45.7268 47.7543C45.7302 47.7525 45.7372 47.75 45.7464 47.75V48.25C45.9023 48.25 46.0353 48.1707 46.1224 48.0597L45.729 47.751ZM45.7464 47.75H2.25356V48.25H45.7464V47.75ZM2.25356 47.75C2.26284 47.75 2.26976 47.7525 2.27323 47.7543C2.2764 47.756 2.27493 47.7561 2.27094 47.751L1.87759 48.0597C1.96474 48.1707 2.09774 48.25 2.25356 48.25V47.75ZM2.27094 47.751C2.26184 47.7394 2.25 47.7133 2.25 47.6769H1.75C1.75 47.8119 1.79159 47.9501 1.87759 48.0597L2.27094 47.751ZM2.25 47.6769C2.25 47.6708 2.25034 47.6647 2.25101 47.6589L1.75416 47.6028C1.7514 47.6273 1.75 47.652 1.75 47.6769H2.25Z" fill="#C7C7CC"/>
</g>
<defs>
<linearGradient id="paint0_linear_3860_75951" x1="11.925" y1="2.46" x2="12.2494" y2="13.4069" gradientUnits="userSpaceOnUse">
<stop stop-color="#F377B3"/>
<stop offset="1" stop-color="#FEB3DD"/>
</linearGradient>
<linearGradient id="paint1_linear_3860_75951" x1="25.3429" y1="19" x2="25.3429" y2="29" gradientUnits="userSpaceOnUse">
<stop stop-color="#A855F7"/>
<stop offset="1" stop-color="#3B82F6"/>
</linearGradient>
<linearGradient id="paint2_linear_3860_75951" x1="-14.7875" y1="29.56" x2="-13.693" y2="44.5351" gradientUnits="userSpaceOnUse">
<stop stop-color="#568E8B"/>
<stop offset="0.776042" stop-color="#67F5ED"/>
</linearGradient>
<clipPath id="clip0_3860_75951">
<rect width="48" height="48" fill="white"/>
</clipPath>
</defs>
</svg>
