<svg width="48" height="48" viewBox="0 0 48 48" fill="none" xmlns="http://www.w3.org/2000/svg">
<g clip-path="url(#clip0_3860_75937)">
<path fill-rule="evenodd" clip-rule="evenodd" d="M48 37H6V31C14.736 31 20.667 25.723 24.378 19.045C28.296 11.992 32.736 4 45 4H48V37Z" fill="url(#paint0_linear_3860_75937)"/>
<path fill-rule="evenodd" clip-rule="evenodd" d="M48 37H6V31C14.736 31 20.667 35.723 24.378 29.045C28.296 21.992 32.736 14 45 14H48V37Z" fill="url(#paint1_linear_3860_75937)"/>
<path fill-rule="evenodd" clip-rule="evenodd" d="M48 37H6V31C14.736 31 22.332 39.07 26.043 32.391C29.961 25.338 32.736 24 45 24H48V37Z" fill="url(#paint2_linear_3860_75937)"/>
<path fill-rule="evenodd" clip-rule="evenodd" d="M1.00276 43.6544C1.00093 43.6407 1 43.6267 1 43.6127V0.302509C1 0.222278 1.03044 0.145334 1.08462 0.0886025C1.1388 0.0318711 1.21228 0 1.2889 0C1.36552 0 1.43901 0.0318711 1.49319 0.0886025C1.54737 0.145334 1.57781 0.222278 1.57781 0.302509V43.395H47.7292C47.801 43.395 47.8699 43.4269 47.9207 43.4836C47.9715 43.5403 48 43.6173 48 43.6975C48 43.7777 47.9715 43.8547 47.9207 43.9114C47.8699 43.9681 47.801 44 47.7292 44H1.27085C1.19901 44 1.13012 43.9681 1.07933 43.9114C1.02854 43.8547 1 43.7777 1 43.6975C1 43.683 1.00093 43.6686 1.00276 43.6544Z" fill="#C7C7CC"/>
<path d="M1.00276 43.6544L1.25071 43.6863L1.25489 43.6539L1.25058 43.6215L1.00276 43.6544ZM1.08462 0.0886025L1.26541 0.261267V0.261267L1.08462 0.0886025ZM1.49319 0.0886025L1.67398 -0.0840616L1.67398 -0.0840617L1.49319 0.0886025ZM1.57781 43.395H1.32781V43.645H1.57781V43.395ZM47.9207 43.4836L48.1069 43.3168L47.9207 43.4836ZM47.9207 43.9114L48.1069 44.0782L48.1069 44.0782L47.9207 43.9114ZM1.07933 43.9114L1.26559 43.7446H1.26559L1.07933 43.9114ZM1.25058 43.6215C1.2502 43.6186 1.25 43.6157 1.25 43.6127H0.75C0.75 43.6378 0.751666 43.6627 0.75494 43.6874L1.25058 43.6215ZM1.25 43.6127V0.302509H0.75V43.6127H1.25ZM1.25 0.302509C1.25 0.284965 1.25676 0.270324 1.26541 0.261267L0.903822 -0.0840616C0.804112 0.0203442 0.75 0.159592 0.75 0.302509H1.25ZM1.26541 0.261267C1.27369 0.252601 1.28239 0.25 1.2889 0.25V-0.25C1.14217 -0.25 1.00391 -0.188859 0.903822 -0.0840616L1.26541 0.261267ZM1.2889 0.25C1.29541 0.25 1.30412 0.252601 1.31239 0.261267L1.67398 -0.0840617C1.5739 -0.188859 1.43564 -0.25 1.2889 -0.25V0.25ZM1.31239 0.261267C1.32104 0.270324 1.32781 0.284965 1.32781 0.302509H1.82781C1.82781 0.159592 1.77369 0.0203442 1.67398 -0.0840616L1.31239 0.261267ZM1.32781 0.302509V43.395H1.82781V0.302509H1.32781ZM1.57781 43.645H47.7292V43.145H1.57781V43.645ZM47.7292 43.645C47.7278 43.645 47.7272 43.6446 47.7278 43.6449C47.7285 43.6452 47.731 43.6465 47.7344 43.6503L48.1069 43.3168C48.0119 43.2107 47.8768 43.145 47.7292 43.145V43.645ZM47.7344 43.6503C47.7418 43.6586 47.75 43.6752 47.75 43.6975H48.25C48.25 43.5593 48.2011 43.422 48.1069 43.3168L47.7344 43.6503ZM47.75 43.6975C47.75 43.7198 47.7418 43.7364 47.7344 43.7446L48.1069 44.0782C48.2011 43.973 48.25 43.8357 48.25 43.6975H47.75ZM47.7344 43.7446C47.731 43.7485 47.7285 43.7498 47.7278 43.7501C47.7272 43.7504 47.7278 43.75 47.7292 43.75V44.25C47.8768 44.25 48.0119 44.1843 48.1069 44.0782L47.7344 43.7446ZM47.7292 43.75H1.27085V44.25H47.7292V43.75ZM1.27085 43.75C1.2722 43.75 1.27275 43.7504 1.27217 43.7501C1.27151 43.7498 1.269 43.7485 1.26559 43.7446L0.893073 44.0782C0.988071 44.1843 1.12323 44.25 1.27085 44.25V43.75ZM1.26559 43.7446C1.25818 43.7364 1.25 43.7198 1.25 43.6975H0.75C0.75 43.8357 0.798888 43.973 0.893073 44.0782L1.26559 43.7446ZM1.25 43.6975C1.25 43.6937 1.25024 43.69 1.25071 43.6863L0.754807 43.6225C0.75162 43.6472 0.75 43.6723 0.75 43.6975H1.25Z" fill="#C7C7CC"/>
</g>
<defs>
<linearGradient id="paint0_linear_3860_75937" x1="6" y1="20.6571" x2="48" y2="20.6571" gradientUnits="userSpaceOnUse">
<stop stop-color="#A855F7"/>
<stop offset="1" stop-color="#3B82F6"/>
</linearGradient>
<linearGradient id="paint1_linear_3860_75937" x1="-4.668" y1="31.825" x2="41.1227" y2="28.6042" gradientUnits="userSpaceOnUse">
<stop stop-color="#F377B3"/>
<stop offset="1" stop-color="#FEB3DD"/>
</linearGradient>
<linearGradient id="paint2_linear_3860_75937" x1="-8.448" y1="51.0562" x2="41.345" y2="25.1886" gradientUnits="userSpaceOnUse">
<stop stop-color="#568E8B"/>
<stop offset="0.776042" stop-color="#67F5ED"/>
</linearGradient>
<clipPath id="clip0_3860_75937">
<rect width="48" height="48" fill="white"/>
</clipPath>
</defs>
</svg>
