<svg xmlns="http://www.w3.org/2000/svg" width="48" height="48" viewBox="0 0 48 48">
    <g fill="none" fill-rule="evenodd">
        <g>
            <g>
                <g>
                    <g>
                        <g>
                            <path d="M0 0H48V48H0z" transform="translate(-838 -226) translate(329 93) translate(48 109) translate(426) translate(35 24)"/>
                            <path fill="#9799AE" fill-rule="nonzero" d="M1 4c.513 0 .936.386.993.883L2 5v38h44c.513 0 .936.386.993.883L47 44c0 .513-.386.936-.883.993L46 45H1c-.513 0-.936-.386-.993-.883L0 44V5c0-.552.448-1 1-1z" transform="translate(-838 -226) translate(329 93) translate(48 109) translate(426) translate(35 24)"/>
                            <path fill="#57F" d="M48 37H6v-6c8.736 0 14.667-5.277 18.378-11.955C28.296 11.992 32.736 4 45 4h3v33z" transform="translate(-838 -226) translate(329 93) translate(48 109) translate(426) translate(35 24)"/>
                            <path fill="#7F98FE" d="M48 37H6v-6c8.736 0 14.667 4.723 18.378-1.955C28.296 21.992 32.736 14 45 14h3v23z" transform="translate(-838 -226) translate(329 93) translate(48 109) translate(426) translate(35 24)"/>
                            <path fill="#B7C5FF" d="M48 37H6v-6c8.736 0 16.332 8.07 20.043 1.391C29.961 25.338 32.736 24 45 24h3v13z" transform="translate(-838 -226) translate(329 93) translate(48 109) translate(426) translate(35 24)"/>
                        </g>
                    </g>
                </g>
            </g>
        </g>
    </g>
</svg>
