<svg width="48" height="48" viewBox="0 0 48 48" fill="none" xmlns="http://www.w3.org/2000/svg">
<path d="M34.08 25.968C34.224 25.296 34.272 24.672 34.272 24C34.272 18.624 30.096 14.208 24.96 13.728V17.232C25.296 17.28 25.584 17.328 25.92 17.424C29.232 18.384 31.2 21.648 30.72 24.96L34.08 25.968Z" fill="#7F98FE"/>
<path d="M24 39.984C32.784 39.984 39.984 32.832 39.984 24C39.984 15.504 33.408 8.544 25.008 8.064V11.568C31.152 12.048 35.856 16.704 36.432 22.848C36.768 26.16 35.76 29.424 33.6 31.968C31.488 34.56 28.464 36.144 25.152 36.432C24.768 36.48 24.384 36.48 23.952 36.48C17.808 36.48 12.72 32.112 11.664 26.16L8.20801 26.496C9.40801 34.224 16.032 39.984 24 39.984Z" fill="#B7C5FF"/>
<path d="M2.39999 24.912H5.90399C6.38399 34.608 14.304 42.096 24 42.096C33.984 42.096 42.144 33.984 42.144 24C42.144 14.304 34.368 6.384 25.008 5.904V2.4C36.288 2.928 45.6 12.384 45.6 24C45.6 35.904 35.904 45.6 24 45.6C12.384 45.6 2.92799 36.528 2.39999 24.912Z" fill="#5577FF"/>
</svg>
