<svg width="48" height="48" viewBox="0 0 48 48" fill="none" xmlns="http://www.w3.org/2000/svg">
<g clip-path="url(#clip0_3860_75934)">
<path d="M20.4901 35.6998C15.7801 34.5198 12.1401 30.6898 11.2701 25.7598L7.81006 26.0998C8.79006 32.3898 13.3601 37.3798 19.3301 39.0198C19.6201 39.0998 19.9201 39.1598 20.2201 39.2198L21.3801 35.8998C21.0801 35.8498 20.7801 35.7798 20.4801 35.7098L20.4901 35.6998Z" fill="url(#paint0_linear_3860_75934)"/>
<path d="M30.37 40.3698C30.09 40.4798 29.8 40.5798 29.51 40.6798C27.65 41.3198 25.67 41.6898 23.59 41.6898C13.89 41.6898 5.97 34.1998 5.49 24.5098H2C2.53 36.1298 11.98 45.1998 23.6 45.1998C26.06 45.1998 28.42 44.7798 30.63 44.0198C30.92 43.9198 31.2 43.8198 31.48 43.6998L30.37 40.3698Z" fill="url(#paint1_linear_3860_75934)"/>
<path d="M40.3601 16.7C41.2501 18.83 41.7401 21.16 41.7401 23.6C41.7401 31.19 37.0201 37.69 30.3701 40.37L31.4801 43.7C39.5001 40.54 45.2001 32.72 45.2001 23.6C45.2001 20.53 44.5301 17.61 43.3601 14.96L40.3601 16.69V16.7Z" fill="url(#paint2_linear_3860_75934)"/>
<path d="M42.9701 14.14C39.5601 7.23 32.5901 2.37 24.6101 2V5.5C31.3001 5.84 37.1601 9.99 39.9701 15.87C40.1001 16.14 40.2401 16.41 40.3601 16.7L43.3601 14.97C43.2401 14.69 43.1001 14.42 42.9701 14.14Z" fill="url(#paint3_linear_3860_75934)"/>
<path d="M33.2 31.5705C31.09 34.1605 28.06 35.7505 24.75 36.0305C24.37 36.0805 23.98 36.0805 23.55 36.0805C22.81 36.0805 22.09 36.0105 21.38 35.8905L20.22 39.2105C21.31 39.4405 22.44 39.5805 23.6 39.5805C32 39.5805 38.94 33.0305 39.53 24.7305H36.05C35.84 27.2305 34.87 29.6105 33.21 31.5705H33.2Z" fill="url(#paint4_linear_3860_75934)"/>
<path d="M24.6101 7.66039V11.1604C30.7501 11.6404 35.4601 16.3004 36.0301 22.4404C36.0801 22.9004 36.0901 23.3604 36.0901 23.8104C36.0901 24.1204 36.0701 24.4204 36.0501 24.7204H39.5301C39.5501 24.4204 39.5701 24.1204 39.5801 23.8104C39.5801 23.7404 39.5901 23.6604 39.5901 23.5904C39.5901 15.0904 33.0101 8.13039 24.6101 7.65039V7.66039Z" fill="url(#paint5_linear_3860_75934)"/>
<path d="M30.84 16.3301L28.74 19.1101C30 20.5801 30.61 22.5601 30.32 24.5601L33.68 25.5701C33.82 24.9001 33.87 24.2701 33.87 23.6001C33.87 20.7601 32.7 18.1901 30.84 16.3301Z" fill="url(#paint6_linear_3860_75934)"/>
<path d="M30.1701 15.7101C28.6101 14.3901 26.6701 13.5301 24.5601 13.3301V16.8301C24.9001 16.8801 25.1801 16.9301 25.5201 17.0201C26.5101 17.3101 27.3801 17.8001 28.1001 18.4401C28.3301 18.6401 28.5501 18.8701 28.7401 19.1001L30.8401 16.3201C30.6201 16.1001 30.4001 15.9001 30.1701 15.7001V15.7101Z" fill="url(#paint7_linear_3860_75934)"/>
</g>
<defs>
<linearGradient id="paint0_linear_3860_75934" x1="7.81006" y1="32.5539" x2="21.3801" y2="32.5539" gradientUnits="userSpaceOnUse">
<stop stop-color="#A855F7"/>
<stop offset="1" stop-color="#3B82F6"/>
</linearGradient>
<linearGradient id="paint1_linear_3860_75934" x1="2" y1="34.9533" x2="31.48" y2="34.9533" gradientUnits="userSpaceOnUse">
<stop stop-color="#A855F7"/>
<stop offset="1" stop-color="#3B82F6"/>
</linearGradient>
<linearGradient id="paint2_linear_3860_75934" x1="26.6033" y1="37.2335" x2="42.8453" y2="36.9106" gradientUnits="userSpaceOnUse">
<stop stop-color="#F377B3"/>
<stop offset="1" stop-color="#FEB3DD"/>
</linearGradient>
<linearGradient id="paint3_linear_3860_75934" x1="18.1601" y1="32.5944" x2="45.2489" y2="27.0385" gradientUnits="userSpaceOnUse">
<stop stop-color="#568E8B"/>
<stop offset="0.776042" stop-color="#67F5ED"/>
</linearGradient>
<linearGradient id="paint4_linear_3860_75934" x1="15.3152" y1="36.2392" x2="36.4193" y2="35.1822" gradientUnits="userSpaceOnUse">
<stop stop-color="#F377B3"/>
<stop offset="1" stop-color="#FEB3DD"/>
</linearGradient>
<linearGradient id="paint5_linear_3860_75934" x1="19.457" y1="43.1773" x2="41.5692" y2="40.0571" gradientUnits="userSpaceOnUse">
<stop stop-color="#568E8B"/>
<stop offset="0.776042" stop-color="#67F5ED"/>
</linearGradient>
<linearGradient id="paint6_linear_3860_75934" x1="27.437" y1="23.4911" x2="33.0551" y2="23.3709" gradientUnits="userSpaceOnUse">
<stop stop-color="#F377B3"/>
<stop offset="1" stop-color="#FEB3DD"/>
</linearGradient>
<linearGradient id="paint7_linear_3860_75934" x1="22.3997" y1="25.3389" x2="31.5733" y2="23.7334" gradientUnits="userSpaceOnUse">
<stop stop-color="#568E8B"/>
<stop offset="0.776042" stop-color="#67F5ED"/>
</linearGradient>
<clipPath id="clip0_3860_75934">
<rect width="43.2" height="43.2" fill="white" transform="translate(2 2)"/>
</clipPath>
</defs>
</svg>
