<svg width="48" height="48" viewBox="0 0 48 48" fill="none" xmlns="http://www.w3.org/2000/svg">
<g clip-path="url(#clip0_3860_75935)">
<path fill-rule="evenodd" clip-rule="evenodd" d="M5 26H15V39H5V26Z" fill="url(#paint0_linear_3860_75935)"/>
<path fill-rule="evenodd" clip-rule="evenodd" d="M19 6H29V39H19V6Z" fill="url(#paint1_linear_3860_75935)"/>
<path fill-rule="evenodd" clip-rule="evenodd" d="M34 17H44V39H34V17Z" fill="url(#paint2_linear_3860_75935)"/>
<path fill-rule="evenodd" clip-rule="evenodd" d="M1.00264 40.9169C1.00089 40.9043 1 40.8916 1 40.8788V1.27661C1 1.20325 1.02914 1.13289 1.08102 1.08102C1.13289 1.02914 1.20325 1 1.27661 1C1.34997 1 1.42033 1.02914 1.4722 1.08102C1.52408 1.13289 1.55322 1.20325 1.55322 1.27661V40.6797H45.7407C45.8095 40.6797 45.8754 40.7088 45.924 40.7607C45.9727 40.8126 46 40.8829 46 40.9563C46 41.0297 45.9727 41.1 45.924 41.1519C45.8754 41.2038 45.8095 41.2329 45.7407 41.2329H1.25932C1.19054 41.2329 1.12459 41.2038 1.07595 41.1519C1.02732 41.1 1 41.0297 1 40.9563C1 40.943 1.00089 40.9299 1.00264 40.9169Z" fill="#C7C7CC"/>
<path d="M1.00264 40.9169L1.2504 40.9503L1.25498 40.9164L1.25025 40.8824L1.00264 40.9169ZM1.08102 1.08102L0.90424 0.90424L0.90424 0.90424L1.08102 1.08102ZM1.4722 1.08102L1.64898 0.90424V0.90424L1.4722 1.08102ZM1.55322 40.6797H1.30322V40.9297H1.55322V40.6797ZM45.924 40.7607L46.1064 40.5897L46.1064 40.5897L45.924 40.7607ZM45.924 41.1519L46.1064 41.3229L46.1064 41.3229L45.924 41.1519ZM1.07595 41.1519L0.893566 41.3229L0.893572 41.3229L1.07595 41.1519ZM1.25025 40.8824C1.25009 40.8812 1.25 40.88 1.25 40.8788H0.75C0.75 40.9032 0.751698 40.9274 0.75503 40.9514L1.25025 40.8824ZM1.25 40.8788V1.27661H0.75V40.8788H1.25ZM1.25 1.27661C1.25 1.26955 1.2528 1.26278 1.25779 1.25779L0.90424 0.90424C0.805481 1.003 0.75 1.13694 0.75 1.27661H1.25ZM1.25779 1.25779C1.26278 1.2528 1.26955 1.25 1.27661 1.25V0.75C1.13694 0.75 1.003 0.805481 0.90424 0.90424L1.25779 1.25779ZM1.27661 1.25C1.28367 1.25 1.29044 1.2528 1.29543 1.25779L1.64898 0.90424C1.55022 0.805481 1.41627 0.75 1.27661 0.75V1.25ZM1.29543 1.25779C1.30041 1.26278 1.30322 1.26955 1.30322 1.27661H1.80322C1.80322 1.13694 1.74774 1.003 1.64898 0.90424L1.29543 1.25779ZM1.30322 1.27661V40.6797H1.80322V1.27661H1.30322ZM1.55322 40.9297H45.7407V40.4297H1.55322V40.9297ZM45.7407 40.9297C45.7377 40.9297 45.7385 40.9283 45.7417 40.9317L46.1064 40.5897C46.0123 40.4894 45.8812 40.4297 45.7407 40.4297V40.9297ZM45.7417 40.9317C45.7454 40.9356 45.75 40.9442 45.75 40.9563H46.25C46.25 40.8216 46.2 40.6895 46.1064 40.5897L45.7417 40.9317ZM45.75 40.9563C45.75 40.9684 45.7454 40.977 45.7417 40.9809L46.1064 41.3229C46.2 41.2231 46.25 41.091 46.25 40.9563H45.75ZM45.7417 40.9809C45.7385 40.9843 45.7377 40.9829 45.7407 40.9829V41.4829C45.8812 41.4829 46.0123 41.4232 46.1064 41.3229L45.7417 40.9809ZM45.7407 40.9829H1.25932V41.4829H45.7407V40.9829ZM1.25932 40.9829C1.26225 40.9829 1.26152 40.9843 1.25833 40.9809L0.893572 41.3229C0.987655 41.4232 1.11884 41.4829 1.25932 41.4829V40.9829ZM1.25834 40.9809C1.25465 40.977 1.25 40.9684 1.25 40.9563H0.75C0.75 41.0909 0.799995 41.2231 0.893566 41.3229L1.25834 40.9809ZM1.25 40.9563C1.25 40.9543 1.25014 40.9523 1.2504 40.9503L0.754886 40.8835C0.751647 40.9075 0.75 40.9318 0.75 40.9563H1.25Z" fill="#C7C7CC"/>
</g>
<defs>
<linearGradient id="paint0_linear_3860_75935" x1="5" y1="32.5619" x2="15" y2="32.5619" gradientUnits="userSpaceOnUse">
<stop stop-color="#A855F7"/>
<stop offset="1" stop-color="#3B82F6"/>
</linearGradient>
<linearGradient id="paint1_linear_3860_75935" x1="16.46" y1="31.575" x2="27.415" y2="31.4471" gradientUnits="userSpaceOnUse">
<stop stop-color="#F377B3"/>
<stop offset="1" stop-color="#FEB3DD"/>
</linearGradient>
<linearGradient id="paint2_linear_3860_75935" x1="30.56" y1="62.7875" x2="45.5351" y2="61.693" gradientUnits="userSpaceOnUse">
<stop stop-color="#568E8B"/>
<stop offset="0.776042" stop-color="#67F5ED"/>
</linearGradient>
<clipPath id="clip0_3860_75935">
<rect width="48" height="48" fill="white"/>
</clipPath>
</defs>
</svg>
