<svg width="48" height="49" viewBox="0 0 48 49" fill="none" xmlns="http://www.w3.org/2000/svg">
<path fill-rule="evenodd" clip-rule="evenodd" d="M0 24.1134C0 12.5955 8.11355 2.97265 18.937 0.648438L21.2575 11.4032C15.3948 12.6622 11 17.8746 11 24.1134C11 31.2931 16.8203 37.1134 24 37.1134C26.6265 37.1134 29.0711 36.3345 31.1154 34.995L37.1361 44.2026C33.3621 46.6754 28.849 48.1134 24 48.1134C10.7452 48.1134 0 37.3683 0 24.1134Z" fill="url(#paint0_linear_3867_76951)"/>
<path fill-rule="evenodd" clip-rule="evenodd" d="M23.9999 0.113281C32.3617 0.113281 39.7246 4.38946 44.0213 10.8743L34.8449 16.9422C32.5175 13.4295 28.5292 11.1133 23.9999 11.1133C23.0604 11.1133 22.1441 11.213 21.2611 11.4023L18.9436 0.64687C20.5738 0.297296 22.2654 0.113281 23.9999 0.113281Z" fill="url(#paint1_linear_3867_76951)"/>
<path fill-rule="evenodd" clip-rule="evenodd" d="M47.9999 24.1138C47.9999 32.5057 43.6928 39.8917 37.1685 44.1816L31.1329 34.9838C34.6669 32.6601 36.9999 28.6594 36.9999 24.1138C36.9999 21.4652 36.2079 19.0016 34.8477 16.947L44.0266 10.8828C46.5377 14.676 47.9999 19.2241 47.9999 24.1138Z" fill="url(#paint2_linear_3867_76951)"/>
<defs>
<linearGradient id="paint0_linear_3867_76951" x1="-6.25147e-08" y1="24.6069" x2="37.1361" y2="24.6069" gradientUnits="userSpaceOnUse">
<stop stop-color="#A855F7"/>
<stop offset="1" stop-color="#3B82F6"/>
</linearGradient>
<linearGradient id="paint1_linear_3867_76951" x1="12.5739" y1="13.1557" x2="39.96" y2="11.5837" gradientUnits="userSpaceOnUse">
<stop stop-color="#F377B3"/>
<stop offset="1" stop-color="#FEB3DD"/>
</linearGradient>
<linearGradient id="paint2_linear_3867_76951" x1="25.3309" y1="80.1859" x2="50.5567" y2="78.1313" gradientUnits="userSpaceOnUse">
<stop stop-color="#568E8B"/>
<stop offset="0.776042" stop-color="#67F5ED"/>
</linearGradient>
</defs>
</svg>
