<svg width="48" height="48" viewBox="0 0 48 48" fill="none" xmlns="http://www.w3.org/2000/svg">
<g clip-path="url(#clip0_1618_14292)">
<path fill-rule="evenodd" clip-rule="evenodd" d="M0 24C0 12.4821 8.11355 2.85923 18.937 0.535015L21.2575 11.2898C15.3948 12.5487 11 17.7611 11 24C11 31.1797 16.8203 37 24 37C26.6265 37 29.0711 36.2211 31.1154 34.8816L37.1361 44.0891C33.3621 46.562 28.849 48 24 48C10.7452 48 0 37.2548 0 24Z" fill="#5577FF"/>
<path fill-rule="evenodd" clip-rule="evenodd" d="M24 0C32.3617 0 39.7247 4.27618 44.0214 10.761L34.8449 16.8289C32.5175 13.3163 28.5293 11 24 11C23.0604 11 22.1441 11.0997 21.2611 11.289L18.9436 0.533588C20.5738 0.184015 22.2654 0 24 0Z" fill="#B7C5FF"/>
<path fill-rule="evenodd" clip-rule="evenodd" d="M48.0002 24C48.0002 32.3919 43.693 39.7779 37.1687 44.0678L31.1331 34.8701C34.6671 32.5464 37.0002 28.5456 37.0002 24C37.0002 21.3514 36.2081 18.8879 34.848 16.8332L44.0269 10.7691C46.5379 14.5622 48.0002 19.1103 48.0002 24Z" fill="#7F98FE"/>
</g>
<defs>
<clipPath id="clip0_1618_14292">
<rect width="48" height="48" fill="white"/>
</clipPath>
</defs>
</svg>
