<svg xmlns="http://www.w3.org/2000/svg" width="48" height="48" viewBox="0 0 48 48">
    <g fill="none" fill-rule="evenodd">
        <g>
            <g>
                <g>
                    <g>
                        <g>
                            <path fill="#57F" d="M48 33.306V48H0V33.306h48zm0-16.653v14.694H0V16.653h48zM48 0v14.694H0V0h48z" transform="translate(-881 -563) translate(372 106) translate(0 109) translate(474 324) translate(35 24)"/>
                            <path fill="#9CB0FF" d="M14.91 38.204v4.898H4v-4.898h10.91zm14.545 0v4.898h-10.91v-4.898h10.91zm14.545 0v4.898H33.09v-4.898H44zM14.91 21.551v4.898H4v-4.898h10.91zm14.545 0v4.898h-10.91v-4.898h10.91zm14.545 0v4.898H33.09v-4.898H44zM14.91 4.898v4.898H4V4.898h10.91zm14.545 0v4.898h-10.91V4.898h10.91zm14.545 0v4.898H33.09V4.898H44z" transform="translate(-881 -563) translate(372 106) translate(0 109) translate(474 324) translate(35 24)"/>
                        </g>
                    </g>
                </g>
            </g>
        </g>
    </g>
</svg>
