<svg width="48" height="48" viewBox="0 0 48 48" fill="none" xmlns="http://www.w3.org/2000/svg">
<g clip-path="url(#clip0_3860_75949)">
<path d="M22.4025 19.1119V7.05859C14.9359 7.53859 8.00254 11.6452 3.94922 17.7252L14.3492 23.7519C16.2692 21.2452 19.2025 19.4852 22.4025 19.1119Z" fill="url(#paint0_linear_3860_75949)"/>
<path d="M35.9991 31.0026C35.9991 32.6559 35.6791 34.2026 35.0391 35.6426L45.4924 41.6692C47.0924 38.4692 47.999 34.8426 47.999 31.0026C47.999 27.1626 47.0924 23.5359 45.4924 20.3359L35.0391 26.3626C35.6791 27.7493 35.9991 29.3493 35.9991 31.0026Z" fill="url(#paint1_linear_3860_75949)"/>
<path d="M12 31.0026C12 29.3493 12.32 27.8026 12.96 26.3626L2.50666 20.3359C0.906664 23.5359 0 27.1626 0 31.0026C0 34.8426 0.906664 38.4692 2.50666 41.6692L12.96 35.6426C12.32 34.2026 12 32.6559 12 31.0026Z" fill="url(#paint2_linear_3860_75949)"/>
<path d="M38.0799 7C36.6932 11.2667 27.3599 31.5866 26.5066 33.0266C25.6532 34.4666 23.8399 34.9466 22.3999 34.1466C20.9599 33.3466 20.4799 31.4799 21.2799 30.0399C22.1332 28.6 35.3599 10.4133 38.0799 7Z" fill="#808491"/>
<path d="M36.6365 10.6271C36.3165 10.4137 35.9965 10.2537 35.7299 10.0938C33.7565 12.7071 31.0366 16.4404 28.4766 19.9604C29.6499 20.4404 30.7699 21.1337 31.6766 21.9337C33.4899 17.9337 35.3565 13.7204 36.6365 10.6271Z" fill="#808491"/>
<path d="M43.8912 17.7254C42.1846 15.1654 40.0512 12.9254 37.5446 11.2188C36.2112 14.3654 34.3446 18.6321 32.5312 22.6321C32.9046 23.0054 33.2246 23.3787 33.5446 23.7521L43.8912 17.7254Z" fill="url(#paint3_linear_3860_75949)"/>
<path d="M25.6055 7.05859V19.1119C26.1388 19.2186 26.9388 19.3786 27.6321 19.5919C30.1921 16.0719 33.0188 12.2852 35.0454 9.61859C32.2188 8.17859 28.8055 7.27193 25.6055 7.05859Z" fill="url(#paint4_linear_3860_75949)"/>
</g>
<defs>
<linearGradient id="paint0_linear_3860_75949" x1="16.4603" y1="15.4972" x2="14.2713" y2="-25.6811" gradientUnits="userSpaceOnUse">
<stop stop-color="#1B59F8"/>
<stop offset="1" stop-color="#1B59F8" stop-opacity="0.46"/>
</linearGradient>
<linearGradient id="paint1_linear_3860_75949" x1="33.432" y1="36.8692" x2="47.1086" y2="36.563" gradientUnits="userSpaceOnUse">
<stop stop-color="#FFBB9C"/>
<stop offset="1" stop-color="#F6D3D7"/>
</linearGradient>
<linearGradient id="paint2_linear_3860_75949" x1="-2.18167e-08" y1="31.1042" x2="12.96" y2="31.1042" gradientUnits="userSpaceOnUse">
<stop stop-color="#A855F7"/>
<stop offset="1" stop-color="#3B82F6"/>
</linearGradient>
<linearGradient id="paint3_linear_3860_75949" x1="28.6234" y1="37.3037" x2="45.3702" y2="34.8629" gradientUnits="userSpaceOnUse">
<stop stop-color="#568E8B"/>
<stop offset="0.776042" stop-color="#67F5ED"/>
</linearGradient>
<linearGradient id="paint4_linear_3860_75949" x1="22.3581" y1="33.1435" x2="36.3646" y2="31.4472" gradientUnits="userSpaceOnUse">
<stop stop-color="#568E8B"/>
<stop offset="0.776042" stop-color="#67F5ED"/>
</linearGradient>
<clipPath id="clip0_3860_75949">
<rect width="48" height="48" fill="white"/>
</clipPath>
</defs>
</svg>
