<svg width="48" height="48" viewBox="0 0 48 48" fill="none" xmlns="http://www.w3.org/2000/svg">
<g clip-path="url(#clip0_3860_75954)">
<path fill-rule="evenodd" clip-rule="evenodd" d="M1.00264 41.9169C1.00089 41.9043 1 41.8916 1 41.8788V2.27661C1 2.20325 1.02914 2.13289 1.08102 2.08102C1.13289 2.02914 1.20325 2 1.27661 2C1.34997 2 1.42033 2.02914 1.4722 2.08102C1.52408 2.13289 1.55322 2.20325 1.55322 2.27661V41.6797H45.7407C45.8095 41.6797 45.8754 41.7088 45.924 41.7607C45.9727 41.8126 46 41.8829 46 41.9563C46 42.0297 45.9727 42.1 45.924 42.1519C45.8754 42.2038 45.8095 42.2329 45.7407 42.2329H1.25932C1.19054 42.2329 1.12459 42.2038 1.07595 42.1519C1.02732 42.1 1 42.0297 1 41.9563C1 41.943 1.00089 41.9299 1.00264 41.9169Z" fill="#C7C7CC"/>
<path d="M1.00264 41.9169L1.2504 41.9503L1.25498 41.9164L1.25025 41.8824L1.00264 41.9169ZM1.08102 2.08102L0.90424 1.90424L0.90424 1.90424L1.08102 2.08102ZM1.4722 2.08102L1.64898 1.90424V1.90424L1.4722 2.08102ZM1.55322 41.6797H1.30322V41.9297H1.55322V41.6797ZM45.924 41.7607L46.1064 41.5897L46.1064 41.5897L45.924 41.7607ZM45.924 42.1519L46.1064 42.3229L46.1064 42.3229L45.924 42.1519ZM1.07595 42.1519L0.893566 42.3229L0.893572 42.3229L1.07595 42.1519ZM1.25025 41.8824C1.25009 41.8812 1.25 41.88 1.25 41.8788H0.75C0.75 41.9032 0.751698 41.9274 0.75503 41.9514L1.25025 41.8824ZM1.25 41.8788V2.27661H0.75V41.8788H1.25ZM1.25 2.27661C1.25 2.26955 1.2528 2.26278 1.25779 2.25779L0.90424 1.90424C0.805481 2.003 0.75 2.13694 0.75 2.27661H1.25ZM1.25779 2.25779C1.26278 2.2528 1.26955 2.25 1.27661 2.25V1.75C1.13694 1.75 1.003 1.80548 0.90424 1.90424L1.25779 2.25779ZM1.27661 2.25C1.28367 2.25 1.29044 2.2528 1.29543 2.25779L1.64898 1.90424C1.55022 1.80548 1.41627 1.75 1.27661 1.75V2.25ZM1.29543 2.25779C1.30041 2.26278 1.30322 2.26955 1.30322 2.27661H1.80322C1.80322 2.13694 1.74774 2.003 1.64898 1.90424L1.29543 2.25779ZM1.30322 2.27661V41.6797H1.80322V2.27661H1.30322ZM1.55322 41.9297H45.7407V41.4297H1.55322V41.9297ZM45.7407 41.9297C45.7377 41.9297 45.7385 41.9283 45.7417 41.9317L46.1064 41.5897C46.0123 41.4894 45.8812 41.4297 45.7407 41.4297V41.9297ZM45.7417 41.9317C45.7454 41.9356 45.75 41.9442 45.75 41.9563H46.25C46.25 41.8216 46.2 41.6895 46.1064 41.5897L45.7417 41.9317ZM45.75 41.9563C45.75 41.9684 45.7454 41.977 45.7417 41.9809L46.1064 42.3229C46.2 42.2231 46.25 42.091 46.25 41.9563H45.75ZM45.7417 41.9809C45.7385 41.9843 45.7377 41.9829 45.7407 41.9829V42.4829C45.8812 42.4829 46.0123 42.4232 46.1064 42.3229L45.7417 41.9809ZM45.7407 41.9829H1.25932V42.4829H45.7407V41.9829ZM1.25932 41.9829C1.26225 41.9829 1.26152 41.9843 1.25833 41.9809L0.893572 42.3229C0.987655 42.4232 1.11884 42.4829 1.25932 42.4829V41.9829ZM1.25834 41.9809C1.25465 41.977 1.25 41.9684 1.25 41.9563H0.75C0.75 42.0909 0.799995 42.2231 0.893566 42.3229L1.25834 41.9809ZM1.25 41.9563C1.25 41.9543 1.25014 41.9523 1.2504 41.9503L0.754886 41.8835C0.751647 41.9075 0.75 41.9318 0.75 41.9563H1.25Z" fill="#C7C7CC"/>
<g clip-path="url(#clip1_3860_75954)">
<path d="M13 22.6104H7V39.0004H13V22.6104Z" fill="url(#paint0_linear_3860_75954)"/>
<path d="M20 16.2998H14V38.9998H20V16.2998Z" fill="url(#paint1_linear_3860_75954)"/>
<path d="M27 10H21V39H27V10Z" fill="url(#paint2_linear_3860_75954)"/>
<path d="M41 22.6104H35V39.0004H41V22.6104Z" fill="url(#paint3_linear_3860_75954)"/>
<path d="M34 16.2998H28V38.9998H34V16.2998Z" fill="url(#paint4_linear_3860_75954)"/>
</g>
</g>
<defs>
<linearGradient id="paint0_linear_3860_75954" x1="7" y1="30.8004" x2="41" y2="30.8004" gradientUnits="userSpaceOnUse">
<stop stop-color="#A855F7"/>
<stop offset="1" stop-color="#3B82F6"/>
</linearGradient>
<linearGradient id="paint1_linear_3860_75954" x1="14" y1="27.7579" x2="20" y2="27.7579" gradientUnits="userSpaceOnUse">
<stop stop-color="#EC4899"/>
<stop offset="0.526042" stop-color="#A855F7"/>
<stop offset="1" stop-color="#3B82F6"/>
</linearGradient>
<linearGradient id="paint2_linear_3860_75954" x1="19.476" y1="32.475" x2="26.0495" y2="32.4226" gradientUnits="userSpaceOnUse">
<stop stop-color="#F377B3"/>
<stop offset="1" stop-color="#FEB3DD"/>
</linearGradient>
<linearGradient id="paint3_linear_3860_75954" x1="32.9" y1="36.6443" x2="41.8955" y2="36.5232" gradientUnits="userSpaceOnUse">
<stop stop-color="#142850"/>
<stop offset="1" stop-color="#466AEC"/>
</linearGradient>
<linearGradient id="paint4_linear_3860_75954" x1="25.936" y1="63.5442" x2="34.9528" y2="63.1609" gradientUnits="userSpaceOnUse">
<stop stop-color="#568E8B"/>
<stop offset="0.776042" stop-color="#67F5ED"/>
</linearGradient>
<clipPath id="clip0_3860_75954">
<rect width="48" height="48" fill="white"/>
</clipPath>
<clipPath id="clip1_3860_75954">
<rect width="34" height="29" fill="white" transform="translate(7 10)"/>
</clipPath>
</defs>
</svg>
