<svg width="48" height="48" viewBox="0 0 48 48" fill="none" xmlns="http://www.w3.org/2000/svg">
<g clip-path="url(#clip0_3860_75955)">
<path fill-rule="evenodd" clip-rule="evenodd" d="M47.063 31H0.937C0.688482 30.9995 0.450308 30.9004 0.274672 30.7246C0.0990365 30.5488 0.0002641 30.3105 0 30.062L0 17.938C0 17.422 0.42 17 0.938 17H47.062C47.579 17 48 17.42 48 17.938V30.063C48 30.579 47.581 31 47.063 31ZM0.937 17.625C0.854161 17.6253 0.774805 17.6584 0.716322 17.717C0.657839 17.7757 0.625 17.8552 0.625 17.938V30.063C0.625 30.235 0.765 30.375 0.938 30.375H47.062C47.235 30.375 47.375 30.235 47.375 30.062V17.938C47.3747 17.8552 47.3416 17.7758 47.283 17.7173C47.2243 17.6588 47.1448 17.626 47.062 17.626H0.938L0.937 17.625Z" fill="url(#paint0_linear_3860_75955)"/>
<path fill-rule="evenodd" clip-rule="evenodd" d="M30 29V19H29V29H30Z" fill="url(#paint1_linear_3860_75955)"/>
<path d="M4.94531 21.3125V27H4.20312V21.3125H4.94531ZM6.77344 21.3125V21.9297H2.37891V21.3125H6.77344ZM8.41406 26.5625L9.58984 22.7734H10.3633L8.66797 27.6523C8.62891 27.7565 8.57682 27.8685 8.51172 27.9883C8.44922 28.1107 8.36849 28.2266 8.26953 28.3359C8.17057 28.4453 8.05078 28.5339 7.91016 28.6016C7.77214 28.6719 7.60677 28.707 7.41406 28.707C7.35677 28.707 7.28385 28.6992 7.19531 28.6836C7.10677 28.668 7.04427 28.6549 7.00781 28.6445L7.00391 28.0586C7.02474 28.0612 7.05729 28.0638 7.10156 28.0664C7.14844 28.0716 7.18099 28.0742 7.19922 28.0742C7.36328 28.0742 7.5026 28.0521 7.61719 28.0078C7.73177 27.9661 7.82812 27.8945 7.90625 27.793C7.98698 27.694 8.05599 27.5573 8.11328 27.3828L8.41406 26.5625ZM7.55078 22.7734L8.64844 26.0547L8.83594 26.8164L8.31641 27.082L6.76172 22.7734H7.55078ZM11.7383 23.5859V28.625H11.0117V22.7734H11.6758L11.7383 23.5859ZM14.5859 24.8516V24.9336C14.5859 25.2409 14.5495 25.526 14.4766 25.7891C14.4036 26.0495 14.2969 26.276 14.1562 26.4688C14.0182 26.6615 13.8477 26.8112 13.6445 26.918C13.4414 27.0247 13.2083 27.0781 12.9453 27.0781C12.6771 27.0781 12.4401 27.0339 12.2344 26.9453C12.0286 26.8568 11.8542 26.7279 11.7109 26.5586C11.5677 26.3893 11.4531 26.1862 11.3672 25.9492C11.2839 25.7122 11.2266 25.4453 11.1953 25.1484V24.7109C11.2266 24.3984 11.2852 24.1185 11.3711 23.8711C11.457 23.6237 11.5703 23.4128 11.7109 23.2383C11.8542 23.0612 12.0273 22.9271 12.2305 22.8359C12.4336 22.7422 12.668 22.6953 12.9336 22.6953C13.1992 22.6953 13.4349 22.7474 13.6406 22.8516C13.8464 22.9531 14.0195 23.099 14.1602 23.2891C14.3008 23.4792 14.4062 23.707 14.4766 23.9727C14.5495 24.2357 14.5859 24.5286 14.5859 24.8516ZM13.8594 24.9336V24.8516C13.8594 24.6406 13.8372 24.4427 13.793 24.2578C13.7487 24.0703 13.6797 23.9062 13.5859 23.7656C13.4948 23.6224 13.3776 23.5104 13.2344 23.4297C13.0911 23.3464 12.9206 23.3047 12.7227 23.3047C12.5404 23.3047 12.3815 23.3359 12.2461 23.3984C12.1133 23.4609 12 23.5456 11.9062 23.6523C11.8125 23.7565 11.7357 23.8763 11.6758 24.0117C11.6185 24.1445 11.5755 24.2826 11.5469 24.4258V25.4375C11.599 25.6198 11.6719 25.7917 11.7656 25.9531C11.8594 26.112 11.9844 26.2409 12.1406 26.3398C12.2969 26.4362 12.4935 26.4844 12.7305 26.4844C12.9258 26.4844 13.0938 26.444 13.2344 26.3633C13.3776 26.2799 13.4948 26.1667 13.5859 26.0234C13.6797 25.8802 13.7487 25.7161 13.793 25.5312C13.8372 25.3438 13.8594 25.1445 13.8594 24.9336ZM16.293 22.7734V27H15.5664V22.7734H16.293ZM15.5117 21.6523C15.5117 21.5352 15.5469 21.4362 15.6172 21.3555C15.6901 21.2747 15.7969 21.2344 15.9375 21.2344C16.0755 21.2344 16.181 21.2747 16.2539 21.3555C16.3294 21.4362 16.3672 21.5352 16.3672 21.6523C16.3672 21.7643 16.3294 21.8607 16.2539 21.9414C16.181 22.0195 16.0755 22.0586 15.9375 22.0586C15.7969 22.0586 15.6901 22.0195 15.6172 21.9414C15.5469 21.8607 15.5117 21.7643 15.5117 21.6523ZM18.1758 23.6758V27H17.4531V22.7734H18.1367L18.1758 23.6758ZM18.0039 24.7266L17.7031 24.7148C17.7057 24.4258 17.7487 24.1589 17.832 23.9141C17.9154 23.6667 18.0326 23.4518 18.1836 23.2695C18.3346 23.0872 18.5143 22.9466 18.7227 22.8477C18.9336 22.7461 19.1667 22.6953 19.4219 22.6953C19.6302 22.6953 19.8177 22.724 19.9844 22.7812C20.151 22.8359 20.293 22.9245 20.4102 23.0469C20.5299 23.1693 20.6211 23.3281 20.6836 23.5234C20.7461 23.7161 20.7773 23.9518 20.7773 24.2305V27H20.0508V24.2227C20.0508 24.0013 20.0182 23.8242 19.9531 23.6914C19.888 23.556 19.793 23.4583 19.668 23.3984C19.543 23.3359 19.3893 23.3047 19.207 23.3047C19.0273 23.3047 18.8633 23.3424 18.7148 23.418C18.569 23.4935 18.4427 23.5977 18.3359 23.7305C18.2318 23.8633 18.1497 24.0156 18.0898 24.1875C18.0326 24.3568 18.0039 24.5365 18.0039 24.7266ZM24.6133 22.7734H25.2695V26.9102C25.2695 27.2826 25.194 27.6003 25.043 27.8633C24.8919 28.1263 24.681 28.3255 24.4102 28.4609C24.1419 28.599 23.832 28.668 23.4805 28.668C23.3346 28.668 23.1628 28.6445 22.9648 28.5977C22.7695 28.5534 22.5768 28.4766 22.3867 28.3672C22.1992 28.2604 22.0417 28.1159 21.9141 27.9336L22.293 27.5039C22.4701 27.7174 22.6549 27.8659 22.8477 27.9492C23.043 28.0326 23.2357 28.0742 23.4258 28.0742C23.6549 28.0742 23.8529 28.0312 24.0195 27.9453C24.1862 27.8594 24.3151 27.7318 24.4062 27.5625C24.5 27.3958 24.5469 27.1901 24.5469 26.9453V23.7031L24.6133 22.7734ZM21.7031 24.9336V24.8516C21.7031 24.5286 21.7409 24.2357 21.8164 23.9727C21.8945 23.707 22.0052 23.4792 22.1484 23.2891C22.2943 23.099 22.4701 22.9531 22.6758 22.8516C22.8815 22.7474 23.1133 22.6953 23.3711 22.6953C23.6367 22.6953 23.8685 22.7422 24.0664 22.8359C24.2669 22.9271 24.4362 23.0612 24.5742 23.2383C24.7148 23.4128 24.8255 23.6237 24.9062 23.8711C24.987 24.1185 25.043 24.3984 25.0742 24.7109V25.0703C25.0456 25.3802 24.9896 25.6589 24.9062 25.9062C24.8255 26.1536 24.7148 26.3646 24.5742 26.5391C24.4362 26.7135 24.2669 26.8477 24.0664 26.9414C23.8659 27.0326 23.6315 27.0781 23.3633 27.0781C23.1107 27.0781 22.8815 27.0247 22.6758 26.918C22.4727 26.8112 22.2982 26.6615 22.1523 26.4688C22.0065 26.276 21.8945 26.0495 21.8164 25.7891C21.7409 25.526 21.7031 25.2409 21.7031 24.9336ZM22.4258 24.8516V24.9336C22.4258 25.1445 22.4466 25.3424 22.4883 25.5273C22.5326 25.7122 22.599 25.875 22.6875 26.0156C22.7786 26.1562 22.8945 26.2669 23.0352 26.3477C23.1758 26.4258 23.3438 26.4648 23.5391 26.4648C23.7786 26.4648 23.9766 26.4141 24.1328 26.3125C24.2891 26.2109 24.4128 26.0768 24.5039 25.9102C24.5977 25.7435 24.6706 25.5625 24.7227 25.3672V24.4258C24.694 24.2826 24.6497 24.1445 24.5898 24.0117C24.5326 23.8763 24.457 23.7565 24.3633 23.6523C24.2721 23.5456 24.1589 23.4609 24.0234 23.3984C23.888 23.3359 23.7292 23.3047 23.5469 23.3047C23.349 23.3047 23.1784 23.3464 23.0352 23.4297C22.8945 23.5104 22.7786 23.6224 22.6875 23.7656C22.599 23.9062 22.5326 24.0703 22.4883 24.2578C22.4466 24.4427 22.4258 24.6406 22.4258 24.8516Z" fill="#3B82F6"/>
</g>
<defs>
<linearGradient id="paint0_linear_3860_75955" x1="-8.08028e-08" y1="24.0667" x2="48" y2="24.0667" gradientUnits="userSpaceOnUse">
<stop stop-color="#A855F7"/>
<stop offset="1" stop-color="#3B82F6"/>
</linearGradient>
<linearGradient id="paint1_linear_3860_75955" x1="29.4952" y1="29" x2="29.4952" y2="19" gradientUnits="userSpaceOnUse">
<stop stop-color="#A855F7"/>
<stop offset="1" stop-color="#3B82F6"/>
</linearGradient>
<clipPath id="clip0_3860_75955">
<rect width="48" height="48" fill="white"/>
</clipPath>
</defs>
</svg>
