<svg width="48" height="48" viewBox="0 0 48 48" xmlns="http://www.w3.org/2000/svg">
    <g fill="none" fill-rule="evenodd">
        <path opacity=".1" d="M0 0h48v48H0z"/>
        <path d="M47.063 31H.937A.939.939 0 0 1 0 30.062V17.938C0 17.422.42 17 .938 17h46.124c.517 0 .938.42.938.938v12.125c0 .516-.42.937-.938.937zM.937 17.625a.313.313 0 0 0-.312.313v12.125c0 .172.14.312.313.312h46.124c.173 0 .313-.14.313-.313V17.938a.313.313 0 0 0-.313-.312H.938z" fill="#B7C5FF"/>
        <path d="M7.02 23.78c.084.092.13.211.13.334v3.638c0 .22.265.33.422.177l1.018-1.163c.136-.163.211-.244.211-.405v-2.246c0-.123.047-.243.13-.334l2.921-3.16A.37.37 0 0 0 11.58 20H4.372a.37.37 0 0 0-.273.621l2.92 3.16z" fill="#7F98FE" fill-rule="nonzero"/>
        <path fill="#B7C5FF" d="M15 23h28v2H15z"/>
    </g>
</svg>
