<svg width="48" height="48" viewBox="0 0 48 48" fill="none" xmlns="http://www.w3.org/2000/svg">
<g clip-path="url(#clip0_3860_75959)">
<g clip-path="url(#clip1_3860_75959)">
<path d="M3.71154 9.85802L6.36538 8.50866L6.75 9.26887C6.96154 9.68698 7.94231 11.7015 8.94231 13.7541C10.0577 16.0157 10.8462 17.5551 10.9808 17.6691C11.25 17.8972 11.5577 17.9922 11.8654 17.9162C11.9808 17.8781 13.2885 16.9659 14.75 15.8826C16.2115 14.7993 17.4423 13.9251 17.4808 13.9251C17.5192 13.9441 18.6923 14.9324 20.0769 16.1487C22.7115 18.4673 23.1538 18.8094 23.4615 18.8094C23.5769 18.8094 24.5 18.5623 25.5577 18.2392L27.4615 17.6881L28.3269 18.4673C29.1346 19.2085 29.2115 19.2465 29.3077 19.0945C29.3846 18.9994 29.6538 18.6383 29.9231 18.2773L30.4231 17.6121L29.3462 16.5858C28.5577 15.8446 28.1923 15.5405 28 15.5025C27.7885 15.4645 27.1731 15.6165 25.75 16.0157L23.7885 16.5858L20.9231 14.0961C19.3462 12.7278 17.9808 11.5685 17.8462 11.5115C17.3654 11.3214 17.1154 11.4734 14.5577 13.374C13.1923 14.4002 12.0385 15.1984 12 15.1604C11.9615 15.1224 10.9808 13.1459 9.80769 10.7513C7.96154 6.96926 7.65385 6.3801 7.38462 6.20906C7.21154 6.09503 6.98077 6 6.84615 6C6.73077 6.01901 5.92308 6.3801 5.07692 6.81722C4.23077 7.25433 2.96154 7.9005 2.26923 8.24259L1 8.88876V10.0481C1 10.6942 1.01923 11.2074 1.03846 11.2074C1.03846 11.2074 2.26923 10.5992 3.71154 9.85802Z" fill="url(#paint0_linear_3860_75959)"/>
<path d="M39.9808 7.59668C39.9615 7.61568 36.6923 12.0439 32.7308 17.4603C28.7692 22.8767 25.4808 27.3049 25.4423 27.3049C25.4038 27.3049 24.2308 26.4117 22.8269 25.3284C21.4231 24.2451 20.1538 23.2948 20 23.1998C19.8462 23.1238 19.5385 23.0668 19.25 23.0668C18.3269 23.0668 18.3462 23.0478 15.2692 27.1148C13.75 29.1484 12.4808 30.8018 12.4615 30.8018C12.4615 30.8018 11.6538 30.4407 10.6731 30.0036C8.59615 29.0724 8.32692 28.9963 7.65385 29.3764C7.26923 29.5855 6.73077 30.1747 4.09615 33.2535L1 36.8834V40.0003H3L5.92308 36.5413C7.53846 34.6408 8.88462 33.0824 8.94231 33.0824C9 33.0824 9.84615 33.4435 10.8077 33.8806C12.3654 34.6028 12.6154 34.6979 13.0577 34.6789C13.8269 34.6789 14.1538 34.4508 15.0769 33.2155C15.5192 32.6453 16.7115 31.0489 17.7308 29.6805L19.5962 27.2289L22.1923 29.2434C23.6346 30.3457 24.9038 31.315 25.0192 31.372C25.6731 31.7141 26.4231 31.6 26.9808 31.0869C27.1731 30.9159 30.1731 26.8868 33.6538 22.1355L40 13.5072V10.5425C40 8.92703 40 7.59668 39.9808 7.59668Z" fill="url(#paint1_linear_3860_75959)"/>
<path d="M35.6346 22.4961C35.6153 22.4961 35.3269 22.8572 35 23.3133L34.4038 24.1495L35.2692 24.9667C35.75 25.4229 37 26.5822 38.0384 27.5514L39.9423 29.3379L39.9615 27.9505L39.9807 26.5632L39.6923 26.2591C39.2692 25.822 35.7115 22.5341 35.6346 22.4961Z" fill="url(#paint2_linear_3860_75959)"/>
</g>
<path fill-rule="evenodd" clip-rule="evenodd" d="M1.00265 40.9169C1.00089 40.9044 1 40.8916 1 40.8788V1.27661C1 1.20325 1.02914 1.13289 1.08102 1.08102C1.13289 1.02914 1.20325 1 1.27661 1C1.34997 1 1.42033 1.02914 1.4722 1.08102C1.52408 1.13289 1.55322 1.20325 1.55322 1.27661V40.6797H45.7407C45.8095 40.6797 45.8754 40.7088 45.924 40.7607C45.9727 40.8126 46 40.8829 46 40.9563C46 41.0297 45.9727 41.1 45.924 41.1519C45.8754 41.2038 45.8095 41.2329 45.7407 41.2329H1.25932C1.19054 41.2329 1.12459 41.2038 1.07595 41.1519C1.02732 41.1 1 41.0297 1 40.9563C1 40.943 1.0009 40.9299 1.00265 40.9169Z" fill="#C7C7CC"/>
<path d="M1.00265 40.9169L1.25041 40.9503L1.25499 40.9163L1.25025 40.8824L1.00265 40.9169ZM1.4722 1.08102L1.29542 1.25779L1.29543 1.25781L1.4722 1.08102ZM1.55322 40.6797H1.30322V40.9297H1.55322V40.6797ZM45.924 41.1519L45.7417 40.9809L45.7416 40.9809L45.924 41.1519ZM1.07595 41.1519L0.893565 41.3229H0.893566L1.07595 41.1519ZM1.25025 40.8824C1.25009 40.8812 1.25 40.88 1.25 40.8788H0.75C0.75 40.9032 0.751699 40.9275 0.755047 40.9515L1.25025 40.8824ZM1.25 40.8788V1.27661H0.75V40.8788H1.25ZM1.25 1.27661C1.25 1.26955 1.25281 1.26278 1.25779 1.25779L0.90424 0.90424C0.805483 1.003 0.75 1.13694 0.75 1.27661H1.25ZM1.25779 1.25779C1.26278 1.25281 1.26955 1.25 1.27661 1.25V0.75C1.13694 0.75 1.003 0.805483 0.90424 0.90424L1.25779 1.25779ZM1.27661 1.25C1.28366 1.25 1.29043 1.2528 1.29542 1.25779L1.64898 0.90424C1.55022 0.805486 1.41628 0.75 1.27661 0.75V1.25ZM1.29543 1.25781C1.30041 1.26278 1.30322 1.26953 1.30322 1.27661H1.80322C1.80322 1.13696 1.74775 1.003 1.64896 0.904227L1.29543 1.25781ZM1.30322 1.27661V40.6797H1.80322V1.27661H1.30322ZM1.55322 40.9297H45.7407V40.4297H1.55322V40.9297ZM45.7407 40.9297C45.7378 40.9297 45.7385 40.9283 45.7417 40.9317L46.1064 40.5897C46.0123 40.4894 45.8812 40.4297 45.7407 40.4297V40.9297ZM45.7417 40.9317C45.7454 40.9356 45.75 40.9442 45.75 40.9563H46.25C46.25 40.8216 46.2 40.6895 46.1064 40.5897L45.7417 40.9317ZM45.75 40.9563C45.75 40.9684 45.7454 40.977 45.7417 40.9809L46.1064 41.3229C46.2 41.2231 46.25 41.091 46.25 40.9563H45.75ZM45.7416 40.9809C45.7385 40.9843 45.7378 40.9829 45.7407 40.9829V41.4829C45.8811 41.4829 46.0123 41.4232 46.1064 41.3229L45.7416 40.9809ZM45.7407 40.9829H1.25932V41.4829H45.7407V40.9829ZM1.25932 40.9829C1.26224 40.9829 1.26151 40.9843 1.25833 40.9809L0.893566 41.3229C0.987664 41.4232 1.11885 41.4829 1.25932 41.4829V40.9829ZM1.25834 40.9809C1.25465 40.977 1.25 40.9684 1.25 40.9563H0.75C0.75 41.0909 0.799993 41.2231 0.893565 41.3229L1.25834 40.9809ZM1.25 40.9563C1.25 40.9544 1.25013 40.9524 1.25041 40.9503L0.754883 40.8836C0.751672 40.9074 0.75 40.9317 0.75 40.9563H1.25Z" fill="#C7C7CC"/>
</g>
<defs>
<linearGradient id="paint0_linear_3860_75959" x1="-9.12154" y1="33.4023" x2="30.1094" y2="19.305" gradientUnits="userSpaceOnUse">
<stop stop-color="#568E8B"/>
<stop offset="0.776042" stop-color="#67F5ED"/>
</linearGradient>
<linearGradient id="paint1_linear_3860_75959" x1="1" y1="23.9528" x2="40" y2="23.9528" gradientUnits="userSpaceOnUse">
<stop stop-color="#A855F7"/>
<stop offset="1" stop-color="#3B82F6"/>
</linearGradient>
<linearGradient id="paint2_linear_3860_75959" x1="32.4853" y1="36.7356" x2="40.7396" y2="35.6537" gradientUnits="userSpaceOnUse">
<stop stop-color="#568E8B"/>
<stop offset="0.776042" stop-color="#67F5ED"/>
</linearGradient>
<clipPath id="clip0_3860_75959">
<rect width="48" height="48" fill="white"/>
</clipPath>
<clipPath id="clip1_3860_75959">
<rect width="39" height="34" fill="white" transform="translate(1 6)"/>
</clipPath>
</defs>
</svg>
