<svg width="48" height="48" viewBox="0 0 48 48" fill="none" xmlns="http://www.w3.org/2000/svg">
<g clip-path="url(#clip0_3860_75953)">
<path d="M42.6841 1.53912L41.3811 4.03912L40.3341 4.65712C40.2561 4.70312 40.1841 4.76012 40.1201 4.82712L39.9921 4.96112L39.8641 5.12612L37.4901 8.95612L35.0461 10.1611C34.9531 10.2071 34.8671 10.2681 34.7931 10.3401L34.6521 10.4761L34.5731 10.5611L34.5381 10.6071L33.7721 11.7991L31.8891 12.0801L31.6751 12.1371L31.5861 12.1711L31.4091 12.2611L29.6991 13.3541L29.6091 13.4191C29.4951 13.5121 29.4021 13.6291 29.3371 13.7631L28.2371 16.0461L26.1911 16.4001L26.0551 16.4341C25.8781 16.4901 25.7191 16.5961 25.5981 16.7391L21.9651 21.0261L19.6881 21.0281L19.5631 21.0361C19.1941 21.0821 18.8771 21.3311 18.7481 21.6871L17.5441 25.0111L16.7171 25.3241L16.5971 25.3791C16.4411 25.4621 16.3101 25.5861 16.2171 25.7381L15.0401 27.6621L14.0611 28.3161L13.9611 28.3921L12.9561 29.2621H11.7601L11.6421 29.2701C11.3321 29.3071 11.0521 29.4881 10.8941 29.7641L10.4041 30.6141L10.0101 30.1891L9.92105 30.1051C9.48905 29.7391 8.82405 29.8051 8.47605 30.2711L6.22005 33.2911H5.34205C5.05505 33.2911 4.78205 33.4141 4.59205 33.6291L3.25205 35.1491C3.01905 35.4121 2.94205 35.7771 3.04705 36.1121L3.42305 37.3021L3.46605 37.4141C3.75705 38.0621 4.64005 38.2141 5.12705 37.6611L5.99505 36.6761L6.95505 36.6771L7.07205 36.6711C7.34305 36.6391 7.59205 36.4971 7.75605 36.2761L9.40205 34.0711L9.96205 34.6751L10.0521 34.7611C10.5201 35.1561 11.2481 35.0411 11.5621 34.4931L12.6231 32.6481L13.4121 32.6491C13.5431 32.6491 13.6731 32.6231 13.7951 32.5731L13.9481 32.5101L14.0451 32.4631C14.1081 32.4291 14.1671 32.3871 14.2211 32.3401L15.4971 31.2301L16.6421 30.4701C16.7121 30.4251 16.7741 30.3711 16.8291 30.3101L16.9481 30.1801L17.0621 30.0281L18.0771 28.3611L19.1171 27.9711L19.2301 27.9191C19.4491 27.8041 19.6191 27.6101 19.7041 27.3751L20.7761 24.4131L22.6391 24.4151L22.7641 24.4071C23.0111 24.3761 23.2401 24.2531 23.4031 24.0611L27.1291 19.6581L29.4351 19.2631L29.5521 19.2361C29.8201 19.1561 30.0441 18.9661 30.1671 18.7111L31.4301 16.0841L32.4961 15.4021L34.8041 15.0611L34.9241 15.0351C35.1611 14.9701 35.3671 14.8191 35.5011 14.6101L36.4441 13.1331L38.9791 11.8861L39.0761 11.8311C39.2021 11.7511 39.3081 11.6431 39.3871 11.5151L41.8511 7.53612L43.0391 6.83812L43.1321 6.77512C43.2521 6.68512 43.3501 6.57012 43.4191 6.43712L44.1571 5.01512L44.2341 5.06512C44.8351 5.44512 45.6301 5.09512 45.7541 4.39412L45.9861 3.07912C46.0561 2.67912 45.8791 2.27712 45.5361 2.06012L44.1061 1.15512C43.6121 0.842123 42.9551 1.01912 42.6851 1.53912H42.6841Z" fill="url(#paint0_linear_3860_75953)"/>
<path d="M41.1549 20.4112L38.3129 21.0192L38.1799 21.0582L34.1769 22.5152L29.7549 23.4302L29.6429 23.4602C29.5699 23.4842 29.4999 23.5172 29.4329 23.5572L26.1219 25.5882L22.8289 25.9242L22.6819 25.9512L18.3849 27.0532L18.2649 27.0932C18.2249 27.1082 18.1869 27.1262 18.1499 27.1462L15.1389 28.8102L10.5049 30.3562L8.10394 29.5062L7.99194 29.4732C7.50594 29.3622 7.00194 29.6292 6.82894 30.1092L5.51294 33.7582L3.58994 34.6222C3.19594 34.8002 2.95994 35.2112 3.00594 35.6412L3.16194 37.1062C3.23394 37.7822 3.94494 38.1912 4.56594 37.9132L7.14594 36.7562L7.24794 36.7032C7.44594 36.5852 7.59794 36.4022 7.67694 36.1832L8.69394 33.3592L10.0989 33.8572C10.2029 33.8942 10.3129 33.9132 10.4229 33.9142L10.5449 33.9152C10.6549 33.9172 10.7659 33.8992 10.8709 33.8642L16.0159 32.1432L16.1839 32.0692L19.1469 30.4262L23.1689 29.3992L26.6349 29.0492C26.7149 29.0422 26.7929 29.0242 26.8689 28.9972L26.9559 28.9672L27.1479 28.8742L30.4719 26.8192L34.7509 25.9462L34.8929 25.9062L38.9029 24.4442L42.0409 23.7782C42.1579 23.7532 42.2709 23.7082 42.3709 23.6432L42.5089 23.5552C42.5859 23.5052 42.6559 23.4452 42.7169 23.3772L45.7469 19.9822C45.9699 19.7312 46.0529 19.3842 45.9669 19.0582L45.6149 17.7422C45.4089 16.9742 44.4319 16.7412 43.9029 17.3342L41.1549 20.4112Z" fill="url(#paint1_linear_3860_75953)"/>
<path fill-rule="evenodd" clip-rule="evenodd" d="M43.0191 27.3908L40.8071 28.4838L39.3941 29.1398L35.0561 29.1408L34.8701 29.1588L34.7881 29.1738L34.6161 29.2238L31.5671 30.3928L27.8461 29.8088C27.7341 29.7918 27.6211 29.7928 27.5101 29.8138L27.3631 29.8408L27.2611 29.8648C27.1941 29.8848 27.1291 29.9108 27.0681 29.9448L26.1691 30.4298L24.6931 30.4308L24.5371 30.4428L18.4981 31.3958L16.3801 31.3928L16.1621 31.4168L16.0661 31.4378L15.8721 31.5028L14.5441 32.1008L13.2431 31.8408L13.0521 31.8218H12.9671L12.7741 31.8398L7.71206 32.8068L7.58406 32.8398C7.41606 32.8958 7.26606 32.9958 7.14806 33.1298L5.94706 34.4968L3.47706 36.0158C3.11306 36.2388 2.93106 36.6688 3.02406 37.0858L3.27606 38.2178C3.42606 38.8878 4.19106 39.2118 4.77606 38.8518L7.41806 37.2298L7.54806 37.1348L7.62806 37.0668L7.72706 36.9678L8.68806 35.8708L12.9991 35.0468L14.4501 35.3388C14.5551 35.3588 14.6621 35.3638 14.7671 35.3508L14.9071 35.3338L15.0071 35.3168C15.0721 35.3018 15.1371 35.2808 15.1971 35.2528L16.6441 34.5988L18.6121 34.6008L18.7681 34.5878L24.8061 33.6348L26.4781 33.6378C26.5651 33.6378 26.6511 33.6278 26.7351 33.6048L26.8481 33.5748L26.9611 33.5378C26.9981 33.5238 27.0341 33.5068 27.0691 33.4878L27.8761 33.0498L31.5111 33.6238C31.5991 33.6368 31.6881 33.6398 31.7771 33.6298L31.8931 33.6168L31.9781 33.6038C32.0341 33.5928 32.0881 33.5768 32.1421 33.5558L35.2851 32.3468L39.6651 32.3478C39.7401 32.3478 39.8151 32.3398 39.8881 32.3228L39.9861 32.3008L40.1861 32.2328L41.8731 31.4468L44.4081 30.1968C44.4881 30.1568 44.5631 30.1058 44.6311 30.0458L44.7611 29.9298L44.9061 29.7678L45.8121 28.5098C46.0301 28.2068 46.0611 27.8088 45.8921 27.4758L45.4261 26.5498C45.0881 25.8798 44.1601 25.8068 43.7221 26.4158L43.0191 27.3908Z" fill="url(#paint2_linear_3860_75953)"/>
<path fill-rule="evenodd" clip-rule="evenodd" d="M2.00264 40.9169C2.00089 40.9043 2 40.8916 2 40.8788V1.27661C2 1.20325 2.02914 1.13289 2.08102 1.08102C2.13289 1.02914 2.20325 1 2.27661 1C2.34997 1 2.42033 1.02914 2.4722 1.08102C2.52408 1.13289 2.55322 1.20325 2.55322 1.27661V40.6797H46.7407C46.8095 40.6797 46.8754 40.7088 46.924 40.7607C46.9727 40.8126 47 40.8829 47 40.9563C47 41.0297 46.9727 41.1 46.924 41.1519C46.8754 41.2038 46.8095 41.2329 46.7407 41.2329H2.25932C2.19054 41.2329 2.12459 41.2038 2.07595 41.1519C2.02732 41.1 2 41.0297 2 40.9563C2 40.943 2.00089 40.9299 2.00264 40.9169Z" fill="#C7C7CC"/>
<path d="M2.00264 40.9169L2.2504 40.9503L2.25498 40.9164L2.25025 40.8824L2.00264 40.9169ZM2.08102 1.08102L1.90424 0.90424L1.90424 0.90424L2.08102 1.08102ZM2.4722 1.08102L2.64898 0.90424V0.90424L2.4722 1.08102ZM2.55322 40.6797H2.30322V40.9297H2.55322V40.6797ZM46.924 40.7607L47.1064 40.5897L47.1064 40.5897L46.924 40.7607ZM46.924 41.1519L47.1064 41.3229L47.1064 41.3229L46.924 41.1519ZM2.07595 41.1519L1.89357 41.3229L1.89357 41.3229L2.07595 41.1519ZM2.25025 40.8824C2.25009 40.8812 2.25 40.88 2.25 40.8788H1.75C1.75 40.9032 1.7517 40.9274 1.75503 40.9514L2.25025 40.8824ZM2.25 40.8788V1.27661H1.75V40.8788H2.25ZM2.25 1.27661C2.25 1.26955 2.2528 1.26278 2.25779 1.25779L1.90424 0.90424C1.80548 1.003 1.75 1.13694 1.75 1.27661H2.25ZM2.25779 1.25779C2.26278 1.2528 2.26955 1.25 2.27661 1.25V0.75C2.13694 0.75 2.003 0.805481 1.90424 0.90424L2.25779 1.25779ZM2.27661 1.25C2.28367 1.25 2.29044 1.2528 2.29543 1.25779L2.64898 0.90424C2.55022 0.805481 2.41627 0.75 2.27661 0.75V1.25ZM2.29543 1.25779C2.30041 1.26278 2.30322 1.26955 2.30322 1.27661H2.80322C2.80322 1.13694 2.74774 1.003 2.64898 0.90424L2.29543 1.25779ZM2.30322 1.27661V40.6797H2.80322V1.27661H2.30322ZM2.55322 40.9297H46.7407V40.4297H2.55322V40.9297ZM46.7407 40.9297C46.7377 40.9297 46.7385 40.9283 46.7417 40.9317L47.1064 40.5897C47.0123 40.4894 46.8812 40.4297 46.7407 40.4297V40.9297ZM46.7417 40.9317C46.7454 40.9356 46.75 40.9442 46.75 40.9563H47.25C47.25 40.8216 47.2 40.6895 47.1064 40.5897L46.7417 40.9317ZM46.75 40.9563C46.75 40.9684 46.7454 40.977 46.7417 40.9809L47.1064 41.3229C47.2 41.2231 47.25 41.091 47.25 40.9563H46.75ZM46.7417 40.9809C46.7385 40.9843 46.7377 40.9829 46.7407 40.9829V41.4829C46.8812 41.4829 47.0123 41.4232 47.1064 41.3229L46.7417 40.9809ZM46.7407 40.9829H2.25932V41.4829H46.7407V40.9829ZM2.25932 40.9829C2.26225 40.9829 2.26152 40.9843 2.25833 40.9809L1.89357 41.3229C1.98766 41.4232 2.11884 41.4829 2.25932 41.4829V40.9829ZM2.25834 40.9809C2.25465 40.977 2.25 40.9684 2.25 40.9563H1.75C1.75 41.0909 1.8 41.2231 1.89357 41.3229L2.25834 40.9809ZM2.25 40.9563C2.25 40.9543 2.25014 40.9523 2.2504 40.9503L1.75489 40.8835C1.75165 40.9075 1.75 40.9318 1.75 40.9563H2.25Z" fill="#C7C7CC"/>
</g>
<defs>
<linearGradient id="paint0_linear_3860_75953" x1="3.00098" y1="19.6763" x2="46.0012" y2="19.6763" gradientUnits="userSpaceOnUse">
<stop stop-color="#A855F7"/>
<stop offset="1" stop-color="#3B82F6"/>
</linearGradient>
<linearGradient id="paint1_linear_3860_75953" x1="3.00024" y1="27.6007" x2="46.0003" y2="27.6007" gradientUnits="userSpaceOnUse">
<stop stop-color="#A855F7"/>
<stop offset="1" stop-color="#3B82F6"/>
</linearGradient>
<linearGradient id="paint2_linear_3860_75953" x1="-11.7921" y1="53.0577" x2="38.6711" y2="26.2192" gradientUnits="userSpaceOnUse">
<stop stop-color="#568E8B"/>
<stop offset="0.776042" stop-color="#67F5ED"/>
</linearGradient>
<clipPath id="clip0_3860_75953">
<rect width="48" height="48" fill="white"/>
</clipPath>
</defs>
</svg>
