<svg width="48" height="48" viewBox="0 0 48 48" fill="none" xmlns="http://www.w3.org/2000/svg">
<g clip-path="url(#clip0_3860_75956)">
<path d="M5.12004 31.1196V45.9996H2.61304V31.1196H5.12004ZM12.96 12.8266V45.9996H15.467V12.8266H12.96ZM22.987 24.2396V45.9996H25.493V24.2396H22.987ZM32.693 5.89258V45.9996H35.2V5.89258H32.693ZM42.72 39.9196V45.9996H45.227V39.9196H42.72Z" fill="#6C8EFF"/>
<path fill-rule="evenodd" clip-rule="evenodd" d="M44 35C44.7957 35 45.5587 35.3161 46.1213 35.8787C46.6839 36.4413 47 37.2043 47 38C47 38.7957 46.6839 39.5587 46.1213 40.1213C45.5587 40.6839 44.7957 41 44 41C43.2043 41 42.4413 40.6839 41.8787 40.1213C41.3161 39.5587 41 38.7957 41 38C41 37.2043 41.3161 36.4413 41.8787 35.8787C42.4413 35.3161 43.2043 35 44 35ZM4 26C4.79565 26 5.55871 26.3161 6.12132 26.8787C6.68393 27.4413 7 28.2044 7 29C7 29.7956 6.68393 30.5587 6.12132 31.1213C5.55871 31.6839 4.79565 32 4 32C3.20435 32 2.44129 31.6839 1.87868 31.1213C1.31607 30.5587 1 29.7956 1 29C1 28.2044 1.31607 27.4413 1.87868 26.8787C2.44129 26.3161 3.20435 26 4 26ZM24 20C24.7956 20 25.5587 20.3161 26.1213 20.8787C26.6839 21.4413 27 22.2044 27 23C27 23.7956 26.6839 24.5587 26.1213 25.1213C25.5587 25.6839 24.7956 26 24 26C23.2044 26 22.4413 25.6839 21.8787 25.1213C21.3161 24.5587 21 23.7956 21 23C21 22.2044 21.3161 21.4413 21.8787 20.8787C22.4413 20.3161 23.2044 20 24 20ZM14 9C14.7956 9 15.5587 9.31607 16.1213 9.87868C16.6839 10.4413 17 11.2044 17 12C17 12.7956 16.6839 13.5587 16.1213 14.1213C15.5587 14.6839 14.7956 15 14 15C13.2044 15 12.4413 14.6839 11.8787 14.1213C11.3161 13.5587 11 12.7956 11 12C11 11.2044 11.3161 10.4413 11.8787 9.87868C12.4413 9.31607 13.2044 9 14 9ZM34 2C34.7957 2 35.5587 2.31607 36.1213 2.87868C36.6839 3.44129 37 4.20435 37 5C37 5.79565 36.6839 6.55871 36.1213 7.12132C35.5587 7.68393 34.7957 8 34 8C33.2043 8 32.4413 7.68393 31.8787 7.12132C31.3161 6.55871 31 5.79565 31 5C31 4.20435 31.3161 3.44129 31.8787 2.87868C32.4413 2.31607 33.2043 2 34 2Z" fill="url(#paint0_linear_3860_75956)"/>
</g>
<defs>
<linearGradient id="paint0_linear_3860_75956" x1="-14.824" y1="83.1687" x2="52.0247" y2="70.4902" gradientUnits="userSpaceOnUse">
<stop stop-color="#568E8B"/>
<stop offset="0.776042" stop-color="#67F5ED"/>
</linearGradient>
<clipPath id="clip0_3860_75956">
<rect width="48" height="48" fill="white"/>
</clipPath>
</defs>
</svg>
