<svg xmlns="http://www.w3.org/2000/svg" width="48" height="48" viewBox="0 0 48 48">
    <g fill="none" fill-rule="evenodd">
        <g>
            <g>
                <g>
                    <g>
                        <g>
                            <path d="M0 0H48V48H0z" opacity=".1" transform="translate(-412.000000, -540.000000) translate(329.000000, 93.000000) translate(0.000000, 109.000000) translate(48.000000, -578.000000) translate(0.000000, 442.000000) translate(0.000000, 450.000000) translate(35.000000, 24.000000)"/>
                            <g fill="#B7C5FF">
                                <path d="M7.063 28c.516 0 .937.42.937.938v6.125c0 .516-.42.937-.938.937H.938C.421 36 0 35.58 0 35.062v-6.124C0 28.42.42 28 .938 28h6.125zm0 .625H.938c-.173 0-.313.14-.313.313v6.125c0 .172.14.312.313.312h6.125c.172 0 .312-.14.312-.313v-6.124c0-.173-.14-.313-.313-.313zM48 30v4H12v-4h36zM7.062 14c.517 0 .938.42.938.938v6.124c0 .517-.42.938-.938.938H.938C.421 22 0 21.58 0 21.062v-6.125C0 14.421.42 14 .938 14h6.125zm0 .625H.938c-.172 0-.312.14-.312.313v6.124c0 .173.14.313.313.313h6.125c.172 0 .312-.14.312-.313v-6.125c0-.172-.14-.312-.313-.312zM48 16v4H12v-4h36zM7.062 0C7.58 0 8 .42 8 .938v6.125C8 7.579 7.58 8 7.062 8H.938C.421 8 0 7.58 0 7.062V.938C0 .421.42 0 .938 0h6.125zm-.795 1.948l-2.89 3.227L1.7 3.581l-.43.453 2.143 2.038 3.32-3.707-.466-.417zM48 2v4H12V2h36z" transform="translate(-412.000000, -540.000000) translate(329.000000, 93.000000) translate(0.000000, 109.000000) translate(48.000000, -578.000000) translate(0.000000, 442.000000) translate(0.000000, 450.000000) translate(35.000000, 24.000000) translate(0.000000, 6.000000)"/>
                            </g>
                        </g>
                    </g>
                </g>
            </g>
        </g>
    </g>
</svg>
