<svg width="48" height="48" viewBox="0 0 48 48" fill="none" xmlns="http://www.w3.org/2000/svg">
<g id="Multi Choice">
<g id="Group 23">
<g id="Multi choice">
<path id="Combined Shape" fill-rule="evenodd" clip-rule="evenodd" d="M7.0625 14H0.9375C0.420532 14 0 13.5795 0 13.0625V6.9375C0 6.42053 0.420532 6 0.9375 6H7.0625C7.57947 6 8 6.42053 8 6.9375V13.0625C8 13.5795 7.57947 14 7.0625 14ZM6.73279 8.36475L6.26715 7.94775L3.37708 11.1754L1.69971 9.58087L1.2691 10.0338L3.41315 12.072L6.73279 8.36475ZM19.0625 42H12.9375C12.4205 42 12 41.5795 12 41.0625V34.9375C12 34.4205 12.4205 34 12.9375 34H19.0625C19.5795 34 20 34.4205 20 34.9375V41.0625C20 41.5795 19.5795 42 19.0625 42ZM18.7328 36.3647L18.2672 35.9478L15.3771 39.1754L13.6997 37.5809L13.2691 38.0338L15.4131 40.072L18.7328 36.3647ZM19.0625 28H12.9375C12.4205 28 12 27.5795 12 27.0625V20.9375C12 20.4205 12.4205 20 12.9375 20H19.0625C19.5795 20 20 20.4205 20 20.9375V27.0625C20 27.5795 19.5795 28 19.0625 28ZM12.9375 20.625C12.7652 20.625 12.625 20.7652 12.625 20.9375V27.0625C12.625 27.2348 12.7652 27.375 12.9375 27.375H19.0625C19.2348 27.375 19.375 27.2348 19.375 27.0625V20.9375C19.375 20.7652 19.2348 20.625 19.0625 20.625H12.9375ZM48 8H12V12H48V8ZM23 22H48V26H23V22ZM48 36H23V40H48V36Z" fill="#7F98FE"/>
</g>
</g>
</g>
</svg>
