<svg width="48" height="48" viewBox="0 0 48 48" fill="none" xmlns="http://www.w3.org/2000/svg">
<g clip-path="url(#clip0_3860_75963)">
<path d="M46 0H2C0.89543 0 0 0.89543 0 2V46C0 47.1046 0.89543 48 2 48H46C47.1046 48 48 47.1046 48 46V2C48 0.89543 47.1046 0 46 0Z" fill="url(#paint0_linear_3860_75963)"/>
<path d="M13 23.328C13.053 23.328 13.099 23.309 13.136 23.272C13.173 23.235 13.192 23.189 13.192 23.136V12.32C13.192 12.267 13.173 12.221 13.136 12.184C13.099 12.147 13.053 12.128 13 12.128H11.064C10.957 12.128 10.877 12.144 10.824 12.176L9.144 12.96C9.048 13.003 9 13.077 9 13.184L9.048 14.56C9.048 14.677 9.096 14.736 9.192 14.736L9.256 14.72L10.84 14.288C10.861 14.278 10.883 14.283 10.904 14.304C10.925 14.325 10.936 14.347 10.936 14.368V23.136C10.936 23.189 10.955 23.235 10.992 23.272C11.029 23.309 11.075 23.328 11.128 23.328H13ZM16.435 23.392C16.797 23.392 17.099 23.272 17.339 23.032C17.579 22.792 17.699 22.491 17.699 22.128C17.699 21.755 17.581 21.451 17.347 21.216C17.112 20.981 16.808 20.864 16.435 20.864C16.061 20.864 15.757 20.981 15.523 21.216C15.288 21.451 15.171 21.755 15.171 22.128C15.171 22.491 15.291 22.792 15.531 23.032C15.771 23.272 16.072 23.392 16.435 23.392ZM27.053 23.328C27.107 23.328 27.152 23.309 27.189 23.272C27.227 23.235 27.245 23.189 27.245 23.136V21.584C27.245 21.531 27.227 21.485 27.189 21.448C27.152 21.411 27.107 21.392 27.053 21.392H22.717C22.685 21.392 22.664 21.382 22.653 21.36C22.643 21.339 22.648 21.317 22.669 21.296L22.909 21.056C23.667 20.288 24.237 19.701 24.621 19.296C25.005 18.891 25.363 18.48 25.693 18.064C26.141 17.52 26.477 17.014 26.701 16.544C26.925 16.074 27.037 15.616 27.037 15.168C27.037 14.581 26.885 14.048 26.581 13.568C26.277 13.088 25.845 12.707 25.285 12.424C24.725 12.141 24.067 12 23.31 12C22.628 12 22.012 12.117 21.462 12.352C20.913 12.587 20.473 12.925 20.142 13.368C19.812 13.811 19.63 14.32 19.598 14.896V15.648C19.598 15.701 19.617 15.747 19.654 15.784C19.692 15.821 19.737 15.84 19.79 15.84H21.678C21.732 15.84 21.777 15.821 21.814 15.784C21.852 15.747 21.87 15.701 21.87 15.648V15.248C21.87 14.853 22.004 14.536 22.27 14.296C22.537 14.056 22.884 13.936 23.31 13.936C23.737 13.936 24.084 14.056 24.35 14.296C24.617 14.536 24.75 14.843 24.75 15.216C24.75 15.739 24.265 16.539 23.294 17.616C22.985 17.936 22.681 18.272 22.382 18.624C22.244 18.774 21.902 19.149 21.358 19.752C20.814 20.355 20.281 20.912 19.758 21.424C19.694 21.488 19.662 21.568 19.662 21.664V23.136C19.662 23.189 19.681 23.235 19.718 23.272C19.756 23.309 19.801 23.328 19.854 23.328H27.054H27.053ZM31.208 23.328C31.261 23.328 31.307 23.309 31.344 23.272C31.381 23.235 31.4 23.189 31.4 23.136V16.096C31.4 16.053 31.41 16.029 31.432 16.024C31.453 16.019 31.475 16.032 31.496 16.064L33.192 18.72C33.245 18.805 33.32 18.848 33.416 18.848H34.36C34.456 18.848 34.53 18.805 34.584 18.72L36.28 16.064C36.301 16.032 36.323 16.016 36.344 16.016C36.365 16.016 36.376 16.037 36.376 16.08V23.136C36.376 23.189 36.395 23.235 36.432 23.272C36.469 23.309 36.515 23.328 36.568 23.328H38.44C38.493 23.328 38.539 23.309 38.576 23.272C38.613 23.235 38.632 23.189 38.632 23.136V12.32C38.632 12.267 38.613 12.221 38.576 12.184C38.539 12.147 38.493 12.128 38.44 12.128H36.568C36.472 12.128 36.398 12.171 36.344 12.256L33.928 15.984C33.896 16.048 33.864 16.048 33.832 15.984L31.432 12.256C31.379 12.171 31.304 12.128 31.208 12.128H29.336C29.283 12.128 29.237 12.147 29.2 12.184C29.163 12.221 29.144 12.267 29.144 12.32V23.136C29.144 23.189 29.163 23.235 29.2 23.272C29.237 23.309 29.283 23.328 29.336 23.328H31.208Z" fill="white"/>
<path d="M23.5949 36.0561C24.0109 36.0561 24.3729 35.9561 24.6829 35.7561C24.9919 35.5561 25.2079 35.2861 25.3309 34.9441C25.4159 34.7251 25.4589 34.4801 25.4589 34.2081C25.4589 33.9631 25.4189 33.7091 25.3389 33.4481C25.2209 33.1181 25.0229 32.8581 24.7429 32.6681C24.4629 32.4781 24.1359 32.3841 23.7629 32.3841C23.4479 32.3841 23.1709 32.4611 22.9309 32.6161C22.8989 32.6371 22.8829 32.6291 22.8829 32.5921L22.8899 31.4081C22.8899 31.3811 22.9029 31.3681 22.9299 31.3681H25.1619C25.1879 31.3681 25.2109 31.3581 25.2299 31.3401C25.2479 31.3211 25.2579 31.2991 25.2579 31.2721V30.4961C25.2579 30.4691 25.2479 30.4461 25.2299 30.4281C25.2109 30.4091 25.1879 30.4001 25.1619 30.4001H21.8589C21.8319 30.4001 21.8089 30.4101 21.7909 30.4281C21.7719 30.4471 21.7629 30.4691 21.7629 30.4961V33.7201C21.7629 33.7471 21.7719 33.7701 21.7909 33.7881C21.8089 33.8071 21.8319 33.8161 21.8589 33.8161H22.8429C22.8959 33.8161 22.9309 33.7891 22.9469 33.7361C22.9889 33.6241 23.0749 33.5331 23.2029 33.4641C23.3309 33.3941 23.4689 33.3601 23.6189 33.3601C23.7679 33.3601 23.8989 33.3971 24.0109 33.4721C24.1229 33.5471 24.1969 33.6531 24.2349 33.7921C24.2829 33.9151 24.3069 34.0531 24.3069 34.2081C24.3069 34.3781 24.2799 34.5181 24.2269 34.6241C24.1729 34.7681 24.0909 34.8801 23.9789 34.9601C23.8669 35.0401 23.7359 35.0801 23.5869 35.0801C23.4429 35.0801 23.3169 35.0431 23.2109 34.9681C23.1039 34.8931 23.0239 34.7871 22.9709 34.6481L22.9469 34.5921C22.9359 34.5711 22.9279 34.5441 22.9229 34.5121C22.9069 34.4531 22.8719 34.4241 22.8189 34.4241H21.8499C21.7859 34.4241 21.7539 34.4541 21.7539 34.5121V34.5281C21.7799 34.6831 21.8199 34.8291 21.8739 34.9681C22.0019 35.3041 22.2189 35.5691 22.5259 35.7641C22.8319 35.9591 23.1879 36.0561 23.5939 36.0561H23.5949ZM27.6239 32.8561C27.8539 32.8561 28.0649 32.8001 28.2599 32.6881C28.4549 32.5761 28.6079 32.4231 28.7199 32.2281C28.8319 32.0331 28.8879 31.8211 28.8879 31.5921C28.8879 31.3621 28.8309 31.1521 28.7159 30.9601C28.6009 30.7681 28.4479 30.6151 28.2559 30.5001C28.0639 30.3851 27.8529 30.3281 27.6239 30.3281C27.3889 30.3281 27.1739 30.3851 26.9799 30.5001C26.7849 30.6151 26.6299 30.7681 26.5159 30.9601C26.4009 31.1521 26.3439 31.3631 26.3439 31.5921C26.3439 31.8221 26.4009 32.0331 26.5159 32.2281C26.6309 32.4231 26.7859 32.5761 26.9799 32.6881C27.1749 32.8001 27.3899 32.8561 27.6239 32.8561ZM27.9119 36.0001C27.9649 36.0001 28.0049 35.9791 28.0319 35.9361L31.0399 30.5121C31.0559 30.4801 31.0589 30.4531 31.0479 30.4321C31.0379 30.4111 31.0129 30.4001 30.9759 30.4001H30.3839C30.3309 30.4001 30.2909 30.4211 30.2639 30.4641L27.2479 35.8881C27.2319 35.9201 27.2289 35.9471 27.2399 35.9681C27.2499 35.9891 27.2749 36.0001 27.3119 36.0001H27.9119ZM27.6239 32.2001C27.4539 32.2001 27.3089 32.1411 27.1919 32.0241C27.0749 31.9071 27.0159 31.7631 27.0159 31.5921C27.0159 31.4271 27.0749 31.2851 27.1919 31.1681C27.3089 31.0511 27.4529 30.9921 27.6239 30.9921C27.7889 30.9921 27.9289 31.0511 28.0439 31.1681C28.1589 31.2851 28.2159 31.4271 28.2159 31.5921C28.2159 31.7621 28.1589 31.9071 28.0439 32.0241C27.9289 32.1411 27.7889 32.2001 27.6239 32.2001ZM30.7439 36.0721C30.9739 36.0721 31.1849 36.0151 31.3799 35.9001C31.5749 35.7851 31.7299 35.6301 31.8439 35.4361C31.9589 35.2411 32.0159 35.0291 32.0159 34.8001C32.0159 34.5701 31.9589 34.3601 31.8439 34.1681C31.7289 33.9761 31.5739 33.8241 31.3799 33.7121C31.1849 33.6001 30.9729 33.5441 30.7439 33.5441C30.5139 33.5441 30.3029 33.6001 30.1079 33.7121C29.9129 33.8241 29.7579 33.9761 29.6439 34.1681C29.5289 34.3601 29.4719 34.5711 29.4719 34.8001C29.4719 35.0301 29.5289 35.2411 29.6439 35.4361C29.7589 35.6311 29.9139 35.7861 30.1079 35.9001C30.3029 36.0151 30.5149 36.0721 30.7439 36.0721ZM30.7439 35.4081C30.5739 35.4081 30.4309 35.3491 30.3159 35.2321C30.2009 35.1151 30.1439 34.9711 30.1439 34.8001C30.1439 34.6301 30.2029 34.4871 30.3199 34.3721C30.4369 34.2571 30.5789 34.2001 30.7439 34.2001C30.9089 34.2001 31.0509 34.2591 31.1679 34.3761C31.2849 34.4931 31.3439 34.6351 31.3439 34.8001C31.3439 34.9701 31.2849 35.1151 31.1679 35.2321C31.0509 35.3491 30.9089 35.4081 30.7439 35.4081Z" fill="white"/>
<path fill-rule="evenodd" clip-rule="evenodd" d="M16.559 31L14 35H19.247L16.559 31Z" fill="#4EFF86"/>
</g>
<defs>
<linearGradient id="paint0_linear_3860_75963" x1="-8.08028e-08" y1="24.2286" x2="48" y2="24.2286" gradientUnits="userSpaceOnUse">
<stop stop-color="#A855F7"/>
<stop offset="1" stop-color="#3B82F6"/>
</linearGradient>
<clipPath id="clip0_3860_75963">
<rect width="48" height="48" fill="white"/>
</clipPath>
</defs>
</svg>
