<svg xmlns="http://www.w3.org/2000/svg" width="48" height="48" viewBox="0 0 48 48">
    <g fill="none" fill-rule="evenodd">
        <g>
            <g>
                <g>
                    <g>
                        <g>
                            <path d="M0 0H48V48H0z" transform="translate(-412 -526) translate(329 93) translate(48 109) translate(0 300) translate(35 24)"/>
                            <path fill="#57F" d="M43.371 38.722L48 47.968H0l4.629-9.246H43.37zm-6.346-12.675l4.723 9.433H6.252l4.723-9.433h26.05zm-6.416-12.815l4.793 9.573H12.598l4.793-9.573v.14H30.61v-.14zM24 .032l5.056 10.098H18.944L24 .032z" transform="translate(-412 -526) translate(329 93) translate(48 109) translate(0 300) translate(35 24)"/>
                        </g>
                    </g>
                </g>
            </g>
        </g>
    </g>
</svg>
