<svg width="48" height="48" viewBox="0 0 48 48" fill="none" xmlns="http://www.w3.org/2000/svg">
<g clip-path="url(#clip0_3860_75946)">
<path fill-rule="evenodd" clip-rule="evenodd" d="M18.937 0.535156C8.114 2.85916 0 12.4822 0 24.0002C0 37.2552 10.745 48.0002 24 48.0002C28.849 48.0002 33.362 46.5622 37.136 44.0902L24 24.0002L18.937 0.535156Z" fill="url(#paint0_linear_3860_75946)"/>
<path fill-rule="evenodd" clip-rule="evenodd" d="M44.0211 10.761C39.7251 4.276 32.3611 0 24.0001 0C22.2651 0 20.5741 0.184 18.9441 0.534L24.0001 24L44.0211 10.761Z" fill="url(#paint1_linear_3860_75946)"/>
<path fill-rule="evenodd" clip-rule="evenodd" d="M37.169 44.0675C43.693 39.7775 48 32.3915 48 23.9995C48 19.1095 46.538 14.5615 44.027 10.7695L24 23.9995L37.169 44.0675Z" fill="url(#paint2_linear_3860_75946)"/>
</g>
<defs>
<linearGradient id="paint0_linear_3860_75946" x1="-6.25145e-08" y1="24.4937" x2="37.136" y2="24.4937" gradientUnits="userSpaceOnUse">
<stop stop-color="#A855F7"/>
<stop offset="1" stop-color="#3B82F6"/>
</linearGradient>
<linearGradient id="paint1_linear_3860_75946" x1="10.3176" y1="49.95" x2="47.0347" y2="43.781" gradientUnits="userSpaceOnUse">
<stop stop-color="#568E8B"/>
<stop offset="0.776042" stop-color="#67F5ED"/>
</linearGradient>
<linearGradient id="paint2_linear_3860_75946" x1="17.904" y1="36.5755" x2="44.1793" y2="35.846" gradientUnits="userSpaceOnUse">
<stop stop-color="#F377B3"/>
<stop offset="1" stop-color="#FEB3DD"/>
</linearGradient>
<clipPath id="clip0_3860_75946">
<rect width="48" height="48" fill="white"/>
</clipPath>
</defs>
</svg>
