<svg width="48" height="48" viewBox="0 0 48 48" fill="none" xmlns="http://www.w3.org/2000/svg">
<g clip-path="url(#clip0_3860_75962)">
<g clip-path="url(#clip1_3860_75962)">
<path d="M20 16.2998H14V38.9998H20V16.2998Z" fill="url(#paint0_linear_3860_75962)"/>
<path d="M13 14.45C12.32 15 11.64 15.56 10.95 16.15L10.33 16.68L9.67 15.93C10.79 14.96 11.9 14.05 13 13.18V10H7V39H13V14.45Z" fill="url(#paint1_linear_3860_75962)"/>
<path d="M41 34H35V39H41V34Z" fill="url(#paint2_linear_3860_75962)"/>
<path d="M27 22.6104H21V39.0004H27V22.6104Z" fill="url(#paint3_linear_3860_75962)"/>
<path d="M34 29H28V39H34V29Z" fill="url(#paint4_linear_3860_75962)"/>
</g>
<path fill-rule="evenodd" clip-rule="evenodd" d="M1.00264 43.6623C1.00089 43.6488 1 43.6352 1 43.6215V1.29563C1 1.21723 1.02914 1.14203 1.08102 1.08659C1.13289 1.03115 1.20325 1 1.27661 1C1.34997 1 1.42033 1.03115 1.4722 1.08659C1.52408 1.14203 1.55322 1.21723 1.55322 1.29563V43.4087H45.7407C45.8095 43.4087 45.8754 43.4399 45.924 43.4953C45.9727 43.5508 46 43.626 46 43.7044C46 43.7828 45.9727 43.858 45.924 43.9134C45.8754 43.9689 45.8095 44 45.7407 44H1.25932C1.19054 44 1.12459 43.9689 1.07595 43.9134C1.02732 43.858 1 43.7828 1 43.7044C1 43.6902 1.00089 43.6761 1.00264 43.6623Z" fill="#C7C7CC"/>
<path d="M1.00264 43.6623L1.25067 43.6936L1.25469 43.6618L1.25055 43.63L1.00264 43.6623ZM1.08102 1.08659L0.898464 0.915783L0.898464 0.915784L1.08102 1.08659ZM1.4722 1.08659L1.65475 0.915783L1.4722 1.08659ZM1.55322 43.4087H1.30322V43.6587H1.55322V43.4087ZM45.924 43.9134L45.7361 43.7485L45.7361 43.7486L45.924 43.9134ZM1.07595 43.9134L1.2639 43.7486L1.26389 43.7485L1.07595 43.9134ZM1.25055 43.63C1.25019 43.6272 1.25 43.6244 1.25 43.6215H0.75C0.75 43.646 0.751596 43.6705 0.754737 43.6946L1.25055 43.63ZM1.25 43.6215V1.29563H0.75V43.6215H1.25ZM1.25 1.29563C1.25 1.27836 1.25657 1.26487 1.26357 1.25739L0.898464 0.915784C0.801711 1.01919 0.75 1.15609 0.75 1.29563H1.25ZM1.26357 1.25739C1.27004 1.25048 1.27512 1.25 1.27661 1.25V0.75C1.13138 0.75 0.995743 0.811813 0.898464 0.915783L1.26357 1.25739ZM1.27661 1.25C1.2781 1.25 1.28318 1.25048 1.28965 1.25739L1.65475 0.915783C1.55748 0.811813 1.42184 0.75 1.27661 0.75V1.25ZM1.28965 1.25739C1.29664 1.26487 1.30322 1.27836 1.30322 1.29563H1.80322C1.80322 1.15609 1.75151 1.01919 1.65475 0.915783L1.28965 1.25739ZM1.30322 1.29563V43.4087H1.80322V1.29563H1.30322ZM1.55322 43.6587H45.7407V43.1587H1.55322V43.6587ZM45.7407 43.6587C45.737 43.6587 45.7343 43.6578 45.7332 43.6573C45.7321 43.6568 45.7335 43.6572 45.7361 43.6602L46.112 43.3305C46.0198 43.2253 45.8871 43.1587 45.7407 43.1587V43.6587ZM45.7361 43.6602C45.7421 43.667 45.75 43.6825 45.75 43.7044H46.25C46.25 43.5695 46.2033 43.4345 46.112 43.3305L45.7361 43.6602ZM45.75 43.7044C45.75 43.7263 45.7421 43.7417 45.7361 43.7485L46.112 44.0783C46.2033 43.9742 46.25 43.8393 46.25 43.7044H45.75ZM45.7361 43.7486C45.7335 43.7516 45.7321 43.7519 45.7332 43.7514C45.7343 43.7509 45.737 43.75 45.7407 43.75V44.25C45.8871 44.25 46.0198 44.1834 46.112 44.0783L45.7361 43.7486ZM45.7407 43.75H1.25932V44.25H45.7407V43.75ZM1.25932 43.75C1.26302 43.75 1.2657 43.7509 1.26683 43.7514C1.26787 43.7519 1.26654 43.7516 1.2639 43.7486L0.88801 44.0783C0.980231 44.1834 1.11288 44.25 1.25932 44.25V43.75ZM1.26389 43.7485C1.25793 43.7418 1.25 43.7263 1.25 43.7044H0.75C0.75 43.8393 0.79671 43.9742 0.888016 44.0783L1.26389 43.7485ZM1.25 43.7044C1.25 43.7007 1.25023 43.6971 1.25067 43.6936L0.754609 43.631C0.751553 43.6552 0.75 43.6797 0.75 43.7044H1.25Z" fill="#C7C7CC"/>
<path fill-rule="evenodd" clip-rule="evenodd" d="M24.8751 5.79688C29.6681 3.65288 35.9571 2.83088 43.7451 3.31888L44.4351 3.36588L44.3651 4.36288C36.4081 3.79288 30.0471 4.57888 25.2841 6.70988C20.6751 8.77088 15.8961 11.9159 10.9481 16.1469L10.3281 16.6809L9.67212 15.9269C14.9121 11.3649 19.9781 7.98688 24.8751 5.79688Z" fill="url(#paint5_linear_3860_75962)"/>
</g>
<defs>
<linearGradient id="paint0_linear_3860_75962" x1="11.936" y1="63.5442" x2="20.9528" y2="63.1609" gradientUnits="userSpaceOnUse">
<stop stop-color="#568E8B"/>
<stop offset="0.776042" stop-color="#67F5ED"/>
</linearGradient>
<linearGradient id="paint1_linear_3860_75962" x1="7" y1="24.5" x2="41" y2="24.5" gradientUnits="userSpaceOnUse">
<stop stop-color="#A855F7"/>
<stop offset="1" stop-color="#3B82F6"/>
</linearGradient>
<linearGradient id="paint2_linear_3860_75962" x1="30.884" y1="39.4375" x2="39.8859" y2="38.9984" gradientUnits="userSpaceOnUse">
<stop stop-color="#FB8078"/>
<stop offset="1" stop-color="#FFE9B4"/>
</linearGradient>
<linearGradient id="paint3_linear_3860_75962" x1="19.476" y1="35.3126" x2="26.0486" y2="35.2199" gradientUnits="userSpaceOnUse">
<stop stop-color="#F377B3"/>
<stop offset="1" stop-color="#FEB3DD"/>
</linearGradient>
<linearGradient id="paint4_linear_3860_75962" x1="25.9" y1="37.5625" x2="34.8928" y2="37.3642" gradientUnits="userSpaceOnUse">
<stop stop-color="#142850"/>
<stop offset="1" stop-color="#466AEC"/>
</linearGradient>
<linearGradient id="paint5_linear_3860_75962" x1="-2.28635" y1="31.2759" x2="42.3883" y2="12.7754" gradientUnits="userSpaceOnUse">
<stop stop-color="#568E8B"/>
<stop offset="0.776042" stop-color="#67F5ED"/>
</linearGradient>
<clipPath id="clip0_3860_75962">
<rect width="48" height="48" fill="white"/>
</clipPath>
<clipPath id="clip1_3860_75962">
<rect width="34" height="29" fill="white" transform="translate(7 10)"/>
</clipPath>
</defs>
</svg>
