<svg width="48" height="48" viewBox="0 0 48 48" fill="none" xmlns="http://www.w3.org/2000/svg">
<g clip-path="url(#clip0_3860_75940)">
<path fill-rule="evenodd" clip-rule="evenodd" d="M9.3999 29C10.3999 29 11.3999 30 11.3999 31C11.3999 32 10.3999 33 9.3999 33C8.3999 33 7.3999 32 7.3999 31C7.3999 30 8.3999 29 9.3999 29ZM13.3999 23C14.3999 23 15.3999 24 15.3999 25C16.3999 25 17.3999 26 17.3999 27C17.3999 28 16.3999 29 15.3999 29C14.3999 29 13.3999 28 13.3999 27L13.2639 26.994C12.3099 26.909 11.3999 25.954 11.3999 25C11.3999 24 12.3999 23 13.3999 23ZM21.3999 21C22.1979 21 22.9959 21.637 23.2859 22.402C23.6159 22.154 24.0079 22 24.3999 22C25.3999 22 26.3999 23 26.3999 24C26.3999 25 25.3999 26 24.3999 26C23.6019 26 22.8039 25.363 22.5139 24.598C22.1839 24.846 21.7919 25 21.3999 25C20.3999 25 19.3999 24 19.3999 23C19.3999 22 20.3999 21 21.3999 21ZM35.3999 17C36.3999 17 37.3999 18 37.3999 19C37.3999 20 36.3999 21 35.3999 21C34.3999 21 33.3999 20 33.3999 19C33.3999 18 34.3999 17 35.3999 17ZM19.3999 16C20.3999 16 21.3999 17 21.3999 18C21.3999 19 20.3999 20 19.3999 20C18.3999 20 17.3999 19 17.3999 18C17.3999 17 18.3999 16 19.3999 16ZM26.3999 14C27.3999 14 28.3999 15 28.3999 16C28.3999 17 27.3999 18 26.3999 18C25.3999 18 24.3999 17 24.3999 16C24.3999 15 25.3999 14 26.3999 14ZM33.3999 10C34.3999 10 35.3999 11 35.3999 12C35.3999 13 34.3999 14 33.3999 14C32.3999 14 31.3999 13 31.3999 12C31.3999 11 32.3999 10 33.3999 10ZM41.3999 10C42.3999 10 43.3999 11 43.3999 12C43.3999 13 42.3999 14 41.3999 14C40.3999 14 39.3999 13 39.3999 12C39.3999 11 40.3999 10 41.3999 10ZM26.3999 6C27.3999 6 28.3999 7 28.3999 8C28.3999 9 27.3999 10 26.3999 10C25.3999 10 24.3999 9 24.3999 8C24.3999 7 25.3999 6 26.3999 6ZM36.3999 3C37.3999 3 38.3999 4 38.3999 5C38.3999 6 37.3999 7 36.3999 7C35.3999 7 34.3999 6 34.3999 5C34.3999 4 35.3999 3 36.3999 3Z" fill="url(#paint0_linear_3860_75940)"/>
<path fill-rule="evenodd" clip-rule="evenodd" d="M2.00264 43.9169C2.00089 43.9043 2 43.8916 2 43.8788V4.27661C2 4.20325 2.02914 4.13289 2.08102 4.08102C2.13289 4.02914 2.20325 4 2.27661 4C2.34997 4 2.42033 4.02914 2.4722 4.08102C2.52408 4.13289 2.55322 4.20325 2.55322 4.27661V43.6797H46.7407C46.8095 43.6797 46.8754 43.7088 46.924 43.7607C46.9727 43.8126 47 43.8829 47 43.9563C47 44.0297 46.9727 44.1 46.924 44.1519C46.8754 44.2038 46.8095 44.2329 46.7407 44.2329H2.25932C2.19054 44.2329 2.12459 44.2038 2.07595 44.1519C2.02732 44.1 2 44.0297 2 43.9563C2 43.943 2.00089 43.9299 2.00264 43.9169Z" fill="#D1D1D6"/>
<path d="M2.00264 43.9169L2.2504 43.9503L2.25498 43.9164L2.25025 43.8824L2.00264 43.9169ZM2.08102 4.08102L1.90424 3.90424L1.90424 3.90424L2.08102 4.08102ZM2.4722 4.08102L2.64898 3.90424V3.90424L2.4722 4.08102ZM2.55322 43.6797H2.30322V43.9297H2.55322V43.6797ZM46.924 43.7607L47.1064 43.5897L47.1064 43.5897L46.924 43.7607ZM46.924 44.1519L47.1064 44.3229L47.1064 44.3229L46.924 44.1519ZM2.07595 44.1519L1.89357 44.3229L1.89357 44.3229L2.07595 44.1519ZM2.25025 43.8824C2.25009 43.8812 2.25 43.88 2.25 43.8788H1.75C1.75 43.9032 1.7517 43.9274 1.75503 43.9514L2.25025 43.8824ZM2.25 43.8788V4.27661H1.75V43.8788H2.25ZM2.25 4.27661C2.25 4.26955 2.2528 4.26278 2.25779 4.25779L1.90424 3.90424C1.80548 4.003 1.75 4.13694 1.75 4.27661H2.25ZM2.25779 4.25779C2.26278 4.2528 2.26955 4.25 2.27661 4.25V3.75C2.13694 3.75 2.003 3.80548 1.90424 3.90424L2.25779 4.25779ZM2.27661 4.25C2.28367 4.25 2.29044 4.2528 2.29543 4.25779L2.64898 3.90424C2.55022 3.80548 2.41627 3.75 2.27661 3.75V4.25ZM2.29543 4.25779C2.30041 4.26278 2.30322 4.26955 2.30322 4.27661H2.80322C2.80322 4.13694 2.74774 4.003 2.64898 3.90424L2.29543 4.25779ZM2.30322 4.27661V43.6797H2.80322V4.27661H2.30322ZM2.55322 43.9297H46.7407V43.4297H2.55322V43.9297ZM46.7407 43.9297C46.7377 43.9297 46.7385 43.9283 46.7417 43.9317L47.1064 43.5897C47.0123 43.4894 46.8812 43.4297 46.7407 43.4297V43.9297ZM46.7417 43.9317C46.7454 43.9356 46.75 43.9442 46.75 43.9563H47.25C47.25 43.8216 47.2 43.6895 47.1064 43.5897L46.7417 43.9317ZM46.75 43.9563C46.75 43.9684 46.7454 43.977 46.7417 43.9809L47.1064 44.3229C47.2 44.2231 47.25 44.091 47.25 43.9563H46.75ZM46.7417 43.9809C46.7385 43.9843 46.7377 43.9829 46.7407 43.9829V44.4829C46.8812 44.4829 47.0123 44.4232 47.1064 44.3229L46.7417 43.9809ZM46.7407 43.9829H2.25932V44.4829H46.7407V43.9829ZM2.25932 43.9829C2.26225 43.9829 2.26152 43.9843 2.25833 43.9809L1.89357 44.3229C1.98766 44.4232 2.11884 44.4829 2.25932 44.4829V43.9829ZM2.25834 43.9809C2.25465 43.977 2.25 43.9684 2.25 43.9563H1.75C1.75 44.0909 1.8 44.2231 1.89357 44.3229L2.25834 43.9809ZM2.25 43.9563C2.25 43.9543 2.25014 43.9523 2.2504 43.9503L1.75489 43.8835C1.75165 43.9075 1.75 43.9318 1.75 43.9563H2.25Z" fill="#D1D1D6"/>
</g>
<defs>
<linearGradient id="paint0_linear_3860_75940" x1="7.3999" y1="18.1429" x2="43.3999" y2="18.1429" gradientUnits="userSpaceOnUse">
<stop stop-color="#A855F7"/>
<stop offset="1" stop-color="#3B82F6"/>
</linearGradient>
<clipPath id="clip0_3860_75940">
<rect width="48" height="48" fill="white"/>
</clipPath>
</defs>
</svg>
