<svg width="48" height="48" viewBox="0 0 48 48" fill="none" xmlns="http://www.w3.org/2000/svg">
<g id="Multi Choice">
<g id="Group 23">
<g id="Multi choice">
<path id="Combined Shape" fill-rule="evenodd" clip-rule="evenodd" d="M12 8H48V12H12V8ZM23 22H48V26H23V22ZM48 36H23V40H48V36Z" fill="#7F98FE"/>
<path id="Oval" fill-rule="evenodd" clip-rule="evenodd" d="M16 34C18.2091 34 20 35.7909 20 38C20 40.2091 18.2091 42 16 42C13.7909 42 12 40.2091 12 38C12 35.7909 13.7909 34 16 34ZM16 34.5C14.067 34.5 12.5 36.067 12.5 38C12.5 39.933 14.067 41.5 16 41.5C17.933 41.5 19.5 39.933 19.5 38C19.5 36.067 17.933 34.5 16 34.5Z" fill="#5577FF"/>
<circle id="Oval_2" cx="16" cy="38" r="2" fill="#5577FF"/>
<path id="Oval_3" fill-rule="evenodd" clip-rule="evenodd" d="M16 20C18.2091 20 20 21.7909 20 24C20 26.2091 18.2091 28 16 28C13.7909 28 12 26.2091 12 24C12 21.7909 13.7909 20 16 20ZM16 20.5C14.067 20.5 12.5 22.067 12.5 24C12.5 25.933 14.067 27.5 16 27.5C17.933 27.5 19.5 25.933 19.5 24C19.5 22.067 17.933 20.5 16 20.5Z" fill="#5577FF"/>
<path id="Oval_4" fill-rule="evenodd" clip-rule="evenodd" d="M4 6C6.20914 6 8 7.79086 8 10C8 12.2091 6.20914 14 4 14C1.79086 14 0 12.2091 0 10C0 7.79086 1.79086 6 4 6ZM4 6.5C2.067 6.5 0.5 8.067 0.5 10C0.5 11.933 2.067 13.5 4 13.5C5.933 13.5 7.5 11.933 7.5 10C7.5 8.067 5.933 6.5 4 6.5Z" fill="#5577FF"/>
<circle id="Oval_5" cx="4" cy="10" r="2" fill="#5577FF"/>
</g>
</g>
</g>
</svg>
