<svg width="48" height="48" viewBox="0 0 48 48" fill="none" xmlns="http://www.w3.org/2000/svg">
<g clip-path="url(#clip0_3860_75976)">
<path fill-rule="evenodd" clip-rule="evenodd" d="M26.5 6H21.5C20 6 19 6.825 19 8.063V36.937C19 38.175 20 39 21.5 39H26.5C28 39 29 38.175 29 36.937V8.064C29 6.825 28 6 26.5 6Z" fill="#FF9452"/>
<path fill-rule="evenodd" clip-rule="evenodd" d="M15 28.9999V38.9999H5V28.9999H15ZM44 31.7269V38.9999H34V31.7269H44ZM29 23.5449V38.9999H19V23.5449H29Z" fill="url(#paint0_linear_3860_75976)"/>
<path fill-rule="evenodd" clip-rule="evenodd" d="M44 27.3644V31.7274H34V27.3644H44ZM15 23.0004V29.0004H5V23.0004H15ZM29 14.2734V23.5454H19V14.2734H29Z" fill="url(#paint1_linear_3860_75976)"/>
<path fill-rule="evenodd" clip-rule="evenodd" d="M44 23V27.364H34V23H44ZM15 17V23H5V17H15ZM29 5V14.273H19V5H29Z" fill="url(#paint2_linear_3860_75976)"/>
<path fill-rule="evenodd" clip-rule="evenodd" d="M1.00264 42.9169C1.00089 42.9043 1 42.8916 1 42.8788V3.27661C1 3.20325 1.02914 3.13289 1.08102 3.08102C1.13289 3.02914 1.20325 3 1.27661 3C1.34997 3 1.42033 3.02914 1.4722 3.08102C1.52408 3.13289 1.55322 3.20325 1.55322 3.27661V42.6797H45.7407C45.8095 42.6797 45.8754 42.7088 45.924 42.7607C45.9727 42.8126 46 42.8829 46 42.9563C46 43.0297 45.9727 43.1 45.924 43.1519C45.8754 43.2038 45.8095 43.2329 45.7407 43.2329H1.25932C1.19054 43.2329 1.12459 43.2038 1.07595 43.1519C1.02732 43.1 1 43.0297 1 42.9563C1 42.943 1.00089 42.9299 1.00264 42.9169Z" fill="#C7C7CC"/>
<path d="M1.00264 42.9169L1.2504 42.9503L1.25498 42.9164L1.25025 42.8824L1.00264 42.9169ZM1.08102 3.08102L0.90424 2.90424L0.90424 2.90424L1.08102 3.08102ZM1.4722 3.08102L1.64898 2.90424V2.90424L1.4722 3.08102ZM1.55322 42.6797H1.30322V42.9297H1.55322V42.6797ZM45.924 42.7607L46.1064 42.5897L46.1064 42.5897L45.924 42.7607ZM45.924 43.1519L46.1064 43.3229L46.1064 43.3229L45.924 43.1519ZM1.07595 43.1519L0.893566 43.3229L0.893572 43.3229L1.07595 43.1519ZM1.25025 42.8824C1.25009 42.8812 1.25 42.88 1.25 42.8788H0.75C0.75 42.9032 0.751698 42.9274 0.75503 42.9514L1.25025 42.8824ZM1.25 42.8788V3.27661H0.75V42.8788H1.25ZM1.25 3.27661C1.25 3.26955 1.2528 3.26278 1.25779 3.25779L0.90424 2.90424C0.805481 3.003 0.75 3.13694 0.75 3.27661H1.25ZM1.25779 3.25779C1.26278 3.2528 1.26955 3.25 1.27661 3.25V2.75C1.13694 2.75 1.003 2.80548 0.90424 2.90424L1.25779 3.25779ZM1.27661 3.25C1.28367 3.25 1.29044 3.2528 1.29543 3.25779L1.64898 2.90424C1.55022 2.80548 1.41627 2.75 1.27661 2.75V3.25ZM1.29543 3.25779C1.30041 3.26278 1.30322 3.26955 1.30322 3.27661H1.80322C1.80322 3.13694 1.74774 3.003 1.64898 2.90424L1.29543 3.25779ZM1.30322 3.27661V42.6797H1.80322V3.27661H1.30322ZM1.55322 42.9297H45.7407V42.4297H1.55322V42.9297ZM45.7407 42.9297C45.7377 42.9297 45.7385 42.9283 45.7417 42.9317L46.1064 42.5897C46.0123 42.4894 45.8812 42.4297 45.7407 42.4297V42.9297ZM45.7417 42.9317C45.7454 42.9356 45.75 42.9442 45.75 42.9563H46.25C46.25 42.8216 46.2 42.6895 46.1064 42.5897L45.7417 42.9317ZM45.75 42.9563C45.75 42.9684 45.7454 42.977 45.7417 42.9809L46.1064 43.3229C46.2 43.2231 46.25 43.091 46.25 42.9563H45.75ZM45.7417 42.9809C45.7385 42.9843 45.7377 42.9829 45.7407 42.9829V43.4829C45.8812 43.4829 46.0123 43.4232 46.1064 43.3229L45.7417 42.9809ZM45.7407 42.9829H1.25932V43.4829H45.7407V42.9829ZM1.25932 42.9829C1.26225 42.9829 1.26152 42.9843 1.25833 42.9809L0.893572 43.3229C0.987655 43.4232 1.11884 43.4829 1.25932 43.4829V42.9829ZM1.25834 42.9809C1.25465 42.977 1.25 42.9684 1.25 42.9563H0.75C0.75 43.0909 0.799995 43.2231 0.893566 43.3229L1.25834 42.9809ZM1.25 42.9563C1.25 42.9543 1.25014 42.9523 1.2504 42.9503L0.754886 42.8835C0.751647 42.9075 0.75 42.9318 0.75 42.9563H1.25Z" fill="#C7C7CC"/>
</g>
<defs>
<linearGradient id="paint0_linear_3860_75976" x1="5" y1="31.346" x2="44" y2="31.346" gradientUnits="userSpaceOnUse">
<stop stop-color="#A855F7"/>
<stop offset="1" stop-color="#3B82F6"/>
</linearGradient>
<linearGradient id="paint1_linear_3860_75976" x1="-8.416" y1="50.5996" x2="43.5857" y2="31.9156" gradientUnits="userSpaceOnUse">
<stop stop-color="#568E8B"/>
<stop offset="0.776042" stop-color="#67F5ED"/>
</linearGradient>
<linearGradient id="paint2_linear_3860_75976" x1="-4.906" y1="22.3321" x2="37.6323" y2="19.4747" gradientUnits="userSpaceOnUse">
<stop stop-color="#F377B3"/>
<stop offset="1" stop-color="#FEB3DD"/>
</linearGradient>
<clipPath id="clip0_3860_75976">
<rect width="48" height="48" fill="white"/>
</clipPath>
</defs>
</svg>
