<svg xmlns="http://www.w3.org/2000/svg" width="48" height="48" viewBox="0 0 48 48">
    <g fill="none" fill-rule="evenodd">
        <g>
            <g>
                <g>
                    <g>
                        <g>
                            <path d="M0 0H48V48H0z" transform="translate(-881 -413) translate(372 106) translate(0 109) translate(474 174) rotate(90 29.5 53.5)"/>
                            <path fill="#7F98FE" d="M15 26v13H5V26h10zm28 4v9H33v-9h10zm-14-7.25V39H19V22.75h10z" transform="translate(-881 -413) translate(372 106) translate(0 109) translate(474 174) rotate(90 29.5 53.5)"/>
                            <path fill="#57F" d="M43 22.2V30H33v-7.8h10zM15 17v9H5v-9h10zm14-5.5v11.25H19V11.5h10z" transform="translate(-881 -413) translate(372 106) translate(0 109) translate(474 174) rotate(90 29.5 53.5)"/>
                            <path fill="#B7C5FF" d="M43 17v5.2H33V17h10zm-28-6v6H5v-6h10zm14-7v7.5H19V4h10z" transform="translate(-881 -413) translate(372 106) translate(0 109) translate(474 174) rotate(90 29.5 53.5)"/>
                            <path fill="#9799AE" fill-rule="nonzero" d="M1 3c.513 0 .936.386.993.883L2 4v38h44c.513 0 .936.386.993.883L47 43c0 .513-.386.936-.883.993L46 44H1c-.513 0-.936-.386-.993-.883L0 43V4c0-.552.448-1 1-1z" transform="translate(-881 -413) translate(372 106) translate(0 109) translate(474 174) rotate(90 29.5 53.5) matrix(-1 0 0 1 47 0)"/>
                        </g>
                    </g>
                </g>
            </g>
        </g>
    </g>
</svg>
