<svg xmlns="http://www.w3.org/2000/svg" width="48" height="48" viewBox="0 0 48 48">
    <g fill="none" fill-rule="evenodd">
        <g>
            <g>
                <g>
                    <g>
                        <path d="M0 0H48V48H0z" transform="translate(-597 -413) translate(372 106) translate(0 109) rotate(-180 136.5 123)"/>
                        <path fill="#B7C5FF" d="M13 0H24V24H13zM0 17H12V24H0z" transform="translate(-597 -413) translate(372 106) translate(0 109) rotate(-180 136.5 123)"/>
                        <path fill="#57F" d="M6 0H12V16H6z" transform="translate(-597 -413) translate(372 106) translate(0 109) rotate(-180 136.5 123)"/>
                        <path fill="#B7C5FF" d="M0 7H5V16H0zM0 0H5V6H0z" transform="translate(-597 -413) translate(372 106) translate(0 109) rotate(-180 136.5 123)"/>
                        <path fill="#57F" d="M0 25H24V37H0z" transform="translate(-597 -413) translate(372 106) translate(0 109) rotate(-180 136.5 123)"/>
                        <path fill="#B7C5FF" d="M0 38H48V48H0z" transform="translate(-597 -413) translate(372 106) translate(0 109) rotate(-180 136.5 123)"/>
                        <path fill="#57F" d="M25 0H48V37H25z" transform="translate(-597 -413) translate(372 106) translate(0 109) rotate(-180 136.5 123)"/>
                    </g>
                </g>
            </g>
        </g>
    </g>
</svg>
