<svg width="48" height="48" viewBox="0 0 48 48" fill="none" xmlns="http://www.w3.org/2000/svg">
<g clip-path="url(#clip0_3860_75943)">
<g clip-path="url(#clip1_3860_75943)">
<path d="M35 24H24V48H35V24Z" fill="url(#paint0_linear_3860_75943)"/>
<path d="M48 24H36V31H48V24Z" fill="url(#paint1_linear_3860_75943)"/>
<path d="M42 32H36V48H42V32Z" fill="url(#paint2_linear_3860_75943)"/>
<path d="M48 42H43V48H48V42Z" fill="url(#paint3_linear_3860_75943)"/>
<path d="M48 32H43V41H48V32Z" fill="url(#paint4_linear_3860_75943)"/>
<path d="M48 11H24V23H48V11Z" fill="url(#paint5_linear_3860_75943)"/>
<path d="M48 0H0V10H48V0Z" fill="url(#paint6_linear_3860_75943)"/>
<path d="M23 11H0V48H23V11Z" fill="url(#paint7_linear_3860_75943)"/>
</g>
</g>
<defs>
<linearGradient id="paint0_linear_3860_75943" x1="57.68" y1="40.53" x2="25.91" y2="35.42" gradientUnits="userSpaceOnUse">
<stop stop-color="#568E8B"/>
<stop offset="0.78" stop-color="#67F5ED"/>
</linearGradient>
<linearGradient id="paint1_linear_3860_75943" x1="42" y1="24" x2="42" y2="31" gradientUnits="userSpaceOnUse">
<stop stop-color="#6D63FF"/>
<stop offset="1" stop-color="#3B32C0"/>
</linearGradient>
<linearGradient id="paint2_linear_3860_75943" x1="36" y1="40.0762" x2="42" y2="40.0762" gradientUnits="userSpaceOnUse">
<stop stop-color="#A855F7"/>
<stop offset="0.526042" stop-color="#3B82F6"/>
<stop offset="1" stop-color="#14B8A6"/>
</linearGradient>
<linearGradient id="paint3_linear_3860_75943" x1="50.16" y1="45.06" x2="42.46" y2="44.96" gradientUnits="userSpaceOnUse">
<stop stop-color="#F059B4"/>
<stop offset="1" stop-color="#900C3F"/>
</linearGradient>
<linearGradient id="paint4_linear_3860_75943" x1="42.38" y1="38.975" x2="47.6569" y2="38.867" gradientUnits="userSpaceOnUse">
<stop stop-color="#FFBB9C"/>
<stop offset="1" stop-color="#F6D3D7"/>
</linearGradient>
<linearGradient id="paint5_linear_3860_75943" x1="17.904" y1="20.3" x2="44.0444" y2="18.2862" gradientUnits="userSpaceOnUse">
<stop stop-color="#F377B3"/>
<stop offset="1" stop-color="#FEB3DD"/>
</linearGradient>
<linearGradient id="paint6_linear_3860_75943" x1="64.18" y1="12.09" x2="-5.63" y2="-0.230003" gradientUnits="userSpaceOnUse">
<stop stop-color="#142850"/>
<stop offset="1" stop-color="#466AEC"/>
</linearGradient>
<linearGradient id="paint7_linear_3860_75943" x1="23" y1="29.5" x2="0" y2="29.5" gradientUnits="userSpaceOnUse">
<stop stop-color="#A855F7"/>
<stop offset="1" stop-color="#3B82F6"/>
</linearGradient>
<clipPath id="clip0_3860_75943">
<rect width="48" height="48" fill="white"/>
</clipPath>
<clipPath id="clip1_3860_75943">
<rect width="48" height="48" fill="white"/>
</clipPath>
</defs>
</svg>
