<svg width="48" height="48" viewBox="0 0 48 48" xmlns="http://www.w3.org/2000/svg">
    <g fill="none" fill-rule="evenodd">
        <path d="M0 0h48v48H0z"/>
        <path d="M29.813 9.547c3.947.213 7.467 1.76 10.347 4.32L29.813 24.32V9.547zM31.52 25.76h10.187c-.214-2.507-1.28-5.227-2.987-7.253l-7.2 7.253z" fill="#D3DCFF" fill-rule="nonzero"/>
        <path d="M40.96 37.44c2.293-2.667 3.68-5.92 3.893-9.493H31.52l9.44 9.493zM29.813 45.653c4.32-.266 8.16-1.866 11.307-4.746l-11.307-11.36v16.106z" fill="#7F98FE" fill-rule="nonzero"/>
        <path d="M27.68 48V29.547L14.72 42.613c3.573 3.254 8.267 5.12 12.96 5.387zM5.92 27.893a23.518 23.518 0 0 0 5.973 14.56l14.454-14.56H5.92z" fill="#D3DCFF" fill-rule="nonzero"/>
        <path d="M10.56 9.813C6.56 14.187 4.267 20 4 25.76h22.347L10.56 9.813zM27.68 0C21.6.267 15.307 2.773 10.613 7.147L27.68 24.32V0z" fill="#7F98FE" fill-rule="nonzero"/>
    </g>
</svg>
