<svg width="16" height="16" viewBox="0 0 16 16" fill="none" xmlns="http://www.w3.org/2000/svg">
<path fill-rule="evenodd" clip-rule="evenodd" d="M13.4917 4.15797L6.49159 11.1581C6.40338 11.2491 6.30093 11.3252 6.18825 11.3833L2.50852 12.3248L3.45587 8.64505C3.51218 8.53279 3.58625 8.43036 3.67521 8.34172L10.6753 1.34159C11.1309 0.886137 11.8694 0.886137 12.325 1.34159L13.4917 2.50828C13.9472 2.96387 13.9472 3.70238 13.4917 4.15797ZM1.58334 13.8333H14.4169C14.7391 13.8333 15.0002 14.0945 15.0002 14.4167C15.0002 14.7388 14.7391 15 14.4169 15H1.58334C1.26117 15 1 14.7388 1 14.4167C1 14.0945 1.26117 13.8333 1.58334 13.8333Z" fill="#5F6368"/>
</svg>
