<svg width="16" height="16" viewBox="0 0 16 16" fill="none" xmlns="http://www.w3.org/2000/svg">
<path d="M13.3286 3.73698H11.1971V3.2041C11.1971 2.78012 11.0287 2.3735 10.7289 2.0737C10.4291 1.7739 10.0225 1.60547 9.59847 1.60547H6.40121C5.97722 1.60547 5.5706 1.7739 5.2708 2.0737C4.971 2.3735 4.80257 2.78012 4.80257 3.2041V3.73698H2.67106C2.52973 3.73698 2.39419 3.79312 2.29426 3.89306C2.19433 3.99299 2.13818 4.12853 2.13818 4.26986C2.13818 4.41119 2.19433 4.54672 2.29426 4.64666C2.39419 4.74659 2.52973 4.80273 2.67106 4.80273H3.23271L3.68353 12.8849C3.7063 13.2933 3.88472 13.6774 4.18209 13.9582C4.47946 14.239 4.87316 14.3952 5.28216 14.3945H10.7218C11.1308 14.3952 11.5245 14.239 11.8218 13.9582C12.1192 13.6774 12.2976 13.2933 12.3204 12.8849L12.767 4.80273H13.3286C13.4699 4.80273 13.6055 4.74659 13.7054 4.64666C13.8054 4.54672 13.8615 4.41119 13.8615 4.26986C13.8615 4.12853 13.8054 3.99299 13.7054 3.89306C13.6055 3.79312 13.4699 3.73698 13.3286 3.73698ZM5.86833 3.2041C5.86833 3.06277 5.92447 2.92723 6.0244 2.8273C6.12434 2.72737 6.25988 2.67122 6.40121 2.67122H9.59847C9.7398 2.67122 9.87534 2.72737 9.97527 2.8273C10.0752 2.92723 10.1313 3.06277 10.1313 3.2041V3.73698H5.86833V3.2041ZM6.40121 10.6644C6.40121 10.8057 6.34506 10.9413 6.24513 11.0412C6.14519 11.1411 6.00966 11.1973 5.86833 11.1973C5.727 11.1973 5.59146 11.1411 5.49153 11.0412C5.39159 10.9413 5.33545 10.8057 5.33545 10.6644V7.46712C5.33545 7.3258 5.39159 7.19026 5.49153 7.09032C5.59146 6.99039 5.727 6.93425 5.86833 6.93425C6.00966 6.93425 6.14519 6.99039 6.24513 7.09032C6.34506 7.19026 6.40121 7.3258 6.40121 7.46712V10.6644ZM8.53272 10.6644C8.53272 10.8057 8.47657 10.9413 8.37664 11.0412C8.27671 11.1411 8.14117 11.1973 7.99984 11.1973C7.85851 11.1973 7.72297 11.1411 7.62304 11.0412C7.5231 10.9413 7.46696 10.8057 7.46696 10.6644V7.46712C7.46696 7.3258 7.5231 7.19026 7.62304 7.09032C7.72297 6.99039 7.85851 6.93425 7.99984 6.93425C8.14117 6.93425 8.27671 6.99039 8.37664 7.09032C8.47657 7.19026 8.53272 7.3258 8.53272 7.46712V10.6644ZM10.6642 10.6644C10.6642 10.8057 10.6081 10.9413 10.5082 11.0412C10.4082 11.1411 10.2727 11.1973 10.1313 11.1973C9.99002 11.1973 9.85448 11.1411 9.75455 11.0412C9.65461 10.9413 9.59847 10.8057 9.59847 10.6644V7.46712C9.59847 7.3258 9.65461 7.19026 9.75455 7.09032C9.85448 6.99039 9.99002 6.93425 10.1313 6.93425C10.2727 6.93425 10.4082 6.99039 10.5082 7.09032C10.6081 7.19026 10.6642 7.3258 10.6642 7.46712V10.6644Z" fill="#ED7547"/>
</svg>
