<svg width="16" height="16" viewBox="0 0 16 16" fill="none" xmlns="http://www.w3.org/2000/svg">
<g clip-path="url(#clip0)">
<path d="M2 4H14L14.5 7.5L13 11L8 12L3 11L1 7.5L2 4Z" fill="white"/>
<path d="M12.6862 4.655L15.1131 3.19885C15.2097 3.70972 15.3333 4.52154 15.3333 5.33337C15.3333 12 10.6666 16 9.33331 16L7.99998 14L6.66665 16C5.33332 16 0.666656 12 0.666656 5.33337C0.666656 4.52679 0.78864 3.7202 0.885022 3.20879L3.27706 4.67391C2.31983 5.17511 1.66666 6.17796 1.66666 7.33337C1.66666 8.99022 3.0098 10.3334 4.66665 10.3334C5.48275 10.3334 6.22273 10.0075 6.76359 9.47879L7.99998 11.3334L9.23637 9.47879C9.77723 10.0075 10.5172 10.3334 11.3333 10.3334C12.9902 10.3334 14.3333 8.99022 14.3333 7.33337C14.3333 6.16323 13.6634 5.14957 12.6862 4.655Z" fill="#354BBB"/>
<path d="M4.38598 6.02955L3.3842 5.38367C2.75109 5.80095 2.33328 6.51833 2.33328 7.3333C2.33328 8.62196 3.37795 9.66663 4.66661 9.66663C5.63489 9.66663 6.46542 9.07683 6.81853 8.2369C6.57741 7.87987 6.30224 7.54706 5.99694 7.24316C5.99893 7.27295 5.99994 7.30301 5.99994 7.3333C5.99994 8.06968 5.40299 8.66663 4.66661 8.66663C3.93023 8.66663 3.33328 8.06968 3.33328 7.3333C3.33328 6.69319 3.78435 6.15843 4.38598 6.02955Z" fill="#4A64E8"/>
<path d="M9.16931 8.20756C9.51526 9.06309 10.3538 9.66667 11.3333 9.66667C12.622 9.66667 13.6667 8.622 13.6667 7.33334C13.6667 6.50498 13.235 5.77745 12.5844 5.36339L11.5489 6.01735C12.1828 6.1204 12.6667 6.67036 12.6667 7.33334C12.6667 8.06972 12.0697 8.66667 11.3333 8.66667C10.597 8.66667 10 8.06972 10 7.33334C10 7.28262 10.0028 7.23256 10.0084 7.18331C9.69545 7.49597 9.41435 7.83909 9.16931 8.20756Z" fill="#4A64E8"/>
<path d="M3.67101 4.91518L-3.05176e-05 2.66667L7.99995 7.62939e-06L15.9999 2.66667L12.4118 4.81957C10.4146 6.01788 8.86496 7.83748 7.99995 9.99999C7.13363 7.88831 5.6174 6.10735 3.67101 4.91518Z" fill="#4A64E8"/>
</g>
<defs>
<clipPath id="clip0">
<rect width="16" height="16" fill="white"/>
</clipPath>
</defs>
</svg>
