<svg width="512" height="512" viewBox="0 0 512 512" fill="none" xmlns="http://www.w3.org/2000/svg">
<path d="M92.7896 169.79H0V77L92.7896 169.79Z" fill="#597FFF"/>
<path d="M419.21 169.79L256.829 330.515L94.4467 169.79H419.21Z" fill="#597FFF"/>
<path d="M419.21 169.79H512V77L419.21 169.79Z" fill="#597FFF"/>
<path d="M321.45 434.903L255.201 370.282L188.893 434.903H321.45Z" fill="#597FFF"/>
<path d="M372.609 375.252C345.481 375.323 319.396 364.849 299.909 346.06L320.036 325.62C334.509 339.509 353.93 347.105 374.029 346.738C394.127 346.371 413.255 338.07 427.206 323.663C441.157 309.255 448.788 289.92 448.419 269.912C448.05 249.903 439.712 230.86 425.24 216.971L445.309 196.301C460.29 210.716 470.604 229.259 474.928 249.549C479.251 269.84 477.388 290.954 469.576 310.183C461.764 329.412 448.36 345.879 431.083 357.473C413.806 369.066 393.444 375.257 372.609 375.252V375.252Z" fill="#597FFF"/>
<path d="M403.254 296.932C410.459 289.393 414.408 279.272 414.234 268.791C414.06 258.311 409.777 248.329 402.327 241.039L347.961 297.869C355.419 305.152 365.432 309.144 375.799 308.969C386.167 308.793 396.042 304.464 403.254 296.932Z" fill="#597FFF"/>
<path d="M144.336 375.252C123.632 375.219 103.402 369.046 86.2014 357.513C69.0012 345.979 55.6028 329.603 47.6989 310.454C39.7951 291.304 37.7404 270.24 41.7944 249.922C45.8483 229.605 55.8292 210.945 70.4759 196.301L90.9831 216.822C80.3975 227.412 73.1836 240.903 70.2515 255.591C67.3194 270.28 68.8004 285.508 74.5077 299.355C80.2151 313.202 89.893 325.047 102.32 333.396C114.748 341.746 129.368 346.224 144.336 346.268V346.268C154.34 346.333 164.256 344.403 173.506 340.591C182.757 336.779 191.155 331.161 198.211 324.065L218.718 344.529C209.006 354.29 197.459 362.031 184.742 367.304C172.026 372.577 158.391 375.278 144.626 375.252H144.336Z" fill="#597FFF"/>
<path d="M115.777 295.948C112.167 292.346 109.303 288.067 107.349 283.356C105.394 278.645 104.388 273.594 104.388 268.494C104.388 263.393 105.394 258.342 107.349 253.631C109.303 248.92 112.167 244.641 115.777 241.039L170.667 295.948C163.387 303.228 153.515 307.317 143.222 307.317C132.929 307.317 123.057 303.228 115.777 295.948Z" fill="#597FFF"/>
</svg>
