<svg width="32" height="32" xmlns="http://www.w3.org/2000/svg">
    <g fill-rule="nonzero" fill="none">
        <circle fill="#55ACEE" cx="15.886" cy="15.886" r="15.886"/>
        <path d="M25.617 11.417a7.576 7.576 0 0 1-2.181.597 3.808 3.808 0 0 0 1.67-2.1 7.602 7.602 0 0 1-2.411.921 3.798 3.798 0 0 0-6.47 3.464 10.78 10.78 0 0 1-7.828-3.968 3.797 3.797 0 0 0 1.175 5.07 3.77 3.77 0 0 1-1.72-.476v.048a3.8 3.8 0 0 0 3.046 3.723 3.784 3.784 0 0 1-1.715.066A3.801 3.801 0 0 0 12.73 21.4a7.619 7.619 0 0 1-5.621 1.572 10.74 10.74 0 0 0 5.82 1.707c6.984 0 10.804-5.786 10.804-10.805 0-.164-.004-.328-.011-.49a7.7 7.7 0 0 0 1.895-1.966z" fill="#FFF"/>
    </g>
</svg>
