<svg width="48" height="48" xmlns="http://www.w3.org/2000/svg">
    <g fill="none" fill-rule="evenodd">
        <rect width="48" height="48" rx="2"/>
        <path d="M24 7.871a23.91 23.91 0 0 1 15.975 6.089c4.833 4.313 7.909 10.554 8.022 17.514l.003.397H37.161c0-3.597-1.443-6.858-3.782-9.233A13.121 13.121 0 0 0 24 18.71a13.12 13.12 0 0 0-9.265 3.814 13.12 13.12 0 0 0-3.894 9.097l-.002.25H0c0-7.037 3.029-13.367 7.854-17.757A23.913 23.913 0 0 1 24 7.871z" fill="#979797" fill-rule="nonzero"/>
        <path d="M33.38 22.638A13.121 13.121 0 0 0 24 18.71a13.12 13.12 0 0 0-9.265 3.814 13.12 13.12 0 0 0-3.894 9.097l-.002.25H0c0-7.037 3.029-13.367 7.854-17.757A23.913 23.913 0 0 1 24 7.871a23.91 23.91 0 0 1 15.975 6.089l-6.596 8.678z" fill="#57F"/>
        <path d="M5.941 40.06c.388 0 .698-.11.93-.33.232-.22.348-.514.348-.882v-1.896c0-.364-.116-.656-.348-.876-.232-.22-.542-.33-.93-.33-.384 0-.69.109-.918.327-.228.218-.342.511-.342.879v1.896c0 .368.114.662.342.882.228.22.534.33.918.33zm0-.372c-.252 0-.454-.074-.606-.222-.152-.148-.228-.346-.228-.594v-1.938c0-.244.076-.44.228-.588.152-.148.354-.222.606-.222.26 0 .467.074.621.222a.778.778 0 0 1 .231.588v1.938c0 .248-.078.446-.234.594-.156.148-.362.222-.618.222zM39.892 40c.04 0 .06-.02.06-.06v-4.08c0-.04-.02-.06-.06-.06h-.324a.172.172 0 0 0-.078.018l-.69.366c-.028.02-.042.04-.042.06v.012l.03.228c.008.032.024.048.048.048l.024-.006.636-.258c.008-.004.015-.004.021 0a.02.02 0 0 1 .009.018v3.654c0 .04.02.06.06.06h.306zm2.404.06c.388 0 .698-.11.93-.33.232-.22.348-.514.348-.882v-1.896c0-.364-.116-.656-.348-.876-.232-.22-.542-.33-.93-.33-.384 0-.69.109-.918.327-.228.218-.342.511-.342.879v1.896c0 .368.114.662.342.882.228.22.534.33.918.33zm0-.372c-.252 0-.454-.074-.606-.222-.152-.148-.228-.346-.228-.594v-1.938c0-.244.076-.44.228-.588.152-.148.354-.222.606-.222.26 0 .467.074.621.222a.778.778 0 0 1 .231.588v1.938c0 .248-.078.446-.234.594-.156.148-.362.222-.618.222zm3.49.372c.388 0 .698-.11.93-.33.232-.22.348-.514.348-.882v-1.896c0-.364-.116-.656-.348-.876-.232-.22-.542-.33-.93-.33-.384 0-.69.109-.918.327-.228.218-.342.511-.342.879v1.896c0 .368.114.662.342.882.228.22.534.33.918.33zm0-.372c-.252 0-.454-.074-.606-.222-.152-.148-.228-.346-.228-.594v-1.938c0-.244.076-.44.228-.588.152-.148.354-.222.606-.222.26 0 .467.074.621.222a.778.778 0 0 1 .231.588v1.938c0 .248-.078.446-.234.594-.156.148-.362.222-.618.222zM18.264 32.056c.4 0 .747-.09 1.04-.272.293-.181.51-.43.648-.744.101-.245.152-.523.152-.832 0-.373-.064-.68-.192-.92a1.529 1.529 0 0 0-.596-.636 1.685 1.685 0 0 0-.86-.22c-.363 0-.653.093-.872.28-.01.01-.021.015-.032.012-.01-.003-.016-.012-.016-.028v-.752c0-.187.063-.34.188-.46a.671.671 0 0 1 .484-.18c.187 0 .339.059.456.176a.597.597 0 0 1 .176.44v.072c0 .027.01.05.028.068a.093.093 0 0 0 .068.028h.936c.027 0 .05-.01.068-.028a.093.093 0 0 0 .028-.068v-.224a1.3 1.3 0 0 0-.22-.748 1.444 1.444 0 0 0-.62-.504 2.221 2.221 0 0 0-.92-.18c-.352 0-.664.06-.936.18a1.47 1.47 0 0 0-.636.512 1.317 1.317 0 0 0-.228.764V30.2c0 .288.048.55.144.784.133.336.35.599.648.788.299.19.653.284 1.064.284zm-.008-.976c-.288 0-.49-.117-.608-.352a1.048 1.048 0 0 1-.104-.488c0-.219.04-.397.12-.536.112-.219.312-.328.6-.328.256 0 .45.107.584.32a.993.993 0 0 1 .128.528c0 .197-.04.365-.12.504-.123.235-.323.352-.6.352zm4.517 1.008c.587 0 1.052-.164 1.396-.492.344-.328.516-.775.516-1.34v-2.112c0-.555-.172-.995-.516-1.32-.344-.325-.809-.488-1.396-.488-.586 0-1.05.163-1.392.488-.341.325-.512.765-.512 1.32v2.112c0 .565.171 1.012.512 1.34.342.328.806.492 1.392.492zm0-.968a.747.747 0 0 1-.564-.22c-.141-.147-.212-.343-.212-.588v-2.2c0-.245.071-.441.212-.588a.747.747 0 0 1 .564-.22c.24 0 .431.073.572.22.142.147.212.343.212.588v2.2c0 .245-.07.441-.212.588-.141.147-.332.22-.572.22zm4.19-2.264a1.253 1.253 0 0 0 1.264-1.264c0-.23-.058-.44-.172-.632a1.31 1.31 0 0 0-.46-.46 1.21 1.21 0 0 0-.632-.172c-.235 0-.45.057-.644.172a1.3 1.3 0 0 0-.464.46 1.21 1.21 0 0 0-.172.632 1.259 1.259 0 0 0 .636 1.096c.194.112.409.168.644.168zM27.25 32a.132.132 0 0 0 .12-.064l3.008-5.424c.016-.032.018-.059.008-.08-.011-.021-.035-.032-.072-.032h-.592a.132.132 0 0 0-.12.064l-3.016 5.424c-.016.032-.019.059-.008.08.01.021.034.032.072.032h.6zm-.288-3.8a.587.587 0 0 1-.432-.176.587.587 0 0 1-.176-.432c0-.165.058-.307.176-.424a.587.587 0 0 1 .432-.176c.165 0 .305.059.42.176a.585.585 0 0 1 .172.424c0 .17-.058.315-.172.432a.565.565 0 0 1-.42.176zm3.12 3.872c.229 0 .441-.057.636-.172.194-.115.349-.27.464-.464a1.23 1.23 0 0 0 .172-.636c0-.23-.058-.44-.172-.632a1.268 1.268 0 0 0-1.1-.624 1.268 1.268 0 0 0-1.1.624 1.21 1.21 0 0 0-.172.632c0 .23.057.441.172.636.114.195.269.35.464.464.194.115.406.172.636.172zm0-.664a.594.594 0 0 1-.6-.608c0-.17.058-.313.176-.428a.585.585 0 0 1 .424-.172c.165 0 .306.059.424.176a.578.578 0 0 1 .176.424c0 .17-.059.315-.176.432a.578.578 0 0 1-.424.176z" fill="#57F" fill-rule="nonzero"/>
    </g>
</svg>
