<svg width="48" height="49" xmlns="http://www.w3.org/2000/svg">
    <defs>
        <linearGradient x1="50%" y1="0%" x2="50%" y2="100%" id="a">
            <stop stop-color="#8CA3FF" offset="0%"/>
            <stop stop-color="#2F59FF" offset="100%"/>
        </linearGradient>
        <linearGradient x1="27.938%" y1="50%" x2="100%" y2="50%" id="b">
            <stop stop-color="#7591FF" offset="0%"/>
            <stop stop-color="#2F59FF" offset="100%"/>
        </linearGradient>
        <linearGradient x1="50%" y1="0%" x2="50%" y2="100%" id="c">
            <stop stop-color="#315AFF" offset="0%"/>
            <stop stop-color="#2F59FF" offset="100%"/>
        </linearGradient>
        <linearGradient x1="50%" y1="0%" x2="50%" y2="66.949%" id="d">
            <stop stop-color="#2450FF" offset="0%"/>
            <stop stop-color="#6A88FF" offset="100%"/>
        </linearGradient>
        <linearGradient x1="50%" y1="0%" x2="50%" y2="66.949%" id="e">
            <stop stop-color="#2652FF" offset="0%"/>
            <stop stop-color="#7893FF" offset="100%"/>
        </linearGradient>
    </defs>
    <g fill="none" fill-rule="evenodd">
        <path d="M0 .412h48v48H0z"/>
        <path fill="#57F" d="M0 .412h48v48H0z"/>
        <path d="M15.636 16.707v6.732H1v-6.732h14.636zm0-7.853v6.731H1V8.854h14.636zm0-7.854v6.732H1V1h14.636z" fill="url(#a)" transform="translate(0 .412)"/>
        <path d="M31.318 1v6.732H16.682V1h14.636zM47 1v6.732H32.364V1H47z" fill="url(#b)" transform="translate(0 .412)"/>
        <path d="M15.636 24.561v6.732H1V24.56h14.636zm15.682 0v6.732H16.682V24.56h14.636zm0-7.854v6.732H16.682v-6.732h14.636z" fill="url(#c)" transform="translate(0 .412)"/>
        <path d="M31.318 40.268V47H16.682v-6.732h14.636zm15.682 0V47H32.364v-6.732H47zm-15.682-7.853v6.731H16.682v-6.731h14.636zm15.682 0v6.731H32.364v-6.731H47zm0-7.854v6.732H32.364V24.56H47zm0-7.854v6.732H32.364v-6.732H47zM31.318 8.854v6.731H16.682V8.854h14.636zm15.682 0v6.731H32.364V8.854H47z" fill="url(#d)" transform="translate(0 .412)"/>
        <path d="M15.636 40.268V47H1v-6.732h14.636zm0-7.853v6.731H1v-6.731h14.636z" fill="url(#e)" transform="translate(0 .412)"/>
    </g>
</svg>
