<svg width="48" height="48" xmlns="http://www.w3.org/2000/svg">
    <g fill="none" fill-rule="evenodd">
        <path d="M0 0h48v48H0z"/>
        <path d="M27 22.609V39h-6V22.609h6zM34 29v10h-6V29h6zm7 5v5h-6v-5h6zM20 16.304V39h-6V16.304h6zM13 10v29H7V10h6z" fill="#57F"/>
        <path d="M1 3a1 1 0 0 1 .993.883L2 4v38h44a1 1 0 0 1 .993.883L47 43a1 1 0 0 1-.883.993L46 44H1a1 1 0 0 1-.993-.883L0 43V4a1 1 0 0 1 1-1z" fill="#9799AE" fill-rule="nonzero"/>
        <path d="M24.875 5.797c4.793-2.144 11.082-2.966 18.87-2.478l.69.047-.07.997c-7.957-.57-14.318.216-19.081 2.347-4.609 2.061-9.388 5.206-14.336 9.437l-.62.534-.656-.754c5.24-4.562 10.306-7.94 15.203-10.13z" fill="#B7C5FF"/>
    </g>
</svg>
