<svg xmlns="http://www.w3.org/2000/svg" width="48" height="48" viewBox="0 0 48 48">
    <g fill="none" fill-rule="evenodd">
        <g>
            <g>
                <g>
                    <g>
                        <g>
                            <path d="M0 0H48V48H0z" opacity=".1" transform="translate(-739 -546) translate(372 106) translate(0 109) translate(332 307) translate(35 24)"/>
                            <path fill="#57F" fill-rule="nonzero" d="M11.884 32.903c.77 0 1.393.613 1.393 1.37 0 .757-.624 1.37-1.393 1.37-.77 0-1.394-.613-1.394-1.37 0-.757.624-1.37 1.394-1.37zM8.38 32.9c.77 0 1.394.614 1.394 1.37 0 .757-.624 1.37-1.394 1.37-.77 0-1.394-.613-1.394-1.37 0-.756.624-1.37 1.394-1.37zM4.885 32.9c.77 0 1.394.613 1.394 1.37 0 .757-.624 1.37-1.394 1.37-.77 0-1.394-.613-1.394-1.37 0-.757.625-1.37 1.394-1.37zm-3.491-.002c.77 0 1.394.614 1.394 1.37 0 .758-.624 1.371-1.394 1.371-.77 0-1.394-.613-1.394-1.37 0-.757.624-1.37 1.394-1.37zm.662-4.143c.77 0 1.394.613 1.394 1.37 0 .757-.624 1.37-1.394 1.37-.77 0-1.394-.613-1.394-1.37 0-.757.624-1.37 1.394-1.37zm3.653-.113c.77 0 1.394.614 1.394 1.37 0 .757-.624 1.37-1.394 1.37-.77 0-1.394-.613-1.394-1.37 0-.756.624-1.37 1.394-1.37zm3.76-.167c.769 0 1.393.614 1.393 1.37 0 .757-.624 1.37-1.394 1.37-.77 0-1.394-.613-1.394-1.37 0-.756.624-1.37 1.394-1.37zm4.01-.271c.77 0 1.394.613 1.394 1.37 0 .757-.624 1.37-1.393 1.37-.77 0-1.394-.613-1.394-1.37 0-.757.624-1.37 1.394-1.37zm-9.982-3.397c.77 0 1.394.613 1.394 1.37 0 .757-.624 1.37-1.394 1.37-.77 0-1.394-.613-1.394-1.37 0-.757.624-1.37 1.394-1.37zm4.003-.123c.77 0 1.394.613 1.394 1.37 0 .757-.624 1.37-1.394 1.37-.77 0-1.394-.613-1.394-1.37 0-.757.624-1.37 1.394-1.37zm4.324-.13c.77 0 1.393.614 1.393 1.371s-.624 1.37-1.393 1.37c-.77 0-1.394-.613-1.394-1.37 0-.757.624-1.37 1.394-1.37zm5.047-.014c.77 0 1.393.613 1.393 1.37 0 .757-.624 1.37-1.393 1.37-.77 0-1.394-.613-1.394-1.37 0-.757.624-1.37 1.394-1.37zm-1.631-3.058c.77 0 1.394.614 1.394 1.37 0 .758-.624 1.371-1.394 1.371-.77 0-1.394-.613-1.394-1.37 0-.757.624-1.37 1.394-1.37zm-5.076-.252c.77 0 1.393.614 1.393 1.37 0 .757-.624 1.37-1.393 1.37-.77 0-1.394-.613-1.394-1.37 0-.756.624-1.37 1.394-1.37zm-4.498-.037c.77 0 1.394.614 1.394 1.37 0 .757-.624 1.371-1.394 1.371-.77 0-1.394-.614-1.394-1.37 0-.757.624-1.37 1.394-1.37zm13.754-1.669c.77 0 1.394.614 1.394 1.37 0 .757-.624 1.37-1.394 1.37-.77 0-1.394-.613-1.394-1.37 0-.756.624-1.37 1.394-1.37zm-5.862-1.056c.77 0 1.393.613 1.393 1.37 0 .757-.624 1.37-1.393 1.37-.77 0-1.394-.613-1.394-1.37 0-.757.624-1.37 1.394-1.37zm-5.074-.422c.77 0 1.394.613 1.394 1.37 0 .757-.624 1.37-1.394 1.37-.77 0-1.394-.613-1.394-1.37 0-.757.624-1.37 1.394-1.37zm9.02-1.505c.77 0 1.395.614 1.395 1.37 0 .757-.624 1.37-1.394 1.37-.77 0-1.394-.613-1.394-1.37 0-.756.624-1.37 1.394-1.37zm-5.65-1.069c.77 0 1.394.614 1.394 1.37 0 .757-.624 1.37-1.394 1.37-.77 0-1.393-.613-1.393-1.37 0-.756.624-1.37 1.393-1.37zm3.801-1.906c.77 0 1.394.614 1.394 1.37 0 .757-.624 1.37-1.394 1.37-.77 0-1.394-.613-1.394-1.37 0-.756.624-1.37 1.394-1.37z" transform="translate(-739 -546) translate(372 106) translate(0 109) translate(332 307) translate(35 24)"/>
                            <path fill="#B7C5FF" fill-rule="nonzero" d="M21.48 22.536c.77 0 1.394.614 1.394 1.37 0 .757-.624 1.37-1.394 1.37-.77 0-1.394-.613-1.394-1.37 0-.756.624-1.37 1.394-1.37zm5.04 0c.77 0 1.394.614 1.394 1.37 0 .757-.624 1.37-1.394 1.37-.77 0-1.394-.613-1.394-1.37 0-.756.624-1.37 1.394-1.37zm6.24-1.054c.77 0 1.394.614 1.394 1.37 0 .758-.624 1.371-1.394 1.371-.77 0-1.394-.613-1.394-1.37 0-.757.624-1.37 1.394-1.37zm-4.18-1.958c.77 0 1.394.614 1.394 1.37 0 .757-.624 1.37-1.394 1.37-.77 0-1.394-.613-1.394-1.37 0-.756.624-1.37 1.394-1.37zM24 18.852c.77 0 1.394.613 1.394 1.37 0 .757-.624 1.37-1.394 1.37-.77 0-1.394-.613-1.394-1.37 0-.757.624-1.37 1.394-1.37zm10.442-.384c.77 0 1.394.613 1.394 1.37 0 .757-.624 1.37-1.394 1.37-.77 0-1.393-.613-1.393-1.37 0-.757.624-1.37 1.393-1.37zm-3.947-1.927c.77 0 1.394.614 1.394 1.37 0 .757-.624 1.37-1.394 1.37-.77 0-1.394-.613-1.394-1.37 0-.756.624-1.37 1.394-1.37zm-8.699-.99c.77 0 1.394.613 1.394 1.37 0 .757-.624 1.37-1.394 1.37-.77 0-1.393-.613-1.393-1.37 0-.757.624-1.37 1.393-1.37zm4.408 0c.77 0 1.393.613 1.393 1.37 0 .757-.624 1.37-1.393 1.37-.77 0-1.394-.613-1.394-1.37 0-.757.624-1.37 1.394-1.37zm9.942-.079c.77 0 1.393.614 1.393 1.37 0 .757-.624 1.37-1.393 1.37-.77 0-1.394-.613-1.394-1.37 0-.756.624-1.37 1.394-1.37zm-3.801-1.906c.77 0 1.394.614 1.394 1.37 0 .757-.624 1.37-1.394 1.37-.77 0-1.394-.613-1.394-1.37 0-.756.624-1.37 1.394-1.37zm-12.593-1.171c.77 0 1.393.613 1.393 1.37 0 .757-.624 1.37-1.393 1.37-.77 0-1.394-.613-1.394-1.37 0-.757.624-1.37 1.394-1.37zm8.496 0c.77 0 1.394.613 1.394 1.37 0 .757-.624 1.37-1.394 1.37-.77 0-1.393-.613-1.393-1.37 0-.757.624-1.37 1.393-1.37zM24 12c.77 0 1.394.614 1.394 1.37 0 .757-.624 1.37-1.394 1.37-.77 0-1.394-.613-1.394-1.37 0-.756.624-1.37 1.394-1.37z" transform="translate(-739 -546) translate(372 106) translate(0 109) translate(332 307) translate(35 24)"/>
                            <path fill="#7F98FE" fill-rule="nonzero" d="M36.116 32.903c.77 0 1.394.613 1.394 1.37 0 .757-.624 1.37-1.394 1.37-.77 0-1.393-.613-1.393-1.37 0-.757.624-1.37 1.393-1.37zm3.503-.002c.77 0 1.394.614 1.394 1.37 0 .757-.624 1.37-1.394 1.37-.77 0-1.394-.613-1.394-1.37 0-.756.624-1.37 1.394-1.37zm3.496-.001c.77 0 1.394.613 1.394 1.37 0 .757-.625 1.37-1.394 1.37-.77 0-1.394-.613-1.394-1.37 0-.757.624-1.37 1.394-1.37zm3.491-.002c.77 0 1.394.614 1.394 1.37 0 .758-.624 1.371-1.394 1.371-.77 0-1.394-.613-1.394-1.37 0-.757.624-1.37 1.394-1.37zm-.662-4.143c.77 0 1.394.613 1.394 1.37 0 .757-.624 1.37-1.394 1.37-.77 0-1.394-.613-1.394-1.37 0-.757.624-1.37 1.394-1.37zm-3.653-.113c.77 0 1.394.614 1.394 1.37 0 .757-.624 1.37-1.394 1.37-.77 0-1.394-.613-1.394-1.37 0-.756.624-1.37 1.394-1.37zm-3.76-.167c.77 0 1.395.614 1.395 1.37 0 .757-.624 1.37-1.394 1.37-.77 0-1.394-.613-1.394-1.37 0-.756.624-1.37 1.394-1.37zm-4.01-.271c.77 0 1.393.613 1.393 1.37 0 .757-.624 1.37-1.394 1.37-.77 0-1.393-.613-1.393-1.37 0-.757.624-1.37 1.393-1.37zm9.982-3.397c.77 0 1.394.613 1.394 1.37 0 .757-.624 1.37-1.394 1.37-.77 0-1.394-.613-1.394-1.37 0-.757.624-1.37 1.394-1.37zm-4.003-.123c.77 0 1.394.613 1.394 1.37 0 .757-.624 1.37-1.394 1.37-.77 0-1.394-.613-1.394-1.37 0-.757.624-1.37 1.394-1.37zm-4.324-.13c.77 0 1.394.614 1.394 1.371s-.624 1.37-1.394 1.37c-.77 0-1.393-.613-1.393-1.37 0-.757.624-1.37 1.393-1.37zm-5.047-.014c.77 0 1.394.613 1.394 1.37 0 .757-.624 1.37-1.394 1.37-.77 0-1.393-.613-1.393-1.37 0-.757.624-1.37 1.393-1.37zm6.707-3.31c.77 0 1.394.614 1.394 1.37 0 .757-.624 1.37-1.394 1.37-.77 0-1.393-.613-1.393-1.37 0-.756.624-1.37 1.393-1.37zm4.498-.037c.77 0 1.394.614 1.394 1.37 0 .757-.624 1.371-1.394 1.371-.77 0-1.394-.614-1.394-1.37 0-.757.624-1.37 1.394-1.37zm-2.818-3.147c.77 0 1.394.613 1.394 1.37 0 .757-.624 1.37-1.394 1.37-.77 0-1.394-.613-1.394-1.37 0-.757.624-1.37 1.394-1.37z" transform="translate(-739 -546) translate(372 106) translate(0 109) translate(332 307) translate(35 24)"/>
                        </g>
                    </g>
                </g>
            </g>
        </g>
    </g>
</svg>
