<svg xmlns="http://www.w3.org/2000/svg" width="48" height="48" viewBox="0 0 48 48">
    <g fill="none" fill-rule="evenodd">
        <g>
            <g>
                <g>
                    <g>
                        <g>
                            <path d="M0 0H48V48H0z" transform="translate(-739 -413) translate(372 106) translate(0 109) translate(332 174) translate(35 24)"/>
                            <path fill="#FF9452" d="M26.5 6h-5C20 6 19 6.825 19 8.063v28.874C19 38.175 20 39 21.5 39h5c1.5 0 2.5-.825 2.5-2.063V8.064C29 6.825 28 6 26.5 6z" transform="translate(-739 -413) translate(372 106) translate(0 109) translate(332 174) translate(35 24)"/>
                            <path fill="#7F98FE" d="M15 29v10H5V29h10zm29 2.727V39H34v-7.273h10zm-15-8.182V39H19V23.545h10z" transform="translate(-739 -413) translate(372 106) translate(0 109) translate(332 174) translate(35 24)"/>
                            <path fill="#57F" d="M44 27.364v4.363H34v-4.363h10zM15 23v6H5v-6h10zm14-8.727v9.272H19v-9.272h10z" transform="translate(-739 -413) translate(372 106) translate(0 109) translate(332 174) translate(35 24)"/>
                            <path fill="#B7C5FF" d="M44 23v4.364H34V23h10zm-29-6v6H5v-6h10zM29 5v9.273H19V5h10z" transform="translate(-739 -413) translate(372 106) translate(0 109) translate(332 174) translate(35 24)"/>
                            <path fill="#9799AE" fill-rule="nonzero" d="M1 3c.513 0 .936.386.993.883L2 4v38h44c.513 0 .936.386.993.883L47 43c0 .513-.386.936-.883.993L46 44H1c-.513 0-.936-.386-.993-.883L0 43V4c0-.552.448-1 1-1z" transform="translate(-739 -413) translate(372 106) translate(0 109) translate(332 174) translate(35 24)"/>
                        </g>
                    </g>
                </g>
            </g>
        </g>
    </g>
</svg>
