<svg width="48" height="48" xmlns="http://www.w3.org/2000/svg">
    <g fill="none" fill-rule="evenodd">
        <rect width="48" height="48" rx="2"/>
        <path d="M16.297 32.42c.621 0 1.167-.116 1.639-.35a2.628 2.628 0 0 0 1.1-.992c.263-.427.394-.919.394-1.475a.109.109 0 0 0-.043-.085.153.153 0 0 0-.103-.036l-1.415-.06c-.096 0-.145.044-.145.132 0 .42-.13.758-.393 1.016-.262.258-.606.387-1.034.387-.435 0-.784-.129-1.046-.387s-.393-.596-.393-1.016V26.64c0-.428.131-.77.393-1.028s.61-.387 1.046-.387c.428 0 .772.129 1.034.387s.393.6.393 1.028c0 .088.04.133.121.133h.024l1.415-.085c.097-.016.146-.06.146-.133 0-.556-.131-1.046-.394-1.47a2.601 2.601 0 0 0-1.1-.979c-.472-.23-1.018-.345-1.639-.345-.629 0-1.18.121-1.657.363a2.61 2.61 0 0 0-1.1 1.028c-.258.444-.387.956-.387 1.536v2.794c0 .58.129 1.092.387 1.536.258.443.625.788 1.1 1.034.476.246 1.028.368 1.657.368zm6.031-.096a.14.14 0 0 0 .103-.043.14.14 0 0 0 .042-.102v-8.176a.14.14 0 0 0-.042-.102.14.14 0 0 0-.103-.043h-1.415a.14.14 0 0 0-.103.043.14.14 0 0 0-.042.102v8.176c0 .04.014.074.042.102a.14.14 0 0 0 .103.043h1.415zm4.338.096c.677 0 1.255-.179 1.735-.538.48-.358.808-.852.986-1.481a4.26 4.26 0 0 0 .169-1.222c0-.443-.065-.866-.194-1.27-.193-.596-.524-1.062-.991-1.396-.468-.335-1.032-.502-1.693-.502-.678 0-1.258.17-1.742.508a2.599 2.599 0 0 0-1.004 1.403c-.112.379-.169.806-.169 1.282 0 .443.057.854.17 1.233.177.613.507 1.097.991 1.451.484.355 1.064.532 1.742.532zm0-1.463c-.275 0-.506-.08-.696-.242a1.324 1.324 0 0 1-.405-.665c-.056-.201-.085-.484-.085-.846 0-.38.033-.666.097-.86.08-.273.212-.487.393-.64.182-.153.41-.23.683-.23.266 0 .492.077.678.23.185.153.322.367.41.64.065.235.098.52.098.86 0 .306-.033.588-.097.846-.08.282-.214.504-.4.665a.996.996 0 0 1-.676.242zm6.248 1.451c.677 0 1.177-.217 1.5-.653.016-.024.032-.034.048-.03.016.004.024.018.024.042v.412c0 .04.014.074.042.102a.14.14 0 0 0 .103.043h1.415a.14.14 0 0 0 .103-.043.14.14 0 0 0 .042-.102v-5.926a.14.14 0 0 0-.042-.103.14.14 0 0 0-.103-.042h-1.415a.14.14 0 0 0-.103.042.14.14 0 0 0-.042.103v3.81c-.04.265-.15.48-.326.646a.954.954 0 0 1-.678.248c-.306 0-.546-.1-.72-.302-.173-.202-.26-.464-.26-.786v-3.616a.14.14 0 0 0-.042-.103.14.14 0 0 0-.102-.042h-1.403a.14.14 0 0 0-.103.042.14.14 0 0 0-.042.103v4.039c0 .67.197 1.19.592 1.56.395.37.9.556 1.512.556zm7.131.012c.589 0 1.052-.221 1.39-.665.017-.016.033-.022.05-.018.015.004.023.018.023.042v.4c0 .04.014.074.043.102a.14.14 0 0 0 .103.043h1.414a.14.14 0 0 0 .103-.043.14.14 0 0 0 .043-.102v-8.176a.14.14 0 0 0-.043-.102.14.14 0 0 0-.103-.043h-1.414a.14.14 0 0 0-.103.043.14.14 0 0 0-.043.102v2.588c0 .025-.008.04-.024.049-.016.008-.032 0-.048-.024-.323-.404-.774-.605-1.355-.605-.588 0-1.082.151-1.481.453a2.6 2.6 0 0 0-.877 1.228c-.145.427-.218.927-.218 1.5 0 .556.069 1.044.206 1.463.177.548.47.98.877 1.294.407.314.893.471 1.457.471zm.363-1.463c-.395 0-.693-.173-.895-.52-.17-.322-.254-.726-.254-1.21 0-.54.1-.967.302-1.281.194-.315.48-.472.859-.472.355 0 .625.157.81.472.178.306.266.73.266 1.27 0 .516-.08.923-.242 1.221-.201.347-.483.52-.846.52z" fill="#7F98FE"/>
        <path d="M32.92 20.364c.013 0 .02-.007.02-.02v-1.319c0-.012-.007-.019-.02-.019h-.099c-.013 0-.02.007-.02.02v1.318c0 .013.007.02.02.02h.099zm.827 0c.013 0 .02-.007.02-.02v-1.208c0-.005.002-.008.008-.008h.38c.013 0 .02-.006.02-.02v-.083c0-.012-.007-.019-.02-.019h-.898c-.013 0-.02.007-.02.02v.083c0 .013.007.02.02.02h.364c.006 0 .008.002.008.007v1.208c0 .013.007.02.02.02h.098z" fill="#57F"/>
        <path d="M34.497 37.818c.011 0 .019-.005.023-.015l.077-.245c.002-.004.004-.006.008-.006h.58c.004 0 .007.002.008.006l.077.245c.004.01.012.015.024.015h.104c.012 0 .018-.004.018-.013l-.002-.008-.43-1.32c-.004-.011-.012-.016-.024-.016h-.132c-.011 0-.02.005-.023.015l-.429 1.32c-.003.015.002.022.016.022h.105zm.651-.379h-.508c-.004-.003-.005-.006-.004-.009l.252-.791c.007-.003.01-.003.012 0l.252.791v.007a.01.01 0 0 1-.008.003h.004zm.851.395a.294.294 0 0 0 .246-.118c.003-.003.005-.004.007-.004.002.001.003.003.003.005v.082c0 .013.006.02.02.02h.098c.013 0 .02-.007.02-.02V36.48c0-.013-.007-.02-.02-.02h-.099c-.013 0-.019.007-.019.02v.456c0 .002 0 .004-.003.005-.002 0-.004 0-.007-.003a.283.283 0 0 0-.106-.087.324.324 0 0 0-.14-.03.37.37 0 0 0-.23.071.358.358 0 0 0-.129.195.92.92 0 0 0-.023.24c0 .107.009.189.027.247.023.08.066.143.127.19.062.046.138.07.228.07zm.014-.12a.242.242 0 0 1-.141-.041.212.212 0 0 1-.082-.11.327.327 0 0 1-.028-.093 1.01 1.01 0 0 1-.007-.142c0-.064.003-.113.01-.149a.337.337 0 0 1 .034-.096.22.22 0 0 1 .216-.141c.049 0 .091.013.127.04a.22.22 0 0 1 .076.105.328.328 0 0 1 .027.094c.006.036.008.084.008.147 0 .062-.002.11-.008.145a.345.345 0 0 1-.025.091.24.24 0 0 1-.077.109.205.205 0 0 1-.13.04zm1.087.104c.012 0 .02-.005.023-.015l.318-.943c.004-.014-.001-.021-.015-.021l-.11-.002c-.012 0-.02.005-.024.015l-.242.76c-.002.003-.004.004-.006.004-.003 0-.005 0-.006-.003l-.243-.76c-.003-.011-.011-.016-.023-.016h-.11c-.012 0-.018.004-.018.013l.002.008.318.945c.004.01.012.015.023.015h.113zm.928.018a.455.455 0 0 0 .223-.054.349.349 0 0 0 .146-.146c.005-.012.002-.02-.008-.027l-.076-.045c-.01-.006-.019-.004-.027.008a.253.253 0 0 1-.097.105.276.276 0 0 1-.143.036.297.297 0 0 1-.179-.05.232.232 0 0 1-.09-.138.866.866 0 0 1-.012-.137c0-.006.002-.008.007-.008h.627c.013 0 .02-.007.02-.02v-.062c0-.054-.003-.1-.009-.135a.413.413 0 0 0-.118-.252c-.063-.06-.154-.09-.271-.09a.388.388 0 0 0-.242.076.36.36 0 0 0-.133.202.423.423 0 0 0-.014.092 2.444 2.444 0 0 0-.003.133c0 .116.011.205.035.267a.354.354 0 0 0 .133.179.408.408 0 0 0 .231.066zm.247-.572h-.503c-.005 0-.007-.003-.007-.008a.628.628 0 0 1 .015-.132.23.23 0 0 1 .24-.182c.066 0 .121.017.164.051.044.034.072.08.087.139.005.024.009.066.011.124 0 .005-.002.008-.007.008zm.567.554c.013 0 .02-.006.02-.02v-.571c0-.073.022-.133.066-.18a.231.231 0 0 1 .166-.074l.026-.002c.028 0 .053.004.075.013.013.005.021.002.025-.011l.022-.095c.002-.012-.002-.02-.012-.026a.229.229 0 0 0-.11-.025.269.269 0 0 0-.147.04.309.309 0 0 0-.104.111c-.001.003-.003.004-.005.003l-.002-.006v-.119c0-.013-.007-.02-.02-.02h-.099c-.013 0-.02.007-.02.02v.943c0 .013.007.02.02.02h.1zm.99.002c.033 0 .057 0 .072-.002.013 0 .02-.006.02-.02v-.079c0-.013-.007-.02-.02-.02h-.048c-.06 0-.103-.012-.131-.037-.028-.025-.042-.069-.042-.13v-.573c0-.005.003-.008.008-.008h.22c.012 0 .019-.006.019-.02v-.075c0-.013-.007-.02-.02-.02h-.219c-.005 0-.008-.002-.008-.007v-.225c0-.013-.006-.02-.02-.02h-.094c-.013 0-.02.007-.02.02v.225c0 .005-.002.008-.007.008h-.119c-.013 0-.019.006-.019.02v.075c0 .013.006.02.02.02h.118c.005 0 .007.002.007.007v.615c0 .094.024.159.072.194a.357.357 0 0 0 .212.052zm.533-.004c.013 0 .02-.006.02-.02v-.942c0-.013-.007-.02-.02-.02h-.099c-.013 0-.02.007-.02.02v.943c0 .013.007.02.02.02h.1zm.711.012a.42.42 0 0 0 .262-.076.241.241 0 0 0 .1-.201.206.206 0 0 0-.051-.145.335.335 0 0 0-.12-.084 1.82 1.82 0 0 0-.183-.062.793.793 0 0 1-.18-.07.111.111 0 0 1-.058-.101c0-.047.02-.083.06-.11a.284.284 0 0 1 .159-.04c.07 0 .127.016.17.045.041.03.062.067.062.11 0 .018.007.026.02.026h.091c.013 0 .02-.006.02-.02a.235.235 0 0 0-.045-.142.295.295 0 0 0-.127-.096.481.481 0 0 0-.19-.035.412.412 0 0 0-.255.074.236.236 0 0 0-.097.198c0 .057.016.103.047.14.032.037.071.066.118.087.046.02.106.04.178.062.06.018.106.033.135.044a.23.23 0 0 1 .075.049c.022.02.032.047.032.08 0 .046-.02.084-.062.115a.269.269 0 0 1-.163.045.283.283 0 0 1-.167-.047c-.045-.032-.067-.07-.067-.112v-.015c0-.013-.007-.02-.02-.02h-.093c-.013 0-.02.007-.02.02v.023c0 .048.016.091.046.13.03.039.074.07.13.093.057.023.121.035.193.035zm.781-.012c.013 0 .02-.006.02-.02v-.942c0-.013-.007-.02-.02-.02h-.099c-.013 0-.019.007-.019.02v.943c0 .013.006.02.02.02h.098zm.508.002c.013 0 .02-.006.02-.02v-.616c0-.071.021-.129.065-.173a.233.233 0 0 1 .173-.065c.068 0 .124.022.167.067a.242.242 0 0 1 .065.175v.613c0 .013.007.02.02.02h.099c.013 0 .02-.007.02-.02v-.64a.328.328 0 0 0-.093-.245.336.336 0 0 0-.247-.09c-.118 0-.205.04-.262.12-.001.002-.003.003-.005.001a.007.007 0 0 1-.003-.005v-.084c0-.013-.006-.02-.02-.02h-.098c-.013 0-.02.007-.02.02v.943c0 .013.007.02.02.02h.099zm1.233.386c.146 0 .26-.033.344-.1.083-.068.125-.174.125-.319v-.929c0-.013-.007-.02-.02-.02h-.098c-.013 0-.02.007-.02.02v.076a.007.007 0 0 1-.003.006c-.002.001-.004 0-.006-.002-.06-.077-.147-.115-.262-.115a.347.347 0 0 0-.346.258.45.45 0 0 0-.02.105 1.774 1.774 0 0 0-.005.144.9.9 0 0 0 .024.236.327.327 0 0 0 .13.192c.066.045.14.068.224.068.11 0 .195-.039.255-.116.002-.003.004-.004.006-.003.002 0 .003.002.003.005v.071c0 .102-.027.177-.081.224-.055.048-.142.071-.262.071l-.052-.002a.015.015 0 0 0-.014.003c-.004.003-.006.008-.006.015l-.004.089c0 .013.007.02.02.021a.883.883 0 0 0 .068.002zm.089-.496a.241.241 0 0 1-.243-.188.666.666 0 0 1-.019-.196c0-.088.006-.153.02-.194a.276.276 0 0 1 .088-.136.233.233 0 0 1 .154-.052.226.226 0 0 1 .23.188c.006.02.009.04.01.063a2.874 2.874 0 0 1-.007.328.227.227 0 0 1-.077.134.231.231 0 0 1-.156.053z" fill="#57F" fill-rule="nonzero"/>
        <path d="M37.205 17.455c.016 0 .024-.009.024-.025v-1.34c0-.005.002-.008.005-.01s.006 0 .007.005l.395.601c.008.01.018.015.03.015h.062c.012 0 .021-.006.03-.017l.395-.606c.001-.005.004-.007.007-.005.003.001.005.005.005.01v1.347c0 .016.008.025.024.025h.124c.016 0 .024-.009.024-.025v-1.648c0-.016-.008-.024-.024-.024h-.126c-.012 0-.021.005-.03.017l-.45.688c-.002.002-.004.002-.008.002h-.004l-.003-.002-.456-.69a.033.033 0 0 0-.029-.015h-.126c-.016 0-.024.008-.024.024v1.648c0 .016.008.025.024.025h.124zm1.914.019c.08 0 .151-.013.216-.038a.379.379 0 0 0 .158-.11c.003-.003.006-.004.008-.002a.008.008 0 0 1 .004.007v.1c0 .015.008.024.024.024h.124c.016 0 .024-.009.024-.025v-.814a.387.387 0 0 0-.119-.296.474.474 0 0 0-.337-.112.552.552 0 0 0-.315.085.313.313 0 0 0-.146.22c-.003.01.004.017.022.02l.131.017c.015.002.024-.005.03-.022a.188.188 0 0 1 .089-.124.356.356 0 0 1 .189-.045c.097 0 .168.024.215.071.046.048.069.113.069.195v.093c0 .006-.004.01-.01.01h-.281a.574.574 0 0 0-.368.105.348.348 0 0 0-.132.287c0 .12.04.208.117.267a.467.467 0 0 0 .288.087zm.034-.148a.317.317 0 0 1-.193-.054c-.049-.037-.074-.09-.074-.162 0-.077.033-.138.097-.182a.452.452 0 0 1 .257-.065h.255c.006 0 .01.003.01.01v.189c0 .08-.035.145-.105.193a.426.426 0 0 1-.247.071zm1.07.129c.017 0 .025-.009.025-.025v-.715c0-.09.028-.165.083-.224a.289.289 0 0 1 .208-.093l.032-.003c.035 0 .067.006.094.017.016.007.027.002.032-.014l.026-.12c.003-.014-.001-.024-.014-.03a.286.286 0 0 0-.138-.032c-.07 0-.131.016-.184.05a.386.386 0 0 0-.13.139c0 .003-.003.004-.005.003-.003 0-.004-.003-.004-.008v-.148c0-.016-.008-.024-.024-.024H40.1c-.016 0-.024.008-.024.024v1.178c0 .016.008.025.024.025h.124zm.924 0c.016 0 .024-.009.024-.025v-.412c0-.005.002-.009.005-.012l.266-.281c.005-.005.01-.004.013.002l.312.708c.005.013.014.02.027.02h.13c.015 0 .023-.007.023-.02l-.003-.01-.37-.812c-.002-.005-.001-.009.002-.012l.31-.344c.007-.006.008-.013.005-.02-.003-.006-.01-.01-.02-.01h-.145a.04.04 0 0 0-.029.013l-.514.538c-.003.003-.006.004-.008.003a.008.008 0 0 1-.004-.008v-.991c0-.016-.008-.024-.024-.024h-.124c-.016 0-.024.008-.024.024v1.648c0 .016.008.025.024.025h.124zm1.524.021a.569.569 0 0 0 .278-.066.436.436 0 0 0 .182-.183c.007-.015.004-.026-.01-.034l-.094-.056c-.013-.008-.024-.005-.034.01-.029.056-.07.1-.121.13a.345.345 0 0 1-.18.047.372.372 0 0 1-.223-.063.29.29 0 0 1-.113-.173 1.082 1.082 0 0 1-.015-.172c0-.006.003-.01.01-.01h.783c.016 0 .024-.007.024-.024v-.077c0-.068-.003-.125-.01-.17A.517.517 0 0 0 43 16.32c-.079-.074-.192-.112-.339-.112a.485.485 0 0 0-.302.095.449.449 0 0 0-.166.252.529.529 0 0 0-.018.115 3.055 3.055 0 0 0-.004.166c0 .146.015.257.044.335.034.095.09.17.167.223a.51.51 0 0 0 .289.082zm.308-.715h-.628c-.007 0-.01-.003-.01-.01a.785.785 0 0 1 .02-.164.286.286 0 0 1 .3-.228.32.32 0 0 1 .205.064c.054.043.09.1.108.173.006.031.011.083.014.156 0 .006-.003.01-.01.01zm.973.696c.04 0 .07 0 .09-.002.016 0 .024-.009.024-.025v-.1c0-.015-.008-.023-.024-.023h-.06c-.075 0-.13-.016-.164-.048-.035-.031-.052-.086-.052-.163v-.715c0-.007.003-.01.01-.01h.273c.016 0 .025-.008.025-.024v-.095c0-.016-.009-.024-.025-.024h-.274c-.006 0-.01-.003-.01-.01v-.281c0-.016-.007-.024-.024-.024h-.118c-.017 0-.025.008-.025.024v.281c0 .007-.003.01-.01.01h-.147c-.016 0-.024.008-.024.024v.095c0 .016.008.024.024.024h.148c.006 0 .01.003.01.01v.768c0 .118.03.199.09.243.059.043.147.065.263.065zm.666-.005c.016 0 .024-.008.024-.024V16.25c0-.016-.008-.025-.024-.025h-.123c-.017 0-.025.009-.025.025v1.178c0 .016.008.024.025.024h.123zm.635.003c.016 0 .024-.009.024-.025v-.77c0-.09.027-.161.082-.216a.292.292 0 0 1 .216-.083c.086 0 .156.028.21.085.054.057.08.13.08.218v.766c0 .016.009.025.025.025h.124c.016 0 .024-.009.024-.025v-.8a.41.41 0 0 0-.115-.305.42.42 0 0 0-.31-.114c-.146 0-.255.05-.327.15-.001.003-.003.004-.006.003a.008.008 0 0 1-.003-.008v-.104c0-.016-.008-.024-.024-.024h-.124c-.016 0-.024.008-.024.024v1.178c0 .016.008.025.024.025h.124zm1.54.482c.183 0 .327-.042.43-.126.105-.084.157-.217.157-.398v-1.16c0-.017-.008-.025-.024-.025h-.124c-.016 0-.024.008-.024.024v.095a.008.008 0 0 1-.004.007c-.002.002-.005 0-.008-.002-.074-.096-.183-.144-.327-.144a.433.433 0 0 0-.432.323.561.561 0 0 0-.025.13 2.218 2.218 0 0 0-.006.18c0 .131.01.23.029.296a.409.409 0 0 0 .163.24.48.48 0 0 0 .28.085.377.377 0 0 0 .318-.146c.003-.003.006-.004.008-.003.003 0 .004.003.004.006v.09c0 .127-.034.22-.102.28-.068.058-.177.088-.327.088l-.065-.002a.018.018 0 0 0-.017.003c-.005.004-.008.01-.008.018l-.005.112c0 .016.009.025.025.027l.085.002zm.112-.62a.301.301 0 0 1-.303-.236.832.832 0 0 1-.024-.245c0-.11.008-.19.024-.242a.345.345 0 0 1 .11-.17.292.292 0 0 1 .193-.065.282.282 0 0 1 .289.235c.006.024.01.05.012.079a3.593 3.593 0 0 1-.01.41.284.284 0 0 1-.096.168.29.29 0 0 1-.195.065z" fill="#57F"/>
        <path d="M8.79 31.03c.02 0 .029-.01.029-.028v-.863c0-.008.004-.011.011-.011h.897c.008 0 .011.003.011.01v.864c0 .019.01.028.029.028h.143c.019 0 .028-.01.028-.028V29.09c0-.019-.01-.028-.028-.028h-.143c-.02 0-.029.01-.029.028v.852c0 .008-.003.011-.01.011H8.83c-.007 0-.011-.003-.011-.011v-.852c0-.019-.01-.028-.028-.028h-.144c-.018 0-.028.01-.028.028v1.912c0 .019.01.028.028.028h.144zm1.887 0c.018 0 .028-.01.028-.028v-.86c0-.008.004-.012.011-.012h.478c.006 0 .01.003.011.009l.414.872c.005.013.017.02.034.02h.149c.015 0 .022-.007.022-.02 0-.006 0-.01-.003-.014l-.422-.867c-.003-.005-.001-.01.006-.014a.482.482 0 0 0 .29-.177.53.53 0 0 0 .107-.334.533.533 0 0 0-.15-.393c-.099-.1-.23-.15-.39-.15h-.729c-.018 0-.028.01-.028.028v1.912c0 .019.01.028.028.028h.144zm.562-1.06h-.523c-.007 0-.011-.004-.011-.011v-.712c0-.007.004-.01.011-.01h.523c.109 0 .197.033.265.102a.362.362 0 0 1 .1.266.358.358 0 0 1-.1.264.358.358 0 0 1-.265.101z" fill="#7F98FE"/>
        <path d="M22.532 46.576a.62.62 0 0 0 .427-.141.486.486 0 0 0 .16-.383v-.853a.486.486 0 0 0-.16-.383.62.62 0 0 0-.427-.14h-.641c-.018 0-.027.008-.027.026v1.847c0 .018.009.027.027.027h.64zm.008-.169h-.472c-.008 0-.011-.003-.011-.01v-1.543c0-.007.003-.01.01-.01h.473c.12 0 .214.034.282.103a.378.378 0 0 1 .104.28v.8a.372.372 0 0 1-.105.277.383.383 0 0 1-.281.103zm1.354.19c.089 0 .17-.014.242-.042a.424.424 0 0 0 .176-.123c.004-.004.007-.005.01-.003a.01.01 0 0 1 .004.008v.112c0 .018.009.027.027.027h.138c.018 0 .027-.01.027-.027v-.913a.433.433 0 0 0-.133-.33c-.088-.084-.214-.126-.377-.126a.618.618 0 0 0-.353.095.35.35 0 0 0-.163.247c-.004.011.005.018.025.022l.146.019c.016.002.027-.006.033-.024a.21.21 0 0 1 .1-.14.399.399 0 0 1 .212-.05c.109 0 .189.026.24.08a.301.301 0 0 1 .078.218v.103c0 .008-.004.011-.011.011H24c-.176 0-.313.04-.412.118a.39.39 0 0 0-.148.322c0 .134.044.234.13.299a.523.523 0 0 0 .324.097zm.038-.165a.355.355 0 0 1-.216-.061c-.055-.041-.083-.101-.083-.18 0-.088.036-.156.109-.204a.506.506 0 0 1 .288-.074h.285c.007 0 .01.004.01.011v.212a.25.25 0 0 1-.116.216.477.477 0 0 1-.277.08zm1.503.146c.045 0 .079 0 .1-.002.019 0 .028-.01.028-.027v-.112c0-.018-.01-.027-.027-.027h-.068c-.083 0-.145-.018-.183-.053-.04-.035-.059-.096-.059-.183v-.801c0-.007.004-.01.011-.01h.307c.018 0 .027-.01.027-.028v-.106c0-.018-.01-.027-.027-.027h-.307c-.007 0-.01-.004-.01-.011v-.315c0-.018-.01-.027-.028-.027h-.133c-.018 0-.027.009-.027.027v.315c0 .007-.004.01-.011.01h-.166c-.018 0-.027.01-.027.028v.106c0 .018.01.027.027.027h.166c.007 0 .01.004.01.01v.862c0 .132.034.222.101.271a.5.5 0 0 0 .296.073zm.914.02c.089 0 .17-.015.242-.043a.424.424 0 0 0 .176-.123c.004-.004.007-.005.01-.003a.01.01 0 0 1 .004.008v.112c0 .018.01.027.027.027h.139c.018 0 .027-.01.027-.027v-.913a.433.433 0 0 0-.133-.33c-.089-.084-.215-.126-.378-.126a.618.618 0 0 0-.353.095.35.35 0 0 0-.163.247c-.003.011.005.018.025.022l.147.019c.016.002.027-.006.032-.024a.21.21 0 0 1 .1-.14.399.399 0 0 1 .212-.05c.109 0 .19.026.24.08a.301.301 0 0 1 .078.218v.103c0 .008-.004.011-.01.011h-.316c-.175 0-.312.04-.411.118a.39.39 0 0 0-.148.322c0 .134.043.234.13.299a.523.523 0 0 0 .323.097zm.038-.166a.355.355 0 0 1-.216-.061c-.055-.041-.082-.101-.082-.18 0-.088.036-.156.108-.204a.506.506 0 0 1 .288-.074h.285c.007 0 .011.004.011.011v.212a.25.25 0 0 1-.117.216.477.477 0 0 1-.277.08zm1.238.144c.018 0 .027-.01.027-.027v-1.847c0-.018-.01-.027-.027-.027h-.139c-.018 0-.027.01-.027.027v1.847c0 .018.009.027.027.027h.139zm.71 0c.018 0 .027-.01.027-.027v-.864c0-.1.03-.18.092-.241a.327.327 0 0 1 .242-.093.31.31 0 0 1 .235.095c.06.064.09.145.09.245v.858c0 .018.01.027.028.027h.139c.018 0 .027-.01.027-.027v-.896a.46.46 0 0 0-.13-.343.47.47 0 0 0-.345-.127c-.165 0-.287.056-.367.168-.002.004-.004.005-.007.003a.01.01 0 0 1-.004-.008v-.117c0-.018-.009-.027-.027-.027h-.138c-.019 0-.028.009-.028.027v1.32c0 .018.01.027.028.027h.138zm1.794.013a.588.588 0 0 0 .366-.106.338.338 0 0 0 .139-.282.288.288 0 0 0-.07-.202.47.47 0 0 0-.17-.118 2.548 2.548 0 0 0-.254-.087 1.11 1.11 0 0 1-.253-.098.156.156 0 0 1-.081-.141c0-.065.028-.116.084-.154a.398.398 0 0 1 .223-.055c.1 0 .178.02.237.062.059.042.088.093.088.155 0 .024.01.035.027.035h.128c.018 0 .027-.009.027-.027a.33.33 0 0 0-.062-.2.413.413 0 0 0-.178-.134.674.674 0 0 0-.265-.049.577.577 0 0 0-.358.103.33.33 0 0 0-.136.277c0 .08.022.146.067.197a.46.46 0 0 0 .164.121c.065.03.148.058.25.087.085.025.148.046.188.062.041.017.076.04.106.068.03.03.045.066.045.112a.193.193 0 0 1-.087.161.376.376 0 0 1-.228.064.396.396 0 0 1-.235-.067c-.062-.044-.093-.096-.093-.156v-.021c0-.018-.01-.028-.028-.028h-.13c-.018 0-.027.01-.027.028v.032c0 .067.021.128.064.182a.437.437 0 0 0 .182.13.702.702 0 0 0 .27.05zm1.093-.016c.018 0 .027-.009.027-.027v-1.32c0-.018-.009-.027-.027-.027h-.138c-.018 0-.028.01-.028.027v1.32c0 .018.01.027.028.027h.138zm1.04.024a.412.412 0 0 0 .345-.166c.003-.003.006-.004.008-.003.003 0 .005.003.005.007v.114c0 .018.009.027.027.027h.138c.018 0 .027-.01.027-.027v-1.847c0-.018-.009-.027-.027-.027h-.138c-.018 0-.027.01-.027.027v.638c0 .004-.002.006-.005.007-.002.001-.005 0-.01-.004a.396.396 0 0 0-.148-.12.454.454 0 0 0-.196-.043.518.518 0 0 0-.323.1.502.502 0 0 0-.18.272 1.288 1.288 0 0 0-.032.337c0 .148.013.263.038.345.033.112.092.2.178.266a.513.513 0 0 0 .32.097zm.018-.168a.339.339 0 0 1-.197-.057.296.296 0 0 1-.115-.155.457.457 0 0 1-.038-.129 1.415 1.415 0 0 1-.011-.2c0-.088.005-.157.015-.207a.472.472 0 0 1 .047-.134.308.308 0 0 1 .302-.198.29.29 0 0 1 .178.055c.05.037.085.087.107.148.018.038.03.082.038.132.007.05.01.118.01.205s-.003.155-.01.203a.484.484 0 0 1-.035.128.336.336 0 0 1-.109.152.287.287 0 0 1-.182.057zm1.533.171a.637.637 0 0 0 .313-.074.489.489 0 0 0 .203-.205c.007-.017.004-.03-.01-.038l-.107-.063c-.014-.009-.027-.005-.038.01a.355.355 0 0 1-.135.148.386.386 0 0 1-.201.051.416.416 0 0 1-.25-.07.325.325 0 0 1-.128-.193 1.212 1.212 0 0 1-.016-.193c0-.007.004-.01.01-.01h.878c.018 0 .027-.01.027-.028v-.087c0-.076-.004-.14-.01-.19a.579.579 0 0 0-.166-.353c-.09-.083-.216-.125-.38-.125a.544.544 0 0 0-.339.106.503.503 0 0 0-.186.282.592.592 0 0 0-.02.13c-.003.047-.004.11-.004.185 0 .163.016.288.049.375.038.107.1.19.187.25s.195.09.323.092zm.345-.8h-.703c-.007 0-.011-.004-.011-.012a.88.88 0 0 1 .022-.184.32.32 0 0 1 .336-.255c.093 0 .17.023.23.071.06.048.1.113.12.195.008.034.013.092.017.173 0 .008-.004.011-.01.011zm.795.776c.018 0 .027-.01.027-.027v-.801c0-.102.03-.185.092-.252.062-.066.14-.1.234-.104l.035-.003c.04 0 .075.007.106.02.018.006.03.001.035-.017l.03-.133c.004-.016-.002-.028-.016-.035a.32.32 0 0 0-.155-.036.376.376 0 0 0-.205.056.432.432 0 0 0-.145.156c-.002.004-.004.005-.007.004-.003 0-.004-.004-.004-.01v-.165c0-.018-.01-.027-.027-.027h-.139c-.018 0-.027.009-.027.027v1.32c0 .018.01.027.027.027h.139z" fill="#57F"/>
        <path d="M24.481 10.667c.183 0 .33-.049.441-.146a.511.511 0 0 0 .167-.407.542.542 0 0 0-.081-.303.5.5 0 0 0-.239-.189c-.01-.006-.01-.011 0-.017a.477.477 0 0 0 .22-.17.468.468 0 0 0 .077-.272c0-.17-.054-.3-.161-.393-.108-.093-.256-.14-.444-.14h-.684c-.019 0-.029.01-.029.03v1.978c0 .019.01.029.03.029h.703zm-.02-1.135h-.494c-.008 0-.012-.004-.012-.012v-.698c0-.007.004-.011.012-.011h.494c.122 0 .22.033.292.1.073.067.11.157.11.27a.324.324 0 0 1-.11.255.427.427 0 0 1-.292.096zm.02.951h-.514c-.008 0-.012-.003-.012-.011v-.754c0-.007.004-.011.012-.011h.503a.42.42 0 0 1 .3.106c.076.07.113.165.113.283a.373.373 0 0 1-.11.283.404.404 0 0 1-.292.104zm1.306.18c.02 0 .029-.009.029-.028V9.22c0-.02-.01-.03-.03-.03h-.148c-.02 0-.029.01-.029.03v1.414c0 .02.01.029.03.029h.148zm.994.583c.219 0 .39-.05.516-.152.125-.1.188-.26.188-.477V9.224c0-.02-.01-.03-.03-.03h-.148c-.02 0-.029.01-.029.03v.113a.01.01 0 0 1-.004.009c-.003.002-.007 0-.01-.003-.09-.114-.22-.172-.393-.172a.52.52 0 0 0-.518.387.674.674 0 0 0-.03.157c-.005.059-.008.13-.008.216 0 .157.012.275.035.355a.49.49 0 0 0 .196.288c.098.067.21.101.336.101a.452.452 0 0 0 .382-.174c.003-.004.007-.005.01-.005.003.001.004.004.004.008v.107c0 .154-.04.266-.122.336-.082.071-.212.107-.393.107l-.078-.003a.022.022 0 0 0-.02.004c-.007.005-.01.012-.01.022l-.005.134c0 .02.01.03.029.032.023.002.057.003.102.003zm.133-.745a.362.362 0 0 1-.363-.282.999.999 0 0 1-.03-.294c0-.132.01-.229.03-.291a.413.413 0 0 1 .132-.204.35.35 0 0 1 .231-.078.339.339 0 0 1 .347.282.47.47 0 0 1 .014.094c.002.034.003.1.003.2v.075c0 .045-.002.082-.003.11a.73.73 0 0 1-.011.109.34.34 0 0 1-.115.2.347.347 0 0 1-.235.079zm1.818.166c.192 0 .344-.05.458-.152.113-.1.17-.237.17-.41v-.913a.521.521 0 0 0-.17-.41c-.114-.101-.266-.152-.458-.152h-.687c-.02 0-.029.01-.029.03v1.978c0 .019.01.029.03.029h.686zm.008-.18h-.506c-.008 0-.011-.005-.011-.012V8.822c0-.007.003-.011.011-.011h.506c.128 0 .23.037.303.11.074.074.11.174.11.3v.858a.398.398 0 0 1-.112.297.41.41 0 0 1-.3.11zm1.451.203a.711.711 0 0 0 .259-.045.454.454 0 0 0 .189-.133c.004-.003.007-.004.01-.002a.01.01 0 0 1 .005.008v.12c0 .019.01.029.029.029h.148c.02 0 .03-.01.03-.03V9.66a.464.464 0 0 0-.143-.355c-.095-.089-.23-.134-.405-.134a.663.663 0 0 0-.378.102.375.375 0 0 0-.175.265c-.003.012.005.02.027.023l.157.02c.017.003.029-.006.035-.026a.225.225 0 0 1 .107-.15.427.427 0 0 1 .227-.053c.117 0 .202.028.258.086a.323.323 0 0 1 .083.234v.11c0 .008-.004.012-.012.012h-.338c-.188 0-.335.042-.44.126a.417.417 0 0 0-.159.345c0 .144.047.25.14.32a.56.56 0 0 0 .346.105zm.04-.178a.38.38 0 0 1-.23-.065c-.06-.044-.09-.108-.09-.193a.25.25 0 0 1 .117-.219.542.542 0 0 1 .308-.078h.306c.008 0 .012.004.012.011v.227a.267.267 0 0 1-.126.232.512.512 0 0 1-.296.085zm1.611.158c.049 0 .085-.001.108-.003.02 0 .03-.01.03-.03v-.119c0-.02-.01-.029-.03-.029h-.073c-.089 0-.154-.019-.196-.057-.042-.037-.063-.103-.063-.196v-.858c0-.008.004-.012.012-.012h.329c.02 0 .029-.01.029-.029v-.113c0-.02-.01-.03-.03-.03h-.328c-.008 0-.012-.003-.012-.011v-.337c0-.02-.01-.03-.029-.03h-.142c-.02 0-.03.01-.03.03v.337c0 .008-.003.012-.01.012h-.178c-.02 0-.03.01-.03.029v.113c0 .02.01.03.03.03h.177c.008 0 .012.003.012.01v.923c0 .142.036.239.107.291a.535.535 0 0 0 .317.079zm.98.02a.711.711 0 0 0 .259-.045.454.454 0 0 0 .189-.133c.004-.003.007-.004.01-.002a.01.01 0 0 1 .004.008v.12c0 .019.01.029.03.029h.148c.02 0 .029-.01.029-.03V9.66a.464.464 0 0 0-.143-.355c-.095-.089-.23-.134-.404-.134a.663.663 0 0 0-.378.102.375.375 0 0 0-.175.265c-.004.012.005.02.026.023l.158.02c.017.003.029-.006.034-.026a.225.225 0 0 1 .108-.15.427.427 0 0 1 .227-.053c.116 0 .202.028.257.086a.323.323 0 0 1 .083.234v.11c0 .008-.004.012-.011.012h-.338c-.188 0-.335.042-.44.126a.417.417 0 0 0-.159.345c0 .144.047.25.14.32a.56.56 0 0 0 .346.105zm.04-.178a.38.38 0 0 1-.23-.065c-.06-.044-.09-.108-.09-.193a.25.25 0 0 1 .117-.219.542.542 0 0 1 .308-.078h.306c.007 0 .011.004.011.011v.227a.267.267 0 0 1-.125.232.512.512 0 0 1-.296.085zM35.538 4.848c.017 0 .029-.007.035-.023l.116-.366c.002-.006.006-.01.012-.01h.87c.005 0 .01.004.011.01l.116.366c.006.016.018.023.035.023h.157c.018 0 .027-.006.027-.02l-.003-.012-.646-1.98c-.006-.016-.018-.024-.035-.024h-.198c-.017 0-.029.008-.035.023l-.643 1.981c-.005.022.002.032.024.032h.157zm.971-.567h-.75a.014.014 0 0 1-.01-.004c-.003-.003-.004-.006-.002-.01l.378-1.187c.002-.004.005-.006.01-.006.003 0 .006.002.008.006l.378 1.187c.002.004.001.007-.001.01a.014.014 0 0 1-.01.004zm.968.567c.02 0 .03-.01.03-.029v-.925a.35.35 0 0 1 .098-.259.35.35 0 0 1 .259-.099c.103 0 .187.034.252.102a.363.363 0 0 1 .097.262v.92c0 .019.01.028.03.028h.148c.019 0 .029-.01.029-.029v-.96a.492.492 0 0 0-.139-.366.504.504 0 0 0-.37-.137c-.177 0-.308.06-.393.18-.002.004-.005.005-.007.003a.01.01 0 0 1-.005-.008v-.125c0-.02-.01-.03-.029-.03h-.148c-.02 0-.03.01-.03.03v1.413c0 .02.01.03.03.03h.148zm1.826.024a.711.711 0 0 0 .259-.045.454.454 0 0 0 .189-.133c.004-.004.007-.005.01-.003a.01.01 0 0 1 .005.01v.118c0 .02.01.03.029.03h.148c.02 0 .03-.01.03-.03v-.977a.464.464 0 0 0-.143-.355c-.095-.09-.23-.134-.405-.134a.663.663 0 0 0-.378.102.375.375 0 0 0-.175.265c-.003.011.005.02.027.023l.157.02c.017.002.029-.006.035-.026a.225.225 0 0 1 .107-.15.427.427 0 0 1 .227-.053c.117 0 .202.028.258.085a.323.323 0 0 1 .083.235v.11c0 .008-.004.012-.012.012h-.338c-.188 0-.335.042-.44.126a.417.417 0 0 0-.159.345c0 .144.047.25.14.32a.56.56 0 0 0 .346.105zm.04-.178a.38.38 0 0 1-.23-.065c-.06-.044-.09-.108-.09-.194a.25.25 0 0 1 .117-.218.542.542 0 0 1 .308-.078h.306c.008 0 .012.004.012.011v.227a.267.267 0 0 1-.126.231.512.512 0 0 1-.296.086zm1.286.154c.019 0 .029-.01.029-.029V2.841c0-.02-.01-.029-.03-.029h-.148c-.02 0-.029.01-.029.03v1.977c0 .02.01.03.03.03h.148zm.493.582c.11 0 .197-.012.258-.036a.326.326 0 0 0 .152-.13c.041-.062.085-.158.131-.288l.538-1.568c.006-.02-.001-.032-.023-.032h-.151c-.018 0-.03.008-.035.024l-.372 1.175c-.002.004-.005.006-.01.006-.003 0-.006-.002-.008-.006L41.224 3.4c-.006-.016-.017-.024-.035-.024h-.154c-.018 0-.026.007-.026.02l.003.012.491 1.432c.004.004.004.01 0 .017a1.472 1.472 0 0 1-.097.252.256.256 0 0 1-.108.113.436.436 0 0 1-.176.034h-.011c-.02 0-.03.01-.03.029V5.4c0 .02.007.03.02.03h.021zm1.951-.579c.049 0 .085 0 .108-.003.02 0 .029-.01.029-.029V4.7c0-.02-.01-.029-.03-.029h-.072c-.09 0-.155-.019-.196-.057-.042-.038-.063-.103-.063-.196V3.56c0-.008.004-.012.012-.012h.329c.019 0 .029-.01.029-.029v-.113c0-.02-.01-.03-.03-.03h-.328c-.008 0-.012-.003-.012-.011v-.338c0-.019-.01-.029-.029-.029h-.142c-.02 0-.03.01-.03.03v.337c0 .008-.003.011-.011.011h-.178c-.019 0-.029.01-.029.03v.113c0 .02.01.03.03.03h.177c.008 0 .011.003.011.01v.923c0 .142.036.238.108.29a.535.535 0 0 0 .317.08zm.8-.005c.019 0 .028-.01.028-.03V3.403c0-.02-.01-.03-.029-.03h-.148c-.02 0-.03.01-.03.03v1.413c0 .02.01.03.03.03h.148zm1.139.026a.65.65 0 0 0 .37-.105.46.46 0 0 0 .2-.273l.011-.059c.002-.017-.006-.028-.026-.032l-.142-.023c-.022-.004-.033.004-.035.023l-.003.012v.012a.314.314 0 0 1-.13.19.41.41 0 0 1-.245.074.354.354 0 0 1-.37-.285 1.292 1.292 0 0 1-.026-.296c0-.123.009-.22.026-.294a.353.353 0 0 1 .127-.205.38.38 0 0 1 .243-.077c.097 0 .179.025.247.077.068.051.11.114.128.187l.009.044c.004.017.012.026.026.026h.006l.145-.02c.018-.004.026-.013.026-.026a.489.489 0 0 0-.22-.36.63.63 0 0 0-.367-.109.6.6 0 0 0-.361.11.529.529 0 0 0-.204.289 1.43 1.43 0 0 0-.038.355c0 .155.013.275.038.36a.546.546 0 0 0 .205.296c.1.072.22.109.36.109zm1.488-.009a.63.63 0 0 0 .393-.113.362.362 0 0 0 .148-.303.31.31 0 0 0-.075-.217.503.503 0 0 0-.18-.126 2.73 2.73 0 0 0-.274-.093 1.19 1.19 0 0 1-.27-.105.167.167 0 0 1-.088-.151c0-.07.03-.125.09-.165.06-.04.14-.06.239-.06.106 0 .191.023.254.068.063.044.095.1.095.165 0 .026.01.038.029.038h.137c.019 0 .029-.01.029-.029a.353.353 0 0 0-.067-.214.443.443 0 0 0-.19-.144.722.722 0 0 0-.284-.052.618.618 0 0 0-.384.11.354.354 0 0 0-.146.297c0 .086.024.156.071.211a.492.492 0 0 0 .176.13c.07.03.16.062.268.093.091.027.159.05.202.067a.345.345 0 0 1 .114.072c.032.031.048.071.048.12 0 .07-.031.127-.093.173a.403.403 0 0 1-.245.068.424.424 0 0 1-.251-.071c-.067-.048-.1-.104-.1-.168v-.023c0-.02-.01-.029-.03-.029h-.14c-.019 0-.029.01-.029.03v.034c0 .072.023.137.069.195.045.058.11.105.195.14.084.035.18.052.29.052zM1.978 6.788c.274 0 .494-.073.662-.218.167-.146.25-.35.25-.611a.814.814 0 0 0-.122-.454.75.75 0 0 0-.358-.284c-.014-.008-.014-.017 0-.026a.715.715 0 0 0 .33-.255.702.702 0 0 0 .116-.408c0-.253-.081-.45-.243-.59-.161-.139-.383-.209-.665-.209H.922c-.029 0-.043.015-.043.044v2.967c0 .03.014.044.043.044h1.056zm-.03-1.702h-.742c-.012 0-.017-.006-.017-.017V4.02c0-.011.005-.017.017-.017h.742c.183 0 .33.05.438.15.11.1.164.235.164.404 0 .16-.054.288-.164.384a.64.64 0 0 1-.438.144zm.03 1.427h-.772c-.012 0-.017-.006-.017-.017v-1.13c0-.012.005-.018.017-.018h.755c.19 0 .34.053.452.16a.559.559 0 0 1 .168.425.56.56 0 0 1-.164.423.607.607 0 0 1-.439.157zm2.32.305c.265 0 .459-.09.58-.27.004-.006.008-.007.014-.004.006.002.009.007.009.013v.187c0 .03.014.044.043.044h.223c.029 0 .043-.015.043-.044v-2.12c0-.03-.014-.044-.043-.044h-.223c-.029 0-.043.014-.043.044v1.383a.535.535 0 0 1-.147.393.53.53 0 0 1-.394.148.5.5 0 0 1-.38-.146.548.548 0 0 1-.14-.395V4.624c0-.03-.014-.044-.043-.044h-.223c-.029 0-.044.014-.044.044v1.474a.666.666 0 0 0 .382.635.878.878 0 0 0 .386.085zm2.403-.008c.245 0 .441-.057.59-.17a.543.543 0 0 0 .222-.454.464.464 0 0 0-.113-.325.754.754 0 0 0-.271-.19 4.094 4.094 0 0 0-.41-.14 1.785 1.785 0 0 1-.406-.157.25.25 0 0 1-.13-.227.28.28 0 0 1 .134-.246.64.64 0 0 1 .358-.09.65.65 0 0 1 .382.1c.095.067.142.15.142.25v.012c0 .03.014.044.043.044h.206c.029 0 .043-.015.043-.044V5.16a.51.51 0 0 0-.1-.307.664.664 0 0 0-.286-.216 1.083 1.083 0 0 0-.425-.079c-.239 0-.431.055-.576.166a.53.53 0 0 0-.219.445c0 .128.036.233.107.316.072.083.16.148.264.195.105.046.239.093.402.14.136.04.238.073.303.1a.518.518 0 0 1 .17.109.238.238 0 0 1 .072.179.31.31 0 0 1-.14.26.605.605 0 0 1-.366.102.636.636 0 0 1-.377-.107c-.1-.071-.151-.155-.151-.251v-.035c0-.03-.015-.044-.044-.044h-.21c-.028 0-.043.015-.043.044v.052c0 .108.034.205.103.293a.702.702 0 0 0 .292.21c.127.052.271.078.434.078zm1.657-2.632a.237.237 0 0 0 .244-.244.235.235 0 0 0-.244-.244.235.235 0 0 0-.244.244.237.237 0 0 0 .244.244zm.1 2.606c.03 0 .044-.015.044-.044V4.62c0-.03-.014-.044-.044-.044h-.222c-.03 0-.044.014-.044.043v2.12c0 .03.015.045.044.045h.222zm1.142.004c.03 0 .044-.015.044-.044V5.357c0-.16.05-.29.148-.389a.525.525 0 0 1 .389-.148.5.5 0 0 1 .377.153.545.545 0 0 1 .146.392v1.38c0 .028.015.043.044.043h.222c.03 0 .044-.015.044-.044v-1.44c0-.23-.069-.413-.207-.55-.138-.136-.324-.205-.557-.205-.264 0-.46.09-.589.27-.003.007-.006.008-.01.005a.015.015 0 0 1-.007-.013v-.187c0-.03-.015-.044-.044-.044h-.222c-.03 0-.044.014-.044.044v2.12c0 .03.015.044.044.044H9.6zm2.962.04c.189 0 .356-.04.502-.12a.785.785 0 0 0 .327-.33c.011-.026.006-.047-.018-.061l-.17-.1c-.023-.015-.043-.01-.06.017a.57.57 0 0 1-.22.235.62.62 0 0 1-.322.083.669.669 0 0 1-.401-.113.522.522 0 0 1-.206-.31 1.948 1.948 0 0 1-.026-.31c0-.011.006-.017.018-.017h1.41c.028 0 .043-.015.043-.044v-.14a2.22 2.22 0 0 0-.018-.305c-.035-.244-.123-.433-.266-.567-.142-.134-.346-.201-.61-.201a.874.874 0 0 0-.544.17.808.808 0 0 0-.299.454.952.952 0 0 0-.033.207 5.5 5.5 0 0 0-.006.3c0 .261.026.462.078.601a.796.796 0 0 0 .301.402c.14.096.313.145.52.148zm.554-1.288h-1.13c-.012 0-.018-.006-.018-.018.006-.136.018-.235.035-.296a.516.516 0 0 1 .541-.41c.149 0 .272.038.369.115a.551.551 0 0 1 .194.312c.012.055.02.149.026.28 0 .011-.005.017-.017.017zm1.696 1.27c.244 0 .44-.057.589-.17a.543.543 0 0 0 .223-.454.464.464 0 0 0-.114-.325.754.754 0 0 0-.27-.19 4.094 4.094 0 0 0-.41-.14 1.785 1.785 0 0 1-.406-.157.25.25 0 0 1-.131-.227.28.28 0 0 1 .135-.246.64.64 0 0 1 .358-.09.65.65 0 0 1 .382.1c.094.067.141.15.141.25v.012c0 .03.015.044.044.044h.205c.03 0 .044-.015.044-.044V5.16a.51.51 0 0 0-.1-.307.664.664 0 0 0-.286-.216 1.083 1.083 0 0 0-.426-.079c-.238 0-.43.055-.576.166a.53.53 0 0 0-.218.445c0 .128.036.233.107.316.071.083.16.148.264.195.105.046.238.093.401.14.137.04.238.073.304.1a.518.518 0 0 1 .17.109.238.238 0 0 1 .072.179.31.31 0 0 1-.14.26.605.605 0 0 1-.366.102.636.636 0 0 1-.378-.107c-.1-.071-.15-.155-.15-.251v-.035c0-.03-.015-.044-.044-.044h-.21c-.029 0-.043.015-.043.044v.052c0 .108.034.205.102.293a.702.702 0 0 0 .293.21c.126.052.271.078.434.078zm2.106 0c.244 0 .44-.057.59-.17a.543.543 0 0 0 .222-.454.464.464 0 0 0-.114-.325.754.754 0 0 0-.27-.19 4.094 4.094 0 0 0-.41-.14 1.785 1.785 0 0 1-.406-.157.25.25 0 0 1-.131-.227.28.28 0 0 1 .135-.246.64.64 0 0 1 .358-.09.65.65 0 0 1 .382.1c.094.067.142.15.142.25v.012c0 .03.014.044.043.044h.205c.03 0 .044-.015.044-.044V5.16a.51.51 0 0 0-.1-.307.664.664 0 0 0-.286-.216 1.083 1.083 0 0 0-.426-.079c-.238 0-.43.055-.576.166a.53.53 0 0 0-.218.445c0 .128.036.233.107.316.071.083.16.148.264.195.105.046.239.093.401.14.137.04.238.073.304.1a.518.518 0 0 1 .17.109.238.238 0 0 1 .072.179.31.31 0 0 1-.14.26.605.605 0 0 1-.366.102.636.636 0 0 1-.378-.107c-.1-.071-.15-.155-.15-.251v-.035c0-.03-.015-.044-.044-.044h-.21c-.028 0-.043.015-.043.044v.052c0 .108.034.205.103.293a.702.702 0 0 0 .292.21c.126.052.271.078.434.078z" fill="#57F" fill-rule="nonzero"/>
        <path d="M17.195 38.845c.249 0 .443-.056.584-.17a.554.554 0 0 0 .21-.454.51.51 0 0 0-.093-.31.795.795 0 0 0-.245-.216 3.29 3.29 0 0 0-.398-.19 4.36 4.36 0 0 1-.362-.155.528.528 0 0 1-.18-.139.316.316 0 0 1-.063-.202c0-.124.043-.22.13-.285.085-.065.209-.098.37-.098.183 0 .326.042.429.125a.397.397 0 0 1 .154.323v.06c0 .023.011.035.034.035h.17c.022 0 .034-.012.034-.034v-.075a.573.573 0 0 0-.217-.468c-.145-.118-.343-.177-.594-.177-.231 0-.413.053-.545.158a.534.534 0 0 0-.199.443c0 .122.03.223.087.304.058.08.133.146.227.197.094.05.226.11.396.178.158.065.28.123.368.173.087.05.151.103.193.16a.333.333 0 0 1 .063.203.36.36 0 0 1-.136.294c-.09.073-.223.11-.397.11-.192 0-.343-.04-.451-.12a.376.376 0 0 1-.163-.318v-.092c0-.022-.011-.033-.034-.033h-.166c-.023 0-.034.01-.034.033v.106c0 .192.074.346.222.461.148.116.35.173.606.173zm1.96 0a.7.7 0 0 0 .42-.125.63.63 0 0 0 .239-.346c.032-.095.047-.235.047-.418 0-.18-.015-.32-.047-.417a.63.63 0 0 0-.24-.34.694.694 0 0 0-.415-.125.718.718 0 0 0-.428.125.626.626 0 0 0-.24.343c-.032.102-.048.24-.048.414s.016.313.047.418a.643.643 0 0 0 .245.346.707.707 0 0 0 .42.125zm0-.21a.457.457 0 0 1-.286-.09.422.422 0 0 1-.155-.243 1.639 1.639 0 0 1-.027-.342c0-.15.01-.264.027-.343a.442.442 0 0 1 .156-.243c.077-.06.171-.09.282-.09.11 0 .205.03.283.09.079.06.131.14.158.243.018.079.027.193.027.343 0 .147-.01.26-.03.342a.442.442 0 0 1-.156.243.439.439 0 0 1-.279.09zm1.9.21c.165 0 .309-.04.431-.122a.538.538 0 0 0 .234-.319l.014-.068c.002-.02-.008-.033-.03-.037l-.167-.027c-.025-.005-.039.004-.04.027l-.004.013v.014a.367.367 0 0 1-.151.222.479.479 0 0 1-.287.087.413.413 0 0 1-.431-.333 1.508 1.508 0 0 1-.03-.346c0-.142.01-.257.03-.343.023-.1.072-.179.148-.239.075-.06.17-.09.283-.09.113 0 .21.03.288.09.08.06.13.133.15.219l.01.05c.004.021.015.031.03.031h.007l.17-.023c.02-.005.03-.015.03-.03a.57.57 0 0 0-.256-.42.736.736 0 0 0-.43-.127.7.7 0 0 0-.42.127.617.617 0 0 0-.237.338 1.67 1.67 0 0 0-.045.414c0 .18.015.321.045.42.043.145.122.26.239.345a.693.693 0 0 0 .419.127zm1.336-2.056a.184.184 0 0 0 .19-.19.183.183 0 0 0-.19-.19c-.054 0-.1.017-.136.052a.183.183 0 0 0-.054.138.184.184 0 0 0 .19.19zm.078 2.026c.023 0 .034-.012.034-.034v-1.65c0-.022-.011-.034-.034-.034h-.173c-.023 0-.034.012-.034.034v1.65c0 .022.011.034.034.034h.173zm1.133.03a.83.83 0 0 0 .302-.052.53.53 0 0 0 .22-.155c.005-.004.009-.005.012-.003a.011.011 0 0 1 .005.01v.14c0 .022.011.033.034.033h.173c.023 0 .034-.011.034-.034v-1.14a.541.541 0 0 0-.166-.414c-.111-.104-.268-.156-.472-.156a.773.773 0 0 0-.441.118.438.438 0 0 0-.204.31c-.004.013.006.022.03.026l.184.024c.02.003.034-.008.04-.03a.263.263 0 0 1 .126-.175.498.498 0 0 1 .265-.063c.136 0 .236.033.3.1a.377.377 0 0 1 .097.273v.13c0 .008-.004.013-.013.013h-.394c-.22 0-.391.05-.514.148a.487.487 0 0 0-.185.402c0 .167.054.292.163.373a.654.654 0 0 0 .404.122zm.047-.207c-.11 0-.2-.025-.27-.076-.069-.051-.103-.126-.103-.226a.29.29 0 0 1 .135-.254.633.633 0 0 1 .36-.092h.357c.009 0 .013.005.013.014v.264a.312.312 0 0 1-.146.27.597.597 0 0 1-.346.1zm1.499.18c.023 0 .034-.011.034-.034v-2.308c0-.022-.011-.034-.034-.034h-.173c-.023 0-.034.012-.034.034v2.308c0 .023.011.034.034.034h.173z" fill="#7F98FE" fill-rule="nonzero"/>
        <path d="M4.876 43.667c.016 0 .024-.008.024-.025v-.722c0-.006.003-.01.01-.01h.473c.143 0 .26-.043.348-.128a.452.452 0 0 0 .132-.34.468.468 0 0 0-.13-.344.461.461 0 0 0-.343-.13h-.638c-.016 0-.024.007-.024.024v1.65c0 .017.008.025.024.025h.124zm.495-.9H4.91c-.007 0-.01-.003-.01-.01v-.63c0-.006.003-.01.01-.01h.46c.096 0 .173.03.233.09.06.06.09.14.09.238 0 .097-.03.175-.09.234a.317.317 0 0 1-.232.088zm.964.9c.016 0 .024-.008.024-.025v-1.648c0-.016-.008-.024-.024-.024H6.21c-.016 0-.024.008-.024.024v1.648c0 .017.008.025.024.025h.124zm.772.02c.08 0 .151-.013.216-.039a.379.379 0 0 0 .157-.11c.004-.003.006-.004.009-.002a.008.008 0 0 1 .004.007v.1c0 .016.008.024.024.024h.123c.017 0 .025-.008.025-.025v-.814a.387.387 0 0 0-.12-.296.474.474 0 0 0-.336-.111.552.552 0 0 0-.315.084.313.313 0 0 0-.146.221c-.003.01.004.016.022.02l.131.016c.015.002.024-.005.03-.021a.188.188 0 0 1 .089-.125.356.356 0 0 1 .189-.045c.097 0 .168.024.214.071.046.048.07.113.07.196v.092c0 .006-.004.01-.01.01h-.281a.574.574 0 0 0-.368.105.348.348 0 0 0-.132.287c0 .12.039.209.117.267a.467.467 0 0 0 .288.087zm.034-.149a.317.317 0 0 1-.193-.054c-.049-.037-.074-.09-.074-.162 0-.077.033-.138.097-.181a.452.452 0 0 1 .257-.066h.255c.006 0 .01.003.01.01v.189c0 .08-.035.145-.105.193a.426.426 0 0 1-.247.071zm1.07.129c.017 0 .025-.008.025-.025v-.77c0-.09.027-.161.082-.216a.292.292 0 0 1 .216-.083c.086 0 .156.029.21.085.054.057.081.13.081.218v.766c0 .017.008.025.024.025h.124c.016 0 .024-.008.024-.025v-.8a.41.41 0 0 0-.115-.305.42.42 0 0 0-.31-.114c-.146 0-.255.05-.326.15-.002.004-.004.004-.006.003a.008.008 0 0 1-.004-.008v-.104c0-.016-.008-.024-.024-.024h-.124c-.016 0-.024.008-.024.024v1.178c0 .017.008.025.024.025h.124zm1.348 0c.016 0 .024-.008.024-.025v-.77c0-.09.028-.161.082-.216a.292.292 0 0 1 .216-.083c.086 0 .156.029.21.085.054.057.081.13.081.218v.766c0 .017.008.025.024.025h.124c.016 0 .024-.008.024-.025v-.8a.41.41 0 0 0-.115-.305.42.42 0 0 0-.309-.114c-.147 0-.256.05-.327.15-.002.004-.004.004-.006.003a.008.008 0 0 1-.004-.008v-.104c0-.016-.008-.024-.024-.024h-.124c-.016 0-.024.008-.024.024v1.178c0 .017.008.025.024.025h.124zm1.371-.003c.016 0 .024-.008.024-.024v-1.178c0-.016-.008-.024-.024-.024h-.124c-.016 0-.024.008-.024.024v1.178c0 .016.008.024.024.024h.124zm.634.003c.017 0 .025-.008.025-.025v-.77c0-.09.027-.161.082-.216a.292.292 0 0 1 .216-.083c.086 0 .155.029.21.085.054.057.08.13.08.218v.766c0 .017.009.025.025.025h.124c.016 0 .024-.008.024-.025v-.8a.41.41 0 0 0-.115-.305.42.42 0 0 0-.31-.114c-.146 0-.256.05-.327.15-.001.004-.003.004-.006.003a.008.008 0 0 1-.003-.008v-.104c0-.016-.008-.024-.025-.024h-.123c-.016 0-.024.008-.024.024v1.178c0 .017.008.025.024.025h.123zm1.541.482c.183 0 .327-.042.43-.126.105-.084.157-.217.157-.398v-1.16c0-.017-.008-.025-.024-.025h-.124c-.016 0-.024.008-.024.024v.095a.008.008 0 0 1-.004.007c-.002.002-.005 0-.008-.002-.074-.096-.184-.143-.327-.143a.433.433 0 0 0-.432.322.561.561 0 0 0-.025.13 2.218 2.218 0 0 0-.006.18c0 .131.01.23.029.296a.409.409 0 0 0 .163.24.48.48 0 0 0 .28.085.377.377 0 0 0 .318-.146c.003-.003.006-.004.008-.003.003 0 .004.003.004.006v.09c0 .127-.034.22-.102.28-.068.059-.177.088-.327.088l-.066-.002a.018.018 0 0 0-.017.003c-.004.004-.007.01-.007.018l-.005.112c0 .016.008.025.025.027l.084.002zm.112-.62a.301.301 0 0 1-.303-.236.832.832 0 0 1-.024-.245c0-.11.008-.19.024-.242a.345.345 0 0 1 .11-.17.292.292 0 0 1 .193-.065.282.282 0 0 1 .288.235c.007.024.011.05.013.079l.002.166v.062l-.002.093a.608.608 0 0 1-.01.09.284.284 0 0 1-.096.167.29.29 0 0 1-.195.065zM.832 26.182c.02 0 .03-.01.03-.03v-.892c0-.008.003-.012.011-.012h.748c.02 0 .029-.01.029-.03v-.121c0-.02-.01-.03-.03-.03H.874c-.008 0-.011-.003-.011-.011v-.719c0-.007.003-.011.011-.011h1.068c.02 0 .029-.01.029-.03v-.121c0-.02-.01-.03-.03-.03H.685c-.02 0-.029.01-.029.03v1.978c0 .02.01.029.03.029h.147zm1.69-.003c.02 0 .029-.01.029-.03v-1.413c0-.02-.01-.03-.03-.03h-.148c-.02 0-.029.01-.029.03v1.414c0 .02.01.029.03.029h.148zm.76.003c.02 0 .03-.01.03-.03v-.924a.35.35 0 0 1 .099-.26.35.35 0 0 1 .259-.098c.103 0 .186.034.251.102a.363.363 0 0 1 .098.261v.92c0 .02.01.029.029.029h.148c.02 0 .03-.01.03-.03v-.96a.492.492 0 0 0-.139-.366.504.504 0 0 0-.37-.137c-.177 0-.308.06-.393.18-.002.005-.005.006-.008.004a.01.01 0 0 1-.004-.009v-.125c0-.02-.01-.03-.03-.03h-.147c-.02 0-.03.01-.03.03v1.414c0 .02.01.029.03.029h.148zm1.827.023a.711.711 0 0 0 .259-.045.454.454 0 0 0 .189-.132c.004-.004.007-.005.01-.003a.01.01 0 0 1 .004.008v.12c0 .02.01.029.03.029h.148c.02 0 .029-.01.029-.03v-.977a.464.464 0 0 0-.143-.355c-.095-.089-.23-.133-.404-.133a.663.663 0 0 0-.378.101.375.375 0 0 0-.175.265c-.004.012.005.02.026.023l.158.02c.017.003.029-.006.034-.025a.225.225 0 0 1 .108-.15.427.427 0 0 1 .227-.054c.116 0 .202.029.257.086a.323.323 0 0 1 .083.234v.11c0 .008-.003.012-.011.012h-.338c-.188 0-.335.042-.44.127a.417.417 0 0 0-.159.344c0 .144.047.25.14.32a.56.56 0 0 0 .346.105zm.04-.177a.38.38 0 0 1-.23-.066c-.06-.043-.09-.108-.09-.193a.25.25 0 0 1 .117-.218.542.542 0 0 1 .308-.079h.306c.008 0 .011.004.011.012v.227a.267.267 0 0 1-.125.23.512.512 0 0 1-.296.087zm1.285.154c.02 0 .03-.01.03-.03v-.924a.35.35 0 0 1 .098-.26.35.35 0 0 1 .26-.098c.102 0 .186.034.251.102a.363.363 0 0 1 .097.261v.92c0 .02.01.029.03.029h.148c.02 0 .029-.01.029-.03v-.96a.492.492 0 0 0-.138-.366.504.504 0 0 0-.371-.137c-.177 0-.308.06-.393.18-.002.005-.004.006-.007.004a.01.01 0 0 1-.004-.009v-.125c0-.02-.01-.03-.03-.03h-.148c-.02 0-.029.01-.029.03v1.414c0 .02.01.029.03.029h.147zm1.975.023a.65.65 0 0 0 .37-.105.46.46 0 0 0 .2-.273l.012-.058c.001-.018-.007-.028-.027-.032l-.142-.024c-.022-.003-.033.004-.035.024l-.003.011v.012a.314.314 0 0 1-.13.19.41.41 0 0 1-.245.075.354.354 0 0 1-.37-.285 1.292 1.292 0 0 1-.026-.297c0-.122.009-.22.026-.294a.353.353 0 0 1 .127-.205.38.38 0 0 1 .243-.077c.097 0 .18.026.247.077.068.051.11.114.128.188l.009.043c.004.018.012.026.026.026h.006l.145-.02c.018-.004.026-.013.026-.026a.489.489 0 0 0-.22-.36.63.63 0 0 0-.367-.108.6.6 0 0 0-.361.109.529.529 0 0 0-.204.29 1.43 1.43 0 0 0-.037.354c0 .155.012.275.037.36a.546.546 0 0 0 .205.296c.1.073.22.11.36.11zm1.212-.026c.02 0 .029-.01.029-.03v-1.413c0-.02-.01-.03-.03-.03h-.148c-.019 0-.029.01-.029.03v1.414c0 .02.01.029.03.029h.148zm.97.026a.711.711 0 0 0 .26-.045.454.454 0 0 0 .189-.132c.003-.004.007-.005.01-.003a.01.01 0 0 1 .004.008v.12c0 .02.01.029.03.029h.148c.019 0 .029-.01.029-.03v-.977a.464.464 0 0 0-.143-.355c-.095-.089-.23-.133-.404-.133a.663.663 0 0 0-.378.101.375.375 0 0 0-.175.265c-.004.012.005.02.026.023l.157.02c.018.003.03-.006.035-.025a.225.225 0 0 1 .108-.15.427.427 0 0 1 .227-.054c.116 0 .202.029.257.086a.323.323 0 0 1 .083.234v.11c0 .008-.004.012-.012.012h-.337c-.188 0-.335.042-.44.127a.417.417 0 0 0-.16.344c0 .144.047.25.14.32a.56.56 0 0 0 .347.105zm.041-.177a.38.38 0 0 1-.231-.066c-.06-.043-.089-.108-.089-.193a.25.25 0 0 1 .117-.218.542.542 0 0 1 .308-.079h.305c.008 0 .012.004.012.012v.227a.267.267 0 0 1-.125.23.512.512 0 0 1-.297.087zm1.285.154c.02 0 .03-.01.03-.03v-1.977c0-.02-.01-.03-.03-.03h-.148c-.02 0-.03.01-.03.03v1.978c0 .02.01.029.03.029h.148z" fill="#57F" fill-rule="nonzero"/>
        <path d="M9.25 21.697c.077 0 .123-.039.138-.117l1.01-4.593c.007-.028.017-.042.032-.042.014 0 .024.014.031.042l1.085 4.604c.021.071.067.106.138.106h1.265c.078 0 .128-.035.15-.106l1.743-7.198c.021-.092-.018-.138-.117-.138H13.47c-.07 0-.116.039-.138.117l-.978 4.316c-.007.029-.018.041-.032.038-.014-.004-.025-.016-.032-.038l-1.063-4.327c-.021-.071-.07-.106-.149-.106H9.792c-.071 0-.117.039-.139.117l-.978 4.316c-.007.029-.018.043-.032.043-.014 0-.025-.014-.032-.043l-1.01-4.327c-.021-.071-.067-.106-.138-.106H6.145c-.078 0-.117.031-.117.095l.01.043L7.92 21.59c.022.071.071.106.15.106h1.18zm8.332.085c.595 0 1.104-.157 1.526-.473.421-.315.71-.75.866-1.302.1-.333.149-.691.149-1.074 0-.39-.057-.762-.17-1.117-.17-.524-.46-.933-.872-1.228-.411-.294-.907-.44-1.489-.44-.595 0-1.105.148-1.53.446-.426.297-.72.709-.883 1.233-.1.333-.15.709-.15 1.127 0 .39.05.752.15 1.085.156.538.446.964.872 1.276.425.312.935.467 1.53.467zm0-1.286a.911.911 0 0 1-.612-.213 1.164 1.164 0 0 1-.356-.585c-.05-.177-.074-.425-.074-.744 0-.333.028-.585.085-.755.07-.24.186-.429.345-.563a.899.899 0 0 1 .601-.202c.234 0 .433.067.596.202.163.134.283.322.361.563.057.206.085.457.085.755 0 .27-.028.518-.085.744-.07.249-.188.443-.35.585a.876.876 0 0 1-.596.213zm5.057 1.201a.123.123 0 0 0 .09-.037.123.123 0 0 0 .038-.09v-2.903c0-.276.089-.498.266-.664.177-.167.393-.26.648-.282.1-.014.178-.021.234-.021.142 0 .266.017.372.053.093.035.142.01.15-.075l.223-1.212c.014-.078-.008-.131-.064-.16-.15-.099-.351-.148-.606-.148-.49 0-.88.212-1.17.638-.007.014-.018.017-.032.01-.014-.007-.021-.02-.021-.042v-.404a.123.123 0 0 0-.037-.09.123.123 0 0 0-.09-.038h-1.245a.123.123 0 0 0-.09.037.123.123 0 0 0-.037.09v5.21c0 .036.012.066.037.091a.123.123 0 0 0 .09.037h1.244zm4.845.085c.518 0 .925-.194 1.223-.584.014-.015.028-.02.043-.016.014.003.02.016.02.037v.35c0 .036.013.066.038.091a.123.123 0 0 0 .09.037h1.244a.123.123 0 0 0 .09-.037.123.123 0 0 0 .038-.09v-7.188a.123.123 0 0 0-.037-.09.123.123 0 0 0-.09-.037h-1.245a.123.123 0 0 0-.09.037.123.123 0 0 0-.037.09v2.276c0 .02-.007.035-.021.042-.015.007-.029 0-.043-.021-.283-.355-.68-.532-1.19-.532-.518 0-.952.133-1.303.399s-.608.625-.771 1.08c-.128.375-.192.814-.192 1.318 0 .489.06.917.181 1.286.156.482.413.861.771 1.138.358.276.785.414 1.281.414zm.32-1.286a.856.856 0 0 1-.788-.457c-.148-.284-.223-.638-.223-1.064 0-.474.089-.85.266-1.127a.831.831 0 0 1 .755-.414.78.78 0 0 1 .712.414c.156.27.234.642.234 1.117 0 .453-.07.811-.212 1.074-.178.305-.426.457-.745.457z" fill="#57F"/>
    </g>
</svg>
