<svg xmlns="http://www.w3.org/2000/svg" width="16" height="16" viewBox="0 0 16 16">
    <g fill="none" fill-rule="evenodd">
        <g fill="#9799AC" fill-rule="nonzero">
            <g>
                <g>
                    <g>
                        <path d="M6.276 11.61l8-8c.52-.521.52-1.365 0-1.886L12.943.391c-.521-.52-1.365-.52-1.886 0l-8 8c-.101.101-.186.218-.25.346l-1.083 4.206 4.205-1.076c.13-.067.246-.154.347-.258zM15.333 14.667H.667c-.369 0-.667.298-.667.666 0 .369.298.667.667.667h14.666c.369 0 .667-.298.667-.667 0-.368-.298-.666-.667-.666z" transform="translate(-1075.000000, -171.000000) translate(205.000000, 82.000000) translate(870.000000, 88.000000) translate(0.000000, 1.000000)"/>
                    </g>
                </g>
            </g>
        </g>
    </g>
</svg>
